<svg width="19" height="20" viewBox="0 0 19 20" fill="none" xmlns="http://www.w3.org/2000/svg">
<path d="M10.8713 2.9263L12.2647 5.71297C12.4547 6.10088 12.9613 6.47297 13.3888 6.54422L15.9143 6.9638C17.5293 7.23297 17.9093 8.40463 16.7455 9.56047L14.7822 11.5238C14.4497 11.8563 14.2676 12.4975 14.3705 12.9567L14.9326 15.3871C15.3759 17.3109 14.3547 18.0551 12.6526 17.0496L10.2855 15.6484C9.85801 15.3951 9.15343 15.3951 8.71801 15.6484L6.35093 17.0496C4.65676 18.0551 3.62759 17.303 4.07093 15.3871L4.63301 12.9567C4.73593 12.4975 4.55384 11.8563 4.22134 11.5238L2.25801 9.56047C1.10218 8.40463 1.47426 7.23297 3.08926 6.9638L5.61468 6.54422C6.03426 6.47297 6.54093 6.10088 6.73093 5.71297L8.12426 2.9263C8.88426 1.41422 10.1193 1.41422 10.8713 2.9263Z" stroke="#CD294A" stroke-width="2.5" stroke-linecap="round" stroke-linejoin="round"/>
</svg>
