<svg width="30" height="30" viewBox="0 0 30 30" fill="none" xmlns="http://www.w3.org/2000/svg">
<circle cx="15" cy="15" r="15" fill="white"/>
<path d="M12.9877 5.81903C14.1302 4.78613 15.8692 4.78613 17.0116 5.81903L17.7402 6.47771C18.2843 6.96968 18.9898 7.24522 19.7234 7.25225L20.6648 7.26127C22.2972 7.27691 23.6175 8.595 23.6358 10.2274L23.6406 10.6465C23.6497 11.4612 23.9899 12.2371 24.5828 12.7959L24.8498 13.0475C26.1064 14.2318 26.1064 16.2297 24.8498 17.414L24.5828 17.6656C23.9899 18.2244 23.6497 19.0004 23.6406 19.8151L23.6358 20.2341C23.6175 21.8665 22.2972 23.1846 20.6648 23.2003L19.7234 23.2093C18.9898 23.2163 18.2843 23.4919 17.7402 23.9838L17.0116 24.6425C15.8692 25.6754 14.1302 25.6754 12.9877 24.6425L12.2592 23.9838C11.715 23.4919 11.0095 23.2163 10.276 23.2093L9.33458 23.2003C7.70214 23.1846 6.38186 21.8665 6.36351 20.2341L6.3588 19.8151C6.34964 19.0004 6.00949 18.2244 5.41654 17.6656L5.14958 17.414C3.89299 16.2297 3.89298 14.2318 5.14958 13.0475L5.41654 12.7959C6.00949 12.2371 6.34964 11.4612 6.3588 10.6465L6.36351 10.2274C6.38186 8.595 7.70214 7.27691 9.33458 7.26127L10.276 7.25225C11.0095 7.24522 11.715 6.96968 12.2592 6.47771L12.9877 5.81903Z" fill="url(#paint0_linear_142:6603)"/>
<path d="M10 12.6313L12.1054 11.0894H13.3022V18.9106H11.64V13.4693L10.8643 14.0168L10 12.6313Z" fill="white"/>
<path d="M14.6367 15C14.6367 13.7486 14.8621 12.7691 15.3127 12.0615C15.7707 11.3538 16.4393 11 17.3184 11C18.1975 11 18.8623 11.3538 19.313 12.0615C19.771 12.7691 20 13.7486 20 15C20 16.2514 19.7747 17.2309 19.3241 17.9385C18.8808 18.6462 18.2196 19 17.3405 19C16.454 19 15.7818 18.6462 15.3238 17.9385C14.8658 17.2235 14.6367 16.2439 14.6367 15ZM16.4097 15C16.4097 16.6238 16.72 17.4358 17.3405 17.4358C17.6582 17.4358 17.8835 17.257 18.0165 16.8994C18.1568 16.5345 18.227 15.9013 18.227 15C18.227 14.0987 18.1568 13.4693 18.0165 13.1117C17.8761 12.7467 17.6434 12.5642 17.3184 12.5642C17.0007 12.5642 16.768 12.7505 16.6203 13.1229C16.4799 13.4953 16.4097 14.121 16.4097 15Z" fill="white"/>
<defs>
<linearGradient id="paint0_linear_142:6603" x1="-11.8097" y1="-16.1493" x2="44.0073" y2="-5.56877" gradientUnits="userSpaceOnUse">
<stop stop-color="#DC2B40"/>
<stop offset="1" stop-color="#CC284F"/>
</linearGradient>
</defs>
</svg>
