<svg width="30" height="30" viewBox="0 0 30 30" fill="none" xmlns="http://www.w3.org/2000/svg">
<path d="M15 0L20.625 5.25721L27.9904 7.5L26.25 15L27.9904 22.5L20.625 24.7428L15 30L9.375 24.7428L2.00962 22.5L3.75 15L2.00962 7.5L9.375 5.25721L15 0Z" fill="#F995A6"/>
<path d="M12.795 15.88L13.515 10H18.705V12.25H15.495L15.285 13.585H15.645C16.585 13.585 17.365 13.895 17.985 14.515C18.615 15.135 18.93 15.965 18.93 17.005C18.93 18.145 18.57 19.045 17.85 19.705C17.13 20.355 16.215 20.68 15.105 20.68C14.525 20.68 13.935 20.555 13.335 20.305C12.745 20.045 12.3 19.7 12 19.27L13.26 17.545C13.47 17.795 13.755 18.005 14.115 18.175C14.475 18.345 14.825 18.43 15.165 18.43C15.565 18.43 15.89 18.31 16.14 18.07C16.4 17.82 16.53 17.5 16.53 17.11C16.53 16.67 16.36 16.31 16.02 16.03C15.68 15.75 15.205 15.61 14.595 15.61C13.775 15.61 13.175 15.7 12.795 15.88Z" fill="white"/>
</svg>
