<svg width="16" height="18" viewBox="0 0 16 18" fill="none" xmlns="http://www.w3.org/2000/svg">
<path d="M8.44488 8.01417C8.37526 8.00423 8.28576 8.00423 8.20619 8.01417C6.45582 7.9545 5.06348 6.52238 5.06348 4.76206C5.06348 2.96196 6.51549 1.5 8.32554 1.5C10.1256 1.5 11.5876 2.96196 11.5876 4.76206C11.5777 6.52238 10.1953 7.9545 8.44488 8.01417Z" fill="white" stroke="white" stroke-width="1.5" stroke-linecap="round" stroke-linejoin="round"/>
<path d="M15.0278 14.5777C14.7756 16.592 10.9104 17.1834 8.32463 17.1834C5.73885 17.1834 2.19619 16.592 1.62149 14.5777C1.34621 13.6129 2.31766 12.7279 3.38181 12.0118C6.10682 10.2018 10.5623 10.2018 13.2674 12.0118C14.3316 12.7279 15.0982 13.6891 15.0278 14.5777Z" fill="white" stroke="white" stroke-width="1.5" stroke-linecap="round" stroke-linejoin="round"/>
</svg>
