<svg width="596" height="397" viewBox="0 0 596 397" fill="none" xmlns="http://www.w3.org/2000/svg">
<g clip-path="url(#clip0)">
<path d="M85.1721 332.857C85.1721 332.857 12.2126 289.679 16.1024 178.861C19.9922 68.0429 117.818 0.78326 189.895 2.27089C261.973 3.75852 282.853 34.7827 342.286 39.606C401.719 44.4293 506.338 1.38046 570.254 54.6227C634.17 107.865 583.357 238.762 507.405 332.913C431.452 427.063 202.934 443.449 85.1721 332.857Z" fill="url(#paint0_linear)" fill-opacity="0.9"/>
<path d="M137.294 59.9238H42.2681V230.491H137.294V59.9238Z" fill="#FFC1CF"/>
<path d="M132.519 64.8701H46.0669V225.409H132.519V64.8701Z" fill="#FFECF0"/>
<path d="M132.519 66.7598L46.0669 176.642V64.8701H132.519V66.7598Z" fill="#FFECF0"/>
<path d="M134.394 111.049H46.0669V112.756H134.394V111.049Z" fill="#FFC1CF"/>
<path d="M134.394 149.28H46.0669V150.987H134.394V149.28Z" fill="#FFC1CF"/>
<path d="M134.394 187.511H46.0669V189.218H134.394V187.511Z" fill="#FFC1CF"/>
<path d="M87.1104 111.902L87.1104 229.954H91.481V111.902H87.1104Z" fill="#FFC1CF"/>
<path d="M64.6936 64.8701H62.7148V111.907H64.6936V64.8701Z" fill="#FFC1CF"/>
<path d="M81.7634 64.8701H79.7847V111.907H81.7634V64.8701Z" fill="#FFC1CF"/>
<path d="M98.8249 64.8701H96.8462V111.907H98.8249V64.8701Z" fill="#FFC1CF"/>
<path d="M115.894 64.8701H113.916V111.907H115.894V64.8701Z" fill="#FFC1CF"/>
<path d="M42.2764 57.0254H38.2554V231.539H42.2764V57.0254Z" fill="#FFECF0"/>
<path d="M141.315 232.023L137.294 230.483V57.0254H141.315V232.023Z" fill="#DA7B8F"/>
<path d="M141.324 55.2705H38.2554V59.9234H141.324V55.2705Z" fill="#DA7B8F"/>
<path d="M144.041 232.595H35.4023V236.93H144.041V232.595Z" fill="#DA7B8F"/>
<path d="M137.295 230.482L144.033 232.594H35.4023L42.2683 230.482H137.295Z" fill="#FFC1CF"/>
<path d="M546.063 166.248C546.063 166.248 539.348 165.764 539.968 180.818C540.588 195.872 542.121 203.891 542.121 203.891C542.121 203.891 541.923 207.226 539.34 206.575C536.749 205.916 531.886 202.669 529.478 205.098C526.983 207.615 527.873 211.482 531.179 216.032C534.485 220.581 541.366 230.816 541.986 231.745C542.59 232.658 542.837 234.365 541.001 234.198C539.165 234.032 526.784 229.839 525.147 235.834C523.51 241.821 534.803 252.984 536.018 254.231C537.226 255.478 537.298 256.264 536.805 257.01C536.312 257.764 532.283 255.962 528.715 254.914C525.147 253.866 520.824 253.278 520.165 256.812C519.505 260.345 524.488 270.691 543.123 281.56L552.086 286.031L560.574 280.624C578.024 267.943 581.942 257.153 580.933 253.707C579.924 250.253 575.68 251.277 572.239 252.675C568.79 254.072 564.968 256.272 564.404 255.573C563.84 254.874 563.824 254.088 564.904 252.722C565.985 251.365 576.109 239.129 573.876 233.333C571.643 227.537 559.747 232.944 557.935 233.293C556.123 233.643 556.195 231.92 556.711 230.951C557.236 229.966 563.053 219.097 565.89 214.237C568.727 209.378 569.22 205.448 566.486 203.193C563.848 201.017 559.334 204.733 556.823 205.646C554.312 206.559 553.787 203.256 553.787 203.256C553.787 203.256 554.51 195.126 553.62 180.087C552.73 165.049 545.936 166.264 545.936 166.264" fill="#FFC1CF"/>
<path d="M546.587 179.73C546.587 179.73 546.603 179.834 546.627 180.048C546.643 180.27 546.667 180.58 546.698 180.969C546.754 181.795 546.833 182.994 546.937 184.526C547.143 187.615 547.406 192.085 547.715 197.611C548.327 208.664 549.051 223.932 549.782 240.797C550.521 257.67 551.196 272.938 551.752 283.991C552.031 289.501 552.261 293.971 552.42 297.076C552.499 298.608 552.555 299.807 552.595 300.633C552.611 301.03 552.627 301.332 552.634 301.562C552.642 301.768 552.634 301.879 552.634 301.879C552.634 301.879 552.619 301.776 552.595 301.562C552.579 301.34 552.555 301.03 552.523 300.641C552.468 299.815 552.388 298.616 552.285 297.084C552.078 293.995 551.816 289.525 551.506 283.999C550.894 272.946 550.171 257.677 549.432 240.805C548.693 223.94 548.017 208.672 547.461 197.619C547.183 192.109 546.953 187.639 546.794 184.534C546.714 183.002 546.659 181.803 546.619 180.977C546.603 180.58 546.587 180.27 546.579 180.048C546.587 179.842 546.587 179.73 546.587 179.73Z" fill="#DA7B8F"/>
<path d="M536.098 209.918C536.114 209.902 536.312 210.069 536.654 210.379C536.996 210.688 537.48 211.157 538.076 211.744C539.26 212.911 540.85 214.579 542.574 216.437C544.259 218.279 545.785 219.946 546.961 221.233C547.485 221.796 547.93 222.281 548.296 222.678C548.614 223.019 548.781 223.218 548.765 223.233C548.749 223.249 548.55 223.083 548.2 222.773C547.859 222.455 547.374 221.987 546.786 221.399C545.618 220.216 544.044 218.533 542.328 216.675C540.635 214.849 539.094 213.197 537.91 211.919C537.385 211.355 536.932 210.871 536.567 210.482C536.249 210.132 536.082 209.934 536.098 209.918Z" fill="#DA7B8F"/>
<path d="M549.646 222.939C549.583 222.876 552.857 219.446 556.965 215.277C561.074 211.109 564.467 207.79 564.531 207.853C564.594 207.917 561.32 211.347 557.212 215.516C553.103 219.684 549.718 223.011 549.646 222.939Z" fill="#DA7B8F"/>
<path d="M549.615 248.895C549.607 248.871 549.83 248.736 550.243 248.498C550.72 248.228 551.308 247.903 551.999 247.514C553.477 246.68 555.52 245.529 557.721 244.171C559.93 242.821 561.885 241.535 563.299 240.59C563.959 240.153 564.515 239.78 564.968 239.478C565.366 239.216 565.588 239.081 565.604 239.105C565.62 239.121 565.421 239.296 565.048 239.59C564.674 239.883 564.126 240.296 563.435 240.796C562.06 241.789 560.113 243.115 557.904 244.473C555.695 245.83 553.629 246.958 552.119 247.736C551.364 248.125 550.744 248.427 550.315 248.625C549.87 248.816 549.623 248.919 549.615 248.895Z" fill="#DA7B8F"/>
<path d="M534.763 239.812C534.778 239.788 534.993 239.899 535.382 240.106C535.772 240.312 536.328 240.622 537.012 241.011C538.378 241.789 540.246 242.877 542.304 244.099C544.362 245.322 546.214 246.45 547.549 247.275C548.216 247.688 548.749 248.03 549.122 248.268C549.488 248.506 549.686 248.649 549.671 248.673C549.655 248.697 549.44 248.586 549.051 248.379C548.661 248.173 548.105 247.863 547.422 247.474C546.055 246.696 544.187 245.608 542.121 244.385C540.063 243.162 538.211 242.035 536.876 241.209C536.209 240.796 535.676 240.455 535.303 240.217C534.945 239.979 534.747 239.836 534.763 239.812Z" fill="#DA7B8F"/>
<path d="M531.815 262.727C531.831 262.703 532.109 262.846 532.601 263.108C533.158 263.41 533.857 263.799 534.691 264.26C536.448 265.244 538.855 266.626 541.51 268.166C544.164 269.706 546.556 271.12 548.28 272.16C549.091 272.66 549.774 273.073 550.314 273.406C550.791 273.708 551.046 273.883 551.038 273.907C551.03 273.93 550.744 273.788 550.251 273.526C549.703 273.224 549.003 272.835 548.161 272.374C546.405 271.39 543.997 270.008 541.343 268.468C538.688 266.927 536.297 265.514 534.572 264.474C533.762 263.974 533.078 263.561 532.538 263.227C532.061 262.918 531.807 262.743 531.815 262.727Z" fill="#DA7B8F"/>
<path d="M550.649 273.501C550.641 273.478 550.919 273.295 551.427 272.977C552 272.628 552.731 272.183 553.605 271.651C555.44 270.532 557.975 268.976 560.733 267.181C563.49 265.395 565.938 263.703 567.702 262.481C568.544 261.893 569.252 261.409 569.8 261.028C570.301 260.686 570.579 260.504 570.595 260.527C570.611 260.543 570.356 260.766 569.879 261.139C569.411 261.512 568.711 262.044 567.845 262.679C566.113 263.958 563.681 265.681 560.916 267.475C558.158 269.269 555.599 270.794 553.724 271.866C552.786 272.398 552.023 272.819 551.491 273.097C550.959 273.374 550.657 273.517 550.649 273.501Z" fill="#DA7B8F"/>
<path d="M564.118 288.961H539.316L547.414 350.178H556.028L564.118 288.961Z" fill="#DA7B8F"/>
<path d="M540.604 296.48C540.596 296.488 540.628 296.567 540.739 296.694C540.842 296.821 541.041 296.996 541.335 297.123C541.923 297.377 542.956 297.401 543.957 296.805C544.958 296.25 545.833 295.17 547.176 294.693C548.503 294.185 550.156 294.28 551.737 294.781C553.334 295.273 554.725 296.083 555.981 296.837C557.244 297.584 558.396 298.258 559.437 298.687C560.47 299.14 561.36 299.346 561.988 299.426C562.298 299.465 562.544 299.481 562.711 299.473C562.878 299.473 562.966 299.465 562.966 299.449C562.982 299.37 561.559 299.378 559.564 298.425C558.563 297.965 557.435 297.282 556.187 296.52C554.94 295.749 553.517 294.908 551.872 294.4C550.243 293.876 548.487 293.78 547.056 294.344C546.341 294.614 545.745 295.043 545.245 295.464C544.736 295.884 544.283 296.273 543.822 296.559C542.916 297.147 541.963 297.171 541.406 296.98C540.818 296.782 540.635 296.448 540.604 296.48Z" fill="#FFECF0"/>
<path d="M541.51 307.763C541.542 307.787 541.709 307.509 542.098 307.104C542.495 306.715 543.139 306.199 544.077 305.849C545.006 305.492 546.206 305.278 547.526 305.333C548.853 305.381 550.299 305.667 551.841 305.921C553.374 306.183 554.9 306.294 556.259 306.103C557.618 305.929 558.802 305.54 559.74 305.111C560.677 304.682 561.377 304.214 561.83 303.872C562.29 303.523 562.505 303.293 562.489 303.277C562.441 303.213 561.488 304.063 559.62 304.849C558.691 305.23 557.53 305.587 556.211 305.73C554.892 305.897 553.43 305.77 551.904 305.516C550.378 305.27 548.908 304.984 547.534 304.952C546.159 304.92 544.927 305.174 543.966 305.579C542.996 305.976 542.344 306.556 541.979 306.993C541.804 307.223 541.669 307.406 541.605 307.541C541.534 307.676 541.502 307.755 541.51 307.763Z" fill="#FFECF0"/>
<path d="M561.313 313.797C561.321 313.781 561.091 313.622 560.63 313.44C560.169 313.257 559.461 313.074 558.571 313.003C557.681 312.931 556.617 312.987 555.464 313.178C554.304 313.368 553.064 313.686 551.769 313.964C550.466 314.242 549.21 314.424 548.074 314.376C546.938 314.337 545.928 314.091 545.142 313.741C543.544 313.043 542.98 312.026 542.917 312.09C542.901 312.098 543.012 312.352 543.338 312.733C543.656 313.114 544.212 313.598 545.022 314.003C545.825 314.4 546.874 314.686 548.058 314.75C549.242 314.813 550.537 314.631 551.849 314.353C553.168 314.075 554.399 313.741 555.528 313.543C556.656 313.336 557.689 313.249 558.556 313.281C560.296 313.344 561.289 313.868 561.313 313.797Z" fill="#FFECF0"/>
<path d="M543.703 322.285C543.719 322.348 544.585 321.737 546.111 322.039C546.858 322.174 547.692 322.555 548.63 322.976C549.568 323.412 550.688 323.786 551.896 323.873C554.336 324.103 556.497 323.317 557.832 322.499C558.516 322.094 558.985 321.658 559.31 321.364C559.612 321.046 559.763 320.856 559.748 320.84C559.692 320.784 559.04 321.515 557.689 322.253C556.362 322.984 554.272 323.698 551.936 323.468C549.592 323.333 547.788 321.936 546.159 321.753C545.364 321.634 544.704 321.745 544.291 321.912C543.87 322.086 543.687 322.269 543.703 322.285Z" fill="#FFECF0"/>
<path d="M545.086 334.036C545.086 334.084 545.92 334.076 547.152 333.623C548.4 333.21 549.941 332.25 551.745 331.535C552.651 331.194 553.557 330.979 554.384 330.987C555.21 330.987 555.941 331.194 556.505 331.472C557.642 332.035 557.975 332.845 558.039 332.79C558.055 332.782 558.007 332.583 557.801 332.266C557.602 331.956 557.221 331.551 556.64 331.218C556.06 330.884 555.282 330.638 554.392 330.614C553.502 330.59 552.54 330.805 551.61 331.162C549.743 331.908 548.249 332.885 547.057 333.361C545.873 333.869 545.078 333.973 545.086 334.036Z" fill="#FFECF0"/>
<path d="M546.302 339.507C546.286 339.555 546.882 339.769 547.876 340.015C548.861 340.261 550.252 340.523 551.801 340.674C553.351 340.825 554.765 340.841 555.783 340.785C556.8 340.738 557.427 340.642 557.42 340.595C557.412 340.476 554.908 340.579 551.841 340.269C548.773 339.975 546.334 339.388 546.302 339.507Z" fill="#FFECF0"/>
<path d="M550.044 66.9346H473.47V117.242H550.044V66.9346Z" fill="#DA7B8F"/>
<path d="M547.342 68.9912H476.132V114.988H547.342V68.9912Z" fill="#FFECF0"/>
<path d="M523.351 85.7607H500.123V98.4171H523.351V85.7607Z" fill="#DA7B8F"/>
<path d="M571.564 350.988C571.564 351.099 449.074 351.194 298.016 351.194C146.902 351.194 24.4438 351.099 24.4438 350.988C24.4438 350.877 146.902 350.781 298.016 350.781C449.074 350.781 571.564 350.877 571.564 350.988Z" fill="#2B3242"/>
<path d="M381.623 199.294H230.533V30.3701H394.52V186.423C394.512 193.529 388.743 199.294 381.623 199.294Z" fill="#FFC1CF"/>
<path d="M380.971 80.6467C380.971 80.9881 351.33 81.266 314.775 81.266C278.213 81.266 248.58 80.9881 248.58 80.6467C248.58 80.3052 278.213 80.0273 314.775 80.0273C351.338 80.0273 380.971 80.3052 380.971 80.6467Z" fill="#455A64"/>
<path d="M315.562 92.0881C315.562 92.4295 300.916 92.7074 282.861 92.7074C264.799 92.7074 250.153 92.4295 250.153 92.0881C250.153 91.7467 264.791 91.4688 282.861 91.4688C300.924 91.4688 315.562 91.7467 315.562 92.0881Z" fill="#455A64"/>
<path d="M341.73 91.0324C341.73 91.3738 337.853 91.6517 333.069 91.6517C328.285 91.6517 324.407 91.3738 324.407 91.0324C324.407 90.691 328.285 90.4131 333.069 90.4131C337.853 90.4131 341.73 90.691 341.73 91.0324Z" fill="#455A64"/>
<path d="M384.507 90.3254C384.507 90.6668 376.831 90.9447 367.358 90.9447C357.886 90.9447 350.209 90.6668 350.209 90.3254C350.209 89.984 357.886 89.7061 367.358 89.7061C376.831 89.7061 384.507 89.984 384.507 90.3254Z" fill="#455A64"/>
<path d="M310.103 103.037C310.103 103.379 296.331 103.657 279.341 103.657C262.351 103.657 248.58 103.379 248.58 103.037C248.58 102.696 262.351 102.418 279.341 102.418C296.331 102.418 310.103 102.696 310.103 103.037Z" fill="#455A64"/>
<path d="M384.507 102.728C384.507 103.069 369.464 103.347 350.917 103.347C332.361 103.347 317.326 103.069 317.326 102.728C317.326 102.386 332.361 102.108 350.917 102.108C369.472 102.108 384.507 102.378 384.507 102.728Z" fill="#455A64"/>
<path d="M384.507 113.748C384.507 114.09 377.808 114.368 369.552 114.368C361.287 114.368 354.596 114.09 354.596 113.748C354.596 113.407 361.287 113.129 369.552 113.129C377.816 113.121 384.507 113.399 384.507 113.748Z" fill="#455A64"/>
<path d="M322.634 68.3791C322.634 68.7205 306.407 68.9984 286.398 68.9984C266.38 68.9984 250.153 68.7205 250.153 68.3791C250.153 68.0377 266.372 67.7598 286.398 67.7598C306.407 67.7598 322.634 68.0377 322.634 68.3791Z" fill="#DF5A78"/>
<path d="M423.446 350.067H105.953C99.5557 350.067 94.3745 344.89 94.3745 338.498V136.552C94.3745 130.16 99.5557 124.983 105.953 124.983H423.446C429.843 124.983 435.024 130.16 435.024 136.552V338.498C435.024 344.89 429.843 350.067 423.446 350.067Z" fill="#2B3242"/>
<path d="M435.533 353.115H94.7559C86.9443 353.115 80.6108 346.787 80.6108 338.982V333.416H449.678V338.982C449.67 346.787 443.344 353.115 435.533 353.115Z" fill="#2B3242"/>
<path d="M425.401 133.932H103.998V324.007H425.401V133.932Z" fill="#767A85"/>
<path d="M231.598 333.417C231.59 333.417 231.709 333.409 231.955 333.409C232.217 333.409 232.575 333.401 233.036 333.401C234.013 333.393 235.428 333.385 237.232 333.377C240.919 333.361 246.227 333.337 252.807 333.313C266.062 333.282 284.411 333.242 304.874 333.202H305.255L305.065 333.536C304.413 334.655 303.706 335.862 302.998 337.077C302.259 338.347 301.52 339.61 300.813 340.817L300.749 340.928H300.622C272.3 340.872 248.119 340.833 236.183 340.809H236.127L236.095 340.761C234.625 338.371 233.497 336.537 232.718 335.275C232.352 334.679 232.066 334.211 231.868 333.885C231.685 333.567 231.598 333.417 231.598 333.417C231.598 333.417 231.717 333.583 231.915 333.901C232.13 334.226 232.424 334.695 232.813 335.29C233.608 336.521 234.76 338.316 236.254 340.642L236.167 340.594C248.103 340.571 272.292 340.531 300.606 340.475L300.416 340.586C301.123 339.38 301.862 338.117 302.601 336.847C303.308 335.632 304.016 334.433 304.667 333.305L304.858 333.639C284.475 333.591 266.197 333.559 252.998 333.528C246.394 333.504 241.054 333.48 237.351 333.464C235.515 333.456 234.085 333.448 233.092 333.44C232.615 333.432 232.249 333.432 231.971 333.432C231.741 333.424 231.598 333.417 231.598 333.417Z" fill="#455A64"/>
<path d="M435.024 333.416C435.024 333.528 358.76 333.623 264.711 333.623C170.623 333.623 94.3823 333.528 94.3823 333.416C94.3823 333.305 170.631 333.21 264.711 333.21C358.76 333.21 435.024 333.305 435.024 333.416Z" fill="#455A64"/>
<path d="M348.088 95.9708C353.341 95.9708 357.6 100.227 357.6 105.475V124.984H329.151V106.984C329.151 100.902 334.086 95.9629 340.181 95.9629H348.088V95.9708Z" fill="#2B3242"/>
<path d="M348.088 95.9708C348.088 96.0819 321.244 96.1534 288.13 96.1216C255.008 96.0899 228.165 95.9787 228.165 95.8596C228.165 95.7485 255.008 95.677 288.13 95.7088C321.244 95.7405 348.088 95.8596 348.088 95.9708Z" fill="#2B3242"/>
<path d="M347.841 95.9466L335.977 95.8672L318.741 95.9704H192.11C181.359 95.9704 172.641 104.681 172.641 115.423V320.871V324.46H336.629V106.634C337.113 95.9704 347.841 95.9466 347.841 95.9466Z" fill="#FFECF0"/>
<path d="M347.841 95.9466L248.961 96.161L199.525 96.2007L193.342 96.2086C192.309 96.1848 191.292 96.2483 190.275 96.3039C189.266 96.4468 188.257 96.558 187.279 96.8518C183.322 97.8284 179.77 100.202 177.187 103.339C175.899 104.919 174.898 106.713 174.167 108.603C174.008 109.087 173.786 109.548 173.674 110.04L173.293 111.517C173.142 112.517 172.943 113.518 172.935 114.542C172.848 118.631 172.919 122.768 172.896 126.881L173.031 324.468L172.633 324.071L336.621 324.174L336.335 324.46L336.414 206.948L336.51 148.192L336.565 118.814L336.581 111.469L336.589 107.801C336.589 107.19 336.573 106.578 336.668 105.967C336.748 105.356 336.772 104.744 336.955 104.157C337.495 101.775 338.862 99.5355 340.928 98.1778C341.929 97.4711 343.05 96.9391 344.226 96.5898C345.402 96.2166 346.61 95.9863 347.841 95.9466ZM347.841 95.9466C346.618 95.9863 345.402 96.2245 344.234 96.5898C343.066 96.9471 341.945 97.487 340.952 98.1936C338.901 99.5593 337.551 101.79 337.018 104.165C336.835 104.752 336.812 105.363 336.74 105.967C336.645 106.57 336.668 107.182 336.668 107.801L336.676 111.477L336.692 118.822L336.748 148.2L336.843 206.956L336.923 324.468V324.754H336.637L172.649 324.857H172.252V324.46L172.387 126.873C172.411 122.752 172.347 118.647 172.443 114.51C172.451 113.462 172.649 112.438 172.808 111.406L173.198 109.889C173.317 109.381 173.539 108.905 173.706 108.412C174.461 106.475 175.486 104.633 176.813 103.013C179.468 99.8055 183.107 97.3758 187.168 96.3833C188.169 96.0816 189.21 95.9704 190.243 95.8275C191.284 95.7719 192.325 95.7164 193.35 95.7322L199.533 95.7402L248.969 95.7799L347.841 95.9466Z" fill="#2B3242"/>
<path d="M197.348 133.583H225.964L226.011 143.159H224.644C224.191 139.729 222.912 137.418 220.79 136.203C219.598 135.536 217.818 135.171 215.45 135.107V160.126C215.45 161.873 215.752 163.032 216.364 163.604C216.976 164.176 218.247 164.462 220.178 164.462V165.669H203.236V164.462C205.096 164.462 206.327 164.168 206.939 163.588C207.551 163.009 207.853 161.849 207.853 160.118V135.1C205.533 135.163 203.753 135.528 202.513 136.195C200.24 137.434 198.953 139.752 198.659 143.151H197.292L197.348 133.583Z" fill="#DF5A78"/>
<path d="M314.124 135.742C314.124 136.084 298.341 136.362 278.872 136.362C259.395 136.362 243.613 136.084 243.613 135.742C243.613 135.401 259.395 135.123 278.872 135.123C298.341 135.123 314.124 135.401 314.124 135.742Z" fill="#DF5A78"/>
<path d="M272.293 146.993C272.293 147.335 266.19 147.613 258.664 147.613C251.131 147.613 245.036 147.335 245.036 146.993C245.036 146.652 251.139 146.374 258.664 146.374C266.19 146.374 272.293 146.652 272.293 146.993Z" fill="#455A64"/>
<path d="M237.931 181.334C237.931 181.676 226.337 181.953 212.049 181.953C197.753 181.953 186.159 181.676 186.159 181.334C186.159 180.993 197.745 180.715 212.049 180.715C226.345 180.715 237.931 180.993 237.931 181.334Z" fill="#455A64"/>
<path d="M296.562 181.334C296.562 181.676 284.967 181.953 270.679 181.953C256.383 181.953 244.789 181.676 244.789 181.334C244.789 180.993 256.375 180.715 270.679 180.715C284.967 180.715 296.562 180.993 296.562 181.334Z" fill="#DF5A78"/>
<path d="M237.931 190.504C237.931 190.846 226.337 191.123 212.049 191.123C197.753 191.123 186.159 190.846 186.159 190.504C186.159 190.163 197.745 189.885 212.049 189.885C226.345 189.885 237.931 190.163 237.931 190.504Z" fill="#455A64"/>
<path d="M237.931 199.675C237.931 200.017 226.337 200.294 212.049 200.294C197.753 200.294 186.159 200.017 186.159 199.675C186.159 199.334 197.745 199.056 212.049 199.056C226.345 199.048 237.931 199.326 237.931 199.675Z" fill="#DF5A78"/>
<path d="M272.293 165.676C272.293 166.017 266.19 166.295 258.664 166.295C251.131 166.295 245.036 166.017 245.036 165.676C245.036 165.335 251.139 165.057 258.664 165.057C266.19 165.057 272.293 165.335 272.293 165.676Z" fill="#455A64"/>
<path d="M319.575 181.334C319.575 181.676 315.507 181.953 310.492 181.953C305.47 181.953 301.401 181.676 301.401 181.334C301.401 180.993 305.47 180.715 310.492 180.715C315.507 180.715 319.575 180.993 319.575 181.334Z" fill="#455A64"/>
<path d="M324.439 146.993C324.439 147.335 313.965 147.613 301.052 147.613C288.13 147.613 277.665 147.335 277.665 146.993C277.665 146.652 288.138 146.374 301.052 146.374C313.965 146.374 324.439 146.652 324.439 146.993Z" fill="#455A64"/>
<path d="M322.325 155.942C322.325 156.283 305.017 156.561 283.68 156.561C262.335 156.561 245.027 156.283 245.027 155.942C245.027 155.6 262.327 155.322 283.68 155.322C305.025 155.322 322.325 155.6 322.325 155.942Z" fill="#455A64"/>
<path d="M319.575 190.504C319.575 190.846 302.831 191.123 282.186 191.123C261.533 191.123 244.789 190.846 244.789 190.504C244.789 190.163 261.525 189.885 282.186 189.885C302.831 189.885 319.575 190.163 319.575 190.504Z" fill="#455A64"/>
<path d="M319.575 217.048C319.575 217.389 303.865 217.667 284.491 217.667C265.109 217.667 249.398 217.389 249.398 217.048C249.398 216.707 265.109 216.429 284.491 216.429C303.865 216.429 319.575 216.707 319.575 217.048Z" fill="#DF5A78"/>
<path d="M319.575 225.973C319.575 226.314 303.865 226.592 284.491 226.592C265.109 226.592 249.398 226.314 249.398 225.973C249.398 225.631 265.109 225.354 284.491 225.354C303.865 225.354 319.575 225.631 319.575 225.973Z" fill="#455A64"/>
<path d="M319.575 234.897C319.575 235.238 303.865 235.516 284.491 235.516C265.109 235.516 249.398 235.238 249.398 234.897C249.398 234.555 265.109 234.277 284.491 234.277C303.865 234.277 319.575 234.555 319.575 234.897Z" fill="#455A64"/>
<path d="M319.575 243.821C319.575 244.163 303.865 244.441 284.491 244.441C265.109 244.441 249.398 244.163 249.398 243.821C249.398 243.48 265.109 243.202 284.491 243.202C303.865 243.202 319.575 243.48 319.575 243.821Z" fill="#455A64"/>
<path d="M289.799 252.746C289.799 252.921 287.535 253.072 283.879 253.183C280.224 253.294 275.177 253.366 269.599 253.366C264.02 253.366 258.966 253.294 255.311 253.183C251.655 253.072 249.398 252.913 249.398 252.746C249.398 252.572 251.655 252.421 255.311 252.31C258.966 252.198 264.02 252.127 269.599 252.127C275.177 252.127 280.224 252.198 283.879 252.31C287.535 252.421 289.799 252.572 289.799 252.746Z" fill="#455A64"/>
<path d="M306.86 200.152C306.86 200.493 293.327 200.771 276.639 200.771C259.943 200.771 246.418 200.493 246.418 200.152C246.418 199.81 259.951 199.532 276.639 199.532C293.327 199.532 306.86 199.81 306.86 200.152Z" fill="#455A64"/>
<path d="M236.707 218.056L240.434 286.944L173.023 295.376L172.967 217.469L236.707 218.056Z" fill="#DA7B8F"/>
<path d="M149.425 213.276L148.955 286.355L240.437 286.943L240.907 213.863L149.425 213.276Z" fill="#FFECF0"/>
<path d="M152.546 217.896L152.136 281.773L237.189 282.319L237.6 218.442L152.546 217.896Z" fill="#DF5A78"/>
<g opacity="0.2">
<g opacity="0.2">
<g opacity="0.2">
<path opacity="0.2" d="M208.338 237.565C208.314 241.257 205.294 244.235 201.599 244.211C197.904 244.187 194.924 241.17 194.947 237.478C194.971 233.786 197.991 230.808 201.686 230.832C205.381 230.856 208.361 233.873 208.338 237.565Z" fill="black"/>
</g>
</g>
</g>
<path d="M249.239 304.182C249.239 304.96 248.603 305.595 247.825 305.595C247.046 305.595 246.41 304.96 246.41 304.182C246.41 303.404 247.046 302.769 247.825 302.769C248.611 302.769 249.239 303.404 249.239 304.182Z" fill="#2B3242"/>
<path d="M257.639 304.182C257.639 304.96 257.003 305.595 256.225 305.595C255.446 305.595 254.81 304.96 254.81 304.182C254.81 303.404 255.446 302.769 256.225 302.769C257.003 302.769 257.639 303.404 257.639 304.182Z" fill="#2B3242"/>
<path d="M266.031 304.182C266.031 304.96 265.395 305.595 264.616 305.595C263.837 305.595 263.202 304.96 263.202 304.182C263.202 303.404 263.837 302.769 264.616 302.769C265.395 302.769 266.031 303.404 266.031 304.182Z" fill="#2B3242"/>
<path d="M296.959 271.342C296.959 271.683 285.365 271.961 271.077 271.961C256.781 271.961 245.187 271.683 245.187 271.342C245.187 271.001 256.773 270.723 271.077 270.723C285.365 270.723 296.959 271.001 296.959 271.342Z" fill="#DF5A78"/>
<path d="M319.973 280.512C319.973 280.853 303.229 281.131 282.584 281.131C261.93 281.131 245.187 280.853 245.187 280.512C245.187 280.17 261.922 279.893 282.584 279.893C303.229 279.893 319.973 280.17 319.973 280.512Z" fill="#455A64"/>
<path d="M230 231.5C230 231.776 220.146 232 208.003 232C195.854 232 186 231.776 186 231.5C186 231.224 195.847 231 208.003 231C220.153 231 230 231.224 230 231.5Z" fill="white"/>
<path d="M230 237.5C230 237.776 220.146 238 208.003 238C195.854 238 186 237.776 186 237.5C186 237.224 195.847 237 208.003 237C220.153 237 230 237.224 230 237.5Z" fill="#455A64"/>
<path d="M230 252.5C230 252.776 214.1 253 194.505 253C174.9 253 159 252.776 159 252.5C159 252.224 174.889 252 194.505 252C214.111 252 230 252.224 230 252.5Z" fill="white"/>
<path d="M230 261.5C230 261.776 214.1 262 194.505 262C174.9 262 159 261.776 159 261.5C159 261.224 174.889 261 194.505 261C214.111 261 230 261.224 230 261.5Z" fill="#455A64"/>
<path d="M230 270.5C230 270.776 214.1 271 194.505 271C174.9 271 159 270.776 159 270.5C159 270.224 174.889 270 194.505 270C214.111 270 230 270.224 230 270.5Z" fill="#455A64"/>
<path d="M484.512 295.777L484.229 339.796L539.332 340.15L539.615 296.13L484.512 295.777Z" fill="#FFECF0"/>
<path d="M486.39 298.564L486.143 337.041L537.375 337.37L537.622 298.893L486.39 298.564Z" fill="#DF5A78"/>
<path opacity="0.2" d="M486.138 337.044L504.185 313.248L515.175 328.278L522.748 320.331L537.37 337.378L486.138 337.044Z" fill="black"/>
<g opacity="0.2">
<g opacity="0.2">
<path opacity="0.2" d="M519.998 310.414C519.983 312.637 518.163 314.431 515.938 314.416C513.713 314.4 511.917 312.581 511.933 310.358C511.949 308.135 513.768 306.341 515.993 306.357C518.218 306.372 520.014 308.191 519.998 310.414Z" fill="black"/>
</g>
</g>
<path d="M476.43 291.181L476.147 335.2L531.249 335.554L531.532 291.535L476.43 291.181Z" fill="#FFECF0"/>
<path d="M478.316 293.959L478.068 332.437L529.301 332.765L529.548 294.288L478.316 293.959Z" fill="#DF5A78"/>
<path opacity="0.2" d="M478.056 332.448L496.11 308.651L507.093 323.682L514.666 315.734L529.296 332.781L478.056 332.448Z" fill="black"/>
<g opacity="0.2">
<g opacity="0.2">
<path opacity="0.2" d="M511.916 305.824C511.901 308.047 510.081 309.842 507.856 309.826C505.631 309.81 503.835 307.992 503.851 305.768C503.867 303.545 505.686 301.751 507.911 301.767C510.136 301.775 511.932 303.593 511.916 305.824Z" fill="black"/>
</g>
</g>
<path d="M469.237 287.386L468.954 331.405L524.056 331.759L524.339 287.74L469.237 287.386Z" fill="#FFECF0"/>
<path d="M471.114 290.164L470.867 328.642L522.099 328.97L522.346 290.493L471.114 290.164Z" fill="#DF5A78"/>
<path opacity="0.2" d="M470.864 328.653L488.911 304.849L499.901 319.887L507.466 311.931L522.096 328.978L470.864 328.653Z" fill="black"/>
<g opacity="0.2">
<g opacity="0.2">
<path opacity="0.2" d="M504.716 302.021C504.701 304.245 502.881 306.039 500.656 306.023C498.431 306.007 496.635 304.189 496.65 301.966C496.666 299.743 498.486 297.948 500.711 297.964C502.936 297.98 504.732 299.798 504.716 302.021Z" fill="black"/>
</g>
</g>
<path d="M461.152 292.107L460.869 336.126L515.971 336.48L516.254 292.46L461.152 292.107Z" fill="#FFECF0"/>
<path d="M463.037 294.894L462.79 333.371L514.022 333.7L514.269 295.223L463.037 294.894Z" fill="#767A85"/>
<path opacity="0.2" d="M462.782 333.376L480.829 309.58L491.819 324.611L499.385 316.663L514.014 333.71L462.782 333.376Z" fill="black"/>
<g opacity="0.2">
<g opacity="0.2">
<path opacity="0.2" d="M496.635 306.754C496.619 308.977 494.8 310.771 492.575 310.756C490.349 310.74 488.554 308.921 488.569 306.698C488.585 304.475 490.405 302.681 492.63 302.696C494.855 302.712 496.651 304.523 496.635 306.754Z" fill="black"/>
</g>
</g>
<path d="M548.058 308.493H516.247V350.996H548.058V308.493Z" fill="#2B3242"/>
<path d="M455.32 308.493V350.996H518.949V308.493H455.32ZM493.901 318.545H480.376C478.763 318.545 477.452 317.235 477.452 315.623C477.452 314.011 478.763 312.701 480.376 312.701H493.901C495.515 312.701 496.826 314.011 496.826 315.623C496.826 317.235 495.515 318.545 493.901 318.545Z" fill="#DF5A78"/>
<path d="M414.061 346.548L354.89 342.928C354.517 342.078 354.27 341.586 354.27 341.586L338.234 341.904L333.013 341.586C333.013 341.586 332.934 341.745 332.806 342.015L278.976 343.087C268.24 343.087 256.963 349.629 256.963 357.99C256.828 365.946 260.682 374.585 270.298 374.386L343.646 374.14L416.985 374.386C426.601 374.585 429.144 368.788 429.16 361.912C430.288 349.113 422.262 346.652 414.061 346.548Z" fill="#767A85"/>
<path d="M277.037 374.394C277.037 374.394 277.156 374.378 277.386 374.37C277.641 374.362 277.982 374.362 278.419 374.354C279.349 374.346 280.692 374.33 282.417 374.314C285.905 374.299 290.943 374.275 297.173 374.251C309.689 374.235 327.029 374.211 346.419 374.187L346.212 374.41C346.109 372.806 346.006 371.083 345.894 369.352C345.672 365.811 345.457 362.317 345.251 359.006L345.434 359.197C327.418 357.196 311.501 355.425 300.066 354.155C294.376 353.504 289.799 352.98 286.62 352.615C285.055 352.424 283.847 352.281 282.997 352.178C282.599 352.122 282.289 352.083 282.059 352.059C281.844 352.027 281.741 352.011 281.741 352.003C281.741 351.995 281.852 352.003 282.059 352.019C282.289 352.043 282.599 352.067 282.997 352.106C283.847 352.194 285.063 352.313 286.628 352.472C289.807 352.805 294.384 353.289 300.082 353.885C311.517 355.124 327.442 356.847 345.465 358.792L345.64 358.808L345.648 358.982C345.855 362.301 346.077 365.787 346.3 369.328C346.411 371.059 346.514 372.782 346.618 374.386L346.634 374.608H346.411C327.013 374.584 309.674 374.561 297.166 374.545C290.927 374.521 285.897 374.497 282.409 374.481C280.684 374.465 279.341 374.449 278.411 374.442C277.966 374.434 277.625 374.426 277.378 374.426C277.156 374.402 277.037 374.394 277.037 374.394Z" fill="#2B3242"/>
<path d="M292.159 353.369C292.111 353.424 291.38 352.829 290.085 352.043C288.798 351.257 286.914 350.32 284.697 349.677C282.48 349.041 280.39 348.835 278.872 348.819C277.362 348.803 276.417 348.914 276.409 348.843C276.409 348.811 276.639 348.763 277.06 348.692C277.481 348.613 278.101 348.557 278.872 348.525C280.406 348.462 282.551 348.628 284.808 349.28C287.065 349.931 288.972 350.931 290.236 351.797C290.872 352.225 291.364 352.606 291.682 352.892C292.008 353.178 292.175 353.345 292.159 353.369Z" fill="#2B3242"/>
<path d="M409.468 350.225C409.492 350.336 397.826 353.155 383.403 356.521C368.979 359.888 357.266 362.524 357.242 362.413C357.218 362.302 368.884 359.483 383.307 356.117C397.731 352.75 409.444 350.114 409.468 350.225Z" fill="#2B3242"/>
<path d="M399.606 349.081C399.646 349.208 397.349 349.668 395.037 351.272C392.7 352.844 391.429 354.806 391.317 354.718C391.278 354.694 391.532 354.17 392.112 353.424C392.684 352.678 393.606 351.741 394.798 350.931C395.99 350.121 397.206 349.613 398.112 349.351C399.01 349.089 399.598 349.033 399.606 349.081Z" fill="#2B3242"/>
<path d="M377.578 281.965L396.316 314.559C398.628 318.584 398.771 323.499 396.697 327.652C394.29 332.471 389.299 335.457 383.911 335.306L355.136 334.496L354.381 324.039L379.723 319.188L362.638 289.635L377.578 281.965Z" fill="white"/>
<path d="M307.727 337.751L334.189 344.754L334.761 336.822L310.373 322.673L328.181 289.643L313.234 281.973L294.496 314.566C289.958 322.983 294.194 333.456 303.316 336.354L307.727 337.751Z" fill="white"/>
<path d="M369.623 302.895L387.71 293.374C387.71 293.374 384.698 287.007 379.962 280.464C374.36 272.723 365.674 267.307 355.804 265.251L335 265.497C332.036 265.815 329.604 266.378 327.578 267.204L327.594 267.125C316.301 269.61 303.777 294.216 303.777 294.216L320.235 302.871L320.6 305.459C321.077 308.865 322.571 312.065 324.892 314.677L320.1 346.175L373.517 347.279L366.715 324.722L369.623 302.895Z" fill="#DF5A78"/>
<path d="M325.376 314.852C325.36 314.868 325.066 314.669 324.581 314.249C324.097 313.828 323.437 313.161 322.762 312.216C321.419 310.35 320.219 307.19 320.536 303.625C320.791 301.87 321.291 300.274 321.76 298.837C322.237 297.4 322.722 296.129 323.151 295.066C323.572 294.002 323.938 293.152 324.208 292.572C324.47 291.993 324.637 291.675 324.661 291.691C324.685 291.699 324.573 292.04 324.351 292.636C324.105 293.311 323.795 294.16 323.421 295.169C323.032 296.241 322.579 297.519 322.126 298.956C321.681 300.385 321.196 301.981 320.95 303.68C320.791 305.364 321.013 307.039 321.403 308.46C321.784 309.897 322.404 311.104 323.016 312.057C324.263 313.939 325.44 314.781 325.376 314.852Z" fill="#2B3242"/>
<path d="M317.366 353.782L314.346 318.647H379.421L375.106 354.219L317.366 353.782Z" fill="#2B3242"/>
<path d="M351.028 337.386C351.028 339.673 349.176 341.523 346.888 341.523C344.599 341.523 342.748 339.673 342.748 337.386C342.748 335.099 344.599 333.249 346.888 333.249C349.176 333.249 351.028 335.099 351.028 337.386Z" fill="#FFECF0"/>
<path d="M345.744 360.643L356.797 362.183V374.188L346.634 373.926L345.744 360.643Z" fill="white"/>
<path d="M356.797 362.183H361.764C362.734 362.183 363.679 362.437 364.514 362.921L367.136 364.43C367.994 364.922 370.768 366.311 371.713 366.613C374.733 367.582 379.811 368.884 380.884 369.71C383.943 372.068 383.014 374.847 381.329 375.141C379.851 375.395 356.79 374.18 356.79 374.18V362.183H356.797Z" fill="#DF5A78"/>
<path d="M364.951 373.195C364.847 373.219 364.466 371.838 364.418 370.075C364.362 368.312 364.656 366.915 364.768 366.931C364.887 366.947 364.776 368.344 364.831 370.067C364.879 371.782 365.07 373.172 364.951 373.195Z" fill="#2B3242"/>
<path d="M367.311 373.124C367.199 373.124 367.112 371.838 367.128 370.258C367.144 368.678 367.247 367.392 367.358 367.399C367.47 367.399 367.557 368.686 367.541 370.266C367.525 371.846 367.422 373.124 367.311 373.124Z" fill="#2B3242"/>
<path d="M370.092 373.601C369.981 373.609 369.783 372.299 369.655 370.663C369.528 369.035 369.52 367.701 369.632 367.693C369.743 367.685 369.942 368.996 370.069 370.631C370.196 372.267 370.204 373.593 370.092 373.601Z" fill="#2B3242"/>
<path d="M362.805 369.995C362.797 370.019 362.424 369.94 361.788 369.678C361.152 369.408 360.254 368.947 359.309 368.145C359.07 367.947 358.832 367.725 358.601 367.478C358.371 367.232 358.117 366.954 357.966 366.581C357.815 366.208 357.815 365.724 358.101 365.351C358.244 365.16 358.482 365.041 358.721 365.009C358.959 364.977 359.181 365.017 359.388 365.089C361.001 365.636 362.384 367.216 362.638 369.162C362.885 371.131 361.828 372.957 360.429 373.878C360.079 374.108 359.714 374.315 359.293 374.386C359.086 374.426 358.864 374.426 358.641 374.355C358.419 374.283 358.236 374.116 358.14 373.91C357.95 373.473 358.117 373.068 358.283 372.767C358.458 372.449 358.705 372.219 358.919 371.996C359.817 371.131 360.723 370.654 361.359 370.4C362.002 370.146 362.384 370.091 362.384 370.107C362.392 370.138 362.034 370.25 361.422 370.543C360.818 370.837 359.96 371.337 359.126 372.203C358.919 372.425 358.705 372.647 358.562 372.917C358.419 373.179 358.323 373.513 358.442 373.751C358.562 374.005 358.879 374.092 359.221 374.013C359.555 373.95 359.889 373.759 360.214 373.545C361.486 372.687 362.447 370.98 362.225 369.194C362.002 367.415 360.715 365.938 359.277 365.43C358.927 365.311 358.57 365.327 358.387 365.557C358.196 365.787 358.172 366.152 358.283 366.438C358.53 367.034 359.078 367.494 359.499 367.899C361.319 369.535 362.845 369.916 362.805 369.995Z" fill="#2B3242"/>
<path d="M381.329 375.141C381.297 375.102 381.655 374.943 381.933 374.387C382.211 373.839 382.163 372.855 381.607 371.886C381.067 370.909 379.946 370.068 378.54 369.575C377.133 369.067 375.456 368.829 373.772 368.297C370.379 367.289 367.51 365.804 365.563 364.557C364.585 363.938 363.838 363.382 363.33 362.985C362.829 362.58 362.559 362.342 362.575 362.318C362.591 362.295 362.893 362.493 363.425 362.85C363.958 363.208 364.736 363.724 365.722 364.303C367.693 365.471 370.545 366.892 373.891 367.892C375.552 368.408 377.213 368.662 378.675 369.202C380.129 369.734 381.313 370.655 381.869 371.727C382.426 372.775 382.442 373.855 382.084 374.443C381.917 374.737 381.71 374.911 381.575 375.006C381.416 375.118 381.337 375.157 381.329 375.141Z" fill="#2B3242"/>
<path d="M373.803 273.874C373.811 273.874 373.811 273.929 373.803 274.041C373.795 274.176 373.779 274.334 373.763 274.533C373.724 274.993 373.66 275.636 373.589 276.454C373.414 278.161 373.175 280.599 372.865 283.664L372.85 283.846L372.683 283.759C370.021 282.362 366.77 280.647 363.091 278.717L363.321 278.654C361.74 281.321 359.984 284.283 358.108 287.435L357.997 287.626L357.822 287.491C355.081 285.387 352.117 283.124 349.049 280.766H349.304C348.088 281.718 346.792 282.735 345.481 283.759C343.709 285.141 341.969 286.506 340.268 287.832L340.077 287.983L339.958 287.769C338.226 284.569 336.565 281.496 334.992 278.598L335.238 278.685C331.416 280.385 327.879 281.965 324.709 283.37L324.518 283.457L324.486 283.251C323.874 279.646 323.342 276.51 322.897 273.898L323.056 273.985C320.489 274.962 318.455 275.74 317.032 276.28C316.349 276.534 315.816 276.732 315.427 276.875C315.26 276.931 315.125 276.978 315.014 277.018C314.918 277.05 314.871 277.066 314.871 277.058C314.871 277.05 314.91 277.026 315.006 276.986C315.117 276.939 315.244 276.883 315.411 276.812C315.792 276.653 316.317 276.438 316.992 276.16C318.407 275.597 320.433 274.779 322.976 273.763L323.111 273.707L323.135 273.85C323.604 276.462 324.168 279.591 324.812 283.187L324.581 283.068C327.736 281.639 331.265 280.051 335.087 278.328L335.246 278.257L335.333 278.415C336.907 281.314 338.583 284.386 340.316 287.578L340.006 287.515C341.706 286.181 343.447 284.823 345.211 283.434C346.522 282.409 347.817 281.393 349.033 280.44L349.16 280.345L349.288 280.44C352.355 282.798 355.311 285.077 358.045 287.181L357.759 287.237C359.642 284.093 361.414 281.139 363.012 278.479L363.099 278.336L363.242 278.415C366.905 280.377 370.14 282.115 372.794 283.537L372.611 283.632C372.969 280.575 373.255 278.138 373.453 276.438C373.557 275.629 373.636 274.985 373.692 274.525C373.724 274.326 373.747 274.168 373.763 274.033C373.787 273.929 373.803 273.874 373.803 273.874Z" fill="#FFECF0"/>
<path d="M381.528 282.719C381.535 282.719 381.52 282.798 381.48 282.949C381.44 283.124 381.385 283.346 381.313 283.624C381.154 284.235 380.924 285.109 380.63 286.22C380.018 288.507 379.128 291.786 378.023 295.883L377.983 296.042L377.832 295.97C374.646 294.438 370.847 292.62 366.62 290.595L366.842 290.539C363.981 294.621 360.795 299.154 357.401 303.998L357.266 304.196L357.1 304.022C354.215 301.1 351.163 298.011 348.024 294.835C347.389 294.184 346.753 293.541 346.117 292.906L346.371 292.937C342.12 295.605 338.012 298.178 334.142 300.599L333.967 300.711L333.863 300.528C331.503 296.359 329.286 292.453 327.268 288.896L327.474 288.975C322.643 290.635 318.391 292.104 314.903 293.303L314.783 293.342L314.744 293.223C313.552 289.769 312.606 287.038 311.954 285.14C311.645 284.219 311.406 283.505 311.231 282.989C311.16 282.758 311.096 282.576 311.057 282.433C311.017 282.306 311.001 282.242 311.009 282.242C311.017 282.242 311.041 282.298 311.088 282.425C311.144 282.568 311.215 282.742 311.295 282.973C311.478 283.481 311.74 284.187 312.082 285.101C312.765 286.99 313.742 289.714 314.982 293.144L314.823 293.064C318.304 291.842 322.539 290.349 327.363 288.65L327.498 288.602L327.57 288.729C329.604 292.286 331.829 296.177 334.205 300.337L333.927 300.266C337.797 297.836 341.898 295.256 346.149 292.588L346.292 292.501L346.411 292.62C347.039 293.255 347.675 293.906 348.318 294.549C351.457 297.733 354.501 300.822 357.386 303.744L357.076 303.767C360.485 298.94 363.687 294.414 366.564 290.341L366.651 290.222L366.786 290.285C370.998 292.334 374.781 294.184 377.96 295.732L377.769 295.82C378.921 291.738 379.851 288.467 380.494 286.188C380.812 285.085 381.067 284.219 381.241 283.608C381.329 283.33 381.392 283.116 381.448 282.941C381.496 282.79 381.52 282.711 381.528 282.719Z" fill="#FFECF0"/>
<path d="M373.517 227.33C370.339 227.687 367.033 226.639 364.633 224.527C367.525 225.988 371.388 223.987 372.405 220.906C373.422 217.834 372.587 212.109 370.06 210.076C367.653 208.147 364.323 207.408 361.343 208.202C358.363 208.996 355.208 213.53 354.231 216.452L354.286 216.539C353.825 216.357 353.365 216.19 352.904 216.031C349.606 214.928 346.077 214.388 342.621 214.785C339.164 215.182 335.779 216.555 333.22 218.921L353.428 251.372C357.099 251.047 360.35 248.577 362.273 245.433C364.196 242.297 364.935 238.557 365.118 234.881C365.165 233.96 365.157 233.023 365.126 232.094C367.295 232.443 369.456 232.793 371.626 233.134C370.466 231.578 368.988 230.252 367.303 229.275C369.48 230.117 372.19 229.267 373.517 227.33Z" fill="#2B3242"/>
<path d="M347.969 277.694C353.452 277.574 357.847 273.136 357.91 267.657L358.379 227.283C358.411 225.615 357.163 224.202 355.502 224.027L338.433 219.716C332.966 219.136 329.334 225.861 328.984 231.34C328.603 237.43 328.372 244.878 329.096 249.419C330.55 258.558 337.559 259.717 337.559 259.717C337.559 259.694 337.567 263.251 337.583 267.586C337.614 273.263 342.295 277.813 347.969 277.694Z" fill="white"/>
<path d="M332.536 237.255C332.513 237.874 333.021 238.406 333.665 238.438C334.309 238.47 334.849 238.001 334.873 237.382C334.897 236.763 334.388 236.231 333.744 236.199C333.101 236.167 332.56 236.635 332.536 237.255Z" fill="#2B3242"/>
<path d="M330.613 235.214C330.756 235.365 331.646 234.714 332.91 234.714C334.173 234.698 335.095 235.349 335.23 235.19C335.294 235.119 335.151 234.849 334.745 234.555C334.348 234.261 333.673 233.976 332.886 233.984C332.099 233.992 331.44 234.277 331.058 234.571C330.669 234.873 330.542 235.151 330.613 235.214Z" fill="#2B3242"/>
<path d="M344.544 237.255C344.52 237.874 345.028 238.406 345.672 238.438C346.316 238.47 346.856 238.001 346.88 237.382C346.904 236.763 346.395 236.231 345.752 236.199C345.108 236.167 344.568 236.635 344.544 237.255Z" fill="#2B3242"/>
<path d="M343.018 235.453C343.161 235.603 344.051 234.952 345.315 234.952C346.578 234.936 347.5 235.588 347.635 235.429C347.699 235.357 347.556 235.087 347.15 234.794C346.753 234.5 346.077 234.214 345.291 234.222C344.504 234.23 343.844 234.516 343.463 234.809C343.074 235.111 342.946 235.381 343.018 235.453Z" fill="#2B3242"/>
<path d="M338.433 244.806C338.441 244.735 337.654 244.6 336.383 244.433C336.057 244.401 335.755 244.338 335.699 244.116C335.62 243.885 335.755 243.536 335.914 243.163C336.216 242.385 336.534 241.567 336.867 240.709C338.195 237.216 339.148 234.349 339.005 234.294C338.862 234.238 337.678 237.025 336.351 240.519C336.033 241.376 335.731 242.202 335.437 242.988C335.318 243.353 335.103 243.766 335.27 244.251C335.358 244.489 335.596 244.663 335.803 244.719C336.009 244.783 336.192 244.783 336.351 244.798C337.638 244.87 338.433 244.878 338.433 244.806Z" fill="#2B3242"/>
<path d="M337.566 259.725C337.566 259.725 343.717 260.122 349.812 256.462C349.812 256.462 346.84 262.734 337.694 261.885L337.566 259.725Z" fill="#DD2B50"/>
<path d="M338.973 247.839C339.426 247.236 340.221 246.91 341.016 246.997C341.564 247.053 342.12 247.323 342.446 247.768C342.78 248.212 342.851 248.847 342.549 249.268C342.208 249.745 341.5 249.856 340.896 249.689C340.292 249.514 339.776 249.125 339.283 248.728C339.148 248.617 339.005 248.506 338.926 248.355C338.838 248.204 338.822 248.014 338.926 247.887" fill="#DD2B50"/>
<path d="M342.152 245.672C341.945 245.664 341.945 247.03 340.769 247.998C339.601 248.975 338.139 248.816 338.131 249.007C338.115 249.094 338.457 249.269 339.069 249.293C339.673 249.316 340.555 249.118 341.27 248.522C341.985 247.927 342.295 247.133 342.343 246.569C342.398 246.005 342.239 245.672 342.152 245.672Z" fill="#2B3242"/>
<path d="M342.446 233.246C342.573 233.587 343.829 233.429 345.307 233.603C346.793 233.754 347.985 234.183 348.183 233.881C348.271 233.73 348.064 233.413 347.58 233.079C347.103 232.746 346.34 232.436 345.45 232.333C344.56 232.238 343.749 232.38 343.209 232.595C342.668 232.817 342.39 233.087 342.446 233.246Z" fill="#2B3242"/>
<path d="M330.788 232.888C331.011 233.174 331.877 232.88 332.926 232.864C333.967 232.816 334.857 233.055 335.064 232.761C335.151 232.618 335.016 232.332 334.626 232.054C334.245 231.784 333.609 231.562 332.886 231.586C332.171 231.61 331.543 231.872 331.186 232.165C330.812 232.459 330.693 232.753 330.788 232.888Z" fill="#2B3242"/>
<path d="M357.37 238.636C358.061 238.16 359.031 238.335 359.762 238.755C361.439 239.724 362.281 241.947 361.653 243.781C361.033 245.616 359.015 246.87 357.092 246.616" fill="white"/>
<path d="M358.013 243.9C358.037 243.837 358.371 243.98 358.808 243.773C359.245 243.599 359.634 242.956 359.595 242.209C359.571 241.455 359.078 240.907 358.617 240.74C358.156 240.55 357.823 240.645 357.807 240.574C357.775 240.526 358.117 240.288 358.721 240.423C359.015 240.494 359.348 240.661 359.611 240.979C359.873 241.288 360.04 241.725 360.064 242.177C360.127 243.099 359.547 243.932 358.919 244.075C358.299 244.25 357.966 243.932 358.013 243.9Z" fill="#DD2B50"/>
<path d="M360.509 245.751C360.517 245.735 360.668 245.838 360.93 246.045C361.232 246.291 361.605 246.6 362.05 246.958C363.06 247.815 364.402 248.959 366 250.308L366.135 250.42L366.024 250.555C364.553 252.317 362.916 254.525 361.081 256.827C360.668 257.351 360.246 257.859 359.841 258.336L359.499 258.733L359.476 258.209C359.309 254.493 359.182 251.198 359.11 248.832C359.086 247.704 359.062 246.775 359.046 246.045C359.038 245.394 359.046 245.028 359.07 245.028C359.094 245.028 359.142 245.386 359.189 246.037C359.237 246.759 359.301 247.696 359.38 248.816C359.523 251.174 359.706 254.469 359.881 258.185L359.523 258.058C359.913 257.581 360.334 257.073 360.747 256.557C362.583 254.263 364.236 252.063 365.745 250.316L365.769 250.562C364.22 249.165 362.909 247.99 361.915 247.101C361.494 246.712 361.144 246.386 360.858 246.116C360.62 245.894 360.501 245.759 360.509 245.751Z" fill="#455A64"/>
<path d="M342.017 215.722C339.776 215.817 337.527 215.912 335.349 216.452C333.172 216.992 331.066 218.016 329.588 219.692C328.11 221.375 327.355 223.781 327.999 225.925C328.634 228.068 330.844 229.752 333.061 229.45C334.745 229.228 336.359 227.981 337.988 228.473C339.521 228.942 340.372 230.816 341.953 231.109C343.511 231.395 344.901 229.998 346.483 229.863C348.223 229.712 349.741 231.141 350.512 232.705C351.29 234.269 351.584 236.04 352.363 237.612C352.864 238.613 353.635 239.573 354.715 239.851C355.709 240.105 356.79 239.724 357.568 239.049C358.339 238.374 358.848 237.446 359.237 236.493C360.882 232.451 360.524 227.655 358.299 223.908C356.074 220.16 352.03 217.54 347.699 217.048" fill="#2B3242"/>
<path d="M364.299 225.424C364.228 225.448 364.013 224.686 363.457 223.566C362.901 222.446 361.931 220.993 360.517 219.715C359.094 218.437 357.553 217.619 356.384 217.182C355.216 216.738 354.437 216.603 354.453 216.531C354.461 216.499 354.652 216.515 355.01 216.563C355.367 216.603 355.876 216.714 356.488 216.912C357.711 217.293 359.333 218.095 360.803 219.413C362.265 220.739 363.234 222.272 363.735 223.447C363.989 224.034 364.156 224.527 364.228 224.876C364.291 225.225 364.323 225.416 364.299 225.424Z" fill="#DF5A78"/>
<path d="M371.292 212.046C371.252 212.117 370.489 211.617 369.091 211.363C367.708 211.101 365.666 211.204 363.727 212.173C361.788 213.141 360.421 214.634 359.579 215.777C358.728 216.929 358.331 217.731 358.275 217.699C358.252 217.691 358.323 217.477 358.49 217.103C358.657 216.738 358.935 216.214 359.34 215.603C360.135 214.396 361.51 212.816 363.536 211.8C365.57 210.783 367.724 210.728 369.139 211.077C369.854 211.244 370.41 211.482 370.76 211.68C371.133 211.879 371.308 212.022 371.292 212.046Z" fill="#455A64"/>
<path d="M362.503 222.773C362.551 222.773 362.622 223.487 362.519 224.654C362.416 225.814 362.082 227.409 361.375 229.045C360.668 230.681 359.73 232.023 358.959 232.896C358.188 233.769 357.616 234.214 357.584 234.174C357.473 234.087 359.626 232.11 360.993 228.886C362.4 225.671 362.36 222.757 362.503 222.773Z" fill="#455A64"/>
<path d="M362.765 222.971C362.789 222.963 362.869 223.146 362.988 223.495C363.115 223.836 363.242 224.353 363.345 225.004C363.56 226.29 363.592 228.14 363.099 230.093C362.598 232.046 361.7 233.658 360.898 234.69C360.5 235.206 360.143 235.603 359.865 235.85C359.595 236.096 359.436 236.223 359.42 236.207C359.364 236.151 359.936 235.588 360.659 234.524C361.383 233.468 362.217 231.888 362.702 229.998C363.178 228.1 363.202 226.314 363.059 225.043C362.924 223.765 362.694 222.987 362.765 222.971Z" fill="#455A64"/>
<path d="M386.812 225.052C384.5 225.782 383.498 229.07 385.016 230.959C386.526 232.849 389.959 232.595 391.175 230.499C392.391 228.403 390.912 225.298 388.521 224.925" fill="#FFC1CF"/>
<path d="M397.556 209.45C394.91 210.283 393.757 214.055 395.498 216.223C397.23 218.39 401.172 218.096 402.562 215.698C403.961 213.301 402.26 209.736 399.519 209.299" fill="#FFC1CF"/>
<path d="M420.498 140.689C413.306 140.086 406.035 141.69 401.108 146.946C396.181 152.21 393.829 159.777 394.91 166.907C387.265 170.083 383.093 179.794 386.065 187.519C389.037 195.245 398.644 199.667 406.448 196.904C409.953 205.789 418.384 212.546 427.817 214.047C437.257 215.547 447.365 211.736 453.461 204.384C460.962 206.075 469.378 205.964 475.679 201.565C481.981 197.166 484.834 187.472 480.026 181.477C488.664 179.373 493.059 168.598 490.492 160.086C487.933 151.583 480.265 145.477 472.072 142.015C466.66 139.728 459.905 138.537 455.288 142.166C451.593 136.481 445.053 132.757 438.275 132.463C431.504 132.185 424.67 135.345 420.498 140.689Z" fill="white"/>
<path d="M420.498 140.689C420.498 140.689 420.641 140.499 420.935 140.133C421.221 139.76 421.69 139.244 422.334 138.593C423.629 137.323 425.743 135.536 428.977 134.139C430.582 133.448 432.466 132.852 434.587 132.551C436.709 132.265 439.077 132.249 441.541 132.765C444.004 133.249 446.555 134.242 448.979 135.774C451.387 137.323 453.667 139.419 455.424 142.095L455.217 142.063C457.076 140.618 459.5 139.792 462.019 139.728C464.538 139.633 467.137 140.11 469.68 140.951C472.223 141.801 474.734 142.96 477.181 144.389C479.629 145.818 482.013 147.534 484.143 149.638C486.288 151.71 488.156 154.203 489.515 157.022C490.166 158.443 490.707 159.944 491.048 161.508C491.335 163.08 491.501 164.708 491.366 166.335C491.16 169.583 490.158 172.878 488.259 175.697C487.298 177.086 486.177 178.412 484.771 179.421C483.38 180.445 481.791 181.215 480.082 181.66L480.193 181.342C481.226 182.66 481.957 184.216 482.331 185.876C482.704 187.535 482.72 189.274 482.458 190.973C481.918 194.38 480.217 197.627 477.706 200.128C475.163 202.629 471.77 204.177 468.249 204.956C464.705 205.734 461.002 205.742 457.362 205.273C456.035 205.114 454.724 204.852 453.437 204.574L453.643 204.503C447.048 212.411 436.248 215.96 426.792 214.039C422.055 213.086 417.717 210.855 414.188 207.862C410.66 204.868 407.926 201.081 406.289 196.968L406.528 197.079C402.006 198.635 397.063 197.841 393.185 195.682C389.267 193.546 386.335 189.878 385.382 185.796C384.412 181.715 385.199 177.523 386.995 174.148C388.799 170.758 391.644 168.122 394.87 166.764L394.782 166.915C394.298 163.612 394.56 160.388 395.275 157.482C396.03 154.584 397.23 151.988 398.7 149.804C399.423 148.701 400.25 147.732 401.076 146.827C401.934 145.953 402.809 145.159 403.738 144.516C405.566 143.182 407.473 142.349 409.222 141.761C412.75 140.626 415.65 140.523 417.574 140.515C419.497 140.554 420.498 140.689 420.498 140.689C420.498 140.689 420.244 140.689 419.751 140.657C419.258 140.626 418.519 140.61 417.558 140.61C415.643 140.65 412.75 140.769 409.253 141.928C407.521 142.515 405.638 143.357 403.834 144.683C402.92 145.318 402.062 146.12 401.211 146.986C400.401 147.883 399.582 148.852 398.875 149.947C397.421 152.115 396.245 154.687 395.506 157.562C394.806 160.436 394.552 163.62 395.045 166.883L395.061 166.994L394.957 167.042C391.802 168.384 389.013 170.972 387.249 174.307C385.493 177.626 384.73 181.747 385.684 185.733C386.621 189.711 389.49 193.292 393.336 195.38C397.143 197.484 401.974 198.254 406.377 196.73L406.552 196.666L406.615 196.833C408.228 200.882 410.93 204.614 414.411 207.568C417.891 210.522 422.175 212.721 426.839 213.65C436.145 215.54 446.801 212.03 453.294 204.249L453.373 204.154L453.5 204.177C454.78 204.447 456.075 204.709 457.394 204.868C461.002 205.329 464.658 205.313 468.146 204.551C471.603 203.788 474.941 202.264 477.404 199.834C479.852 197.405 481.512 194.221 482.037 190.91C482.585 187.607 481.894 184.129 479.867 181.596L479.677 181.358L479.979 181.279C481.632 180.85 483.173 180.103 484.524 179.111C485.891 178.126 486.988 176.84 487.933 175.482C489.785 172.735 490.778 169.504 490.985 166.312C491.112 164.716 490.953 163.12 490.675 161.579C490.349 160.047 489.817 158.57 489.181 157.173C487.846 154.394 486.01 151.932 483.888 149.884C481.791 147.803 479.43 146.104 477.007 144.675C474.583 143.254 472.088 142.095 469.569 141.245C467.057 140.411 464.491 139.935 462.019 140.022C459.548 140.078 457.188 140.88 455.376 142.277L455.257 142.373L455.177 142.245C453.453 139.601 451.204 137.521 448.836 135.989C446.444 134.472 443.925 133.472 441.485 132.987C439.045 132.463 436.701 132.479 434.603 132.741C432.497 133.027 430.63 133.607 429.025 134.282C425.806 135.647 423.692 137.402 422.381 138.649C421.73 139.284 421.253 139.792 420.959 140.157C420.665 140.515 420.498 140.689 420.498 140.689Z" fill="#2B3242"/>
<path d="M469.64 165.439C469.64 165.78 455.551 166.058 438.172 166.058C420.784 166.058 406.695 165.78 406.695 165.439C406.695 165.097 420.784 164.819 438.172 164.819C455.543 164.819 469.64 165.097 469.64 165.439Z" fill="#455A64"/>
<path d="M469.64 172.267C469.64 172.608 455.551 172.886 438.172 172.886C420.784 172.886 406.695 172.608 406.695 172.267C406.695 171.926 420.784 171.648 438.172 171.648C455.543 171.64 469.64 171.918 469.64 172.267Z" fill="#455A64"/>
<path d="M469.64 179.087C469.64 179.429 455.551 179.706 438.172 179.706C420.784 179.706 406.695 179.429 406.695 179.087C406.695 178.746 420.784 178.468 438.172 178.468C455.543 178.468 469.64 178.746 469.64 179.087Z" fill="#455A64"/>
<path d="M469.64 185.907C469.64 186.249 455.551 186.527 438.172 186.527C420.784 186.527 406.695 186.249 406.695 185.907C406.695 185.566 420.784 185.288 438.172 185.288C455.543 185.288 469.64 185.566 469.64 185.907Z" fill="#455A64"/>
<circle cx="169" cy="234" r="10" fill="white"/>
</g>
<defs>
<linearGradient id="paint0_linear" x1="216.5" y1="-22" x2="242.435" y2="430.591" gradientUnits="userSpaceOnUse">
<stop stop-color="#D73558"/>
<stop offset="1" stop-color="#CC284D" stop-opacity="0"/>
</linearGradient>
<clipPath id="clip0">
<rect width="596" height="397" fill="white"/>
</clipPath>
</defs>
</svg>
