<svg width="90" height="90" viewBox="0 0 90 90" fill="none" xmlns="http://www.w3.org/2000/svg">
<mask id="mask0" style="mask-type:alpha" maskUnits="userSpaceOnUse" x="0" y="0" width="90" height="90">
<circle cx="45" cy="45" r="45" fill="#C4C4C4"/>
</mask>
<g mask="url(#mask0)">
<rect x="-68.0547" y="-22.3584" width="198.543" height="133.901" fill="#3AB292"/>
</g>
<path d="M29.8799 45.567L34.9233 49.2504L33.0079 55.182C32.6984 56.1019 32.6945 57.0973 32.9968 58.0197C33.299 58.942 33.8913 59.742 34.6853 60.3004C35.4657 60.8767 36.4113 61.1854 37.3814 61.1805C38.3515 61.1757 39.294 60.8575 40.0686 60.2735L45 56.644L49.9329 60.2692C50.7118 60.8422 51.6524 61.1534 52.6194 61.1581C53.5864 61.1628 54.5299 60.8608 55.3144 60.2954C56.099 59.7301 56.684 58.9305 56.9854 58.0117C57.2869 57.0929 57.2892 56.1022 56.9921 55.182L55.0768 49.2504L60.1201 45.567C60.8981 44.9983 61.4764 44.1982 61.7724 43.2811C62.0685 42.364 62.0672 41.3768 61.7687 40.4605C61.4701 39.5442 60.8897 38.7457 60.1102 38.179C59.3308 37.6123 58.3921 37.3064 57.4284 37.305H51.2334L49.3534 31.4457C49.0578 30.5234 48.4769 29.7188 47.6945 29.148C46.9121 28.5771 45.9686 28.2695 45 28.2695C44.0315 28.2695 43.088 28.5771 42.3056 29.148C41.5232 29.7188 40.9422 30.5234 40.6466 31.4457L38.7667 37.305H32.5773C31.6136 37.3064 30.675 37.6123 29.8955 38.179C29.116 38.7457 28.5356 39.5442 28.2371 40.4605C27.9385 41.3768 27.9372 42.364 28.2333 43.2811C28.5294 44.1982 29.1077 44.9983 29.8856 45.567H29.8799Z" fill="white"/>
</svg>
