<svg width="90" height="90" viewBox="0 0 90 90" fill="none" xmlns="http://www.w3.org/2000/svg">
<mask id="mask0" style="mask-type:alpha" maskUnits="userSpaceOnUse" x="0" y="0" width="90" height="90">
<circle cx="45" cy="45" r="45" fill="#C4C4C4"/>
</mask>
<g mask="url(#mask0)">
<rect x="-68.0547" y="-22.3574" width="198.543" height="133.901" fill="#CC284C"/>
</g>
<path d="M50.3068 53.8605C50.3068 51.7355 48.8462 48.8313 46.1985 45.682C46.0519 45.5072 45.8684 45.3671 45.6612 45.2718C45.4539 45.1765 45.2281 45.1284 45 45.131C44.7702 45.1299 44.5429 45.1789 44.334 45.2746C44.1251 45.3702 43.9395 45.5102 43.7901 45.6849C40.8916 49.0806 39.475 52.084 39.7201 54.386C39.8165 55.1139 40.0661 55.8131 40.4524 56.4374C40.8387 57.0618 41.3529 57.5973 41.9612 58.0085C42.8217 58.714 43.8882 59.1207 45 59.1673C46.407 59.1658 47.7559 58.6062 48.7508 57.6113C49.7457 56.6164 50.3053 55.2675 50.3068 53.8605Z" fill="white"/>
<path d="M51.5576 32.108C50.4441 31.1617 49.2754 30.17 48.0854 29.0877C47.6341 28.678 47.0988 28.3719 46.5169 28.1908C45.935 28.0097 45.3205 27.958 44.7165 28.0393C44.1311 28.1168 43.5699 28.322 43.0725 28.6402C42.5751 28.9584 42.1536 29.382 41.8379 29.881C40.1497 32.7027 38.9558 35.792 38.3075 39.0157C38.0539 38.6484 37.8285 38.2624 37.6332 37.8611C37.4327 37.4386 37.1307 37.0723 36.7542 36.7949C36.3777 36.5175 35.9384 36.3376 35.4755 36.2713C35.0126 36.2049 34.5405 36.2542 34.1012 36.4147C33.662 36.5751 33.2693 36.8418 32.9582 37.191C30.5829 39.6197 29.2662 42.8904 29.2961 46.2874C29.2633 49.7574 30.3918 53.1388 32.5022 55.8935C34.6126 58.6482 37.5836 60.6181 40.9425 61.4897C42.2286 61.8133 43.549 61.9807 44.8752 61.9883C43.1805 61.9252 41.5516 61.3159 40.2314 60.2515C39.3168 59.6078 38.5478 58.779 37.9742 57.8189C37.4007 56.8587 37.0354 55.7887 36.9022 54.6783C36.5764 51.5475 38.1673 47.9024 41.631 43.8451C42.0465 43.358 42.5631 42.9672 43.1449 42.6998C43.7266 42.4324 44.3596 42.2948 44.9999 42.2967H45.014C45.6524 42.2972 46.283 42.4369 46.8619 42.706C47.4408 42.9751 47.954 43.3672 48.3659 43.855C50.5447 46.4432 53.1443 50.2796 53.1443 53.8581C53.1411 55.9203 52.3558 57.9046 50.9467 59.4104C49.5377 60.9162 47.6099 61.8314 45.5524 61.9713C49.6205 61.8403 53.4779 60.1307 56.3074 57.2047C59.1368 54.2787 60.7161 50.3662 60.7107 46.2959C60.7036 39.8784 56.4649 36.2801 51.5576 32.108Z" fill="white"/>
</svg>
