<svg width="90" height="90" viewBox="0 0 90 90" fill="none" xmlns="http://www.w3.org/2000/svg">
<mask id="mask0" style="mask-type:alpha" maskUnits="userSpaceOnUse" x="0" y="0" width="90" height="90">
<circle cx="45" cy="45" r="45" fill="#C4C4C4"/>
</mask>
<g mask="url(#mask0)">
<rect x="-68.0547" y="-22.3574" width="198.543" height="133.901" fill="#CC284C"/>
</g>
<g clip-path="url(#clip0)">
<path d="M33.3649 57.2627C31.9425 57.262 30.5786 56.6967 29.5727 55.6911C28.5668 54.6854 28.0011 53.3216 28 51.8993V38.1009C27.9997 37.1103 28.2741 36.139 28.7925 35.2948C29.3109 34.4507 30.0532 33.7667 30.9368 33.319C31.8205 32.8712 32.811 32.6771 33.7983 32.7582C34.7856 32.8394 35.7311 33.1926 36.5297 33.7787L41.8833 37.7085C41.9533 36.754 42.2776 35.8356 42.8226 35.0488C43.3676 34.262 44.1133 33.6356 44.9823 33.2345C45.8513 32.8334 46.8118 32.6723 47.7641 32.768C48.7164 32.8637 49.6257 33.2127 50.3975 33.7787L59.8056 40.6778C60.4838 41.1758 61.0352 41.8265 61.4153 42.5771C61.7953 43.3277 61.9934 44.1573 61.9934 44.9987C61.9934 45.84 61.7953 46.6696 61.4153 47.4202C61.0352 48.1709 60.4838 48.8215 59.8056 49.3195L50.3975 56.2187C49.6259 56.7846 48.7168 57.1336 47.7648 57.2294C46.8127 57.3252 45.8523 57.1644 44.9834 56.7636C44.1145 56.3629 43.3688 55.7368 42.8236 54.9504C42.2784 54.164 41.9538 53.2459 41.8833 52.2917L36.5297 56.2215C35.6126 56.8967 34.5038 57.2615 33.3649 57.2627V57.2627Z" fill="white"/>
</g>
<defs>
<clipPath id="clip0">
<rect width="34" height="34" fill="white" transform="translate(28 28)"/>
</clipPath>
</defs>
</svg>
