<svg width="90" height="90" viewBox="0 0 90 90" fill="none" xmlns="http://www.w3.org/2000/svg">
<mask id="mask0" style="mask-type:alpha" maskUnits="userSpaceOnUse" x="0" y="0" width="90" height="90">
<circle cx="45" cy="45" r="45" fill="#C4C4C4"/>
</mask>
<g mask="url(#mask0)">
<rect x="-68.0547" y="-22.3574" width="198.543" height="133.901" fill="#CC284C"/>
</g>
<g clip-path="url(#clip0)">
<path d="M37.9167 28H33.6667C30.5371 28 28 30.5371 28 33.6667V37.9167C28 41.0463 30.5371 43.5833 33.6667 43.5833H37.9167C41.0463 43.5833 43.5833 41.0463 43.5833 37.9167V33.6667C43.5833 30.5371 41.0463 28 37.9167 28Z" fill="white"/>
<path d="M37.9167 46.416H33.6667C30.5371 46.416 28 48.9531 28 52.0827V56.3327C28 59.4623 30.5371 61.9993 33.6667 61.9993H37.9167C41.0463 61.9993 43.5833 59.4623 43.5833 56.3327V52.0827C43.5833 48.9531 41.0463 46.416 37.9167 46.416Z" fill="white"/>
<path d="M59.5817 55.0951L56.3333 58.3393V31.6606L59.5817 34.9048C59.7133 35.0363 59.8696 35.1407 60.0415 35.2118C60.2135 35.2829 60.3977 35.3195 60.5838 35.3195C60.7699 35.3194 60.9541 35.2827 61.126 35.2114C61.2979 35.1401 61.4541 35.0357 61.5856 34.9041C61.7171 34.7725 61.8214 34.6162 61.8926 34.4443C61.9637 34.2724 62.0003 34.0881 62.0003 33.902C62.0002 33.7159 61.9635 33.5317 61.8922 33.3598C61.8209 33.1879 61.7165 33.0318 61.5849 32.9002L57.92 29.241C57.1231 28.4451 56.0429 27.998 54.9166 27.998C53.7904 27.998 52.7102 28.4451 51.9133 29.241L48.2484 32.9002C48.1168 33.0318 48.0123 33.1879 47.9411 33.3598C47.8698 33.5317 47.8331 33.7159 47.833 33.902C47.833 34.0881 47.8695 34.2724 47.9407 34.4443C48.0118 34.6162 48.1162 34.7725 48.2477 34.9041C48.3792 35.0357 48.5354 35.1401 48.7073 35.2114C48.8792 35.2827 49.0634 35.3194 49.2495 35.3195C49.4356 35.3195 49.6198 35.2829 49.7918 35.2118C49.9637 35.1407 50.1199 35.0363 50.2516 34.9048L53.5 31.6606V58.3393L50.2516 55.0951C50.1198 54.9636 49.9635 54.8593 49.7915 54.7882C49.6195 54.7171 49.4351 54.6806 49.249 54.6807C49.0628 54.6808 48.8785 54.7176 48.7066 54.789C48.5347 54.8603 48.3785 54.9648 48.247 55.0966C48.1154 55.2283 48.0111 55.3846 47.94 55.5566C47.8689 55.7287 47.8324 55.913 47.8325 56.0991C47.8327 56.2853 47.8694 56.4696 47.9408 56.6415C48.0122 56.8134 48.1167 56.9696 48.2484 57.1011L51.9133 60.7604C52.7113 61.5542 53.7911 61.9998 54.9166 61.9998C56.0422 61.9998 57.122 61.5542 57.92 60.7604L61.5849 57.1011C61.8509 56.8355 62.0005 56.4751 62.0008 56.0991C62.001 55.7232 61.8519 55.3626 61.5863 55.0966C61.3207 54.8305 60.9602 54.681 60.5843 54.6807C60.2084 54.6804 59.8477 54.8295 59.5817 55.0951Z" fill="white"/>
</g>
<defs>
<clipPath id="clip0">
<rect width="34" height="34" fill="white" transform="translate(28 28)"/>
</clipPath>
</defs>
</svg>
