<svg width="69" height="99" viewBox="0 0 69 99" fill="none" xmlns="http://www.w3.org/2000/svg">
<rect x="0.65" y="0.65" width="67.7" height="97.7" rx="33.85" stroke="#E3E3E7" stroke-width="1.3"/>
<rect x="7" y="8" width="55" height="83" rx="27.5" fill="white" fill-opacity="0.25"/>
<path d="M35.9 46C35.9 45.5029 35.4971 45.1 35 45.1C34.5029 45.1 34.1 45.5029 34.1 46L35.9 46ZM34.3636 62.1364C34.7151 62.4879 35.2849 62.4879 35.6364 62.1364L41.364 56.4088C41.7154 56.0574 41.7154 55.4875 41.364 55.136C41.0125 54.7846 40.4426 54.7846 40.0912 55.136L35 60.2272L29.9088 55.136C29.5574 54.7846 28.9875 54.7846 28.636 55.136C28.2846 55.4875 28.2846 56.0574 28.636 56.4088L34.3636 62.1364ZM34.1 46L34.1 61.5L35.9 61.5L35.9 46L34.1 46Z" fill="white"/>
</svg>
