<svg width="50" height="50" viewBox="0 0 50 50" fill="none" xmlns="http://www.w3.org/2000/svg">
<circle cx="25" cy="25" r="25" fill="url(#paint0_linear)"/>
<path d="M33.6018 29.7033C33.2607 30.5418 32.8569 31.3136 32.3891 32.0232C31.7514 32.9906 31.2292 33.6602 30.8268 34.032C30.2031 34.6424 29.5347 34.955 28.8191 34.9728C28.3053 34.9728 27.6857 34.8172 26.9645 34.5017C26.2409 34.1876 25.5759 34.032 24.9678 34.032C24.3301 34.032 23.6462 34.1876 22.9147 34.5017C22.182 34.8172 21.5918 34.9816 21.1405 34.9979C20.4542 35.0291 19.7702 34.7076 19.0874 34.032C18.6516 33.6276 18.1065 32.9343 17.4535 31.9521C16.7528 30.9033 16.1768 29.687 15.7256 28.3004C15.2423 26.8026 15 25.3523 15 23.9482C15 22.3398 15.3266 20.9526 15.9809 19.7901C16.4951 18.8564 17.1792 18.1198 18.0353 17.5791C18.8915 17.0383 19.8166 16.7628 20.8128 16.7452C21.3579 16.7452 22.0727 16.9246 22.961 17.2771C23.8468 17.6309 24.4156 17.8103 24.665 17.8103C24.8514 17.8103 25.4833 17.6005 26.5544 17.1823C27.5673 16.7945 28.4222 16.6339 29.1226 16.6972C31.0204 16.8601 32.4461 17.6561 33.3943 19.0901C31.6971 20.1843 30.8575 21.7169 30.8742 23.6829C30.8895 25.2142 31.4116 26.4886 32.4378 27.5004C32.9028 27.97 33.4222 28.333 34 28.5907C33.8747 28.9774 33.7424 29.3477 33.6018 29.7033ZM29.2493 11.4801C29.2493 12.6804 28.8372 13.8011 28.0157 14.8384C27.0243 16.0716 25.8252 16.7841 24.5249 16.6717C24.5084 16.5277 24.4987 16.3761 24.4987 16.2169C24.4987 15.0646 24.9702 13.8315 25.8074 12.8232C26.2254 12.3127 26.757 11.8882 27.4017 11.5496C28.0449 11.2161 28.6534 11.0316 29.2256 11C29.2423 11.1605 29.2493 11.3209 29.2493 11.4801V11.4801Z" fill="white"/>
<defs>
<linearGradient id="paint0_linear" x1="-5.95826" y1="-22.3246" x2="74.2201" y2="36.4863" gradientUnits="userSpaceOnUse">
<stop stop-color="#CC283C"/>
<stop offset="1" stop-color="#CC284F"/>
</linearGradient>
</defs>
</svg>
