<svg width="30" height="29" viewBox="0 0 30 29" fill="none" xmlns="http://www.w3.org/2000/svg">
<path d="M26.7326 12.4776C28.1343 13.2329 28.1343 15.2436 26.7326 15.9989L10.4487 24.7737C9.11626 25.4917 7.5 24.5266 7.5 23.013L7.5 5.46353C7.5 3.94991 9.11626 2.98487 10.4487 3.70289L26.7326 12.4776Z" fill="white"/>
<path d="M14.5954 11.8024L14.5954 13.0763L11.6271 13.0763C10.9345 13.0763 10.7943 13.4515 11.3137 13.9091L14.8592 17.03C15.2921 17.4134 15.6508 17.2526 15.6508 16.6713L15.6508 15.3974L18.6191 15.3974C19.3117 15.3974 19.4519 15.0222 18.9324 14.5646L15.3869 11.4438C14.9499 11.0645 14.5954 11.2253 14.5954 11.8024Z" fill="#CC2C28"/>
</svg>
