<svg width="376" height="338" viewBox="0 0 376 338" fill="none" xmlns="http://www.w3.org/2000/svg">
<rect width="376" height="338" rx="30" fill="white"/>
<path d="M162.703 51L168.723 36.92H170.183L176.203 51H174.383L172.583 46.76H166.203L164.423 51H162.703ZM169.403 39.18L166.883 45.16H171.923L169.403 39.18ZM177.704 51V42C177.918 42 178.391 41.9867 179.124 41.96C179.871 41.9333 180.484 41.92 180.964 41.92C183.551 41.92 184.844 42.6933 184.844 44.24C184.844 44.7733 184.678 45.2333 184.344 45.62C184.011 45.9933 183.578 46.22 183.044 46.3V46.34C184.444 46.5933 185.144 47.3 185.144 48.46C185.144 50.2067 183.764 51.08 181.004 51.08C180.604 51.08 180.018 51.0667 179.244 51.04C178.471 51.0133 177.958 51 177.704 51ZM181.224 46.96H179.304V49.72C180.264 49.76 180.878 49.78 181.144 49.78C182.678 49.78 183.444 49.3 183.444 48.34C183.444 47.42 182.704 46.96 181.224 46.96ZM181.084 43.22C180.698 43.22 180.104 43.24 179.304 43.28V45.96H181.324C181.871 45.96 182.311 45.8333 182.644 45.58C182.978 45.3267 183.144 44.9867 183.144 44.56C183.144 43.6667 182.458 43.22 181.084 43.22ZM187.347 51V42H193.047V43.5H188.947V51H187.347ZM202.768 42L199.168 51C198.528 52.56 197.961 53.6133 197.468 54.16C196.974 54.72 196.394 55 195.728 55C195.154 55 194.588 54.8133 194.028 54.44L194.548 53.22C194.974 53.42 195.308 53.52 195.548 53.52C195.921 53.52 196.254 53.36 196.548 53.04C196.854 52.72 197.161 52.2 197.468 51.48L197.668 51L193.348 42H195.268L197.908 47.72C197.961 47.84 198.141 48.2933 198.448 49.08C198.568 48.64 198.708 48.18 198.868 47.7L200.948 42H202.768ZM210.74 48.54L211.5 49.7C211.127 50.18 210.634 50.5533 210.02 50.82C209.407 51.0733 208.747 51.2 208.04 51.2C206.6 51.2 205.434 50.7733 204.54 49.92C203.66 49.0533 203.22 47.9133 203.22 46.5C203.22 45.18 203.654 44.0667 204.52 43.16C205.387 42.2533 206.474 41.8 207.78 41.8C209.354 41.8 210.534 42.1933 211.32 42.98L210.58 44.24C209.9 43.6133 209.04 43.3 208 43.3C207.16 43.3 206.434 43.6067 205.82 44.22C205.22 44.82 204.92 45.58 204.92 46.5C204.92 47.46 205.227 48.2333 205.84 48.82C206.467 49.4067 207.24 49.7 208.16 49.7C209.2 49.7 210.06 49.3133 210.74 48.54ZM212.089 43.6V42H220.289V43.6H216.989V51H215.389V43.6H212.089Z" fill="black"/>
<path d="M53.1549 92.156C52.3229 92.156 51.6079 91.961 51.0099 91.571C50.4205 91.1723 50.0089 90.6263 49.7749 89.933L50.5549 89.478C50.7195 90.05 51.0229 90.492 51.4649 90.804C51.9155 91.116 52.4832 91.272 53.1679 91.272C53.8352 91.272 54.3595 91.1247 54.7409 90.83C55.1222 90.5353 55.3129 90.1367 55.3129 89.634C55.3129 89.1573 55.1395 88.7977 54.7929 88.555C54.4549 88.3123 53.8829 88.061 53.0769 87.801C52.1149 87.4803 51.4909 87.229 51.2049 87.047C50.5115 86.631 50.1649 86.0287 50.1649 85.24C50.1649 84.4687 50.4335 83.862 50.9709 83.42C51.4995 82.9693 52.1625 82.744 52.9599 82.744C53.6445 82.744 54.2512 82.926 54.7799 83.29C55.3085 83.6453 55.7029 84.1177 55.9629 84.707L55.1959 85.136C54.7799 84.1307 54.0345 83.628 52.9599 83.628C52.3879 83.628 51.9285 83.771 51.5819 84.057C51.2439 84.3343 51.0749 84.7157 51.0749 85.201C51.0749 85.6603 51.2309 85.9983 51.5429 86.215C51.8635 86.4403 52.3792 86.67 53.0899 86.904L53.7919 87.151C53.9392 87.1943 54.1472 87.2723 54.4159 87.385C54.7105 87.4977 54.9142 87.593 55.0269 87.671C55.4862 87.9483 55.7765 88.204 55.8979 88.438C56.1145 88.7847 56.2229 89.1747 56.2229 89.608C56.2229 90.3793 55.9412 90.999 55.3779 91.467C54.8145 91.9263 54.0735 92.156 53.1549 92.156Z" fill="#D8D8D8"/>
<path d="M102.53 82.9H103.661V92H102.751V84.278L99.5663 89.608H99.4363L96.2513 84.278V92H95.3413V82.9H96.4723L99.5013 87.97L102.53 82.9Z" fill="#D8D8D8"/>
<path d="M142.75 82.9H149.25V83.758H146.455V92H145.545V83.758H142.75V82.9Z" fill="#D8D8D8"/>
<path d="M191.121 92H190.029L187.39 82.9H188.352L190.601 90.765L192.967 82.9H194.033L196.399 90.765L198.648 82.9H199.61L196.971 92H195.879L193.5 84.096L191.121 92Z" fill="#D8D8D8"/>
<path d="M237.75 82.9H244.25V83.758H241.455V92H240.545V83.758H237.75V82.9Z" fill="#D8D8D8"/>
<path d="M288.33 82.9V83.758H284.105V87.112H288.135V87.97H284.105V92H283.195V82.9H288.33Z" fill="#D8D8D8"/>
<path d="M330.155 92.156C329.323 92.156 328.608 91.961 328.01 91.571C327.421 91.1723 327.009 90.6263 326.775 89.933L327.555 89.478C327.72 90.05 328.023 90.492 328.465 90.804C328.916 91.116 329.483 91.272 330.168 91.272C330.835 91.272 331.36 91.1247 331.741 90.83C332.122 90.5353 332.313 90.1367 332.313 89.634C332.313 89.1573 332.14 88.7977 331.793 88.555C331.455 88.3123 330.883 88.061 330.077 87.801C329.115 87.4803 328.491 87.229 328.205 87.047C327.512 86.631 327.165 86.0287 327.165 85.24C327.165 84.4687 327.434 83.862 327.971 83.42C328.5 82.9693 329.163 82.744 329.96 82.744C330.645 82.744 331.251 82.926 331.78 83.29C332.309 83.6453 332.703 84.1177 332.963 84.707L332.196 85.136C331.78 84.1307 331.035 83.628 329.96 83.628C329.388 83.628 328.929 83.771 328.582 84.057C328.244 84.3343 328.075 84.7157 328.075 85.201C328.075 85.6603 328.231 85.9983 328.543 86.215C328.864 86.4403 329.379 86.67 330.09 86.904L330.792 87.151C330.939 87.1943 331.147 87.2723 331.416 87.385C331.711 87.4977 331.914 87.593 332.027 87.671C332.486 87.9483 332.777 88.204 332.898 88.438C333.115 88.7847 333.223 89.1747 333.223 89.608C333.223 90.3793 332.941 90.999 332.378 91.467C331.815 91.9263 331.074 92.156 330.155 92.156Z" fill="#D8D8D8"/>
<path d="M52.8147 137H45.6947V135.992L49.7267 131.928C50.8787 130.776 51.4547 129.789 51.4547 128.968C51.4547 128.275 51.236 127.725 50.7987 127.32C50.372 126.904 49.8387 126.696 49.1987 126.696C48.0574 126.696 47.22 127.224 46.6867 128.28L45.7427 127.72C46.084 127.037 46.5587 126.515 47.1667 126.152C47.7747 125.789 48.452 125.608 49.1987 125.608C50.0947 125.608 50.8787 125.912 51.5507 126.52C52.2334 127.107 52.5747 127.923 52.5747 128.968C52.5747 129.587 52.404 130.195 52.0627 130.792C51.7214 131.379 51.1987 132.024 50.4947 132.728L47.2947 135.912H52.8147V137ZM61.4609 129.304C61.4609 130.147 61.2316 130.893 60.7729 131.544L57.1089 137H55.8449L58.5969 132.904C58.3089 132.968 58.0103 133 57.7009 133C56.5916 133 55.6903 132.659 54.9969 131.976C54.2929 131.293 53.9409 130.403 53.9409 129.304C53.9409 128.227 54.2929 127.341 54.9969 126.648C55.7116 125.955 56.6129 125.608 57.7009 125.608C58.7889 125.608 59.6903 125.955 60.4049 126.648C61.1089 127.341 61.4609 128.227 61.4609 129.304ZM55.7809 127.416C55.3009 127.896 55.0609 128.525 55.0609 129.304C55.0609 130.083 55.3009 130.712 55.7809 131.192C56.2823 131.672 56.9223 131.912 57.7009 131.912C58.4903 131.912 59.1249 131.672 59.6049 131.192C60.0956 130.712 60.3409 130.083 60.3409 129.304C60.3409 128.525 60.0956 127.896 59.6049 127.416C59.1249 126.936 58.4903 126.696 57.7009 126.696C56.9223 126.696 56.2823 126.936 55.7809 127.416Z" fill="#C1B2C8"/>
<path d="M51.8443 169.168H53.4763C54.5323 169.168 55.4229 169.483 56.1483 170.112C56.8843 170.741 57.2523 171.6 57.2523 172.688C57.2523 173.787 56.8789 174.645 56.1323 175.264C55.3749 175.893 54.4683 176.208 53.4123 176.208C52.5376 176.208 51.7643 176 51.0923 175.584C50.4309 175.157 49.9723 174.565 49.7163 173.808L50.9803 173.088C51.1296 173.621 51.4176 174.032 51.8443 174.32C52.2709 174.608 52.7936 174.752 53.4123 174.752C54.1269 174.752 54.6976 174.571 55.1243 174.208C55.5616 173.835 55.7803 173.328 55.7803 172.688C55.7803 172.048 55.5616 171.541 55.1243 171.168C54.6976 170.795 54.1376 170.608 53.4443 170.608H50.2763L50.6923 164.8H56.8203V166.192H52.0363L51.8443 169.168Z" fill="#5F5F5F"/>
<path d="M46.6537 204.824L49.5977 203.8H50.8777V215H49.4057V205.4L47.0217 206.104L46.6537 204.824ZM59.9408 215H52.7088V213.784L56.6608 209.752C57.7168 208.696 58.2448 207.789 58.2448 207.032C58.2448 206.413 58.0528 205.928 57.6688 205.576C57.2955 205.213 56.8261 205.032 56.2608 205.032C55.2048 205.032 54.4368 205.533 53.9568 206.536L52.7088 205.8C53.0501 205.085 53.5301 204.541 54.1488 204.168C54.7675 203.784 55.4661 203.592 56.2448 203.592C57.1941 203.592 58.0101 203.901 58.6928 204.52C59.3861 205.149 59.7328 205.981 59.7328 207.016C59.7328 208.147 59.0661 209.379 57.7328 210.712L54.8688 213.56H59.9408V215Z" fill="#5F5F5F"/>
<path d="M46.5678 243.824L49.5118 242.8H50.7918V254H49.3198V244.4L46.9358 245.104L46.5678 243.824ZM60.2069 246.352C60.2069 247.227 59.9775 247.979 59.5189 248.608H59.5349L55.9189 254H54.2389L56.8949 250.08C56.5749 250.101 56.3935 250.112 56.3509 250.112C55.2202 250.112 54.2922 249.765 53.5669 249.072C52.8522 248.368 52.4949 247.461 52.4949 246.352C52.4949 245.232 52.8522 244.331 53.5669 243.648C54.2815 242.944 55.2095 242.592 56.3509 242.592C57.4709 242.592 58.3935 242.944 59.1189 243.648C59.8442 244.341 60.2069 245.243 60.2069 246.352ZM56.3509 244.016C55.6469 244.016 55.0709 244.229 54.6229 244.656C54.1855 245.083 53.9669 245.648 53.9669 246.352C53.9669 247.056 54.1855 247.627 54.6229 248.064C55.0709 248.491 55.6469 248.704 56.3509 248.704C57.0549 248.704 57.6255 248.491 58.0629 248.064C58.5109 247.627 58.7349 247.056 58.7349 246.352C58.7349 245.648 58.5162 245.083 58.0789 244.656C57.6415 244.229 57.0655 244.016 56.3509 244.016Z" fill="#5F5F5F"/>
<path d="M52.9252 293H45.6932V291.784L49.6452 287.752C50.7012 286.696 51.2292 285.789 51.2292 285.032C51.2292 284.413 51.0372 283.928 50.6532 283.576C50.2799 283.213 49.8105 283.032 49.2452 283.032C48.1892 283.032 47.4212 283.533 46.9412 284.536L45.6932 283.8C46.0345 283.085 46.5145 282.541 47.1332 282.168C47.7519 281.784 48.4505 281.592 49.2292 281.592C50.1785 281.592 50.9945 281.901 51.6772 282.52C52.3705 283.149 52.7172 283.981 52.7172 285.016C52.7172 286.147 52.0505 287.379 50.7172 288.712L47.8532 291.56H52.9252V293ZM57.5774 285.672C58.6974 285.672 59.6201 286.024 60.3454 286.728C61.0708 287.421 61.4334 288.323 61.4334 289.432C61.4334 290.541 61.0708 291.448 60.3454 292.152C59.6201 292.856 58.6974 293.208 57.5774 293.208C56.4361 293.208 55.5081 292.856 54.7934 292.152C54.0788 291.448 53.7214 290.541 53.7214 289.432C53.7214 288.557 53.9454 287.811 54.3934 287.192L57.9934 281.8H59.6894L57.0494 285.704C57.3694 285.683 57.5454 285.672 57.5774 285.672ZM57.5774 287.096C56.8628 287.096 56.2868 287.309 55.8494 287.736C55.4121 288.163 55.1934 288.728 55.1934 289.432C55.1934 290.136 55.4121 290.707 55.8494 291.144C56.2974 291.571 56.8734 291.784 57.5774 291.784C58.2814 291.784 58.8521 291.571 59.2894 291.144C59.7374 290.707 59.9614 290.136 59.9614 289.432C59.9614 288.728 59.7374 288.163 59.2894 287.736C58.8521 287.309 58.2814 287.096 57.5774 287.096Z" fill="#5F5F5F"/>
<path d="M97.5788 126.856L94.9708 130.456C95.8561 130.563 96.5921 130.909 97.1788 131.496C97.7654 132.051 98.0588 132.803 98.0588 133.752C98.0588 134.808 97.6908 135.651 96.9548 136.28C96.2401 136.888 95.3548 137.192 94.2988 137.192C93.4561 137.192 92.7094 137 92.0588 136.616C91.4081 136.221 90.9548 135.672 90.6988 134.968L91.6268 134.424C91.8081 134.968 92.1281 135.384 92.5868 135.672C93.0561 135.96 93.6268 136.104 94.2988 136.104C95.0881 136.104 95.7228 135.896 96.2028 135.48C96.6934 135.053 96.9388 134.477 96.9388 133.752C96.9388 133.027 96.6934 132.456 96.2028 132.04C95.7228 131.613 95.0881 131.4 94.2988 131.4V131.384L94.2828 131.4H93.9788L93.4988 130.664L96.2828 126.856H91.0188V125.8H97.5788V126.856ZM106.863 135.624C106.127 136.669 105.087 137.192 103.743 137.192C102.41 137.192 101.364 136.669 100.607 135.624C99.8711 134.568 99.5031 133.16 99.5031 131.4C99.5031 129.629 99.8711 128.227 100.607 127.192C101.364 126.136 102.41 125.608 103.743 125.608C105.087 125.608 106.127 126.136 106.863 127.192C107.61 128.227 107.983 129.629 107.983 131.4C107.983 133.171 107.61 134.579 106.863 135.624ZM101.439 134.872C102.004 135.693 102.772 136.104 103.743 136.104C104.724 136.104 105.487 135.693 106.031 134.872C106.586 134.061 106.863 132.904 106.863 131.4C106.863 129.896 106.586 128.739 106.031 127.928C105.487 127.107 104.724 126.696 103.743 126.696C102.772 126.696 102.004 127.107 101.439 127.928C100.895 128.749 100.623 129.907 100.623 131.4C100.623 132.893 100.895 134.051 101.439 134.872Z" fill="#C1B2C8"/>
<path d="M99.4993 168.672C100.619 168.672 101.542 169.024 102.267 169.728C102.993 170.421 103.355 171.323 103.355 172.432C103.355 173.541 102.993 174.448 102.267 175.152C101.542 175.856 100.619 176.208 99.4993 176.208C98.358 176.208 97.43 175.856 96.7153 175.152C96.0006 174.448 95.6433 173.541 95.6433 172.432C95.6433 171.557 95.8673 170.811 96.3153 170.192L99.9153 164.8H101.611L98.9713 168.704C99.2913 168.683 99.4673 168.672 99.4993 168.672ZM99.4993 170.096C98.7846 170.096 98.2086 170.309 97.7713 170.736C97.334 171.163 97.1153 171.728 97.1153 172.432C97.1153 173.136 97.334 173.707 97.7713 174.144C98.2193 174.571 98.7953 174.784 99.4993 174.784C100.203 174.784 100.774 174.571 101.211 174.144C101.659 173.707 101.883 173.136 101.883 172.432C101.883 171.728 101.659 171.163 101.211 170.736C100.774 170.309 100.203 170.096 99.4993 170.096Z" fill="#5F5F5F"/>
<path d="M92.5912 204.824L95.5352 203.8H96.8152V215H95.3432V205.4L92.9592 206.104L92.5912 204.824ZM105.558 205.112L103.126 208.392C104.001 208.552 104.705 208.925 105.238 209.512C105.772 210.099 106.038 210.824 106.038 211.688C106.038 212.787 105.665 213.645 104.918 214.264C104.161 214.893 103.254 215.208 102.198 215.208C101.324 215.208 100.561 215.011 99.9103 214.616C99.2596 214.221 98.7956 213.661 98.5183 212.936L99.7663 212.2C100.097 213.235 100.908 213.752 102.198 213.752C102.902 213.752 103.468 213.571 103.894 213.208C104.332 212.835 104.55 212.328 104.55 211.688C104.55 211.048 104.332 210.541 103.894 210.168C103.468 209.795 102.902 209.608 102.198 209.608H101.814L101.222 208.696L103.814 205.192H98.8383V203.8H105.558V205.112Z" fill="#5F5F5F"/>
<path d="M98.1283 254H90.8963V252.784L94.8483 248.752C95.9043 247.696 96.4323 246.789 96.4323 246.032C96.4323 245.413 96.2403 244.928 95.8563 244.576C95.483 244.213 95.0136 244.032 94.4483 244.032C93.3923 244.032 92.6243 244.533 92.1443 245.536L90.8963 244.8C91.2376 244.085 91.7176 243.541 92.3363 243.168C92.955 242.784 93.6536 242.592 94.4323 242.592C95.3816 242.592 96.1976 242.901 96.8803 243.52C97.5736 244.149 97.9203 244.981 97.9203 246.016C97.9203 247.147 97.2536 248.379 95.9203 249.712L93.0563 252.56H98.1283V254ZM106.826 252.624C106.079 253.68 105.018 254.208 103.642 254.208C102.266 254.208 101.204 253.68 100.458 252.624C99.7002 251.557 99.3216 250.149 99.3216 248.4C99.3216 246.651 99.7002 245.243 100.458 244.176C101.204 243.12 102.266 242.592 103.642 242.592C105.018 242.592 106.079 243.12 106.826 244.176C107.583 245.243 107.962 246.651 107.962 248.4C107.962 250.149 107.583 251.557 106.826 252.624ZM100.81 248.4C100.81 249.787 101.055 250.859 101.546 251.616C102.036 252.373 102.735 252.752 103.642 252.752C104.548 252.752 105.247 252.373 105.738 251.616C106.239 250.859 106.49 249.787 106.49 248.4C106.49 247.013 106.239 245.941 105.738 245.184C105.247 244.416 104.548 244.032 103.642 244.032C102.735 244.032 102.036 244.411 101.546 245.168C101.055 245.925 100.81 247.003 100.81 248.4Z" fill="#5F5F5F"/>
<path d="M99.3236 293H92.0916V291.784L96.0436 287.752C97.0996 286.696 97.6276 285.789 97.6276 285.032C97.6276 284.413 97.4356 283.928 97.0516 283.576C96.6783 283.213 96.209 283.032 95.6436 283.032C94.5876 283.032 93.8196 283.533 93.3396 284.536L92.0916 283.8C92.433 283.085 92.913 282.541 93.5316 282.168C94.1503 281.784 94.849 281.592 95.6276 281.592C96.577 281.592 97.393 281.901 98.0756 282.52C98.769 283.149 99.1156 283.981 99.1156 285.016C99.1156 286.147 98.449 287.379 97.1156 288.712L94.2516 291.56H99.3236V293ZM99.9286 283.208V281.8H106.921V283.128L102.841 293H101.289L105.337 283.208H99.9286Z" fill="#5F5F5F"/>
<path d="M146.555 126.856L143.947 130.456C144.833 130.563 145.569 130.909 146.155 131.496C146.742 132.051 147.035 132.803 147.035 133.752C147.035 134.808 146.667 135.651 145.931 136.28C145.217 136.888 144.331 137.192 143.275 137.192C142.433 137.192 141.686 137 141.035 136.616C140.385 136.221 139.931 135.672 139.675 134.968L140.603 134.424C140.785 134.968 141.105 135.384 141.563 135.672C142.033 135.96 142.603 136.104 143.275 136.104C144.065 136.104 144.699 135.896 145.179 135.48C145.67 135.053 145.915 134.477 145.915 133.752C145.915 133.027 145.67 132.456 145.179 132.04C144.699 131.613 144.065 131.4 143.275 131.4V131.384L143.259 131.4H142.955L142.475 130.664L145.259 126.856H139.995V125.8H146.555V126.856ZM147.607 126.824L150.567 125.8H151.527V137H150.407V127.032L147.895 127.784L147.607 126.824Z" fill="#C1B2C8"/>
<path d="M142.366 166.208V164.8H149.358V166.128L145.278 176H143.726L147.774 166.208H142.366Z" fill="#5F5F5F"/>
<path d="M138.732 204.824L141.676 203.8H142.956V215H141.484V205.4L139.1 206.104L138.732 204.824ZM151.795 211.48H153.155V212.872H151.795V215H150.307V212.872H144.595V211.48L148.611 203.8H150.211L146.195 211.48H150.307V208.312H151.795V211.48Z" fill="#5F5F5F"/>
<path d="M146.777 254H139.545V252.784L143.497 248.752C144.553 247.696 145.081 246.789 145.081 246.032C145.081 245.413 144.889 244.928 144.505 244.576C144.131 244.213 143.662 244.032 143.097 244.032C142.041 244.032 141.273 244.533 140.793 245.536L139.545 244.8C139.886 244.085 140.366 243.541 140.985 243.168C141.603 242.784 142.302 242.592 143.081 242.592C144.03 242.592 144.846 242.901 145.529 243.52C146.222 244.149 146.569 244.981 146.569 246.016C146.569 247.147 145.902 248.379 144.569 249.712L141.705 252.56H146.777V254ZM147.552 243.824L150.496 242.8H151.776V254H150.304V244.4L147.92 245.104L147.552 243.824Z" fill="#5F5F5F"/>
<path d="M145.191 293H137.959V291.784L141.911 287.752C142.967 286.696 143.495 285.789 143.495 285.032C143.495 284.413 143.303 283.928 142.919 283.576C142.545 283.213 142.076 283.032 141.511 283.032C140.455 283.032 139.687 283.533 139.207 284.536L137.959 283.8C138.3 283.085 138.78 282.541 139.399 282.168C140.017 281.784 140.716 281.592 141.495 281.592C142.444 281.592 143.26 281.901 143.943 282.52C144.636 283.149 144.983 283.981 144.983 285.016C144.983 286.147 144.316 287.379 142.983 288.712L140.119 291.56H145.191V293ZM152.27 287.208C153.433 287.805 154.014 288.712 154.014 289.928C154.014 290.952 153.657 291.757 152.942 292.344C152.217 292.92 151.294 293.208 150.174 293.208C149.054 293.208 148.137 292.92 147.422 292.344C146.708 291.757 146.35 290.952 146.35 289.928C146.35 288.712 146.932 287.805 148.094 287.208C147.177 286.632 146.718 285.816 146.718 284.76C146.718 283.747 147.054 282.968 147.726 282.424C148.409 281.869 149.225 281.592 150.174 281.592C151.145 281.592 151.961 281.869 152.622 282.424C153.305 282.968 153.646 283.747 153.646 284.76C153.646 285.816 153.188 286.632 152.27 287.208ZM150.174 283.016C149.588 283.016 149.108 283.171 148.734 283.48C148.372 283.789 148.19 284.227 148.19 284.792C148.19 285.347 148.377 285.784 148.75 286.104C149.124 286.424 149.598 286.584 150.174 286.584C150.75 286.584 151.225 286.424 151.598 286.104C151.972 285.784 152.158 285.347 152.158 284.792C152.158 284.227 151.977 283.789 151.614 283.48C151.252 283.171 150.772 283.016 150.174 283.016ZM150.174 291.784C150.9 291.784 151.476 291.613 151.902 291.272C152.329 290.931 152.542 290.451 152.542 289.832C152.542 289.224 152.329 288.749 151.902 288.408C151.476 288.067 150.9 287.896 150.174 287.896C149.46 287.896 148.889 288.067 148.462 288.408C148.036 288.749 147.822 289.224 147.822 289.832C147.822 290.451 148.036 290.931 148.462 291.272C148.889 291.613 149.46 291.784 150.174 291.784Z" fill="#5F5F5F"/>
<path d="M188.872 126.824L191.816 125.8H193.096V137H191.624V127.4L189.24 128.104L188.872 126.824Z" fill="#5F5F5F"/>
<path d="M193.591 170.208C194.753 170.805 195.335 171.712 195.335 172.928C195.335 173.952 194.977 174.757 194.263 175.344C193.537 175.92 192.615 176.208 191.495 176.208C190.375 176.208 189.457 175.92 188.743 175.344C188.028 174.757 187.671 173.952 187.671 172.928C187.671 171.712 188.252 170.805 189.414 170.208C188.497 169.632 188.039 168.816 188.039 167.76C188.039 166.747 188.375 165.968 189.047 165.424C189.729 164.869 190.545 164.592 191.495 164.592C192.465 164.592 193.281 164.869 193.943 165.424C194.625 165.968 194.967 166.747 194.967 167.76C194.967 168.816 194.508 169.632 193.591 170.208ZM191.495 166.016C190.908 166.016 190.428 166.171 190.055 166.48C189.692 166.789 189.511 167.227 189.511 167.792C189.511 168.347 189.697 168.784 190.071 169.104C190.444 169.424 190.919 169.584 191.495 169.584C192.071 169.584 192.545 169.424 192.919 169.104C193.292 168.784 193.479 168.347 193.479 167.792C193.479 167.227 193.297 166.789 192.935 166.48C192.572 166.171 192.092 166.016 191.495 166.016ZM191.495 174.784C192.22 174.784 192.796 174.613 193.223 174.272C193.649 173.931 193.863 173.451 193.863 172.832C193.863 172.224 193.649 171.749 193.223 171.408C192.796 171.067 192.22 170.896 191.495 170.896C190.78 170.896 190.209 171.067 189.783 171.408C189.356 171.749 189.143 172.224 189.143 172.832C189.143 173.451 189.356 173.931 189.783 174.272C190.209 174.613 190.78 174.784 191.495 174.784Z" fill="#5F5F5F"/>
<path d="M184.529 204.824L187.473 203.8H188.753V215H187.281V205.4L184.897 206.104L184.529 204.824ZM192.696 208.168H194.328C195.384 208.168 196.274 208.483 197 209.112C197.736 209.741 198.104 210.6 198.104 211.688C198.104 212.787 197.73 213.645 196.984 214.264C196.226 214.893 195.32 215.208 194.264 215.208C193.389 215.208 192.616 215 191.944 214.584C191.282 214.157 190.824 213.565 190.568 212.808L191.832 212.088C191.981 212.621 192.269 213.032 192.696 213.32C193.122 213.608 193.645 213.752 194.264 213.752C194.978 213.752 195.549 213.571 195.976 213.208C196.413 212.835 196.632 212.328 196.632 211.688C196.632 211.048 196.413 210.541 195.976 210.168C195.549 209.795 194.989 209.608 194.296 209.608H191.128L191.544 203.8H197.672V205.192H192.888L192.696 208.168Z" fill="#5F5F5F"/>
<path d="M190.871 254H183.639V252.784L187.591 248.752C188.647 247.696 189.175 246.789 189.175 246.032C189.175 245.413 188.983 244.928 188.599 244.576C188.225 244.213 187.756 244.032 187.191 244.032C186.135 244.032 185.367 244.533 184.887 245.536L183.639 244.8C183.98 244.085 184.46 243.541 185.079 243.168C185.697 242.784 186.396 242.592 187.174 242.592C188.124 242.592 188.94 242.901 189.623 243.52C190.316 244.149 190.663 244.981 190.663 246.016C190.663 247.147 189.996 248.379 188.663 249.712L185.799 252.56H190.871V254ZM199.308 254H192.076V252.784L196.028 248.752C197.084 247.696 197.612 246.789 197.612 246.032C197.612 245.413 197.42 244.928 197.036 244.576C196.663 244.213 196.193 244.032 195.628 244.032C194.572 244.032 193.804 244.533 193.324 245.536L192.076 244.8C192.417 244.085 192.897 243.541 193.516 243.168C194.135 242.784 194.833 242.592 195.612 242.592C196.561 242.592 197.377 242.901 198.06 243.52C198.753 244.149 199.1 244.981 199.1 246.016C199.1 247.147 198.433 248.379 197.1 249.712L194.236 252.56H199.308V254Z" fill="#5F5F5F"/>
<path d="M190.808 293H183.576V291.784L187.528 287.752C188.584 286.696 189.112 285.789 189.112 285.032C189.112 284.413 188.92 283.928 188.536 283.576C188.163 283.213 187.693 283.032 187.128 283.032C186.072 283.032 185.304 283.533 184.824 284.536L183.576 283.8C183.917 283.085 184.397 282.541 185.016 282.168C185.635 281.784 186.333 281.592 187.112 281.592C188.061 281.592 188.877 281.901 189.56 282.52C190.253 283.149 190.6 283.981 190.6 285.016C190.6 286.147 189.933 287.379 188.6 288.712L185.736 291.56H190.808V293ZM199.551 285.352C199.551 286.227 199.321 286.979 198.863 287.608H198.879L195.263 293H193.583L196.239 289.08C195.919 289.101 195.737 289.112 195.695 289.112C194.564 289.112 193.636 288.765 192.911 288.072C192.196 287.368 191.839 286.461 191.839 285.352C191.839 284.232 192.196 283.331 192.911 282.648C193.625 281.944 194.553 281.592 195.695 281.592C196.815 281.592 197.737 281.944 198.463 282.648C199.188 283.341 199.551 284.243 199.551 285.352ZM195.695 283.016C194.991 283.016 194.415 283.229 193.967 283.656C193.529 284.083 193.311 284.648 193.311 285.352C193.311 286.056 193.529 286.627 193.967 287.064C194.415 287.491 194.991 287.704 195.695 287.704C196.399 287.704 196.969 287.491 197.407 287.064C197.855 286.627 198.079 286.056 198.079 285.352C198.079 284.648 197.86 284.083 197.423 283.656C196.985 283.229 196.409 283.016 195.695 283.016Z" fill="#5F5F5F"/>
<path d="M241.089 137H233.857V135.784L237.809 131.752C238.865 130.696 239.393 129.789 239.393 129.032C239.393 128.413 239.201 127.928 238.817 127.576C238.444 127.213 237.975 127.032 237.409 127.032C236.353 127.032 235.585 127.533 235.105 128.536L233.857 127.8C234.199 127.085 234.679 126.541 235.297 126.168C235.916 125.784 236.615 125.592 237.393 125.592C238.343 125.592 239.159 125.901 239.841 126.52C240.535 127.149 240.881 127.981 240.881 129.016C240.881 130.147 240.215 131.379 238.881 132.712L236.017 135.56H241.089V137Z" fill="#5F5F5F"/>
<path d="M241.355 168.352C241.355 169.227 241.126 169.979 240.667 170.608H240.683L237.067 176H235.387L238.043 172.08C237.723 172.101 237.542 172.112 237.499 172.112C236.369 172.112 235.441 171.765 234.715 171.072C234.001 170.368 233.643 169.461 233.643 168.352C233.643 167.232 234.001 166.331 234.715 165.648C235.43 164.944 236.358 164.592 237.499 164.592C238.619 164.592 239.542 164.944 240.267 165.648C240.993 166.341 241.355 167.243 241.355 168.352ZM237.499 166.016C236.795 166.016 236.219 166.229 235.771 166.656C235.334 167.083 235.115 167.648 235.115 168.352C235.115 169.056 235.334 169.627 235.771 170.064C236.219 170.491 236.795 170.704 237.499 170.704C238.203 170.704 238.774 170.491 239.211 170.064C239.659 169.627 239.883 169.056 239.883 168.352C239.883 167.648 239.665 167.083 239.227 166.656C238.79 166.229 238.214 166.016 237.499 166.016Z" fill="#5F5F5F"/>
<path d="M230.568 204.824L233.512 203.8H234.792V215H233.32V205.4L230.936 206.104L230.568 204.824ZM240.351 207.672C241.471 207.672 242.394 208.024 243.119 208.728C243.844 209.421 244.207 210.323 244.207 211.432C244.207 212.541 243.844 213.448 243.119 214.152C242.394 214.856 241.471 215.208 240.351 215.208C239.21 215.208 238.282 214.856 237.567 214.152C236.852 213.448 236.495 212.541 236.495 211.432C236.495 210.557 236.719 209.811 237.167 209.192L240.767 203.8H242.463L239.823 207.704C240.143 207.683 240.319 207.672 240.351 207.672ZM240.351 209.096C239.636 209.096 239.06 209.309 238.623 209.736C238.186 210.163 237.967 210.728 237.967 211.432C237.967 212.136 238.186 212.707 238.623 213.144C239.071 213.571 239.647 213.784 240.351 213.784C241.055 213.784 241.626 213.571 242.063 213.144C242.511 212.707 242.735 212.136 242.735 211.432C242.735 210.728 242.511 210.163 242.063 209.736C241.626 209.309 241.055 209.096 240.351 209.096Z" fill="#5F5F5F"/>
<path d="M236.886 254H229.654V252.784L233.606 248.752C234.662 247.696 235.19 246.789 235.19 246.032C235.19 245.413 234.998 244.928 234.614 244.576C234.241 244.213 233.771 244.032 233.206 244.032C232.15 244.032 231.382 244.533 230.902 245.536L229.654 244.8C229.995 244.085 230.475 243.541 231.094 243.168C231.713 242.784 232.411 242.592 233.19 242.592C234.139 242.592 234.955 242.901 235.638 243.52C236.331 244.149 236.678 244.981 236.678 246.016C236.678 247.147 236.011 248.379 234.678 249.712L231.814 252.56H236.886V254ZM244.847 244.112L242.415 247.392C243.29 247.552 243.994 247.925 244.527 248.512C245.061 249.099 245.327 249.824 245.327 250.688C245.327 251.787 244.954 252.645 244.207 253.264C243.45 253.893 242.543 254.208 241.487 254.208C240.613 254.208 239.85 254.011 239.199 253.616C238.549 253.221 238.085 252.661 237.807 251.936L239.055 251.2C239.386 252.235 240.197 252.752 241.487 252.752C242.191 252.752 242.757 252.571 243.183 252.208C243.621 251.835 243.839 251.328 243.839 250.688C243.839 250.048 243.621 249.541 243.183 249.168C242.757 248.795 242.191 248.608 241.487 248.608H241.103L240.511 247.696L243.103 244.192H238.127V242.8H244.847V244.112Z" fill="#5F5F5F"/>
<path d="M235.668 283.112L233.236 286.392C234.11 286.552 234.814 286.925 235.348 287.512C235.881 288.099 236.148 288.824 236.148 289.688C236.148 290.787 235.774 291.645 235.028 292.264C234.27 292.893 233.364 293.208 232.308 293.208C231.433 293.208 230.67 293.011 230.02 292.616C229.369 292.221 228.905 291.661 228.628 290.936L229.876 290.2C230.206 291.235 231.017 291.752 232.308 291.752C233.012 291.752 233.577 291.571 234.004 291.208C234.441 290.835 234.66 290.328 234.66 289.688C234.66 289.048 234.441 288.541 234.004 288.168C233.577 287.795 233.012 287.608 232.308 287.608H231.924L231.332 286.696L233.924 283.192H228.948V281.8H235.668V283.112ZM244.966 291.624C244.22 292.68 243.158 293.208 241.782 293.208C240.406 293.208 239.345 292.68 238.598 291.624C237.841 290.557 237.462 289.149 237.462 287.4C237.462 285.651 237.841 284.243 238.598 283.176C239.345 282.12 240.406 281.592 241.782 281.592C243.158 281.592 244.22 282.12 244.966 283.176C245.724 284.243 246.102 285.651 246.102 287.4C246.102 289.149 245.724 290.557 244.966 291.624ZM238.95 287.4C238.95 288.787 239.196 289.859 239.686 290.616C240.177 291.373 240.876 291.752 241.782 291.752C242.689 291.752 243.388 291.373 243.878 290.616C244.38 289.859 244.63 288.787 244.63 287.4C244.63 286.013 244.38 284.941 243.878 284.184C243.388 283.416 242.689 283.032 241.782 283.032C240.876 283.032 240.177 283.411 239.686 284.168C239.196 284.925 238.95 286.003 238.95 287.4Z" fill="#5F5F5F"/>
<path d="M287.207 127.112L284.775 130.392C285.649 130.552 286.353 130.925 286.887 131.512C287.42 132.099 287.687 132.824 287.687 133.688C287.687 134.787 287.313 135.645 286.567 136.264C285.809 136.893 284.903 137.208 283.847 137.208C282.972 137.208 282.209 137.011 281.559 136.616C280.908 136.221 280.444 135.661 280.167 134.936L281.415 134.2C281.745 135.235 282.556 135.752 283.847 135.752C284.551 135.752 285.116 135.571 285.543 135.208C285.98 134.835 286.199 134.328 286.199 133.688C286.199 133.048 285.98 132.541 285.543 132.168C285.116 131.795 284.551 131.608 283.847 131.608H283.463L282.871 130.696L285.463 127.192H280.487V125.8H287.207V127.112Z" fill="#5F5F5F"/>
<path d="M276.333 165.824L279.277 164.8H280.557V176H279.085V166.4L276.701 167.104L276.333 165.824ZM290.036 174.624C289.29 175.68 288.229 176.208 286.853 176.208C285.477 176.208 284.415 175.68 283.669 174.624C282.911 173.557 282.533 172.149 282.533 170.4C282.533 168.651 282.911 167.243 283.669 166.176C284.415 165.12 285.477 164.592 286.853 164.592C288.229 164.592 289.29 165.12 290.036 166.176C290.794 167.243 291.173 168.651 291.173 170.4C291.173 172.149 290.794 173.557 290.036 174.624ZM284.021 170.4C284.021 171.787 284.266 172.859 284.757 173.616C285.247 174.373 285.946 174.752 286.853 174.752C287.759 174.752 288.458 174.373 288.949 173.616C289.45 172.859 289.701 171.787 289.701 170.4C289.701 169.013 289.45 167.941 288.949 167.184C288.458 166.416 287.759 166.032 286.853 166.032C285.946 166.032 285.247 166.411 284.757 167.168C284.266 167.925 284.021 169.003 284.021 170.4Z" fill="#5F5F5F"/>
<path d="M277.451 204.824L280.395 203.8H281.675V215H280.203V205.4L277.819 206.104L277.451 204.824ZM283.218 205.208V203.8H290.21V205.128L286.13 215H284.578L288.626 205.208H283.218Z" fill="#5F5F5F"/>
<path d="M283.089 254H275.857V252.784L279.809 248.752C280.865 247.696 281.393 246.789 281.393 246.032C281.393 245.413 281.201 244.928 280.817 244.576C280.444 244.213 279.975 244.032 279.409 244.032C278.353 244.032 277.585 244.533 277.105 245.536L275.857 244.8C276.199 244.085 276.679 243.541 277.297 243.168C277.916 242.784 278.615 242.592 279.393 242.592C280.343 242.592 281.159 242.901 281.841 243.52C282.535 244.149 282.881 244.981 282.881 246.016C282.881 247.147 282.215 248.379 280.881 249.712L278.017 252.56H283.089V254ZM291.022 250.48H292.382V251.872H291.022V254H289.534V251.872H283.822V250.48L287.838 242.8H289.438L285.422 250.48H289.534V247.312H291.022V250.48Z" fill="#5F5F5F"/>
<path d="M284.558 283.112L282.126 286.392C283.001 286.552 283.705 286.925 284.238 287.512C284.772 288.099 285.038 288.824 285.038 289.688C285.038 290.787 284.665 291.645 283.918 292.264C283.161 292.893 282.254 293.208 281.198 293.208C280.324 293.208 279.561 293.011 278.91 292.616C278.26 292.221 277.796 291.661 277.518 290.936L278.766 290.2C279.097 291.235 279.908 291.752 281.198 291.752C281.902 291.752 282.468 291.571 282.894 291.208C283.332 290.835 283.55 290.328 283.55 289.688C283.55 289.048 283.332 288.541 282.894 288.168C282.468 287.795 281.902 287.608 281.198 287.608H280.814L280.222 286.696L282.814 283.192H277.838V281.8H284.558V283.112ZM285.451 282.824L288.395 281.8H289.675V293H288.203V283.4L285.819 284.104L285.451 282.824Z" fill="#5F5F5F"/>
<path d="M332.443 133.48H333.803V134.872H332.443V137H330.955V134.872H325.243V133.48L329.259 125.8H330.859L326.843 133.48H330.955V130.312H332.443V133.48Z" fill="#5F5F5F"/>
<path d="M324.021 165.824L326.965 164.8H328.245V176H326.773V166.4L324.389 167.104L324.021 165.824ZM329.724 165.824L332.668 164.8H333.948V176H332.476V166.4L330.092 167.104L329.724 165.824Z" fill="#5F5F5F"/>
<path d="M322.435 204.824L325.379 203.8H326.659V215H325.187V205.4L322.803 206.104L322.435 204.824ZM334.442 209.208C335.605 209.805 336.186 210.712 336.186 211.928C336.186 212.952 335.829 213.757 335.114 214.344C334.389 214.92 333.466 215.208 332.346 215.208C331.226 215.208 330.309 214.92 329.594 214.344C328.879 213.757 328.522 212.952 328.522 211.928C328.522 210.712 329.103 209.805 330.266 209.208C329.349 208.632 328.89 207.816 328.89 206.76C328.89 205.747 329.226 204.968 329.898 204.424C330.581 203.869 331.397 203.592 332.346 203.592C333.317 203.592 334.133 203.869 334.794 204.424C335.477 204.968 335.818 205.747 335.818 206.76C335.818 207.816 335.359 208.632 334.442 209.208ZM332.346 205.016C331.759 205.016 331.279 205.171 330.906 205.48C330.543 205.789 330.362 206.227 330.362 206.792C330.362 207.347 330.549 207.784 330.922 208.104C331.295 208.424 331.77 208.584 332.346 208.584C332.922 208.584 333.397 208.424 333.77 208.104C334.143 207.784 334.33 207.347 334.33 206.792C334.33 206.227 334.149 205.789 333.786 205.48C333.423 205.171 332.943 205.016 332.346 205.016ZM332.346 213.784C333.071 213.784 333.647 213.613 334.074 213.272C334.501 212.931 334.714 212.451 334.714 211.832C334.714 211.224 334.501 210.749 334.074 210.408C333.647 210.067 333.071 209.896 332.346 209.896C331.631 209.896 331.061 210.067 330.634 210.408C330.207 210.749 329.994 211.224 329.994 211.832C329.994 212.451 330.207 212.931 330.634 213.272C331.061 213.613 331.631 213.784 332.346 213.784Z" fill="#5F5F5F"/>
<path d="M328.808 254H321.576V252.784L325.528 248.752C326.584 247.696 327.112 246.789 327.112 246.032C327.112 245.413 326.92 244.928 326.536 244.576C326.163 244.213 325.693 244.032 325.128 244.032C324.072 244.032 323.304 244.533 322.824 245.536L321.576 244.8C321.917 244.085 322.397 243.541 323.016 243.168C323.635 242.784 324.333 242.592 325.112 242.592C326.061 242.592 326.877 242.901 327.56 243.52C328.253 244.149 328.6 244.981 328.6 246.016C328.6 247.147 327.933 248.379 326.6 249.712L323.736 252.56H328.808V254ZM332.001 247.168H333.633C334.689 247.168 335.579 247.483 336.305 248.112C337.041 248.741 337.409 249.6 337.409 250.688C337.409 251.787 337.035 252.645 336.289 253.264C335.531 253.893 334.625 254.208 333.569 254.208C332.694 254.208 331.921 254 331.249 253.584C330.587 253.157 330.129 252.565 329.873 251.808L331.137 251.088C331.286 251.621 331.574 252.032 332.001 252.32C332.427 252.608 332.95 252.752 333.569 252.752C334.283 252.752 334.854 252.571 335.281 252.208C335.718 251.835 335.937 251.328 335.937 250.688C335.937 250.048 335.718 249.541 335.281 249.168C334.854 248.795 334.294 248.608 333.601 248.608H330.433L330.849 242.8H336.977V244.192H332.193L332.001 247.168Z" fill="#5F5F5F"/>
<path d="M327.021 282.824L329.981 281.8H330.941V293H329.821V283.032L327.309 283.784L327.021 282.824Z" fill="#C1B2C8"/>
<circle cx="192" cy="211" r="16" fill="#3AB292"/>
<circle cx="146" cy="171" r="15" stroke="#3AB292" stroke-width="2"/>
<circle cx="237" cy="211" r="16" fill="#3AB292"/>
<circle cx="282" cy="211" r="16" fill="#3AB292"/>
<path d="M183.775 206.776L186.997 204.364H188.491V217H186.421V207.316L184.873 208.486L183.775 206.776ZM191.833 211.096L192.661 204.4H198.619V206.47H194.479L194.119 208.972C194.383 208.924 194.623 208.9 194.839 208.9C195.979 208.9 196.921 209.266 197.665 209.998C198.421 210.73 198.799 211.702 198.799 212.914C198.799 214.234 198.385 215.278 197.557 216.046C196.729 216.814 195.697 217.198 194.461 217.198C193.753 217.198 193.051 217.042 192.355 216.73C191.671 216.406 191.143 215.962 190.771 215.398L191.959 213.832C192.223 214.216 192.595 214.528 193.075 214.768C193.555 215.008 194.035 215.128 194.515 215.128C195.115 215.128 195.607 214.93 195.991 214.534C196.387 214.138 196.585 213.628 196.585 213.004C196.585 212.356 196.345 211.822 195.865 211.402C195.385 210.982 194.731 210.772 193.903 210.772C193.027 210.772 192.337 210.88 191.833 211.096Z" fill="white"/>
<path d="M228.871 206.776L232.093 204.364H233.587V217H231.517V207.316L229.969 208.486L228.871 206.776ZM236.281 212.536C236.281 211.432 236.473 210.388 236.857 209.404C237.241 208.408 237.739 207.568 238.351 206.884C238.963 206.188 239.623 205.612 240.331 205.156C241.051 204.7 241.765 204.382 242.473 204.202L243.319 205.768C242.239 206.092 241.279 206.65 240.439 207.442C239.611 208.234 239.041 209.212 238.729 210.376C239.293 209.596 240.157 209.206 241.321 209.206C242.305 209.206 243.139 209.566 243.823 210.286C244.507 211.006 244.849 211.93 244.849 213.058C244.849 214.318 244.441 215.326 243.625 216.082C242.809 216.826 241.861 217.198 240.781 217.198C239.413 217.198 238.321 216.748 237.505 215.848C236.689 214.948 236.281 213.844 236.281 212.536ZM238.477 212.554C238.477 213.298 238.681 213.916 239.089 214.408C239.497 214.888 240.067 215.128 240.799 215.128C241.351 215.128 241.795 214.942 242.131 214.57C242.479 214.186 242.653 213.73 242.653 213.202C242.653 212.602 242.473 212.11 242.113 211.726C241.765 211.33 241.267 211.132 240.619 211.132C240.103 211.132 239.665 211.27 239.305 211.546C238.945 211.822 238.669 212.158 238.477 212.554Z" fill="white"/>
<path d="M274.424 206.776L277.646 204.364H279.14V217H277.07V207.316L275.522 208.486L274.424 206.776ZM281.474 206.47V204.4H289.394V205.786L284.93 217H282.662L286.91 206.47H281.474Z" fill="white"/>
</svg>
