<svg width="89" height="89" viewBox="0 0 89 89" fill="none" xmlns="http://www.w3.org/2000/svg">
<mask id="mask0" style="mask-type:alpha" maskUnits="userSpaceOnUse" x="0" y="0" width="89" height="89">
<circle cx="44.5" cy="44.5" r="44.5" fill="#3AB292"/>
</mask>
<g mask="url(#mask0)">
<rect x="-46.9727" y="-9.99902" width="160.64" height="108.338" fill="#F4F3F8"/>
<circle cx="44.5" cy="44.5" r="43.5" stroke="#3AB292" stroke-width="2"/>
</g>
<g clip-path="url(#clip0)">
<path d="M54 52.5V49H56V52.5V52.75H56.25H59.75V54.75H56.25H56V55V58.5H54V55V54.75H53.75H50.25V52.75H53.75H54V52.5ZM38.5338 54H47.25V56H33.7403C33.4775 55.9997 33.2257 55.8952 33.04 55.7093C32.8543 55.5235 32.75 55.2715 32.75 55.0088V34.9922C32.752 34.7298 32.8571 34.4788 33.0425 34.2932C33.2279 34.1076 33.4788 34.0023 33.7411 34H56.26C56.8066 34 57.25 34.444 57.25 34.9913V46H55.25V36.25V36H55H35H34.75V36.25V53.7488V54.3523L35.1768 53.9255L47.5 41.6035L51 45.1036V47.9327L47.6768 44.6095L47.5 44.4327L47.3232 44.6094L38.357 53.5732L37.9301 54H38.5338ZM40 39C40.5967 39 41.169 39.2371 41.591 39.659C42.0129 40.081 42.25 40.6533 42.25 41.25C42.25 41.8467 42.0129 42.419 41.591 42.841C41.169 43.2629 40.5967 43.5 40 43.5C39.4033 43.5 38.831 43.2629 38.409 42.841C37.9871 42.419 37.75 41.8467 37.75 41.25C37.75 40.6533 37.9871 40.081 38.409 39.659C38.831 39.2371 39.4033 39 40 39Z" fill="#898D93" stroke="#F4F3F8" stroke-width="0.5"/>
</g>
<defs>
<clipPath id="clip0">
<rect width="30" height="30" fill="white" transform="translate(30 30)"/>
</clipPath>
</defs>
</svg>
