<svg width="25" height="26" viewBox="0 0 25 26" fill="none" xmlns="http://www.w3.org/2000/svg">
<path d="M4.59375 11.2786H6.98958C9.38542 11.2786 10.5833 10.0807 10.5833 7.6849V5.28906C10.5833 2.89323 9.38542 1.69531 6.98958 1.69531H4.59375C2.19792 1.69531 1 2.89323 1 5.28906V7.6849C1 10.0807 2.19792 11.2786 4.59375 11.2786Z" stroke="#BEBBC3" stroke-width="1.9" stroke-miterlimit="10" stroke-linecap="round" stroke-linejoin="round"/>
<path d="M18.01 11.2786H20.4058C22.8017 11.2786 23.9996 10.0807 23.9996 7.6849V5.28906C23.9996 2.89323 22.8017 1.69531 20.4058 1.69531H18.01C15.6142 1.69531 14.4163 2.89323 14.4163 5.28906V7.6849C14.4163 10.0807 15.6142 11.2786 18.01 11.2786Z" stroke="#BEBBC3" stroke-width="1.9" stroke-miterlimit="10" stroke-linecap="round" stroke-linejoin="round"/>
<path d="M18.01 24.6947H20.4058C22.8017 24.6947 23.9996 23.4967 23.9996 21.1009V18.7051C23.9996 16.3092 22.8017 15.1113 20.4058 15.1113H18.01C15.6142 15.1113 14.4163 16.3092 14.4163 18.7051V21.1009C14.4163 23.4967 15.6142 24.6947 18.01 24.6947Z" stroke="#BEBBC3" stroke-width="1.9" stroke-miterlimit="10" stroke-linecap="round" stroke-linejoin="round"/>
<path d="M4.59375 24.6947H6.98958C9.38542 24.6947 10.5833 23.4967 10.5833 21.1009V18.7051C10.5833 16.3092 9.38542 15.1113 6.98958 15.1113H4.59375C2.19792 15.1113 1 16.3092 1 18.7051V21.1009C1 23.4967 2.19792 24.6947 4.59375 24.6947Z" stroke="#BEBBC3" stroke-width="1.9" stroke-miterlimit="10" stroke-linecap="round" stroke-linejoin="round"/>
</svg>
