<svg width="38" height="38" viewBox="0 0 38 38" fill="none" xmlns="http://www.w3.org/2000/svg">
<path d="M34.8337 26.5049V7.39402C34.8337 5.49402 33.282 4.08485 31.3978 4.24318H31.3028C27.9778 4.52818 22.927 6.22235 20.1087 7.99569L19.8395 8.16985C19.3803 8.45485 18.6203 8.45485 18.1612 8.16985L17.7653 7.93235C14.947 6.17485 9.91199 4.49652 6.58699 4.22735C4.70283 4.06902 3.16699 5.49402 3.16699 7.37818V26.5049C3.16699 28.0249 4.40199 29.4499 5.92199 29.6399L6.38116 29.7032C9.81699 30.1624 15.1212 31.904 18.1612 33.5665L18.2245 33.5982C18.652 33.8357 19.3328 33.8357 19.7445 33.5982C22.7845 31.9199 28.1045 30.1624 31.5562 29.7032L32.0787 29.6399C33.5987 29.4499 34.8337 28.0249 34.8337 26.5049Z" stroke="#EB3A53" stroke-width="2.3" stroke-linecap="round" stroke-linejoin="round"/>
<path d="M19 8.69238V32.4424" stroke="#EB3A53" stroke-width="2.3" stroke-linecap="round" stroke-linejoin="round"/>
<path d="M12.2705 13.4424H8.70801" stroke="#EB3A53" stroke-width="2.3" stroke-linecap="round" stroke-linejoin="round"/>
<path d="M13.458 18.1924H8.70801" stroke="#EB3A53" stroke-width="2.3" stroke-linecap="round" stroke-linejoin="round"/>
</svg>
