<svg width="514" height="482" viewBox="0 0 514 482" fill="none" xmlns="http://www.w3.org/2000/svg">
<path d="M438.148 295.073C337.447 252.309 174.735 252.309 74.6894 295.073C-25.3564 337.836 -24.8161 407.164 75.8388 449.927C176.494 492.691 339.252 492.691 439.298 449.927C539.344 407.164 538.838 337.836 438.148 295.073Z" fill="#BF2343"/>
<path d="M433.822 318.207C434.117 350.836 434.467 382.253 434.467 382.253C434.485 382.463 434.559 382.664 434.682 382.835C434.805 383.006 434.972 383.141 435.165 383.224C435.687 383.488 436.263 383.626 436.847 383.626C437.431 383.626 438.007 383.488 438.529 383.224C438.719 383.138 438.884 383.003 439.004 382.832C439.125 382.661 439.199 382.461 439.217 382.253C439.217 382.253 439.566 350.847 439.861 318.218C437.874 318.294 435.853 318.294 433.822 318.207Z" fill="#E0E0E0"/>
<path d="M394.193 358.72C394.213 358.93 394.287 359.13 394.41 359.301C394.533 359.472 394.7 359.607 394.892 359.692C395.414 359.956 395.99 360.093 396.574 360.093C397.158 360.093 397.734 359.956 398.256 359.692C398.446 359.605 398.609 359.469 398.73 359.298C398.851 359.128 398.924 358.928 398.944 358.72C398.944 358.72 400.461 336.28 402.624 309.58C400.586 308.318 398.68 306.855 396.934 305.212C395.187 333.801 394.193 358.72 394.193 358.72Z" fill="#E0E0E0"/>
<path d="M474.784 358.72C474.803 358.928 474.877 359.128 474.997 359.298C475.118 359.469 475.282 359.605 475.472 359.692C475.993 359.956 476.569 360.093 477.153 360.093C477.737 360.093 478.314 359.956 478.835 359.692C479.026 359.604 479.19 359.469 479.313 359.298C479.435 359.128 479.511 358.929 479.534 358.72C479.534 358.72 478.595 333.899 476.793 305.409C475.044 307.032 473.139 308.477 471.104 309.722C473.277 336.345 474.784 358.72 474.784 358.72Z" fill="#E0E0E0"/>
<path d="M433.822 318.207C434.117 350.836 434.467 382.253 434.467 382.253C434.485 382.463 434.559 382.664 434.682 382.835C434.805 383.006 434.972 383.141 435.165 383.224C435.687 383.488 436.263 383.626 436.847 383.626C437.431 383.626 438.007 383.488 438.529 383.224C438.719 383.138 438.884 383.003 439.004 382.832C439.125 382.661 439.199 382.461 439.217 382.253C439.217 382.253 439.566 350.847 439.861 318.218C437.874 318.294 435.853 318.294 433.822 318.207Z" fill="#D75B73"/>
<path d="M394.193 358.72C394.213 358.93 394.287 359.13 394.41 359.301C394.533 359.472 394.7 359.607 394.892 359.692C395.414 359.956 395.99 360.093 396.574 360.093C397.158 360.093 397.734 359.956 398.256 359.692C398.446 359.605 398.609 359.469 398.73 359.298C398.851 359.128 398.924 358.928 398.944 358.72C398.944 358.72 400.461 336.28 402.624 309.58C400.586 308.318 398.68 306.855 396.934 305.212C395.187 333.801 394.193 358.72 394.193 358.72Z" fill="#D75B73"/>
<path d="M474.784 358.72C474.803 358.928 474.877 359.128 474.997 359.298C475.118 359.469 475.282 359.605 475.472 359.692C475.993 359.956 476.569 360.093 477.153 360.093C477.737 360.093 478.314 359.956 478.835 359.692C479.026 359.604 479.19 359.469 479.313 359.298C479.435 359.128 479.511 358.929 479.534 358.72C479.534 358.72 478.595 333.899 476.793 305.409C475.044 307.032 473.139 308.477 471.104 309.722C473.277 336.345 474.784 358.72 474.784 358.72Z" fill="#D75B73"/>
<path d="M483.715 285.862C483.715 292.807 479.227 299.752 470.109 305.048C451.862 315.652 422.192 315.652 403.836 305.048C394.652 299.752 390.044 292.807 390 285.862V291.136C390 296.039 392.348 300.964 396.934 305.267C398.68 306.909 400.586 308.373 402.624 309.635L403.836 310.366C412.2 315.193 422.924 317.814 433.844 318.24C435.853 318.327 437.873 318.327 439.883 318.24C450.901 317.857 461.723 315.226 470.109 310.355L471.103 309.744C473.138 308.499 475.044 307.054 476.792 305.43C481.433 301.062 483.748 296.116 483.715 291.158V285.862Z" fill="#D2536B"/>
<path d="M403.836 305.048C422.192 315.652 451.884 315.652 470.109 305.048C479.228 299.752 483.759 292.807 483.716 285.862C483.672 278.917 479.064 271.972 469.891 266.665C451.523 256.072 421.843 256.072 403.617 266.665C394.499 271.972 389.967 278.917 390 285.862C390.033 292.807 394.652 299.752 403.836 305.048Z" fill="#E76981"/>
<g opacity="0.3">
<path opacity="0.4" d="M433.822 318.207C433.822 320.391 433.822 322.575 433.877 324.759C435.853 324.835 437.83 324.835 439.806 324.759C439.806 322.575 439.806 320.391 439.861 318.207C437.874 318.294 435.853 318.294 433.822 318.207Z" fill="#171E2F"/>
<path opacity="0.4" d="M396.934 305.267C396.814 307.352 396.683 309.416 396.562 311.447C398.266 313.088 400.132 314.552 402.132 315.815C402.285 313.773 402.459 311.698 402.623 309.602C400.587 308.35 398.681 306.898 396.934 305.267Z" fill="#171E2F"/>
<path opacity="0.4" d="M476.793 305.409C475.044 307.032 473.139 308.477 471.104 309.722C471.278 311.819 471.446 313.89 471.606 315.936C473.602 314.673 475.465 313.209 477.164 311.568C477.044 309.558 476.924 307.494 476.793 305.409Z" fill="#171E2F"/>
</g>
<path d="M452.561 256.913L436.771 257.36L420.98 256.902C420.303 267.56 422.378 278.436 425.25 283.743C425.93 285.105 427.023 286.218 428.373 286.921C430.98 288.246 433.863 288.937 436.787 288.937C439.711 288.937 442.594 288.246 445.201 286.921C446.577 286.206 447.676 285.054 448.324 283.645C451.185 278.327 453.238 267.516 452.561 256.913Z" fill="#FBB5C1"/>
<path d="M447.897 250.437C454.089 254.008 454.121 259.806 447.973 263.377C441.825 266.948 431.823 266.948 425.642 263.377C419.461 259.806 419.418 254.019 425.566 250.437C431.714 246.855 441.716 246.866 447.897 250.437Z" fill="#CD7888"/>
<g opacity="0.15">
<path d="M445.451 251.901C450.278 254.685 450.311 259.206 445.506 261.991C440.701 264.775 432.915 264.775 428.088 261.991C423.262 259.206 423.229 254.685 428.034 251.901C432.839 249.116 440.625 249.072 445.451 251.901Z" fill="#171E2F"/>
</g>
<path d="M435.449 255.177C436.718 256.235 438.22 256.977 439.832 257.341C441.444 257.706 443.119 257.682 444.72 257.273C446.261 256.806 447.66 255.962 448.793 254.818C449.926 253.675 450.755 252.266 451.207 250.721C449.337 249.834 447.625 248.646 446.14 247.205C448.508 246.619 450.993 246.706 453.314 247.456C453.958 246.448 454.344 245.298 454.439 244.106C454.534 242.914 454.336 241.717 453.86 240.62C451.165 239.422 448.135 239.209 445.299 240.02C446.476 238.996 447.852 238.225 449.34 237.756C450.827 237.286 452.396 237.127 453.948 237.29C454.171 232.765 453.465 228.242 451.873 224C445.987 224.306 440.276 226.839 438.354 228.663C438.264 230.769 438.484 232.878 439.009 234.92C438.248 234.533 437.598 233.959 437.119 233.253C436.639 232.546 436.347 231.73 436.268 230.88C432.588 231.797 431.005 233.631 430.437 235.04C430.961 237.659 432.162 240.095 433.92 242.105C430.459 241.013 429.061 237.202 429.061 237.202C425.654 245.261 426.309 254.39 435.449 255.177Z" fill="#F995A6"/>
<path opacity="0.2" d="M435.449 255.177C436.718 256.235 438.22 256.977 439.832 257.341C441.444 257.706 443.119 257.682 444.72 257.273C446.261 256.806 447.66 255.962 448.793 254.818C449.926 253.675 450.755 252.266 451.207 250.721C449.337 249.834 447.625 248.646 446.14 247.205C448.508 246.619 450.993 246.706 453.314 247.456C453.958 246.448 454.344 245.298 454.439 244.106C454.534 242.914 454.336 241.717 453.86 240.62C451.165 239.422 448.135 239.209 445.299 240.02C446.476 238.996 447.852 238.225 449.34 237.756C450.827 237.286 452.396 237.127 453.948 237.29C454.171 232.765 453.465 228.242 451.873 224C445.987 224.306 440.276 226.839 438.354 228.663C438.264 230.769 438.484 232.878 439.009 234.92C438.248 234.533 437.598 233.959 437.119 233.253C436.639 232.546 436.347 231.73 436.268 230.88C432.588 231.797 431.005 233.631 430.437 235.04C430.961 237.659 432.162 240.095 433.92 242.105C430.459 241.013 429.061 237.202 429.061 237.202C425.654 245.261 426.309 254.39 435.449 255.177Z" fill="#171E2F"/>
<path opacity="0.3" d="M435.449 255.177C436.718 256.235 438.22 256.977 439.832 257.341C441.444 257.706 443.119 257.682 444.72 257.273C446.261 256.806 447.66 255.962 448.793 254.818C449.926 253.675 450.755 252.266 451.207 250.721C449.337 249.834 447.625 248.646 446.14 247.205C448.508 246.619 450.993 246.706 453.314 247.456C453.958 246.448 454.344 245.298 454.439 244.106C454.534 242.914 454.336 241.717 453.86 240.62C451.165 239.422 448.135 239.209 445.299 240.02C446.476 238.996 447.852 238.225 449.34 237.756C450.827 237.286 452.396 237.127 453.948 237.29C454.171 232.765 453.465 228.242 451.873 224C445.987 224.306 440.276 226.839 438.354 228.663C438.264 230.769 438.484 232.878 439.009 234.92C438.248 234.533 437.598 233.959 437.119 233.253C436.639 232.546 436.347 231.73 436.268 230.88C432.588 231.797 431.005 233.631 430.437 235.04C430.961 237.659 432.162 240.095 433.92 242.105C430.459 241.013 429.061 237.202 429.061 237.202C425.654 245.261 426.309 254.39 435.449 255.177Z" fill="white"/>
<path d="M435.253 256.05C435.208 256.047 435.165 256.036 435.125 256.016C435.085 255.997 435.049 255.969 435.02 255.936C434.99 255.902 434.968 255.863 434.954 255.821C434.939 255.779 434.933 255.734 434.936 255.69C435.504 248.253 439.752 235.979 449.897 225.856C449.928 225.825 449.966 225.8 450.007 225.783C450.048 225.766 450.092 225.757 450.137 225.757C450.182 225.757 450.226 225.766 450.267 225.783C450.308 225.8 450.346 225.825 450.377 225.856C450.409 225.888 450.434 225.925 450.451 225.967C450.468 226.008 450.477 226.052 450.477 226.097C450.477 226.141 450.468 226.185 450.451 226.227C450.434 226.268 450.409 226.305 450.377 226.337C440.374 236.329 436.181 248.417 435.624 255.744C435.613 255.833 435.569 255.914 435.5 255.971C435.431 256.028 435.342 256.056 435.253 256.05Z" fill="#F5F5F5"/>
<path d="M438.026 259.151C436.845 260.117 435.453 260.79 433.963 261.114C432.472 261.438 430.926 261.405 429.451 261.017C427.976 260.63 426.614 259.898 425.475 258.883C424.337 257.868 423.455 256.598 422.902 255.177C424.592 254.406 426.14 253.354 427.477 252.064C425.239 251.528 422.899 251.596 420.696 252.261C420.027 251.411 419.588 250.402 419.421 249.333C419.255 248.264 419.367 247.17 419.746 246.157C422.311 245.1 425.155 244.931 427.827 245.676C425.444 243.822 422.449 242.933 419.44 243.186C418.915 239.198 419.288 235.142 420.532 231.316C426.134 231.655 431.692 233.981 433.636 235.63C433.85 237.48 433.772 239.351 433.407 241.177C434.086 240.855 434.663 240.35 435.074 239.72C435.485 239.09 435.713 238.358 435.733 237.606C439.249 238.458 440.832 240.107 441.455 241.352C441.123 243.657 440.142 245.819 438.627 247.587C439.612 247.235 440.506 246.666 441.242 245.921C441.977 245.176 442.535 244.275 442.874 243.285C446.576 250.426 446.522 258.453 438.026 259.151Z" fill="#F995A6"/>
<path opacity="0.3" d="M438.026 259.151C436.845 260.117 435.453 260.79 433.963 261.114C432.472 261.438 430.926 261.405 429.451 261.017C427.976 260.63 426.614 259.898 425.475 258.883C424.337 257.868 423.455 256.598 422.902 255.177C424.592 254.406 426.14 253.354 427.477 252.064C425.239 251.528 422.899 251.596 420.696 252.261C420.027 251.411 419.588 250.402 419.421 249.333C419.255 248.264 419.367 247.17 419.746 246.157C422.311 245.1 425.155 244.931 427.827 245.676C425.444 243.822 422.449 242.933 419.44 243.186C418.915 239.198 419.288 235.142 420.532 231.316C426.134 231.655 431.692 233.981 433.636 235.63C433.85 237.48 433.772 239.351 433.407 241.177C434.086 240.855 434.663 240.35 435.074 239.72C435.485 239.09 435.713 238.358 435.733 237.606C439.249 238.458 440.832 240.107 441.455 241.352C441.123 243.657 440.142 245.819 438.627 247.587C439.612 247.235 440.506 246.666 441.242 245.921C441.977 245.176 442.535 244.275 442.874 243.285C446.576 250.426 446.522 258.453 438.026 259.151Z" fill="white"/>
<path d="M438.255 259.96C438.175 259.959 438.097 259.93 438.036 259.878C437.974 259.826 437.932 259.755 437.917 259.676C436.956 253.2 432.249 242.455 422.17 233.468C422.139 233.436 422.113 233.399 422.096 233.358C422.079 233.316 422.07 233.272 422.07 233.227C422.07 233.183 422.079 233.139 422.096 233.097C422.113 233.056 422.139 233.019 422.17 232.987C422.202 232.956 422.239 232.93 422.28 232.913C422.322 232.896 422.366 232.887 422.411 232.887C422.455 232.887 422.499 232.896 422.541 232.913C422.582 232.93 422.619 232.956 422.651 232.987C432.839 242.073 437.611 252.993 438.594 259.545C438.607 259.634 438.584 259.725 438.531 259.798C438.478 259.872 438.399 259.922 438.31 259.938L438.255 259.96Z" fill="white"/>
<path d="M60.9683 363.115C61.5685 360.709 60.0041 358.31 58.2544 356.578C56.5048 354.847 54.4232 353.297 53.5101 351.002C52.0222 347.28 53.9634 342.436 51.4476 339.33C49.9661 337.507 47.3289 336.904 46.0135 334.959C45.4061 333.881 45.0012 332.698 44.8195 331.47C43.397 325.28 40.3623 319.591 36.0331 315C35.7786 320.53 36.9962 326.027 39.5579 330.913C40.5795 332.858 41.8375 334.765 42.1823 336.95C42.7442 340.49 40.8158 344.154 41.697 347.63C42.6995 351.611 47.1182 354.25 47.3481 358.348C47.5461 361.811 44.5896 364.872 44.8322 368.328C45.0156 369.801 45.5432 371.209 46.3711 372.433C49.0339 376.868 52.929 379.916 58.8036 379.786L66 380L60.9683 363.115Z" fill="#DF4F6C"/>
<path d="M67.6483 379.94C68.2997 380.036 68.9623 380.016 69.6072 379.882C70.3921 379.764 71.1627 379.561 71.9062 379.277C72.9342 378.906 73.8943 378.362 74.747 377.668C75.2589 377.24 75.6592 376.69 75.9122 376.066C76.1233 375.363 76.2316 374.632 76.2335 373.896C76.2412 373.111 76.2916 372.327 76.3846 371.547C76.5222 370.72 76.8129 369.926 77.2413 369.21C78.0664 367.704 79.4521 366.275 79.8868 364.228C80.3214 362.182 80.0001 360.051 79.66 357.875C79.3199 355.7 78.986 353.331 79.786 351.059C80.5859 348.787 82.085 346.727 82.8472 344.165C83.6093 341.603 83.2314 338.803 83.3763 336.061C83.4201 334.669 83.7282 333.298 84.2833 332.025C84.8502 330.738 85.6375 329.522 86.2548 328.163C87.5146 325.421 87.7035 322.325 88.0311 319.287C88.1906 317.755 88.3523 316.208 88.5161 314.646C88.6091 313.076 88.8645 311.52 89.2782 310.005C89.7471 308.471 90.3045 306.967 90.9474 305.5C91.2866 304.743 91.5585 303.957 91.7599 303.15C91.8776 302.323 91.9491 301.489 91.9741 300.653C92.044 298.976 91.9724 297.296 91.7599 295.632C91.5584 293.959 91.2497 292.304 91.0671 290.624C91.0671 290.528 91.0671 290.425 91.0671 290.335L91.0293 290L90.7395 290.154C89.2464 290.947 87.9529 292.081 86.9603 293.469C85.9837 294.828 85.2011 296.321 84.636 297.904C83.4645 301.033 83.0613 304.296 82.4756 307.418C81.8898 310.54 81.1591 313.61 79.6096 316.21C78.8412 317.498 77.9027 318.688 77.0901 319.957C76.2142 321.188 75.62 322.604 75.3517 324.102C74.9485 327.172 76.6114 329.856 76.2839 332.573C76.1352 333.908 75.7054 335.195 75.0241 336.344C74.3942 337.51 73.6384 338.591 72.9203 339.672C72.192 340.731 71.5595 341.856 71.0307 343.032C70.5382 344.186 70.2502 345.419 70.1804 346.675C70.0166 349.121 70.3693 351.439 70.1804 353.634C69.9943 355.717 69.4124 357.744 68.4671 359.6C67.579 361.403 66.609 363.025 65.8405 364.621C65.4437 365.406 65.0721 366.172 64.776 366.938C64.4896 367.68 64.2785 368.45 64.1461 369.236C63.9513 370.609 63.9513 372.003 64.1461 373.375C64.3412 375.293 65.0543 377.119 66.2058 378.647C66.3807 378.876 66.5723 379.091 66.779 379.29C66.9222 379.44 67.0806 379.574 67.2514 379.689C67.516 379.889 67.6546 379.979 67.6546 379.979C67.1477 379.569 66.6853 379.105 66.2751 378.595C65.1711 377.064 64.4942 375.255 64.3162 373.362C64.152 372.005 64.1754 370.631 64.3855 369.281C64.5176 368.514 64.7287 367.763 65.0154 367.041C65.3322 366.261 65.6896 365.498 66.0862 364.756C66.8798 363.198 67.8372 361.583 68.7065 359.781C69.6815 357.885 70.2788 355.811 70.4638 353.679C70.6402 351.439 70.3 349.115 70.4638 346.727C70.5372 345.512 70.8209 344.32 71.3015 343.206C71.8312 342.053 72.4637 340.952 73.1912 339.917C73.9029 338.835 74.6651 337.754 75.3202 336.57C76.0334 335.373 76.4886 334.034 76.6555 332.643C76.983 329.747 75.3202 327.043 75.7359 324.185C75.9925 322.751 76.556 321.393 77.3862 320.208C78.1924 318.965 79.1309 317.781 79.9057 316.455C81.5055 313.777 82.2677 310.662 82.8409 307.514C83.4141 304.367 83.8361 301.142 84.9825 298.085C85.5334 296.542 86.2969 295.088 87.25 293.765C88.2065 292.432 89.4528 291.344 90.8907 290.586L90.5632 290.399C90.5632 290.489 90.5632 290.592 90.5632 290.695C90.7521 292.388 91.0545 294.049 91.256 295.703C91.4653 297.341 91.5369 298.995 91.4702 300.646C91.4458 301.456 91.3786 302.264 91.2686 303.067C91.0683 303.843 90.805 304.601 90.4813 305.332C89.8346 306.815 89.2731 308.334 88.7995 309.883C88.3832 311.424 88.1236 313.005 88.0248 314.601C87.8673 316.165 87.7035 317.717 87.5461 319.249C87.2248 322.293 87.017 325.344 85.8202 327.99C85.2281 329.309 84.4408 330.526 83.855 331.852C83.2877 333.173 82.9734 334.593 82.9291 336.035C82.7905 338.835 83.1621 341.571 82.4315 344.056C81.7008 346.54 80.1765 348.594 79.4018 350.943C78.627 353.292 78.9419 355.758 79.2947 357.927C79.6474 360.096 80.0001 362.233 79.5529 364.164C79.1057 366.095 77.8145 367.53 76.9704 369.082C76.5287 369.827 76.2335 370.654 76.1012 371.515C76.012 372.303 75.9678 373.096 75.9689 373.89C75.9688 374.602 75.8691 375.311 75.6729 375.995C75.4406 376.592 75.0661 377.121 74.5832 377.533C73.7517 378.222 72.8155 378.768 71.8117 379.149C71.0765 379.44 70.3148 379.655 69.5379 379.792C69.0619 379.883 68.5796 379.935 68.0955 379.947C67.8183 379.934 67.6483 379.94 67.6483 379.94Z" fill="#E0E0E0"/>
<path d="M90 294C89.9663 294.07 89.9419 294.144 89.9273 294.22C89.8877 294.393 89.8349 294.608 89.7688 294.867C89.6235 295.443 89.4583 296.31 89.1809 297.397C88.9034 298.484 88.2297 299.701 87.655 301.215C87.0803 302.729 86.4659 304.451 85.9177 306.392C85.3694 308.333 84.874 310.508 84.3587 312.824C83.8435 315.141 83.3018 317.613 82.0137 319.942C81.4126 321.133 80.7322 322.337 80.1971 323.65C79.668 324.999 79.3151 326.408 79.1468 327.843C78.7866 330.81 78.2684 333.756 77.5945 336.67C76.1346 342.656 74.7474 348.357 73.4791 353.546L70.0309 367.31C69.0797 371.193 68.3002 374.364 67.7519 376.596C67.4943 377.67 67.2961 378.538 67.1508 379.126L67.0055 379.774C66.9982 379.849 66.9982 379.925 67.0055 380C67.0055 380 67.0451 379.929 67.0914 379.78C67.1376 379.631 67.2037 379.398 67.2763 379.133C67.4481 378.525 67.6727 377.683 67.9369 376.622C68.5182 374.403 69.3505 371.251 70.3678 367.369C71.3851 363.486 72.5807 358.794 73.9151 353.631C75.2494 348.467 76.597 342.74 78.0701 336.754C78.7479 333.826 79.2639 330.865 79.6158 327.882C79.7772 326.483 80.1167 325.109 80.6265 323.793C81.1417 322.498 81.8155 321.314 82.4166 320.117C83.7378 317.729 84.2464 315.173 84.7551 312.87C85.2637 310.566 85.7195 308.392 86.2479 306.45C86.7764 304.509 87.3511 302.768 87.9126 301.273C88.4741 299.779 89.1016 298.53 89.3659 297.391C89.6301 296.252 89.7556 295.417 89.8679 294.835C89.9141 294.563 89.9538 294.343 89.9802 294.188C89.9934 294.126 90 294.063 90 294Z" fill="#E0E0E0"/>
<path d="M69.0234 380C73.8013 377.153 75.0997 368.565 73.0872 363.419C71.0748 358.273 67.5497 353.572 66.9785 348.071C66.5435 343.842 67.9068 339.49 66.8941 335.364C65.5243 329.792 60.0258 325.498 60.0582 319.765C60.0582 316.536 61.8954 313.508 61.7331 310.293C61.5319 306.348 58.4872 303.235 56.5397 299.775C53.6768 294.474 53.4236 288.185 52.3784 282.232C51.3333 276.278 49.0417 269.899 43.7119 267C42.9524 272.069 41.6345 275.542 42.0954 282.399C42.2577 284.859 45.1661 289.56 45.588 294.951C45.8347 298.18 46.0165 301.408 46.2372 304.637C46.4579 307.865 46.6657 310.971 47.8147 313.908C48.6976 316.155 50.1063 318.189 50.762 320.514C51.9954 324.879 50.4309 329.631 51.4112 334.073C52.2616 337.824 54.8908 341.04 55.4491 344.849C56.2281 350.189 52.7809 355.768 54.5921 360.862C55.488 363.393 57.5978 365.414 58.2016 368.023C58.6755 370.05 58.2016 372.2 58.617 374.234C59.3052 377.514 65.6217 380.045 69.0039 379.806" fill="#DF4F6C"/>
<path d="M45.0076 272C44.9975 272.095 44.9975 272.19 45.0076 272.285C45.0076 272.498 45.0726 272.776 45.1182 273.119C45.2288 273.851 45.359 274.931 45.6193 276.316C45.8796 277.701 46.628 279.286 47.2202 281.182C47.8123 283.078 48.4631 285.252 49.0097 287.691C49.5564 290.13 50.0445 292.835 50.539 295.747C51.0336 298.659 51.5803 301.823 53.051 304.845C53.7017 306.365 54.4957 307.886 55.0683 309.503C55.6287 311.168 55.9785 312.896 56.1096 314.647C56.3971 318.366 56.8858 322.066 57.5738 325.731C59.0836 333.237 60.5217 340.394 61.8363 346.903C63.1508 353.412 64.4393 359.197 65.5001 364.141C66.5608 369.084 67.4068 372.979 68.0055 375.755C68.3114 377.101 68.5457 378.156 68.7148 378.906C68.7929 379.249 68.858 379.515 68.9101 379.728C68.9268 379.821 68.953 379.912 68.9882 380C69.0039 379.906 69.0039 379.81 68.9882 379.715C68.9491 379.508 68.9036 379.23 68.8385 378.887C68.6888 378.136 68.4806 377.069 68.1877 375.716C67.6216 372.941 66.8146 368.968 65.8255 364.069C64.8363 359.171 63.5999 353.296 62.2593 346.806C60.9187 340.316 59.5326 333.147 58.0423 325.641C57.3526 321.986 56.8595 318.297 56.5651 314.589C56.4313 312.804 56.0705 311.043 55.4913 309.348C54.8992 307.692 54.1247 306.165 53.448 304.663C51.9837 301.68 51.4566 298.568 50.9295 295.669C50.4024 292.77 49.9208 290.059 49.3351 287.613C48.8231 285.41 48.1998 283.233 47.4674 281.091C46.8167 279.189 46.0943 277.636 45.795 276.271C45.4956 274.905 45.3525 273.825 45.2093 273.1L45.0791 272.272C45.0635 272.179 45.0396 272.088 45.0076 272Z" fill="#EBEBEB"/>
<path d="M258.889 15.6146C258.651 14.6902 258.284 13.8042 257.797 12.9829C256.705 11.3449 254.882 10.3839 250.47 10.4713C249.854 10.492 249.245 10.6138 248.668 10.8317L82.8806 105.148C81.06 106.204 79.5457 107.716 78.4869 109.535C77.428 111.354 76.8611 113.417 76.8418 115.522V385.311C76.8418 390.127 79.6701 391.94 82.815 392.147C84.1674 392.219 85.5215 392.045 86.8118 391.634C86.9771 391.586 87.1379 391.524 87.2922 391.448L253.178 296.968C255.008 295.924 256.53 294.415 257.589 292.593C258.647 290.771 259.205 288.702 259.206 286.594V16.8704C259.193 16.4338 259.085 16.0052 258.889 15.6146Z" fill="#F995A6"/>
<path opacity="0.2" d="M258.889 15.6146C258.651 14.6902 258.284 13.8042 257.797 12.9829C256.705 11.3449 254.882 10.3839 250.47 10.4713C249.854 10.492 249.245 10.6138 248.668 10.8317L82.8806 105.148C81.06 106.204 79.5457 107.716 78.4869 109.535C77.428 111.354 76.8611 113.417 76.8418 115.522V385.311C76.8418 390.127 79.6701 391.94 82.815 392.147C84.1674 392.219 85.5215 392.045 86.8118 391.634C86.9771 391.586 87.1379 391.524 87.2922 391.448L253.178 296.968C255.008 295.924 256.53 294.415 257.589 292.593C258.647 290.771 259.205 288.702 259.206 286.594V16.8704C259.193 16.4338 259.085 16.0052 258.889 15.6146Z" fill="#171E2F"/>
<path opacity="0.2" d="M78.0867 110.28C77.2769 111.909 76.8511 113.702 76.8418 115.522V385.311C76.8418 390.127 79.6701 391.94 82.815 392.147C81.9545 390.838 81.5302 389.29 81.6029 387.725V117.924C81.6097 116.109 82.0318 114.32 82.8369 112.693C82.9679 112.42 83.1426 112.169 83.2955 111.907L78.6873 109.243C78.4798 109.592 78.2614 109.92 78.0867 110.28Z" fill="#171E2F"/>
<path opacity="0.2" d="M250.514 10.4715C249.897 10.4922 249.289 10.6139 248.712 10.8318L82.8808 105.148C81.1604 106.138 79.718 107.546 78.6875 109.243L83.2957 111.907C84.3391 110.09 85.8465 108.583 87.6637 107.539L253.462 13.2342C254.041 13.0246 254.649 12.9067 255.264 12.8848C256.124 12.8639 256.985 12.8967 257.841 12.9831C256.804 11.3123 254.925 10.3841 250.514 10.4715Z" fill="white"/>
<path d="M251.637 24.0449L89.4863 117.629V372.033L251.637 278.448V24.0449Z" fill="#C02A46"/>
<path d="M178.889 324.716C177.323 325.695 175.972 326.982 174.919 328.498C173.866 330.015 173.132 331.73 172.763 333.54C172.359 336.685 174.445 337.908 177.437 336.128C179 335.146 180.348 333.858 181.401 332.342C182.454 330.825 183.189 329.112 183.563 327.304C183.956 324.17 181.87 323.002 178.889 324.716Z" fill="#F995A6"/>
<g opacity="0.4">
<path opacity="0.4" d="M178.889 324.716C177.323 325.695 175.972 326.982 174.919 328.498C173.866 330.015 173.132 331.73 172.763 333.54C172.359 336.685 174.445 337.908 177.437 336.128C179 335.146 180.348 333.858 181.401 332.342C182.454 330.825 183.189 329.112 183.563 327.304C183.956 324.17 181.87 323.002 178.889 324.716Z" fill="#C02A46"/>
</g>
<path d="M267.221 14.7226V6.46704C267.21 6.08752 267.117 5.71485 266.948 5.37504C266.758 4.56401 266.445 3.78692 266.02 3.07092C265.113 1.61856 263.453 0.77772 259.566 0.88692C259.025 0.90174 258.49 1.00502 257.982 1.19268L111.916 84.1738C110.316 85.1041 108.985 86.4351 108.054 88.0357C107.124 89.6363 106.626 91.4515 106.609 93.3029V102.76L110.792 105.173L267.221 14.7226Z" fill="#F995A6"/>
<path d="M110.792 105.173L106.609 102.76V339.189C106.609 343.426 109.099 345.031 111.862 345.206C113.055 345.272 114.25 345.12 115.389 344.758C115.535 344.709 115.677 344.651 115.815 344.583L261.914 261.373C263.526 260.456 264.867 259.128 265.799 257.524C266.731 255.921 267.222 254.099 267.221 252.244V14.7227L110.792 105.173Z" fill="#F995A6"/>
<path opacity="0.2" d="M107.701 88.6944C106.988 90.1262 106.614 91.7031 106.609 93.3027V339.188C106.609 343.425 109.099 345.031 111.862 345.205C111.095 344.054 110.713 342.689 110.77 341.307V95.4321C110.779 93.833 111.152 92.2569 111.862 90.8238C111.982 90.5836 112.135 90.3543 112.266 90.125L108.204 87.7881C108.02 88.0806 107.852 88.3832 107.701 88.6944Z" fill="#171E2F"/>
<path opacity="0.2" d="M259.567 0.788491C259.026 0.803311 258.491 0.906595 257.983 1.09425L111.918 84.1736C110.402 85.0476 109.132 86.291 108.227 87.7881L112.289 90.125C113.211 88.5314 114.536 87.2093 116.133 86.2921L262.166 3.22365C262.676 3.03142 263.215 2.928 263.76 2.91789C264.515 2.89367 265.27 2.92286 266.021 3.00525C265.114 1.55289 263.454 0.712051 259.567 0.788491Z" fill="white"/>
<path opacity="0.05" d="M267.221 14.7226V6.46704C267.21 6.08752 267.117 5.71485 266.948 5.37504C266.758 4.56401 266.445 3.78692 266.02 3.07092C265.113 1.61856 263.453 0.77772 259.566 0.88692C259.025 0.90174 258.49 1.00502 257.982 1.19268L111.916 84.1738C110.316 85.1041 108.985 86.4351 108.054 88.0357C107.124 89.6363 106.626 91.4515 106.609 93.3029V102.76L110.792 105.173L267.221 14.7226Z" fill="white"/>
<path opacity="0.35" d="M110.792 105.173L106.609 102.76V339.189C106.609 343.426 109.099 345.031 111.862 345.206C113.055 345.272 114.25 345.12 115.389 344.758C115.535 344.709 115.677 344.651 115.815 344.583L261.914 261.373C263.526 260.456 264.867 259.128 265.799 257.524C266.731 255.921 267.222 254.099 267.221 252.244V14.7227L110.792 105.173Z" fill="white"/>
<path d="M187.287 100.958L123.066 138.009V245.233L187.287 208.17V100.958Z" fill="white"/>
<path d="M126.637 140.073L183.726 107.127V206.117L126.637 239.052V140.073Z" fill="#666C74"/>
<path opacity="0.3" d="M126.637 140.073L183.726 107.127V206.117L126.637 239.052V140.073Z" fill="white"/>
<path d="M183.726 206.194L126.637 239.172V201.269L143.246 188.219L164.649 180.095L169.945 178.774C172.293 178.186 174.74 178.114 177.119 178.561C179.498 179.007 181.752 179.963 183.726 181.362V206.194Z" fill="#DDE5F0"/>
<path d="M139.555 159.456C137.896 153.898 138.256 147.52 141.576 142.759C143.766 139.722 146.839 137.434 150.377 136.207C153.888 135.017 157.599 134.534 161.297 134.788C164.23 134.844 167.115 135.541 169.749 136.83C171.328 137.672 172.725 138.816 173.861 140.199C174.997 141.581 175.849 143.174 176.368 144.887C176.887 146.599 177.064 148.396 176.887 150.177C176.711 151.957 176.185 153.686 175.34 155.263C173.901 157.691 172.024 159.831 169.804 161.574C165.544 165.221 160.862 168.345 155.859 170.878C154.614 171.512 153.347 172.112 152.059 172.669C151.185 173.051 149.536 174.121 148.554 173.925C147.571 173.728 146.544 171.905 145.955 171.151C145.103 170.059 144.295 168.967 143.541 167.81C141.813 165.234 140.471 162.42 139.555 159.456Z" fill="#2F3646"/>
<path d="M139.555 159.456C137.896 153.898 138.256 147.52 141.576 142.759C143.766 139.722 146.839 137.434 150.377 136.207C153.888 135.017 157.599 134.534 161.297 134.788C164.23 134.844 167.115 135.541 169.749 136.83C171.328 137.672 172.725 138.816 173.861 140.199C174.997 141.581 175.849 143.174 176.368 144.887C176.887 146.599 177.064 148.396 176.887 150.177C176.711 151.957 176.185 153.686 175.34 155.263C173.901 157.691 172.024 159.831 169.804 161.574C165.544 165.221 160.862 168.345 155.859 170.878C154.614 171.512 153.347 172.112 152.059 172.669C151.185 173.051 149.536 174.121 148.554 173.925C147.571 173.728 146.544 171.905 145.955 171.151C145.103 170.059 144.295 168.967 143.541 167.81C141.813 165.234 140.471 162.42 139.555 159.456Z" fill="url(#paint0_linear)"/>
<path d="M169.377 206.139C168.963 204.466 168.392 202.835 167.673 201.269L164.943 201.913C165.151 203.442 165.26 205.036 165.315 206.619C165.315 207.711 165.227 211.752 165.02 216.982L171.146 213.455C170.6 211.053 170.021 208.596 169.377 206.139Z" fill="#F995A6"/>
<path opacity="0.2" d="M165.009 202.492C165.009 202.306 165.009 202.109 164.943 201.913L167.673 201.269L167.837 201.673C167.468 202.029 167.017 202.289 166.524 202.432C166.032 202.575 165.511 202.595 165.009 202.492Z" fill="#171E2F"/>
<path d="M163.48 194.761L161.296 193.385L156.295 196.115C158.007 197.43 160.054 198.239 162.203 198.452L163.48 194.761Z" fill="#F995A6"/>
<path d="M166.801 194.236L167.456 192.762L169.979 194.346C169.709 195.304 169.134 196.147 168.341 196.748L166.801 194.236Z" fill="#F995A6"/>
<path opacity="0.2" d="M163.48 194.761L161.296 193.385L156.295 196.115C158.007 197.43 160.054 198.239 162.203 198.452L163.48 194.761Z" fill="#171E2F"/>
<path opacity="0.2" d="M166.801 194.236L167.456 192.762L169.979 194.346C169.709 195.304 169.134 196.147 168.341 196.748L166.801 194.236Z" fill="#171E2F"/>
<path d="M162.236 198.451C162.448 197.162 162.868 195.915 163.481 194.76L166.757 194.236C167.363 195.013 167.88 195.856 168.297 196.748C168.369 198.284 168.142 199.819 167.631 201.269C166.787 201.703 165.85 201.925 164.901 201.913C163.675 201.064 162.744 199.854 162.236 198.451Z" fill="#F995A6"/>
<path d="M164.649 178.424C162.182 178.053 159.768 177.616 157.595 177.158L157.543 177.411C157.542 177.411 157.542 177.411 157.542 177.411C155.386 176.964 153.378 175.979 151.705 174.547C150.353 173.39 149.255 171.972 148.474 170.382V184.203L164.39 184.561C164.39 184.716 164.429 185.179 164.481 185.803C164.494 185.951 164.507 186.108 164.52 186.272C164.592 187.139 164.678 188.229 164.735 189.301C164.792 190.374 164.82 191.422 164.778 192.207C164.757 192.602 164.718 192.916 164.662 193.131C164.634 193.238 164.606 193.305 164.583 193.342C164.608 193.346 164.618 193.346 164.618 193.346C164.618 193.346 164.615 193.346 164.608 193.347L164.649 193.603M164.649 178.424H164.39V178.647C164.464 178.658 164.537 178.669 164.611 178.68L164.649 178.424ZM164.649 178.424V184.561C164.649 184.704 164.687 185.15 164.739 185.772C164.945 188.238 165.382 193.472 164.649 193.603M164.649 193.603L164.604 193.348C164.583 193.352 164.571 193.36 164.568 193.363L148.215 184.288C151.229 188.449 163.907 193.723 164.649 193.603Z" fill="white" stroke="#2F3646" stroke-width="0.518"/>
<path d="M159.135 180.75C160.943 181.225 162.318 181.663 164.18 181.842V178.566C161.712 178.195 159.768 177.649 157.595 177.19C155.613 176.774 153.759 175.893 152.183 174.622C150.608 173.35 149.356 171.723 148.531 169.874C148.931 172.424 150.07 174.8 151.807 176.709C153.838 178.696 156.371 180.092 159.135 180.75Z" fill="#C7C3C1"/>
<path d="M153.371 151.412C154.475 150.38 155.242 149.041 155.575 147.571C155.937 147.672 156.299 147.774 156.661 147.877C159.336 148.637 162.049 149.407 164.889 149.407V149.407L164.897 149.407C168.284 149.31 171.518 147.997 174.011 145.715C177.079 154.034 176.579 163.776 175.107 172.275C174.759 174.225 173.679 175.968 172.087 177.146C170.496 178.325 168.514 178.851 166.547 178.615C165.459 178.484 164.37 178.332 163.28 178.168C161.045 177.819 158.844 177.427 156.862 177.013C154.744 176.56 152.798 175.518 151.246 174.007C149.695 172.495 148.603 170.576 148.095 168.47L148.095 168.47L148.093 168.463L148.017 168.18L147.864 167.611L147.548 168.108C147.161 168.717 146.614 169.208 145.968 169.528C145.321 169.847 144.599 169.984 143.88 169.922L143.88 169.922L143.875 169.921C143.124 169.869 142.391 169.664 141.722 169.317C141.053 168.971 140.462 168.492 139.985 167.908C139.02 166.72 138.411 165.281 138.229 163.761L138.229 163.761L138.227 163.748C138.075 162.855 138.118 161.939 138.353 161.063C138.469 160.633 138.673 160.232 138.951 159.884C139.227 159.54 139.569 159.255 139.958 159.048C140.449 158.857 140.978 158.786 141.502 158.84C142.03 158.895 142.538 159.075 142.982 159.366C143.904 159.999 144.661 160.843 145.191 161.828L145.191 161.828L145.196 161.837C145.449 162.268 145.759 162.79 146.155 163.162C146.563 163.544 147.09 163.789 147.749 163.604L147.759 163.601L147.769 163.598C148.102 163.475 148.396 163.263 148.618 162.986C148.839 162.709 148.981 162.378 149.028 162.027C149.476 159.162 149.49 156.245 149.067 153.377C150.652 153.139 152.14 152.461 153.362 151.42L153.362 151.42L153.371 151.412Z" fill="white" stroke="#2F3646" stroke-width="0.518"/>
<path d="M167.651 156.06H165.729C163.797 154.75 161.569 153.939 159.246 153.701C156.923 153.462 154.577 153.804 152.418 154.695V156.726L152.953 157.01C153.243 158.32 153.408 159.655 153.444 160.996C153.481 162.314 154.006 163.571 154.919 164.523C156.077 165.314 157.475 165.677 158.872 165.55C159.986 165.637 161.105 165.472 162.148 165.069C163.341 164.425 164.241 163.345 164.659 162.055C165.14 160.789 165.052 160.057 165.642 158.539C165.724 158.319 165.874 158.131 166.071 158.003C166.267 157.876 166.5 157.815 166.734 157.829C166.95 157.837 167.158 157.909 167.333 158.035C167.508 158.162 167.642 158.337 167.717 158.539C168.263 160.057 168.197 160.789 168.634 162.055C169.013 163.318 169.85 164.393 170.982 165.069C171.958 165.476 173.019 165.641 174.072 165.55C175.391 165.674 176.708 165.309 177.774 164.523C178.639 163.549 179.127 162.298 179.15 160.996C179.181 159.656 179.335 158.322 179.609 157.01L180.111 156.726V154.695C178.098 153.804 175.886 153.46 173.697 153.7C171.509 153.94 169.423 154.754 167.651 156.06ZM164.758 157.152L164.681 157.873C164.505 159.183 164.178 160.469 163.709 161.706C163.37 162.732 162.661 163.596 161.722 164.13C160.969 164.428 160.16 164.559 159.352 164.512H158.915C157.765 164.634 156.609 164.357 155.639 163.726C154.928 162.957 154.537 161.945 154.547 160.898C154.547 160.559 154.482 160.21 154.46 159.806C154.394 158.834 154.46 156.715 154.536 155.176C155.635 154.871 156.77 154.717 157.911 154.717C160.312 154.727 162.662 155.412 164.692 156.694C164.79 156.759 164.758 157.098 164.758 157.098V157.152ZM178.211 159.86C178.211 160.21 178.211 160.559 178.135 160.952C178.13 161.997 177.741 163.004 177.043 163.781C176.153 164.406 175.066 164.686 173.985 164.567H173.581C172.833 164.609 172.086 164.478 171.397 164.185C170.5 163.634 169.838 162.77 169.541 161.76C169.1 160.519 168.796 159.234 168.634 157.927L168.558 157.207C168.558 157.207 168.558 156.868 168.634 156.803C170.507 155.53 172.715 154.842 174.979 154.826C176.047 154.825 177.11 154.98 178.135 155.285C178.222 156.715 178.266 158.834 178.211 159.806V159.86Z" fill="#2F3646"/>
<path d="M152.419 154.695L141.586 158.593C142.367 158.742 143.099 159.083 143.715 159.587C143.825 159.685 152.451 156.726 152.451 156.726L152.419 154.695Z" fill="#2F3646"/>
<path d="M166.67 157.993L172.141 164.61L167.129 166.379L166.67 157.993Z" fill="white"/>
<path d="M166.67 157.993L172.141 164.61L167.129 166.379L166.67 157.993Z" fill="#C7C3C1"/>
<path d="M158.959 158.823C158.956 159.02 158.993 159.215 159.066 159.398C159.139 159.581 159.248 159.747 159.386 159.887C159.525 160.027 159.689 160.139 159.871 160.215C160.052 160.291 160.247 160.33 160.444 160.33C160.652 160.347 160.862 160.322 161.059 160.254C161.257 160.187 161.438 160.079 161.592 159.938C161.745 159.797 161.868 159.626 161.952 159.434C162.036 159.243 162.079 159.037 162.079 158.828C162.079 158.62 162.036 158.413 161.952 158.222C161.868 158.031 161.745 157.859 161.592 157.718C161.438 157.577 161.257 157.469 161.059 157.402C160.862 157.335 160.652 157.309 160.444 157.327C160.049 157.33 159.672 157.489 159.393 157.769C159.115 158.049 158.959 158.428 158.959 158.823Z" fill="#2F3646"/>
<path d="M171.561 158.364C171.558 158.562 171.594 158.758 171.667 158.941C171.74 159.124 171.849 159.291 171.987 159.432C172.125 159.574 172.29 159.686 172.472 159.763C172.653 159.84 172.848 159.881 173.046 159.882C173.445 159.882 173.827 159.725 174.111 159.445C174.396 159.165 174.558 158.785 174.564 158.386C174.532 158.01 174.36 157.66 174.081 157.404C173.803 157.149 173.44 157.007 173.062 157.007C172.685 157.007 172.321 157.149 172.043 157.404C171.765 157.66 171.593 158.01 171.561 158.386V158.364Z" fill="#2F3646"/>
<path d="M170.732 151.812L174.751 152.26C174.679 151.831 174.48 151.434 174.18 151.119C173.881 150.803 173.494 150.585 173.069 150.491C172.595 150.471 172.125 150.585 171.712 150.818C171.299 151.052 170.96 151.396 170.732 151.812Z" fill="#2F3646"/>
<path d="M161.997 152.107H157.945C158.07 151.689 158.316 151.319 158.653 151.042C158.989 150.766 159.401 150.597 159.834 150.556C160.303 150.59 160.753 150.753 161.134 151.026C161.516 151.3 161.814 151.674 161.997 152.107Z" fill="#2F3646"/>
<path d="M161.352 169.033L167.129 170.813C166.763 171.492 166.186 172.035 165.484 172.358C164.783 172.681 163.996 172.767 163.241 172.604C161.822 172.21 161.178 170.496 161.352 169.033Z" fill="white"/>
<path d="M161.352 169.033L167.129 170.813C166.763 171.492 166.186 172.035 165.484 172.358C164.783 172.681 163.996 172.767 163.241 172.604C161.822 172.21 161.178 170.496 161.352 169.033Z" fill="#5E2828"/>
<path d="M165.129 172.484C164.525 172.709 163.867 172.75 163.24 172.604C162.703 172.403 162.239 172.048 161.905 171.584C161.57 171.119 161.381 170.566 161.361 169.994C162.189 169.846 163.041 170.022 163.743 170.486C164.444 170.949 164.94 171.664 165.129 172.484Z" fill="white"/>
<path d="M165.129 172.484C164.525 172.709 163.867 172.75 163.24 172.604C162.703 172.403 162.239 172.048 161.905 171.584C161.57 171.119 161.381 170.566 161.361 169.994C162.189 169.846 163.041 170.022 163.743 170.486C164.444 170.949 164.94 171.664 165.129 172.484Z" fill="#C7C3C1"/>
<path d="M164.649 193.603C159.386 193.516 158.621 202.022 153.817 203.431L141.564 188.525L145.365 182.88C146.125 181.754 147.11 180.799 148.258 180.073V182.115C148.273 182.714 148.44 183.299 148.744 183.815C149.048 184.331 149.478 184.761 149.995 185.064L164.649 193.603Z" fill="#A7ADB6"/>
<path d="M164.648 193.603C167.564 192.696 171.932 196.344 171.932 196.344C170.403 187.892 165.773 180.095 164.648 180.095V193.603Z" fill="#A7ADB6"/>
<path d="M160.412 87.0891C161.995 86.1719 162.978 86.5431 162.989 88.0501C162.94 88.8691 162.678 89.6612 162.23 90.3485C161.782 91.0359 161.163 91.5948 160.434 91.9704L159.429 92.5491V94.2854L157.791 95.2245V88.607L160.412 87.0891ZM160.335 90.5508C160.627 90.4099 160.875 90.192 161.052 89.9207C161.229 89.6493 161.329 89.3348 161.34 89.0111C161.34 88.3995 161.001 88.2248 160.324 88.6179L159.418 89.1421V91.0749L160.324 90.5508" fill="white"/>
<path d="M167.848 87.3839L169.104 88.7489L167.357 89.7536L166.265 88.596L165.38 89.1093V90.8674L163.742 91.8174V85.189L166.363 83.6274C167.935 82.7211 168.918 83.0924 168.929 84.5993C168.927 85.6295 168.542 86.6221 167.848 87.3839ZM166.319 87.1437C166.611 87 166.859 86.7799 167.036 86.5069C167.212 86.2339 167.312 85.9181 167.324 85.593C167.324 84.9815 166.985 84.8177 166.308 85.1999L165.402 85.7241V87.6678L166.308 87.1437" fill="white"/>
<path d="M172.763 79.8166C174.608 78.7246 175.973 79.4344 175.984 81.4109C175.928 82.4889 175.607 83.5365 175.049 84.4605C174.491 85.3844 173.713 86.1562 172.785 86.7071C170.95 87.7991 169.585 87.1002 169.574 85.1128C169.634 84.0369 169.955 82.9918 170.511 82.0687C171.067 81.1456 171.84 80.3724 172.763 79.8166ZM172.763 85.1564C173.233 84.8557 173.621 84.4427 173.892 83.9547C174.162 83.4667 174.307 82.919 174.313 82.3609C174.313 81.2689 173.626 80.8649 172.752 81.3781C172.294 81.6738 171.915 82.0773 171.648 82.5531C171.382 83.029 171.236 83.5629 171.223 84.1081C171.223 85.2656 171.911 85.6151 172.785 85.1128" fill="white"/>
<path d="M181.346 75.001L181.357 76.4424L178.463 78.1132L178.474 79.5655L181.018 78.1023V79.5546L178.474 81.0179L178.485 83.2893L176.847 84.2284L176.836 77.6109L181.346 75.001Z" fill="white"/>
<path d="M183.748 73.6138L183.77 80.2313L182.132 81.1813L182.121 74.5529L183.748 73.6138Z" fill="white"/>
<path d="M186.533 72.0088L186.555 77.1412L189.296 75.5578L189.307 77.0429L184.928 79.5654L184.906 72.9479L186.533 72.0088Z" fill="white"/>
<path d="M194.451 67.4331V68.8855L191.546 70.5562L191.557 71.6701L194.112 70.1959V71.5936L191.557 73.0678V74.2799L194.571 72.5546V73.996L189.952 76.6714L189.93 70.043L194.451 67.4331Z" fill="white"/>
<path d="M200.587 63.8951C202.498 62.8031 203.798 63.3163 203.808 65.3475C203.764 66.4121 203.445 67.4472 202.882 68.3522C202.32 69.2572 201.533 70.0015 200.598 70.5126L197.879 72.096V65.4785L200.587 63.8951ZM200.532 69.0603C201.02 68.7791 201.426 68.3773 201.713 67.8934C202 67.4095 202.158 66.8599 202.17 66.2975C202.17 65.2055 201.504 64.867 200.522 65.4348L199.495 66.0245V69.6499L200.522 69.0603" fill="white"/>
<path d="M208.034 59.5928L210.6 64.7361L208.908 65.7189L208.449 64.6924L206.014 66.1011L205.566 67.6517L203.906 68.6127L206.429 60.521L208.034 59.5928ZM206.494 64.4522L207.968 63.6004L207.226 61.9078L206.494 64.4522Z" fill="white"/>
<path d="M219.163 53.1719L221.729 58.3152L220.037 59.298L219.578 58.2715L217.143 59.6802L216.695 61.2308L215.035 62.1809L217.558 54.1001L219.163 53.1719ZM217.612 58.0204L219.097 57.1686L218.344 55.476L217.612 58.0204Z" fill="white"/>
<path d="M215.373 55.356L215.384 56.8411L213.626 57.8566L213.637 62.989L212.01 63.9282L211.988 58.7958L210.23 59.8113L210.219 58.3262L215.373 55.356Z" fill="white"/>
<path d="M167.555 93.7288V98.2933L213.735 71.6376V67.084L167.555 93.7288Z" fill="#F995A6"/>
<g opacity="0.6">
<path opacity="0.7" d="M167.555 93.7288V98.2933L213.735 71.6376V67.084L167.555 93.7288Z" fill="white"/>
</g>
<path d="M179.096 95.2246V99.7783L205.959 84.1845V79.6309L179.096 95.2246Z" fill="#F995A6"/>
<g opacity="0.6">
<path opacity="0.7" d="M179.096 95.2246V99.7783L205.959 84.1845V79.6309L179.096 95.2246Z" fill="white"/>
</g>
<path d="M193.248 124.479V129.033L256.519 92.56V88.0063L193.248 124.479Z" fill="#F995A6"/>
<path d="M193.248 132.287V136.841L242.454 108.493V103.939L193.248 132.287Z" fill="#F995A6"/>
<path d="M193.248 146.134V150.687L256.519 114.226V109.672L193.248 146.134Z" fill="#F995A6"/>
<path d="M193.248 153.953V158.506L256.519 122.077V117.523L193.248 153.953Z" fill="#F995A6"/>
<path d="M193.248 161.498V166.052L240.968 138.643V134.089L193.248 161.498Z" fill="#F995A6"/>
<path d="M193.248 98.3152V106.112L239.429 79.4673V71.6704L193.248 98.3152Z" fill="#F995A6"/>
<path d="M193.248 110.109V115.012L223.933 97.387V92.4839L193.248 110.109Z" fill="#F995A6"/>
<g opacity="0.6">
<path opacity="0.7" d="M193.248 124.48V129.033L256.519 92.5605V88.0068L193.248 124.48Z" fill="white"/>
<path opacity="0.7" d="M193.248 132.287V136.841L242.454 108.493V103.939L193.248 132.287Z" fill="white"/>
<path opacity="0.7" d="M193.248 146.134V150.687L256.519 114.226V109.672L193.248 146.134Z" fill="white"/>
<path opacity="0.7" d="M193.248 153.953V158.506L256.519 122.077V117.523L193.248 153.953Z" fill="white"/>
<path opacity="0.7" d="M193.248 161.499V166.052L240.968 138.643V134.089L193.248 161.499Z" fill="white"/>
<path opacity="0.7" d="M193.248 98.3152V106.112L239.429 79.4673V71.6704L193.248 98.3152Z" fill="white"/>
<path opacity="0.7" d="M193.248 110.109V115.012L223.933 97.387V92.4839L193.248 110.109Z" fill="white"/>
</g>
<path d="M197.595 170.889L199.025 173.39L202.214 172.079L199.921 176L200.467 179.33L197.616 179.254L194.766 182.628L195.301 178.664L192.986 177.408L196.175 175.039L197.595 170.889Z" fill="#F995A6"/>
<path d="M211.431 162.907L212.861 165.407L216.05 164.097L213.746 168.017L214.302 171.348L211.452 171.271L208.602 174.635L209.137 170.671L206.822 169.426L210 167.056L211.431 162.907Z" fill="#F995A6"/>
<path d="M225.255 154.914L226.696 157.414L229.874 156.104L227.581 160.024L228.138 163.355L225.287 163.278L222.426 166.653L222.972 162.689L220.646 161.433L223.835 159.063L225.255 154.914Z" fill="#F995A6"/>
<path d="M239.091 146.931L240.521 149.431L243.71 148.121L241.417 152.041L241.974 155.372L239.113 155.295L236.262 158.67L236.797 154.706L234.482 153.45L237.682 151.08L239.091 146.931Z" fill="#CD2945"/>
<path d="M252.927 138.948L254.357 141.449L257.546 140.139L255.253 144.059L255.809 147.378L252.948 147.313L250.098 150.676L250.633 146.712L248.318 145.467L251.507 143.087L252.927 138.948Z" fill="#CD2945"/>
<path d="M197.595 182.956L199.025 185.457L202.214 184.135L199.921 188.056L200.467 191.397L197.616 191.321L194.766 194.684L195.301 190.731L192.986 189.475L196.175 187.106L197.595 182.956Z" fill="#F995A6"/>
<path d="M211.431 174.962L212.861 177.463L216.05 176.153L213.746 180.073L214.302 183.414L211.452 183.327L208.602 186.701L209.137 182.737L206.822 181.482L210 179.112L211.431 174.962Z" fill="#F995A6"/>
<path d="M225.255 166.98L226.696 169.481L229.874 168.17L227.581 172.091L228.138 175.421L225.287 175.345L222.426 178.708L222.972 174.755L220.646 173.499L223.835 171.13L225.255 166.98Z" fill="#F995A6"/>
<path d="M239.091 158.998L240.521 161.498L243.71 160.188L241.417 164.108L241.974 167.428L239.113 167.362L236.262 170.726L236.797 166.762L234.482 165.506L237.682 163.136L239.091 158.998Z" fill="#F995A6"/>
<path d="M252.927 151.004L254.357 153.505L257.546 152.194L255.253 156.114L255.809 159.445L252.948 159.369L250.098 162.743L250.633 158.779L248.318 157.523L251.507 155.154L252.927 151.004Z" fill="#CD2945"/>
<path d="M197.595 195.012L199.025 197.512L202.214 196.202L199.921 200.122L200.467 203.453L197.616 203.376L194.766 206.751L195.301 202.787L192.986 201.531L196.175 199.161L197.595 195.012Z" fill="#F995A6"/>
<path d="M211.431 187.029L212.861 189.53L216.05 188.22L213.746 192.14L214.302 195.47L211.452 195.394L208.602 198.757L209.137 194.804L206.822 193.549L210 191.179L211.431 187.029Z" fill="#F995A6"/>
<path d="M225.255 179.046L226.696 181.547L229.874 180.237L227.581 184.157L228.138 187.477L225.287 187.411L222.426 190.774L222.972 186.81L220.646 185.555L223.835 183.196L225.255 179.046Z" fill="#F995A6"/>
<path d="M239.091 171.053L240.521 173.554L243.71 172.244L241.417 176.164L241.974 179.494L239.113 179.418L236.262 182.792L236.797 178.828L234.482 177.572L237.682 175.203L239.091 171.053Z" fill="#CD2945"/>
<path d="M252.927 163.071L254.357 165.571L257.546 164.261L255.253 168.181L255.809 171.512L252.948 171.436L250.098 174.81L250.633 170.846L248.318 169.59L251.507 167.209L252.927 163.071Z" fill="#CD2945"/>
<g opacity="0.8">
<path d="M197.595 170.89L199.025 173.39L202.214 172.08L199.921 176L200.467 179.331L197.616 179.254L194.766 182.629L195.301 178.665L192.986 177.409L196.175 175.039L197.595 170.89Z" fill="white"/>
<path d="M211.431 162.907L212.861 165.408L216.05 164.098L213.746 168.018L214.302 171.348L211.452 171.272L208.602 174.635L209.137 170.671L206.822 169.426L210 167.057L211.431 162.907Z" fill="white"/>
<path d="M225.255 154.914L226.696 157.414L229.874 156.104L227.581 160.024L228.138 163.355L225.287 163.278L222.426 166.653L222.972 162.689L220.646 161.433L223.835 159.063L225.255 154.914Z" fill="white"/>
</g>
<g opacity="0.8">
<path d="M197.595 182.956L199.025 185.457L202.214 184.135L199.921 188.056L200.467 191.397L197.616 191.321L194.766 194.684L195.301 190.731L192.986 189.475L196.175 187.106L197.595 182.956Z" fill="white"/>
<path d="M211.431 174.962L212.861 177.463L216.05 176.153L213.746 180.073L214.302 183.414L211.452 183.327L208.602 186.701L209.137 182.737L206.822 181.482L210 179.112L211.431 174.962Z" fill="white"/>
<path d="M225.255 166.98L226.696 169.481L229.874 168.17L227.581 172.091L228.138 175.421L225.287 175.345L222.426 178.708L222.972 174.755L220.646 173.499L223.835 171.13L225.255 166.98Z" fill="white"/>
<path d="M239.091 158.998L240.521 161.498L243.71 160.188L241.417 164.108L241.974 167.428L239.113 167.362L236.262 170.726L236.797 166.762L234.482 165.506L237.682 163.136L239.091 158.998Z" fill="white"/>
</g>
<g opacity="0.8">
<path d="M197.595 195.011L199.025 197.512L202.214 196.202L199.921 200.122L200.467 203.452L197.616 203.376L194.766 206.75L195.301 202.786L192.986 201.53L196.175 199.161L197.595 195.011Z" fill="white"/>
<path d="M211.431 187.029L212.861 189.529L216.05 188.219L213.746 192.139L214.302 195.47L211.452 195.394L208.602 198.757L209.137 194.804L206.822 193.548L210 191.178L211.431 187.029Z" fill="white"/>
<path d="M225.255 179.046L226.696 181.547L229.874 180.237L227.581 184.157L228.138 187.477L225.287 187.411L222.426 190.774L222.972 186.811L220.646 185.555L223.835 183.196L225.255 179.046Z" fill="white"/>
</g>
<path d="M139.424 245.473L123.109 254.941V273.821L136.585 266.025L139.424 260.161V245.473Z" fill="#F995A6"/>
<path opacity="0.1" d="M139.424 245.473L123.109 254.941V273.821L136.585 266.025L139.424 260.161V245.473Z" fill="#690113"/>
<path d="M136.584 266.024L139.423 260.16L136.584 261.798V266.024Z" fill="#F995A6"/>
<path opacity="0.3" d="M136.584 266.024L139.423 260.16L136.584 261.798V266.024Z" fill="#171E2F"/>
<path d="M142.754 243.573V247.559L187.286 221.875V217.889L142.754 243.573Z" fill="#F995A6"/>
<path d="M142.754 250.409V254.395L187.286 228.744V224.758L142.754 250.409Z" fill="#F995A6"/>
<path d="M142.754 257.004V260.99L173.69 243.234V239.249L142.754 257.004Z" fill="#F995A6"/>
<g opacity="0.6">
<path opacity="0.7" d="M142.754 243.573V247.559L187.286 221.875V217.889L142.754 243.573Z" fill="white"/>
<path opacity="0.7" d="M142.754 250.409V254.395L187.286 228.744V224.758L142.754 250.409Z" fill="white"/>
<path opacity="0.7" d="M142.754 257.004V260.99L173.69 243.234V239.249L142.754 257.004Z" fill="white"/>
</g>
<path d="M139.424 270.818L123.109 280.275V299.167L136.585 291.359L139.424 285.495V270.818Z" fill="#F995A6"/>
<path opacity="0.1" d="M139.424 270.818L123.109 280.275V299.167L136.585 291.359L139.424 285.495V270.818Z" fill="#690113"/>
<path d="M136.584 291.359L139.423 285.495L136.584 287.144V291.359Z" fill="#F995A6"/>
<path opacity="0.3" d="M136.584 291.359L139.423 285.495L136.584 287.144V291.359Z" fill="#171E2F"/>
<path d="M142.754 268.918V272.904L187.777 246.947V242.961L142.754 268.918Z" fill="#F995A6"/>
<path d="M142.754 275.754V279.729L187.777 253.816V249.83L142.754 275.754Z" fill="#F995A6"/>
<path d="M142.754 282.35V286.335L152.505 280.843V276.857L142.754 282.35Z" fill="#F995A6"/>
<g opacity="0.6">
<path opacity="0.7" d="M142.754 268.918V272.904L187.777 246.947V242.961L142.754 268.918Z" fill="white"/>
<path opacity="0.7" d="M142.754 275.754V279.729L187.777 253.816V249.83L142.754 275.754Z" fill="white"/>
<path opacity="0.7" d="M142.754 282.35V286.336L152.505 280.843V276.857L142.754 282.35Z" fill="white"/>
</g>
<path d="M139.424 296.164L123.109 305.62V324.501L136.585 316.704L139.424 310.84V296.164Z" fill="#F995A6"/>
<path opacity="0.1" d="M139.424 296.164L123.109 305.62V324.501L136.585 316.704L139.424 310.84V296.164Z" fill="#690113"/>
<path d="M136.584 316.704L139.423 310.84L136.584 312.478V316.704Z" fill="#F995A6"/>
<path opacity="0.3" d="M136.584 316.704L139.423 310.84L136.584 312.478V316.704Z" fill="#171E2F"/>
<path d="M142.754 294.264V298.239L188.203 271.856V267.87L142.754 294.264Z" fill="#F995A6"/>
<path d="M142.754 301.089V305.074L188.203 278.725V274.739L142.754 301.089Z" fill="#F995A6"/>
<path d="M142.754 307.684V311.67L188.203 285.374V281.389L142.754 307.684Z" fill="#F995A6"/>
<g opacity="0.6">
<path opacity="0.7" d="M142.754 294.264V298.239L188.203 271.856V267.87L142.754 294.264Z" fill="white"/>
<path opacity="0.7" d="M142.754 301.089V305.074L188.203 278.725V274.739L142.754 301.089Z" fill="white"/>
<path opacity="0.7" d="M142.754 307.684V311.67L188.203 285.375V281.389L142.754 307.684Z" fill="white"/>
</g>
<path d="M255.765 252.276L195.104 287.22C194.924 287.326 194.719 287.383 194.51 287.384C194.301 287.385 194.096 287.331 193.914 287.227C193.733 287.122 193.583 286.971 193.479 286.79C193.376 286.608 193.322 286.403 193.324 286.193V217.78C193.323 217.154 193.487 216.538 193.799 215.996C194.112 215.453 194.562 215.002 195.104 214.689L255.765 179.68C255.946 179.576 256.151 179.522 256.36 179.523C256.569 179.524 256.774 179.58 256.954 179.685C257.134 179.79 257.284 179.941 257.387 180.122C257.491 180.303 257.545 180.508 257.545 180.717V249.153C257.552 249.784 257.391 250.407 257.078 250.956C256.765 251.504 256.312 251.96 255.765 252.276Z" fill="#F995A6"/>
<path d="M214.848 209.12L198.533 218.588V237.468L212.019 229.672L214.848 223.808V209.12Z" fill="#F995A6"/>
<path opacity="0.3" d="M214.848 209.12L198.533 218.588V237.468L212.019 229.672L214.848 223.808V209.12Z" fill="#690113"/>
<path d="M212.02 229.672L214.848 223.808L212.02 225.446V229.672Z" fill="#F995A6"/>
<path opacity="0.5" d="M212.02 229.672L214.848 223.808L212.02 225.446V229.672Z" fill="#171E2F"/>
<path d="M218.703 209.525V212.178L253.997 191.812V189.159L218.703 209.525Z" fill="#F995A6"/>
<path d="M218.703 216.721L253.997 196.377V193.723L218.703 214.067V216.721Z" fill="#F995A6"/>
<path d="M218.703 221.405L253.997 201.04V198.397L218.703 218.763V221.405Z" fill="#F995A6"/>
<path d="M237.966 212.178L218.703 223.305V225.959L237.966 214.82V212.178Z" fill="#F995A6"/>
<path d="M198.533 244.195L253.996 212.309V209.666L198.533 241.541V244.195Z" fill="#F995A6"/>
<path d="M239.68 222.476L198.533 246.096V248.738L239.68 225.129V222.476Z" fill="#F995A6"/>
<path d="M198.533 265.653L253.996 233.767V231.124L198.533 262.999V265.653Z" fill="#F995A6"/>
<path d="M229.349 249.863L198.533 267.542V270.196L229.349 252.505V249.863Z" fill="#F995A6"/>
<path d="M198.533 274.881L253.996 243.005V240.352L198.533 272.238V274.881Z" fill="#F995A6"/>
<path d="M198.533 279.434L226.27 263.502V260.848L198.533 276.78V279.434Z" fill="#F995A6"/>
<path d="M230.094 261.296L238.786 256.305V253.652L230.094 258.653V261.296Z" fill="#F995A6"/>
<path d="M198.533 253.434L253.996 221.547V218.905L198.533 250.78V253.434Z" fill="#F995A6"/>
<path d="M217.883 244.206L198.533 255.323V257.976L217.883 246.86V244.206Z" fill="#F995A6"/>
<g opacity="0.3">
<path opacity="0.3" d="M218.703 209.525V212.178L253.997 191.812V189.159L218.703 209.525Z" fill="white"/>
<path opacity="0.3" d="M218.703 216.721L253.997 196.377V193.723L218.703 214.067V216.721Z" fill="white"/>
<path opacity="0.3" d="M218.703 221.405L253.997 201.04V198.397L218.703 218.763V221.405Z" fill="white"/>
<path opacity="0.3" d="M237.966 212.178L218.703 223.306V225.959L237.966 214.821V212.178Z" fill="white"/>
<path opacity="0.3" d="M198.533 244.196L253.996 212.309V209.667L198.533 241.542V244.196Z" fill="white"/>
<path opacity="0.3" d="M239.68 222.476L198.533 246.096V248.738L239.68 225.129V222.476Z" fill="white"/>
<path opacity="0.3" d="M198.533 265.653L253.996 233.767V231.124L198.533 262.999V265.653Z" fill="white"/>
<path opacity="0.3" d="M229.349 249.863L198.533 267.542V270.196L229.349 252.505V249.863Z" fill="white"/>
<path opacity="0.3" d="M198.533 274.881L253.996 243.005V240.352L198.533 272.238V274.881Z" fill="white"/>
<path opacity="0.3" d="M198.533 279.434L226.27 263.502V260.849L198.533 276.781V279.434Z" fill="white"/>
<path opacity="0.3" d="M230.092 261.296L238.784 256.306V253.652L230.092 258.654V261.296Z" fill="white"/>
<path opacity="0.3" d="M198.533 253.434L253.996 221.547V218.905L198.533 250.78V253.434Z" fill="white"/>
<path opacity="0.3" d="M217.883 244.207L198.533 255.323V257.977L217.883 246.86V244.207Z" fill="white"/>
</g>
<path d="M276.623 425.328C277.858 426.513 279.325 427.431 280.932 428.023C282.538 428.615 284.25 428.868 285.959 428.768C289.377 428.546 292.727 427.702 295.842 426.278C298.998 424.978 302.962 421.342 306.38 421.407C309.735 421.401 313.086 421.189 316.415 420.774C316.531 416.222 316.054 411.674 314.996 407.244L299.052 406.818C294.75 412.715 286.374 417.618 280.041 419.464C279.066 419.739 278.185 420.275 277.492 421.014C276.8 421.753 276.321 422.667 276.109 423.657C276.104 423.69 276.104 423.723 276.109 423.755C276.213 424.299 276.386 424.827 276.623 425.328Z" fill="#40495E"/>
<path d="M306.38 421.407C302.962 421.342 298.998 424.978 295.843 426.278C292.727 427.702 289.378 428.545 285.96 428.768C284.251 428.868 282.539 428.615 280.932 428.023C279.326 427.431 277.859 426.513 276.623 425.328C276.372 424.815 276.188 424.272 276.077 423.712C276.072 423.679 276.072 423.646 276.077 423.613C275.925 424.311 275.925 425.034 276.077 425.732C276.187 426.296 276.371 426.843 276.623 427.359C277.861 428.541 279.328 429.455 280.935 430.045C282.541 430.635 284.252 430.888 285.96 430.788C289.378 430.566 292.727 429.722 295.843 428.298C298.998 426.998 302.962 423.362 306.38 423.428C309.665 423.463 312.949 423.273 316.208 422.86C316.296 422.15 316.339 421.44 316.372 420.676C313.059 421.122 309.723 421.366 306.38 421.407Z" fill="#2F3646"/>
<path d="M355.498 434.217C355.514 435.959 355.342 437.698 354.985 439.404C354.445 442.442 352.755 445.156 350.268 446.982C347.968 448.29 345.368 448.979 342.722 448.98C340.401 449.229 338.053 448.987 335.831 448.271C334.151 447.67 332.726 446.515 331.791 444.995C331.791 444.995 331.791 445.06 331.791 445.082C332.115 446.204 332.706 447.231 333.515 448.073C334.323 448.916 335.324 449.55 336.432 449.92C338.658 450.636 341.009 450.878 343.333 450.629C345.976 450.63 348.573 449.941 350.868 448.631C353.362 446.811 355.059 444.101 355.608 441.063C355.964 439.358 356.136 437.619 356.121 435.876C356.131 434.685 356.383 433.509 356.862 432.418C357.34 431.328 358.036 430.346 358.905 429.532C359.331 429.135 359.736 428.716 360.118 428.276C360.387 427.968 360.591 427.61 360.719 427.221C360.846 426.833 360.894 426.423 360.86 426.016C360.86 425.703 360.827 425.386 360.762 425.066C360.128 425.808 358.654 427.555 358.283 427.905C357.417 428.715 356.724 429.691 356.246 430.776C355.767 431.861 355.513 433.031 355.498 434.217Z" fill="#2F3646"/>
<path d="M342.417 416.133C342.979 419.694 342.517 423.341 341.085 426.649C339.646 429.938 337.773 433.02 335.516 435.811C334.412 437.132 333.436 438.554 332.6 440.059C331.785 441.555 331.493 443.281 331.77 444.962C332.705 446.482 334.13 447.637 335.81 448.238C338.032 448.954 340.38 449.196 342.701 448.948C345.351 448.959 347.959 448.282 350.269 446.982C352.762 445.162 354.459 442.452 355.008 439.415C355.364 437.709 355.536 435.97 355.521 434.228C355.531 433.036 355.783 431.86 356.262 430.769C356.741 429.679 357.436 428.697 358.306 427.883C358.677 427.534 360.151 425.786 360.785 425.044C360.436 422.449 359.563 419.952 358.218 417.706L342.417 416.133Z" fill="#40495E"/>
<path d="M296.924 266.999C296.924 266.999 292.687 319.961 293.058 334.703C293.429 349.445 294.98 407.648 294.98 407.648C303.64 412.475 316.154 408.882 316.154 408.882C317.17 362.407 321.767 352.415 318.644 335.401C320.828 322.778 323.896 293.349 323.896 293.349C328.21 328.74 331.344 346.977 331.344 346.977L341.652 417.826C350.115 422.03 360.795 417.826 360.795 417.826C360.795 377.422 361.712 360.354 357.29 333.742C357.254 310.197 355.796 286.676 352.922 263.308L296.924 266.999Z" fill="#2F3646"/>
<path d="M296.924 266.999C296.924 266.999 292.687 319.961 293.058 334.703C293.429 349.445 294.98 407.648 294.98 407.648C303.64 412.475 316.154 408.882 316.154 408.882C317.17 362.407 321.767 352.415 318.644 335.401C320.828 322.778 323.896 293.349 323.896 293.349C328.21 328.74 331.344 346.977 331.344 346.977L341.652 417.826C350.115 422.03 360.795 417.826 360.795 417.826C360.795 377.422 361.712 360.354 357.29 333.742C357.254 310.197 355.796 286.676 352.922 263.308L296.924 266.999Z" fill="url(#paint1_linear)"/>
<path opacity="0.2" d="M307.156 280.682C310.116 287.572 319.376 287.572 319.376 287.572L321.036 295.424L320.413 323.313C322.193 309.751 323.897 293.338 323.897 293.338L322.75 284.951C317.226 285.266 311.75 283.767 307.156 280.682Z" fill="#171E2F"/>
<path d="M311.054 184.902C296.585 184.902 294.215 190.526 290.557 199.851C286.899 209.177 284.07 225.83 284.07 225.83L298.059 222.816L303.519 191.312L311.054 184.902Z" fill="#2F3646"/>
<path d="M311.054 184.902C296.585 184.902 294.215 190.526 290.557 199.851C286.899 209.177 284.07 225.83 284.07 225.83L298.059 222.816L303.519 191.312L311.054 184.902Z" fill="url(#paint2_linear)"/>
<path d="M311.054 184.902C296.585 184.902 294.215 190.526 290.557 199.851C286.899 209.177 284.07 225.83 284.07 225.83L298.059 222.816L303.519 191.312L311.054 184.902Z" fill="url(#paint3_linear)"/>
<path d="M311.054 184.902C296.585 184.902 294.215 190.526 290.557 199.851C286.899 209.177 284.07 225.83 284.07 225.83L298.059 222.816L303.519 191.312L311.054 184.902Z" fill="url(#paint4_linear)"/>
<path d="M298.059 220.534C294.401 220.285 290.738 220.949 287.401 222.467C286.078 222.995 284.905 223.839 283.983 224.924C283.534 225.476 283.243 226.138 283.139 226.841C283.035 227.545 283.123 228.263 283.393 228.921C282.061 231.367 282.181 235.003 282.454 237.995C282.482 238.573 282.607 239.142 282.825 239.677C282.94 239.939 283.111 240.173 283.326 240.362C283.541 240.551 283.795 240.69 284.07 240.769L298.059 228.189V220.534Z" fill="#1D253A"/>
<path opacity="0.2" d="M293.265 223.635C288.297 223.242 284.704 226.103 283.088 227.567C283.092 228.035 283.196 228.496 283.394 228.921C284.54 227.184 289.421 224.028 293.265 223.635Z" fill="#171E2F"/>
<path opacity="0.2" d="M287.838 228.375C290.945 226.585 294.474 225.657 298.059 225.688V224.531C294.313 224.605 290.705 225.962 287.838 228.375Z" fill="#171E2F"/>
<path d="M351.152 185.819L344.36 185.098L311.054 184.869C299.381 184.869 297.885 199.229 297.218 211.94C296.552 224.651 298.693 250.214 295.799 267.293L309.7 276.27L313.598 272.065L319.823 277.864C340.953 277.864 353.402 266.136 354.985 264.116L351.152 185.819Z" fill="#F995A6"/>
<path opacity="0.2" d="M351.152 185.819L344.36 185.098L311.054 184.869C299.381 184.869 297.885 199.229 297.218 211.94C296.552 224.651 298.693 250.214 295.799 267.293L309.7 276.27L313.598 272.065L319.823 277.864C340.953 277.864 353.402 266.136 354.985 264.116L351.152 185.819Z" fill="white"/>
<path d="M316.492 189.27C313.38 199.185 315.335 213.01 316.492 219.224C324.387 208.38 331.78 197.493 334.084 193.234L323.077 187.894L316.492 189.27Z" fill="#2F3646"/>
<path d="M316.492 189.27C313.38 199.185 315.335 213.01 316.492 219.224C324.387 208.38 331.78 197.493 334.084 193.234L323.077 187.894L316.492 189.27Z" fill="url(#paint5_linear)"/>
<path d="M316.492 189.27C313.38 199.185 315.335 213.01 316.492 219.224C324.387 208.38 331.78 197.493 334.084 193.234L323.077 187.894L316.492 189.27Z" fill="url(#paint6_linear)"/>
<path d="M316.492 189.27C313.38 199.185 315.335 213.01 316.492 219.224C324.387 208.38 331.78 197.493 334.084 193.234L323.077 187.894L316.492 189.27Z" fill="url(#paint7_linear)"/>
<path opacity="0.2" d="M315.445 219.988L311.863 224.793C310.883 226.109 310.399 227.73 310.498 229.369L312.901 269.325L308.773 229.674C308.655 228.56 308.809 227.433 309.221 226.391C309.634 225.348 310.293 224.422 311.143 223.69L315.445 219.988Z" fill="#171E2F"/>
<path d="M351.153 185.819L355.674 186.54C358.343 186.969 360.817 188.201 362.768 190.072C364.719 191.943 366.053 194.364 366.594 197.012C369.123 209.626 370.109 222.501 369.531 235.352L348.914 225.852C346.709 209.734 342.472 196.423 351.153 185.819Z" fill="url(#paint8_linear)"/>
<path d="M351.153 185.819L355.674 186.54C358.343 186.969 360.817 188.201 362.768 190.072C364.719 191.943 366.053 194.364 366.594 197.012C369.123 209.626 370.109 222.501 369.531 235.352L348.914 225.852C346.709 209.734 342.472 196.423 351.153 185.819Z" fill="url(#paint9_linear)"/>
<path d="M351.153 185.819L355.674 186.54C358.343 186.969 360.817 188.201 362.768 190.072C364.719 191.943 366.053 194.364 366.594 197.012C369.123 209.626 370.109 222.501 369.531 235.352L348.914 225.852C346.709 209.734 342.472 196.423 351.153 185.819Z" fill="url(#paint10_linear)"/>
<path d="M348.193 226.474C348.193 226.282 348.232 226.091 348.306 225.914C348.38 225.736 348.489 225.575 348.626 225.44C348.764 225.305 348.926 225.198 349.105 225.126C349.284 225.055 349.475 225.019 349.668 225.022C359.004 225.142 368.068 229.587 370.547 234.85C371.112 236.484 371.112 238.261 370.547 239.895C372.206 242.079 371.344 243.171 370.47 244.733C369.597 246.294 370.907 249.832 368.09 249.669L368.745 248.325C363.165 237.504 349.089 233.037 349.089 233.037L349.012 231.247C349.003 231.084 348.962 230.925 348.891 230.779C348.819 230.633 348.72 230.502 348.597 230.395C348.47 230.279 348.368 230.137 348.298 229.979C348.228 229.821 348.193 229.65 348.193 229.477V226.474Z" fill="#1D253A"/>
<path opacity="0.2" d="M358.754 230.93C363.332 232.935 367.372 235.992 370.548 239.851C370.727 239.3 370.855 238.734 370.93 238.159C369.379 236.226 366.027 232.666 358.754 230.93Z" fill="#171E2F"/>
<path opacity="0.2" d="M348.248 229.816C348.315 230.028 348.435 230.22 348.597 230.373C348.72 230.48 348.82 230.611 348.891 230.757C348.962 230.903 349.003 231.062 349.012 231.225V231.367C355.539 232.374 361.574 235.434 366.244 240.103C361.931 233.845 352.452 230.635 348.248 229.816Z" fill="#171E2F"/>
<path d="M348.738 233.285L348.726 233.032L348.661 231.63C340.827 228.976 330.068 227.903 320.206 227.484C313.114 227.183 306.519 227.221 301.827 227.248C299.93 227.259 298.344 227.268 297.161 227.252C295.751 227.253 294.166 227.819 292.573 228.761C290.985 229.7 289.417 230.997 288.048 232.415C286.68 233.835 285.521 235.366 284.746 236.767C283.96 238.188 283.605 239.407 283.74 240.23C283.777 240.456 283.812 240.679 283.846 240.897C283.958 241.611 284.063 242.282 284.219 242.918C284.421 243.742 284.702 244.474 285.168 245.102C286.088 246.343 287.811 247.284 291.434 247.571C293.986 247.731 297.745 247.322 300.891 246.866C302.459 246.639 303.866 246.402 304.881 246.221C305.389 246.131 305.798 246.054 306.08 246.001C306.221 245.974 306.331 245.953 306.405 245.939L306.489 245.922L306.51 245.918L306.515 245.917L306.516 245.917L306.517 245.917L306.587 246.272L306.517 245.917L306.606 245.899L306.694 245.926C320.434 250.146 333.936 251.885 344.519 252.473C355.11 253.062 362.752 252.498 364.769 252.129L364.783 252.127L364.783 252.127C365.628 252.005 366.373 251.367 366.931 250.695C367.204 250.367 367.419 250.045 367.566 249.805C367.64 249.686 367.695 249.587 367.733 249.52C367.751 249.486 367.765 249.46 367.774 249.443L367.784 249.424L367.785 249.422L367.786 249.419L367.786 249.419L348.738 233.285ZM348.738 233.285L348.979 233.361L348.979 233.361L348.981 233.362L348.987 233.364L349.016 233.373C349.042 233.382 349.081 233.395 349.132 233.412C349.234 233.446 349.385 233.498 349.581 233.569C349.972 233.71 350.538 233.923 351.236 234.213C352.631 234.794 354.551 235.679 356.644 236.898C360.794 239.316 365.59 243.027 368.359 248.244L348.738 233.285Z" fill="white" stroke="#C7C3C1" stroke-width="0.7252"/>
<path d="M360.096 239.502C359.677 238.129 358.469 238.196 357.595 237.056C354.919 235.397 352.066 234.042 349.089 233.016L349.012 231.367L347.986 231.028L348.193 233.07C343.694 233.376 317.322 243.357 306.588 245.508C308.695 246.153 309.973 246.611 312.048 247.146C324.06 242.986 341.543 234.676 349.176 233.496C354.494 234.861 357.606 235.964 360.096 239.502Z" fill="#C7C3C1"/>
<path d="M346.37 156.182C348.018 150.657 347.658 144.302 344.349 139.573C342.172 136.571 339.121 134.314 335.613 133.108C332.104 131.914 328.391 131.435 324.693 131.7C321.777 131.755 318.908 132.444 316.285 133.72C314.714 134.558 313.324 135.698 312.194 137.074C311.064 138.45 310.217 140.036 309.701 141.74C309.185 143.444 309.009 145.233 309.185 147.005C309.362 148.777 309.885 150.496 310.727 152.066C312.141 154.479 313.993 156.608 316.187 158.345C320.426 161.971 325.081 165.079 330.055 167.605C331.3 168.238 332.567 168.828 333.844 169.385C334.707 169.767 336.356 170.837 337.328 170.641C338.3 170.444 339.326 168.62 339.916 167.878C340.757 166.786 341.576 165.694 342.318 164.602C344.072 162.008 345.437 159.171 346.37 156.182Z" fill="#2F3646"/>
<path d="M346.37 156.182C348.018 150.657 347.658 144.302 344.349 139.573C342.172 136.571 339.121 134.314 335.613 133.108C332.104 131.914 328.391 131.435 324.693 131.7C321.777 131.755 318.908 132.444 316.285 133.72C314.714 134.558 313.324 135.698 312.194 137.074C311.064 138.45 310.217 140.036 309.701 141.74C309.185 143.444 309.009 145.233 309.185 147.005C309.362 148.777 309.885 150.496 310.727 152.066C312.141 154.479 313.993 156.608 316.187 158.345C320.426 161.971 325.081 165.079 330.055 167.605C331.3 168.238 332.567 168.828 333.844 169.385C334.707 169.767 336.356 170.837 337.328 170.641C338.3 170.444 339.326 168.62 339.916 167.878C340.757 166.786 341.576 165.694 342.318 164.602C344.072 162.008 345.437 159.171 346.37 156.182Z" fill="url(#paint11_linear)"/>
<path d="M346.37 156.182C348.018 150.657 347.658 144.302 344.349 139.573C342.172 136.571 339.121 134.314 335.613 133.108C332.104 131.914 328.391 131.435 324.693 131.7C321.777 131.755 318.908 132.444 316.285 133.72C314.714 134.558 313.324 135.698 312.194 137.074C311.064 138.45 310.217 140.036 309.701 141.74C309.185 143.444 309.009 145.233 309.185 147.005C309.362 148.777 309.885 150.496 310.727 152.066C312.141 154.479 313.993 156.608 316.187 158.345C320.426 161.971 325.081 165.079 330.055 167.605C331.3 168.238 332.567 168.828 333.844 169.385C334.707 169.767 336.356 170.837 337.328 170.641C338.3 170.444 339.326 168.62 339.916 167.878C340.757 166.786 341.576 165.694 342.318 164.602C344.072 162.008 345.437 159.171 346.37 156.182Z" fill="url(#paint12_linear)"/>
<path d="M321.09 198.399L318.381 197.755C317.07 201.221 315.976 204.766 315.105 208.369C315.391 212.032 315.868 215.677 316.536 219.289C318.087 217.16 319.615 215.041 321.09 212.956C320.6 208.116 320.6 203.239 321.09 198.399Z" fill="#F995A6"/>
<path opacity="0.2" d="M321.035 198.978C321.035 198.781 321.035 198.585 321.035 198.399L318.327 197.755C318.327 197.755 318.261 197.908 318.174 198.159C318.609 198.556 319.14 198.834 319.714 198.967C320.149 199.054 320.598 199.058 321.035 198.978Z" fill="#171E2F"/>
<path d="M322.553 191.29L324.737 189.915L329.716 192.623C328.016 193.937 325.98 194.747 323.841 194.96L322.553 191.29Z" fill="#F995A6"/>
<path d="M319.255 190.755L318.599 189.27L316.088 190.843C316.36 191.796 316.935 192.636 317.726 193.234L319.255 190.755Z" fill="#F995A6"/>
<path opacity="0.2" d="M322.553 191.29L324.737 189.915L329.716 192.623C328.016 193.937 325.98 194.747 323.841 194.96L322.553 191.29Z" fill="#171E2F"/>
<path opacity="0.2" d="M319.255 190.755L318.599 189.27L316.088 190.843C316.36 191.796 316.935 192.636 317.726 193.234L319.255 190.755Z" fill="#171E2F"/>
<path d="M323.798 194.96C323.584 193.677 323.164 192.438 322.553 191.29L319.277 190.755C318.673 191.528 318.16 192.367 317.748 193.256C317.674 194.784 317.897 196.312 318.403 197.755C319.24 198.189 320.17 198.41 321.112 198.399C322.344 197.562 323.284 196.359 323.798 194.96Z" fill="#F995A6"/>
<path d="M337.743 165.781V180.862C334.74 185 322.127 190.253 321.363 190.122C320.445 189.969 321.363 181.845 321.363 181.135V175.074C323.809 174.703 326.222 174.277 328.384 173.818C330.497 173.38 332.464 172.413 334.101 171.008C335.738 169.602 336.991 167.804 337.743 165.781Z" fill="white"/>
<path d="M327.084 177.362C325.375 177.834 323.634 178.164 321.877 178.35V175.019C324.21 174.642 326.511 174.209 328.573 173.743C330.454 173.323 332.213 172.433 333.707 171.145C335.201 169.858 336.386 168.21 337.165 166.338C336.783 168.92 335.696 171.326 334.041 173.254C332.11 175.265 329.707 176.684 327.084 177.362Z" fill="#C7C3C1"/>
<path d="M311.971 142.03C314.444 144.412 317.713 145.79 321.144 145.896C324.42 145.896 327.5 144.859 330.612 144.007C330.905 145.522 331.669 146.905 332.796 147.96C334.034 149.011 335.552 149.679 337.164 149.882C336.711 152.776 336.711 155.723 337.164 158.618C337.202 158.923 337.324 159.211 337.517 159.451C337.71 159.69 337.966 159.87 338.256 159.972C339.348 160.278 340.003 159.207 340.505 158.334C341.049 157.316 341.832 156.447 342.788 155.8C343.263 155.478 343.812 155.279 344.383 155.22C344.955 155.16 345.532 155.244 346.064 155.462C346.482 155.675 346.853 155.972 347.151 156.335C347.45 156.697 347.671 157.118 347.8 157.569C348.054 158.479 348.103 159.434 347.942 160.365C347.745 161.925 347.117 163.4 346.129 164.624C345.631 165.228 345.014 165.724 344.318 166.083C343.621 166.442 342.859 166.655 342.078 166.709C341.316 166.776 340.55 166.632 339.865 166.293C339.179 165.954 338.6 165.434 338.19 164.788L338.114 165.071C338.007 165.533 337.864 165.986 337.688 166.426C337 168.257 335.86 169.884 334.375 171.158C332.89 172.431 331.107 173.309 329.192 173.709C327.216 174.124 325.021 174.517 322.793 174.801C321.701 174.965 320.609 175.129 319.517 175.26C317.491 175.502 315.45 174.958 313.814 173.738C312.178 172.519 311.073 170.718 310.727 168.708C309.242 160.354 308.772 150.45 311.971 142.03Z" fill="white"/>
<path d="M306.02 151.421V153.431L306.511 153.715C306.785 155.019 306.939 156.346 306.97 157.679C307.002 158.976 307.489 160.22 308.345 161.195C309.404 161.977 310.715 162.339 312.026 162.21C313.071 162.305 314.124 162.143 315.094 161.741C316.223 161.07 317.058 159.997 317.431 158.738C317.879 157.482 317.802 156.75 318.348 155.233C318.417 155.027 318.55 154.849 318.726 154.724C318.903 154.598 319.114 154.532 319.331 154.534C319.564 154.518 319.795 154.578 319.992 154.704C320.188 154.829 320.34 155.015 320.423 155.233C321.002 156.75 320.925 157.482 321.395 158.738C321.816 160.02 322.71 161.094 323.896 161.741C324.938 162.141 326.058 162.302 327.172 162.21C328.56 162.342 329.952 161.983 331.103 161.195C332.011 160.246 332.533 158.992 332.566 157.679C332.602 156.345 332.767 155.017 333.057 153.715L333.593 153.431V151.421C331.448 150.532 329.116 150.189 326.806 150.424C324.496 150.658 322.28 151.462 320.357 152.765H318.436C316.67 151.463 314.59 150.653 312.409 150.417C310.228 150.181 308.023 150.527 306.02 151.421ZM321.308 153.398C323.334 152.126 325.675 151.446 328.067 151.432C329.2 151.433 330.328 151.587 331.419 151.891C331.507 153.42 331.561 155.538 331.496 156.499C331.496 156.849 331.496 157.198 331.419 157.537C331.418 158.575 331.028 159.576 330.327 160.343C329.357 160.971 328.201 161.249 327.051 161.129H326.615C325.813 161.176 325.012 161.046 324.267 160.747C323.325 160.22 322.616 159.359 322.279 158.334C321.815 157.104 321.492 155.826 321.318 154.523L321.242 153.802C321.242 153.802 321.253 153.463 321.362 153.398H321.308ZM307.909 151.891C308.929 151.588 309.989 151.433 311.054 151.432C313.306 151.45 315.502 152.134 317.365 153.398C317.475 153.463 317.442 153.802 317.442 153.802L317.376 154.523C317.213 155.822 316.909 157.1 316.47 158.334C316.172 159.34 315.51 160.201 314.614 160.747C313.926 161.044 313.177 161.175 312.43 161.129H312.047C310.97 161.242 309.889 160.962 309.001 160.343C308.309 159.571 307.921 158.574 307.909 157.537C307.909 157.198 307.909 156.849 307.832 156.499C307.832 155.538 307.887 153.42 307.963 151.891H307.909Z" fill="#2F3646"/>
<path d="M333.561 151.421L344.339 155.298C343.563 155.438 342.837 155.777 342.231 156.281C342.111 156.379 333.561 153.431 333.561 153.431V151.421Z" fill="#2F3646"/>
<path d="M319.376 154.697L313.938 161.282L318.928 163.04L319.376 154.697Z" fill="white"/>
<path d="M319.376 154.697L313.938 161.282L318.928 163.04L319.376 154.697Z" fill="#C7C3C1"/>
<path d="M327.053 155.516C327.055 155.813 326.969 156.103 326.806 156.351C326.643 156.598 326.41 156.791 326.137 156.906C325.864 157.021 325.562 157.052 325.271 156.996C324.981 156.939 324.713 156.798 324.503 156.589C324.292 156.38 324.149 156.114 324.09 155.823C324.031 155.533 324.06 155.231 324.173 154.957C324.286 154.683 324.478 154.449 324.724 154.284C324.971 154.119 325.26 154.031 325.557 154.031C325.753 154.03 325.947 154.067 326.128 154.141C326.31 154.215 326.475 154.324 326.614 154.462C326.753 154.6 326.863 154.765 326.939 154.946C327.014 155.126 327.053 155.32 327.053 155.516Z" fill="#2F3646"/>
<path d="M314.516 155.112C314.518 155.408 314.432 155.698 314.269 155.945C314.107 156.192 313.875 156.386 313.602 156.501C313.33 156.616 313.029 156.648 312.738 156.592C312.448 156.537 312.18 156.396 311.969 156.189C311.759 155.981 311.614 155.715 311.554 155.426C311.495 155.136 311.522 154.835 311.633 154.561C311.744 154.286 311.934 154.051 312.179 153.885C312.424 153.719 312.713 153.629 313.009 153.627C313.205 153.626 313.4 153.663 313.582 153.737C313.764 153.811 313.93 153.92 314.07 154.057C314.21 154.195 314.321 154.359 314.397 154.54C314.474 154.721 314.514 154.916 314.516 155.112Z" fill="#2F3646"/>
<path d="M315.325 148.484L311.328 148.942C311.4 148.513 311.599 148.116 311.899 147.801C312.198 147.486 312.585 147.267 313.01 147.173C313.48 147.153 313.946 147.265 314.355 147.497C314.764 147.728 315.1 148.07 315.325 148.484Z" fill="#2F3646"/>
<path d="M324.061 148.866H328.079C327.963 148.447 327.72 148.074 327.384 147.798C327.048 147.523 326.635 147.358 326.201 147.326C325.736 147.359 325.29 147.521 324.912 147.793C324.534 148.065 324.24 148.436 324.061 148.866Z" fill="#2F3646"/>
<path d="M324.672 165.683L318.928 167.43C319.292 168.106 319.866 168.645 320.563 168.966C321.26 169.288 322.043 169.373 322.793 169.21C324.202 168.85 324.846 167.135 324.672 165.683Z" fill="white"/>
<path d="M324.672 165.683L318.928 167.43C319.292 168.106 319.866 168.645 320.563 168.966C321.26 169.288 322.043 169.373 322.793 169.21C324.202 168.85 324.846 167.135 324.672 165.683Z" fill="#86807C"/>
<path d="M320.914 169.123C321.516 169.342 322.169 169.38 322.792 169.232C323.325 169.032 323.787 168.678 324.12 168.215C324.452 167.753 324.64 167.202 324.66 166.633C323.907 166.526 323.14 166.668 322.476 167.037C321.699 167.498 321.138 168.248 320.914 169.123Z" fill="white"/>
<path d="M320.914 169.123C321.516 169.342 322.169 169.38 322.792 169.232C323.325 169.032 323.787 168.678 324.12 168.215C324.452 167.753 324.64 167.202 324.66 166.633C323.907 166.526 323.14 166.668 322.476 167.037C321.699 167.498 321.138 168.248 320.914 169.123Z" fill="#C7C3C1"/>
<path d="M321.395 190.122C326.625 190.034 329.825 194.206 334.608 195.582L344.359 185.055L340.581 179.442C339.823 178.324 338.842 177.376 337.698 176.657V178.688C337.686 179.283 337.521 179.865 337.219 180.378C336.917 180.89 336.488 181.317 335.973 181.615L321.395 190.122Z" fill="#2F3646"/>
<path d="M321.395 190.122C318.491 189.226 314.145 192.863 314.145 192.863C315.662 184.444 320.26 181.135 321.384 181.135L321.395 190.122Z" fill="#2F3646"/>
<path d="M213.562 395.552L200.765 395.922L187.967 395.552C187.415 404.187 189.098 412.984 191.422 417.281C191.972 418.386 192.859 419.287 193.955 419.854C197.727 422.03 203.823 422.03 207.574 419.854C208.687 419.28 209.576 418.351 210.1 417.214C212.437 412.869 214.108 404.113 213.562 395.552Z" fill="#FBB5C1"/>
<path d="M209.784 390.318C214.796 393.208 214.823 397.896 209.845 400.786C204.867 403.675 196.778 403.682 191.766 400.786C186.755 397.889 186.728 393.208 191.706 390.318C196.683 387.429 204.78 387.422 209.784 390.318Z" fill="#CD7887"/>
<path d="M207.804 391.463C211.71 393.72 211.73 397.384 207.851 399.634C203.971 401.884 197.653 401.89 193.746 399.634C189.84 397.377 189.819 393.72 193.699 391.463C197.579 389.207 203.897 389.214 207.804 391.463Z" fill="#E0E0E0"/>
<path d="M207.804 391.463C211.71 393.72 211.73 397.384 207.851 399.634C203.971 401.884 197.653 401.89 193.746 399.634C189.84 397.377 189.819 393.72 193.699 391.463C197.579 389.207 203.897 389.214 207.804 391.463Z" fill="#AE6673"/>
<path d="M221.794 341C192.985 350.43 192.723 369.707 199.216 383.435C200.859 386.21 205.817 387.705 210.127 370.637L202.563 371.607L211.38 367.141L213.67 360.291L206.315 360.836L215.651 356.91C217.367 351.484 219.418 346.171 221.794 341Z" fill="#F995A6"/>
<path opacity="0.2" d="M221.794 341C192.985 350.43 192.723 369.707 199.216 383.435C200.859 386.21 205.817 387.705 210.127 370.637L202.563 371.607L211.38 367.141L213.67 360.291L206.315 360.836L215.651 356.91C217.367 351.484 219.418 346.171 221.794 341Z" fill="#171E2F"/>
<path d="M213.643 345.816C198.441 357.347 197.094 370.569 201.371 384.371C199.855 372.22 198.212 359.934 213.643 345.816Z" fill="white"/>
<path d="M173 360.581C201.397 364.575 204.839 382.485 201.074 396.347C200.01 399.203 195.638 401.419 188.788 386.243L195.995 385.886L187.037 383.192L183.77 377.17L190.708 376.497L181.366 374.389C178.865 369.617 176.071 365.006 173 360.581Z" fill="#F995A6"/>
<path opacity="0.2" d="M173 360.581C201.397 364.575 204.839 382.485 201.074 396.347C200.01 399.203 195.638 401.419 188.788 386.243L195.995 385.886L187.037 383.192L183.77 377.17L190.708 376.497L181.366 374.389C178.865 369.617 176.071 365.006 173 360.581Z" fill="white"/>
<path d="M181.387 363.699C197.451 371.916 200.92 384 199.223 397.566C198.616 386.007 198.105 374.294 181.387 363.699Z" fill="white"/>
<path d="M230.098 367.289C204.058 367.713 198.945 383.455 200.791 396.38C201.464 399.075 205.122 401.56 212.996 388.648L206.523 387.523L214.902 386.095L218.519 381.057L212.343 379.635L221.005 378.787C223.796 374.771 226.833 370.931 230.098 367.289Z" fill="#F995A6"/>
<path d="M222.19 369.175C206.792 374.779 202.313 385.253 202.326 397.701C204.165 387.341 205.943 376.84 222.19 369.175Z" fill="white"/>
<defs>
<linearGradient id="paint0_linear" x1="157.772" y1="134.722" x2="157.772" y2="173.949" gradientUnits="userSpaceOnUse">
<stop stop-color="#3B455B"/>
<stop offset="1" stop-color="#202A40"/>
</linearGradient>
<linearGradient id="paint1_linear" x1="326.955" y1="263.308" x2="326.955" y2="419.694" gradientUnits="userSpaceOnUse">
<stop stop-color="#2F3646"/>
<stop offset="1" stop-color="#252C3D"/>
</linearGradient>
<linearGradient id="paint2_linear" x1="297.562" y1="184.902" x2="297.562" y2="225.83" gradientUnits="userSpaceOnUse">
<stop stop-color="#3B455B"/>
<stop offset="1" stop-color="#202A40"/>
</linearGradient>
<linearGradient id="paint3_linear" x1="297.562" y1="184.902" x2="297.562" y2="225.83" gradientUnits="userSpaceOnUse">
<stop stop-color="#3B455B"/>
<stop offset="1" stop-color="#2A3143"/>
</linearGradient>
<linearGradient id="paint4_linear" x1="297.562" y1="184.902" x2="297.562" y2="225.83" gradientUnits="userSpaceOnUse">
<stop stop-color="#2F3646"/>
<stop offset="1" stop-color="#252C3D"/>
</linearGradient>
<linearGradient id="paint5_linear" x1="324.449" y1="187.894" x2="324.449" y2="219.224" gradientUnits="userSpaceOnUse">
<stop stop-color="#3B455B"/>
<stop offset="1" stop-color="#202A40"/>
</linearGradient>
<linearGradient id="paint6_linear" x1="324.449" y1="187.894" x2="324.449" y2="219.224" gradientUnits="userSpaceOnUse">
<stop stop-color="#3B455B"/>
<stop offset="1" stop-color="#2A3143"/>
</linearGradient>
<linearGradient id="paint7_linear" x1="324.449" y1="187.894" x2="324.449" y2="219.224" gradientUnits="userSpaceOnUse">
<stop stop-color="#2F3646"/>
<stop offset="1" stop-color="#252C3D"/>
</linearGradient>
<linearGradient id="paint8_linear" x1="357.805" y1="185.819" x2="357.805" y2="235.352" gradientUnits="userSpaceOnUse">
<stop stop-color="#3B455B"/>
<stop offset="1" stop-color="#202A40"/>
</linearGradient>
<linearGradient id="paint9_linear" x1="357.805" y1="185.819" x2="357.805" y2="235.352" gradientUnits="userSpaceOnUse">
<stop stop-color="#3B455B"/>
<stop offset="1" stop-color="#2A3143"/>
</linearGradient>
<linearGradient id="paint10_linear" x1="357.805" y1="185.819" x2="357.805" y2="235.352" gradientUnits="userSpaceOnUse">
<stop stop-color="#2F3646"/>
<stop offset="1" stop-color="#252C3D"/>
</linearGradient>
<linearGradient id="paint11_linear" x1="328.223" y1="131.629" x2="328.223" y2="170.664" gradientUnits="userSpaceOnUse">
<stop stop-color="#3B455B"/>
<stop offset="1" stop-color="#202A40"/>
</linearGradient>
<linearGradient id="paint12_linear" x1="328.223" y1="131.629" x2="328.223" y2="170.664" gradientUnits="userSpaceOnUse">
<stop stop-color="#3B455B"/>
<stop offset="1" stop-color="#2A3143"/>
</linearGradient>
</defs>
</svg>
