<svg width="666" height="389" viewBox="0 0 666 389" fill="none" xmlns="http://www.w3.org/2000/svg">
<g clip-path="url(#clip0)">
<path d="M70.5156 219.175H124.257C127.969 219.175 130.979 216.164 130.979 212.453V138.074C130.979 134.362 127.969 131.352 124.257 131.352H90.1759L63.7935 158.542V212.453C63.7935 216.164 66.8037 219.175 70.5156 219.175Z" fill="#EBEBEB"/>
<path d="M90.1758 131.352V152.282C90.1758 155.736 87.3786 158.533 83.9243 158.533H63.7933L90.1758 131.352Z" fill="#F5F5F5"/>
<path d="M89.9004 154.12C89.9004 154.12 90.1669 159.199 84.386 160.869C84.1729 160.931 83.942 160.975 83.72 161.02C81.0915 161.491 63.7933 164.563 63.7933 164.172C63.7933 163.746 63.7933 158.551 63.7933 158.551H83.9242C83.9242 158.542 88.9503 158.374 89.9004 154.12Z" fill="#E0E0E0"/>
<path d="M70.5157 219.174C70.5157 219.139 70.1161 219.183 69.3524 219.041C68.6065 218.899 67.4698 218.562 66.3065 217.62C65.1788 216.688 64.0155 215.054 63.9001 212.879C63.8646 210.712 63.909 208.19 63.9001 205.384C63.9179 194.124 63.9445 178.007 63.98 158.542L63.9267 158.675C71.9098 150.452 80.8254 141.288 90.327 131.502L90.1671 131.573C96.4897 131.573 103.061 131.582 109.836 131.582C113.22 131.582 116.656 131.582 120.119 131.582C120.99 131.582 121.86 131.582 122.73 131.582C123.6 131.591 124.488 131.538 125.314 131.68C126.984 131.946 128.538 132.914 129.532 134.308C130.225 135.276 130.651 136.431 130.722 137.612C130.767 138.802 130.731 140.054 130.749 141.261C130.749 143.694 130.749 146.119 130.749 148.516C130.749 153.32 130.749 158.053 130.749 162.698C130.758 171.995 130.758 180.964 130.767 189.515C130.767 193.787 130.775 197.951 130.775 202.001C130.775 204.025 130.775 206.023 130.784 207.986C130.784 208.971 130.784 209.939 130.784 210.907C130.767 211.875 130.846 212.834 130.66 213.74C130.314 215.56 129.142 217.15 127.614 218.064C126.85 218.526 125.998 218.819 125.137 218.944C124.275 219.05 123.37 218.997 122.49 219.015C118.965 219.024 115.582 219.024 112.349 219.032C99.4379 219.059 88.9772 219.086 81.74 219.103C78.1347 219.121 75.3375 219.139 73.4194 219.148C72.4782 219.157 71.7589 219.166 71.2527 219.174C70.7643 219.166 70.5157 219.174 70.5157 219.174C70.5157 219.174 70.7643 219.192 71.2527 219.201C71.75 219.21 72.4782 219.21 73.4194 219.228C75.3375 219.237 78.1347 219.254 81.74 219.272C88.9772 219.29 99.4379 219.317 112.349 219.343C115.582 219.352 118.965 219.352 122.49 219.361C123.37 219.343 124.257 219.405 125.181 219.299C126.096 219.174 126.993 218.864 127.801 218.384C129.417 217.425 130.651 215.747 131.024 213.82C131.219 212.852 131.14 211.875 131.157 210.916C131.157 209.948 131.157 208.98 131.157 207.995C131.157 206.032 131.157 204.034 131.166 202.009C131.166 197.96 131.175 193.795 131.175 189.524C131.175 180.982 131.184 172.013 131.193 162.707C131.193 158.053 131.193 153.32 131.193 148.525C131.193 146.128 131.193 143.703 131.193 141.27C131.184 140.045 131.219 138.846 131.166 137.594C131.086 136.333 130.633 135.09 129.896 134.051C128.84 132.559 127.17 131.52 125.376 131.236C124.471 131.085 123.592 131.147 122.721 131.138C121.851 131.138 120.981 131.138 120.111 131.138C116.638 131.138 113.211 131.138 109.827 131.138C103.061 131.138 96.4809 131.147 90.1583 131.147H90.0606L89.9984 131.218C80.5057 141.013 71.6168 150.195 63.6337 158.426L63.5804 158.48V158.56C63.6159 178.025 63.6426 194.142 63.6603 205.402C63.6781 208.217 63.6514 210.721 63.7047 212.905C63.8379 215.143 65.0545 216.795 66.2089 217.727C67.4077 218.677 68.5621 218.997 69.3169 219.112C69.6987 219.174 69.9918 219.192 70.196 219.192C70.418 219.183 70.5157 219.174 70.5157 219.174Z" fill="#E0E0E0"/>
<path d="M63.7935 158.542C63.7935 158.56 63.9711 158.578 64.3085 158.587C64.6992 158.595 65.1877 158.613 65.7915 158.631C67.1413 158.649 68.9883 158.675 71.2438 158.702C73.5615 158.72 76.3055 158.729 79.3335 158.746C80.8609 158.746 82.4592 158.746 84.1109 158.746C85.8248 158.711 87.583 157.929 88.7818 156.553C89.3857 155.869 89.8385 155.07 90.1049 154.227C90.3891 153.392 90.4246 152.468 90.398 151.66C90.3891 150.009 90.3892 148.41 90.3803 146.883C90.3625 143.855 90.3447 141.12 90.3269 138.793C90.3003 136.538 90.2737 134.691 90.2559 133.341C90.2382 132.737 90.2204 132.249 90.2115 131.858C90.1938 131.52 90.1849 131.343 90.1671 131.343C90.1493 131.343 90.1316 131.52 90.1227 131.858C90.1138 132.249 90.0961 132.737 90.0783 133.341C90.0606 134.691 90.0339 136.538 90.0073 138.793C89.9895 141.111 89.9806 143.855 89.954 146.883C89.954 148.41 89.9451 150 89.9363 151.66C90.0428 153.294 89.5722 154.972 88.4267 156.251C87.3078 157.53 85.6827 158.258 84.0843 158.294C82.4326 158.302 80.8342 158.311 79.3158 158.32C76.2877 158.338 73.5526 158.356 71.2261 158.374C68.9706 158.4 67.1235 158.427 65.7737 158.445C65.1699 158.462 64.6815 158.48 64.2908 158.489C63.9711 158.507 63.7935 158.524 63.7935 158.542Z" fill="#E0E0E0"/>
<path d="M91.1882 150.026C91.1882 150.15 97.5375 150.257 105.361 150.257C113.193 150.257 119.533 150.15 119.533 150.026C119.533 149.901 113.184 149.795 105.361 149.795C97.5375 149.795 91.1882 149.901 91.1882 150.026Z" fill="#E0E0E0"/>
<path d="M77.7349 160.469C77.7349 160.593 87.0945 160.7 98.6385 160.7C110.182 160.7 119.542 160.593 119.542 160.469C119.542 160.345 110.182 160.238 98.6385 160.238C87.0945 160.238 77.7349 160.345 77.7349 160.469Z" fill="#E0E0E0"/>
<path d="M77.7349 170.912C77.7349 171.036 87.0945 171.142 98.6385 171.142C110.182 171.142 119.542 171.036 119.542 170.912C119.542 170.787 110.182 170.681 98.6385 170.681C87.0945 170.681 77.7349 170.787 77.7349 170.912Z" fill="#E0E0E0"/>
<path d="M77.7349 181.355C77.7349 181.479 87.0945 181.586 98.6385 181.586C110.182 181.586 119.542 181.479 119.542 181.355C119.542 181.231 110.182 181.124 98.6385 181.124C87.0945 181.124 77.7349 181.231 77.7349 181.355Z" fill="#E0E0E0"/>
<path d="M77.7349 191.797C77.7349 191.922 87.0945 192.028 98.6385 192.028C110.182 192.028 119.542 191.922 119.542 191.797C119.542 191.673 110.182 191.566 98.6385 191.566C87.0945 191.566 77.7349 191.673 77.7349 191.797Z" fill="#E0E0E0"/>
<path d="M77.7349 204.682C77.7349 204.806 87.0945 204.913 98.6385 204.913C110.182 204.913 119.542 204.806 119.542 204.682C119.542 204.558 110.182 204.451 98.6385 204.451C87.0945 204.451 77.7349 204.549 77.7349 204.682Z" fill="#E0E0E0"/>
<path d="M134.301 315.221L174.989 386.385L255.495 387.548C258.052 387.584 260.148 389.599 260.29 392.157L178.416 392.388L175.335 392.281L72.8244 392.485L52.1073 356.761L25.6449 318.835C23.9133 316.348 25.6982 312.938 28.7263 312.947L131.059 313.338C132.4 313.338 133.635 314.057 134.301 315.221Z" fill="#EBEBEB"/>
<path d="M25.6361 315.638C25.6361 315.656 25.8048 315.673 26.1245 315.691C26.5063 315.709 26.9858 315.718 27.563 315.744C28.9128 315.771 30.7599 315.798 33.0953 315.842C37.9882 315.878 44.9234 315.94 53.4571 316.002C70.7198 316.037 94.4294 316.091 120.617 316.153C122.259 316.153 123.884 316.153 125.509 316.153C127.046 316.037 128.44 316.712 129.239 317.911C130.784 320.691 132.303 323.434 133.794 326.125C136.787 331.533 139.682 336.754 142.435 341.727C147.949 351.646 152.922 360.579 157.122 368.11C161.305 375.542 164.697 381.59 167.094 385.852C168.258 387.877 169.181 389.484 169.847 390.647C170.149 391.144 170.389 391.553 170.584 391.881C170.753 392.157 170.851 392.29 170.868 392.281C170.886 392.272 170.815 392.121 170.673 391.828C170.495 391.482 170.282 391.064 170.025 390.541C169.394 389.351 168.533 387.717 167.432 385.648C165.105 381.341 161.802 375.249 157.735 367.746C153.597 360.18 148.686 351.211 143.243 341.257C140.508 336.275 137.631 331.045 134.656 325.628C133.155 322.911 131.628 320.149 130.074 317.343C129.124 315.833 127.205 314.981 125.501 315.123C123.884 315.123 122.25 315.123 120.608 315.123C94.4205 315.185 70.7109 315.229 53.4482 315.274C44.9146 315.345 37.9882 315.398 33.0864 315.434C30.751 315.478 28.8951 315.505 27.5542 315.531C26.9681 315.549 26.4974 315.567 26.1156 315.585C25.8048 315.602 25.6361 315.62 25.6361 315.638Z" fill="#E0E0E0"/>
<path d="M97.777 351.416C99.5885 353.423 99.6329 356.335 97.8747 357.925C96.1165 359.514 93.2216 359.168 91.4101 357.161C89.5986 355.154 89.5542 352.242 91.3124 350.652C93.0707 349.063 95.9655 349.409 97.777 351.416Z" fill="white"/>
<path d="M615.881 316.562C615.881 317.334 615.881 359.123 615.881 359.123H622.985V363.741H615.881V392.228H483.054V366.307H492.893V360.66H483.054V352.188H478.685V348.343H483.88V316.562H615.881Z" fill="#F5F5F5"/>
<path d="M518.326 316.677V391.748H483.055V365.828H492.894V360.66L483.055 360.828V352.366H478.597L478.677 347.997L483.872 347.864V316.562L518.326 316.677Z" fill="#E0E0E0"/>
<path d="M515.813 363.128C515.813 363.385 539.851 363.599 569.492 363.599C599.143 363.599 623.172 363.385 623.172 363.128C623.172 362.87 599.143 362.657 569.492 362.657C539.851 362.657 515.813 362.861 515.813 363.128Z" fill="#E0E0E0"/>
<path d="M515.813 358.804C515.813 359.061 539.851 359.274 569.492 359.274C599.143 359.274 623.172 359.061 623.172 358.804C623.172 358.546 599.143 358.333 569.492 358.333C539.851 358.333 515.813 358.546 515.813 358.804Z" fill="#E0E0E0"/>
<path d="M508.922 347.171C508.922 347.429 532.96 347.642 562.602 347.642C592.252 347.642 616.281 347.429 616.281 347.171C616.281 346.914 592.252 346.7 562.602 346.7C532.951 346.692 508.922 346.905 508.922 347.171Z" fill="#E0E0E0"/>
<path d="M508.256 378.872C508.256 379.13 532.294 379.343 561.936 379.343C591.586 379.343 615.615 379.13 615.615 378.872C615.615 378.615 591.586 378.401 561.936 378.401C532.294 378.401 508.256 378.615 508.256 378.872Z" fill="#E0E0E0"/>
<path d="M172.644 135.392H225.143C228.775 135.392 231.714 132.453 231.714 128.821V56.165C231.714 52.533 228.775 49.5938 225.143 49.5938H191.852L166.082 76.1538V128.821C166.073 132.453 169.012 135.392 172.644 135.392Z" fill="#EBEBEB"/>
<path d="M191.843 49.6025V70.0532C191.843 73.4276 189.108 76.1626 185.733 76.1626H166.073L191.843 49.6025Z" fill="#F5F5F5"/>
<path d="M191.576 71.8379C191.576 71.8379 191.834 76.8018 186.186 78.4269C185.973 78.489 185.76 78.5334 185.538 78.5689C182.972 79.0307 166.073 82.0321 166.073 81.6503C166.073 81.2329 166.073 76.1536 166.073 76.1536H185.733C185.733 76.1625 190.644 75.9937 191.576 71.8379Z" fill="#E0E0E0"/>
<path d="M172.644 135.392C172.644 135.356 172.253 135.401 171.508 135.259C170.779 135.126 169.669 134.797 168.533 133.873C167.432 132.959 166.295 131.369 166.18 129.238C166.144 127.116 166.188 124.665 166.188 121.921C166.206 110.919 166.233 95.1744 166.268 76.1623L166.215 76.2955C174.021 68.268 182.723 59.3081 192.003 49.7532L191.843 49.8243C198.014 49.8243 204.443 49.8331 211.05 49.8331C214.354 49.8331 217.71 49.8331 221.102 49.8331C221.946 49.8331 222.798 49.8331 223.651 49.8331C224.503 49.842 225.365 49.7887 226.173 49.9219C227.807 50.1795 229.325 51.1296 230.293 52.4883C230.968 53.4295 231.385 54.5662 231.456 55.7117C231.501 56.875 231.465 58.0915 231.483 59.2726C231.483 61.6524 231.483 64.0145 231.483 66.3588C231.483 71.0475 231.483 75.6739 231.483 80.2116C231.492 89.2959 231.492 98.0604 231.501 106.408C231.501 110.581 231.51 114.648 231.51 118.609C231.51 120.589 231.51 122.534 231.519 124.452C231.519 125.411 231.519 126.361 231.519 127.302C231.501 128.252 231.581 129.185 231.394 130.064C231.057 131.84 229.911 133.394 228.428 134.282C227.682 134.735 226.857 135.019 226.004 135.134C225.169 135.241 224.281 135.188 223.42 135.205C219.975 135.214 216.671 135.214 213.51 135.223C200.891 135.25 190.679 135.277 183.611 135.294C180.095 135.312 177.351 135.33 175.477 135.339C174.553 135.348 173.852 135.356 173.363 135.365C172.884 135.383 172.644 135.392 172.644 135.392C172.644 135.392 172.884 135.41 173.363 135.419C173.852 135.427 174.553 135.427 175.477 135.445C177.351 135.454 180.086 135.472 183.611 135.49C190.688 135.507 200.9 135.534 213.51 135.561C216.662 135.57 219.975 135.57 223.42 135.578C224.281 135.561 225.143 135.623 226.049 135.516C226.945 135.401 227.825 135.09 228.615 134.619C230.195 133.678 231.403 132.044 231.767 130.162C231.963 129.211 231.883 128.261 231.9 127.329C231.9 126.388 231.9 125.437 231.9 124.478C231.9 122.56 231.9 120.616 231.909 118.635C231.909 114.684 231.918 110.608 231.918 106.434C231.918 98.0871 231.927 89.3225 231.936 80.2383C231.936 75.6917 231.936 71.0741 231.936 66.3855C231.936 64.0411 231.936 61.6791 231.936 59.2992C231.927 58.1004 231.963 56.9283 231.909 55.7028C231.829 54.4685 231.385 53.2519 230.666 52.2396C229.627 50.7833 228.002 49.7621 226.253 49.4868C225.365 49.3359 224.503 49.398 223.66 49.3891C222.807 49.3891 221.955 49.3891 221.111 49.3891C217.719 49.3891 214.371 49.3891 211.059 49.3891C204.443 49.3891 198.023 49.398 191.852 49.398H191.754L191.692 49.4691C182.421 59.0417 173.728 68.0105 165.94 76.0469L165.887 76.1002V76.1801C165.922 95.1922 165.949 110.936 165.966 121.939C165.984 124.692 165.958 127.134 166.011 129.274C166.144 131.458 167.325 133.074 168.462 133.989C169.634 134.912 170.762 135.223 171.499 135.348C171.872 135.41 172.165 135.427 172.351 135.427C172.547 135.401 172.644 135.392 172.644 135.392Z" fill="#E0E0E0"/>
<path d="M166.073 76.1619C166.073 76.1797 166.251 76.1974 166.579 76.2063C166.961 76.2152 167.441 76.233 168.027 76.2507C169.35 76.2685 171.152 76.2951 173.355 76.3218C175.619 76.3395 178.292 76.3484 181.258 76.3662C182.75 76.3662 184.313 76.3662 185.929 76.3662C187.607 76.3306 189.321 75.567 190.502 74.2172C191.088 73.5512 191.532 72.7698 191.79 71.935C192.065 71.1181 192.1 70.2212 192.074 69.422C192.065 67.8058 192.065 66.243 192.056 64.76C192.038 61.803 192.02 59.1301 192.003 56.8568C191.976 54.6546 191.949 52.8519 191.932 51.5288C191.914 50.9427 191.896 50.4632 191.887 50.0814C191.87 49.7528 191.861 49.5752 191.843 49.5752C191.825 49.5752 191.807 49.7528 191.798 50.0814C191.79 50.4632 191.772 50.9427 191.754 51.5288C191.736 52.8519 191.71 54.6546 191.683 56.8568C191.665 59.1212 191.647 61.803 191.63 64.76C191.63 66.2518 191.621 67.8058 191.612 69.422C191.719 71.0204 191.257 72.6543 190.138 73.9064C189.046 75.1496 187.456 75.8689 185.902 75.9044C184.286 75.9133 182.732 75.9222 181.24 75.931C178.283 75.9488 175.61 75.9666 173.337 75.9843C171.135 76.011 169.332 76.0376 168.009 76.0554C167.423 76.0731 166.943 76.0909 166.562 76.0998C166.251 76.1264 166.073 76.1442 166.073 76.1619Z" fill="#E0E0E0"/>
<path d="M192.837 67.8422C192.837 67.9665 199.036 68.0731 206.681 68.0731C214.327 68.0731 220.534 67.9665 220.534 67.8422C220.534 67.7179 214.336 67.6113 206.681 67.6113C199.036 67.6113 192.837 67.7179 192.837 67.8422Z" fill="#E0E0E0"/>
<path d="M179.695 78.0453C179.695 78.1697 188.842 78.2762 200.11 78.2762C211.388 78.2762 220.525 78.1697 220.525 78.0453C220.525 77.921 211.388 77.8145 200.11 77.8145C188.842 77.8145 179.695 77.921 179.695 78.0453Z" fill="#E0E0E0"/>
<path d="M179.695 88.2485C179.695 88.3728 188.842 88.4793 200.11 88.4793C211.388 88.4793 220.525 88.3728 220.525 88.2485C220.525 88.1241 211.388 88.0176 200.11 88.0176C188.842 88.0176 179.695 88.1241 179.695 88.2485Z" fill="#E0E0E0"/>
<path d="M179.695 98.4516C179.695 98.5759 188.842 98.6825 200.11 98.6825C211.388 98.6825 220.525 98.5759 220.525 98.4516C220.525 98.3273 211.388 98.2207 200.11 98.2207C188.842 98.2207 179.695 98.3184 179.695 98.4516Z" fill="#E0E0E0"/>
<path d="M179.695 108.655C179.695 108.779 188.842 108.886 200.11 108.886C211.388 108.886 220.525 108.779 220.525 108.655C220.525 108.53 211.388 108.424 200.11 108.424C188.842 108.424 179.695 108.522 179.695 108.655Z" fill="#E0E0E0"/>
<path d="M179.695 121.228C179.695 121.352 188.841 121.459 200.11 121.459C211.388 121.459 220.534 121.352 220.534 121.228C220.534 121.104 211.397 120.997 200.11 120.997C188.841 120.997 179.695 121.104 179.695 121.228Z" fill="#E0E0E0"/>
<path d="M491.729 140.651H463.366V91.7759H491.729V140.651Z" fill="#EBEBEB"/>
<path d="M570.841 141.436H548.445V80.4211H570.841V141.436Z" fill="#EBEBEB"/>
<path d="M571.095 84.8267C571.095 84.6402 565.971 84.4893 559.657 84.4893C553.344 84.4893 548.22 84.6402 548.22 84.8267C548.22 85.0132 553.344 85.1641 559.657 85.1641C565.98 85.1641 571.095 85.0132 571.095 84.8267Z" fill="#FAFAFA"/>
<path d="M569.86 87.7212C569.86 87.5348 565.021 87.3838 559.045 87.3838C553.068 87.3838 548.229 87.5348 548.229 87.7212C548.229 87.9077 553.068 88.0587 559.045 88.0587C565.012 88.0587 569.86 87.9077 569.86 87.7212Z" fill="#FAFAFA"/>
<path d="M560.279 129.404C560.465 129.404 560.616 121.323 560.616 111.351C560.616 101.379 560.465 93.2979 560.279 93.2979C560.092 93.2979 559.941 101.379 559.941 111.351C559.941 121.314 560.092 129.404 560.279 129.404Z" fill="#FAFAFA"/>
<path d="M570.837 134.981C570.837 134.795 565.926 134.644 559.87 134.644C553.814 134.644 548.903 134.795 548.903 134.981C548.903 135.167 553.814 135.318 559.87 135.318C565.926 135.318 570.837 135.167 570.837 134.981Z" fill="#FAFAFA"/>
<path d="M570.837 137.6C570.837 137.414 565.802 137.263 559.595 137.263C553.388 137.263 548.353 137.414 548.353 137.6C548.353 137.787 553.388 137.938 559.595 137.938C565.811 137.938 570.837 137.787 570.837 137.6Z" fill="#FAFAFA"/>
<path d="M548.458 141.435H530.467V73.8223H548.458V141.435Z" fill="#E0E0E0"/>
<path d="M548.576 104.869C548.514 104.798 547.466 105.544 545.797 106.796C543.941 108.199 541.738 109.877 539.305 111.724C536.872 113.58 534.67 115.25 532.823 116.662C531.171 117.94 530.168 118.748 530.221 118.828C530.274 118.899 531.375 118.224 533.107 117.052C534.83 115.88 537.183 114.193 539.723 112.266C542.262 110.339 544.509 108.527 546.098 107.178C547.688 105.828 548.629 104.94 548.576 104.869Z" fill="#FAFAFA"/>
<path d="M548.647 94.2837C548.522 94.1416 544.402 97.4716 539.438 101.725C534.474 105.979 530.549 109.54 530.673 109.682C530.798 109.824 534.918 106.494 539.882 102.24C544.846 97.9866 548.771 94.4258 548.647 94.2837Z" fill="#FAFAFA"/>
<path d="M626.641 141.483H618.036V77.0768H626.641V141.483Z" fill="#EBEBEB"/>
<path d="M626.284 85.8479C626.284 86.0699 624.482 86.2564 622.253 86.2564C620.024 86.2564 618.221 86.0788 618.221 85.8479C618.221 85.6259 620.024 85.4395 622.253 85.4395C624.482 85.4395 626.284 85.6171 626.284 85.8479Z" fill="#FAFAFA"/>
<path d="M626.462 84.4446C626.462 84.6666 624.659 84.8531 622.43 84.8531C620.202 84.8531 618.399 84.6755 618.399 84.4446C618.399 84.2226 620.202 84.0361 622.43 84.0361C624.659 84.0361 626.462 84.2137 626.462 84.4446Z" fill="#FAFAFA"/>
<path d="M626.284 136.499C626.284 136.721 624.482 136.908 622.253 136.908C620.024 136.908 618.221 136.73 618.221 136.499C618.221 136.277 620.024 136.091 622.253 136.091C624.482 136.091 626.284 136.277 626.284 136.499Z" fill="#FAFAFA"/>
<path d="M626.462 135.097C626.462 135.319 624.659 135.505 622.43 135.505C620.202 135.505 618.399 135.328 618.399 135.097C618.399 134.875 620.202 134.688 622.43 134.688C624.659 134.688 626.462 134.875 626.462 135.097Z" fill="#FAFAFA"/>
<path d="M622.084 126.687C621.862 126.687 621.675 119.308 621.675 110.215C621.675 101.113 621.853 93.7334 622.084 93.7334C622.315 93.7334 622.492 101.113 622.492 110.215C622.483 119.308 622.306 126.687 622.084 126.687Z" fill="#FAFAFA"/>
<path d="M588.085 141.065H570.876V76.6588H588.085V141.065Z" fill="#E0E0E0"/>
<path d="M575.713 141.889C575.704 141.898 575.633 141.774 575.509 141.543C575.385 141.303 575.225 140.948 575.021 140.468C574.63 139.509 574.079 138.062 573.768 136.099C573.493 134.172 573.413 131.579 574.772 129.013C575.447 127.752 576.468 126.553 577.827 125.648C579.176 124.76 580.943 124.182 582.782 124.475C583.696 124.626 584.602 125.008 585.348 125.656C586.094 126.287 586.644 127.299 586.582 128.374C586.538 129.448 585.916 130.425 585.108 131.1C584.3 131.784 583.27 132.245 582.169 132.343C579.984 132.601 577.72 131.677 576.068 130.123C574.355 128.587 573.307 126.305 573.04 123.934C572.756 121.554 573.138 119.085 573.928 116.75C574.736 114.414 576.042 112.106 578.146 110.472C579.194 109.672 580.491 109.095 581.858 109.006C583.226 108.891 584.7 109.326 585.721 110.374C586.227 110.898 586.573 111.626 586.609 112.39C586.644 113.153 586.396 113.882 586.014 114.494C585.241 115.738 583.927 116.528 582.542 116.865C579.727 117.469 576.797 116.359 574.958 114.326C573.102 112.292 572.286 109.619 572.01 107.071C571.753 104.504 571.948 101.929 572.747 99.5493C573.538 97.1872 575.092 95.056 577.196 93.8305C579.247 92.5873 581.849 92.1789 584.034 93.1113C585.117 93.5553 586.076 94.5498 586.254 95.7397C586.467 96.903 586.147 98.0929 585.472 98.9809C584.034 100.801 581.556 101.103 579.674 100.517C577.738 99.9222 576.255 98.6169 575.1 97.2671C572.774 94.5143 571.77 91.2553 571.673 88.4315C571.575 85.581 572.357 83.1834 573.262 81.4341C574.177 79.6669 575.225 78.5037 575.971 77.7844C576.353 77.4292 576.654 77.1717 576.868 77.0118C577.081 76.852 577.196 76.7721 577.205 76.7809C577.32 76.8609 575.322 78.0685 573.555 81.5673C572.712 83.3077 571.992 85.6521 572.135 88.4049C572.277 91.131 573.289 94.2657 575.544 96.8853C576.663 98.1729 578.093 99.3805 579.86 99.9045C581.565 100.428 583.776 100.091 584.948 98.5636C585.508 97.8177 585.774 96.7965 585.588 95.8552C585.428 94.8961 584.7 94.1413 583.758 93.7506C581.849 92.9425 579.478 93.2977 577.587 94.4521C575.66 95.5888 574.23 97.5424 573.493 99.7801C572.738 102.018 572.561 104.504 572.809 106.964C573.076 109.406 573.875 111.901 575.571 113.757C577.214 115.587 579.913 116.59 582.373 116.048C583.581 115.755 584.709 115.063 585.339 114.041C586.005 113.038 585.987 111.724 585.153 110.898C584.353 110.063 583.101 109.664 581.929 109.77C580.73 109.841 579.594 110.338 578.635 111.067C576.717 112.541 575.438 114.734 574.665 116.963C573.893 119.21 573.529 121.572 573.786 123.809C574.035 126.047 574.976 128.143 576.557 129.564C578.084 131.011 580.144 131.855 582.098 131.642C583.989 131.482 585.836 130.043 585.952 128.303C586.005 127.441 585.588 126.624 584.948 126.065C584.309 125.497 583.501 125.141 582.684 124.999C581.023 124.715 579.389 125.212 578.102 126.038C576.814 126.873 575.829 128.001 575.172 129.191C573.848 131.597 573.857 134.119 574.079 136.019C574.328 137.955 574.825 139.403 575.172 140.371C575.527 141.383 575.749 141.88 575.713 141.889Z" fill="#FAFAFA"/>
<path d="M618.173 141.091H588.318V82.4295H618.173V141.091Z" fill="#FAFAFA"/>
<path d="M617.155 92.179C617.155 92.401 610.682 92.5875 602.708 92.5875C594.724 92.5875 588.26 92.4099 588.26 92.179C588.26 91.957 594.733 91.7705 602.708 91.7705C610.682 91.7794 617.155 91.957 617.155 92.179Z" fill="#E0E0E0"/>
<path d="M617.52 96.6272C617.52 96.8492 611.135 97.0357 603.258 97.0357C595.382 97.0357 588.988 96.8581 588.988 96.6272C588.988 96.4052 595.373 96.2188 603.258 96.2188C611.135 96.2187 617.52 96.4052 617.52 96.6272Z" fill="#E0E0E0"/>
<path d="M618.479 134.465C618.479 134.687 611.747 134.874 603.454 134.874C595.151 134.874 588.429 134.696 588.429 134.465C588.429 134.243 595.151 134.057 603.454 134.057C611.756 134.057 618.479 134.243 618.479 134.465Z" fill="#E0E0E0"/>
<path d="M618.079 129.235C618.079 129.457 611.526 129.643 603.445 129.643C595.364 129.643 588.811 129.466 588.811 129.235C588.811 129.004 595.364 128.826 603.445 128.826C611.526 128.826 618.079 129.013 618.079 129.235Z" fill="#E0E0E0"/>
<path d="M530.487 140.657H513.277V76.2506H530.487V140.657Z" fill="#EBEBEB"/>
<path d="M518.117 141.481C518.108 141.49 518.037 141.365 517.912 141.135C517.788 140.895 517.628 140.54 517.424 140.06C517.033 139.101 516.483 137.654 516.172 135.691C515.896 133.764 515.817 131.171 517.175 128.605C517.85 127.344 518.871 126.145 520.23 125.239C521.58 124.351 523.347 123.774 525.185 124.067C526.1 124.218 527.005 124.6 527.751 125.248C528.497 125.879 529.048 126.891 528.986 127.966C528.941 129.04 528.32 130.017 527.512 130.692C526.703 131.375 525.673 131.837 524.572 131.935C522.388 132.192 520.123 131.269 518.472 129.715C516.758 128.179 515.71 125.897 515.444 123.526C515.159 121.146 515.541 118.677 516.332 116.342C517.14 114.006 518.445 111.697 520.55 110.063C521.597 109.264 522.894 108.687 524.261 108.598C525.629 108.483 527.103 108.918 528.124 109.966C528.63 110.49 528.977 111.218 529.012 111.982C529.048 112.745 528.799 113.473 528.417 114.086C527.645 115.329 526.33 116.12 524.945 116.457C522.13 117.061 519.2 115.951 517.362 113.917C515.506 111.884 514.689 109.211 514.414 106.662C514.156 104.096 514.351 101.521 515.151 99.1411C515.941 96.779 517.495 94.6478 519.599 93.4223C521.651 92.1791 524.253 91.7707 526.437 92.7031C527.52 93.1471 528.479 94.1416 528.657 95.3315C528.87 96.4948 528.55 97.6847 527.876 98.5727C526.437 100.393 523.96 100.695 522.077 100.109C520.141 99.514 518.658 98.2087 517.504 96.8589C515.177 94.1061 514.174 90.8471 514.076 88.0233C513.978 85.1728 514.76 82.7752 515.666 81.0259C516.58 79.2587 517.628 78.0955 518.374 77.3762C518.756 77.021 519.058 76.7635 519.271 76.6036C519.484 76.4438 519.599 76.3639 519.608 76.3727C519.724 76.4527 517.726 77.6603 515.959 81.1591C515.115 82.8995 514.396 85.2439 514.538 87.9967C514.68 90.7228 515.692 93.8575 517.948 96.4771C519.067 97.7647 520.496 98.9723 522.263 99.4963C523.968 100.02 526.18 99.6827 527.352 98.1554C527.911 97.4095 528.178 96.3883 527.991 95.447C527.831 94.4879 527.103 93.7331 526.162 93.3424C524.253 92.5343 521.882 92.8895 519.99 94.0439C518.063 95.1806 516.634 97.1342 515.897 99.3719C515.142 101.61 514.964 104.096 515.213 106.556C515.479 108.998 516.278 111.493 517.974 113.349C519.617 115.178 522.317 116.182 524.776 115.64C525.984 115.347 527.112 114.654 527.742 113.633C528.408 112.63 528.391 111.316 527.556 110.49C526.757 109.655 525.505 109.255 524.332 109.362C523.134 109.433 521.997 109.93 521.038 110.658C519.12 112.133 517.841 114.326 517.069 116.555C516.296 118.801 515.932 121.163 516.19 123.401C516.438 125.639 517.379 127.735 518.96 129.155C520.487 130.603 522.548 131.447 524.501 131.233C526.393 131.074 528.24 129.635 528.355 127.895C528.408 127.033 527.991 126.216 527.352 125.657C526.712 125.088 525.904 124.733 525.087 124.591C523.427 124.307 521.793 124.804 520.505 125.63C519.218 126.465 518.232 127.593 517.575 128.783C516.252 131.189 516.261 133.711 516.483 135.611C516.731 137.547 517.229 138.994 517.575 139.962C517.93 140.966 518.143 141.463 518.117 141.481Z" fill="#FAFAFA"/>
<path d="M650.554 140.656H626.641V72.9995H650.554V140.656Z" fill="#E0E0E0"/>
<path d="M513.279 140.657H490.91V80.4242H513.279V140.657Z" fill="#E0E0E0"/>
<path d="M490.349 110.455C490.243 110.348 489.213 111.778 486.797 112.985C485.599 113.58 484.062 114.086 482.295 114.237C480.537 114.371 478.592 114.104 476.71 113.269C474.827 112.461 473.096 111.431 471.337 110.819C469.606 110.188 467.847 110.002 466.462 110.375C465.068 110.721 464.118 111.476 463.638 112.088C463.141 112.71 463.061 113.154 463.088 113.163C463.141 113.19 463.31 112.79 463.843 112.266C464.358 111.742 465.281 111.103 466.578 110.845C467.865 110.561 469.481 110.774 471.133 111.414C472.803 112.026 474.499 113.056 476.452 113.9C478.397 114.77 480.519 115.054 482.357 114.868C484.213 114.681 485.803 114.104 487.028 113.42C488.254 112.746 489.106 111.991 489.639 111.422C490.154 110.854 490.376 110.481 490.349 110.455Z" fill="#FAFAFA"/>
<path d="M490.847 116.421C490.74 116.315 489.71 117.744 487.286 118.952C486.087 119.556 484.551 120.053 482.783 120.204C481.025 120.337 479.081 120.071 477.198 119.236C475.315 118.428 473.584 117.398 471.826 116.785C470.094 116.155 468.336 115.968 466.95 116.341C465.565 116.688 464.606 117.434 464.127 118.055C463.629 118.677 463.549 119.121 463.576 119.13C463.629 119.156 463.798 118.757 464.331 118.233C464.846 117.709 465.769 117.07 467.066 116.812C468.353 116.528 469.97 116.741 471.621 117.38C473.291 117.993 474.987 119.023 476.94 119.867C478.885 120.737 481.007 121.021 482.846 120.835C484.702 120.648 486.291 120.071 487.516 119.387C488.742 118.712 489.594 117.958 490.127 117.389C490.651 116.812 490.873 116.439 490.847 116.421Z" fill="#FAFAFA"/>
<path d="M490.482 97.1255C490.482 96.939 484.329 96.7881 476.727 96.7881C469.126 96.7881 462.972 96.939 462.972 97.1255C462.972 97.312 469.126 97.463 476.727 97.463C484.32 97.463 490.482 97.312 490.482 97.1255Z" fill="#FAFAFA"/>
<path d="M500.606 90.119C500.659 90.2255 501.352 89.6128 502.551 89.9591C503.11 90.1279 503.776 90.5275 504.06 91.2112C504.371 91.8772 504.123 92.783 503.492 93.3957C502.853 94.0084 501.947 94.2215 501.29 93.8841C500.615 93.5733 500.233 92.8895 500.091 92.3212C499.798 91.1135 500.437 90.4387 500.331 90.3854C500.304 90.3587 500.109 90.4653 499.905 90.8027C499.692 91.1313 499.523 91.7085 499.621 92.4189C499.727 93.1027 500.109 93.9729 501.015 94.4524C501.92 94.9586 503.181 94.6744 503.972 93.893C504.78 93.1382 505.108 91.8861 504.647 90.9626C504.203 90.0479 503.35 89.6306 502.675 89.4974C501.974 89.3731 501.388 89.524 501.05 89.7194C500.704 89.9059 500.588 90.1012 500.606 90.119Z" fill="#FAFAFA"/>
<path d="M502.053 134.626C502.24 134.626 502.391 126.181 502.391 115.764C502.391 105.348 502.24 96.9033 502.053 96.9033C501.867 96.9033 501.716 105.348 501.716 115.764C501.716 126.181 501.867 134.626 502.053 134.626Z" fill="#FAFAFA"/>
<path d="M440 140.309H671.483V153.522H440V140.309Z" fill="#EBEBEB"/>
<path d="M439.999 140.309H460.21V153.522H439.999V140.309Z" fill="#E0E0E0"/>
<path d="M374.416 102.198L375.544 193.138C375.739 208.607 372.862 231.357 348.398 230.549C327.228 228.24 321.607 208.198 321.447 193.768C321.367 186.922 321.287 181.212 321.234 180.51C321.234 180.51 298.057 178.619 296.103 155.726C295.162 144.662 295.065 121.716 295.224 100.963C295.393 78.6655 312.682 60.2484 334.918 58.6322L337.129 58.4724C361.061 58.1172 374.727 78.257 374.416 102.198Z" fill="#FFBE9D"/>
<path d="M321.225 180.51C321.225 180.51 335.727 180.306 350.414 169.508C350.414 169.508 344.358 186.779 321.341 186.38L321.225 180.51Z" fill="#EB996E"/>
<path d="M334.35 110.35C334.803 110.811 337.449 108.689 341.285 108.582C345.112 108.423 347.981 110.358 348.389 109.87C348.584 109.648 348.114 108.804 346.862 107.925C345.627 107.046 343.549 106.229 341.161 106.309C338.772 106.398 336.792 107.357 335.655 108.307C334.501 109.266 334.128 110.136 334.35 110.35Z" fill="#2B3242"/>
<path d="M335.158 118.28C335.22 119.923 336.659 121.219 338.373 121.184C340.078 121.148 341.418 119.798 341.356 118.155C341.294 116.513 339.856 115.216 338.151 115.252C336.437 115.287 335.096 116.637 335.158 118.28Z" fill="#2B3242"/>
<path d="M324.741 137.026C324.741 136.821 322.53 136.608 318.943 136.413C318.037 136.386 317.175 136.271 316.98 135.667C316.723 135.036 317.024 134.033 317.389 132.958C318.072 130.721 318.792 128.376 319.546 125.917C322.53 115.9 324.617 107.686 324.208 107.571C323.8 107.455 321.056 115.483 318.081 125.499C317.371 127.968 316.687 130.321 316.039 132.577C315.772 133.624 315.275 134.823 315.835 136.138C316.128 136.795 316.82 137.23 317.406 137.345C317.992 137.478 318.499 137.452 318.951 137.443C322.53 137.372 324.741 137.23 324.741 137.026Z" fill="#2B3242"/>
<path d="M335.983 95.9283C336.356 96.7808 339.429 96.1414 343.105 96.3279C346.782 96.4433 349.801 97.3313 350.227 96.5055C350.414 96.1148 349.845 95.3333 348.593 94.5696C347.35 93.8148 345.414 93.1488 343.212 93.0511C341.01 92.9623 339.029 93.4685 337.742 94.1256C336.445 94.7828 335.824 95.5198 335.983 95.9283Z" fill="#2B3242"/>
<path d="M299.558 103.032C299.957 103.725 302.95 102.952 306.582 102.846C310.205 102.668 313.215 103.201 313.606 102.473C313.774 102.127 313.179 101.505 311.91 100.954C310.658 100.404 308.722 99.9866 306.546 100.066C304.371 100.155 302.452 100.732 301.209 101.381C299.957 102.029 299.38 102.704 299.558 103.032Z" fill="#2B3242"/>
<path d="M373.786 119.301C374.167 119.105 389.192 113.493 389.832 129.193C390.471 144.893 374.576 142.3 374.532 141.856C374.487 141.412 373.786 119.301 373.786 119.301Z" fill="#FFBE9D"/>
<path d="M379.087 135.711C379.158 135.658 379.372 135.889 379.842 136.084C380.304 136.27 381.085 136.386 381.885 136.04C383.519 135.365 384.806 132.674 384.771 129.841C384.753 128.412 384.398 127.062 383.847 125.961C383.323 124.833 382.542 124.06 381.707 123.945C380.872 123.785 380.295 124.309 380.126 124.762C379.931 125.206 380.046 125.517 379.967 125.552C379.922 125.597 379.62 125.304 379.718 124.647C379.771 124.336 379.94 123.954 380.295 123.634C380.659 123.315 381.21 123.137 381.787 123.172C383.003 123.208 384.14 124.274 384.744 125.49C385.419 126.707 385.854 128.225 385.872 129.824C385.898 132.994 384.398 136.022 382.16 136.768C381.068 137.105 380.135 136.803 379.638 136.457C379.123 136.093 379.034 135.747 379.087 135.711Z" fill="#EB996E"/>
<path d="M328.453 147.894C328.285 147.495 331.357 146.58 333.524 143.694C334.607 142.273 335.229 140.728 335.699 139.592C336.161 138.455 336.507 137.736 336.676 137.789C336.836 137.842 336.8 138.615 336.543 139.849C336.277 141.075 335.744 142.833 334.518 144.44C333.311 146.074 331.694 147.042 330.505 147.512C329.306 148.001 328.489 148.036 328.453 147.894Z" fill="#2B3242"/>
<path d="M264.811 80.4153C265.059 79.4917 265.734 78.7369 266.551 78.2485C268.345 77.1918 270.405 77.3339 272.403 77.2984C278.477 77.2007 284.507 75.3448 289.621 72.0681C292.019 68.6137 294.71 65.3725 297.631 62.3622C304.566 55.2049 310.276 50.3387 316.19 47.9589C323.827 44.8864 336.605 43.6343 344.571 45.73C352.536 47.8168 359.693 54.2814 360.795 62.4421C365.261 58.6681 371.966 58.6948 377.409 60.8881L377.542 60.826C383.598 62.9838 387.044 69.3863 388.829 75.5668C390.614 81.7473 391.377 88.354 394.654 93.8951C395.338 95.0495 396.155 96.4437 395.551 97.6425C395.089 98.5749 393.908 98.9567 392.878 98.8057C391.848 98.6548 390.933 98.0865 390.054 97.527C390.729 99.1432 391.404 100.759 392.079 102.384C389.885 102.766 387.612 102.589 385.49 101.94C384.202 107.721 382.666 114.319 381.183 118.235C378.652 118.226 376.335 118.413 374.772 119.816C372.649 121.725 371.699 125.313 368.174 123.954C366.38 123.261 364.737 119.496 364.142 117.667C360.155 105.537 358.832 92.5365 360.271 79.8469C357.758 77.1741 354.73 74.9896 351.4 73.4445L351.675 73.6842C345.272 71.4642 338.035 69.2797 331.97 72.2812C327.264 74.6077 324.493 79.5006 320.977 83.3989C314.308 90.7871 305.303 94.8009 295.358 95.236C295.02 101.683 295.562 110.794 295.225 117.241L289.799 106.913L289.79 106.966C289.346 106.212 288.982 105.448 288.627 104.684L288.503 104.453V104.427C287.934 103.201 287.401 101.976 286.691 100.759C286.673 100.777 286.647 100.795 286.629 100.813C283.139 103.894 277.989 99.1787 280.741 95.4225C281.292 94.6765 281.94 94.0105 282.686 93.4689C281.088 94.9696 278.708 95.6889 276.612 95.0406C274.517 94.4013 272.891 92.2789 273.078 90.0945C273.202 88.6026 274.268 87.2706 275.609 86.6845C272.785 86.8977 269.899 86.2849 267.439 84.8819C265.85 83.9584 264.269 82.4399 264.811 80.4153Z" fill="#2B3242"/>
<path d="M353.593 65.0615C353.548 65.1237 354.552 65.6654 355.893 67.1661C357.216 68.6579 358.708 71.242 359.409 74.7674C359.773 76.5167 359.995 78.4792 359.995 80.5838C360.004 82.6972 359.835 84.9527 359.676 87.3326C359.525 89.7124 359.347 92.2254 359.507 94.845C359.587 96.1504 359.738 97.4824 360.022 98.8055C360.306 100.111 360.652 101.523 361.638 102.651C362.419 103.565 363.734 103.974 364.87 103.734C366.016 103.53 367.037 102.926 367.774 102.091C369.248 100.368 369.612 98.1928 369.985 96.2658L369.506 96.328C370.287 98.0596 371.095 99.7646 372.294 101.123C373.466 102.491 375.091 103.405 376.752 103.547C377.578 103.618 378.403 103.485 379.114 103.13C379.833 102.775 380.357 102.18 380.721 101.549C381.067 100.91 381.245 100.2 381.21 99.5159C381.174 98.8322 380.908 98.1928 380.472 97.731L380.233 97.9442C382 99.951 383.865 101.034 385.152 101.638C385.8 101.94 386.324 102.118 386.68 102.233C387.035 102.34 387.221 102.384 387.23 102.366C387.239 102.349 387.061 102.278 386.715 102.144C386.378 102.002 385.871 101.798 385.241 101.478C383.989 100.839 382.186 99.729 380.49 97.731L380.25 97.9442C381.023 98.7611 381.067 100.191 380.401 101.345C380.064 101.914 379.584 102.446 378.954 102.739C378.324 103.05 377.569 103.166 376.814 103.086C375.295 102.935 373.777 102.082 372.676 100.777C371.548 99.4715 370.767 97.811 369.994 96.0794L369.666 95.3423L369.515 96.1326C369.15 98.0507 368.76 100.146 367.41 101.7C366.744 102.446 365.812 102.997 364.808 103.166C363.805 103.361 362.748 103.032 362.064 102.242C361.203 101.274 360.848 99.9333 360.572 98.6457C360.297 97.3492 360.137 96.0527 360.057 94.7651C359.897 92.1899 360.057 89.6946 360.199 87.3148C360.35 84.935 360.501 82.6706 360.475 80.5305C360.457 78.3993 360.208 76.4102 359.818 74.6342C359.054 71.0644 357.482 68.4448 356.088 66.9707C354.632 65.5499 353.593 65.0615 353.593 65.0615Z" fill="#767A85"/>
<path d="M282.748 87.3502C282.739 87.359 282.801 87.4123 282.934 87.51C283.085 87.6254 283.281 87.7586 283.503 87.9274C283.751 88.1138 284.071 88.3358 284.471 88.549C284.87 88.7798 285.314 89.0551 285.865 89.286C287.996 90.2983 291.406 91.3018 295.668 91.0531C299.895 90.8134 304.966 89.3215 309.486 85.9471C314.059 82.6615 318.073 77.813 321.358 72.263C323.028 69.4925 324.377 66.6509 325.878 64.0224C327.361 61.3939 329.004 58.9697 330.993 57.0516C332.955 55.1246 335.238 53.7038 337.591 53.0467C338.763 52.7004 339.944 52.6205 341.072 52.6471C342.199 52.7093 343.274 52.9313 344.26 53.2598C346.231 53.9258 347.829 55.0092 349.037 56.137C350.254 57.2647 351.062 58.4635 351.621 59.4936C352.66 61.5982 352.722 62.9479 352.802 62.9302C352.811 62.9302 352.802 62.8502 352.784 62.6904C352.758 62.5039 352.722 62.273 352.678 61.9889C352.562 61.3762 352.305 60.4882 351.808 59.4048C351.266 58.3481 350.467 57.1049 349.241 55.9327C348.025 54.7606 346.409 53.6239 344.384 52.9135C343.372 52.5672 342.271 52.3186 341.098 52.2475C339.935 52.2031 338.692 52.283 337.475 52.6294C335.033 53.2865 332.671 54.7428 330.655 56.7053C328.613 58.6589 326.926 61.1275 325.425 63.7738C323.907 66.42 322.548 69.2527 320.896 71.9966C317.637 77.5022 313.677 82.2974 309.193 85.5564C304.753 88.8953 299.797 90.396 295.642 90.6802C291.45 90.9732 288.076 90.0497 285.954 89.1084C283.805 88.1316 282.783 87.2791 282.748 87.3502Z" fill="#767A85"/>
<path d="M280.661 77.2807C280.643 77.3162 280.936 77.5116 281.478 77.849C282.02 78.1954 282.854 78.6305 283.911 79.0834C284.968 79.5451 286.273 79.9802 287.765 80.3443C289.257 80.6818 290.926 80.9304 292.685 81.0014C294.452 81.0458 296.13 80.9038 297.64 80.664C299.14 80.3976 300.481 80.0424 301.564 79.6517C302.648 79.261 303.509 78.888 304.069 78.5772C304.637 78.2753 304.939 78.0888 304.921 78.0622C304.877 77.9734 303.616 78.6216 301.44 79.2965C300.357 79.6428 299.034 79.9447 297.56 80.1845C296.077 80.3976 294.425 80.5219 292.693 80.4686C290.962 80.4065 289.328 80.1756 287.863 79.8737C286.397 79.5451 285.101 79.1544 284.044 78.737C281.931 77.929 280.714 77.1919 280.661 77.2807Z" fill="#767A85"/>
<path d="M299.39 111.788C299.843 112.25 302.489 110.119 306.325 110.021C310.152 109.861 313.021 111.797 313.429 111.308C313.624 111.086 313.154 110.243 311.902 109.364C310.667 108.485 308.589 107.668 306.201 107.748C303.812 107.836 301.832 108.795 300.695 109.746C299.541 110.714 299.159 111.584 299.39 111.788Z" fill="#2B3242"/>
<path d="M303.297 119.389C303.359 121.032 304.797 122.328 306.511 122.293C308.216 122.257 309.557 120.908 309.495 119.265C309.433 117.631 307.994 116.326 306.289 116.361C304.575 116.397 303.235 117.755 303.297 119.389Z" fill="#2B3242"/>
<path d="M160.231 203.119C160.231 196.468 166.589 196.468 166.589 196.468C169.013 193.289 171.739 194.444 171.739 194.444L182.031 201.388C183.541 203.99 193.531 213.829 193.531 213.829C196.257 211.804 196.257 207.755 199.516 202.835C202.784 197.916 210.172 198.493 210.172 198.493C210.172 198.493 204.418 211.511 203.814 219.61C203.21 227.708 208.236 250.299 208.236 250.299L179.136 258.477C179.136 258.477 177.298 246.081 174.039 245.086C170.114 243.879 167.93 238.089 167.93 238.089C163.685 229.493 155.072 217.008 153.864 210.641C152.665 204.274 160.231 203.119 160.231 203.119Z" fill="#FFBE9D"/>
<path d="M376.618 188.733C358.086 200.384 339.411 204.762 320.488 197.223L292.054 204.487L264.073 391.402L428.104 392.822L420.024 349.408L399.688 193.422L376.618 188.733Z" fill="#767A85"/>
<path d="M292.054 204.486C292.054 204.486 269.934 213.668 261.498 229.759C253.053 245.849 239.493 291.004 239.493 291.004L214.505 245.112L168.124 256.967C168.124 256.967 202.65 352.196 211.317 360.863C220.809 370.356 246.668 379.928 259.322 372.54C271.985 365.152 274.56 337.118 274.56 337.118L292.054 204.486Z" fill="#767A85"/>
<path d="M290.527 282.666C290.651 282.666 290.758 274.363 290.758 264.124C290.758 253.886 290.651 245.583 290.527 245.583C290.403 245.583 290.296 253.886 290.296 264.124C290.296 274.363 290.394 282.666 290.527 282.666Z" fill="#2B3242"/>
<path d="M281.869 215.169C281.806 215.195 282.25 216.35 282.952 218.232C283.645 220.106 284.577 222.717 285.474 225.629C286.38 228.551 287.081 231.215 287.57 233.16C288.058 235.104 288.342 236.312 288.413 236.294C288.449 236.285 288.413 235.975 288.324 235.424C288.244 234.865 288.093 234.065 287.889 233.089C287.481 231.126 286.824 228.427 285.918 225.496C285.012 222.566 284.035 219.964 283.254 218.117C282.863 217.193 282.535 216.447 282.295 215.941C282.046 215.426 281.895 215.151 281.869 215.169Z" fill="#2B3242"/>
<path d="M402.69 263.423L397.557 192.996C397.557 192.996 436.168 196.575 448.946 223.819C459.717 246.773 489.43 315.833 492.618 325.281C501.951 353.005 487.37 391.118 427.252 388.916L420.397 351.229L402.69 263.423Z" fill="#767A85"/>
<path d="M445.927 359.078C445.945 359.07 445.829 358.839 445.616 358.403C445.376 357.933 445.048 357.302 444.639 356.512C443.751 354.834 442.499 352.481 440.954 349.586C440.563 348.857 440.155 348.094 439.72 347.295C439.285 346.504 438.779 345.643 437.953 345.021C437.127 344.4 436.043 344.151 434.987 344.169C433.921 344.178 432.847 344.409 431.79 344.684C429.659 345.243 427.474 346.043 425.325 347.126C424.251 347.668 423.194 348.307 422.226 349.106L421.871 349.417C421.729 349.541 421.613 349.737 421.569 349.896C421.454 350.225 421.4 350.545 421.374 350.864C421.312 351.504 421.312 352.143 421.329 352.774C421.427 355.322 421.738 357.773 422.058 360.135C422.386 362.497 422.741 364.77 423.105 366.937C423.834 371.262 424.562 375.142 425.183 378.392C425.814 381.607 426.329 384.227 426.693 386.091C426.862 386.97 427.004 387.663 427.101 388.187C427.199 388.667 427.243 388.915 427.252 388.915C427.27 388.915 427.252 388.658 427.19 388.169C427.128 387.681 427.013 386.97 426.862 386.056C426.533 384.182 426.071 381.554 425.494 378.33C424.917 375.071 424.215 371.191 423.514 366.866C423.167 364.708 422.812 362.435 422.493 360.073C422.182 357.711 421.871 355.26 421.782 352.756C421.764 352.134 421.764 351.504 421.818 350.9C421.844 350.598 421.898 350.305 421.986 350.047C422.04 349.914 422.084 349.834 422.173 349.745L422.51 349.452C423.443 348.689 424.473 348.067 425.521 347.525C427.625 346.451 429.783 345.661 431.879 345.092C432.927 344.817 433.966 344.586 434.978 344.568C435.981 344.542 436.967 344.773 437.713 345.323C438.468 345.874 438.956 346.682 439.391 347.454C439.826 348.245 440.244 349.008 440.643 349.728C442.233 352.596 443.529 354.931 444.453 356.583C444.897 357.356 445.243 357.977 445.51 358.439C445.776 358.874 445.909 359.087 445.927 359.078Z" fill="#2B3242"/>
<path d="M473.846 325.628C473.846 325.61 473.686 325.61 473.393 325.61C473.047 325.628 472.611 325.637 472.096 325.664C470.969 325.717 469.344 325.815 467.337 326.001C465.33 326.188 462.941 326.472 460.321 327.022C457.711 327.564 454.869 328.408 452.072 329.757C449.292 331.116 446.824 332.759 444.817 334.544C442.837 336.346 441.301 338.273 440.413 340.111C439.516 341.941 439.143 343.575 439.081 344.702C439.001 345.262 439.063 345.706 439.054 346.008C439.063 346.301 439.072 346.461 439.089 346.461C439.143 346.461 439.125 345.83 439.258 344.729C439.374 343.619 439.791 342.029 440.706 340.262C441.611 338.486 443.139 336.622 445.101 334.863C447.09 333.123 449.532 331.516 452.276 330.175C455.02 328.852 457.826 328.008 460.41 327.44C462.994 326.871 465.374 326.552 467.363 326.33C469.361 326.099 470.977 325.957 472.105 325.85C472.62 325.797 473.047 325.752 473.393 325.717C473.686 325.673 473.846 325.646 473.846 325.628Z" fill="#2B3242"/>
<path d="M432.527 322.067C432.474 322.093 432.82 323.15 433.486 324.837C434.143 326.524 435.129 328.824 436.266 331.337C437.367 333.788 438.37 336.008 439.16 337.775C439.897 339.427 440.359 340.448 440.421 340.422C440.475 340.395 440.128 339.338 439.462 337.651C438.805 335.964 437.82 333.664 436.683 331.151C435.582 328.7 434.578 326.48 433.788 324.713C433.051 323.061 432.589 322.049 432.527 322.067Z" fill="#2B3242"/>
<path d="M411.162 266.638C411.286 266.638 411.393 262.171 411.393 256.666C411.393 251.16 411.286 246.693 411.162 246.693C411.037 246.693 410.931 251.16 410.931 256.666C410.931 262.171 411.037 266.638 411.162 266.638Z" fill="#2B3242"/>
<g opacity="0.3">
<g opacity="0.3">
<path opacity="0.3" d="M439.098 346.451C449.256 349.994 456.121 359.212 458.891 369.601C459.184 370.694 459.38 371.981 458.642 372.843C457.888 373.731 456.449 373.704 455.455 373.1C454.46 372.505 453.812 371.484 453.19 370.498C448.306 362.666 443.529 355.411 439.098 346.451Z" fill="black"/>
</g>
</g>
<g opacity="0.3">
<g opacity="0.3">
<path opacity="0.3" d="M451.69 326.356C457 323.408 463.11 322.138 469.175 321.774C471.555 321.632 473.917 321.907 476.243 322.395C479.414 323.061 483.054 324.66 483.756 326.942C476.465 324.66 465.738 326.16 458.27 327.794C450.74 329.437 444.622 333.708 440.43 340.439C442.224 334.756 446.487 329.251 451.69 326.356Z" fill="black"/>
</g>
</g>
<path d="M416.845 236.65C416.881 236.659 417.005 236.26 417.2 235.54C417.387 234.821 417.698 233.782 418.115 232.512C418.95 229.982 420.344 226.545 422.404 223.037C424.473 219.53 426.791 216.644 428.602 214.681C429.508 213.696 430.263 212.923 430.805 212.408C431.337 211.884 431.621 211.582 431.604 211.556C431.586 211.529 431.257 211.786 430.68 212.275C430.103 212.754 429.304 213.5 428.363 214.459C426.48 216.377 424.091 219.263 422.004 222.807C419.927 226.359 418.559 229.839 417.795 232.415C417.413 233.702 417.147 234.759 417.014 235.496C416.881 236.233 416.81 236.642 416.845 236.65Z" fill="#2B3242"/>
<path d="M402.663 392.796L445.687 288.998C447.649 284.264 445.19 280.419 440.19 280.419H431.532C427.998 280.419 425.592 278.475 425.37 275.438L425.085 271.619C424.854 268.582 422.448 266.638 418.905 266.638H377.773C374.567 266.638 370.944 268.236 368.244 270.856L364.906 274.088C362.215 276.699 358.592 278.306 355.386 278.306H303.003C298.004 278.306 292.4 282.142 290.491 286.884L247.841 392.805H402.663V392.796Z" fill="#CC2844"/>
<g opacity="0.3">
<g opacity="0.3">
<path opacity="0.3" d="M402.663 392.796L445.687 288.998C447.649 284.264 445.19 280.419 440.19 280.419H431.532C427.998 280.419 425.592 278.475 425.37 275.438L425.085 271.619C424.854 268.582 422.448 266.638 418.905 266.638H377.773C374.567 266.638 370.944 268.236 368.244 270.856L364.906 274.088C362.215 276.699 358.592 278.306 355.386 278.306H303.003C298.004 278.306 292.4 282.142 290.491 286.884L247.841 392.805H402.663V392.796Z" fill="black"/>
</g>
</g>
<path d="M409.776 357.543L426 294.805C427.065 290.676 424.366 286.529 420.601 286.529H293.413C290.9 286.529 288.688 288.439 287.996 291.2L264.375 385.63C263.336 389.777 264.997 392.263 268.762 392.219L396.731 392.255C399.209 392.219 401.385 390.345 402.077 387.619L409.776 357.543Z" fill="#E0E0E0"/>
<path d="M400.985 389.963L407.894 291.164C408.142 287.656 405.363 284.682 401.846 284.682H270.067V389.963H400.985Z" fill="#EBEBEB"/>
<path d="M402.459 392.219L386.786 290.365C386.067 287.044 383.074 284.673 379.62 284.673H246.313C241.047 284.673 237.504 289.965 239.582 294.707L268.371 387.912L402.459 392.219Z" fill="#FAFAFA"/>
<path d="M402.663 392.752L370.331 297.363C368.981 293.385 365.385 290.729 361.336 290.729H223.909C219.478 290.729 216.361 295.267 217.773 299.645L247.84 392.796L402.663 392.752Z" fill="#CC2844"/>
<g opacity="0.3">
<g opacity="0.3">
<path opacity="0.3" d="M336.214 376.785C336.214 376.785 341.4 377.025 343.798 377.185C355.191 377.966 366.762 375.906 377.187 371.262C380.419 369.823 383.838 367.79 384.815 364.389C385.907 360.579 383.438 356.61 380.437 354.026C377.427 351.441 373.768 349.603 371.157 346.62C368.546 343.636 367.312 338.805 369.878 335.795L370.589 336.319C372.445 341.025 377.622 343.299 381.911 345.998C389.876 351.006 395.941 358.936 398.694 367.932C400.204 372.869 400.603 378.632 397.611 382.841C395.488 385.825 392.007 387.521 388.571 388.8C378.172 392.654 367.064 392.796 355.972 392.813C352.465 392.813 341.72 392.671 341.72 392.671C338.337 391.748 337.227 389.99 335.193 387.139C333.328 384.502 333.737 378.836 336.214 376.785Z" fill="black"/>
</g>
</g>
<path d="M336.214 376.785L372.054 371.395L385.969 363.385C387.807 362.328 389.059 360.446 389.165 358.332C389.165 358.297 389.165 358.252 389.174 358.217C389.281 355.579 387.674 353.173 385.232 352.152C380.818 350.296 373.821 347.818 370.837 342.588C366.548 335.075 370.837 333.521 370.837 333.521L400.772 345.483L421.959 359.904L426.222 383.951L396.66 393.604C396.66 393.604 363.715 395.459 354.622 394.438C345.529 393.417 345.529 389.181 345.529 389.181C343.842 388.657 340.432 385.656 340.432 382.868C336.036 378.738 336.214 376.785 336.214 376.785Z" fill="#FFBE9D"/>
<path d="M382.061 387.13C382.053 387.086 381.52 387.192 380.587 387.414C379.655 387.645 378.287 387.947 376.6 388.276C373.226 388.95 368.511 389.661 363.271 389.865C358.023 390.06 353.272 389.732 349.854 389.314C348.149 389.11 346.763 388.915 345.813 388.764C344.863 388.622 344.33 388.56 344.321 388.595C344.313 388.64 344.828 388.773 345.769 388.995C346.71 389.217 348.087 389.483 349.8 389.741C353.219 390.265 358.014 390.673 363.298 390.469C368.582 390.256 373.332 389.483 376.698 388.693C378.385 388.302 379.735 387.929 380.658 387.636C381.573 387.352 382.07 387.174 382.061 387.13Z" fill="#EB996E"/>
<path d="M378.785 381.589C378.776 381.545 378.243 381.651 377.284 381.873C376.334 382.104 374.949 382.406 373.235 382.735C369.807 383.401 365.012 384.067 359.684 384.235C354.356 384.395 349.525 384.04 346.062 383.614C344.33 383.401 342.927 383.205 341.959 383.045C340.991 382.894 340.45 382.832 340.441 382.877C340.432 382.921 340.956 383.063 341.915 383.285C342.874 383.516 344.268 383.782 346.009 384.049C349.481 384.59 354.338 385.017 359.71 384.857C365.083 384.688 369.905 383.951 373.332 383.17C375.046 382.788 376.423 382.415 377.355 382.113C378.287 381.811 378.802 381.633 378.785 381.589Z" fill="#EB996E"/>
<path d="M167.388 249.011L231.075 261.594C235.48 262.464 239.751 259.596 240.621 255.2L258.026 167.04C258.896 162.635 256.028 158.364 251.632 157.494L211.246 149.52L173.613 175.573L160.994 239.465C160.124 243.87 162.983 248.141 167.388 249.011Z" fill="#EBEBEB"/>
<path d="M211.237 149.52L206.336 174.33C205.527 178.424 201.558 181.088 197.464 180.28L173.613 175.573L211.237 149.52Z" fill="#F5F5F5"/>
<path d="M205.59 176.444C205.59 176.444 204.72 182.526 197.474 183.148C197.198 183.175 196.923 183.175 196.657 183.166C193.433 183.104 172.21 182.704 172.299 182.233C172.396 181.727 173.613 175.564 173.613 175.564L197.465 180.28C197.465 180.28 203.459 181.257 205.59 176.444Z" fill="#E0E0E0"/>
<path d="M167.388 249.011C167.388 249.011 167.272 248.976 167.041 248.914C166.81 248.86 166.473 248.763 166.038 248.585C165.185 248.248 163.907 247.582 162.752 246.187C161.633 244.82 160.63 242.609 161.003 239.989C161.465 237.405 162.104 234.439 162.761 231.109C165.416 217.771 169.217 198.679 173.808 175.609L173.728 175.734C185.121 167.857 197.819 159.075 211.37 149.706L211.201 149.742C218.687 151.225 226.484 152.761 234.503 154.35C238.516 155.141 242.583 155.949 246.695 156.757C247.725 156.961 248.755 157.165 249.785 157.37C250.815 157.592 251.872 157.725 252.831 158.089C254.767 158.799 256.392 160.318 257.244 162.218C257.839 163.532 258.079 165.015 257.884 166.436C257.662 167.866 257.324 169.331 257.058 170.77C256.489 173.656 255.921 176.524 255.362 179.365C254.243 185.058 253.133 190.67 252.04 196.175C249.865 207.195 247.769 217.825 245.78 227.957C244.786 233.018 243.809 237.956 242.867 242.76C242.397 245.157 241.926 247.519 241.473 249.846C241.242 251.009 241.02 252.164 240.79 253.309C240.541 254.455 240.408 255.609 239.981 256.639C239.138 258.726 237.371 260.342 235.337 261.07C234.325 261.443 233.242 261.594 232.176 261.532C231.128 261.461 230.063 261.186 229.024 260.999C224.841 260.182 220.827 259.392 217 258.637C201.682 255.645 189.286 253.22 180.707 251.542C176.427 250.716 173.106 250.077 170.833 249.633C169.714 249.42 168.853 249.26 168.267 249.144C167.681 249.056 167.388 249.011 167.388 249.011C167.388 249.011 167.681 249.082 168.258 249.207C168.844 249.331 169.696 249.509 170.815 249.739C173.08 250.192 176.401 250.867 180.672 251.729C189.241 253.442 201.629 255.911 216.938 258.966C220.765 259.729 224.779 260.52 228.953 261.354C230 261.541 231.039 261.825 232.158 261.905C233.268 261.976 234.396 261.816 235.462 261.434C237.593 260.68 239.44 258.983 240.328 256.799C240.79 255.698 240.923 254.526 241.171 253.398C241.402 252.252 241.624 251.098 241.855 249.935C242.317 247.608 242.788 245.246 243.258 242.849C244.208 238.053 245.185 233.116 246.189 228.054C248.195 217.931 250.3 207.302 252.476 196.282C253.568 190.767 254.678 185.164 255.797 179.472C256.356 176.63 256.925 173.762 257.493 170.876C257.768 169.42 258.088 168.008 258.328 166.516C258.532 165.006 258.283 163.435 257.653 162.049C256.747 160.043 255.033 158.435 252.982 157.68C251.952 157.29 250.886 157.165 249.865 156.943C248.835 156.739 247.796 156.535 246.775 156.331C242.663 155.523 238.596 154.715 234.582 153.924C226.564 152.344 218.767 150.807 211.272 149.324L211.184 149.307L211.104 149.36C197.562 158.746 184.872 167.546 173.488 175.432L173.426 175.476L173.408 175.556C168.888 198.635 165.141 217.736 162.521 231.083C161.882 234.421 161.269 237.378 160.816 239.989C160.452 242.662 161.5 244.9 162.646 246.276C163.835 247.679 165.132 248.328 166.002 248.656C166.437 248.825 166.784 248.914 167.023 248.958C167.263 248.994 167.388 249.011 167.388 249.011Z" fill="#2B3242"/>
<path d="M173.612 175.573C173.612 175.591 173.816 175.644 174.216 175.742C174.66 175.84 175.246 175.973 175.965 176.133C177.537 176.461 179.731 176.923 182.412 177.483C185.156 178.042 188.397 178.699 191.985 179.418C193.788 179.774 195.688 180.147 197.65 180.537C199.675 180.901 201.931 180.378 203.662 179.037C204.532 178.371 205.252 177.536 205.758 176.595C206.282 175.671 206.539 174.606 206.708 173.638C207.09 171.675 207.463 169.784 207.809 167.972C208.502 164.376 209.123 161.126 209.656 158.382C210.153 155.691 210.562 153.489 210.864 151.908C210.988 151.18 211.095 150.594 211.166 150.141C211.228 149.733 211.255 149.52 211.237 149.52C211.219 149.52 211.166 149.724 211.068 150.123C210.97 150.567 210.837 151.145 210.677 151.873C210.349 153.444 209.887 155.638 209.328 158.32C208.768 161.064 208.111 164.305 207.383 167.892C207.019 169.695 206.646 171.586 206.255 173.549C206.078 174.543 205.847 175.494 205.349 176.373C204.87 177.252 204.195 178.042 203.378 178.664C201.744 179.925 199.631 180.413 197.721 180.084C195.759 179.703 193.867 179.339 192.065 178.992C188.468 178.3 185.218 177.678 182.474 177.145C179.784 176.648 177.582 176.239 176.001 175.946C175.273 175.822 174.687 175.716 174.234 175.644C173.825 175.582 173.612 175.556 173.612 175.573Z" fill="#2B3242"/>
<path d="M208.067 171.897C208.04 172.022 215.544 173.611 224.824 175.441C234.103 177.27 241.642 178.655 241.669 178.531C241.696 178.406 234.192 176.817 224.912 174.988C215.642 173.158 208.094 171.773 208.067 171.897Z" fill="#2B3242"/>
<path d="M189.685 181.123C189.658 181.248 200.732 183.539 214.407 186.238C228.091 188.938 239.2 191.034 239.227 190.9C239.253 190.776 228.18 188.485 214.496 185.777C200.82 183.086 189.712 180.999 189.685 181.123Z" fill="#2B3242"/>
<path d="M187.244 193.502C187.217 193.627 198.29 195.918 211.966 198.617C225.65 201.317 236.758 203.412 236.785 203.279C236.812 203.155 225.738 200.864 212.054 198.155C198.379 195.465 187.261 193.378 187.244 193.502Z" fill="#2B3242"/>
<path d="M234.343 215.667C234.369 215.542 223.296 213.251 209.621 210.543C195.937 207.843 184.828 205.748 184.801 205.881C184.774 206.005 195.848 208.296 209.532 211.005C223.207 213.695 234.316 215.791 234.343 215.667Z" fill="#2B3242"/>
<path d="M182.35 218.251C182.323 218.376 193.397 220.667 207.072 223.366C220.756 226.066 231.865 228.161 231.892 228.028C231.918 227.904 220.845 225.613 207.161 222.904C193.485 220.214 182.377 218.127 182.35 218.251Z" fill="#2B3242"/>
<path d="M179.909 230.629C179.882 230.754 190.955 233.045 204.631 235.744C218.315 238.444 229.424 240.539 229.45 240.406C229.477 240.282 218.403 237.991 204.719 235.282C191.044 232.592 179.935 230.505 179.909 230.629Z" fill="#2B3242"/>
<path d="M177.404 183.415C177.404 183.415 172.698 177.457 169.075 180.787C165.452 184.117 166.5 185.831 169.945 191.097C169.945 191.097 162.255 190.697 164.724 198.591C164.724 198.591 157.06 197.748 157.797 204.203C157.797 204.203 152.016 209.86 155.018 213.51C158.028 217.159 168.942 223.748 171.694 222.612C174.447 221.475 174.474 217.577 174.474 217.577C174.474 217.577 177.751 216.103 178.656 214.371C179.562 212.639 178.008 210.224 178.008 210.224C178.008 210.224 180.77 207.4 181.454 206.61C182.137 205.82 181.081 202.161 181.081 202.161L176.667 197.881C176.667 197.881 182.741 200.518 184.011 199.515C185.281 198.511 186.702 197.641 185.352 195.803C183.993 193.965 179.18 189.853 179.18 189.853L177.404 183.415Z" fill="#FFBE9D"/>
<path d="M173.861 218.029C173.932 217.949 173.115 217.088 171.872 215.614C170.62 214.166 168.853 212.026 166.26 210.472C163.72 208.918 161.385 207.666 159.955 206.414C158.49 205.197 157.912 204.141 157.806 204.203C157.735 204.221 158.17 205.428 159.609 206.805C161.012 208.208 163.383 209.566 165.869 211.094C168.373 212.594 170.122 214.592 171.49 215.969C172.84 217.354 173.799 218.109 173.861 218.029Z" fill="#EB996E"/>
<path d="M178.115 211.369C178.257 211.227 175.433 208.173 171.81 204.558C169.99 202.774 168.427 201.042 167.086 199.985C165.763 198.902 164.759 198.502 164.724 198.591C164.671 198.689 165.55 199.222 166.749 200.376C167.965 201.495 169.457 203.271 171.295 205.073C174.918 208.697 177.973 211.511 178.115 211.369Z" fill="#EB996E"/>
<path d="M176.668 197.881C176.81 197.694 175.069 196.318 173.133 194.471C171.162 192.641 170.203 190.679 170.017 190.75C169.803 190.794 170.558 193.068 172.618 194.995C174.634 196.913 176.57 198.023 176.668 197.881Z" fill="#EB996E"/>
<path d="M177.404 183.388C177.396 183.397 177.422 183.548 177.484 183.832C177.564 184.161 177.662 184.578 177.786 185.085C178.088 186.239 178.497 187.837 179.021 189.871L179.029 189.915L179.065 189.951C179.953 190.732 180.947 191.629 182.031 192.641C183.079 193.663 184.34 194.773 185.308 196.149C185.521 196.495 185.681 196.886 185.645 197.259C185.61 197.632 185.37 197.987 185.05 198.298C184.739 198.609 184.357 198.893 183.967 199.195C183.647 199.47 183.23 199.461 182.741 199.435C180.823 199.213 178.807 198.422 176.783 197.588L175.362 197.002L176.463 198.076C177.848 199.435 179.331 200.873 180.859 202.374L180.788 202.276C181.347 203.644 181.702 205.367 181.019 206.743C180.255 208.11 178.896 209.265 177.538 210.286L177.236 210.508L177.475 210.792C178.434 211.929 179.118 213.723 177.857 214.824C176.738 215.987 175.211 216.875 173.693 217.674L174.208 217.958L174.199 217.87C174.199 217.87 174.199 217.834 174.199 217.843V217.852C174.11 217.958 174.403 217.594 173.986 218.163C172.991 217.692 173.701 217.967 173.479 217.896V217.905L173.488 218.074V218.429C173.479 218.669 173.453 218.909 173.417 219.157C173.346 219.637 173.222 220.107 173.035 220.551C172.849 220.986 172.591 221.395 172.254 221.723C171.917 222.043 171.508 222.336 171.117 222.381C170.22 222.478 169.173 222.15 168.214 221.803C167.237 221.448 166.278 220.995 165.328 220.507C163.534 219.574 161.82 218.527 160.195 217.399C158.579 216.262 157.007 215.081 155.702 213.714C155.036 213.039 154.601 212.293 154.538 211.405C154.458 210.535 154.672 209.647 155.009 208.821C155.702 207.16 156.829 205.686 158.028 204.425L158.135 204.31L158.126 204.141C158.082 203.271 158.046 202.383 158.383 201.619C158.685 200.847 159.236 200.216 159.929 199.79C161.34 198.937 163.108 198.786 164.67 198.884L165.114 198.911L165.008 198.476C164.892 197.996 164.75 197.525 164.653 197.046C164.626 196.566 164.484 196.096 164.546 195.634C164.519 194.702 164.821 193.814 165.336 193.13C166.42 191.753 168.32 191.336 169.91 191.336H170.425L170.149 190.919C169.235 189.525 168.338 188.201 167.672 186.878C167.352 186.212 167.104 185.546 167.041 184.88C166.979 184.214 167.139 183.575 167.432 183.016C168.063 181.932 168.968 180.982 169.848 180.387C170.789 179.819 171.863 179.836 172.725 180.094C174.474 180.645 175.575 181.701 176.303 182.332C176.667 182.66 176.925 182.936 177.102 183.113C177.298 183.309 177.387 183.397 177.404 183.388C177.413 183.38 177.342 183.264 177.182 183.069C177.023 182.873 176.783 182.58 176.428 182.225C176.081 181.87 175.628 181.444 175.051 181.009C174.474 180.574 173.755 180.103 172.831 179.81C171.934 179.517 170.736 179.455 169.688 180.076C169.448 180.254 169.199 180.431 168.951 180.618C168.729 180.822 168.507 181.035 168.285 181.257C167.858 181.719 167.406 182.199 167.077 182.82C166.74 183.424 166.535 184.17 166.606 184.925C166.668 185.68 166.926 186.408 167.255 187.1C167.929 188.477 168.817 189.818 169.714 191.221L169.954 190.803C169.057 190.777 168.169 190.901 167.272 191.185C166.393 191.469 165.505 191.975 164.884 192.766C164.262 193.556 163.916 194.595 163.942 195.616C163.88 196.131 164.022 196.629 164.049 197.153C164.147 197.659 164.289 198.156 164.413 198.662L164.75 198.254C163.045 198.138 161.234 198.271 159.591 199.222C158.792 199.701 158.117 200.465 157.762 201.371C157.362 202.276 157.398 203.271 157.451 204.221L157.549 203.937C156.27 205.269 155.116 206.752 154.352 208.554C153.988 209.451 153.73 210.446 153.819 211.476C153.863 212 154.032 212.497 154.245 212.977C154.53 213.43 154.823 213.865 155.169 214.211C156.545 215.65 158.126 216.848 159.769 218.003C161.42 219.148 163.152 220.214 164.981 221.164C165.949 221.661 166.935 222.123 167.947 222.496C168.968 222.851 170.007 223.224 171.215 223.1C172.494 222.833 173.24 221.839 173.693 220.844C173.906 220.329 174.048 219.805 174.119 219.273C174.154 219.006 174.181 218.74 174.19 218.473V218.074L174.181 217.861L174.172 217.816V217.807C173.959 217.727 174.66 218.003 173.666 217.532C173.249 218.1 173.542 217.736 173.453 217.843V217.87V217.941L173.462 218.047L173.506 218.58L173.977 218.331C175.557 217.488 177.085 216.617 178.346 215.312C178.648 214.975 178.941 214.593 179.092 214.113C179.243 213.643 179.243 213.145 179.154 212.693C178.958 211.778 178.514 211.023 177.955 210.339L177.893 210.845C179.314 209.753 180.681 208.625 181.569 207.036C181.986 206.21 182.066 205.278 181.978 204.425C181.889 203.564 181.667 202.765 181.329 201.992L181.312 201.939L181.267 201.894C179.722 200.411 178.239 198.973 176.836 197.632L176.508 198.12C178.594 198.955 180.583 199.728 182.661 199.959C183.159 199.994 183.807 199.976 184.251 199.595C184.624 199.293 185.015 199 185.37 198.644C185.716 198.298 186.036 197.845 186.089 197.295C186.133 196.753 185.911 196.273 185.672 195.883C184.588 194.4 183.345 193.37 182.262 192.34C181.161 191.336 180.148 190.457 179.234 189.693L179.287 189.773C178.692 187.749 178.23 186.15 177.893 185.005C177.742 184.507 177.618 184.099 177.511 183.779C177.467 183.522 177.413 183.388 177.404 183.388Z" fill="#EB996E"/>
<path d="M95.9575 366.787H150.676C154.459 366.787 157.522 363.723 157.522 359.94V284.203C157.522 280.42 154.459 277.356 150.676 277.356H115.973L89.111 305.044V359.94C89.111 363.723 92.1835 366.787 95.9575 366.787Z" fill="#EBEBEB"/>
<path d="M115.981 277.356V298.668C115.981 302.185 113.131 305.035 109.615 305.035H89.1194L115.981 277.356Z" fill="#F5F5F5"/>
<path d="M115.697 300.542C115.697 300.542 115.964 305.71 110.085 307.415C109.863 307.477 109.641 307.531 109.41 307.566C106.738 308.046 89.1196 311.18 89.1196 310.772C89.1196 310.337 89.1196 305.044 89.1196 305.044H109.615C109.615 305.044 114.729 304.867 115.697 300.542Z" fill="#E0E0E0"/>
<path d="M95.9575 366.786C95.9575 366.751 95.549 366.795 94.7764 366.644C94.0127 366.502 92.8583 366.156 91.6684 365.197C90.5229 364.247 89.333 362.586 89.2175 360.366C89.182 358.155 89.2264 355.598 89.2175 352.738C89.2353 341.274 89.262 324.864 89.2975 305.044L89.2442 305.177C97.3783 296.803 106.445 287.47 116.124 277.507L115.964 277.578C122.402 277.578 129.098 277.587 135.988 277.587C139.434 277.587 142.933 277.587 146.467 277.587C147.346 277.587 148.234 277.587 149.122 277.587C150.01 277.596 150.907 277.542 151.75 277.685C153.455 277.96 155.036 278.945 156.048 280.366C156.75 281.352 157.185 282.533 157.256 283.732C157.3 284.948 157.274 286.218 157.283 287.444C157.283 289.921 157.283 292.39 157.283 294.832C157.283 299.725 157.283 304.538 157.283 309.28C157.292 318.746 157.292 327.883 157.3 336.586C157.3 340.937 157.309 345.181 157.309 349.302C157.309 351.362 157.309 353.395 157.318 355.393C157.318 356.397 157.318 357.383 157.318 358.368C157.3 359.354 157.38 360.331 157.194 361.245C156.839 363.101 155.649 364.717 154.095 365.65C153.322 366.12 152.452 366.422 151.573 366.538C150.694 366.644 149.77 366.591 148.882 366.609C145.295 366.618 141.84 366.618 138.555 366.627C125.404 366.653 114.756 366.68 107.386 366.698C103.719 366.715 100.859 366.733 98.9145 366.742C97.9555 366.751 97.2184 366.76 96.7123 366.769C96.215 366.769 95.9575 366.786 95.9575 366.786C95.9575 366.786 96.215 366.804 96.7123 366.813C97.2184 366.822 97.9555 366.822 98.9145 366.84C100.868 366.849 103.719 366.866 107.386 366.884C114.756 366.902 125.404 366.929 138.555 366.955C141.849 366.964 145.295 366.964 148.882 366.973C149.779 366.955 150.676 367.017 151.626 366.902C152.559 366.778 153.473 366.458 154.29 365.969C155.933 364.993 157.194 363.288 157.576 361.325C157.78 360.34 157.7 359.345 157.718 358.368C157.718 357.383 157.718 356.397 157.718 355.393C157.718 353.395 157.718 351.362 157.727 349.302C157.727 345.181 157.736 340.937 157.736 336.586C157.736 327.883 157.744 318.746 157.753 309.28C157.753 304.547 157.753 299.725 157.753 294.832C157.753 292.39 157.753 289.921 157.753 287.444C157.744 286.2 157.78 284.975 157.727 283.696C157.647 282.409 157.185 281.148 156.43 280.091C155.347 278.573 153.66 277.516 151.83 277.223C150.907 277.072 150.01 277.134 149.131 277.116C148.243 277.116 147.355 277.116 146.476 277.116C142.942 277.116 139.443 277.116 135.997 277.116C129.107 277.116 122.402 277.125 115.973 277.125H115.875L115.813 277.196C106.152 287.177 97.0941 296.519 88.9689 304.902L88.9156 304.955V305.035C88.9512 324.855 88.9778 341.265 88.9955 352.729C89.0133 355.598 88.9867 358.146 89.04 360.375C89.1732 362.648 90.4075 364.336 91.5885 365.286C92.8051 366.254 93.9861 366.573 94.7587 366.698C95.1494 366.76 95.4513 366.778 95.6467 366.778C95.8598 366.795 95.9575 366.786 95.9575 366.786Z" fill="#2B3242"/>
<path d="M89.1114 305.044C89.1114 305.062 89.289 305.08 89.6353 305.089C90.0349 305.098 90.5322 305.115 91.1449 305.133C92.5213 305.151 94.395 305.177 96.695 305.204C99.057 305.222 101.845 305.231 104.927 305.249C106.481 305.249 108.106 305.249 109.793 305.249C111.542 305.213 113.327 304.414 114.553 303.02C115.165 302.327 115.627 301.51 115.894 300.649C116.178 299.796 116.213 298.864 116.195 298.038C116.187 296.351 116.187 294.726 116.178 293.172C116.16 290.09 116.142 287.302 116.124 284.94C116.098 282.64 116.071 280.757 116.053 279.39C116.036 278.777 116.018 278.28 116.009 277.88C115.991 277.534 115.982 277.356 115.965 277.356C115.947 277.356 115.929 277.534 115.92 277.88C115.911 278.28 115.894 278.777 115.876 279.39C115.858 280.766 115.831 282.64 115.805 284.94C115.787 287.302 115.778 290.09 115.751 293.172C115.751 294.726 115.743 296.351 115.734 298.038C115.751 298.89 115.716 299.699 115.45 300.515C115.192 301.315 114.766 302.069 114.197 302.718C113.061 304.023 111.4 304.769 109.775 304.805C108.097 304.813 106.472 304.822 104.918 304.831C101.836 304.849 99.0481 304.867 96.6861 304.884C94.3861 304.911 92.5036 304.938 91.1361 304.955C90.5233 304.973 90.026 304.991 89.6264 305C89.2979 305.009 89.1114 305.027 89.1114 305.044Z" fill="#2B3242"/>
<path d="M117.012 296.377C117.012 296.502 123.477 296.608 131.451 296.608C139.425 296.608 145.89 296.502 145.89 296.377C145.89 296.253 139.425 296.146 131.451 296.146C123.477 296.146 117.012 296.244 117.012 296.377Z" fill="#2B3242"/>
<path d="M103.31 307.006C103.31 307.131 112.838 307.237 124.595 307.237C136.353 307.237 145.881 307.131 145.881 307.006C145.881 306.882 136.353 306.775 124.595 306.775C112.847 306.775 103.31 306.882 103.31 307.006Z" fill="#2B3242"/>
<path d="M103.31 317.645C103.31 317.769 112.838 317.876 124.595 317.876C136.353 317.876 145.881 317.769 145.881 317.645C145.881 317.521 136.353 317.414 124.595 317.414C112.847 317.414 103.31 317.512 103.31 317.645Z" fill="#2B3242"/>
<path d="M103.31 328.274C103.31 328.398 112.838 328.505 124.595 328.505C136.353 328.505 145.881 328.398 145.881 328.274C145.881 328.15 136.353 328.043 124.595 328.043C112.847 328.043 103.31 328.15 103.31 328.274Z" fill="#2B3242"/>
<path d="M103.31 338.913C103.31 339.037 112.838 339.143 124.595 339.143C136.353 339.143 145.881 339.037 145.881 338.913C145.881 338.788 136.353 338.682 124.595 338.682C112.847 338.682 103.31 338.779 103.31 338.913Z" fill="#2B3242"/>
<path d="M103.31 352.019C103.31 352.143 112.838 352.25 124.595 352.25C136.353 352.25 145.881 352.143 145.881 352.019C145.881 351.895 136.353 351.788 124.595 351.788C112.847 351.788 103.31 351.895 103.31 352.019Z" fill="#2B3242"/>
</g>
<defs>
<clipPath id="clip0">
<rect width="666" height="444" fill="white" transform="matrix(-1 0 0 1 666 -15)"/>
</clipPath>
</defs>
</svg>
