<svg width="38" height="38" viewBox="0 0 38 38" fill="none" xmlns="http://www.w3.org/2000/svg">
<path d="M12.6665 34.8333H25.3331C31.6981 34.8333 32.8381 32.2842 33.1706 29.1808L34.3581 16.5142C34.7856 12.6508 33.6773 9.5 26.9165 9.5H11.0831C4.32231 9.5 3.21397 12.6508 3.64147 16.5142L4.82897 29.1808C5.16147 32.2842 6.30147 34.8333 12.6665 34.8333Z" stroke="#EB3A53" stroke-width="2.3" stroke-miterlimit="10" stroke-linecap="round" stroke-linejoin="round"/>
<path d="M12.6665 9.49984V8.23317C12.6665 5.43067 12.6665 3.1665 17.7332 3.1665H20.2665C25.3332 3.1665 25.3332 5.43067 25.3332 8.23317V9.49984" stroke="#EB3A53" stroke-width="2.3" stroke-miterlimit="10" stroke-linecap="round" stroke-linejoin="round"/>
<path d="M22.1668 20.5833V22.1667C22.1668 22.1825 22.1668 22.1825 22.1668 22.1983C22.1668 23.9242 22.151 25.3333 19.0002 25.3333C15.8652 25.3333 15.8335 23.94 15.8335 22.2142V20.5833C15.8335 19 15.8335 19 17.4168 19H20.5835C22.1668 19 22.1668 19 22.1668 20.5833Z" stroke="#EB3A53" stroke-width="2.3" stroke-miterlimit="10" stroke-linecap="round" stroke-linejoin="round"/>
<path d="M34.279 17.4165C30.6215 20.0765 26.4415 21.6598 22.1665 22.1982" stroke="#EB3A53" stroke-width="2.3" stroke-miterlimit="10" stroke-linecap="round" stroke-linejoin="round"/>
<path d="M4.14844 17.8442C7.71094 20.2826 11.7326 21.7551 15.8334 22.2142" stroke="#EB3A53" stroke-width="2.3" stroke-miterlimit="10" stroke-linecap="round" stroke-linejoin="round"/>
</svg>
