<svg width="32" height="31" viewBox="0 0 32 31" fill="none" xmlns="http://www.w3.org/2000/svg">
<path d="M6.33729 12.9219H9.34375C12.3502 12.9219 13.8535 11.4186 13.8535 8.41217V5.4057C13.8535 2.39923 12.3502 0.895996 9.34375 0.895996H6.33729C3.33082 0.895996 1.82758 2.39923 1.82758 5.4057V8.41217C1.82758 11.4186 3.33082 12.9219 6.33729 12.9219Z" stroke="#DC2B40" stroke-width="1.76897" stroke-miterlimit="10" stroke-linecap="round" stroke-linejoin="round"/>
<path d="M23.1727 12.9216H26.1792C29.1857 12.9216 30.6889 11.4184 30.6889 8.41192V5.40545C30.6889 2.39899 29.1857 0.895752 26.1792 0.895752H23.1727C20.1663 0.895752 18.663 2.39899 18.663 5.40545V8.41192C18.663 11.4184 20.1663 12.9216 23.1727 12.9216Z" stroke="#DC2B40" stroke-width="1.76897" stroke-miterlimit="10" stroke-linecap="round" stroke-linejoin="round"/>
<path d="M23.1727 29.7576H26.1792C29.1857 29.7576 30.6889 28.2543 30.6889 25.2479V22.2414C30.6889 19.2349 29.1857 17.7317 26.1792 17.7317H23.1727C20.1663 17.7317 18.663 19.2349 18.663 22.2414V25.2479C18.663 28.2543 20.1663 29.7576 23.1727 29.7576Z" stroke="#DC2B40" stroke-width="1.76897" stroke-miterlimit="10" stroke-linecap="round" stroke-linejoin="round"/>
<path d="M6.33772 29.7576H9.34419C12.3507 29.7576 13.8539 28.2543 13.8539 25.2479V22.2414C13.8539 19.2349 12.3507 17.7317 9.34419 17.7317H6.33772C3.33125 17.7317 1.82802 19.2349 1.82802 22.2414V25.2479C1.82802 28.2543 3.33125 29.7576 6.33772 29.7576Z" stroke="#DC2B40" stroke-width="1.76897" stroke-miterlimit="10" stroke-linecap="round" stroke-linejoin="round"/>
</svg>
