<svg width="194" height="193" viewBox="0 0 194 193" fill="none" xmlns="http://www.w3.org/2000/svg">
<path d="M41.9741 57.4995L42.6987 56.3735L44.1005 62.0988L50.4637 61.123L49.6969 62.3146L43.4766 63.2123L41.9741 57.4995ZM47.3472 65.9659L46.7493 66.8951L39.0968 61.9707L39.6948 61.0415L47.3472 65.9659Z" fill="#D7728B"/>
<path d="M51.5834 59.7748L50.8262 60.5973L46.7434 51.5197L47.3862 50.8216L56.7696 54.1416L55.9684 55.0119L53.1483 54.006L50.3395 57.0569L51.5834 59.7748ZM52.0926 53.6172L48.1236 52.1895L49.8738 56.0273L52.0926 53.6172Z" fill="#D7728B"/>
<path d="M58.2778 41.2921L59.3408 40.4779L58.7215 46.3397L65.0393 47.5758L63.9144 48.4374L57.7575 47.1762L58.2778 41.2921ZM60.4673 51.0776L59.5901 51.7495L54.0567 44.5252L54.9339 43.8532L60.4673 51.0776Z" fill="#D7728B"/>
<path d="M71.4187 44.04L70.3947 44.4553L66.9749 36.0223L68.0109 35.6021L72.9332 38.6422L74.2152 33.0861L75.191 32.6904L78.6108 41.1233L77.5868 41.5386L74.8216 34.72L73.5341 40.1239L73.3775 40.1875L68.6682 37.2575L71.4187 44.04Z" fill="#D7728B"/>
<path d="M90.7712 38.4948L89.6837 38.6905L88.0723 29.7343L89.1599 29.5386L90.7712 38.4948ZM84.0071 34.8906C83.7086 34.9443 83.3422 35.0366 82.9078 35.1676L83.5477 38.7245C84.2433 38.6258 84.6038 38.5741 84.6294 38.5695C86.1477 38.2963 86.7925 37.5243 86.5638 36.2534C86.461 35.6819 86.1908 35.2814 85.7533 35.0519C85.3142 34.8139 84.7322 34.7601 84.0071 34.8906ZM81.0353 31.0003L82.1229 30.8046L82.7214 34.1312C83.3108 33.9812 83.7036 33.8885 83.8997 33.8532C84.983 33.6583 85.8499 33.7533 86.5003 34.1382C87.1492 34.5146 87.5527 35.1421 87.7108 36.0206C87.8796 36.9589 87.6994 37.7442 87.1704 38.3765C86.6398 39.0003 85.8115 39.4135 84.6856 39.6161C84.2591 39.6928 83.8873 39.7553 83.5702 39.8036C83.2616 39.8503 82.9537 39.9013 82.6467 39.9565L81.0353 31.0003Z" fill="#D7728B"/>
<path d="M101.153 34.981L100.836 38.4636L99.7356 38.3635L100.561 29.3009C100.923 29.3339 101.307 29.3646 101.714 29.3929C102.12 29.4212 102.526 29.4538 102.932 29.4907C104.123 29.5991 104.953 29.9445 105.422 30.5267C105.901 31.1011 106.103 31.794 106.029 32.6053C105.958 33.3907 105.612 34.038 104.991 34.5472C104.389 35.0493 103.561 35.2524 102.508 35.1566C101.955 35.1063 101.504 35.0478 101.153 34.981ZM102.941 30.5358C102.786 30.5217 102.328 30.4887 101.567 30.4368L101.248 33.9324C101.788 34.025 102.227 34.0867 102.563 34.1173C103.228 34.1778 103.764 34.0657 104.173 33.7809C104.583 33.4875 104.814 33.0559 104.865 32.4863C104.917 31.9253 104.779 31.4776 104.453 31.1433C104.136 30.8012 103.632 30.5987 102.941 30.5358Z" fill="#D7728B"/>
<path d="M108.332 39.3776L107.252 39.0856L113.42 31.2731L114.336 31.521L115.723 41.3773L114.581 41.0683L114.171 38.1024L110.168 37.0194L108.332 39.3776ZM114.029 36.9865L113.463 32.8066L110.866 36.1309L114.029 36.9865Z" fill="#D7728B"/>
<path d="M118.893 42.6761L122.711 34.4157L127.384 36.5754L126.948 37.5195L123.278 35.8233L122.181 38.1952C122.62 38.3407 123.052 38.5117 123.477 38.708C124.389 39.1298 124.997 39.6733 125.301 40.3387C125.612 41.0078 125.594 41.7199 125.245 42.4751C124.855 43.3169 124.276 43.8369 123.507 44.035C122.745 44.2368 121.861 44.105 120.854 43.6396C120.689 43.5632 120.319 43.3827 119.744 43.0979C119.634 43.047 119.51 42.9849 119.372 42.9116C119.238 42.8497 119.133 42.7967 119.058 42.7525C118.988 42.7198 118.933 42.6943 118.893 42.6761ZM122.982 39.6248C122.62 39.4575 122.208 39.2957 121.745 39.1393L120.333 42.1957C120.751 42.4271 121.121 42.6174 121.444 42.7664C122.104 43.0719 122.668 43.1651 123.133 43.0461C123.61 42.9228 123.969 42.6016 124.209 42.0824C124.434 41.5946 124.441 41.1349 124.23 40.7032C124.027 40.2751 123.611 39.9157 122.982 39.6248Z" fill="#D7728B"/>
<path d="M129.655 42.9945C130.414 41.9179 131.411 41.2634 132.645 41.0312C133.88 40.799 135.047 41.0699 136.144 41.844C137.235 42.6131 137.886 43.6076 138.097 44.8273C138.315 46.0521 138.03 47.2241 137.241 48.3432C136.471 49.434 135.466 50.093 134.224 50.3203C132.992 50.5333 131.834 50.2578 130.751 49.4937C129.667 48.7296 129.013 47.7327 128.787 46.5029C128.576 45.2831 128.865 44.1136 129.655 42.9945ZM130.611 43.6687C130.021 44.5045 129.795 45.4051 129.931 46.3704C130.076 47.3216 130.55 48.0794 131.35 48.6437C132.186 49.233 133.066 49.4292 133.989 49.2321C134.92 49.04 135.685 48.519 136.284 47.669C136.884 46.819 137.11 45.9185 136.964 44.9673C136.819 44.0161 136.345 43.2583 135.545 42.694C134.731 42.1196 133.857 41.9225 132.924 42.1025C131.991 42.2825 131.22 42.8046 130.611 43.6687Z" fill="#D7728B"/>
<path d="M143.669 49.7973L141.444 47.5188L142.188 46.7921L147.411 52.1395L146.667 52.8662L144.441 50.5877L138.676 56.2197L137.903 55.4292L143.669 49.7973Z" fill="#D7728B"/>
<path d="M142.412 60.3537L141.775 59.4344L151.528 57.4443L152.068 58.2247L146.769 66.6502L146.095 65.6774L147.696 63.147L145.336 59.7369L142.412 60.3537ZM148.307 62.2025L150.571 58.6437L146.443 59.5085L148.307 62.2025Z" fill="#D7728B"/>
<path d="M150.263 73.7948L148.02 69.0311L156.254 65.1555L158.441 69.8016L157.5 70.2445L155.783 66.5982L153.125 67.8495L154.675 71.1429L153.735 71.5858L152.184 68.2924L149.432 69.588L151.204 73.3519L150.263 73.7948Z" fill="#D7728B"/>
<path d="M151.81 77.6712L151.524 76.6039L160.315 74.2497L160.604 75.3296L156.98 79.8396L162.336 81.7967L162.608 82.8139L153.818 85.168L153.532 84.1007L160.64 82.1971L155.436 80.2533L155.392 80.09L158.88 75.7778L151.81 77.6712Z" fill="#D7728B"/>
<path d="M161.093 115.727L160.763 117.024L157.618 112.04L151.893 114.983L152.242 113.61L157.856 110.786L161.093 115.727ZM153.312 109.402L153.584 108.331L162.403 110.574L162.131 111.645L153.312 109.402Z" fill="#D7728B"/>
<path d="M151.265 116.578L151.723 115.558L158.474 122.872L158.086 123.738L148.134 123.565L148.618 122.486L151.611 122.545L153.307 118.761L151.265 116.578ZM152.736 122.579L156.952 122.674L154.075 119.59L152.736 122.579Z" fill="#D7728B"/>
<path d="M150.661 136.447L149.91 137.556L148.641 131.8L142.257 132.629L143.051 131.455L149.29 130.701L150.661 136.447ZM145.484 127.859L146.104 126.944L153.64 132.044L153.021 132.959L145.484 127.859Z" fill="#D7728B"/>
<path d="M137.545 137.806L138.384 137.086L144.313 143.989L143.465 144.718L137.83 143.405L138.386 149.08L137.588 149.766L131.658 142.863L132.496 142.143L137.291 147.725L136.789 142.192L136.917 142.082L142.314 143.358L137.545 137.806Z" fill="#D7728B"/>
<path d="M120.755 149.319L121.727 148.794L126.049 156.803L125.076 157.328L120.755 149.319ZM128.305 150.637C128.572 150.493 128.891 150.291 129.263 150.031L127.547 146.851C126.917 147.161 126.591 147.322 126.568 147.335C125.21 148.067 124.838 149.002 125.451 150.138C125.727 150.649 126.108 150.946 126.596 151.027C127.087 151.117 127.657 150.987 128.305 150.637ZM132.341 153.408L131.368 153.932L129.763 150.958C129.25 151.284 128.906 151.494 128.73 151.589C127.762 152.112 126.908 152.292 126.17 152.128C125.436 151.973 124.858 151.502 124.434 150.717C123.981 149.878 123.908 149.075 124.213 148.31C124.523 147.552 125.181 146.901 126.188 146.358C126.57 146.152 126.903 145.977 127.19 145.832C127.468 145.692 127.745 145.547 128.02 145.399L132.341 153.408Z" fill="#D7728B"/>
<path d="M112.163 155.907L111.369 152.501L112.445 152.25L114.511 161.113C114.156 161.196 113.782 161.287 113.387 161.388C112.992 161.489 112.596 161.586 112.2 161.678C111.035 161.95 110.138 161.883 109.51 161.477C108.875 161.083 108.465 160.488 108.28 159.695C108.101 158.927 108.226 158.204 108.656 157.525C109.07 156.859 109.792 156.406 110.822 156.166C111.362 156.04 111.809 155.954 112.163 155.907ZM111.862 160.689C112.014 160.654 112.46 160.541 113.199 160.351L112.402 156.932C111.86 157.014 111.425 157.093 111.096 157.17C110.446 157.322 109.972 157.597 109.673 157.996C109.376 158.403 109.293 158.885 109.423 159.442C109.551 159.991 109.822 160.372 110.237 160.587C110.645 160.812 111.187 160.846 111.862 160.689Z" fill="#D7728B"/>
<path d="M103.821 154.048L104.937 153.984L101.555 163.345L100.608 163.4L96.1767 154.487L97.3577 154.419L98.6837 157.104L102.824 156.866L103.821 154.048ZM99.1716 158.117L101.03 161.904L102.442 157.93L99.1716 158.117Z" fill="#D7728B"/>
<path d="M92.8658 154.295L91.8378 163.337L86.7228 162.755L86.8403 161.722L90.8574 162.179L91.1526 159.582C90.6903 159.582 90.2266 159.555 89.7616 159.503C88.7627 159.389 88.0147 159.064 87.5174 158.528C87.0115 157.991 86.8056 157.309 86.8995 156.482C87.0043 155.561 87.3908 154.885 88.0589 154.455C88.7185 154.024 89.5994 153.871 90.7016 153.997C90.8825 154.017 91.2905 154.072 91.9258 154.162C92.0463 154.176 92.1836 154.196 92.3377 154.222C92.484 154.238 92.5998 154.256 92.6849 154.274C92.7624 154.283 92.8227 154.29 92.8658 154.295ZM89.9437 158.477C90.3398 158.522 90.7819 158.546 91.27 158.549L91.6504 155.203C91.1807 155.115 90.7693 155.051 90.4162 155.011C89.6929 154.929 89.1289 155.017 88.7244 155.276C88.3103 155.543 88.0709 155.961 88.0063 156.529C87.9456 157.063 88.0832 157.502 88.4193 157.845C88.7467 158.188 89.2548 158.398 89.9437 158.477Z" fill="#D7728B"/>
<path d="M83.0684 157.554C82.6905 158.816 81.9531 159.753 80.856 160.365C79.7589 160.978 78.5669 161.091 77.28 160.706C76.0015 160.323 75.0684 159.587 74.4809 158.497C73.8851 157.405 73.7836 156.203 74.1763 154.891C74.5592 153.613 75.3032 152.668 76.4086 152.059C77.509 151.465 78.6944 151.359 79.9647 151.739C81.235 152.119 82.1721 152.857 82.7762 153.951C83.3637 155.041 83.4611 156.242 83.0684 157.554ZM81.9475 157.218C82.2408 156.238 82.1698 155.312 81.7343 154.44C81.2939 153.584 80.6046 153.016 79.6664 152.735C78.6867 152.442 77.7902 152.535 76.977 153.016C76.1554 153.494 75.5955 154.231 75.2972 155.227C74.9989 156.223 75.07 157.149 75.5104 158.005C75.9508 158.86 76.6402 159.429 77.5783 159.709C78.5331 159.995 79.4242 159.905 80.2516 159.438C81.0789 158.971 81.6443 158.231 81.9475 157.218Z" fill="#D7728B"/>
<path d="M67.3545 155.502L70.192 156.949L69.7196 157.875L63.0602 154.48L63.5326 153.554L66.3701 155L70.0311 147.82L71.0155 148.322L67.3545 155.502Z" fill="#D7728B"/>
<path d="M64.904 144.966L65.7975 145.638L57.1692 150.6L56.4108 150.029L58.7845 140.363L59.73 141.074L59.0085 143.98L62.3228 146.473L64.904 144.966ZM58.7262 145.069L57.699 149.16L61.3444 147.038L58.7262 145.069Z" fill="#D7728B"/>
<path d="M53.1898 134.718L56.8258 138.526L50.2444 144.81L46.6981 141.097L47.4503 140.378L50.2334 143.293L52.3583 141.264L49.8445 138.631L50.5967 137.913L53.1105 140.546L55.3105 138.445L52.4376 135.436L53.1898 134.718Z" fill="#D7728B"/>
<path d="M50.5313 131.606L51.1398 132.529L43.5436 137.539L42.928 136.606L44.9411 131.182L39.2414 131.018L38.6616 130.139L46.2578 125.128L46.8663 126.05L40.7242 130.102L46.2758 130.302L46.3689 130.443L44.4218 135.636L50.5313 131.606Z" fill="#D7728B"/>
</svg>
