<svg width="65" height="65" viewBox="0 0 65 65" fill="none" xmlns="http://www.w3.org/2000/svg">
<circle cx="32.5" cy="32.5" r="32.5" fill="#ECEBF0"/>
<path d="M24 31.1C23.5029 31.1 23.1 31.5029 23.1 32C23.1 32.4971 23.5029 32.9 24 32.9L24 31.1ZM42.6364 32.6364C42.9879 32.2849 42.9879 31.7151 42.6364 31.3636L36.9088 25.636C36.5574 25.2846 35.9875 25.2846 35.636 25.636C35.2846 25.9875 35.2846 26.5574 35.636 26.9088L40.7272 32L35.636 37.0912C35.2846 37.4426 35.2846 38.0125 35.636 38.364C35.9875 38.7154 36.5574 38.7154 36.9088 38.364L42.6364 32.6364ZM24 32.9L42 32.9L42 31.1L24 31.1L24 32.9Z" fill="#171E2F"/>
</svg>
