<svg width="474" height="201" viewBox="0 0 474 201" fill="none" xmlns="http://www.w3.org/2000/svg">
<path fill-rule="evenodd" clip-rule="evenodd" d="M449 40.132C463.033 41.4999 474 53.3306 474 67.7228V173.277C474 188.588 461.588 201 446.277 201H27.7228C12.4119 201 0 188.588 0 173.277V0H125.432C133.707 0 141.55 3.69699 146.816 10.0805L163.184 29.9195C168.45 36.303 176.293 40 184.568 40H344C357.807 40 368.471 27.7861 376.558 16.5955C383.824 6.54199 395.648 0 409 0C431.091 0 449 17.9086 449 40C449 40.044 449 40.088 449 40.132Z" fill="#F2F1F5"/>
</svg>
