<svg width="26" height="24" viewBox="0 0 26 24" fill="none" xmlns="http://www.w3.org/2000/svg">
<path d="M11.2825 3.01355C12.0409 1.68289 13.9591 1.68289 14.7175 3.01355C15.2236 3.90174 16.3235 4.25745 17.254 3.83387L17.5714 3.68937C18.8877 3.09011 20.3421 4.19516 20.1177 5.62392C19.9621 6.61367 20.6376 7.54236 21.6271 7.69927L21.8607 7.7363C23.2924 7.96334 23.8413 9.73424 22.7891 10.7313C22.0615 11.4206 22.0615 12.5794 22.7891 13.2687C23.8413 14.2658 23.2924 16.0367 21.8607 16.2637L21.6271 16.3007C20.6376 16.4576 19.9621 17.3863 20.1177 18.3761C20.3421 19.8048 18.8877 20.9099 17.5714 20.3106L17.254 20.1661C16.3235 19.7425 15.2236 20.0983 14.7175 20.9865C13.9591 22.3171 12.0409 22.3171 11.2825 20.9865C10.7764 20.0983 9.67645 19.7425 8.74603 20.1661L8.42864 20.3106C7.11234 20.9099 5.65785 19.8048 5.88234 18.3761C6.03786 17.3863 5.36238 16.4576 4.37285 16.3007L4.13932 16.2637C2.7076 16.0367 2.15866 14.2658 3.21094 13.2687C3.93851 12.5794 3.93851 11.4206 3.21094 10.7313C2.15866 9.73424 2.7076 7.96334 4.13932 7.7363L4.37285 7.69927C5.36238 7.54236 6.03786 6.61367 5.88234 5.62392C5.65785 4.19516 7.11234 3.09011 8.42864 3.68937L8.74603 3.83387C9.67645 4.25745 10.7764 3.90174 11.2825 3.01355Z" fill="#3AB292"/>
<path d="M9 12.75L11.1818 15L17 9" stroke="white" stroke-width="2" stroke-linecap="round" stroke-linejoin="round"/>
</svg>
