<svg width="33" height="33" viewBox="0 0 33 33" fill="none" xmlns="http://www.w3.org/2000/svg">
<path d="M16.0807 19.0749C18.1276 19.0749 19.787 17.4156 19.787 15.3686C19.787 13.3217 18.1276 11.6624 16.0807 11.6624C14.0338 11.6624 12.3744 13.3217 12.3744 15.3686C12.3744 17.4156 14.0338 19.0749 16.0807 19.0749Z" stroke="#DC2B40" stroke-width="1.86207" stroke-linecap="round" stroke-linejoin="round"/>
<path d="M22.9267 27.6086C22.9267 24.5354 19.8666 22.0293 16.0812 22.0293C12.2958 22.0293 9.23579 24.5222 9.23579 27.6086" stroke="#DC2B40" stroke-width="1.86207" stroke-linecap="round" stroke-linejoin="round"/>
<path d="M28.6632 17.4523C28.6632 24.3769 23.0576 29.9825 16.133 29.9825C9.20844 29.9825 3.60284 24.3769 3.60284 17.4523C3.60284 10.5277 9.20844 4.92212 16.133 4.92212C17.8609 4.92212 19.5096 5.26504 21.0132 5.89814C20.8417 6.42573 20.7494 6.97971 20.7494 7.56005C20.7494 8.54927 21.0264 9.48574 21.5144 10.2771C21.7782 10.7256 22.1211 11.1344 22.5168 11.4773C23.4401 12.3215 24.6667 12.8359 26.0253 12.8359C26.6056 12.8359 27.1596 12.7436 27.674 12.5589C28.3071 14.0625 28.6632 15.7244 28.6632 17.4523Z" stroke="#DC2B40" stroke-width="1.86207" stroke-linecap="round" stroke-linejoin="round"/>
<path d="M31.3014 7.56029C31.3014 7.98235 31.2487 8.39122 31.1431 8.78691C31.0244 9.3145 30.8134 9.8289 30.5364 10.2774C29.9033 11.3457 28.8877 12.1766 27.6743 12.5591C27.1599 12.7438 26.6059 12.8361 26.0256 12.8361C24.667 12.8361 23.4404 12.3217 22.5171 11.4776C22.1214 11.1346 21.7785 10.7258 21.5147 10.2774C21.0267 9.48597 20.7497 8.54951 20.7497 7.56029C20.7497 6.97994 20.842 6.42596 21.0135 5.89838C21.2641 5.13338 21.6862 4.44756 22.2401 3.8804C23.203 2.89118 24.5483 2.28442 26.0256 2.28442C27.5819 2.28442 28.9932 2.95712 29.9429 4.03867C30.787 4.97514 31.3014 6.21494 31.3014 7.56029Z" stroke="#DC2B40" stroke-width="1.86207" stroke-miterlimit="10" stroke-linecap="round" stroke-linejoin="round"/>
<path d="M27.9906 7.53296H24.06" stroke="#DC2B40" stroke-width="1.86207" stroke-miterlimit="10" stroke-linecap="round" stroke-linejoin="round"/>
<path d="M26.0249 5.60718V9.55087" stroke="#DC2B40" stroke-width="1.86207" stroke-miterlimit="10" stroke-linecap="round" stroke-linejoin="round"/>
</svg>
