<svg width="21" height="21" viewBox="0 0 21 21" fill="none" xmlns="http://www.w3.org/2000/svg">
<circle cx="10.5" cy="10.5" r="10" stroke="#D52A47"/>
<path d="M10.208 12.76V5H11.568V12.76H10.208ZM10 15.336C10 15.112 10.0853 14.9147 10.256 14.744C10.4267 14.5733 10.6507 14.488 10.928 14.488C11.1627 14.488 11.36 14.5787 11.52 14.76C11.6907 14.9307 11.776 15.1227 11.776 15.336C11.776 15.5813 11.696 15.7947 11.536 15.976C11.376 16.1573 11.1733 16.248 10.928 16.248C10.6507 16.248 10.4267 16.1573 10.256 15.976C10.0853 15.7947 10 15.5813 10 15.336Z" fill="#D52A47"/>
</svg>
