<svg width="21" height="20" viewBox="0 0 21 20" fill="none" xmlns="http://www.w3.org/2000/svg">
<path d="M12.1413 2.29976L13.8131 5.49359C14.041 5.93818 14.649 6.36463 15.1619 6.44629L18.1921 6.92718C20.1299 7.23567 20.5858 8.57853 19.1895 9.90325L16.8337 12.1534C16.4348 12.5345 16.2163 13.2695 16.3398 13.7957L17.0142 16.5812C17.5462 18.7861 16.3208 19.639 14.2785 18.4867L11.4383 16.8807C10.9254 16.5903 10.08 16.5903 9.55754 16.8807L6.71735 18.4867C4.68458 19.639 3.44972 18.777 3.98166 16.5812L4.65608 13.7957C4.77957 13.2695 4.56109 12.5345 4.16214 12.1534L1.8064 9.90325C0.41955 8.57853 0.866001 7.23567 2.80379 6.92718L5.83395 6.44629C6.3374 6.36463 6.94533 5.93818 7.1733 5.49359L8.84512 2.29976C9.75702 0.566747 11.2389 0.566747 12.1413 2.29976Z" stroke="#3AB292" stroke-linecap="round" stroke-linejoin="round"/>
</svg>
