<svg width="81" height="60" viewBox="0 0 81 60" fill="none" xmlns="http://www.w3.org/2000/svg">
<path d="M75.1675 0H44.7651C41.7459 0 39.2896 2.42255 39.2896 5.40033V14.4627H8.02625C3.95516 14.4627 0.643134 17.7295 0.643134 21.7449L0.642822 48.2746C0.642822 52.29 3.95485 55.5567 8.02593 55.5567H23.5186L27.757 59.5705C28.0593 59.8568 28.4493 60 28.8395 60C29.2295 60 29.6196 59.8568 29.922 59.5705L34.1606 55.5567H49.6532C53.7243 55.5567 57.0363 52.29 57.0363 48.2746L57.0366 32.9075H65.2108L69.8028 36.0807C70.0688 36.2644 70.3825 36.3598 70.6999 36.3598C70.8546 36.3598 71.01 36.3371 71.1613 36.2911C71.6227 36.1505 71.9922 35.8075 72.1622 35.3619L73.0991 32.9075H75.1674C78.1866 32.9075 80.6428 30.4849 80.6428 27.5071V5.40033C80.643 2.42255 78.1867 0 75.1675 0ZM53.9113 48.2746C53.9113 50.5914 52.001 52.4764 49.6532 52.4764H33.5317C33.1281 52.4764 32.7403 52.6304 32.4492 52.9059L28.8395 56.3241L25.23 52.9059C24.939 52.6304 24.5511 52.4764 24.1475 52.4764H8.02593C5.67813 52.4764 3.76782 50.5915 3.76782 48.2746L3.76813 21.7449C3.76813 19.428 5.67828 17.5431 8.02625 17.5431H49.6535C52.0015 17.5431 53.9116 19.428 53.9116 21.7449L53.9113 48.2746ZM77.518 27.5071C77.518 28.7864 76.4635 29.8271 75.1675 29.8271H72.0175C71.3668 29.8271 70.7842 30.2246 70.5552 30.825L69.9471 32.4183L66.6011 30.1062C66.3383 29.9246 66.0252 29.8271 65.7043 29.8271H57.0368V21.7447C57.0368 17.7293 53.7248 14.4626 49.6537 14.4626H42.4148V5.40017C42.4148 4.1209 43.4693 3.0802 44.7652 3.0802H75.1675C76.4636 3.0802 77.518 4.1209 77.518 5.40017V27.5071Z" fill="#C6CCD3"/>
</svg>
