<svg width="31" height="31" viewBox="0 0 31 31" fill="none" xmlns="http://www.w3.org/2000/svg">
<path d="M30.803 14.897C30.526 14.5182 23.9274 5.62085 15.4998 5.62085C7.07225 5.62085 0.473356 14.5182 0.196717 14.8966C-0.0655724 15.2561 -0.0655724 15.7435 0.196717 16.1029C0.473356 16.4818 7.07225 25.3791 15.4998 25.3791C23.9274 25.3791 30.526 16.4817 30.803 16.1032C31.0656 15.7439 31.0656 15.2561 30.803 14.897ZM15.4998 23.3351C9.29203 23.3351 3.91539 17.4298 2.32379 15.4993C3.91333 13.567 9.27871 7.6648 15.4998 7.6648C21.7074 7.6648 27.0836 13.5691 28.6759 15.5007C27.0864 17.4328 21.721 23.3351 15.4998 23.3351Z" fill="#BEBBC3"/>
<path d="M15.501 9.36816C12.12 9.36816 9.36914 12.119 9.36914 15.5001C9.36914 18.8811 12.12 21.632 15.501 21.632C18.8821 21.632 21.6329 18.8811 21.6329 15.5001C21.6329 12.119 18.8821 9.36816 15.501 9.36816ZM15.501 19.588C13.2469 19.588 11.4131 17.7542 11.4131 15.5001C11.4131 13.246 13.2469 11.4122 15.501 11.4122C17.7551 11.4122 19.5889 13.246 19.5889 15.5001C19.5889 17.7542 17.7552 19.588 15.501 19.588Z" fill="#BEBBC3"/>
</svg>
