<svg width="33" height="33" viewBox="0 0 33 33" fill="none" xmlns="http://www.w3.org/2000/svg">
<path d="M21.5141 16.7927C21.5141 19.4042 19.4038 21.5146 16.7922 21.5146C14.1807 21.5146 12.0703 19.4042 12.0703 16.7927C12.0703 14.1811 14.1807 12.0708 16.7922 12.0708C19.4038 12.0708 21.5141 14.1811 21.5141 16.7927Z" stroke="#DC2B40" stroke-width="1.86207" stroke-linecap="round" stroke-linejoin="round"/>
<path d="M16.7926 27.6997C21.4485 27.6997 25.7879 24.9563 28.8084 20.208C29.9954 18.3483 29.9954 15.2223 28.8084 13.3626C25.7879 8.6143 21.4485 5.87085 16.7926 5.87085C12.1366 5.87085 7.79725 8.6143 4.77681 13.3626C3.58975 15.2223 3.58975 18.3483 4.77681 20.208C7.79725 24.9563 12.1366 27.6997 16.7926 27.6997Z" stroke="#DC2B40" stroke-width="1.86207" stroke-linecap="round" stroke-linejoin="round"/>
</svg>
