<svg width="92" height="92" viewBox="0 0 92 92" fill="none" xmlns="http://www.w3.org/2000/svg">
<path d="M0 14C0 6.26802 6.26801 0 14 0H78C85.732 0 92 6.26801 92 14V78C92 85.732 85.732 92 78 92H14C6.26802 92 0 85.732 0 78V14Z" fill="white"/>
<g clip-path="url(#clip0)">
<path d="M43.0849 62V46.9847H39.0005V41.5784H43.0849V36.9608C43.0849 33.3322 45.4976 30 51.0569 30C53.3078 30 54.9722 30.2098 54.9722 30.2098L54.841 35.2583C54.841 35.2583 53.1436 35.2422 51.2913 35.2422C49.2865 35.2422 48.9653 36.1403 48.9653 37.6309V41.5784H55.0004L54.7378 46.9847H48.9653V62H43.0849Z" fill="#1465C5"/>
</g>
<defs>
<clipPath id="clip0">
<rect width="16" height="32" fill="white" transform="translate(39 30)"/>
</clipPath>
</defs>
</svg>
