<svg width="49" height="49" viewBox="0 0 49 49" fill="none" xmlns="http://www.w3.org/2000/svg">
<path d="M0 14C0 6.26801 6.26801 0 14 0H35C42.732 0 49 6.26801 49 14V35C49 42.732 42.732 49 35 49H14C6.26801 49 0 42.732 0 35V14Z" fill="white"/>
<path d="M24.9697 25V28.5C24.9697 30.43 26.5397 32 28.4697 32C30.3997 32 31.9697 30.43 31.9697 28.5V23C31.9697 19.13 28.8397 16 24.9697 16C21.0997 16 17.9697 19.13 17.9697 23V29C17.9697 32.31 20.6597 35 23.9697 35" stroke="#898D93" stroke-width="1.8" stroke-linecap="round" stroke-linejoin="round"/>
</svg>
