<svg width="30" height="44" viewBox="0 0 30 44" fill="none" xmlns="http://www.w3.org/2000/svg">
<path fill-rule="evenodd" clip-rule="evenodd" d="M25.5 1H4.50003C2.56975 1 1 2.56967 1 4.50003V37.75C1 39.6803 2.56967 41.25 4.50003 41.25V42.1251C4.50003 42.6087 4.8914 43.0001 5.37506 43.0001H7.12503C7.60868 43.0001 8.00006 42.6087 8.00006 42.1251V41.25H22.0001V42.1251C22.0001 42.6087 22.3915 43.0001 22.8751 43.0001H24.6251C25.1087 43.0001 25.5001 42.6087 25.5001 42.1251V41.25C27.4304 41.25 29.0001 39.6804 29.0001 37.75V4.50003C29.0001 2.56967 27.4303 1 25.5 1ZM27.25 37.75C27.25 38.7147 26.4647 39.5 25.5 39.5H4.50003C3.53534 39.5 2.75005 38.7147 2.75005 37.75V15H27.2501V37.75H27.25ZM27.25 13.25H2.75005V4.50003C2.75005 3.53534 3.53534 2.75005 4.50003 2.75005H25.5C26.4647 2.75005 27.25 3.53534 27.25 4.50003V13.25ZM10.6252 8.00005H7.12521C7.12521 7.77618 7.03974 7.55232 6.86887 7.38137C6.52704 7.03954 5.97333 7.03954 5.63159 7.38137L4.75656 8.2564C4.5062 8.50676 4.43098 8.8827 4.56682 9.21001C4.70185 9.53731 5.02144 9.75002 5.37516 9.75002H10.6252C11.1088 9.75002 11.5002 9.35865 11.5002 8.87499C11.5002 8.39134 11.1089 8.00005 10.6252 8.00005ZM10.6252 20.2501H5.37524C5.02144 20.2501 4.70185 20.0373 4.56682 19.71C4.43098 19.3827 4.5062 19.0068 4.75656 18.7564L5.63159 17.8814C5.97333 17.5395 6.52704 17.5395 6.86887 17.8814C7.03974 18.0523 7.12521 18.2762 7.12521 18.5H10.6252C11.1089 18.5 11.5003 18.8914 11.5003 19.3751C11.5003 19.8587 11.1089 20.2501 10.6252 20.2501Z" fill="#C5C5CD"/>
<path d="M4.50003 41.25H4.70003V41.05H4.50003V41.25ZM8.00006 41.25V41.05H7.80006V41.25H8.00006ZM22.0001 41.25H22.2001V41.05H22.0001V41.25ZM25.5001 41.25V41.05H25.3001V41.25H25.5001ZM29.0001 4.50003L29.2001 4.50003L29.2001 4.50002L29.0001 4.50003ZM27.25 37.75V37.55H27.05V37.75H27.25ZM2.75005 15V14.8H2.55005V15H2.75005ZM27.2501 15H27.4501V14.8H27.2501V15ZM27.2501 37.75V37.95H27.4501V37.75H27.2501ZM2.75005 13.25H2.55005V13.45H2.75005V13.25ZM27.25 13.25V13.45H27.45V13.25H27.25ZM7.12521 8.00005H6.92521V8.20005H7.12521V8.00005ZM6.86887 7.38137L7.01032 7.23998L7.01029 7.23995L6.86887 7.38137ZM5.63159 7.38137L5.77301 7.52279L5.77303 7.52277L5.63159 7.38137ZM4.75656 8.2564L4.61514 8.11497L4.61514 8.11497L4.75656 8.2564ZM4.56682 9.21001L4.75171 9.13374L4.75154 9.13334L4.56682 9.21001ZM4.56682 19.71L4.75171 19.6337L4.75154 19.6333L4.56682 19.71ZM4.75656 18.7564L4.61514 18.615L4.61514 18.615L4.75656 18.7564ZM5.63159 17.8814L5.77301 18.0228L5.77303 18.0228L5.63159 17.8814ZM6.86887 17.8814L7.01032 17.74L7.01029 17.7399L6.86887 17.8814ZM7.12521 18.5H6.92521V18.7H7.12521V18.5ZM4.50003 1.2H25.5V0.8H4.50003V1.2ZM1.2 4.50003C1.2 2.68013 2.6802 1.2 4.50003 1.2V0.8C2.4593 0.8 0.8 2.45921 0.8 4.50003H1.2ZM1.2 37.75V4.50003H0.8V37.75H1.2ZM4.50003 41.05C2.68013 41.05 1.2 39.5698 1.2 37.75H0.8C0.8 39.7907 2.45921 41.45 4.50003 41.45V41.05ZM4.70003 42.1251V41.25H4.30003V42.1251H4.70003ZM5.37506 42.8001C5.00186 42.8001 4.70003 42.4983 4.70003 42.1251H4.30003C4.30003 42.7192 4.78094 43.2001 5.37506 43.2001V42.8001ZM7.12503 42.8001H5.37506V43.2001H7.12503V42.8001ZM7.80006 42.1251C7.80006 42.4983 7.49823 42.8001 7.12503 42.8001V43.2001C7.71914 43.2001 8.20006 42.7192 8.20006 42.1251H7.80006ZM7.80006 41.25V42.1251H8.20006V41.25H7.80006ZM22.0001 41.05H8.00006V41.45H22.0001V41.05ZM22.2001 42.1251V41.25H21.8001V42.1251H22.2001ZM22.8751 42.8001C22.5019 42.8001 22.2001 42.4983 22.2001 42.1251H21.8001C21.8001 42.7192 22.281 43.2001 22.8751 43.2001V42.8001ZM24.6251 42.8001H22.8751V43.2001H24.6251V42.8001ZM25.3001 42.1251C25.3001 42.4983 24.9983 42.8001 24.6251 42.8001V43.2001C25.2192 43.2001 25.7001 42.7192 25.7001 42.1251H25.3001ZM25.3001 41.25V42.1251H25.7001V41.25H25.3001ZM28.8001 37.75C28.8001 39.5699 27.3199 41.05 25.5001 41.05V41.45C27.5408 41.45 29.2001 39.7908 29.2001 37.75H28.8001ZM28.8001 4.50003V37.75H29.2001V4.50003H28.8001ZM25.5 1.2C27.3199 1.2 28.8001 2.68013 28.8001 4.50004L29.2001 4.50002C29.2001 2.45921 27.5408 0.8 25.5 0.8V1.2ZM25.5 39.7C26.5752 39.7 27.45 38.8251 27.45 37.75H27.05C27.05 38.6042 26.3543 39.3 25.5 39.3V39.7ZM4.50003 39.7H25.5V39.3H4.50003V39.7ZM2.55005 37.75C2.55005 38.8251 3.42488 39.7 4.50003 39.7V39.3C3.6458 39.3 2.95005 38.6042 2.95005 37.75H2.55005ZM2.55005 15V37.75H2.95005V15H2.55005ZM27.2501 14.8H2.75005V15.2H27.2501V14.8ZM27.4501 37.75V15H27.0501V37.75H27.4501ZM27.25 37.95H27.2501V37.55H27.25V37.95ZM2.75005 13.45H27.25V13.05H2.75005V13.45ZM2.55005 4.50003V13.25H2.95005V4.50003H2.55005ZM4.50003 2.55005C3.42488 2.55005 2.55005 3.42488 2.55005 4.50003H2.95005C2.95005 3.6458 3.6458 2.95005 4.50003 2.95005V2.55005ZM25.5 2.55005H4.50003V2.95005H25.5V2.55005ZM27.45 4.50003C27.45 3.42488 26.5752 2.55005 25.5 2.55005V2.95005C26.3543 2.95005 27.05 3.6458 27.05 4.50003H27.45ZM27.45 13.25V4.50003H27.05V13.25H27.45ZM7.12521 8.20005H10.6252V7.80005H7.12521V8.20005ZM6.72741 7.52276C6.85935 7.65475 6.92521 7.82713 6.92521 8.00005H7.32521C7.32521 7.72524 7.22013 7.44989 7.01032 7.23998L6.72741 7.52276ZM5.77303 7.52277C6.03665 7.25909 6.46372 7.25906 6.72744 7.52279L7.01029 7.23995C6.59037 6.82003 5.91001 6.82 5.49015 7.23996L5.77303 7.52277ZM4.89798 8.39782L5.77301 7.52279L5.49017 7.23995L4.61514 8.11497L4.89798 8.39782ZM4.75154 9.13334C4.64682 8.88101 4.7047 8.5911 4.89798 8.39782L4.61514 8.11497C4.3077 8.42241 4.21514 8.8844 4.3821 9.28668L4.75154 9.13334ZM5.37516 9.55002C5.10202 9.55002 4.85568 9.38578 4.75171 9.13374L4.38194 9.28628C4.54801 9.68885 4.94086 9.95002 5.37516 9.95002V9.55002ZM10.6252 9.55002H5.37516V9.95002H10.6252V9.55002ZM11.3002 8.87499C11.3002 9.24819 10.9984 9.55002 10.6252 9.55002V9.95002C11.2193 9.95002 11.7002 9.46911 11.7002 8.87499H11.3002ZM10.6252 8.20005C10.9984 8.20005 11.3002 8.50179 11.3002 8.87499H11.7002C11.7002 8.28088 11.2194 7.80005 10.6252 7.80005V8.20005ZM5.37524 20.4501H10.6252V20.0501H5.37524V20.4501ZM4.38194 19.7863C4.548 20.1888 4.94084 20.4501 5.37524 20.4501V20.0501C5.10204 20.0501 4.85569 19.8858 4.75171 19.6337L4.38194 19.7863ZM4.61514 18.615C4.3077 18.9224 4.21514 19.3844 4.3821 19.7867L4.75154 19.6333C4.64682 19.381 4.7047 19.0911 4.89798 18.8978L4.61514 18.615ZM5.49017 17.7399L4.61514 18.615L4.89798 18.8978L5.77301 18.0228L5.49017 17.7399ZM7.01029 17.7399C6.59037 17.32 5.91001 17.32 5.49015 17.74L5.77303 18.0228C6.03665 17.7591 6.46371 17.7591 6.72744 18.0228L7.01029 17.7399ZM7.32521 18.5C7.32521 18.2252 7.22013 17.9499 7.01032 17.74L6.72741 18.0228C6.85934 18.1548 6.92521 18.3271 6.92521 18.5H7.32521ZM10.6252 18.3H7.12521V18.7H10.6252V18.3ZM11.7003 19.3751C11.7003 18.781 11.2194 18.3 10.6252 18.3V18.7C10.9984 18.7 11.3003 19.0019 11.3003 19.3751H11.7003ZM10.6252 20.4501C11.2194 20.4501 11.7003 19.9692 11.7003 19.3751H11.3003C11.3003 19.7483 10.9984 20.0501 10.6252 20.0501V20.4501Z" fill="#C5C5CD"/>
</svg>
