<svg width="67" height="67" viewBox="0 0 67 67" fill="none" xmlns="http://www.w3.org/2000/svg">
<rect x="1" y="1" width="65" height="65" rx="19.5" stroke="#C5C5CD" stroke-width="1.3"/>
<path fill-rule="evenodd" clip-rule="evenodd" d="M40.3254 19.8501H26.6754C25.4207 19.8501 24.4004 20.8704 24.4004 22.1251V43.7376C24.4004 44.9923 25.4207 46.0126 26.6754 46.0126V46.5814C26.6754 46.8958 26.9298 47.1502 27.2442 47.1502H28.3817C28.696 47.1502 28.9504 46.8958 28.9504 46.5814V46.0126H38.0504V46.5814C38.0504 46.8958 38.3048 47.1502 38.6192 47.1502H39.7567C40.0711 47.1502 40.3255 46.8958 40.3255 46.5814V46.0126C41.5801 46.0126 42.6005 44.9923 42.6005 43.7376V22.1251C42.6004 20.8704 41.5801 19.8501 40.3254 19.8501ZM41.4629 43.7376C41.4629 44.3646 40.9525 44.8751 40.3254 44.8751H26.6754C26.0484 44.8751 25.5379 44.3646 25.5379 43.7376V28.9501H41.4629V43.7376H41.4629ZM41.4629 27.8126H25.5379V22.1251C25.5379 21.4981 26.0484 20.9876 26.6754 20.9876H40.3254C40.9525 20.9876 41.4629 21.4981 41.4629 22.1251V27.8126ZM30.6568 24.4001H28.3818C28.3818 24.2546 28.3262 24.1091 28.2151 23.998C27.9929 23.7758 27.633 23.7758 27.4109 23.998L26.8421 24.5667C26.6794 24.7295 26.6305 24.9738 26.7188 25.1866C26.8066 25.3993 27.0143 25.5376 27.2442 25.5376H30.6567C30.9711 25.5376 31.2255 25.2832 31.2255 24.9688C31.2255 24.6545 30.9711 24.4001 30.6568 24.4001ZM30.6568 32.3626H27.2443C27.0143 32.3626 26.8066 32.2243 26.7188 32.0116C26.6305 31.7988 26.6794 31.5544 26.8421 31.3917L27.4109 30.8229C27.633 30.6007 27.9929 30.6007 28.2151 30.8229C28.3262 30.9341 28.3818 31.0796 28.3818 31.2251H30.6568C30.9711 31.2251 31.2255 31.4795 31.2255 31.7938C31.2255 32.1082 30.9711 32.3626 30.6568 32.3626Z" fill="#C5C5CD"/>
<path d="M26.6754 46.0126H26.8054V45.8826H26.6754V46.0126ZM28.9504 46.0126V45.8826H28.8204V46.0126H28.9504ZM38.0504 46.0126H38.1804V45.8826H38.0504V46.0126ZM40.3255 46.0126V45.8826H40.1955V46.0126H40.3255ZM42.6005 22.1251H42.7305V22.1251L42.6005 22.1251ZM41.4629 43.7376V43.6076H41.3329V43.7376H41.4629ZM25.5379 28.9501V28.8201H25.4079V28.9501H25.5379ZM41.4629 28.9501H41.5929V28.8201H41.4629V28.9501ZM41.4629 43.7376V43.8676H41.5929V43.7376H41.4629ZM25.5379 27.8126H25.4079V27.9426H25.5379V27.8126ZM41.4629 27.8126V27.9426H41.5929V27.8126H41.4629ZM28.3818 24.4001H28.2518V24.5301H28.3818V24.4001ZM28.2151 23.998L28.3071 23.9061L28.3071 23.906L28.2151 23.998ZM27.4109 23.998L27.5028 24.0899L27.5028 24.0899L27.4109 23.998ZM26.8421 24.5667L26.7502 24.4748H26.7502L26.8421 24.5667ZM26.7188 25.1866L26.839 25.137L26.8389 25.1368L26.7188 25.1866ZM26.7188 32.0116L26.839 31.962L26.8389 31.9617L26.7188 32.0116ZM26.8421 31.3917L26.7502 31.2998L26.8421 31.3917ZM27.4109 30.8229L27.5028 30.9149L27.5028 30.9148L27.4109 30.8229ZM28.2151 30.8229L28.3071 30.731L28.3071 30.731L28.2151 30.8229ZM28.3818 31.2251H28.2518V31.3551H28.3818V31.2251ZM26.6754 19.9801H40.3254V19.7201H26.6754V19.9801ZM24.5304 22.1251C24.5304 20.9422 25.4925 19.9801 26.6754 19.9801V19.7201C25.3489 19.7201 24.2704 20.7986 24.2704 22.1251H24.5304ZM24.5304 43.7376V22.1251H24.2704V43.7376H24.5304ZM26.6754 45.8826C25.4925 45.8826 24.5304 44.9205 24.5304 43.7376H24.2704C24.2704 45.0641 25.3489 46.1426 26.6754 46.1426V45.8826ZM26.8054 46.5814V46.0126H26.5454V46.5814H26.8054ZM27.2442 47.0202C27.0016 47.0202 26.8054 46.824 26.8054 46.5814H26.5454C26.5454 46.9676 26.858 47.2801 27.2442 47.2801V47.0202ZM28.3817 47.0202H27.2442V47.2801H28.3817V47.0202ZM28.8204 46.5814C28.8204 46.824 28.6242 47.0202 28.3817 47.0202V47.2801C28.7678 47.2801 29.0804 46.9676 29.0804 46.5814H28.8204ZM28.8204 46.0126V46.5814H29.0804V46.0126H28.8204ZM38.0504 45.8826H28.9504V46.1426H38.0504V45.8826ZM38.1804 46.5814V46.0126H37.9204V46.5814H38.1804ZM38.6192 47.0202C38.3766 47.0202 38.1804 46.824 38.1804 46.5814H37.9204C37.9204 46.9676 38.233 47.2801 38.6192 47.2801V47.0202ZM39.7567 47.0202H38.6192V47.2801H39.7567V47.0202ZM40.1955 46.5814C40.1955 46.824 39.9993 47.0202 39.7567 47.0202V47.2801C40.1429 47.2801 40.4555 46.9676 40.4555 46.5814H40.1955ZM40.1955 46.0126V46.5814H40.4555V46.0126H40.1955ZM42.4705 43.7376C42.4705 44.9205 41.5083 45.8826 40.3255 45.8826V46.1426C41.6519 46.1426 42.7305 45.0641 42.7305 43.7376H42.4705ZM42.4705 22.1251V43.7376H42.7305V22.1251H42.4705ZM40.3254 19.9801C41.5083 19.9801 42.4704 20.9422 42.4705 22.1251L42.7305 22.1251C42.7304 20.7986 41.6519 19.7201 40.3254 19.7201V19.9801ZM40.3254 45.0051C41.0243 45.0051 41.5929 44.4364 41.5929 43.7376H41.3329C41.3329 44.2928 40.8807 44.7451 40.3254 44.7451V45.0051ZM26.6754 45.0051H40.3254V44.7451H26.6754V45.0051ZM25.4079 43.7376C25.4079 44.4364 25.9766 45.0051 26.6754 45.0051V44.7451C26.1202 44.7451 25.6679 44.2928 25.6679 43.7376H25.4079ZM25.4079 28.9501V43.7376H25.6679V28.9501H25.4079ZM41.4629 28.8201H25.5379V29.0801H41.4629V28.8201ZM41.5929 43.7376V28.9501H41.3329V43.7376H41.5929ZM41.4629 43.8676H41.4629V43.6076H41.4629V43.8676ZM25.5379 27.9426H41.4629V27.6826H25.5379V27.9426ZM25.4079 22.1251V27.8126H25.6679V22.1251H25.4079ZM26.6754 20.8576C25.9766 20.8576 25.4079 21.4263 25.4079 22.1251H25.6679C25.6679 21.5699 26.1202 21.1176 26.6754 21.1176V20.8576ZM40.3254 20.8576H26.6754V21.1176H40.3254V20.8576ZM41.5929 22.1251C41.5929 21.4263 41.0243 20.8576 40.3254 20.8576V21.1176C40.8807 21.1176 41.3329 21.5699 41.3329 22.1251H41.5929ZM41.5929 27.8126V22.1251H41.3329V27.8126H41.5929ZM28.3818 24.5301H30.6568V24.2701H28.3818V24.5301ZM28.1232 24.0899C28.2089 24.1757 28.2518 24.2877 28.2518 24.4001H28.5118C28.5118 24.2215 28.4434 24.0425 28.3071 23.9061L28.1232 24.0899ZM27.5028 24.0899C27.6742 23.9185 27.9518 23.9185 28.1232 24.0899L28.3071 23.906C28.0341 23.6331 27.5919 23.6331 27.319 23.9061L27.5028 24.0899ZM26.9341 24.6587L27.5028 24.0899L27.319 23.906L26.7502 24.4748L26.9341 24.6587ZM26.8389 25.1368C26.7708 24.9727 26.8084 24.7843 26.9341 24.6587L26.7502 24.4748C26.5504 24.6746 26.4902 24.9749 26.5987 25.2364L26.8389 25.1368ZM27.2442 25.4076C27.0667 25.4076 26.9066 25.3008 26.839 25.137L26.5986 25.2362C26.7066 25.4978 26.9619 25.6676 27.2442 25.6676V25.4076ZM30.6567 25.4076H27.2442V25.6676H30.6567V25.4076ZM31.0955 24.9688C31.0955 25.2114 30.8993 25.4076 30.6567 25.4076V25.6676C31.0429 25.6676 31.3555 25.355 31.3555 24.9688H31.0955ZM30.6568 24.5301C30.8994 24.5301 31.0955 24.7262 31.0955 24.9688H31.3555C31.3555 24.5827 31.0429 24.2701 30.6568 24.2701V24.5301ZM27.2443 32.4926H30.6568V32.2326H27.2443V32.4926ZM26.5986 32.0611C26.7066 32.3228 26.9619 32.4926 27.2443 32.4926V32.2326C27.0667 32.2326 26.9066 32.1258 26.839 31.962L26.5986 32.0611ZM26.7502 31.2998C26.5504 31.4996 26.4902 31.7999 26.5987 32.0614L26.8389 31.9617C26.7708 31.7977 26.8084 31.6093 26.9341 31.4836L26.7502 31.2998ZM27.319 30.731L26.7502 31.2998L26.9341 31.4836L27.5028 30.9149L27.319 30.731ZM28.3071 30.731C28.0341 30.4581 27.5919 30.458 27.319 30.731L27.5028 30.9148C27.6742 30.7434 27.9518 30.7434 28.1232 30.9149L28.3071 30.731ZM28.5118 31.2251C28.5118 31.0465 28.4434 30.8675 28.3071 30.731L28.1232 30.9148C28.2089 31.0006 28.2518 31.1127 28.2518 31.2251H28.5118ZM30.6568 31.0951H28.3818V31.3551H30.6568V31.0951ZM31.3555 31.7938C31.3555 31.4077 31.0429 31.0951 30.6568 31.0951V31.3551C30.8994 31.3551 31.0955 31.5513 31.0955 31.7938H31.3555ZM30.6568 32.4926C31.0429 32.4926 31.3555 32.18 31.3555 31.7938H31.0955C31.0955 32.0364 30.8994 32.2326 30.6568 32.2326V32.4926Z" fill="#C5C5CD"/>
</svg>
