<svg width="65" height="65" viewBox="0 0 65 65" fill="none" xmlns="http://www.w3.org/2000/svg">
<rect width="65" height="65" rx="19.5" fill="#CD2946"/>
<rect width="65" height="65" rx="19.5" fill="url(#paint0_linear_80:73072)"/>
<path d="M46.5413 31.1044L42.6386 26.4852C43.7902 23.9368 43.602 20.8995 42.121 18.4695C41.9606 18.2063 41.6169 18.1229 41.3534 18.283C41.2016 18.3753 41.1099 18.5284 41.0898 18.6919C39.8339 23.8283 35.8619 27.7798 30.709 29.0121C27.9834 29.6639 25.4953 31.0545 23.5135 33.0337C21.5906 34.9541 20.2226 37.3506 19.5468 39.9779C19.173 40.1819 18.807 40.4016 18.4497 40.6377C18.1924 40.8077 18.1218 41.1538 18.292 41.4107C18.3995 41.5729 18.5771 41.6608 18.7584 41.6608C18.8642 41.6608 18.9712 41.6309 19.0661 41.5682C20.4371 40.6624 21.9443 40.009 23.5458 39.626C25.3922 39.1845 27.1177 38.4123 28.6744 37.3311C28.9276 37.1551 28.9901 36.8075 28.814 36.5545C28.6379 36.3016 28.2898 36.2392 28.0365 36.4151C26.5946 37.4167 24.9962 38.1319 23.2856 38.541C22.4667 38.7368 21.6709 38.999 20.9023 39.3239C22.4241 34.7245 26.1885 31.2404 30.9693 30.097C31.7872 29.9014 32.5836 29.6388 33.3515 29.3141C32.9123 30.638 32.2811 31.883 31.4659 33.027C31.287 33.278 31.3458 33.6263 31.5971 33.8049C31.6954 33.8748 31.8085 33.9084 31.9205 33.9084C32.0951 33.9084 32.2671 33.8268 32.3761 33.6739C33.4601 32.1529 34.2431 30.4669 34.7074 28.6598C35.9712 27.9707 37.1364 27.1025 38.1649 26.0754C39.7976 24.4448 41.0299 22.4708 41.7784 20.304C42.5153 22.2546 42.4251 24.4574 41.4809 26.3171C41.3794 26.5169 41.4075 26.7579 41.5522 26.9291L45.6709 31.8042L44.074 32.8534C43.8236 33.0179 43.7479 33.3507 43.9025 33.6072L44.5172 34.6267C44.6649 34.8716 44.6985 35.1677 44.6094 35.4393C44.5203 35.711 44.3179 35.93 44.0538 36.0402C43.8767 36.1142 43.75 36.2738 43.7183 36.463C43.6867 36.6522 43.7545 36.8442 43.898 36.9717C44.1269 37.175 44.2364 37.4656 44.1985 37.7692C44.1606 38.0727 43.983 38.3277 43.7107 38.4688L43.6763 38.4867C43.4915 38.5827 43.3755 38.7734 43.3755 38.9815V40.8503C43.3755 41.8346 42.5737 42.6354 41.588 42.6354H38.3095C36.8752 42.6354 35.4796 43.045 34.2735 43.8198L31.2894 45.7365C31.0299 45.9031 30.9549 46.2483 31.1217 46.5074C31.2285 46.6732 31.4083 46.7635 31.5921 46.7635C31.6956 46.7635 31.8003 46.7349 31.8937 46.6748L34.8778 44.7581C35.9033 44.0993 37.09 43.7511 38.3095 43.7511H41.588C43.1897 43.7511 44.4927 42.4498 44.4927 40.8503V39.2931C44.9397 38.9653 45.2373 38.4658 45.3071 37.9072C45.36 37.483 45.2772 37.0597 45.0799 36.6933C45.3501 36.4506 45.5555 36.1393 45.6711 35.7863C45.8613 35.2063 45.7895 34.5738 45.4743 34.051L45.1364 33.4907L46.3064 32.722C46.5675 32.5504 46.743 32.2748 46.788 31.9659C46.8327 31.6571 46.7429 31.343 46.5413 31.1044Z" fill="white" stroke="white" stroke-width="0.455"/>
<path d="M18.4839 28.8609C18.5705 28.9096 18.6646 28.9328 18.7574 28.9328C18.9526 28.9328 19.1421 28.8305 19.2447 28.6485C19.7089 27.8251 20.0562 26.9407 20.2771 26.02C21.0789 22.6761 23.657 20.1013 27.0055 19.3006C27.3055 19.2289 27.4905 18.9278 27.4186 18.6282C27.3468 18.3286 27.0451 18.144 26.7453 18.2156C24.9105 18.6544 23.2355 19.5905 21.9014 20.9228C20.5674 22.2551 19.6299 23.9278 19.1906 25.7601C18.9939 26.5802 18.6846 27.3679 18.2712 28.1011C18.1198 28.3696 18.215 28.7097 18.4839 28.8609Z" fill="white" stroke="white" stroke-width="0.455"/>
<defs>
<linearGradient id="paint0_linear_80:73072" x1="7.26837" y1="-11.6695" x2="89.1698" y2="33.6489" gradientUnits="userSpaceOnUse">
<stop stop-color="#CC283C"/>
<stop offset="1" stop-color="#CC284F"/>
</linearGradient>
</defs>
</svg>
