<svg width="67" height="67" viewBox="0 0 67 67" fill="none" xmlns="http://www.w3.org/2000/svg">
<rect x="1" y="1" width="65" height="65" rx="19.5" stroke="#C5C5CD" stroke-width="1.3"/>
<path d="M47.6559 32.0076L47.5413 32.1044L47.6559 32.0076L43.8139 27.4602C44.943 24.8843 44.7389 21.8359 43.2491 19.3915C43.0456 19.0575 42.6096 18.9518 42.2755 19.1548L42.2755 19.1549C42.0855 19.2703 41.9699 19.4609 41.9421 19.6643C40.6974 24.7421 36.7697 28.6476 31.6742 29.8662L31.709 30.0121L31.6742 29.8662C28.9217 30.5245 26.4089 31.9288 24.4075 33.9276C22.481 35.8516 21.1059 38.2489 20.4178 40.8775C20.0602 41.0746 19.7097 41.2861 19.367 41.5125L19.367 41.5125C19.0406 41.7282 18.9509 42.1674 19.1669 42.4936L19.167 42.4936C19.3034 42.6995 19.529 42.8108 19.7584 42.8108C19.8927 42.8108 20.0286 42.7727 20.1488 42.6934L20.1488 42.6934C21.5052 41.7973 22.9962 41.1509 24.5807 40.7719C26.4452 40.326 28.1879 39.5462 29.7599 38.4543L29.6744 38.3311L29.76 38.4543C30.0813 38.231 30.1607 37.7898 29.9371 37.4688C29.7136 37.1479 29.2721 37.0689 28.951 37.2919L28.9509 37.2919C27.5244 38.2828 25.9432 38.9904 24.2507 39.3951C23.5326 39.5668 22.8321 39.7891 22.1519 40.0594C23.7216 35.6638 27.3825 32.3482 32.0042 31.2429C32.7213 31.0714 33.4219 30.8489 34.1015 30.5787C33.6739 31.7723 33.086 32.8984 32.3437 33.94C32.1167 34.2585 32.1914 34.7006 32.5102 34.9272C32.6347 35.0157 32.7783 35.0584 32.9205 35.0584C33.1415 35.0584 33.3599 34.9551 33.4983 34.761L33.4983 34.761C34.5803 33.2426 35.3655 31.5613 35.8364 29.7602C37.0906 29.0694 38.2477 28.2034 39.2709 27.1815C40.8185 25.636 42.0098 23.7849 42.7754 21.754C43.3445 23.5643 43.2081 25.5534 42.3471 27.2492L42.4809 27.3171L42.3471 27.2492C42.2184 27.5028 42.2541 27.8087 42.4376 28.0259L42.5522 27.9291L42.4376 28.0259L46.4472 32.7717L44.9917 33.728C44.6739 33.9368 44.5778 34.3591 44.774 34.6846L44.774 34.6846L45.3888 35.7042C45.5139 35.9117 45.5423 36.1625 45.4669 36.3926L45.4669 36.3926C45.3914 36.6228 45.2199 36.8084 44.9961 36.9018L44.996 36.9018C44.7713 36.9956 44.6106 37.1981 44.5704 37.4382C44.5302 37.6784 44.6164 37.9221 44.7984 38.0838C44.9904 38.2544 45.0814 38.4961 45.0496 38.7506L45.0496 38.7506C45.0179 39.005 44.8702 39.2172 44.6417 39.3356L44.6416 39.3357L44.6072 39.3535L44.6072 39.3535C44.3727 39.4753 44.2255 39.7174 44.2255 39.9815V41.8503C44.2255 42.7516 43.491 43.4854 42.588 43.4854H39.3095C37.8465 43.4854 36.4227 43.9032 35.1924 44.6936L32.2083 46.6103C31.8791 46.8217 31.7838 47.2598 31.9956 47.5886C32.1312 47.7991 32.3596 47.9135 32.5921 47.9135C32.7234 47.9135 32.8564 47.8771 32.9748 47.801C32.9748 47.801 32.9748 47.801 32.9748 47.801L35.9589 45.8843L35.8778 45.7581L35.9589 45.8843C36.9602 45.241 38.1187 44.9011 39.3095 44.9011H42.588C44.2723 44.9011 45.6427 43.5328 45.6427 41.8503V40.3674C46.0885 40.0156 46.3842 39.4998 46.4559 38.9257C46.5079 38.5095 46.4381 38.0941 46.2641 37.7255C46.5123 37.4783 46.702 37.1737 46.8137 36.833C47.0174 36.2115 46.9404 35.5337 46.6027 34.9736L46.3394 34.5368L47.3888 33.8474L47.3064 33.722L47.3888 33.8473C47.6857 33.6522 47.8853 33.3389 47.9364 32.9875L47.9364 32.9874C47.9873 32.6362 47.8852 32.279 47.6559 32.0076Z" fill="#C5C5CD" stroke="#C5C5CD" stroke-width="0.3"/>
<path d="M28.5645 19.5932C28.4733 19.2129 28.0905 18.9789 27.7104 19.0698L27.7452 19.2156L27.7104 19.0698C25.8487 19.5149 24.1491 20.4648 22.7954 21.8166C21.4418 23.1685 20.4905 24.8658 20.0447 26.7251C19.8513 27.5317 19.5471 28.3063 19.1406 29.0274C18.9483 29.3682 19.0693 29.7999 19.4104 29.9917L19.4104 29.9917C19.52 30.0533 19.6395 30.0828 19.7574 30.0828C20.0044 30.0828 20.2451 29.9532 20.3753 29.7222L20.2448 29.6485L20.3753 29.7221C20.8464 28.8866 21.1989 27.9892 21.4229 27.055L21.4229 27.0549C22.2115 23.7661 24.7468 21.2341 28.0403 20.4465C28.4208 20.3555 28.6557 19.9736 28.5645 19.5932ZM28.5645 19.5932L28.4186 19.6282L28.5645 19.5932C28.5645 19.5932 28.5645 19.5932 28.5645 19.5932Z" fill="#C5C5CD" stroke="#C5C5CD" stroke-width="0.3"/>
</svg>
