<svg width="46" height="46" viewBox="0 0 46 46" fill="none" xmlns="http://www.w3.org/2000/svg">
<path d="M44.6032 20.8516L38.5991 13.7451C40.3707 9.8245 40.0812 5.15178 37.8027 1.41332C37.556 1.00841 37.0272 0.8801 36.6218 1.12641C36.3883 1.26836 36.2472 1.50386 36.2163 1.75541C34.2841 9.65758 28.1733 15.7368 20.2459 17.6326C16.0527 18.6355 12.2248 20.7749 9.17588 23.8198C6.21749 26.7741 4.11288 30.4612 3.07313 34.5031C2.49812 34.817 1.93498 35.155 1.38532 35.5182C0.989494 35.7797 0.880869 36.3122 1.14272 36.7075C1.30806 36.957 1.58143 37.0922 1.8603 37.0922C2.02306 37.0922 2.18772 37.0462 2.33364 36.9498C4.44297 35.5563 6.76173 34.551 9.22546 33.9618C12.0661 33.2825 14.7207 32.0946 17.1156 30.4311C17.5053 30.1604 17.6014 29.6255 17.3305 29.2364C17.0595 28.8473 16.5239 28.7513 16.1343 29.0219C13.916 30.5628 11.4569 31.6631 8.82525 32.2925C7.56533 32.5937 6.34106 32.9972 5.15865 33.4969C7.49976 26.4209 13.2912 21.0608 20.6464 19.3017C21.9046 19.0008 23.1298 18.5967 24.3111 18.0973C23.6355 20.134 22.6645 22.0494 21.4102 23.8095C21.1351 24.1956 21.2255 24.7315 21.6121 25.0063C21.7633 25.1137 21.9373 25.1654 22.1097 25.1654C22.3783 25.1654 22.6429 25.0399 22.8106 24.8047C24.4782 22.4646 25.6829 19.8709 26.3973 17.0907C28.3415 16.0305 30.1341 14.6949 31.7164 13.1146C34.2283 10.6061 36.1241 7.56916 37.2757 4.23553C38.4093 7.23651 38.2705 10.6255 36.8179 13.4865C36.6619 13.7939 36.7051 14.1647 36.9276 14.4281L43.2642 21.9281L40.8074 23.5423C40.4221 23.7955 40.3056 24.3074 40.5435 24.702L41.4892 26.2705C41.7164 26.6472 41.7681 27.1029 41.631 27.5207C41.494 27.9386 41.1825 28.2756 40.7763 28.4451C40.5038 28.5589 40.3089 28.8046 40.2602 29.0956C40.2114 29.3866 40.3158 29.6821 40.5366 29.8782C40.8887 30.191 41.0572 30.6381 40.9989 31.1051C40.9406 31.572 40.6673 31.9643 40.2485 32.1814L40.1955 32.2089C39.9112 32.3566 39.7328 32.6501 39.7328 32.9702V35.8453C39.7328 37.3597 38.4991 38.5917 36.9828 38.5917H31.9389C29.7323 38.5917 27.5852 39.2217 25.7296 40.4137L21.1387 43.3625C20.7395 43.6188 20.6241 44.1499 20.8808 44.5485C21.045 44.8035 21.3217 44.9426 21.6044 44.9426C21.7636 44.9426 21.9247 44.8985 22.0684 44.806L26.6594 41.8572C28.2371 40.8437 30.0628 40.308 31.9389 40.308H36.9828C39.4468 40.308 41.4515 38.306 41.4515 35.8452V33.4496C42.1392 32.9453 42.597 32.1768 42.7044 31.3174C42.7859 30.6648 42.6585 30.0135 42.355 29.4499C42.7706 29.0764 43.0865 28.5975 43.2644 28.0545C43.557 27.1622 43.4465 26.1891 42.9616 25.3848L42.4418 24.5228L44.2418 23.3402C44.6436 23.0762 44.9136 22.6522 44.9827 22.1769C45.0515 21.7019 44.9133 21.2187 44.6032 20.8516Z" fill="white" stroke="white" stroke-width="0.7"/>
<path d="M1.43793 17.4011C1.57121 17.476 1.71593 17.5116 1.85876 17.5116C2.15902 17.5116 2.45061 17.3542 2.60839 17.0743C3.32261 15.8075 3.85697 14.447 4.19668 13.0304C5.43022 7.88599 9.39665 3.92485 14.5481 2.69298C15.0096 2.58261 15.2943 2.11944 15.1837 1.65849C15.0731 1.19755 14.609 0.913482 14.1478 1.02376C11.325 1.69874 8.74808 3.1389 6.69573 5.18856C4.6433 7.2383 3.2011 9.81163 2.5252 12.6306C2.22262 13.8923 1.7467 15.1041 1.11076 16.2321C0.877788 16.6452 1.02431 17.1685 1.43793 17.4011Z" fill="white" stroke="white" stroke-width="0.7"/>
</svg>
