<svg width="92" height="92" viewBox="0 0 92 92" fill="none" xmlns="http://www.w3.org/2000/svg">
<path d="M0 14C0 6.26802 6.26801 0 14 0H78C85.732 0 92 6.26801 92 14V78C92 85.732 85.732 92 78 92H14C6.26802 92 0 85.732 0 78V14Z" fill="white"/>
<path d="M62.3427 42.7358H61.0002V42.6666H46.0002V49.3333H55.4193C54.0452 53.2141 50.3527 55.9999 46.0002 55.9999C40.4777 55.9999 36.0002 51.5224 36.0002 45.9999C36.0002 40.4774 40.4777 35.9999 46.0002 35.9999C48.5493 35.9999 50.8685 36.9616 52.6343 38.5324L57.3485 33.8183C54.3718 31.0441 50.3902 29.3333 46.0002 29.3333C36.796 29.3333 29.3335 36.7958 29.3335 45.9999C29.3335 55.2041 36.796 62.6666 46.0002 62.6666C55.2043 62.6666 62.6668 55.2041 62.6668 45.9999C62.6668 44.8824 62.5518 43.7916 62.3427 42.7358Z" fill="#FFC107"/>
<path d="M31.2554 38.2424L36.7312 42.2583C38.2129 38.5899 41.8012 35.9999 46.0004 35.9999C48.5495 35.9999 50.8687 36.9616 52.6345 38.5324L57.3487 33.8183C54.372 31.0441 50.3904 29.3333 46.0004 29.3333C39.5987 29.3333 34.047 32.9474 31.2554 38.2424Z" fill="#FF3D00"/>
<path d="M46.0001 62.6668C50.3051 62.6668 54.2168 61.0193 57.1743 58.3401L52.0159 53.9751C50.2864 55.2904 48.173 56.0018 46.0001 56.0001C41.6651 56.0001 37.9843 53.2359 36.5976 49.3784L31.1626 53.5659C33.9209 58.9634 39.5226 62.6668 46.0001 62.6668Z" fill="#4CAF50"/>
<path d="M62.3425 42.7359H61V42.6667H46V49.3334H55.4192C54.7618 51.1804 53.5778 52.7944 52.0133 53.9759L52.0158 53.9742L57.1742 58.3392C56.8092 58.6709 62.6667 54.3334 62.6667 46.0001C62.6667 44.8826 62.5517 43.7917 62.3425 42.7359Z" fill="#1976D2"/>
</svg>
