<svg width="50" height="50" viewBox="0 0 50 50" fill="none" xmlns="http://www.w3.org/2000/svg">
<circle cx="25" cy="25" r="25" fill="url(#paint0_linear)"/>
<path fill-rule="evenodd" clip-rule="evenodd" d="M29.5264 20.0027C28.3677 18.9196 26.8215 18.3295 25.2216 18.3537C22.2941 18.3537 19.8077 20.2897 18.9212 22.8966V22.8967C18.4511 24.2628 18.4511 25.742 18.9212 27.1082H18.9253C19.8159 29.711 22.2982 31.647 25.2257 31.647C26.7369 31.647 28.0343 31.2681 29.0398 30.5989V30.5962C30.2232 29.8283 31.0314 28.6198 31.2829 27.2537H25.2216V23.0179H35.8062C35.9382 23.7535 36 24.5053 36 25.253C36 28.5986 34.7802 31.4271 32.6579 33.3429L32.6601 33.3446C30.8005 35.0259 28.2481 36 25.2216 36C20.9787 36 17.0987 33.6558 15.1937 29.9414V29.9414C13.6021 26.8333 13.6021 23.1715 15.1937 20.0634H15.1937L15.1937 20.0634C17.0987 16.345 20.9787 14.0007 25.2216 14.0007C28.009 13.9684 30.7015 14.995 32.7302 16.8623L29.5264 20.0027Z" fill="white"/>
<defs>
<linearGradient id="paint0_linear" x1="-5.95826" y1="-22.3246" x2="74.2201" y2="36.4863" gradientUnits="userSpaceOnUse">
<stop stop-color="#CC283C"/>
<stop offset="1" stop-color="#CC284F"/>
</linearGradient>
</defs>
</svg>
