<svg width="30" height="29" viewBox="0 0 30 29" fill="none" xmlns="http://www.w3.org/2000/svg">
<path d="M17.2459 3.80522L19.5337 8.24109C19.8456 8.85859 20.6775 9.45088 21.3795 9.56429L25.526 10.2322C28.1777 10.6607 28.8016 12.5257 26.8909 14.3656L23.6672 17.4909C23.1213 18.0202 22.8223 19.0409 22.9913 19.7718L23.9142 23.6406C24.6421 26.7029 22.9653 27.8875 20.1706 26.287L16.284 24.0565C15.5821 23.6532 14.4252 23.6532 13.7103 24.0565L9.82375 26.287C7.04206 27.8875 5.35224 26.6903 6.08016 23.6406L7.00306 19.7718C7.17204 19.0409 6.87307 18.0202 6.32713 17.4909L3.10349 14.3656C1.2057 12.5257 1.81663 10.6607 4.46834 10.2322L8.61488 9.56429C9.3038 9.45088 10.1357 8.85859 10.4477 8.24109L12.7354 3.80522C13.9833 1.39826 16.0111 1.39826 17.2459 3.80522Z" stroke="#3AB292" stroke-width="3" stroke-linecap="round" stroke-linejoin="round"/>
</svg>
