<svg width="29" height="27" viewBox="0 0 29 27" fill="none" xmlns="http://www.w3.org/2000/svg">
<path d="M25.1114 8.43191C25.1114 8.99892 25.0709 9.55243 25.0034 10.0789C24.3824 9.80893 23.7074 9.66043 22.9919 9.66043C21.3448 9.66043 19.8868 10.4569 18.9823 11.6719C18.0643 10.4569 16.6062 9.66043 14.9592 9.66043C12.1917 9.66043 9.95065 11.915 9.95065 14.7095C9.95065 18.3276 11.8677 21.0951 14.0007 22.9716C13.9332 23.0121 13.8657 23.0257 13.7982 23.0527C13.3932 23.2012 12.7182 23.2012 12.3132 23.0527C8.81663 21.8511 1 16.883 1 8.43191C1 4.70585 3.99704 1.69531 7.6961 1.69531C9.89663 1.69531 11.8407 2.74832 13.0557 4.38184C14.2842 2.74832 16.2282 1.69531 18.4153 1.69531C22.1143 1.69531 25.1114 4.70585 25.1114 8.43191Z" stroke="#CC2849" stroke-width="1.9" stroke-linecap="round" stroke-linejoin="round"/>
<path d="M28.0002 14.7092C28.0002 21.0273 22.1546 24.7534 19.5356 25.6444C19.2251 25.7524 18.7256 25.7524 18.4151 25.6444C17.2945 25.2664 15.58 24.3619 14.0005 22.9713C11.8675 21.0948 9.95044 18.3273 9.95044 14.7092C9.95044 11.9147 12.1915 9.66016 14.959 9.66016C16.606 9.66016 18.0641 10.4567 18.9821 11.6717C19.8866 10.4567 21.3446 9.66016 22.9917 9.66016C23.7072 9.66016 24.3822 9.80866 25.0032 10.0787C26.7717 10.8617 28.0002 12.6302 28.0002 14.7092Z" stroke="#CC2849" stroke-width="1.9" stroke-linecap="round" stroke-linejoin="round"/>
</svg>
