<svg width="27" height="27" viewBox="0 0 27 27" fill="none" xmlns="http://www.w3.org/2000/svg">
<path d="M13.5 24.75C19.7132 24.75 24.75 19.7132 24.75 13.5C24.75 7.2868 19.7132 2.25 13.5 2.25C7.2868 2.25 2.25 7.2868 2.25 13.5C2.25 19.7132 7.2868 24.75 13.5 24.75Z" stroke="#3AB292" stroke-width="2" stroke-linecap="round" stroke-linejoin="round"/>
<path d="M10.2266 10.1249C10.4911 9.37303 11.0131 8.73903 11.7003 8.33518C12.3874 7.93134 13.1953 7.78371 13.9809 7.91846C14.7665 8.0532 15.479 8.46162 15.9923 9.07138C16.5056 9.68113 16.7865 10.4529 16.7853 11.2499C16.7853 13.4999 13.4103 14.6249 13.4103 14.6249" stroke="#3AB292" stroke-width="2" stroke-linecap="round" stroke-linejoin="round"/>
<path d="M13.5 19.125H13.51" stroke="#3AB292" stroke-width="2" stroke-linecap="round" stroke-linejoin="round"/>
</svg>
