<svg width="50" height="50" viewBox="0 0 50 50" fill="none" xmlns="http://www.w3.org/2000/svg">
<path d="M0 20C0 8.9543 8.9543 0 20 0H50V30C50 41.0457 41.0457 50 30 50H0V20Z" fill="#AF0F2D"/>
<path d="M25.4459 23.5142C25.3762 23.5042 25.2867 23.5042 25.2072 23.5142C23.4568 23.4545 22.0645 22.0224 22.0645 20.2621C22.0645 18.462 23.5165 17 25.3265 17C27.1266 17 28.5886 18.462 28.5886 20.2621C28.5786 22.0224 27.1962 23.4545 25.4459 23.5142Z" fill="white" stroke="white" stroke-width="1.5" stroke-linecap="round" stroke-linejoin="round"/>
<path d="M32.0278 30.0782C31.7756 32.0925 27.9104 32.6839 25.3246 32.6839C22.7388 32.6839 19.1962 32.0925 18.6215 30.0782C18.3462 29.1134 19.3177 28.2284 20.3818 27.5123C23.1068 25.7023 27.5623 25.7023 30.2674 27.5123C31.3316 28.2284 32.0982 29.1896 32.0278 30.0782Z" fill="white" stroke="white" stroke-width="1.5" stroke-linecap="round" stroke-linejoin="round"/>
</svg>
