<svg width="435" height="430" viewBox="0 0 435 430" fill="none" xmlns="http://www.w3.org/2000/svg">
<ellipse cx="207.742" cy="216.088" rx="207.613" ry="208.088" fill="#D0CFD3"/>
<mask id="mask0" style="mask-type:alpha" maskUnits="userSpaceOnUse" x="0" y="8" width="416" height="417">
<ellipse cx="207.742" cy="216.088" rx="207.613" ry="208.088" fill="#C4C4CA"/>
</mask>
<g mask="url(#mask0)">
<g opacity="0.2">
<path d="M395.039 107V120.065H448.276" stroke="#263238" stroke-linecap="round" stroke-linejoin="round"/>
<path d="M421.152 123.078V138.147H388" stroke="#263238" stroke-linecap="round" stroke-linejoin="round"/>
<path d="M396.048 143.165V155.22H439.235" stroke="#263238" stroke-linecap="round" stroke-linejoin="round"/>
<path d="M362.997 8.48828V21.5378H416.234" stroke="#263238" stroke-linecap="round" stroke-linejoin="round"/>
<path d="M389.109 24.5518V39.6205H355.958" stroke="#263238" stroke-linecap="round" stroke-linejoin="round"/>
<path d="M363.991 44.6533V56.7083H407.193" stroke="#263238" stroke-linecap="round" stroke-linejoin="round"/>
<path d="M403.169 40.6299H427.279" stroke="#263238" stroke-linecap="round" stroke-linejoin="round"/>
<path d="M389.109 62.7358V79.8088" stroke="#263238" stroke-linecap="round" stroke-linejoin="round"/>
<path d="M206.28 338.991V352.056H259.518" stroke="#263238" stroke-linecap="round" stroke-linejoin="round"/>
<path d="M232.395 355.07V370.139H199.244" stroke="#263238" stroke-linecap="round" stroke-linejoin="round"/>
<path d="M207.275 375.156V387.211H250.477" stroke="#263238" stroke-linecap="round" stroke-linejoin="round"/>
<path d="M246.453 371.133H270.563" stroke="#263238" stroke-linecap="round" stroke-linejoin="round"/>
<path d="M232.395 393.239V410.312" stroke="#263238" stroke-linecap="round" stroke-linejoin="round"/>
<path d="M265.546 350.037V336.987" stroke="#263238" stroke-linecap="round" stroke-linejoin="round"/>
<path d="M234.398 332.964V318.905" stroke="#263238" stroke-linecap="round" stroke-linejoin="round"/>
<path d="M252.482 334.968H283.629" stroke="#263238" stroke-linecap="round" stroke-linejoin="round"/>
<path d="M-27.7979 318.905V330.96H15.4043" stroke="#263238" stroke-linecap="round" stroke-linejoin="round"/>
<path d="M11.3813 314.881H35.4913" stroke="#263238" stroke-linecap="round" stroke-linejoin="round"/>
<path d="M30.4736 293.785V280.721" stroke="#263238" stroke-linecap="round" stroke-linejoin="round"/>
<path d="M17.4092 278.716H48.5563" stroke="#263238" stroke-linecap="round" stroke-linejoin="round"/>
<path d="M268.559 375.156V388.221H321.797" stroke="#263238" stroke-linecap="round" stroke-linejoin="round"/>
<path d="M294.674 391.235V406.304H261.523" stroke="#263238" stroke-linecap="round" stroke-linejoin="round"/>
<path d="M269.57 411.321V423.376H312.757" stroke="#263238" stroke-linecap="round" stroke-linejoin="round"/>
<path d="M308.749 407.298H332.859" stroke="#263238" stroke-linecap="round" stroke-linejoin="round"/>
<path d="M327.824 386.202V373.152" stroke="#263238" stroke-linecap="round" stroke-linejoin="round"/>
<path d="M296.693 369.129V355.07" stroke="#263238" stroke-linecap="round" stroke-linejoin="round"/>
<path d="M314.774 371.133H345.906" stroke="#263238" stroke-linecap="round" stroke-linejoin="round"/>
<path d="M73.6748 375.156V388.221H126.913" stroke="#263238" stroke-linecap="round" stroke-linejoin="round"/>
<path d="M99.7899 391.235V406.304H66.6387" stroke="#263238" stroke-linecap="round" stroke-linejoin="round"/>
<path d="M74.6694 411.321V423.376H117.872" stroke="#263238" stroke-linecap="round" stroke-linejoin="round"/>
<path d="M113.849 407.298H137.959" stroke="#263238" stroke-linecap="round" stroke-linejoin="round"/>
<path d="M132.94 386.202V373.152" stroke="#263238" stroke-linecap="round" stroke-linejoin="round"/>
<path d="M101.794 369.129V355.07" stroke="#263238" stroke-linecap="round" stroke-linejoin="round"/>
<path d="M119.876 371.133H151.023" stroke="#263238" stroke-linecap="round" stroke-linejoin="round"/>
<path d="M-18.7559 147.121H12.3912" stroke="#263238" stroke-linecap="round" stroke-linejoin="round"/>
<path d="M22.4414 31.5889V44.6535H75.6793" stroke="#263238" stroke-linecap="round" stroke-linejoin="round"/>
<path d="M48.5556 47.667V62.7357H15.4043" stroke="#263238" stroke-linecap="round" stroke-linejoin="round"/>
<path d="M23.436 67.7539V79.8089H66.6381" stroke="#263238" stroke-linecap="round" stroke-linejoin="round"/>
<path d="M62.6152 63.7305H86.7252" stroke="#263238" stroke-linecap="round" stroke-linejoin="round"/>
<path d="M48.5562 85.8364V102.909" stroke="#263238" stroke-linecap="round" stroke-linejoin="round"/>
<path d="M81.7075 42.634V29.5845" stroke="#263238" stroke-linecap="round" stroke-linejoin="round"/>
<path d="M50.5601 25.5611V11.502" stroke="#263238" stroke-linecap="round" stroke-linejoin="round"/>
<path d="M68.6426 27.5654H99.7897" stroke="#263238" stroke-linecap="round" stroke-linejoin="round"/>
<path d="M355.958 252.602V265.652H409.196" stroke="#263238" stroke-linecap="round" stroke-linejoin="round"/>
<path d="M382.072 268.666V283.734H348.92" stroke="#263238" stroke-linecap="round" stroke-linejoin="round"/>
<path d="M356.967 288.767V300.822H400.154" stroke="#263238" stroke-linecap="round" stroke-linejoin="round"/>
<path d="M396.146 284.744H420.256" stroke="#263238" stroke-linecap="round" stroke-linejoin="round"/>
<path d="M382.072 306.85V323.922" stroke="#263238" stroke-linecap="round" stroke-linejoin="round"/>
<path d="M415.225 263.648V250.583" stroke="#263238" stroke-linecap="round" stroke-linejoin="round"/>
<path d="M384.092 246.575V232.5" stroke="#263238" stroke-linecap="round" stroke-linejoin="round"/>
<path d="M402.174 248.579H433.306" stroke="#263238" stroke-linecap="round" stroke-linejoin="round"/>
</g>
</g>
<path d="M255.355 338.869C269.839 338.869 281.58 327.128 281.58 312.644C281.58 298.161 269.839 286.419 255.355 286.419C240.872 286.419 229.13 298.161 229.13 312.644C229.13 327.128 240.872 338.869 255.355 338.869Z" fill="#FBBAC5"/>
<path d="M371.223 333.868L370.556 332.759C364.907 323.264 354.534 317.522 343.605 318.069C342.178 318.102 340.789 318.302 339.381 318.575C329.415 320.619 320.708 327.996 317.04 337.58C314.909 343.239 314.242 349.657 310.203 354.13C304.96 359.948 296.124 360.001 288.326 359.688C280.527 359.375 271.673 359.503 266.449 365.246C263.169 368.891 262.095 374.109 262.279 379.017C262.871 392.024 271.891 403.777 283.413 409.651C294.934 415.525 308.549 416.202 321.201 413.815C338.984 410.443 355.898 400.815 366.198 385.841C376.443 370.774 379.168 350.212 371.223 333.868Z" fill="#FBBAC5"/>
<path d="M126.987 0.797852H31.5894V139.143H126.987V0.797852Z" fill="#E0E0E0"/>
<path d="M122.237 0.797852H26.8394V139.143H122.237V0.797852Z" fill="#F5F5F5"/>
<path d="M110.359 15.7153H38.6206V124.035H110.359V15.7153Z" fill="white"/>
<path d="M110.359 124.035C110.359 124.035 110.359 123.845 110.359 123.465C110.359 123.085 110.359 122.61 110.359 121.944C110.359 120.614 110.359 118.619 110.359 115.958C110.359 110.732 110.359 103.226 110.264 93.6293C110.264 74.5309 110.169 47.451 110.169 15.6202L110.454 15.9053C88.5047 15.9053 64.2753 15.9053 38.7157 15.9053L39.0008 15.6202C39.0008 56.4776 39.0008 94.1994 38.9058 123.94L38.7157 123.75C60.5697 123.75 78.4329 123.845 90.8802 123.845C97.1513 123.845 101.997 123.845 105.323 123.94C106.938 123.94 108.268 123.94 109.123 123.94C109.884 124.035 110.359 124.035 110.359 124.035C110.359 124.035 109.979 124.035 109.123 124.035C108.268 124.035 107.033 124.035 105.418 124.035C102.092 124.035 97.2463 124.035 91.0702 124.13C78.6229 124.13 60.6647 124.225 38.7157 124.225H38.5257V124.035C38.5257 94.2945 38.5257 56.5726 38.4307 15.7152V15.4302H38.7157C64.2753 15.4302 88.5047 15.4302 110.454 15.4302H110.739V15.7152C110.644 47.641 110.644 74.7209 110.644 93.9144C110.644 103.416 110.549 111.017 110.549 116.148C110.549 118.714 110.549 120.709 110.549 122.039C110.549 122.705 110.549 123.18 110.549 123.56C110.359 123.94 110.359 124.035 110.359 124.035Z" fill="#E0E0E0"/>
<path d="M122.521 0.79769C122.616 0.79769 121.951 1.74786 120.811 3.26814C119.67 4.78841 118.15 6.78377 116.345 8.96917C114.54 11.1546 112.829 13.0549 111.594 14.4802C110.359 15.8104 109.504 16.6656 109.504 16.6656C109.409 16.5705 110.169 15.7154 111.309 14.2901C112.544 12.7699 114.159 10.8695 115.87 8.68412C117.58 6.59374 119.195 4.6934 120.431 3.0781C121.666 1.55783 122.426 0.702672 122.521 0.79769Z" fill="#E0E0E0"/>
<path d="M110.739 123.75C114.254 129.452 118.53 134.677 123.281 139.428L110.739 123.75Z" fill="white"/>
<path d="M123.281 139.333C123.281 139.428 122.426 138.667 121.096 137.337C119.86 136.007 118.15 134.202 116.345 132.016C114.635 129.831 113.209 127.741 112.164 126.22C111.214 124.7 110.644 123.655 110.739 123.655C110.834 123.655 111.404 124.51 112.544 126.03C113.589 127.55 115.11 129.546 116.82 131.731C118.53 133.917 120.146 135.817 121.381 137.147C122.521 138.477 123.281 139.333 123.281 139.333Z" fill="#E0E0E0"/>
<path d="M26.8394 138.953C31.0201 133.822 35.2009 128.691 39.3816 123.56L26.8394 138.953Z" fill="white"/>
<path d="M39.286 123.56C39.381 123.655 36.7205 127.171 33.2048 131.447C29.7842 135.722 26.8387 139.048 26.7437 138.953C26.6487 138.858 29.3091 135.342 32.8248 131.066C36.3404 126.791 39.1909 123.465 39.286 123.56Z" fill="#E0E0E0"/>
<path d="M26.8396 0.797942C26.9346 0.702925 29.6901 3.93351 32.9207 8.01925C36.1513 12.105 38.7167 15.5256 38.6217 15.6206C38.5267 15.7156 35.7712 12.4851 32.5406 8.39932C29.215 4.21856 26.7445 0.892959 26.8396 0.797942Z" fill="#E0E0E0"/>
<path d="M88.0296 37.7593H63.9902V105.887H88.0296V37.7593Z" fill="#E0E0E0"/>
<path d="M371.656 298.771H201.385V377.256H371.656V298.771Z" fill="#F5F5F5"/>
<path d="M367.665 373.645H205.281V302.952H367.57V373.645H367.665ZM206.421 372.505H366.62V303.902H206.421V372.505Z" fill="#E0E0E0"/>
<path d="M413.274 298.771H371.656V377.256H413.274V298.771Z" fill="#E0E0E0"/>
<path d="M205.851 324.806C224.094 324.806 242.338 324.806 260.581 324.806C289.371 324.806 318.256 324.806 347.047 324.806C353.698 324.806 360.444 324.806 367.095 324.806C367.38 324.806 367.38 324.426 367.095 324.426C348.852 324.426 330.609 324.426 312.365 324.426C283.575 324.426 254.69 324.426 225.9 324.426C219.248 324.426 212.502 324.426 205.851 324.426C205.566 324.331 205.566 324.806 205.851 324.806Z" fill="#E0E0E0"/>
<path d="M286.996 324.616C287.471 317.68 287.471 310.269 287.091 303.332C287.091 303.047 286.71 303.047 286.615 303.332C286.235 310.269 286.14 317.68 286.71 324.616C286.71 324.806 286.996 324.806 286.996 324.616Z" fill="#E0E0E0"/>
<path d="M330.419 313.879C330.419 315.114 329.468 316.065 328.233 316.065C326.998 316.065 326.048 315.114 326.048 313.879C326.048 312.644 326.998 311.694 328.233 311.694C329.468 311.694 330.419 312.739 330.419 313.879Z" fill="#E0E0E0"/>
<path d="M245.758 313.879C245.758 315.114 244.808 316.065 243.573 316.065C242.337 316.065 241.387 315.114 241.387 313.879C241.387 312.644 242.337 311.694 243.573 311.694C244.808 311.694 245.758 312.739 245.758 313.879Z" fill="#E0E0E0"/>
<path d="M288.706 338.299C288.706 339.534 287.756 340.484 286.52 340.484C285.285 340.484 284.335 339.534 284.335 338.299C284.335 337.063 285.285 336.113 286.52 336.113C287.756 336.113 288.706 337.063 288.706 338.299Z" fill="#E0E0E0"/>
<path d="M221.814 377.256L212.977 426.57H217.918L234.071 377.256H221.814Z" fill="#E0E0E0"/>
<path d="M359.684 377.256L367 426.665H362.059L347.332 377.256H359.684Z" fill="#E0E0E0"/>
<path d="M392.56 377.256L400.826 426.665H395.885L380.208 377.256H392.56Z" fill="#E0E0E0"/>
<path d="M288.516 360.438C288.516 361.673 287.566 362.623 286.33 362.623C285.095 362.623 284.145 361.673 284.145 360.438C284.145 359.203 285.095 358.252 286.33 358.252C287.566 358.252 288.516 359.298 288.516 360.438Z" fill="#E0E0E0"/>
<path d="M205.851 349.13C224.094 349.13 242.338 349.13 260.581 349.13C289.371 349.13 318.256 349.13 347.047 349.13C353.698 349.13 360.444 349.13 367.095 349.13C367.38 349.13 367.38 348.75 367.095 348.75C348.852 348.75 330.609 348.75 312.365 348.75C283.575 348.75 254.69 348.75 225.9 348.75C219.248 348.75 212.502 348.75 205.851 348.75C205.566 348.655 205.566 349.13 205.851 349.13Z" fill="#E0E0E0"/>
<path d="M305.629 402.38L305.577 392.593L257.688 392.846L257.74 402.633L305.629 402.38Z" fill="#E0E0E0"/>
<path d="M311.331 426.867L311.251 411.759L257.947 412.041L258.027 427.149L311.331 426.867Z" fill="#F5F5F5"/>
<path d="M301.058 426.855C300.868 426.855 300.773 423.434 300.773 419.254C300.773 415.073 300.868 411.652 301.058 411.652C301.249 411.652 301.344 415.073 301.344 419.254C301.344 423.434 301.249 426.855 301.058 426.855Z" fill="#E0E0E0"/>
<path d="M303.339 426.855C303.149 426.855 303.054 423.434 303.054 419.254C303.054 415.073 303.149 411.652 303.339 411.652C303.529 411.652 303.624 415.073 303.624 419.254C303.529 423.434 303.434 426.855 303.339 426.855Z" fill="#E0E0E0"/>
<path d="M265.997 426.855C265.807 426.855 265.712 423.434 265.712 419.254C265.712 415.073 265.807 411.652 265.997 411.652C266.187 411.652 266.282 415.073 266.282 419.254C266.282 423.434 266.187 426.855 265.997 426.855Z" fill="#E0E0E0"/>
<path d="M268.278 426.855C268.088 426.855 267.993 423.434 267.993 419.254C267.993 415.073 268.088 411.652 268.278 411.652C268.468 411.652 268.563 415.073 268.563 419.254C268.563 423.434 268.373 426.855 268.278 426.855Z" fill="#E0E0E0"/>
<path d="M273.124 419.539C273.124 419.349 278.54 419.254 285.096 419.254C291.747 419.254 297.068 419.349 297.068 419.539C297.068 419.729 291.652 419.824 285.096 419.824C278.54 419.729 273.124 419.634 273.124 419.539Z" fill="#E0E0E0"/>
<path d="M331.347 411.748L331.295 401.961L265.448 402.308L265.5 412.095L331.347 411.748Z" fill="#EBEBEB"/>
<path d="M321.962 410.512C320.252 410.512 318.827 409.087 318.827 407.377C318.827 405.666 320.252 404.241 321.962 404.241C323.673 404.241 325.098 405.666 325.098 407.377C325.098 409.087 323.673 410.512 321.962 410.512Z" fill="#E0E0E0"/>
<path d="M313.38 408.306V406.406H269.292V408.306H313.38Z" fill="#E0E0E0"/>
<path d="M421.445 13.7202H168.224V266.941H421.445V13.7202Z" fill="white"/>
<path d="M421.445 266.941C421.445 265.136 421.35 165.558 421.255 13.7201L421.445 13.9101C347.807 13.9101 260.961 13.9101 168.224 13.9101L168.509 13.6251C168.509 106.362 168.509 193.208 168.509 266.846L168.319 266.656C320.062 266.846 419.545 266.941 421.445 266.941C419.64 266.941 320.062 267.036 168.224 267.131H168.034V266.941C168.034 193.398 168.034 106.457 168.034 13.7201V13.4351H168.319C261.056 13.4351 347.902 13.4351 421.54 13.4351H421.73V13.6251C421.54 165.558 421.445 265.136 421.445 266.941Z" fill="#263238"/>
<path d="M243.383 45.9309H246.138V51.2519C244.713 52.2971 242.718 52.9622 240.817 52.9622C236.731 52.9622 233.691 50.1117 233.691 46.216C233.691 42.3202 236.731 39.4697 240.912 39.4697C243.193 39.4697 245.093 40.2299 246.423 41.7501L244.428 43.5555C243.478 42.5103 242.337 42.0352 241.007 42.0352C238.442 42.0352 236.731 43.7455 236.731 46.216C236.731 48.6864 238.442 50.3967 241.007 50.3967C241.862 50.3967 242.623 50.2067 243.383 49.8266V45.9309Z" fill="#BF2343"/>
<path d="M258.585 48.4966H250.984C251.269 49.7318 252.314 50.492 253.834 50.492C254.88 50.492 255.64 50.2069 256.4 49.5418L257.92 51.2521C256.97 52.2973 255.545 52.8674 253.739 52.8674C250.224 52.8674 247.943 50.682 247.943 47.6415C247.943 44.6009 250.224 42.4155 253.359 42.4155C256.305 42.4155 258.585 44.4109 258.585 47.6415C258.585 47.9265 258.585 48.2116 258.585 48.4966ZM250.889 46.7863H255.83C255.64 45.5511 254.69 44.6959 253.359 44.6959C252.029 44.6959 251.079 45.4561 250.889 46.7863Z" fill="#BF2343"/>
<path d="M267.042 52.2023C266.472 52.6774 265.522 52.8675 264.667 52.8675C262.291 52.8675 260.866 51.6322 260.866 49.2568V45.0761H259.346V42.7956H260.866V40.3252H263.812V42.7956H266.282V45.0761H263.812V49.1618C263.812 50.017 264.287 50.492 265.047 50.492C265.522 50.492 265.902 50.397 266.187 50.112L267.042 52.2023Z" fill="#BF2343"/>
<path d="M273.693 39.565C273.693 38.6148 274.453 37.9497 275.499 37.9497C276.544 37.9497 277.304 38.6148 277.304 39.565C277.304 40.5152 276.544 41.2753 275.499 41.2753C274.358 41.1803 273.693 40.5152 273.693 39.565ZM274.073 42.6056H277.019V52.6774H274.073V42.6056Z" fill="#BF2343"/>
<path d="M290.036 46.8813V52.6774H287.091V47.3564C287.091 45.7411 286.33 44.981 285 44.981C283.575 44.981 282.625 45.8361 282.625 47.7365V52.7724H279.679V42.6056H282.435V43.7458C283.195 42.8906 284.43 42.4155 285.76 42.4155C288.231 42.4155 290.036 43.8408 290.036 46.8813Z" fill="#BF2343"/>
<path d="M304.479 52.2023C303.909 52.6774 302.958 52.8675 302.103 52.8675C299.728 52.8675 298.303 51.6322 298.303 49.2568V45.0761H296.782V42.7956H298.303V40.3252H301.248V42.7956H303.719V45.0761H301.248V49.1618C301.248 50.017 301.723 50.492 302.483 50.492C302.958 50.492 303.338 50.397 303.623 50.112L304.479 52.2023Z" fill="#BF2343"/>
<path d="M305.049 47.6415C305.049 44.6009 307.424 42.4155 310.56 42.4155C313.79 42.4155 316.071 44.6009 316.071 47.6415C316.071 50.682 313.79 52.8674 310.56 52.8674C307.424 52.8674 305.049 50.682 305.049 47.6415ZM313.125 47.6415C313.125 45.9312 311.985 44.886 310.56 44.886C309.135 44.886 307.994 45.9312 307.994 47.6415C307.994 49.3518 309.135 50.397 310.56 50.397C312.08 50.492 313.125 49.3518 313.125 47.6415Z" fill="#BF2343"/>
<path d="M328.233 42.6058V52.6776H325.477V51.4424C324.717 52.2975 323.577 52.7726 322.342 52.7726C319.776 52.7726 318.066 51.3473 318.066 48.2118V42.5107H321.011V47.7367C321.011 49.447 321.772 50.2071 323.102 50.2071C324.432 50.2071 325.382 49.352 325.382 47.4516V42.6058H328.233Z" fill="#BF2343"/>
<path d="M330.229 47.6415C330.229 44.6009 332.604 42.4155 335.835 42.4155C337.925 42.4155 339.635 43.3657 340.395 44.981L338.115 46.2162C337.545 45.266 336.785 44.791 335.835 44.791C334.314 44.791 333.174 45.8361 333.174 47.5465C333.174 49.3518 334.314 50.302 335.835 50.302C336.785 50.302 337.545 49.9219 338.115 48.8767L340.395 50.1119C339.635 51.7272 338.02 52.6774 335.835 52.6774C332.509 52.8674 330.229 50.682 330.229 47.6415Z" fill="#BF2343"/>
<path d="M352.272 46.8812V52.6772H349.327V47.3562C349.327 45.7409 348.567 44.9808 347.236 44.9808C345.811 44.9808 344.861 45.836 344.861 47.7363V52.7722H341.916V38.8047H344.861V43.6506C345.621 42.8904 346.761 42.4153 348.092 42.4153C350.467 42.4153 352.272 43.8406 352.272 46.8812Z" fill="#BF2343"/>
<path d="M361.964 62.9389C361.964 63.0339 330.989 63.2239 292.792 63.2239C254.595 63.2239 223.619 63.1289 223.619 62.9389C223.619 62.8438 254.595 62.6538 292.792 62.6538C331.084 62.6538 361.964 62.8438 361.964 62.9389Z" fill="#263238"/>
<path d="M384.388 106.552C384.388 106.552 384.388 106.267 384.388 105.602C384.388 104.937 384.388 104.082 384.388 102.847C384.388 100.471 384.388 96.8605 384.293 92.2047L384.388 92.2997C355.598 92.2997 284.335 92.3947 201.1 92.4897L201.385 92.2047C201.385 97.1456 201.385 101.991 201.385 106.552L201.1 106.267C252.315 106.267 298.113 106.362 331.084 106.362C347.617 106.362 360.919 106.457 370.041 106.457C374.602 106.457 378.212 106.457 380.588 106.457C381.823 106.457 382.678 106.457 383.343 106.457C384.008 106.552 384.388 106.552 384.388 106.552C384.388 106.552 384.103 106.552 383.438 106.552C382.773 106.552 381.918 106.552 380.683 106.552C378.307 106.552 374.697 106.552 370.136 106.552C360.919 106.552 347.712 106.552 331.179 106.647C298.113 106.647 252.315 106.742 201.005 106.742H200.72V106.457C200.72 101.896 200.72 97.0506 200.72 92.1097V92.0146H201.005C284.24 92.1097 355.408 92.1097 384.293 92.2047H384.388V92.2997C384.388 96.9555 384.388 100.566 384.293 103.037C384.293 104.272 384.293 105.127 384.293 105.792C384.388 106.267 384.388 106.552 384.388 106.552Z" fill="#263238"/>
<path d="M205.376 82.1328V86.3136H204.616L202.525 83.7481V86.3136H201.575V82.1328H202.335L204.426 84.6983V82.1328H205.376Z" fill="#263238"/>
<path d="M209.177 84.5083V86.3136H208.322V85.9335C208.132 86.2186 207.847 86.4086 207.371 86.4086C206.611 86.4086 206.136 86.0285 206.136 85.4584C206.136 84.8883 206.516 84.5083 207.466 84.5083H208.227C208.227 84.1282 207.942 83.8431 207.466 83.8431C207.086 83.8431 206.801 83.9382 206.516 84.1282L206.136 83.4631C206.516 83.178 206.991 83.083 207.561 83.083C208.607 83.083 209.177 83.5581 209.177 84.5083ZM208.227 85.2684V84.9834H207.561C207.086 84.9834 206.991 85.1734 206.991 85.3634C206.991 85.5535 207.181 85.7435 207.561 85.7435C207.847 85.7435 208.132 85.5535 208.227 85.2684Z" fill="#263238"/>
<path d="M215.353 84.5083V86.3136H214.403V84.6033C214.403 84.1282 214.212 83.8431 213.832 83.8431C213.452 83.8431 213.167 84.1282 213.167 84.6983V86.3136H212.217V84.6033C212.217 84.1282 212.027 83.8431 211.647 83.8431C211.267 83.8431 210.982 84.1282 210.982 84.6983V86.3136H210.032V83.083H210.887V83.4631C211.172 83.178 211.457 83.083 211.932 83.083C212.407 83.083 212.787 83.273 212.977 83.6531C213.262 83.3681 213.642 83.083 214.117 83.083C214.878 83.083 215.353 83.4631 215.353 84.5083Z" fill="#263238"/>
<path d="M219.343 84.9836H216.968C217.063 85.3636 217.443 85.6487 217.918 85.6487C218.298 85.6487 218.488 85.5537 218.678 85.3636L219.153 85.9337C218.868 86.3138 218.393 86.4088 217.823 86.4088C216.683 86.4088 216.018 85.7437 216.018 84.7935C216.018 83.8433 216.778 83.1782 217.728 83.1782C218.678 83.1782 219.438 83.8433 219.438 84.7935C219.438 84.7935 219.343 84.8885 219.343 84.9836ZM216.968 84.4134H218.583C218.488 84.0334 218.203 83.7483 217.823 83.7483C217.348 83.7483 216.968 84.0334 216.968 84.4134Z" fill="#263238"/>
<path d="M384.388 142.374C384.388 142.374 384.388 142.089 384.388 141.424C384.388 140.759 384.388 139.903 384.388 138.668C384.388 136.293 384.388 132.682 384.293 128.026L384.388 128.121C355.598 128.121 284.335 128.216 201.1 128.311L201.385 128.026C201.385 132.967 201.385 137.813 201.385 142.374L201.1 142.089C252.315 142.089 298.113 142.184 331.084 142.184C347.617 142.184 360.919 142.279 370.041 142.279C374.602 142.279 378.212 142.279 380.588 142.279C381.823 142.279 382.678 142.279 383.343 142.279C384.008 142.374 384.388 142.374 384.388 142.374C384.388 142.374 384.103 142.374 383.438 142.374C382.773 142.374 381.918 142.374 380.683 142.374C378.307 142.374 374.697 142.374 370.136 142.374C360.919 142.374 347.712 142.374 331.179 142.469C298.113 142.469 252.315 142.564 201.005 142.564H200.72V142.374C200.72 137.813 200.72 132.967 200.72 128.026V127.741H201.005C284.24 127.836 355.408 127.836 384.293 127.931H384.388V128.026C384.388 132.682 384.388 136.293 384.293 138.763C384.293 139.998 384.293 140.854 384.293 141.519C384.388 142.089 384.388 142.374 384.388 142.374Z" fill="#263238"/>
<path d="M384.389 214.207C384.389 214.207 384.389 213.827 384.389 213.257C384.389 212.591 384.389 211.641 384.389 210.406C384.389 207.841 384.389 204.135 384.389 199.384C384.389 189.787 384.294 175.725 384.294 157.957L384.484 158.147C341.346 158.147 275.214 158.242 201.196 158.242L201.481 157.957C201.481 177.435 201.481 196.439 201.481 214.302L201.196 214.017C253.835 214.017 299.633 214.112 332.224 214.112C348.567 214.112 361.585 214.207 370.611 214.207C375.077 214.207 378.593 214.207 380.873 214.207C382.013 214.207 382.963 214.207 383.534 214.207C384.009 214.207 384.389 214.207 384.389 214.207C384.389 214.207 384.104 214.207 383.534 214.207C382.963 214.207 382.013 214.207 380.873 214.207C378.498 214.207 375.077 214.207 370.611 214.207C361.68 214.207 348.662 214.207 332.319 214.302C299.633 214.302 253.835 214.397 201.1 214.397H200.815V214.112C200.815 196.248 200.815 177.245 200.815 157.766V157.481H201.1C275.119 157.481 341.251 157.576 384.389 157.576H384.579V157.766C384.579 175.535 384.484 189.597 384.484 199.289C384.484 204.135 384.484 207.841 384.484 210.311C384.484 211.546 384.484 212.496 384.484 213.162C384.389 213.922 384.389 214.207 384.389 214.207Z" fill="#263238"/>
<path d="M204.806 121.28V122.04H201.575V117.859H204.711V118.62H202.525V119.57H204.426V120.33H202.525V121.28H204.806Z" fill="#263238"/>
<path d="M210.887 120.234V122.04H209.937V120.329C209.937 119.854 209.747 119.569 209.367 119.569C208.987 119.569 208.701 119.854 208.701 120.424V122.04H207.751V120.329C207.751 119.854 207.561 119.569 207.181 119.569C206.801 119.569 206.516 119.854 206.516 120.424V122.04H205.566V118.809H206.421V119.189C206.706 118.904 206.991 118.809 207.466 118.809C207.941 118.809 208.321 118.999 208.511 119.379C208.797 119.094 209.177 118.809 209.652 118.809C210.412 118.809 210.887 119.284 210.887 120.234Z" fill="#263238"/>
<path d="M214.592 120.234V122.04H213.737V121.66C213.547 121.945 213.262 122.135 212.787 122.135C212.027 122.135 211.552 121.755 211.552 121.185C211.552 120.614 211.932 120.234 212.882 120.234H213.642C213.642 119.854 213.357 119.569 212.882 119.569C212.502 119.569 212.217 119.664 211.932 119.854L211.552 119.189C211.932 118.904 212.407 118.809 212.977 118.809C214.022 118.809 214.592 119.284 214.592 120.234ZM213.642 121.09V120.804H212.977C212.502 120.804 212.407 120.994 212.407 121.185C212.407 121.375 212.597 121.565 212.977 121.565C213.262 121.47 213.547 121.375 213.642 121.09Z" fill="#263238"/>
<path d="M215.258 117.954C215.258 117.669 215.448 117.479 215.828 117.479C216.208 117.479 216.398 117.669 216.398 117.954C216.398 118.239 216.208 118.524 215.828 118.524C215.543 118.429 215.258 118.239 215.258 117.954ZM215.448 118.904H216.398V122.135H215.448V118.904Z" fill="#263238"/>
<path d="M217.158 117.669H218.108V122.04H217.158V117.669Z" fill="#263238"/>
<path d="M223.524 120.234V122.04H222.669V121.66C222.479 121.945 222.194 122.135 221.719 122.135C220.958 122.135 220.483 121.755 220.483 121.185C220.483 120.614 220.863 120.234 221.814 120.234H222.574C222.574 119.854 222.289 119.569 221.814 119.569C221.434 119.569 221.149 119.664 220.863 119.854L220.483 119.189C220.863 118.904 221.339 118.809 221.909 118.809C222.954 118.809 223.524 119.284 223.524 120.234ZM222.574 121.09V120.804H221.909C221.434 120.804 221.339 120.994 221.339 121.185C221.339 121.375 221.529 121.565 221.909 121.565C222.194 121.47 222.479 121.375 222.574 121.09Z" fill="#263238"/>
<path d="M227.61 117.669V122.04H226.755V121.66C226.565 121.945 226.185 122.04 225.71 122.04C224.759 122.04 224.094 121.375 224.094 120.424C224.094 119.379 224.759 118.809 225.71 118.809C226.09 118.809 226.47 118.904 226.66 119.189V117.669H227.61ZM226.755 120.519C226.755 119.949 226.375 119.664 225.9 119.664C225.424 119.664 225.044 120.044 225.044 120.519C225.044 121.09 225.424 121.375 225.9 121.375C226.375 121.375 226.755 120.995 226.755 120.519Z" fill="#263238"/>
<path d="M231.696 117.669V122.04H230.841V121.66C230.651 121.945 230.271 122.04 229.795 122.04C228.845 122.04 228.18 121.375 228.18 120.424C228.18 119.379 228.845 118.809 229.795 118.809C230.176 118.809 230.556 118.904 230.746 119.189V117.669H231.696ZM230.841 120.519C230.841 119.949 230.461 119.664 229.986 119.664C229.51 119.664 229.13 120.044 229.13 120.519C229.13 121.09 229.51 121.375 229.986 121.375C230.461 121.375 230.841 120.995 230.841 120.519Z" fill="#263238"/>
<path d="M234.546 118.809V119.664C234.451 119.664 234.451 119.664 234.356 119.664C233.881 119.664 233.501 119.949 233.501 120.519V122.04H232.551V118.809H233.406V119.189C233.691 118.999 234.071 118.809 234.546 118.809Z" fill="#263238"/>
<path d="M238.252 120.71H235.876C235.971 121.09 236.352 121.375 236.827 121.375C237.207 121.375 237.397 121.28 237.587 121.09L238.062 121.66C237.777 122.04 237.302 122.135 236.732 122.135C235.591 122.135 234.926 121.47 234.926 120.52C234.926 119.569 235.686 118.904 236.637 118.904C237.587 118.904 238.347 119.569 238.347 120.52C238.252 120.52 238.252 120.615 238.252 120.71ZM235.781 120.235H237.397C237.302 119.854 237.017 119.569 236.637 119.569C236.162 119.569 235.876 119.759 235.781 120.235Z" fill="#263238"/>
<path d="M238.537 121.755L238.822 121.09C239.107 121.28 239.582 121.375 239.962 121.375C240.437 121.375 240.532 121.28 240.532 121.09C240.532 120.519 238.632 121.09 238.632 119.854C238.632 119.284 239.202 118.809 240.152 118.809C240.627 118.809 241.103 118.904 241.388 119.094L241.103 119.759C240.818 119.569 240.437 119.474 240.152 119.474C239.772 119.474 239.582 119.569 239.582 119.759C239.582 120.329 241.483 119.759 241.483 120.994C241.483 121.565 240.913 122.04 239.962 122.04C239.392 122.135 238.822 121.945 238.537 121.755Z" fill="#263238"/>
<path d="M241.672 121.755L241.957 121.09C242.242 121.28 242.718 121.375 243.098 121.375C243.573 121.375 243.668 121.28 243.668 121.09C243.668 120.519 241.767 121.09 241.767 119.854C241.767 119.284 242.337 118.809 243.288 118.809C243.763 118.809 244.238 118.904 244.523 119.094L244.238 119.759C243.953 119.569 243.573 119.474 243.288 119.474C242.908 119.474 242.718 119.569 242.718 119.759C242.718 120.329 244.618 119.759 244.618 120.994C244.618 121.565 244.048 122.04 243.098 122.04C242.528 122.135 241.957 121.945 241.672 121.755Z" fill="#263238"/>
<path d="M205.376 153.206V150.735L204.141 152.826H203.666L202.431 150.83V153.301H201.48V149.025H202.241L203.761 151.59L205.281 149.025H206.041V153.206H205.376Z" fill="#263238"/>
<path d="M210.317 151.876H207.941C208.036 152.256 208.416 152.541 208.892 152.541C209.272 152.541 209.462 152.446 209.652 152.256L210.127 152.826C209.842 153.206 209.367 153.301 208.797 153.301C207.656 153.301 206.991 152.636 206.991 151.686C206.991 150.735 207.751 150.07 208.702 150.07C209.652 150.07 210.412 150.735 210.412 151.686C210.317 151.686 210.317 151.781 210.317 151.876ZM207.846 151.306H209.462C209.367 150.925 209.082 150.64 208.702 150.64C208.226 150.64 207.941 150.925 207.846 151.306Z" fill="#263238"/>
<path d="M210.602 152.921L210.887 152.256C211.172 152.446 211.647 152.541 212.027 152.541C212.502 152.541 212.597 152.446 212.597 152.256C212.597 151.685 210.697 152.256 210.697 151.02C210.697 150.45 211.267 149.975 212.217 149.975C212.692 149.975 213.168 150.07 213.453 150.26L213.168 150.925C212.882 150.735 212.502 150.64 212.217 150.64C211.837 150.64 211.647 150.735 211.647 150.925C211.647 151.495 213.548 150.925 213.548 152.16C213.548 152.731 212.977 153.206 212.027 153.206C211.457 153.206 210.982 153.111 210.602 152.921Z" fill="#263238"/>
<path d="M213.833 152.921L214.118 152.256C214.403 152.446 214.878 152.541 215.258 152.541C215.733 152.541 215.828 152.446 215.828 152.256C215.828 151.685 213.928 152.256 213.928 151.02C213.928 150.45 214.498 149.975 215.448 149.975C215.923 149.975 216.398 150.07 216.683 150.26L216.398 150.925C216.113 150.735 215.733 150.64 215.448 150.64C215.068 150.64 214.878 150.735 214.878 150.925C214.878 151.495 216.778 150.925 216.778 152.16C216.778 152.731 216.208 153.206 215.258 153.206C214.593 153.206 214.118 153.111 213.833 152.921Z" fill="#263238"/>
<path d="M220.104 151.4V153.206H219.249V152.826C219.059 153.111 218.774 153.301 218.299 153.301C217.539 153.301 217.063 152.921 217.063 152.351C217.063 151.78 217.444 151.4 218.394 151.4H219.154C219.154 151.02 218.869 150.735 218.394 150.735C218.014 150.735 217.729 150.83 217.444 151.02L217.063 150.355C217.444 150.07 217.919 149.975 218.489 149.975C219.534 149.975 220.104 150.355 220.104 151.4ZM219.154 152.16V151.875H218.489C218.014 151.875 217.919 152.065 217.919 152.256C217.919 152.446 218.109 152.636 218.489 152.636C218.774 152.636 219.059 152.446 219.154 152.16Z" fill="#263238"/>
<path d="M224.284 149.975V152.636C224.284 153.871 223.619 154.346 222.479 154.346C221.909 154.346 221.244 154.156 220.864 153.871L221.244 153.206C221.529 153.396 222.004 153.586 222.384 153.586C223.049 153.586 223.334 153.301 223.334 152.731V152.636C223.049 152.921 222.764 153.016 222.289 153.016C221.434 153.016 220.674 152.446 220.674 151.495C220.674 150.545 221.434 149.975 222.289 149.975C222.764 149.975 223.144 150.165 223.334 150.45V149.975H224.284ZM223.334 151.495C223.334 151.02 222.954 150.735 222.479 150.735C222.004 150.735 221.624 151.02 221.624 151.495C221.624 151.97 222.004 152.256 222.479 152.256C222.954 152.256 223.334 151.97 223.334 151.495Z" fill="#263238"/>
<path d="M228.275 151.876H225.9C225.995 152.256 226.375 152.541 226.85 152.541C227.23 152.541 227.42 152.446 227.61 152.256L228.085 152.826C227.8 153.206 227.325 153.301 226.755 153.301C225.615 153.301 224.95 152.636 224.95 151.686C224.95 150.735 225.71 150.07 226.66 150.07C227.61 150.07 228.37 150.735 228.37 151.686C228.275 151.686 228.275 151.781 228.275 151.876ZM225.805 151.306H227.42C227.325 150.925 227.04 150.64 226.66 150.64C226.185 150.64 225.9 150.925 225.805 151.306Z" fill="#263238"/>
<path d="M373.937 248.793H326.238C319.872 248.793 314.646 243.567 314.646 237.2C314.646 230.834 319.872 225.608 326.238 225.608H373.937C380.303 225.608 385.529 230.834 385.529 237.2C385.529 243.567 380.398 248.793 373.937 248.793Z" fill="#BF2343"/>
<path d="M339.635 239.006L340.11 238.055C340.585 238.436 341.251 238.626 342.011 238.626C342.771 238.626 343.056 238.341 343.056 238.055C343.056 237.01 339.825 237.77 339.825 235.68C339.825 234.73 340.585 233.97 342.201 233.97C342.866 233.97 343.626 234.16 344.196 234.445L343.816 235.395C343.246 235.11 342.771 234.92 342.296 234.92C341.536 234.92 341.251 235.205 341.251 235.585C341.251 236.63 344.481 235.87 344.481 237.96C344.481 238.911 343.721 239.671 342.106 239.671C341.061 239.671 340.11 239.386 339.635 239.006Z" fill="white"/>
<path d="M349.327 237.771H346.096C346.191 238.341 346.666 238.626 347.332 238.626C347.807 238.626 348.092 238.531 348.377 238.246L349.042 239.006C348.662 239.481 347.997 239.671 347.237 239.671C345.716 239.671 344.766 238.721 344.766 237.486C344.766 236.155 345.716 235.3 347.047 235.3C348.282 235.3 349.327 236.155 349.327 237.581C349.327 237.486 349.327 237.676 349.327 237.771ZM346.096 237.011H348.187C348.092 236.441 347.712 236.155 347.142 236.155C346.571 236.155 346.191 236.441 346.096 237.011Z" fill="white"/>
<path d="M354.648 237.105V239.576H353.413V237.295C353.413 236.63 353.128 236.25 352.558 236.25C351.988 236.25 351.513 236.63 351.513 237.39V239.576H350.277V235.205H351.513V235.68C351.893 235.3 352.368 235.11 352.938 235.11C353.888 235.205 354.648 235.775 354.648 237.105Z" fill="white"/>
<path d="M360.254 233.59V239.576H359.019V239.101C358.734 239.481 358.259 239.671 357.689 239.671C356.454 239.671 355.503 238.816 355.503 237.486C355.503 236.155 356.454 235.3 357.689 235.3C358.259 235.3 358.639 235.49 359.019 235.87V233.59H360.254ZM359.019 237.391C359.019 236.63 358.544 236.155 357.879 236.155C357.214 236.155 356.739 236.63 356.739 237.391C356.739 238.151 357.214 238.626 357.879 238.626C358.544 238.626 359.019 238.151 359.019 237.391Z" fill="white"/>
<path d="M199.77 33.6738C199.77 33.7688 199.01 33.4837 197.585 33.5788C196.159 33.6738 194.069 34.0539 192.169 35.7642C191.218 36.6193 190.363 37.6645 189.793 38.9947C189.223 40.325 188.938 41.9403 189.223 43.5556C189.318 44.4107 189.603 45.1709 189.888 45.931C190.268 46.6911 190.743 47.4513 191.313 48.1164C192.454 49.4466 194.164 50.3968 195.969 50.8719C197.775 51.252 199.77 51.0619 201.385 50.3018C202.24 49.9217 202.905 49.4466 203.571 48.8765C204.236 48.3064 204.806 47.6413 205.186 46.9762C206.041 45.6459 206.516 44.0307 206.516 42.6054C206.611 41.1801 206.231 39.7549 205.756 38.6147C204.711 36.3343 203 35.004 201.765 34.4339C200.53 33.8638 199.77 33.6738 199.77 33.6738C199.77 33.6738 200.53 33.7688 201.86 34.3389C203.096 34.909 204.996 36.2392 206.041 38.6147C206.611 39.7549 206.991 41.1801 206.896 42.7004C206.801 44.2207 206.421 45.836 205.471 47.3563C204.996 48.1164 204.426 48.7815 203.761 49.3516C203.096 49.9217 202.335 50.4918 201.48 50.8719C199.77 51.632 197.775 51.9171 195.779 51.442C193.879 50.9669 192.074 49.9217 190.838 48.4965C190.173 47.8313 189.698 46.9762 189.318 46.2161C188.938 45.3609 188.748 44.5057 188.558 43.6506C188.273 41.9403 188.653 40.325 189.223 38.8997C189.793 37.4745 190.743 36.3343 191.693 35.5741C193.689 33.8638 195.874 33.4837 197.299 33.4837C199.01 33.3887 199.77 33.6738 199.77 33.6738Z" fill="#BF2343"/>
<path d="M194.829 34.0536C194.924 33.9586 196.92 37.4743 199.105 41.75C201.385 46.0258 203.096 49.6365 203.001 49.6365C202.906 49.7315 201.005 46.2158 198.725 41.9401C196.444 37.6643 194.639 34.1487 194.829 34.0536Z" fill="#BF2343"/>
<path d="M196.634 33.5786C196.729 33.4836 198.629 36.8092 200.815 40.99C203 45.1707 204.616 48.5914 204.52 48.6864C204.425 48.7814 202.525 45.4558 200.34 41.275C198.154 36.9993 196.444 33.5786 196.634 33.5786Z" fill="#BF2343"/>
<path d="M198.725 33.5789C198.82 33.4839 200.53 36.4294 202.43 40.1351C204.331 43.8408 205.756 46.7863 205.661 46.8813C205.566 46.9763 203.856 44.0308 201.955 40.3251C200.055 36.6194 198.535 33.6739 198.725 33.5789Z" fill="#BF2343"/>
<path d="M201.005 33.9588C201.1 33.8638 202.43 36.2392 204.046 39.1848C205.566 42.1303 206.706 44.6007 206.611 44.6007C206.516 44.6958 205.186 42.3203 203.571 39.3748C201.955 36.4293 200.815 33.9588 201.005 33.9588Z" fill="#BF2343"/>
<path d="M193.119 35.099C193.214 35.004 195.209 38.5197 197.394 42.7954C199.675 47.0712 201.385 50.6819 201.29 50.6819C201.195 50.7769 199.295 47.2613 197.014 42.9855C194.734 38.7097 193.024 35.1941 193.119 35.099Z" fill="#BF2343"/>
<path d="M191.503 36.144C191.598 36.049 193.594 39.5646 195.779 43.8404C198.059 48.1161 199.77 51.7268 199.675 51.7268C199.58 51.8218 197.679 48.3062 195.399 44.0304C193.119 39.7546 191.408 36.239 191.503 36.144Z" fill="#BF2343"/>
<path d="M190.268 37.8547C190.363 37.7597 192.073 40.8002 193.974 44.5059C195.874 48.2116 197.394 51.2521 197.299 51.3471C197.204 51.4422 195.494 48.4016 193.594 44.6959C191.598 40.9903 190.078 37.8547 190.268 37.8547Z" fill="#BF2343"/>
<path d="M189.223 40.1351C189.318 40.0401 190.648 42.4155 192.168 45.361C193.689 48.3066 194.829 50.682 194.734 50.777C194.639 50.872 193.309 48.4966 191.788 45.5511C190.268 42.6055 189.128 40.2301 189.223 40.1351Z" fill="#BF2343"/>
<path d="M269.703 237.2C269.608 237.2 269.323 236.535 268.373 235.49C267.422 234.445 265.807 233.115 263.242 232.735C262.006 232.545 260.581 232.545 259.251 233.02C257.826 233.495 256.495 234.255 255.355 235.49C254.785 236.06 254.31 236.82 253.93 237.581C253.55 238.341 253.265 239.196 253.17 240.051C252.885 241.761 253.17 243.662 254.025 245.372C254.88 247.082 256.305 248.413 257.826 249.173C258.586 249.553 259.441 249.838 260.296 250.028C261.151 250.218 262.006 250.218 262.767 250.123C264.382 249.933 265.902 249.268 267.042 248.413C268.183 247.557 269.038 246.417 269.608 245.277C270.748 242.997 270.653 240.906 270.368 239.481C270.083 237.866 269.703 237.2 269.703 237.2C269.703 237.2 270.178 237.866 270.558 239.291C270.938 240.621 271.033 242.901 269.988 245.277C269.418 246.417 268.563 247.652 267.422 248.603C266.187 249.553 264.667 250.218 262.957 250.503C262.101 250.598 261.246 250.598 260.296 250.503C259.441 250.408 258.491 250.123 257.636 249.648C255.925 248.793 254.5 247.367 253.55 245.657C252.695 243.852 252.315 241.856 252.695 240.051C252.79 239.101 253.17 238.246 253.55 237.486C253.93 236.725 254.5 235.965 255.07 235.3C256.21 234.065 257.731 233.21 259.156 232.735C260.581 232.26 262.101 232.26 263.337 232.545C265.902 233.02 267.612 234.445 268.468 235.585C269.513 236.44 269.703 237.2 269.703 237.2Z" fill="#BF2343"/>
<path d="M266.282 233.59C266.377 233.685 264.952 237.295 263.051 241.761C261.151 246.227 259.536 249.838 259.346 249.743C259.251 249.648 260.676 246.037 262.576 241.571C264.477 237.105 266.092 233.495 266.282 233.59Z" fill="#BF2343"/>
<path d="M267.802 234.635C267.897 234.73 266.567 238.246 264.667 242.617C262.861 246.987 261.246 250.408 261.056 250.408C260.961 250.313 262.291 246.797 264.192 242.427C266.092 238.056 267.707 234.54 267.802 234.635Z" fill="#BF2343"/>
<path d="M269.133 236.25C269.228 236.346 268.087 239.386 266.472 243.187C264.857 246.987 263.432 250.028 263.337 249.933C263.242 249.838 264.382 246.797 265.997 242.997C267.612 239.291 269.038 236.25 269.133 236.25Z" fill="#BF2343"/>
<path d="M270.273 238.246C270.368 238.341 269.418 240.811 268.182 243.852C266.852 246.892 265.712 249.363 265.617 249.268C265.522 249.173 266.472 246.702 267.707 243.662C269.038 240.621 270.178 238.151 270.273 238.246Z" fill="#BF2343"/>
<path d="M264.382 232.925C264.477 233.02 263.051 236.63 261.151 241.096C259.251 245.562 257.635 249.173 257.445 249.078C257.35 248.983 258.776 245.372 260.676 240.906C262.671 236.535 264.287 232.925 264.382 232.925Z" fill="#BF2343"/>
<path d="M262.576 232.354C262.671 232.45 261.246 236.06 259.346 240.526C257.446 244.992 255.83 248.602 255.64 248.507C255.545 248.412 256.97 244.802 258.871 240.336C260.771 235.87 262.481 232.354 262.576 232.354Z" fill="#BF2343"/>
<path d="M260.486 232.45C260.581 232.545 259.346 235.68 257.73 239.576C256.115 243.472 254.69 246.512 254.5 246.512C254.405 246.417 255.64 243.282 257.255 239.386C258.871 235.49 260.296 232.355 260.486 232.45Z" fill="#BF2343"/>
<path d="M258.015 233.115C258.11 233.21 257.16 235.68 255.925 238.721C254.595 241.761 253.455 244.232 253.36 244.137C253.265 244.042 254.215 241.571 255.45 238.531C256.78 235.49 257.92 233.115 258.015 233.115Z" fill="#BF2343"/>
<path d="M401.492 56.2878C401.397 56.2878 401.492 54.8625 400.922 52.2971C400.637 51.0619 400.066 49.5416 399.116 48.0213C398.166 46.501 396.836 44.7907 395.03 43.4605C393.225 42.1302 390.85 40.895 388.189 40.4199C385.529 39.9448 382.583 40.0399 379.733 41.1801C378.307 41.6552 376.882 42.4153 375.647 43.3655C374.982 43.8405 374.412 44.4107 373.842 44.8857C373.272 45.4558 372.701 46.0259 372.226 46.7861C370.231 49.4466 369.091 52.7722 369.091 56.2878C369.091 59.8034 370.231 63.129 372.226 65.7895C372.701 66.4546 373.272 67.0247 373.842 67.6899C374.412 68.26 374.982 68.8301 375.647 69.2101C376.882 70.1603 378.307 70.9205 379.733 71.3955C382.583 72.4407 385.529 72.5357 388.189 72.1557C390.85 71.6806 393.13 70.5404 395.03 69.1151C396.836 67.6899 398.261 66.0746 399.116 64.5543C400.066 63.034 400.637 61.5137 400.922 60.2785C401.492 57.7131 401.397 56.2878 401.492 56.2878C401.492 56.2878 401.492 56.3828 401.492 56.5729C401.492 56.7629 401.492 57.0479 401.492 57.333C401.492 57.7131 401.492 58.0931 401.397 58.5682C401.302 59.0433 401.302 59.6134 401.112 60.2785C400.827 61.5137 400.256 63.034 399.306 64.6493C398.356 66.2646 397.026 67.9749 395.126 69.4002C393.225 70.8254 390.945 72.0607 388.189 72.5357C385.529 73.0108 382.393 72.9158 379.543 71.8706C378.117 71.3955 376.692 70.6354 375.362 69.5902C374.697 69.1151 374.127 68.545 373.462 67.9749C372.892 67.4048 372.321 66.7397 371.846 66.0746C369.851 63.4141 368.616 59.8985 368.616 56.2878C368.616 52.6771 369.756 49.1615 371.846 46.501C372.321 45.8359 372.892 45.1708 373.462 44.6007C374.032 44.0306 374.697 43.4605 375.362 42.9854C376.692 42.0352 378.117 41.2751 379.543 40.705C382.488 39.5648 385.529 39.5648 388.189 40.0399C390.945 40.5149 393.225 41.7502 395.126 43.1754C397.026 44.6007 398.356 46.311 399.306 47.9263C400.256 49.5416 400.827 51.0619 401.112 52.2971C401.302 52.9622 401.397 53.5323 401.397 54.0074C401.492 54.4825 401.492 54.9576 401.492 55.2426C401.492 55.5277 401.492 55.8127 401.492 56.0027C401.492 56.1928 401.492 56.2878 401.492 56.2878Z" fill="#BF2343"/>
<path d="M398.831 47.4512C398.926 47.5462 393.415 52.297 386.669 57.9981C379.828 63.6991 374.222 68.2599 374.127 68.1649C374.032 68.0699 379.543 63.319 386.289 57.618C393.13 51.917 398.736 47.3561 398.831 47.4512Z" fill="#BF2343"/>
<path d="M400.447 50.4918C400.542 50.5868 395.221 55.1476 388.664 60.6586C382.013 66.1696 376.597 70.5404 376.502 70.4454C376.407 70.3504 381.728 65.7895 388.284 60.2785C394.936 54.7675 400.352 50.3967 400.447 50.4918Z" fill="#BF2343"/>
<path d="M401.207 54.2923C401.302 54.3873 396.646 58.378 390.85 63.2239C385.054 68.0698 380.303 71.8704 380.208 71.7754C380.113 71.6804 384.769 67.6897 390.565 62.8438C396.361 57.9979 401.112 54.1973 401.207 54.2923Z" fill="#BF2343"/>
<path d="M401.492 58.4729C401.587 58.5679 397.881 61.7985 393.225 65.6942C388.569 69.5899 384.673 72.7255 384.578 72.5354C384.483 72.4404 388.189 69.2098 392.845 65.3141C397.501 61.4184 401.397 58.3779 401.492 58.4729Z" fill="#BF2343"/>
<path d="M396.266 44.9805C396.361 45.0755 390.85 49.8263 384.104 55.5274C377.262 61.2284 371.656 65.7892 371.561 65.6942C371.466 65.5992 376.977 60.8483 383.723 55.1473C390.565 49.4463 396.171 44.8854 396.266 44.9805Z" fill="#BF2343"/>
<path d="M393.795 42.5103C393.89 42.6053 388.379 47.3562 381.633 53.0572C374.792 58.7582 369.186 63.319 369.091 63.224C368.996 63.129 374.507 58.3781 381.253 52.6771C388.094 46.8811 393.7 42.4153 393.795 42.5103Z" fill="#BF2343"/>
<path d="M390.28 40.8C390.375 40.8951 385.624 44.9808 379.733 49.9217C373.842 54.8626 368.996 58.7583 368.901 58.6633C368.806 58.5683 373.557 54.4825 379.448 49.5416C385.339 44.6007 390.185 40.705 390.28 40.8Z" fill="#BF2343"/>
<path d="M385.814 39.9446C385.909 40.0396 382.203 43.2702 377.547 47.1659C372.892 51.0616 369.091 54.1021 368.996 54.0071C368.901 53.9121 372.607 50.6815 377.262 46.7858C381.918 42.8901 385.719 39.8495 385.814 39.9446Z" fill="#BF2343"/>
<path d="M367.76 35.004C369.44 35.004 370.801 33.6427 370.801 31.9634C370.801 30.2842 369.44 28.9229 367.76 28.9229C366.081 28.9229 364.72 30.2842 364.72 31.9634C364.72 33.6427 366.081 35.004 367.76 35.004Z" fill="#BF2343"/>
<path d="M283.1 231.879C283.1 233.59 281.77 234.92 280.06 234.92C278.349 234.92 277.019 233.59 277.019 231.879C277.019 230.169 278.349 228.839 280.06 228.839C281.77 228.839 283.1 230.264 283.1 231.879Z" fill="#BF2343"/>
<path d="M139.339 71.1103C138.674 66.2644 134.398 62.2737 129.647 61.8937C128.412 61.7986 127.082 61.8937 125.847 61.5136C124.896 61.1335 124.041 60.4684 123.186 59.9933C120.241 58.378 116.25 59.2332 114.16 61.8937C112.259 64.3641 111.404 60.9435 106.843 63.604C103.042 65.8844 105.038 69.0199 105.038 69.0199C101.142 68.8299 97.3415 71.8705 96.6763 75.7662C96.2013 78.2366 96.7714 81.1821 94.776 82.7974C93.8258 83.5576 92.5906 83.7476 91.6404 84.5077C89.8351 85.838 89.8351 88.4985 90.2152 90.6839C90.5952 92.8693 91.2604 95.2447 90.5002 97.3351C89.17 100.756 84.3241 102.086 83.659 105.697C83.3739 107.407 84.1341 109.497 82.8988 110.732C82.4238 111.208 81.7586 111.493 81.0935 111.778C78.5281 113.013 76.8177 115.768 76.7227 118.524C76.6277 121.374 78.243 124.13 80.7134 125.46C81.3786 125.84 82.2337 126.22 82.5188 126.885C82.8038 127.741 82.2337 128.596 81.8537 129.356C80.4284 132.206 81.0935 136.007 83.4689 138.192C85.8444 140.378 89.6451 140.663 92.4006 139.048C93.8258 141.613 96.3913 143.608 99.2418 144.464C100.572 144.844 101.997 144.939 103.328 144.559C104.373 144.274 105.323 143.608 106.083 142.848C110.074 139.428 115.585 134.107 115.965 128.881" fill="#263238"/>
<path d="M102.947 90.2089C102.947 90.3039 102.282 90.3039 101.142 90.2089C100.002 90.0189 98.4815 89.5438 97.0563 88.5936C95.631 87.6435 94.4908 86.4082 93.9207 85.4581C93.3506 84.5079 93.0656 83.8428 93.1606 83.8428C93.2556 83.8428 93.5407 84.4129 94.2058 85.268C94.8709 86.1232 95.9161 87.2634 97.3413 88.2136C98.7666 89.1637 100.192 89.6388 101.237 89.8289C102.282 90.0189 102.947 90.1139 102.947 90.2089Z" fill="#455A64"/>
<path d="M105.608 78.1413C105.608 78.1413 105.228 78.7114 104.468 79.2815C103.613 79.9466 102.377 80.6118 100.762 80.9918C99.2418 81.3719 97.7215 81.3719 96.6763 81.1819C95.6311 80.9918 95.061 80.8018 95.061 80.7068C95.061 80.5167 97.6265 81.2769 100.572 80.5167C103.613 79.8516 105.513 78.0463 105.608 78.1413Z" fill="#455A64"/>
<path d="M86.1294 137.622C86.1294 137.622 86.0344 137.622 85.9394 137.622C85.8444 137.622 85.6543 137.527 85.4643 137.527C85.0842 137.337 84.5141 137.147 83.849 136.577C83.1839 136.102 82.5188 135.342 81.9487 134.297C81.4736 133.252 81.1885 131.826 81.4736 130.401C81.6636 129.641 81.8537 128.976 82.3287 128.216C82.7088 127.551 83.3739 126.885 84.0391 126.315C84.7042 125.745 85.3693 125.175 85.7494 124.415C86.2245 123.655 86.2245 122.8 85.8444 121.945C85.4643 121.089 84.7992 120.424 84.1341 119.664C83.849 119.284 83.4689 118.904 83.2789 118.429C82.9939 117.954 82.8988 117.384 82.8038 116.909C82.5188 114.723 83.564 112.348 85.7494 111.303C86.7946 110.828 87.9348 110.828 88.9799 110.542C89.455 110.447 89.9301 110.257 90.3102 109.972C90.6903 109.687 90.9753 109.307 91.0703 108.832C91.3554 107.882 91.0703 106.932 90.7853 105.982C90.4052 105.126 89.9301 104.271 89.5501 103.321C89.17 102.371 89.075 101.421 89.36 100.471C89.6451 99.5205 90.3102 98.8554 90.9753 98.2853C92.4006 97.2401 94.0159 96.86 95.3461 96.4799C96.6763 96.0999 97.9116 95.6248 98.7667 94.8646C99.6219 94.1045 100.097 93.2493 100.192 92.4892C100.382 91.7291 100.192 91.0639 100.002 90.6839C99.8119 90.3038 99.6219 90.1138 99.7169 90.1138C99.7169 90.1138 99.9069 90.2088 100.097 90.5889C100.287 90.9689 100.477 91.634 100.382 92.3942C100.287 93.2493 99.8119 94.1995 98.9568 94.9597C98.1016 95.7198 96.7714 96.1949 95.4411 96.67C94.1109 97.05 92.4956 97.5251 91.1653 98.4753C90.5002 98.9504 89.9301 99.6155 89.7401 100.471C89.455 101.326 89.6451 102.181 89.9301 103.036C90.2152 103.891 90.7853 104.746 91.1653 105.697C91.5454 106.647 91.8305 107.692 91.5454 108.832C91.3554 109.402 91.0703 109.877 90.5952 110.257C90.1202 110.637 89.5501 110.828 89.075 110.923C88.0298 111.208 86.8896 111.208 85.9394 111.683C84.0391 112.538 82.9939 114.818 83.2789 116.719C83.3739 117.194 83.4689 117.669 83.754 118.049C83.944 118.429 84.3241 118.904 84.6092 119.284C85.1793 120.044 85.9394 120.804 86.3195 121.659C86.7946 122.61 86.6995 123.75 86.2245 124.51C85.7494 125.365 84.9892 125.935 84.4191 126.505C83.754 127.075 83.1839 127.646 82.8038 128.216C82.4238 128.881 82.1387 129.546 81.9487 130.211C81.6636 131.541 81.8537 132.872 82.3287 133.917C82.8038 134.962 83.469 135.722 84.0391 136.197C85.2743 137.432 86.2244 137.622 86.1294 137.622Z" fill="#455A64"/>
<path d="M184.757 375.45H82.4238V380.866H184.757V375.45Z" fill="#E0E0E0"/>
<path d="M184.757 380.866C184.757 380.866 184.757 380.771 184.757 380.486C184.757 380.201 184.757 379.916 184.757 379.441C184.757 378.491 184.757 377.16 184.757 375.355L184.852 375.45C171.55 375.545 130.787 375.64 82.5187 375.64L82.8038 375.355C82.8038 377.255 82.8038 379.061 82.8038 380.771L82.5187 380.486C111.024 380.486 136.584 380.581 155.017 380.581C164.234 380.581 171.645 380.676 176.871 380.676C179.436 380.676 181.432 380.676 182.762 380.676C183.427 380.676 183.902 380.676 184.282 380.676C184.567 380.866 184.757 380.866 184.757 380.866C184.757 380.866 184.567 380.866 184.282 380.866C183.902 380.866 183.427 380.866 182.762 380.866C181.432 380.866 179.436 380.866 176.871 380.866C171.74 380.866 164.329 380.866 155.112 380.961C136.584 380.961 111.024 381.056 82.4237 381.056H82.1387V380.866C82.1387 379.156 82.1387 377.255 82.1387 375.45V375.165H82.4237C130.692 375.165 171.455 375.26 184.757 375.355H184.852V375.45C184.852 377.255 184.852 378.681 184.852 379.536C184.852 380.011 184.852 380.296 184.852 380.486C184.757 380.771 184.757 380.866 184.757 380.866Z" fill="#263238"/>
<path d="M93.1607 281.289L71.5918 427.235H78.7181L98.2916 283.189V281.289H93.1607Z" fill="#E0E0E0"/>
<path d="M93.1606 281.288C93.1606 281.288 93.5407 281.288 94.3958 281.288C95.251 281.288 96.5812 281.288 98.2915 281.288H98.3865V281.383C98.3865 281.953 98.3865 282.619 98.3865 283.284C96.0111 301.242 88.3147 358.917 79.003 427.33V427.52H78.813C78.4329 427.52 78.0529 427.52 77.6728 427.52C75.5824 427.52 73.492 427.52 71.5917 427.52H71.3066V427.235C77.3877 386.567 82.8037 350.081 86.6994 323.761C88.6948 310.649 90.3101 300.007 91.3553 292.69C91.9254 289.08 92.3054 286.229 92.5905 284.234C92.7805 283.284 92.8756 282.524 92.9706 282.049C93.0656 281.478 93.1606 281.288 93.1606 281.288C93.1606 281.288 93.1606 281.573 93.0656 282.049C92.9706 282.524 92.8755 283.284 92.7805 284.234C92.4955 286.229 92.1154 289.08 91.5453 292.69C90.5001 300.007 88.8848 310.649 86.9845 323.856C83.0888 350.176 77.7678 386.662 71.7817 427.235L71.4967 426.95C73.397 426.95 75.4874 426.95 77.5778 426.95C77.9578 426.95 78.3379 426.95 78.718 426.95L78.4329 427.14C87.7446 358.727 95.6311 301.052 98.1965 283.094C98.1965 282.429 98.1965 281.763 98.1965 281.193L98.2915 281.288C96.5812 281.288 95.251 281.288 94.3958 281.288C93.5407 281.288 93.1606 281.288 93.1606 281.288Z" fill="#263238"/>
<path d="M174.02 281.288L196.064 427.234H188.938L168.889 283.188V281.288H174.02Z" fill="#E0E0E0"/>
<path d="M174.02 281.288C174.02 281.288 173.64 281.288 172.785 281.288C171.93 281.288 170.6 281.288 168.889 281.288L168.984 281.193C168.984 281.763 168.984 282.429 168.984 283.094C171.55 301.052 179.626 358.727 189.128 427.14L188.843 426.95C189.223 426.95 189.603 426.95 189.983 426.95C192.074 426.95 194.164 426.95 196.064 426.95L195.779 427.235C189.698 386.662 184.187 350.176 180.292 323.856C178.296 310.649 176.776 300.007 175.636 292.69C175.066 288.985 174.686 286.134 174.4 284.234C174.305 283.284 174.115 282.524 174.115 282.049C174.02 281.478 174.02 281.288 174.02 281.288C174.02 281.288 174.115 281.573 174.115 282.049C174.21 282.524 174.305 283.284 174.495 284.234C174.781 286.134 175.256 288.985 175.826 292.69C176.966 300.007 178.581 310.649 180.577 323.761C184.567 350.081 190.173 386.662 196.349 427.235V427.52H196.064C194.164 427.52 192.074 427.52 189.983 427.52C189.603 427.52 189.223 427.52 188.843 427.52H188.653V427.33C179.151 358.917 171.17 301.242 168.794 283.284C168.794 282.619 168.794 281.953 168.794 281.383V281.288H168.889C170.6 281.288 171.93 281.288 172.785 281.288C173.64 281.193 174.02 281.288 174.02 281.288Z" fill="#263238"/>
<path d="M134.398 281.288H128.222V427.234H134.398V281.288Z" fill="#E0E0E0"/>
<path d="M134.303 427.235C134.303 427.235 134.303 426.95 134.303 426.475C134.303 425.999 134.303 425.239 134.303 424.289C134.303 422.294 134.303 419.443 134.303 415.833C134.303 408.516 134.303 397.874 134.208 384.667C134.208 358.347 134.113 321.861 134.113 281.288L134.398 281.573C132.498 281.573 130.312 281.573 128.222 281.573L128.507 281.288C128.507 351.221 128.412 410.037 128.317 427.235L128.222 427.14C130.312 427.14 131.833 427.14 132.878 427.14C133.353 427.14 133.733 427.14 134.018 427.14C134.208 427.235 134.303 427.235 134.303 427.235C134.303 427.235 134.208 427.235 133.923 427.235C133.638 427.235 133.258 427.235 132.783 427.235C131.737 427.235 130.217 427.235 128.127 427.235H128.032V427.14C127.937 409.942 127.842 351.031 127.842 281.193V280.908H128.127C130.217 280.908 132.308 280.908 134.303 280.908H134.588V281.193C134.588 321.861 134.493 358.347 134.493 384.762C134.493 397.874 134.398 408.516 134.398 415.833C134.398 419.443 134.398 422.294 134.398 424.289C134.398 425.239 134.398 425.999 134.398 426.475C134.398 426.95 134.303 427.235 134.303 427.235Z" fill="#263238"/>
<path d="M175.255 271.501H90.7852V282.523H175.255V271.501Z" fill="#455A64"/>
<path d="M116.535 271.787C116.535 271.787 115.49 272.927 113.494 274.352C112.449 275.112 111.214 275.872 109.789 276.632C108.363 277.393 106.653 278.153 104.848 278.818C103.042 279.388 101.237 279.863 99.6218 280.148C98.0065 280.433 96.4862 280.528 95.251 280.623C92.7805 280.718 91.2603 280.528 91.2603 280.528C91.2603 280.528 91.3553 280.528 91.5453 280.528C91.8304 280.528 92.0204 280.528 92.3054 280.528C92.9706 280.528 94.0158 280.528 95.251 280.528C96.4862 280.433 97.9115 280.338 99.5268 280.053C101.142 279.768 102.852 279.293 104.658 278.723C106.463 278.058 108.078 277.393 109.504 276.632C110.929 275.872 112.164 275.112 113.209 274.352C114.254 273.592 115.015 273.022 115.49 272.547C115.68 272.357 115.965 272.167 116.06 272.072C116.535 271.882 116.535 271.787 116.535 271.787Z" fill="#263238"/>
<path d="M128.697 279.008C128.697 279.008 128.602 279.008 128.507 278.913C128.412 278.818 128.127 278.723 127.937 278.628C127.367 278.438 126.607 278.153 125.466 277.963C124.421 277.867 122.996 277.772 121.571 278.153C120.051 278.438 118.435 279.198 116.915 280.433V280.338C119.575 281.003 122.806 281.478 126.227 281.383C127.937 281.383 129.742 281.193 131.548 280.813C132.498 280.623 133.448 280.528 134.208 280.053C134.588 279.768 134.968 279.483 135.063 279.008C135.253 278.533 135.158 278.058 134.968 277.677C134.588 276.632 133.543 275.967 132.498 275.682C131.453 275.397 130.312 275.302 129.267 275.207C127.082 275.017 124.991 275.112 123.091 275.302C119.195 275.682 115.68 276.822 112.924 277.963C110.169 279.103 108.078 280.433 106.748 281.383C106.083 281.858 105.513 282.238 105.228 282.523C104.848 282.808 104.658 282.903 104.658 282.903C104.658 282.903 104.848 282.713 105.133 282.428C105.513 282.143 105.988 281.763 106.653 281.288C107.983 280.338 110.074 279.008 112.829 277.772C115.585 276.537 119.005 275.492 122.996 275.017C124.991 274.827 127.082 274.732 129.267 274.922C130.312 275.017 131.453 275.112 132.498 275.397C133.068 275.587 133.543 275.777 134.018 276.157C134.493 276.537 134.873 277.012 135.063 277.582C135.253 278.057 135.253 278.628 135.158 279.103C134.968 279.578 134.588 279.958 134.208 280.243C133.353 280.718 132.403 280.908 131.453 281.003C129.647 281.288 127.842 281.478 126.037 281.573C122.521 281.668 119.385 281.193 116.63 280.528H116.44L116.535 280.433C118.055 279.198 119.765 278.533 121.191 278.153C122.711 277.867 124.041 277.867 125.181 278.057C126.227 278.248 127.082 278.533 127.652 278.723C128.412 278.913 128.697 279.008 128.697 279.008Z" fill="#263238"/>
<path d="M139.624 271.787C139.624 271.787 139.814 271.787 140.194 271.977C140.574 272.072 141.05 272.357 141.525 272.927C142 273.402 142.475 274.162 142.665 275.017C142.855 275.872 142.76 276.918 142.38 277.963C141.62 279.958 139.909 281.193 138.769 281.668C138.104 281.953 137.629 282.143 137.249 282.239C137.059 282.334 136.964 282.334 136.869 282.334C136.774 282.334 136.679 282.334 136.679 282.334C136.679 282.334 136.869 282.239 137.249 282.143C137.629 282.048 138.104 281.858 138.769 281.573C139.909 281.003 141.525 279.863 142.285 277.868C142.665 276.918 142.76 275.872 142.57 275.017C142.38 274.162 142 273.497 141.525 272.927C140.479 271.977 139.624 271.787 139.624 271.787Z" fill="#263238"/>
<path d="M152.831 271.691C152.831 271.691 152.071 271.976 151.026 272.642C149.981 273.307 148.555 274.542 147.51 276.157C146.37 277.772 145.61 279.388 145.135 280.528C144.945 281.003 144.66 281.478 144.47 281.953C144.28 282.238 144.185 282.428 144.185 282.428C144.185 282.428 144.28 282.238 144.375 281.858C144.47 281.478 144.66 281.003 144.945 280.433C145.42 279.293 146.18 277.582 147.32 275.967C148.46 274.352 149.791 273.117 150.931 272.452C151.501 272.166 151.976 271.881 152.356 271.786C152.546 271.691 152.641 271.691 152.736 271.691C152.831 271.691 152.831 271.691 152.831 271.691Z" fill="#263238"/>
<path d="M167.464 278.248C167.464 278.248 167.274 278.153 166.989 278.058C166.704 277.963 166.229 277.773 165.564 277.583C164.328 277.298 162.238 277.108 160.053 278.153C159.767 278.248 159.482 278.438 159.387 278.723C159.197 279.008 159.292 279.293 159.482 279.483C159.957 279.958 160.623 280.053 161.288 280.338C162.618 280.813 164.043 281.098 165.659 281.288C167.179 281.383 168.889 281.383 170.599 281.003C171.455 280.813 172.31 280.623 172.975 280.053C173.64 279.483 173.83 278.533 173.545 277.678C173.26 276.822 172.5 276.252 171.74 275.872C170.979 275.492 170.124 275.302 169.269 275.017C167.559 274.637 165.944 274.542 164.423 274.637C161.288 274.827 158.532 275.872 156.537 277.108C154.542 278.343 153.116 279.768 152.261 280.813C151.881 281.288 151.501 281.763 151.311 282.048C151.121 282.333 151.026 282.524 151.026 282.524C151.026 282.524 151.406 281.858 152.166 280.813C153.021 279.768 154.351 278.343 156.347 277.108C158.342 275.872 161.098 274.732 164.233 274.542C165.849 274.447 167.464 274.542 169.174 274.922C170.029 275.112 170.884 275.302 171.645 275.777C172.405 276.157 173.165 276.822 173.545 277.678C173.735 278.153 173.735 278.628 173.64 279.103C173.545 279.578 173.26 279.958 172.975 280.243C172.31 280.813 171.36 281.098 170.504 281.288C168.794 281.573 167.084 281.668 165.564 281.478C163.948 281.383 162.523 281.003 161.193 280.528C160.813 280.433 160.528 280.243 160.243 280.148C159.957 280.053 159.577 279.863 159.387 279.578C159.102 279.293 159.102 278.913 159.292 278.628C159.482 278.343 159.767 278.153 160.053 278.058C162.238 277.013 164.328 277.203 165.564 277.488C166.799 277.773 167.464 278.248 167.464 278.248Z" fill="#263238"/>
<path d="M112.64 131.921C112.64 131.921 108.079 133.347 105.323 138.288C102.568 143.228 103.328 145.604 103.993 148.454C104.753 151.305 105.988 157.101 106.083 156.721C106.178 156.436 112.64 131.921 112.64 131.921Z" fill="#F1D9CC"/>
<path d="M113.019 131.921L118.815 128.501L145.8 118.429L140.479 163.847L120.526 176.389L108.744 170.498L107.508 157.291L113.019 131.921Z" fill="#F1D9CC"/>
<path d="M112.259 201.094L101.712 214.776L88.5998 211.736L78.1479 217.532L80.9034 222.473L108.743 224.373L118.53 204.134L112.259 201.094Z" fill="#DEB39C"/>
<path d="M80.2388 332.598L90.8807 355.687L108.079 347.8L97.0568 319.2L80.2388 332.598Z" fill="#F1D9CC"/>
<path d="M88.8854 354.167L95.1565 366.044C95.1565 366.044 79.1936 382.482 80.7139 386.188L118.151 368.229L107.794 344.475L88.8854 354.167Z" fill="#BF2343"/>
<path d="M105.893 358.918C106.749 358.728 107.604 359.298 107.794 360.153C107.984 361.008 107.414 361.864 106.559 362.054C105.703 362.244 104.658 361.578 104.563 360.723C104.468 359.868 105.228 358.823 106.084 358.918" fill="#E0E0E0"/>
<g opacity="0.6">
<g opacity="0.6">
<g opacity="0.6">
<g opacity="0.6">
<g opacity="0.6">
<g opacity="0.6">
<g opacity="0.6">
<g opacity="0.6">
<g opacity="0.6">
<g opacity="0.6">
<path opacity="0.6" d="M118.151 368.229L116.63 365.284L81.189 383.622C81.189 383.622 79.8588 385.142 80.6189 386.187L118.151 368.229Z" fill="white"/>
</g>
</g>
</g>
</g>
</g>
</g>
</g>
</g>
</g>
</g>
<path d="M94.3962 366.139C94.4912 366.329 95.4414 365.949 96.5816 366.139C97.7218 366.234 98.5769 366.804 98.767 366.709C98.957 366.614 98.1019 365.664 96.6766 365.474C95.2513 365.284 94.3012 366.044 94.3962 366.139Z" fill="#263238"/>
<path d="M91.2609 369.655C91.2609 369.845 92.2111 369.75 93.2563 370.225C94.3015 370.7 94.7766 371.46 94.9666 371.365C95.1566 371.27 94.7766 370.225 93.5413 369.655C92.3061 369.085 91.1659 369.465 91.2609 369.655Z" fill="#263238"/>
<path d="M91.261 375.451C91.451 375.451 91.261 374.405 90.3108 373.55C89.3606 372.79 88.3154 372.79 88.3154 372.98C88.3154 373.17 89.0756 373.455 89.8357 374.12C90.5958 374.785 91.0709 375.546 91.261 375.451Z" fill="#263238"/>
<path d="M92.5913 361.578C92.7813 361.673 93.4465 361.008 94.4916 360.628C95.5368 360.153 96.487 360.153 96.582 359.963C96.582 359.773 95.5368 359.488 94.3016 359.963C92.9714 360.438 92.4013 361.483 92.5913 361.578Z" fill="#263238"/>
<path d="M91.4511 359.203C91.4511 359.203 91.261 358.918 91.071 358.443C90.881 357.968 90.786 357.112 90.881 356.162C90.881 355.877 90.976 355.687 91.071 355.402C91.166 355.117 91.4511 354.832 91.8311 354.832C92.0212 354.832 92.2112 354.832 92.4013 355.022C92.5913 355.212 92.5913 355.402 92.5913 355.497C92.5913 355.877 92.5913 356.162 92.5913 356.447C92.4963 357.112 92.4963 357.683 92.4013 358.443C92.3062 358.823 92.0212 359.298 91.6411 359.393C91.261 359.488 90.881 359.488 90.5009 359.393C89.7408 359.298 89.0756 359.013 88.4105 358.823C88.1255 358.728 87.7454 358.538 87.4604 358.348C87.1753 358.158 86.8902 358.063 86.6052 357.683C86.4152 357.397 86.3201 356.922 86.6052 356.542C86.8902 356.257 87.2703 356.257 87.5554 356.257C88.1255 356.447 88.6006 356.637 89.0757 356.827C89.9308 357.302 90.5009 357.778 90.881 358.158C91.261 358.538 91.4511 358.823 91.3561 358.823C91.261 358.918 90.5009 357.968 88.8856 357.112C88.5055 356.922 87.9354 356.732 87.4604 356.637C87.1753 356.637 86.9853 356.637 86.8903 356.732C86.7952 356.827 86.7952 357.112 86.9853 357.302C87.1753 357.493 87.3653 357.683 87.6504 357.778C87.9354 357.968 88.2205 358.063 88.5055 358.158C89.0756 358.443 89.7408 358.633 90.5009 358.728C90.786 358.823 91.166 358.823 91.4511 358.728C91.7361 358.633 91.8312 358.443 91.9262 358.158C92.0212 357.588 92.0212 356.827 92.1162 356.257C92.1162 355.972 92.2112 355.592 92.1162 355.402C92.1162 355.117 92.0212 355.022 91.8311 355.022C91.4511 355.022 91.261 355.592 91.166 356.067C91.071 358.063 91.6411 359.203 91.4511 359.203Z" fill="#263238"/>
<path d="M79.9537 340.58L52.7788 273.022C52.7788 273.022 53.4439 261.05 55.6293 257.249C57.8147 253.449 124.802 231.405 124.802 231.405C124.802 231.405 141.81 227.319 153.212 231.405C164.614 235.49 173.071 249.743 171.55 257.629C169.935 265.516 163.284 271.312 163.284 271.312L114.065 272.737L87.2701 282.524L105.323 334.308C105.323 334.213 96.1067 344.38 79.9537 340.58Z" fill="#263238"/>
<path d="M55.9141 295.256L55.249 320.721L74.2525 321.196L76.913 290.6L55.9141 295.256Z" fill="#F1D9CC"/>
<path d="M54.2039 318.44L54.5839 331.838C54.5839 331.838 33.015 339.629 32.73 343.525L74.2525 343.905L75.4877 317.965L54.2039 318.44Z" fill="#BF2343"/>
<path d="M67.4111 330.128C68.1713 330.318 68.7414 331.268 68.5513 332.123C68.3613 332.978 67.4111 333.453 66.651 333.263C65.8908 333.073 65.1307 331.933 65.4158 331.173C65.7008 330.413 66.841 329.748 67.5061 330.223" fill="#E0E0E0"/>
<g opacity="0.6">
<g opacity="0.6">
<g opacity="0.6">
<g opacity="0.6">
<g opacity="0.6">
<g opacity="0.6">
<g opacity="0.6">
<g opacity="0.6">
<g opacity="0.6">
<g opacity="0.6">
<path opacity="0.6" d="M74.1576 344L74.0626 340.674L34.2504 341.529C34.2504 341.529 32.35 342.29 32.6351 343.62L74.1576 344Z" fill="white"/>
</g>
</g>
</g>
</g>
</g>
</g>
</g>
</g>
</g>
</g>
<path d="M53.8237 331.648C53.8237 331.838 54.8689 331.933 55.8191 332.598C56.8643 333.263 57.3394 334.118 57.5294 334.023C57.7194 334.023 57.4344 332.788 56.1992 332.028C55.059 331.173 53.8237 331.458 53.8237 331.648Z" fill="#263238"/>
<path d="M49.4529 333.358C49.3579 333.548 50.3081 333.928 50.9732 334.783C51.6383 335.638 51.8283 336.589 52.0184 336.589C52.2084 336.589 52.3984 335.448 51.4483 334.403C50.6881 333.263 49.4529 333.168 49.4529 333.358Z" fill="#263238"/>
<path d="M46.8877 338.584C47.0778 338.584 47.3628 337.634 46.8877 336.494C46.4126 335.354 45.4625 334.879 45.3674 335.069C45.2724 335.259 45.8425 335.829 46.2226 336.779C46.6977 337.634 46.6977 338.489 46.8877 338.584Z" fill="#263238"/>
<path d="M54.2038 326.707C54.2988 326.897 55.2489 326.612 56.3892 326.707C57.5294 326.802 58.3845 327.182 58.5745 326.992C58.6696 326.802 57.8144 326.042 56.4842 326.042C55.1539 325.947 54.1087 326.517 54.2038 326.707Z" fill="#263238"/>
<path d="M54.299 324.046C54.299 324.046 54.204 323.761 54.299 323.191C54.394 322.621 54.5841 321.861 55.1542 321.101C55.2492 320.911 55.4392 320.721 55.6293 320.531C55.8193 320.341 56.1994 320.151 56.5794 320.341C56.7695 320.436 56.9595 320.531 56.9595 320.721C57.0545 320.911 56.9595 321.101 56.9595 321.291C56.8645 321.671 56.6745 321.861 56.4844 322.146C56.1994 322.716 55.9143 323.191 55.4392 323.856C55.2492 324.141 54.7741 324.426 54.299 324.331C53.919 324.236 53.5389 324.046 53.2538 323.856C52.6837 323.381 52.1136 322.906 51.6385 322.431C51.4485 322.146 51.1635 321.861 50.9734 321.576C50.7834 321.291 50.5934 321.006 50.4983 320.626C50.4033 320.246 50.5934 319.771 50.9734 319.581C51.3535 319.39 51.7336 319.676 52.0186 319.771C52.4937 320.151 52.7788 320.531 53.0638 321.006C53.6339 321.766 53.919 322.526 54.109 323.001C54.299 323.476 54.299 323.761 54.299 323.761C54.204 323.761 53.919 322.621 52.7787 321.196C52.4937 320.816 52.1136 320.436 51.7336 320.151C51.5435 320.056 51.2585 319.961 51.1635 319.961C50.9734 320.056 50.8784 320.246 50.9734 320.436C51.0684 320.626 51.1635 320.911 51.3535 321.196C51.5435 321.481 51.7336 321.671 51.9236 321.956C52.3987 322.431 52.8738 322.906 53.4439 323.286C53.7289 323.476 54.014 323.666 54.299 323.666C54.5841 323.666 54.7741 323.571 54.9641 323.381C55.3442 322.906 55.6293 322.241 55.9143 321.766C56.1044 321.481 56.2944 321.196 56.2944 321.006C56.3894 320.816 56.2944 320.626 56.1994 320.531C55.8193 320.341 55.4392 320.816 55.1542 321.196C54.394 322.906 54.394 324.141 54.299 324.046Z" fill="#263238"/>
<path d="M66.9364 224.658C66.9364 224.658 55.6293 223.708 54.2991 236.061C53.0638 248.413 51.8286 305.803 51.8286 305.803L78.3384 307.989L82.4242 249.268L124.707 231.31C124.802 231.31 74.5377 223.043 66.9364 224.658Z" fill="#263238"/>
<path d="M113.78 208.03C113.78 208.03 106.938 227.319 108.174 229.504C109.504 231.69 127.177 240.526 127.177 240.526L171.455 257.534C171.455 257.534 176.016 250.313 176.016 239.196C176.016 228.079 160.623 208.03 160.623 208.03H113.78Z" fill="#263238"/>
<path d="M126.892 230.359C126.892 230.359 126.797 230.359 126.702 230.455C126.512 230.55 126.322 230.645 126.037 230.74C125.467 231.025 124.612 231.405 123.567 231.785C121.381 232.735 118.246 234.065 114.35 235.775C106.464 239.196 95.3465 243.947 82.5192 249.458L82.7092 249.268C82.3291 255.064 81.8541 261.335 81.379 267.796C80.3338 282.904 79.2886 296.872 78.5284 307.989V308.179H78.3384C70.262 307.513 63.6107 306.848 59.0499 306.468C56.7695 306.278 54.9642 306.088 53.729 305.993C53.1589 305.898 52.6838 305.898 52.3037 305.803C52.0186 305.803 51.8286 305.708 51.8286 305.708C51.8286 305.708 52.0186 305.708 52.3037 305.708C52.6838 305.708 53.0638 305.803 53.729 305.803C54.9642 305.898 56.7695 305.993 59.0499 306.183C63.7058 306.563 70.357 307.038 78.3384 307.703L78.1484 307.894C78.9085 296.872 79.8587 282.904 80.9039 267.701C81.379 261.24 81.759 254.969 82.2341 249.173V248.983L82.3291 248.888C95.1565 243.472 106.273 238.721 114.16 235.395C118.056 233.78 121.191 232.45 123.472 231.5C124.517 231.025 125.372 230.74 125.942 230.455C126.227 230.359 126.417 230.264 126.607 230.169C126.797 230.359 126.892 230.359 126.892 230.359Z" fill="#455A64"/>
<path d="M162.143 232.26C162.143 232.26 161.668 232.165 160.908 231.88C160.053 231.595 158.913 231.215 157.583 230.834C154.732 229.979 150.836 228.649 146.371 227.984C141.905 227.319 137.819 227.509 134.969 228.174C132.118 228.744 130.408 229.599 130.408 229.504C130.408 229.504 130.788 229.219 131.548 228.934C132.308 228.554 133.448 228.174 134.874 227.889C137.724 227.129 142 226.939 146.466 227.604C150.931 228.269 154.922 229.599 157.678 230.549C159.103 231.024 160.243 231.5 161.003 231.785C161.763 232.07 162.143 232.26 162.143 232.26Z" fill="#455A64"/>
<path d="M155.873 222.093C155.873 222.188 154.352 221.903 151.977 222.093C150.742 222.188 149.316 222.378 147.796 222.568C146.181 222.758 144.47 222.948 142.665 223.328C139.054 223.993 136.014 225.228 134.019 226.558C132.023 227.889 131.073 229.029 130.978 229.029C130.978 229.029 131.168 228.649 131.643 228.174C132.118 227.699 132.783 227.034 133.829 226.273C135.824 224.848 138.959 223.518 142.57 222.853C144.375 222.473 146.181 222.283 147.701 222.188C149.316 221.998 150.742 221.903 151.882 221.808C153.117 221.808 154.067 221.808 154.732 221.903C155.492 221.903 155.873 222.093 155.873 222.093Z" fill="#455A64"/>
<path d="M112.639 131.921C112.639 131.921 105.133 156.056 105.323 162.992C105.513 169.928 108.363 189.597 108.078 193.398C107.793 197.293 109.124 207.935 113.779 207.935C118.53 207.935 160.718 207.935 160.718 207.935C160.718 207.935 171.265 204.99 171.74 198.623C172.215 192.257 157.487 130.496 157.487 130.496C157.487 130.496 154.732 119.189 150.836 118.334C146.94 117.479 142.665 118.334 140.004 126.315C137.439 134.297 136.584 145.604 130.978 151.21C125.467 156.721 117.58 162.992 117.58 162.992C117.58 162.992 111.214 157.671 110.929 150.45C110.644 143.228 113.304 131.541 113.304 131.541L112.639 131.921Z" fill="#BF2343"/>
<path d="M162.048 136.197C160.908 134.297 159.008 132.966 156.917 132.206C154.827 131.446 152.641 131.161 150.456 130.971C148.461 130.781 146.465 130.686 144.565 131.161C142.665 131.636 141.905 134.012 141.049 135.817C139.814 143.893 140.194 152.255 142.285 160.141C142.57 161.282 142.95 162.517 143.71 163.467C144.375 164.417 145.42 165.082 146.37 165.747C147.986 166.793 149.791 167.838 151.786 167.933C155.302 168.218 158.533 165.652 160.148 162.517C161.763 159.381 162.143 155.771 162.523 152.255C162.713 150.07 162.903 147.884 163.188 145.699C163.473 142.563 163.759 138.953 162.048 136.197Z" fill="#F1D9CC"/>
<path d="M119.575 208.505C119.575 208.6 118.72 208.315 117.675 207.555C116.63 206.795 115.395 205.37 114.539 203.564C113.684 201.759 113.209 200.049 112.924 198.814C112.639 197.578 112.544 196.723 112.639 196.723C112.734 196.723 112.924 197.483 113.304 198.719C113.684 199.954 114.159 201.664 115.015 203.374C115.87 205.085 117.01 206.51 117.96 207.27C118.91 208.125 119.67 208.505 119.575 208.505Z" fill="#263238"/>
<path d="M144.47 178.575C144.47 178.575 144.185 178.86 143.71 179.24C143.14 179.62 142.379 180.19 141.239 180.665C140.194 181.14 138.769 181.616 137.249 181.901C135.728 182.091 133.923 182.091 132.118 181.711C128.507 180.855 125.846 178.765 124.136 177.055C123.281 176.2 122.711 175.439 122.331 174.964C121.951 174.394 121.761 174.109 121.761 174.109C121.856 174.014 122.711 175.249 124.421 176.865C126.132 178.48 128.792 180.475 132.213 181.235C135.633 182.091 138.959 181.33 141.049 180.38C143.235 179.43 144.375 178.48 144.47 178.575Z" fill="#263238"/>
<path d="M119.006 207.65C118.911 207.745 118.246 206.985 118.056 205.845C117.866 204.704 118.151 203.754 118.246 203.849C118.341 203.849 118.341 204.8 118.531 205.75C118.721 206.795 119.196 207.65 119.006 207.65Z" fill="#263238"/>
<path d="M138.484 136.007C138.484 136.102 138.009 136.007 137.344 136.577C137.059 136.862 136.774 137.338 136.584 137.908C136.489 138.478 136.489 139.238 137.059 139.808L137.249 139.998L137.059 140.093C136.014 140.378 134.969 141.233 134.398 142.468C133.828 143.704 133.638 145.414 134.493 146.744L134.778 147.219L134.208 147.124C133.068 146.839 131.738 147.219 130.978 148.265C130.218 149.215 130.123 150.83 130.788 151.875L130.313 152.065C130.028 151.305 128.982 151.02 128.127 151.21C127.177 151.4 126.607 152.255 126.322 153.11C126.037 153.966 125.942 155.011 125.942 155.961L125.847 157.291L125.467 155.961C125.277 155.296 124.422 154.916 123.661 155.011C122.901 155.106 122.331 155.676 122.046 156.341C121.381 157.671 121.761 159.192 122.046 160.427H121.666C121.666 159.762 121.286 159.192 120.906 158.811C120.431 158.431 119.861 158.241 119.291 158.241C118.15 158.241 117.485 159.192 117.39 159.952C117.2 160.712 117.39 161.377 117.58 161.757C117.77 162.137 117.96 162.232 117.96 162.327C117.96 162.327 117.77 162.232 117.485 161.852C117.2 161.472 117.01 160.807 117.105 159.952C117.2 159.572 117.39 159.097 117.675 158.716C118.055 158.336 118.531 158.051 119.196 157.956C119.861 157.956 120.431 158.146 121.001 158.621C121.571 159.097 121.951 159.762 121.951 160.522V162.042L121.571 160.522C121.381 159.857 121.286 159.192 121.191 158.431C121.096 157.671 121.191 156.911 121.571 156.151C121.951 155.391 122.521 154.726 123.471 154.536C124.327 154.346 125.467 154.821 125.752 155.771L125.277 155.866C125.277 154.916 125.372 153.871 125.657 152.92C125.847 152.445 126.037 151.97 126.417 151.495C126.797 151.02 127.272 150.735 127.842 150.64C128.412 150.545 128.887 150.545 129.458 150.735C130.028 150.925 130.408 151.305 130.598 151.875L131.263 153.776L130.123 152.065C129.267 150.735 129.362 149.025 130.313 147.884C131.263 146.744 132.783 146.269 134.018 146.649L133.733 146.934C132.783 145.414 133.068 143.514 133.638 142.278C134.303 140.948 135.444 140.093 136.584 139.808L136.489 140.093C135.919 139.428 135.919 138.573 136.014 138.003C136.204 137.338 136.489 136.862 136.869 136.577C137.249 136.292 137.534 136.197 137.819 136.102C138.389 136.007 138.484 136.007 138.484 136.007Z" fill="#BF2343"/>
<path d="M112.924 132.111C112.924 132.111 113.019 132.206 113.019 132.301C113.114 132.396 113.209 132.681 113.209 132.966C113.209 133.252 113.209 133.632 113.019 134.012C112.829 134.392 112.449 134.772 111.974 134.962V134.772C112.734 135.342 113.305 136.387 113.305 137.622C113.305 138.858 112.829 140.378 111.404 141.138V140.758C112.544 141.613 113.019 143.228 112.734 144.749C112.449 146.269 111.404 147.599 110.454 148.834L110.074 148.549C110.834 147.599 112.259 147.789 112.924 148.739C113.495 149.594 113.4 150.64 113.019 151.495C112.639 152.35 111.974 152.92 111.404 153.49L111.119 153.11C112.639 152.635 114.35 153.585 114.635 155.105C114.92 156.531 113.97 157.956 112.734 158.241L112.164 158.431L112.449 157.956C112.924 157.291 113.78 157.101 114.35 157.196C115.015 157.291 115.585 157.576 116.06 157.956C116.915 158.811 117.01 159.856 117.105 160.712C117.105 161.472 117.01 162.137 116.915 162.517C116.82 162.897 116.82 163.182 116.725 163.182C116.63 163.182 116.82 162.327 116.82 160.712C116.725 159.951 116.63 158.906 115.775 158.241C115.395 157.861 114.825 157.671 114.255 157.576C113.685 157.481 113.019 157.671 112.639 158.146L112.449 157.861C113.495 157.576 114.255 156.341 113.97 155.201C113.78 154.06 112.259 153.205 111.024 153.585L109.884 153.965L110.739 153.205C111.309 152.635 111.879 152.065 112.259 151.305C112.639 150.64 112.639 149.69 112.164 149.024C111.689 148.359 110.549 148.264 110.074 148.834L109.694 148.549C110.739 147.314 111.594 146.079 111.974 144.654C112.259 143.323 111.879 141.803 110.929 141.138L110.644 140.948L110.929 140.758C112.164 140.093 112.639 138.763 112.639 137.622C112.639 136.482 112.164 135.532 111.499 134.962L111.594 134.772L111.784 134.677C112.259 134.582 112.544 134.202 112.734 133.822C112.924 133.442 113.019 133.157 113.019 132.871C113.019 132.396 112.829 132.111 112.924 132.111Z" fill="#BF2343"/>
<g opacity="0.3">
<g opacity="0.3">
<g opacity="0.3">
<g opacity="0.3">
<g opacity="0.3">
<path opacity="0.3" d="M122.521 175.154C122.901 178.67 124.611 182.09 127.367 184.371C130.122 186.651 134.018 187.506 137.439 186.556C140.859 185.606 143.71 182.661 144.28 179.145C141.905 180.285 139.434 181.33 136.774 181.71C131.168 182.566 125.182 179.715 122.331 174.869C122.426 174.964 122.616 175.154 122.711 175.249" fill="black"/>
</g>
</g>
</g>
</g>
</g>
<g opacity="0.3">
<g opacity="0.3">
<g opacity="0.3">
<g opacity="0.3">
<g opacity="0.3">
<path opacity="0.3" d="M112.734 197.483C112.069 200.999 113.304 204.895 116.06 207.27C116.63 207.745 117.39 208.22 118.15 208.03C115.49 204.99 113.684 201.284 112.734 197.293" fill="black"/>
</g>
</g>
</g>
</g>
</g>
<path d="M149.411 128.216C149.411 128.216 138.769 129.831 141.334 144.939C143.9 160.046 162.333 185.606 162.333 185.606L122.236 210.026L126.892 220.857L178.961 199.384C178.961 199.384 184.092 194.063 182.287 188.172C180.481 182.28 167.084 145.224 167.084 145.224C167.084 145.224 162.143 125.65 149.411 128.216Z" fill="#F1D9CC"/>
<path d="M87.2698 219.337L101.617 210.31L120.621 211.166L122.236 210.025L126.892 220.857C126.892 220.857 121.761 223.328 119.101 223.518L102.473 222.283L84.7993 220.952L87.2698 219.337Z" fill="#F1D9CC"/>
<path d="M162.239 185.891C162.239 185.891 161.858 185.511 161.288 184.656C160.718 183.896 159.863 182.661 158.913 181.14C156.918 178.195 154.352 174.014 151.692 169.358C149.031 164.607 146.751 160.332 145.23 157.101C144.47 155.486 143.9 154.25 143.425 153.3C143.045 152.35 142.855 151.875 142.855 151.875C142.855 151.875 143.14 152.35 143.615 153.205C144.09 154.155 144.755 155.391 145.515 156.911C147.131 160.046 149.411 164.417 152.072 169.073C154.732 173.729 157.298 177.91 159.103 180.95C160.053 182.376 160.718 183.611 161.288 184.466C162.048 185.416 162.334 185.891 162.239 185.891Z" fill="#C7C3C1"/>
<path d="M172.12 189.312C172.025 189.407 170.125 187.886 167.274 186.841C164.519 185.796 161.953 185.796 162.048 185.606C162.048 185.511 164.614 185.321 167.464 186.366C170.41 187.411 172.215 189.217 172.12 189.312Z" fill="#C7C3C1"/>
<path d="M29.4043 174.014C29.7844 175.154 44.132 223.518 44.132 223.518L126.797 229.409L129.837 224.278L83.6591 220.763L70.7368 171.069C70.1667 168.978 68.1713 167.648 66.0809 168.028L29.4043 174.014Z" fill="#455A64"/>
<path d="M55.534 194.348C56.1991 195.773 55.914 197.388 54.8689 197.863C53.8237 198.339 52.3984 197.578 51.7333 196.153C51.0682 194.728 51.3532 193.113 52.3984 192.637C53.4436 192.162 54.8689 192.923 55.534 194.348Z" fill="#FAFAFA"/>
<path d="M128.317 227.034C128.317 227.034 128.222 227.034 128.032 227.034C127.842 227.034 127.652 227.034 127.367 227.034C126.702 227.034 125.847 226.939 124.707 226.844C122.331 226.654 118.911 226.464 114.73 226.178C106.178 225.608 94.3961 224.753 81.1887 223.803H80.9986V223.613C80.5236 222.093 80.0485 220.382 79.5734 218.767C75.5827 204.895 72.067 192.257 69.4065 183.136C68.1713 178.575 67.1261 174.869 66.366 172.304C65.9859 171.068 65.7959 170.023 65.6058 169.358C65.5108 169.073 65.4158 168.788 65.4158 168.598C65.4158 168.408 65.3208 168.313 65.3208 168.313C65.3208 168.313 65.3208 168.408 65.4158 168.598C65.5108 168.788 65.6058 169.073 65.7009 169.358C65.8909 170.023 66.176 171.068 66.556 172.304C67.3162 174.869 68.3614 178.575 69.6916 183.041C72.3521 192.162 75.9627 204.8 79.9534 218.672C80.4285 220.382 80.9036 221.998 81.3787 223.518L81.1887 223.328C94.3961 224.373 106.178 225.228 114.73 225.893C118.911 226.273 122.331 226.559 124.707 226.749C125.847 226.844 126.797 226.939 127.367 227.034C127.652 227.034 127.842 227.129 128.032 227.129C128.222 227.034 128.317 227.034 128.317 227.034Z" fill="#263238"/>
<path d="M140.004 79.0916L139.909 75.3859L117.39 72.0603C110.454 71.5852 103.327 78.8065 103.137 85.7428C102.947 93.4392 103.042 102.846 104.182 108.547C106.463 119.949 115.394 121.089 115.394 121.089L115.87 132.491L141.334 131.731L140.004 79.0916Z" fill="#F1D9CC"/>
<path d="M107.888 93.8193C107.888 94.5794 108.553 95.2446 109.408 95.2446C110.264 95.2446 110.834 94.6745 110.834 93.8193C110.834 93.0592 110.169 92.394 109.313 92.394C108.553 92.394 107.888 93.0592 107.888 93.8193Z" fill="#263238"/>
<path d="M105.798 90.494C105.988 90.684 107.033 89.8289 108.648 89.7339C110.263 89.6389 111.404 90.399 111.594 90.209C111.689 90.1139 111.499 89.7339 110.929 89.4488C110.453 89.0687 109.503 88.7837 108.553 88.7837C107.603 88.7837 106.748 89.2588 106.273 89.6388C105.893 90.1139 105.703 90.494 105.798 90.494Z" fill="#263238"/>
<path d="M122.806 93.4394C122.806 94.1996 123.471 94.8647 124.326 94.8647C125.182 94.8647 125.752 94.2946 125.752 93.4394C125.752 92.6793 125.087 92.0142 124.231 92.0142C123.471 92.1092 122.806 92.6793 122.806 93.4394Z" fill="#263238"/>
<path d="M121.475 90.2088C121.666 90.3989 122.711 89.5437 124.326 89.4487C125.941 89.3537 127.082 90.1138 127.272 89.9238C127.367 89.8288 127.177 89.4487 126.606 89.1637C126.131 88.7836 125.181 88.4985 124.231 88.4985C123.281 88.4985 122.426 88.9736 121.951 89.3537C121.475 89.7338 121.38 90.1138 121.475 90.2088Z" fill="#263238"/>
<path d="M116.155 102.181C116.155 102.086 115.204 101.991 113.589 101.801C113.209 101.801 112.829 101.706 112.734 101.421C112.639 101.136 112.734 100.661 112.924 100.186C113.304 99.2357 113.589 98.1905 113.969 97.0503C115.489 92.5845 116.535 88.8788 116.345 88.8788C116.155 88.7838 114.824 92.3944 113.304 96.8602C112.924 98.0004 112.639 99.0456 112.259 99.9958C112.164 100.471 111.879 101.041 112.069 101.611C112.164 101.896 112.544 102.086 112.734 102.181C113.019 102.276 113.209 102.276 113.399 102.276C115.109 102.371 116.155 102.276 116.155 102.181Z" fill="#263238"/>
<path d="M115.395 121.089C115.395 121.089 123.566 121.279 131.072 116.338C131.072 116.338 127.557 124.605 115.585 124.035L115.395 121.089Z" fill="#DEB39C"/>
<path d="M117.01 105.982C117.58 105.222 118.53 104.747 119.575 104.842C120.241 104.842 121.001 105.222 121.381 105.697C121.856 106.267 121.951 107.027 121.571 107.597C121.191 108.262 120.241 108.357 119.48 108.167C118.72 107.977 118.055 107.502 117.39 107.027C117.2 106.932 117.01 106.742 116.915 106.552C116.82 106.457 116.82 106.267 117.01 105.982Z" fill="#DEB39C"/>
<path d="M120.905 103.131C120.62 103.131 120.715 104.842 119.29 106.172C117.865 107.502 116.06 107.312 116.06 107.597C116.06 107.692 116.44 107.882 117.295 107.882C118.055 107.882 119.195 107.597 120.05 106.837C120.905 106.077 121.286 105.032 121.286 104.367C121.191 103.511 121 103.131 120.905 103.131Z" fill="#263238"/>
<path d="M120.811 84.033C121.001 84.413 122.521 84.223 124.421 84.318C126.322 84.413 127.842 84.8881 128.032 84.508C128.127 84.318 127.842 83.9379 127.272 83.5579C126.607 83.1778 125.657 82.7977 124.516 82.7027C123.376 82.6077 122.331 82.8928 121.666 83.1778C121.001 83.4629 120.716 83.7479 120.811 84.033Z" fill="#263238"/>
<path d="M106.178 85.933C106.463 86.3131 107.508 85.838 108.839 85.838C110.169 85.743 111.309 86.0281 111.499 85.553C111.594 85.3629 111.404 84.9829 110.929 84.6978C110.454 84.4128 109.599 84.1277 108.744 84.2227C107.793 84.3178 107.033 84.6028 106.653 85.0779C106.178 85.3629 106.083 85.743 106.178 85.933Z" fill="#263238"/>
<path d="M100.192 71.7757C101.997 75.7664 106.178 81.8475 110.644 82.2276C115.015 82.7027 119.67 80.6123 122.236 77.0016C122.996 80.2322 126.702 81.9425 129.932 82.4176C132.308 82.7027 134.778 82.7027 136.964 81.7525C139.149 80.8023 140.954 78.902 141.239 76.5265C141.524 74.1511 138.104 68.5451 135.728 68.165" fill="#263238"/>
<path d="M136.109 130.686C136.299 134.392 139.149 137.812 142.76 138.763C142.665 141.803 144.945 144.749 147.891 145.319C150.836 145.889 154.162 144.084 155.207 141.233C155.492 140.473 155.682 139.713 156.157 139.048C157.297 137.622 159.483 137.907 161.193 137.337C164.329 136.292 165.659 132.491 165.279 129.261C165.184 128.596 165.089 127.931 165.184 127.361C165.374 126.03 166.419 125.08 167.179 123.94C170.315 119.474 168.985 113.013 165.564 108.832C164.424 107.407 162.903 105.982 163.093 104.176C163.188 103.131 163.664 102.276 164.044 101.326C165.279 98.2853 164.329 94.4846 161.858 92.3942C161.478 92.1091 161.003 91.7291 160.908 91.254C160.813 90.9689 160.908 90.5889 160.908 90.3038C161.478 85.4579 157.582 80.6121 152.737 80.0419C152.452 80.0419 152.166 79.9469 151.881 79.8519C151.121 79.4718 151.121 78.4267 151.026 77.5715C150.741 75.3861 149.031 71.3004 147.416 69.8751C142.76 65.8844 138.294 69.115 136.679 70.6352C136.679 70.6352 133.543 86.4081 134.113 89.3536C134.683 92.2992 136.869 99.6155 136.014 102.941C135.158 106.267 133.733 113.108 135.063 116.053C136.394 118.999 136.109 130.686 136.109 130.686Z" fill="#263238"/>
<path d="M153.496 79.9469C153.496 79.9469 153.306 80.137 152.926 80.422C152.546 80.7071 151.881 81.0871 151.121 81.5622C149.506 82.4174 147.13 83.3675 144.375 83.7476C141.619 84.2227 139.054 84.0327 137.248 83.7476C136.393 83.5576 135.633 83.4626 135.158 83.2725C134.683 83.0825 134.398 82.9875 134.398 82.9875C134.398 82.8925 135.538 83.1775 137.248 83.3675C139.054 83.5576 141.524 83.6526 144.185 83.1775C146.845 82.7024 149.221 81.8473 150.836 81.0871C152.546 80.422 153.496 79.8519 153.496 79.9469Z" fill="#455A64"/>
<path d="M155.017 80.9922C155.017 80.9922 154.922 81.3723 154.637 81.9424C154.542 82.2274 154.352 82.6075 154.162 82.9875C153.972 83.3676 153.687 83.8427 153.402 84.3178C152.832 85.268 151.976 86.4082 150.931 87.4534C149.886 88.4985 148.556 89.6388 147.131 90.5889C145.61 91.5391 144.185 92.2992 142.76 92.8693C141.335 93.3444 140.004 93.7245 138.864 93.9145C138.294 94.0095 137.819 94.0095 137.344 94.1046C136.869 94.1996 136.489 94.1996 136.204 94.1046C135.538 94.1046 135.253 94.1046 135.253 94.0096C135.253 93.9145 136.679 93.9145 138.864 93.5345C140.004 93.3444 141.24 92.9643 142.665 92.3942C144.09 91.8241 145.515 91.064 146.941 90.2089C148.366 89.2587 149.601 88.2135 150.646 87.1683C151.691 86.1231 152.547 85.0779 153.212 84.1278C154.447 82.3224 154.922 80.9922 155.017 80.9922Z" fill="#455A64"/>
<path d="M146.75 139.618C146.75 139.618 146.941 139.618 147.321 139.523C147.701 139.428 148.176 139.238 148.651 138.763C149.126 138.287 149.506 137.527 149.506 136.482C149.506 135.532 149.221 134.392 148.936 133.252C148.651 132.016 148.176 130.591 148.651 129.071C149.126 127.551 150.361 126.41 151.406 125.175C151.976 124.51 152.451 123.94 152.737 123.18C153.022 122.42 153.022 121.564 152.642 120.804C152.261 120.044 151.596 119.474 150.836 118.904C150.076 118.334 149.316 117.859 148.461 117.289C147.701 116.719 146.94 115.958 146.56 115.008C146.18 114.058 146.37 113.013 146.845 112.158C147.701 110.542 149.126 109.307 149.411 107.787C149.791 106.267 149.031 104.746 148.271 103.511C147.416 102.371 146.465 101.421 145.515 100.566C144.565 99.7105 143.805 98.8553 143.235 98.0952C142.665 97.24 142.19 96.4799 142 95.8148C141.81 95.1497 141.81 94.5796 141.81 94.1995C141.81 93.8194 141.905 93.6294 141.905 93.6294C142 93.6294 141.715 94.3895 142.19 95.7198C142.57 97.05 143.9 98.6653 145.8 100.281C146.75 101.136 147.796 102.086 148.651 103.226C149.126 103.796 149.506 104.556 149.791 105.317C150.076 106.077 150.171 106.932 149.981 107.787C149.601 109.592 148.176 110.828 147.321 112.348C146.941 113.108 146.75 113.963 147.036 114.818C147.321 115.673 147.986 116.243 148.746 116.814C149.506 117.384 150.361 117.859 151.121 118.429C151.881 118.999 152.642 119.664 153.022 120.519C153.402 121.374 153.497 122.42 153.117 123.275C152.737 124.13 152.166 124.795 151.691 125.46C150.551 126.695 149.411 127.836 148.936 129.166C148.461 130.496 148.841 131.921 149.126 133.062C149.411 134.297 149.696 135.437 149.696 136.482C149.696 137.527 149.221 138.383 148.651 138.858C148.176 139.333 147.606 139.618 147.226 139.618C146.94 139.713 146.75 139.618 146.75 139.618Z" fill="#455A64"/>
<path d="M424.581 427.235C424.581 427.33 335.93 427.52 226.565 427.52C117.2 427.52 28.5488 427.425 28.5488 427.235C28.5488 427.045 117.2 426.95 226.565 426.95C335.93 426.95 424.581 427.045 424.581 427.235Z" fill="#263238"/>
<circle r="18" transform="matrix(1 0 0 -1 417 267.212)" fill="#CD2840"/>
<circle r="18" transform="matrix(1 0 0 -1 417 267.212)" fill="url(#paint0_linear)"/>
<circle cx="22.4082" cy="129.603" r="18" fill="#CD2840"/>
<circle cx="22.4082" cy="129.603" r="18" fill="url(#paint1_linear)"/>
<defs>
<linearGradient id="paint0_linear" x1="4.02556" y1="-6.46309" x2="49.3864" y2="18.6363" gradientUnits="userSpaceOnUse">
<stop stop-color="#CC283C"/>
<stop offset="1" stop-color="#CC284F"/>
</linearGradient>
<linearGradient id="paint1_linear" x1="8.43376" y1="105.14" x2="53.7946" y2="130.239" gradientUnits="userSpaceOnUse">
<stop stop-color="#CC283C"/>
<stop offset="1" stop-color="#CC284F"/>
</linearGradient>
</defs>
</svg>
