<svg width="34" height="34" viewBox="0 0 34 34" fill="none" xmlns="http://www.w3.org/2000/svg">
<path d="M31.9997 16.8142C31.9997 25.2782 25.1303 32.1475 16.6663 32.1475C8.20234 32.1475 1.33301 25.2782 1.33301 16.8142C1.33301 8.35017 8.20234 1.48083 16.6663 1.48083C25.1303 1.48083 31.9997 8.35017 31.9997 16.8142Z" stroke="white" stroke-width="2.116" stroke-linecap="round" stroke-linejoin="round"/>
<path d="M17.4148 15.4082V22.5106C17.4393 22.7928 17.3228 22.989 17.0652 23.0994C16.8076 23.2221 16.55 23.2221 16.2924 23.0994C16.0348 22.989 15.9183 22.7928 15.9428 22.5106V15.4082C15.9183 15.1261 16.0348 14.9298 16.2924 14.8194C16.55 14.6968 16.8076 14.6968 17.0652 14.8194C17.3228 14.9298 17.4393 15.1261 17.4148 15.4082ZM15.7588 11.6914C15.7588 11.4338 15.8508 11.2253 16.0348 11.0658C16.2188 10.8941 16.4457 10.8082 16.7156 10.8082C16.9732 10.8082 17.1879 10.8941 17.3596 11.0658C17.5313 11.2253 17.6172 11.4338 17.6172 11.6914C17.6172 11.9736 17.5313 12.2066 17.3596 12.3906C17.1879 12.5624 16.9732 12.6482 16.7156 12.6482C16.4457 12.6482 16.2188 12.5624 16.0348 12.3906C15.8508 12.2066 15.7588 11.9736 15.7588 11.6914Z" fill="white" stroke="white" stroke-width="0.92"/>
</svg>
