<svg width="67" height="67" viewBox="0 0 67 67" fill="none" xmlns="http://www.w3.org/2000/svg">
<rect x="1" y="1" width="65" height="65" rx="19.5" stroke="#C5C5CD" stroke-width="1.3"/>
<g clip-path="url(#clip0_80:72505)">
<path d="M22.2089 44.8819C21.0938 43.6974 21.1278 41.7624 22.2807 40.5667L33.5684 29.6488C32.9024 27.3445 33.5563 24.841 35.2987 23.1557C37.1233 21.3908 39.8313 20.8461 42.1974 21.7685L43.2678 22.1856L40.6884 24.601L41.1377 26.529L43.0317 27.1039L45.6246 24.6489L45.9935 25.7268C46.3885 26.8811 46.4518 28.1209 46.1766 29.3121C45.8938 30.536 45.2653 31.6462 44.3589 32.523C43.0932 33.7473 41.4154 34.383 39.7176 34.3546C39.0782 34.344 38.4358 34.2391 37.8118 34.036L26.5241 44.9538C25.9194 45.5388 25.1337 45.783 24.3523 45.77C23.571 45.757 22.7856 45.4946 22.2089 44.8819ZM37.471 32.3521L37.9084 32.531C39.7703 33.2924 41.9072 32.8809 43.3528 31.4828C44.4688 30.4033 45.0135 28.873 44.8738 27.3617L43.4111 28.7315L39.918 27.6712L39.0892 24.1157L40.4802 22.8133C38.9725 22.6204 37.4247 23.1128 36.3048 24.196C34.8593 25.5942 34.3769 27.7163 35.0758 29.6025L35.24 30.0455L23.2869 41.6069C22.651 42.222 22.634 43.2398 23.2491 43.8757C23.8643 44.5116 24.882 44.5286 25.518 43.9135L37.471 32.3521Z" fill="#C5C5CD"/>
</g>
<defs>
<clipPath id="clip0_80:72505">
<rect width="24.7" height="24.7" fill="white" transform="translate(21.7559 21.0225) rotate(0.954281)"/>
</clipPath>
</defs>
</svg>
