<svg width="39" height="40" viewBox="0 0 39 40" fill="none" xmlns="http://www.w3.org/2000/svg">
<g clip-path="url(#clip0)">
<path d="M1.63053 37.5103C-0.0848958 35.688 -0.0326369 32.711 1.74111 30.8714L19.1067 14.0748C18.0821 10.5297 19.0881 6.67804 21.7687 4.08535C24.5759 1.37007 28.7419 0.532093 32.3822 1.95111L34.0289 2.59293L30.0605 6.30884L30.7518 9.27502L33.6656 10.1594L37.6547 6.38256L38.2223 8.04092C38.8299 9.81672 38.9273 11.7241 38.5039 13.5568C38.069 15.4396 37.102 17.1477 35.7075 18.4966C33.7602 20.3801 31.179 21.3581 28.567 21.3145C27.5833 21.2981 26.595 21.1367 25.635 20.8243L8.26939 37.6209C7.33901 38.5209 6.13025 38.8965 4.92816 38.8765C3.72607 38.8565 2.51774 38.4528 1.63053 37.5103ZM25.1108 18.2337L25.7836 18.5088C28.6481 19.6802 31.9357 19.0472 34.1597 16.8962C35.8766 15.2354 36.7145 12.8812 36.4997 10.556L34.2494 12.6635L28.8754 11.0322L27.6003 5.56232L29.7402 3.55861C27.4208 3.26174 25.0395 4.01936 23.3166 5.68582C21.0927 7.83688 20.3506 11.1017 21.4258 14.0035L21.6784 14.6851L3.28906 32.4718C2.31071 33.4181 2.28462 34.984 3.23092 35.9623C4.1773 36.9406 5.74301 36.9667 6.72144 36.0205L25.1108 18.2337Z" fill="#C5C5CD"/>
</g>
<defs>
<clipPath id="clip0">
<rect width="38" height="38" fill="white" transform="translate(0.933594 0.803955) rotate(0.954281)"/>
</clipPath>
</defs>
</svg>
