<svg width="565" height="409" viewBox="0 0 565 409" fill="none" xmlns="http://www.w3.org/2000/svg">
<g clip-path="url(#clip0_786:10795)">
<path opacity="0.7" d="M78.7255 390.721C78.7255 397.316 177.152 402.662 298.572 402.662C419.992 402.662 518.418 397.316 518.418 390.721C518.418 384.125 419.992 378.707 298.572 378.707C177.152 378.707 78.7255 384.125 78.7255 390.721Z" fill="#AA2338"/>
<path d="M431.448 344.83V351.98H377.912V344.83H431.448Z" fill="#FFEEF2"/>
<path d="M493.975 311.99C493.975 311.99 562.684 271.327 559.021 166.965C555.358 62.6028 463.231 -0.738527 395.352 0.662436C327.474 2.0634 307.811 31.2802 251.84 35.8225C195.869 40.3649 97.3447 -0.17612 37.1524 49.9644C-23.0399 100.105 24.8125 223.376 96.3403 312.042C167.868 400.708 383.073 416.139 493.975 311.99Z" fill="#CD2942"/>
<path opacity="0.08" d="M493.975 311.99C493.975 311.99 562.684 271.327 559.021 166.965C555.358 62.6028 463.231 -0.738527 395.352 0.662436C327.474 2.0634 307.811 31.2802 251.84 35.8225C195.869 40.3649 97.3447 -0.17612 37.1524 49.9644C-23.0399 100.105 24.8125 223.376 96.3403 312.042C167.868 400.708 383.073 416.139 493.975 311.99Z" fill="#2F3646"/>
<path d="M424.15 345.115C423.969 345.115 423.817 346.618 423.817 348.472C423.817 350.326 423.969 351.819 424.15 351.819C424.331 351.819 424.492 350.317 424.492 348.472C424.492 346.627 424.34 345.115 424.15 345.115Z" fill="#FAFAFA"/>
<path d="M425.315 344.973C425.124 344.973 424.982 346.475 424.982 348.32C424.982 350.165 425.124 351.677 425.315 351.677C425.505 351.677 425.647 350.174 425.647 348.32C425.647 346.466 425.505 344.973 425.315 344.973Z" fill="#FAFAFA"/>
<path d="M382.049 345.115C381.859 345.115 381.707 346.618 381.707 348.472C381.707 350.326 381.859 351.819 382.049 351.819C382.239 351.819 382.382 350.317 382.382 348.472C382.382 346.627 382.23 345.115 382.049 345.115Z" fill="#FAFAFA"/>
<path d="M383.213 344.973C383.032 344.973 382.88 346.475 382.88 348.32C382.88 350.165 383.032 351.677 383.213 351.677C383.394 351.677 383.555 350.174 383.555 348.32C383.555 346.466 383.403 344.973 383.213 344.973Z" fill="#FAFAFA"/>
<path d="M390.209 348.615C390.209 348.805 396.342 348.947 403.902 348.947C411.462 348.947 417.595 348.805 417.595 348.615C417.595 348.424 411.462 348.282 403.902 348.282C396.342 348.282 390.209 348.424 390.209 348.615Z" fill="#FAFAFA"/>
<path d="M431.673 377.028V391.329H378.137V377.028H431.673Z" fill="#DF889A"/>
<path d="M377.458 387.307C377.458 387.307 377.544 387.373 377.743 387.468C377.943 387.563 378.238 387.706 378.637 387.877C379.801 388.371 381.021 388.719 382.27 388.914C384.271 389.276 386.335 388.983 388.156 388.077C389.282 387.477 390.242 386.608 390.952 385.547C391.766 384.339 392.104 382.873 391.902 381.43C391.785 380.647 391.457 379.91 390.952 379.3C390.681 378.966 390.337 378.7 389.946 378.521C389.554 378.343 389.127 378.258 388.698 378.273C388.256 378.309 387.826 378.436 387.435 378.645C387.044 378.855 386.7 379.142 386.425 379.49C385.84 380.181 385.478 381.033 385.389 381.934C385.316 382.862 385.443 383.794 385.761 384.668C386.079 385.543 386.581 386.339 387.233 387.002C388.588 388.435 390.415 389.33 392.378 389.522C394.399 389.716 396.438 389.463 398.35 388.781C400.393 388.141 402.207 386.922 403.57 385.272C404.273 384.385 404.697 383.309 404.787 382.181C404.844 381.595 404.771 381.003 404.574 380.447C404.377 379.892 404.06 379.387 403.646 378.967C403.193 378.532 402.6 378.272 401.973 378.235C401.353 378.218 400.742 378.391 400.223 378.729C399.219 379.387 398.513 380.411 398.254 381.582C398.031 382.726 398.107 383.908 398.477 385.013C398.847 386.118 399.498 387.108 400.365 387.887C402.065 389.321 404.176 390.18 406.394 390.34C408.497 390.582 410.627 390.371 412.642 389.722C414.619 389.1 416.307 387.787 417.396 386.023C417.938 385.186 418.274 384.233 418.376 383.241C418.479 382.249 418.345 381.247 417.986 380.317C417.808 379.851 417.515 379.438 417.134 379.115C416.753 378.792 416.297 378.572 415.808 378.473C415.338 378.388 414.855 378.402 414.39 378.513C413.925 378.625 413.489 378.831 413.108 379.119C412.44 379.705 411.963 380.477 411.736 381.336C411.509 382.194 411.543 383.101 411.833 383.94C412.354 385.439 413.291 386.759 414.534 387.744C416.593 389.489 419.178 390.493 421.875 390.597C423.517 390.655 425.152 390.368 426.676 389.753C428.199 389.139 429.576 388.212 430.718 387.031C430.947 386.795 431.163 386.548 431.365 386.289C431.436 386.203 431.5 386.111 431.555 386.013C430.425 387.261 429.074 388.289 427.571 389.047C425.8 389.917 423.836 390.322 421.865 390.226C419.264 390.078 416.783 389.075 414.81 387.373C413.651 386.435 412.781 385.189 412.299 383.779C412.047 383.044 412.019 382.251 412.217 381.499C412.415 380.748 412.831 380.072 413.412 379.557C413.731 379.319 414.096 379.149 414.484 379.057C414.871 378.966 415.273 378.955 415.666 379.024C416.063 379.107 416.433 379.29 416.739 379.556C417.046 379.823 417.279 380.163 417.415 380.546C417.728 381.386 417.838 382.287 417.737 383.178C417.637 384.068 417.328 384.922 416.835 385.671C415.814 387.301 414.242 388.509 412.404 389.075C410.476 389.687 408.441 389.881 406.432 389.646C404.356 389.491 402.381 388.69 400.784 387.354C400.001 386.649 399.414 385.752 399.08 384.752C398.747 383.752 398.679 382.683 398.882 381.649C399.096 380.643 399.693 379.76 400.546 379.186C400.931 378.901 401.403 378.76 401.881 378.788C402.359 378.816 402.812 379.011 403.161 379.338C403.507 379.688 403.771 380.109 403.936 380.573C404.1 381.036 404.16 381.53 404.112 382.02C404.032 383.018 403.658 383.971 403.038 384.758C401.756 386.306 400.056 387.451 398.14 388.058C396.315 388.715 394.367 388.965 392.435 388.79C390.626 388.615 388.94 387.799 387.68 386.489C387.08 385.888 386.616 385.165 386.319 384.37C386.022 383.574 385.899 382.724 385.959 381.877C385.991 381.107 386.283 380.372 386.788 379.79C387.292 379.208 387.979 378.814 388.736 378.672C389.088 378.661 389.439 378.731 389.76 378.876C390.081 379.021 390.365 379.237 390.59 379.509C391.054 380.05 391.36 380.708 391.475 381.411C391.669 382.742 391.361 384.098 390.609 385.215C389.95 386.23 389.052 387.069 387.994 387.658C386.237 388.56 384.238 388.877 382.289 388.562C381.055 388.393 379.843 388.09 378.675 387.658C377.877 387.459 377.468 387.278 377.458 387.307Z" fill="#FAFAFA"/>
<path d="M426.898 352.18V376.999H378.145V352.18H426.898Z" fill="#FFC1CF"/>
<path d="M418.793 353.036C418.613 353.036 418.461 358.409 418.461 365.046C418.461 371.683 418.613 377.056 418.793 377.056C418.974 377.056 419.136 371.683 419.136 365.046C419.136 358.409 418.984 353.036 418.793 353.036Z" fill="#FFEEF2"/>
<path d="M415.09 352.722C414.91 352.722 414.757 358.038 414.757 364.58C414.757 371.122 414.91 376.438 415.09 376.438C415.271 376.438 415.433 371.132 415.433 364.58C415.433 358.028 415.28 352.722 415.09 352.722Z" fill="#FFEEF2"/>
<path d="M383.645 351.961C383.464 351.961 383.312 357.553 383.312 364.456C383.312 371.36 383.464 376.942 383.645 376.942C383.826 376.942 383.987 371.35 383.987 364.456C383.987 357.562 383.835 351.961 383.645 351.961Z" fill="#FFEEF2"/>
<path d="M387.988 352.266C387.808 352.266 387.655 357.705 387.655 364.428C387.655 371.151 387.808 376.59 387.988 376.59C388.169 376.59 388.331 371.151 388.331 364.428C388.331 357.705 388.178 352.266 387.988 352.266Z" fill="#FFEEF2"/>
<path d="M125.554 298.007C120.495 295.392 114.552 295.06 108.932 295.982C105.918 296.486 102.78 297.38 100.726 299.652C98.6716 301.925 98.2913 305.9 100.64 307.84C102.047 309 103.997 309.181 105.822 309.152C110.216 309.104 115.084 308.334 118.593 310.978C120.6 312.48 121.931 314.991 124.299 315.732C126.666 316.474 129.281 315.076 130.517 312.965C131.66 310.763 131.912 308.206 131.221 305.824C130.941 304.173 130.284 302.609 129.301 301.253C128.318 299.897 127.036 298.787 125.554 298.007V298.007Z" fill="#EE95A8"/>
<path d="M137.133 275.652C134.043 280.064 128.033 278.599 125.247 275.908C122.461 273.217 121.282 269.309 120.217 265.581C117.764 257.08 115.301 248.151 117.117 239.489C117.552 236.861 118.708 234.405 120.455 232.395C121.338 231.404 122.466 230.661 123.725 230.24C124.985 229.82 126.332 229.737 127.634 229.999C130.658 230.807 132.541 233.802 133.9 236.588C137.907 244.922 140.009 254.043 140.053 263.29C140.053 267.588 139.558 272.095 137.133 275.652Z" fill="#EE95A8"/>
<path d="M145.589 281.985C142.233 278.001 141.596 272.191 143.089 267.208C144.581 262.225 147.957 257.965 151.846 254.504C156.422 250.43 161.748 247.287 167.527 245.251C169.762 244.351 172.166 243.943 174.573 244.053C175.777 244.123 176.945 244.486 177.976 245.111C179.007 245.736 179.869 246.604 180.488 247.638C182.142 250.786 180.554 254.599 178.843 257.718C175.826 263.201 172.386 268.441 168.554 273.389C165.463 277.373 161.897 281.3 157.229 283.098C152.56 284.895 147.634 284.676 145.143 281.414" fill="#EE95A8"/>
<path d="M137.345 342.234C137.182 341.577 137.086 340.904 137.06 340.228C136.917 338.773 136.746 336.937 136.528 334.76C136.255 332.062 135.846 329.381 135.301 326.725C134.585 323.482 133.609 320.302 132.382 317.216C131.177 314.15 129.547 311.27 127.541 308.657C125.907 306.529 123.818 304.791 121.427 303.57C119.802 302.772 118.064 302.23 116.273 301.963C115.599 301.942 114.929 301.847 114.276 301.678C114.953 301.603 115.635 301.603 116.311 301.678C118.171 301.819 119.991 302.293 121.684 303.076C124.199 304.265 126.405 306.019 128.131 308.201C130.228 310.853 131.921 313.801 133.152 316.949C134.38 320.072 135.335 323.295 136.005 326.582C136.522 329.269 136.881 331.983 137.079 334.712C137.25 337.032 137.317 338.915 137.345 340.218C137.416 340.888 137.416 341.564 137.345 342.234V342.234Z" fill="#2F3646"/>
<path d="M136.96 338.021C136.903 337.708 136.884 337.388 136.903 337.07C136.903 336.376 136.903 335.492 136.903 334.408C136.903 332.107 136.903 328.759 136.789 324.633C136.58 316.379 135.838 307.516 134.497 294.964C133.194 283.192 131.454 269.48 129.61 260.57C129.22 258.545 128.82 256.719 128.44 255.121C128.06 253.524 127.784 252.145 127.489 251.032C127.194 249.92 127.033 249.131 126.871 248.446C126.785 248.135 126.728 247.817 126.7 247.495C126.845 247.771 126.954 248.066 127.023 248.37C127.232 249.036 127.489 249.882 127.803 250.918C128.117 251.955 128.497 253.391 128.896 254.988C129.296 256.586 129.752 258.402 130.18 260.427C132.464 270.965 134.182 281.618 135.324 292.34C136.694 304.892 137.312 316.322 137.369 324.595C137.416 328.731 137.369 332.078 137.226 334.389C137.16 335.473 137.103 336.357 137.065 337.051C137.07 337.378 137.035 337.704 136.96 338.021V338.021Z" fill="#2F3646"/>
<path d="M136.906 315.979C136.834 315.055 136.834 314.127 136.906 313.203C137.011 311.415 137.258 308.829 137.762 305.672C138.368 301.97 139.184 298.307 140.206 294.698C141.405 290.258 142.94 285.916 144.799 281.709C147.98 273.954 152.546 266.843 158.273 260.722C159.272 259.677 160.332 258.693 161.449 257.775C161.934 257.366 162.4 256.957 162.799 256.633L164.026 255.787C164.766 255.222 165.552 254.72 166.375 254.285C166.508 254.465 163.056 256.491 158.701 261.131C153.161 267.305 148.717 274.38 145.559 282.051C143.743 286.229 142.208 290.524 140.967 294.907C139.759 298.939 138.96 302.648 138.352 305.767C137.743 308.886 137.448 311.472 137.249 313.231C137.209 314.155 137.094 315.074 136.906 315.979Z" fill="#2F3646"/>
<path d="M159.689 351.515L157.473 381.772H118.61L116.394 351.515H159.689Z" fill="#FFC1CF"/>
<path d="M111.764 339.59H163.445V351.515H111.764V339.59Z" fill="#EBEBEB"/>
<path d="M163.445 380.612V383.921H161.011H112.61V380.612H163.445Z" fill="#FFEEF2"/>
<path d="M158.639 389.37L161.016 383.56H114.469L117.246 389.37H158.639Z" fill="#FFEEF2"/>
<path d="M117.114 361.404C117.162 361.503 117.223 361.596 117.295 361.68C117.456 361.889 117.647 362.136 117.875 362.45L120.147 365.35L120.243 365.483L120.338 365.341C121.764 363.372 123.666 360.748 125.9 357.648H125.615L131.092 365.407L131.264 365.645L131.454 365.417L137.92 357.667H137.549L137.901 358.114L143.682 365.417L143.882 365.664L144.053 365.407C146.031 362.621 147.857 360.006 149.54 357.657H149.217L155.968 365.35L156.082 365.483L156.177 365.331L158.288 361.784C158.517 361.394 158.688 361.081 158.83 360.833C158.901 360.73 158.958 360.618 159.001 360.501C158.914 360.589 158.837 360.688 158.773 360.795L158.174 361.746L155.959 365.236H156.168L149.511 357.448L149.35 357.258L149.198 357.467L143.663 365.189H144.044L138.243 357.895L137.891 357.439L137.701 357.21L137.511 357.439L131.035 365.179H131.397L125.862 357.458L125.701 357.229L125.549 357.458L120.1 365.236H120.3C119.301 364.038 118.521 363.097 117.941 362.383L117.314 361.651C117.2 361.471 117.124 361.394 117.114 361.404Z" fill="#FFD3DD"/>
<path d="M115.85 351.315C115.85 351.448 125.597 351.553 137.607 351.553C149.616 351.553 159.363 351.448 159.363 351.315C159.363 351.182 149.626 351.077 137.607 351.077C125.587 351.077 115.85 351.182 115.85 351.315Z" fill="#FFD3DD"/>
<path d="M322.638 76.4272H348.341V99.848H322.638V76.4272Z" fill="#FFD3DD"/>
<path d="M322.635 99.8481C322.635 99.8481 322.635 99.6864 322.635 99.4011V98.1269C322.635 96.9858 322.635 95.3788 322.692 93.3724C322.692 89.2455 322.759 83.4354 322.807 76.4463L322.588 76.6745H348.262L348.006 76.4177V82.7032C348.006 84.7572 348.006 86.7731 348.006 88.7415C348.006 92.6687 348.006 96.3487 348.006 99.8291L348.243 99.6008L329.701 99.7149L324.442 99.7815H323.035C322.87 99.7676 322.705 99.7676 322.54 99.7815C322.689 99.7952 322.839 99.7952 322.987 99.7815H324.347L329.548 99.8386L348.243 99.9527H348.471V99.7149C348.471 96.2822 348.471 92.5546 348.471 88.6274C348.471 86.659 348.471 84.6431 348.471 82.5891V76.3036C348.709 76.5318 348.158 75.9803 348.205 76.0374H322.531H322.303V76.2561C322.35 83.3023 322.388 89.1694 322.417 93.3724C322.417 95.3693 322.464 96.9573 322.474 98.1269C322.474 98.6277 322.474 99.0366 322.474 99.3536C322.505 99.525 322.559 99.6914 322.635 99.8481V99.8481Z" fill="#FFEEF2"/>
<path d="M322.638 103.519H348.341V115.291H322.638V103.519Z" fill="#FFD3DD"/>
<path d="M322.643 115.291C322.643 115.291 322.643 114.986 322.643 114.435L322.691 112.077C322.691 109.994 322.748 107.094 322.796 103.519L322.605 103.709L348.28 103.785C348.518 104.023 347.966 103.462 348.023 103.528V109.585C348.023 111.554 348.023 113.465 348.023 115.291L348.28 115.044L329.899 115.158L324.536 115.234H323.09H322.577C322.729 115.248 322.881 115.248 323.033 115.234H324.431L329.728 115.31L348.28 115.424H348.527V115.177C348.527 113.351 348.527 111.44 348.527 109.471V103.414C348.584 103.414 348.033 102.91 348.261 103.148L322.586 103.214H322.463V103.404C322.463 107.027 322.539 109.975 322.558 112.077C322.558 113.028 322.558 113.817 322.558 114.397C322.557 114.697 322.586 114.996 322.643 115.291V115.291Z" fill="#FFEEF2"/>
<path d="M352.889 76.4941C362.455 89.7022 373.447 102.083 383.004 115.291Z" fill="white"/>
<path d="M382.992 115.291C382.992 115.291 382.926 115.129 382.745 114.854L381.937 113.675C381.233 112.648 380.178 111.193 378.846 109.414C376.193 105.839 372.399 101.008 368.139 95.7309C363.879 90.4534 360.047 85.6609 357.327 82.152L354.104 77.9966L353.219 76.865C353.01 76.6177 352.896 76.4846 352.877 76.4941C352.946 76.6491 353.032 76.7958 353.134 76.9315L353.942 78.1107C354.646 79.1376 355.701 80.5925 357.032 82.3802C359.685 85.9461 363.48 90.7767 367.74 96.0543C372 101.332 375.822 106.124 378.551 109.633L381.775 113.798L382.659 114.92C382.755 115.056 382.867 115.181 382.992 115.291Z" fill="#FFEEF2"/>
<path d="M309.635 64.7881C309.635 65.7435 309.918 66.6775 310.449 67.4718C310.98 68.2662 311.734 68.8854 312.617 69.251C313.499 69.6166 314.471 69.7123 315.408 69.5259C316.345 69.3395 317.205 68.8794 317.881 68.2039C318.557 67.5283 319.017 66.6676 319.203 65.7305C319.389 64.7935 319.294 63.8222 318.928 62.9395C318.563 62.0569 317.943 61.3024 317.149 60.7716C316.355 60.2408 315.421 59.9575 314.465 59.9575C313.185 59.96 311.958 60.4698 311.052 61.3751C310.147 62.2805 309.637 63.5077 309.635 64.7881V64.7881Z" fill="#FFEEF2"/>
<path d="M120.673 98.4316H176.339V179.125H120.673V98.4316Z" fill="#A32135"/>
<path d="M123.464 98.4316H179.129V179.125H123.464V98.4316Z" fill="#DF889A"/>
<path d="M130.369 107.17H172.209V170.386H130.369V107.17Z" fill="#DD344E"/>
<path d="M130.374 170.386C130.374 170.386 130.374 170.272 130.374 170.072C130.374 169.873 130.374 169.568 130.374 169.178C130.374 168.38 130.374 167.219 130.374 165.708C130.374 162.684 130.374 158.262 130.374 152.69C130.374 141.545 130.374 125.76 130.44 107.17L130.298 107.312H172.214L172.061 107.16C172.061 131.009 172.061 152.994 172.061 170.376L172.185 170.253L141.756 170.319H133.341H131.134H130.364H131.106H133.293H141.68L172.204 170.376H172.328V170.262C172.328 152.88 172.328 130.895 172.328 107.046V106.894H172.214H130.374H130.241V107.027C130.241 125.655 130.288 141.469 130.307 152.671C130.307 158.233 130.307 162.636 130.307 165.66C130.307 167.153 130.307 168.304 130.307 169.093C130.307 169.483 130.307 169.768 130.307 169.977L130.374 170.386Z" fill="#A22135"/>
<path d="M123.305 98.4316C123.573 98.9437 123.891 99.4279 124.255 99.877C124.902 100.742 125.824 101.912 126.87 103.186C127.916 104.46 128.896 105.582 129.619 106.391C129.988 106.843 130.398 107.26 130.845 107.636C130.528 107.146 130.172 106.682 129.78 106.248L127.099 102.996L124.427 99.7439C124.085 99.2797 123.71 98.8411 123.305 98.4316V98.4316Z" fill="#A22135"/>
<path d="M130.164 170.177C128.087 173.487 125.64 176.55 122.87 179.306Z" fill="white"/>
<path d="M122.87 179.306C123.333 178.967 123.757 178.578 124.135 178.146C125.107 177.161 126.028 176.126 126.892 175.046C127.757 173.965 128.566 172.842 129.317 171.68C129.652 171.21 129.936 170.707 130.164 170.177C129.79 170.612 129.447 171.073 129.137 171.556C128.528 172.421 127.663 173.591 126.655 174.856C125.647 176.12 124.686 177.214 123.983 178.003C123.578 178.408 123.206 178.843 122.87 179.306V179.306Z" fill="#A22135"/>
<path d="M179.142 179.059L171.848 170.063Z" fill="white"/>
<path d="M171.839 170.063C171.782 170.063 173.361 172.174 175.367 174.656C176.557 176.19 177.826 177.659 179.171 179.059C176.899 175.934 174.465 172.932 171.877 170.063H171.839Z" fill="#A22135"/>
<path d="M179.129 98.4316C177.88 99.782 176.699 101.194 175.592 102.663C174.411 104.075 173.31 105.551 172.292 107.085C173.546 105.728 174.727 104.306 175.83 102.825C177.013 101.425 178.115 99.9582 179.129 98.4316V98.4316Z" fill="#A22135"/>
<path d="M143.407 120.007H157.414V159.784H143.407V120.007Z" fill="#DF889A"/>
<path d="M374.584 64.0657C389.846 88.0665 388.847 121.348 372.168 144.389C361.052 159.755 344.383 170.063 331.146 183.623C317.91 197.183 307.849 217.199 314.838 234.829C321.951 252.773 342.785 260.066 358.38 271.439C375.586 283.971 387.267 302.683 390.97 323.644C394.672 344.606 390.108 366.187 378.235 383.855H216.182C216.182 383.855 187.712 329.606 224.312 288.251C260.912 246.896 280.568 246.231 279.217 219.111C277.867 191.991 258.887 183.195 248.037 173.02C237.187 162.846 184.327 139.14 215.507 64.0562L374.584 64.0657Z" fill="#FFECF0"/>
<path d="M374.584 64.0656H371.798H363.582H331.955L215.507 63.98H215.383V64.0941C212.997 69.7792 210.964 75.6067 209.298 81.5432C207.548 87.7586 206.395 94.1269 205.855 100.561C205.295 107.287 205.64 114.058 206.882 120.692C208.247 127.569 210.72 134.178 214.204 140.262C216.01 143.364 218.051 146.324 220.309 149.115C222.614 151.942 225.108 154.611 227.774 157.102C230.473 159.639 233.301 162.035 236.246 164.281C239.194 166.564 242.275 168.713 245.28 170.995C246.782 172.126 248.133 173.401 249.597 174.675C251.061 175.949 252.516 177.138 254.019 178.336C257.014 180.732 260.038 183.09 262.891 185.743C268.845 190.904 273.42 197.466 276.203 204.838C277.541 208.618 278.385 212.556 278.714 216.553C278.799 217.504 278.932 218.55 278.971 219.558C279.009 220.566 279.047 221.573 278.971 222.581C278.949 224.605 278.745 226.623 278.362 228.61C277.608 232.637 275.964 236.445 273.55 239.755C271.066 243.064 268.253 246.113 265.154 248.855C259.002 254.475 252.469 259.847 246.221 265.648C239.974 271.448 233.86 277.496 227.964 283.896C224.956 287.064 222.142 290.41 219.539 293.918C216.92 297.47 214.643 301.262 212.74 305.244C208.892 313.314 206.527 322.01 205.76 330.918C204.985 339.949 205.516 349.045 207.339 357.924C208.225 362.41 209.387 366.837 210.819 371.179C212.227 375.558 213.943 379.832 215.954 383.969L216.021 384.102H378.369L378.435 383.998C386.035 372.555 390.695 359.416 392.005 345.743C393.322 332.609 391.395 319.352 386.394 307.136C381.641 295.459 374.322 285.001 364.98 276.536C360.446 272.534 355.55 268.962 350.355 265.867C345.296 262.729 340.19 259.819 335.369 256.643C330.543 253.626 326.11 250.024 322.17 245.917C318.408 241.883 315.617 237.044 314.011 231.767C312.604 226.619 312.383 221.219 313.365 215.973C314.303 210.91 315.992 206.016 318.376 201.452C320.656 197.058 323.391 192.915 326.535 189.091C329.569 185.422 332.868 181.98 336.405 178.792C343.261 172.478 350.288 166.953 356.602 161.277C359.769 158.424 362.764 155.571 365.531 152.652C368.213 149.794 370.686 146.746 372.929 143.533C376.986 137.639 380.112 131.158 382.201 124.315C384.03 118.406 385.091 112.285 385.358 106.105C385.491 104.698 385.434 103.309 385.434 101.95C385.434 100.59 385.434 99.2681 385.31 97.9843C385.187 96.7006 385.12 95.4454 385.025 94.1807C384.93 92.916 384.673 91.7844 384.511 90.6338C383.461 83.6295 381.318 76.8334 378.159 70.4937C377.732 69.513 377.243 68.5602 376.695 67.641L375.525 65.6536C374.907 64.5981 374.575 64.0656 374.575 64.0656L375.525 65.6821L376.657 67.641C377.192 68.5642 377.674 69.5166 378.102 70.4937C381.232 76.8488 383.349 83.6537 384.378 90.6624C384.54 91.8035 384.73 92.9826 384.873 94.1902C385.015 95.3979 385.063 96.6626 385.158 97.9463C385.253 99.23 385.253 100.552 385.263 101.902C385.272 103.252 385.31 104.641 385.177 106.048C384.902 112.208 383.831 118.306 381.992 124.191C379.906 131.01 376.782 137.466 372.73 143.333C370.492 146.533 368.022 149.565 365.341 152.405C362.584 155.333 359.588 158.186 356.422 160.963C350.108 166.668 343.109 172.136 336.206 178.459C332.641 181.67 329.317 185.138 326.259 188.834C323.098 192.686 320.347 196.858 318.053 201.281C315.646 205.873 313.941 210.799 312.994 215.897C311.998 221.199 312.219 226.658 313.641 231.862C315.254 237.2 318.071 242.096 321.875 246.173C325.834 250.304 330.286 253.932 335.131 256.976C339.971 260.161 345.077 263.071 350.127 266.209C355.3 269.296 360.177 272.855 364.695 276.84C373.98 285.262 381.256 295.66 385.985 307.269C390.956 319.423 392.866 332.611 391.548 345.676C390.239 359.271 385.601 372.335 378.045 383.712L378.236 383.608H216.182L216.401 383.741C214.393 379.615 212.683 375.35 211.285 370.98C209.86 366.656 208.704 362.248 207.824 357.781C206.009 348.946 205.481 339.895 206.255 330.909C207.007 322.05 209.355 313.4 213.187 305.377C215.077 301.424 217.334 297.658 219.929 294.128C222.526 290.638 225.327 287.304 228.316 284.143C234.18 277.759 240.256 271.686 246.545 265.924C252.783 260.133 259.296 254.77 265.468 249.121C268.592 246.357 271.43 243.286 273.94 239.954C276.401 236.604 278.087 232.749 278.875 228.667C279.256 226.651 279.463 224.605 279.494 222.553C279.541 221.535 279.494 220.518 279.494 219.501C279.494 218.483 279.322 217.475 279.246 216.467C278.897 212.446 278.034 208.487 276.679 204.685C273.871 197.249 269.253 190.631 263.243 185.43C260.39 182.786 257.337 180.39 254.342 178.003C252.84 176.805 251.366 175.597 249.93 174.361C248.494 173.125 247.077 171.794 245.594 170.653C242.57 168.37 239.498 166.221 236.56 163.949C233.624 161.712 230.802 159.329 228.107 156.807C225.459 154.327 222.978 151.675 220.68 148.867C218.44 146.087 216.409 143.143 214.604 140.062C211.139 134.02 208.679 127.456 207.32 120.625C206.083 114.045 205.734 107.329 206.283 100.656C206.815 94.223 207.958 87.8549 209.697 81.6383C211.34 75.6854 213.347 69.8391 215.707 64.1321L215.545 64.2367L331.926 64.1511H363.573H371.807L374.584 64.0656Z" fill="#2F3646"/>
<path d="M221.973 108.083C198.106 112.01 235.733 154.288 257.043 170.966C269.404 180.618 282.622 191.097 288.48 205.627C295.136 222.116 290.201 240.639 293.415 257.223C293.518 257.795 293.834 258.306 294.3 258.655C294.765 259.003 295.344 259.163 295.922 259.101C296.5 259.04 297.034 258.762 297.415 258.324C297.797 257.885 297.998 257.319 297.979 256.738C297.827 245.85 298.112 234.972 299.881 224.255C302.439 209.041 308.277 194.026 318.899 182.891C327.6 173.791 339.001 167.752 348.273 159.251C361.813 146.842 375.725 130.838 377.085 112.524C377.085 112.524 351.087 91.6039 336.652 94.2189C319.783 97.3093 303.181 123.336 277.05 120.359C258.868 118.277 249.654 103.538 221.973 108.083Z" fill="#DD2B50"/>
<path d="M219.853 334.351C220.452 328.379 222.049 321.628 227.346 318.813C230.551 317.101 234.459 317.292 237.977 318.214C241.495 319.136 244.795 320.743 248.275 321.78C255.194 323.814 262.583 323.578 269.357 321.105C275.833 318.728 281.386 314.448 287.424 311.044C293.462 307.64 300.471 305.149 307.165 306.813C318.709 309.665 324.719 323.587 336.129 326.943C341.207 328.427 346.656 327.59 351.81 326.43C356.964 325.27 362.146 323.758 367.424 323.957C371.57 324.11 375.877 325.546 378.778 328.379L378.854 328.465C379.337 328.938 379.776 329.453 380.166 330.005C383.703 334.76 384.274 341.064 383.18 346.827C381.963 353.283 378.949 359.246 375.716 364.961C371.912 371.693 367.576 378.387 361.281 382.876C353.503 388.419 343.737 384.597 334.218 385.348C312.034 387.098 288.166 388.286 265.972 386.575C254.247 385.624 243.264 386.936 233.964 379.738C227.422 374.679 223.162 367.053 221.108 359.046C219.054 351.039 219.026 342.576 219.853 334.351Z" fill="#DD2B50"/>
<g opacity="0.24">
<path opacity="0.24" d="M261.727 322.921C262.973 324.823 263.515 327.409 262.307 329.349C261.1 331.289 259.454 333.067 258.941 335.302C258.114 338.801 260.225 342.224 261.794 345.467C264.698 351.264 265.794 357.8 264.941 364.228C264.042 370.677 260.711 376.538 255.632 380.612C253.378 382.352 250.449 383.703 247.73 382.847C245.172 382.048 243.527 379.452 242.975 376.818C242.424 374.184 242.89 371.474 243.222 368.821C244.771 356.456 244.451 343.929 242.272 331.66C241.91 329.615 241.568 327.276 242.861 325.65C243.794 324.703 244.979 324.043 246.275 323.748C251.22 322.103 256.554 323.929 261.68 322.959" fill="#2F3646"/>
</g>
<path d="M390.129 391.215C390.129 391.215 390.576 383.779 380.876 379.633H210.427C210.427 379.633 201.536 384.14 200.442 391.044L390.129 391.215Z" fill="#2F3646"/>
<path d="M390.129 391.215C390.129 391.215 390.576 383.779 380.876 379.633H210.427C210.427 379.633 201.536 384.14 200.442 391.044L390.129 391.215Z" fill="url(#paint0_linear_786:10795)"/>
<path d="M214.05 64.9689L214.326 65.0925L374.601 64.0655C374.601 64.0655 375.171 63.7042 376.018 63.029C377.017 62.2463 377.746 61.1704 378.102 59.9522C378.459 58.7341 378.425 57.4349 378.005 56.2371C377.586 55.0392 376.801 54.0028 375.763 53.2733C374.724 52.5438 373.483 52.1579 372.214 52.1697L216.646 53.4249C210.246 53.4819 208.23 62.2303 214.05 64.9689Z" fill="#2F3646"/>
<g opacity="0.24">
<path opacity="0.24" d="M239.727 126.112C239.403 126.73 240.611 128.014 242.903 130.106C245.194 132.198 248.608 134.946 252.849 138.398C257.941 142.605 263.345 146.42 269.014 149.809C272.536 151.848 276.242 153.551 280.083 154.896C282.164 155.616 284.289 156.203 286.444 156.655C288.709 157.136 291.008 157.435 293.32 157.549C298.004 157.804 302.695 157.158 307.136 155.647C311.063 154.219 314.795 152.302 318.243 149.942C321.438 147.831 324.186 145.739 326.801 143.732C329.416 141.726 331.746 139.796 333.857 137.97C342.272 130.677 346.703 125.313 345.848 124.277C344.992 123.24 339.001 126.616 329.682 132.322L322.075 136.981C319.346 138.636 316.427 140.471 313.441 142.163C310.478 143.903 307.338 145.321 304.074 146.395C300.735 147.395 297.247 147.807 293.766 147.612C286.464 147.232 279.379 144.664 273.246 141.698C267.113 138.731 261.559 135.269 256.748 132.569C252.94 130.322 248.959 128.382 244.842 126.768C241.828 125.713 240.002 125.513 239.727 126.112Z" fill="#2F3646"/>
</g>
<path d="M297.869 277.087C297.195 276.819 296.443 276.827 295.775 277.11C295.107 277.392 294.577 277.927 294.301 278.597C294.024 279.267 294.022 280.019 294.296 280.691C294.569 281.362 295.097 281.899 295.763 282.184C296.429 282.47 297.182 282.482 297.857 282.217C298.532 281.952 299.075 281.432 299.369 280.769C299.664 280.107 299.685 279.355 299.429 278.676C299.173 277.998 298.661 277.447 298.002 277.144" fill="#F995A6"/>
<path d="M355.186 152.633C355.395 152.462 355.586 152.271 355.757 152.062L357.307 150.37C357.963 149.619 358.828 148.744 359.713 147.631L362.736 143.828C363.773 142.363 364.943 140.785 366.122 139.073L367.862 136.306C368.157 135.831 368.47 135.355 368.756 134.851L369.592 133.311C372.123 128.826 374.106 124.053 375.498 119.095C376.896 114.141 377.65 109.027 377.742 103.88C377.742 102.692 377.675 101.541 377.656 100.409C377.656 99.8483 377.656 99.2968 377.58 98.7548C377.504 98.2127 377.466 97.6802 377.409 97.1572C377.285 96.1112 377.209 95.0938 377.067 94.1239C376.924 93.1539 376.724 92.222 376.563 91.3567C376.296 89.5785 375.821 88.0286 375.488 86.6022C375.307 85.9176 375.165 85.2709 374.984 84.7004L374.461 83.1124L373.729 80.9348C373.659 80.6756 373.563 80.4239 373.444 80.1836C373.483 80.4488 373.546 80.7099 373.634 80.9633C373.795 81.5149 374.005 82.2471 374.28 83.1694L374.756 84.7574C374.918 85.3375 375.051 85.9841 375.222 86.6593C375.526 88.0381 375.973 89.5976 376.173 91.4138C376.325 92.2886 376.477 93.211 376.639 94.1714C376.8 95.1318 376.838 96.1398 376.952 97.1858C376.952 97.7088 377.057 98.2318 377.114 98.7738C377.171 99.3158 377.114 99.8673 377.171 100.419C377.171 101.541 377.247 102.682 377.238 103.861C377.145 108.978 376.4 114.062 375.022 118.99C373.638 123.912 371.681 128.654 369.193 133.12C368.917 133.634 368.642 134.147 368.375 134.661C368.109 135.174 367.776 135.612 367.491 136.106L365.779 138.873C364.619 140.623 363.469 142.202 362.461 143.628L359.494 147.432C358.638 148.563 357.792 149.448 357.164 150.227L355.681 151.986C355.502 152.191 355.337 152.407 355.186 152.633V152.633Z" fill="#2F3646"/>
<path d="M364.209 293.899C364.162 293.789 364.105 293.684 364.038 293.585L363.467 292.692C363.211 292.292 362.897 291.817 362.516 291.246L361.917 290.295C361.68 289.981 361.404 289.668 361.128 289.344L359.226 287.062C358.494 286.273 357.657 285.455 356.773 284.561C354.722 282.587 352.543 280.751 350.25 279.065C345.2 275.261 338.687 271.458 331.631 266.998C327.921 264.712 324.355 262.2 320.952 259.476C317.302 256.569 314.079 253.163 311.377 249.359C306.431 241.76 303.743 232.912 303.627 223.846C303.506 216.457 304.744 209.108 307.278 202.165C308.957 197.48 311.064 192.96 313.573 188.663C314.458 187.132 315.18 185.972 315.675 185.182L316.236 184.288C316.359 184.089 316.416 183.975 316.416 183.975C316.332 184.06 316.258 184.156 316.198 184.26L315.589 185.135C315.066 185.895 314.315 187.037 313.412 188.567C310.825 192.842 308.659 197.358 306.945 202.051C304.343 209.022 303.053 216.415 303.142 223.856C303.182 226.001 303.357 228.141 303.665 230.265C303.973 232.486 304.44 234.681 305.063 236.835C306.362 241.396 308.381 245.72 311.044 249.644C313.774 253.49 317.033 256.931 320.724 259.866C324.147 262.592 327.732 265.107 331.46 267.398C338.544 271.819 345.067 275.585 350.117 279.36C352.41 281.023 354.595 282.83 356.659 284.771C357.543 285.655 358.389 286.454 359.131 287.233L361.033 289.468C361.318 289.81 361.594 290.124 361.832 290.419L362.45 291.322L363.401 292.739L364.009 293.604C364.068 293.708 364.135 293.806 364.209 293.899Z" fill="#2F3646"/>
<path d="M373.052 310.702C373.109 310.857 373.179 311.006 373.261 311.149L373.946 312.357C374.25 312.87 374.611 313.517 374.982 314.259C375.353 315 375.828 315.875 376.228 316.874C376.437 317.368 376.665 317.881 376.893 318.414C377.122 318.946 377.312 319.536 377.54 320.126C377.997 321.305 378.358 322.598 378.776 323.929C380.43 329.89 381 336.1 380.459 342.263C380.298 343.67 380.184 345.02 379.936 346.256C379.832 346.875 379.746 347.483 379.623 348.054C379.499 348.624 379.366 349.176 379.242 349.699C379.033 350.754 378.719 351.677 378.491 352.494C378.263 353.312 378.035 354.016 377.825 354.586L377.378 355.899C377.314 356.047 377.273 356.204 377.255 356.365C377.346 356.232 377.42 356.088 377.474 355.937C377.616 355.585 377.787 355.166 378.006 354.653C378.293 353.976 378.544 353.284 378.757 352.58C379.014 351.762 379.347 350.84 379.585 349.784C379.718 349.261 379.851 348.71 379.993 348.139C380.136 347.569 380.222 346.951 380.345 346.333C380.612 345.077 380.745 343.727 380.916 342.31C381.511 336.109 380.937 329.852 379.223 323.863C378.795 322.493 378.415 321.191 377.93 320.012C377.692 319.422 377.502 318.842 377.255 318.3L376.551 316.75C376.133 315.799 375.6 314.915 375.229 314.154C374.894 313.5 374.523 312.865 374.117 312.252L373.356 311.083C373.166 310.826 373.071 310.693 373.052 310.702Z" fill="#2F3646"/>
<path d="M255.491 333.561L255.681 333.694L256.27 334.065L258.581 335.454L260.255 336.405C260.882 336.756 261.576 337.08 262.318 337.45C263.821 338.173 265.475 339.096 267.434 339.837L270.477 341.083C271.532 341.501 272.683 341.834 273.843 342.234C276.154 343.08 278.721 343.688 281.393 344.383C293.126 347.13 305.295 347.454 317.157 345.333C319.876 344.782 322.463 344.307 324.821 343.584C326 343.241 327.16 342.975 328.244 342.633L331.344 341.501C333.332 340.864 335.043 340.037 336.574 339.39C337.335 339.058 338.048 338.763 338.685 338.439L340.416 337.536L342.793 336.271L343.402 335.929L343.602 335.805C343.602 335.805 343.516 335.805 343.373 335.891L342.746 336.186L340.33 337.365L338.59 338.221C337.944 338.525 337.221 338.801 336.46 339.124C334.929 339.733 333.218 340.541 331.221 341.15L328.159 342.262C327.075 342.623 325.915 342.88 324.736 343.213C322.387 343.917 319.81 344.364 317.128 344.906C305.322 346.95 293.226 346.627 281.545 343.955C278.883 343.27 276.325 342.69 274.014 341.863C272.854 341.473 271.713 341.159 270.658 340.741L267.615 339.533C265.656 338.81 263.992 337.916 262.489 337.222C261.748 336.861 261.044 336.547 260.416 336.271L258.724 335.32L256.375 334.008L255.757 333.685C255.567 333.58 255.491 333.552 255.491 333.561Z" fill="#2F3646"/>
<path d="M245.577 132.302C245.635 132.371 245.702 132.432 245.776 132.483L246.404 132.996C246.984 133.462 247.792 134.118 248.829 134.898C250.94 136.572 254.002 138.997 257.872 141.887C262.376 145.335 267.099 148.486 272.012 151.32C274.934 152.955 277.98 154.358 281.122 155.514C284.511 156.747 288.046 157.533 291.639 157.853C298.623 158.245 305.588 156.796 311.836 153.65C314.538 152.278 317.146 150.727 319.643 149.01C321.963 147.374 324.083 145.786 325.957 144.255C329.76 141.231 332.67 138.673 334.724 136.924L337.073 134.889L337.672 134.356L337.872 134.157C337.872 134.157 337.786 134.157 337.643 134.309L337.006 134.813L334.6 136.771C332.508 138.483 329.523 140.994 325.738 143.979C323.836 145.472 321.735 147.041 319.405 148.658C316.917 150.346 314.322 151.871 311.636 153.222C305.45 156.305 298.568 157.725 291.667 157.34C288.118 157.025 284.624 156.251 281.274 155.038C278.153 153.897 275.126 152.514 272.221 150.902C267.316 148.119 262.587 145.035 258.062 141.669C254.182 138.816 251.092 136.439 248.933 134.813L246.452 132.911L245.795 132.435C245.73 132.38 245.656 132.335 245.577 132.302Z" fill="#2F3646"/>
<g opacity="0.24">
<path opacity="0.24" d="M331.336 341.549C326.829 338.069 320.496 338.906 314.924 340.085C309.351 341.264 303.741 343.156 298.102 342.367C293.852 341.768 289.953 339.686 285.741 338.773C281.528 337.86 276.46 338.535 274.13 342.139C292.75 348.139 312.815 347.932 331.308 341.549" fill="#2F3646"/>
</g>
<path d="M174.112 315.741L194.556 292.815L194.765 320.686L188.603 338.563L249.861 349.185L252.457 300.85L256.869 263.765C257.131 261.554 256.654 259.318 255.511 257.407C254.369 255.496 252.626 254.017 250.555 253.2L233.695 246.544L209.923 250.899L200.366 254.532C196.359 256.057 192.787 258.542 189.963 261.768L161.208 294.65" fill="#E3D0D4"/>
<path d="M195.981 287.299C194.827 287.284 193.674 287.201 192.529 287.052C189.771 286.631 187.202 285.396 185.15 283.506C183.098 281.615 181.658 279.155 181.014 276.44C180.777 275.306 180.602 274.16 180.491 273.007C180.414 273.318 180.385 273.639 180.405 273.958C180.398 274.821 180.487 275.682 180.671 276.526C181.247 279.349 182.697 281.92 184.814 283.874C186.932 285.828 189.611 287.066 192.472 287.414C193.327 287.524 194.19 287.543 195.049 287.471C195.367 287.464 195.682 287.406 195.981 287.299Z" fill="#2F3646"/>
<path d="M194.205 319.498C194.062 319.498 194.024 309.836 194.12 297.931C194.215 286.026 194.414 276.374 194.557 276.374C194.7 276.374 194.738 286.026 194.643 297.941C194.547 309.855 194.348 319.498 194.205 319.498Z" fill="#2F3646"/>
<path d="M196.449 326.581L233.458 311.681C234.921 311.092 236.19 310.106 237.123 308.834C238.055 307.562 238.614 306.055 238.736 304.482L241.446 268.995C241.446 268.995 241.122 253.894 250.555 253.162L255.89 255.273C262.822 258.953 264.534 269.052 263.592 276.84C262.252 287.908 261.69 303.579 260.198 313.183C258.961 321.047 254.492 327.96 246.771 329.986L201.184 339.856L196.449 326.581Z" fill="#E3D0D4"/>
<path d="M240.911 274.405C240.849 274.671 240.811 274.941 240.797 275.214C240.74 275.794 240.654 276.573 240.559 277.553C240.369 279.635 240.103 282.564 239.779 286.158C239.456 289.753 239.095 294.137 238.676 298.929C238.581 300.137 238.476 301.363 238.372 302.619C238.298 303.896 238.14 305.166 237.896 306.422C237.638 307.692 236.994 308.851 236.052 309.741C235.038 310.633 233.885 311.352 232.638 311.871C222.435 316.283 213.03 319.935 206.203 322.493L198.092 325.478L195.885 326.287C195.627 326.372 195.376 326.477 195.134 326.6C195.403 326.551 195.667 326.478 195.923 326.382L198.158 325.659C200.06 325.012 202.913 324.052 206.317 322.806C213.192 320.334 222.606 316.74 232.847 312.346C234.142 311.802 235.34 311.051 236.394 310.121C237.405 309.161 238.096 307.913 238.372 306.546C238.617 305.271 238.773 303.981 238.838 302.685C238.942 301.42 239.037 300.194 239.133 298.986C239.503 294.232 239.846 289.857 240.083 286.206C240.321 282.555 240.559 279.673 240.711 277.591C240.778 276.64 240.825 275.822 240.854 275.242C240.897 274.965 240.916 274.685 240.911 274.405V274.405Z" fill="#2F3646"/>
<path d="M262.119 293.699C262.08 293.855 262.058 294.014 262.052 294.175L261.928 295.544C261.814 296.809 261.672 298.511 261.491 300.584C261.31 302.657 261.025 305.234 260.654 308.029C260.29 311.057 259.734 314.058 258.99 317.015C258.64 318.539 258.029 319.99 257.183 321.304C256.357 322.511 255.432 323.646 254.416 324.699C252.686 326.479 250.687 327.978 248.492 329.139C246.446 330.179 244.252 330.898 241.988 331.269C242.149 331.29 242.312 331.29 242.473 331.269C242.933 331.239 243.39 331.179 243.842 331.089C245.515 330.777 247.135 330.23 248.654 329.463C250.91 328.327 252.966 326.83 254.74 325.032C255.791 323.968 256.746 322.813 257.592 321.58C258.48 320.229 259.124 318.732 259.494 317.158C260.249 314.178 260.798 311.151 261.139 308.096C261.481 305.243 261.71 302.752 261.862 300.622C262.014 298.492 262.1 296.761 262.147 295.563C262.147 295.011 262.147 294.555 262.147 294.184C262.163 294.022 262.154 293.858 262.119 293.699Z" fill="#2F3646"/>
<path d="M246.296 318.528C246.199 317.834 245.97 317.166 245.621 316.559C244.858 315.044 243.801 313.696 242.511 312.593C241.221 311.491 239.725 310.657 238.109 310.141C237.453 309.89 236.756 309.771 236.055 309.789C236.677 310.048 237.312 310.277 237.956 310.474C239.485 311.065 240.903 311.91 242.15 312.974C243.394 314.041 244.451 315.307 245.278 316.721C245.944 317.814 246.22 318.556 246.296 318.528Z" fill="#2F3646"/>
<path d="M239.01 291.541C238.929 291.565 238.852 291.6 238.782 291.646L238.116 291.998C237.258 292.42 236.375 292.792 235.472 293.11C232.145 294.278 228.576 294.585 225.098 294.004C219.932 293.082 215.316 290.213 212.204 285.988C210.343 283.547 209.177 280.65 208.828 277.601C208.655 275.999 208.824 274.378 209.323 272.846C209.849 271.282 210.765 269.878 211.985 268.767C213.188 267.641 214.702 266.905 216.331 266.656C217.102 266.518 217.895 266.556 218.649 266.769C219.404 266.981 220.1 267.362 220.686 267.883C221.216 268.402 221.524 269.108 221.542 269.851C221.525 270.589 221.272 271.303 220.819 271.886C220.347 272.449 219.767 272.914 219.115 273.252C218.462 273.589 217.748 273.794 217.015 273.854C214.44 274.175 211.826 273.845 209.412 272.893C206.998 271.941 204.862 270.398 203.199 268.406C201.938 266.855 200.989 265.076 200.403 263.166C199.966 261.719 199.729 260.218 199.699 258.706C199.689 257.751 199.759 256.797 199.909 255.854C199.966 255.559 200.013 255.312 200.042 255.121C200.05 255.036 200.05 254.95 200.042 254.865C199.649 256.094 199.456 257.378 199.471 258.668C199.461 260.203 199.673 261.73 200.099 263.204C201.157 266.757 203.443 269.818 206.548 271.843C209.653 273.869 213.375 274.726 217.053 274.263C217.839 274.194 218.603 273.97 219.301 273.604C219.999 273.239 220.619 272.739 221.123 272.133C221.64 271.469 221.927 270.654 221.941 269.813C221.94 268.948 221.599 268.117 220.99 267.502C220.351 266.932 219.592 266.512 218.769 266.275C217.946 266.038 217.08 265.99 216.236 266.133C214.506 266.389 212.897 267.169 211.624 268.368C210.336 269.531 209.373 271.009 208.828 272.656C208.31 274.25 208.135 275.935 208.315 277.601C208.686 280.716 209.891 283.673 211.804 286.159C214.444 289.761 218.191 292.399 222.472 293.67C226.753 294.941 231.333 294.774 235.51 293.196C236.745 292.801 237.921 292.244 239.01 291.541Z" fill="#2F3646"/>
<path d="M263.261 282.08C263.101 281.795 262.895 281.538 262.653 281.319C262.045 280.675 261.376 280.093 260.656 279.579C258.228 277.911 255.405 276.91 252.468 276.678C250.858 276.497 249.228 276.564 247.638 276.878C246.345 277.147 245.095 277.588 243.92 278.19C243.131 278.588 242.375 279.045 241.657 279.56C241.379 279.73 241.129 279.941 240.915 280.187C240.972 280.263 242.075 279.426 244.072 278.504C246.675 277.297 249.562 276.836 252.411 277.173C255.273 277.399 258.035 278.323 260.456 279.864C262.291 281.091 263.195 282.146 263.261 282.08Z" fill="#2F3646"/>
<path d="M257.336 256.7C256.434 257.549 255.427 258.281 254.341 258.877C253.154 259.486 251.864 259.866 250.537 259.999C248.922 260.161 247.291 259.933 245.782 259.334C244.303 258.703 242.999 257.724 241.979 256.481C241.137 255.444 240.493 254.261 240.077 252.991C239.735 251.799 239.54 250.569 239.497 249.33C239.404 249.658 239.363 249.998 239.373 250.338C239.357 251.271 239.482 252.2 239.744 253.096C240.132 254.432 240.778 255.679 241.646 256.766C242.688 258.13 244.073 259.193 245.66 259.848C247.247 260.503 248.979 260.726 250.68 260.494C252.058 260.338 253.393 259.911 254.607 259.238C255.424 258.79 256.168 258.219 256.813 257.546C257.038 257.298 257.215 257.011 257.336 256.7Z" fill="#2F3646"/>
<path d="M225.081 315.057C225.079 314.82 225.053 314.585 225.004 314.353C224.872 313.693 224.651 313.053 224.348 312.452C223.139 310.237 221.176 308.529 218.814 307.64C215.338 306.258 211.492 306.12 207.926 307.25C205.967 307.83 203.723 308.553 202.221 310.464C201.843 310.952 201.604 311.534 201.531 312.146C201.457 312.759 201.551 313.381 201.802 313.944C202.376 315.044 203.304 315.919 204.436 316.426C205.529 316.967 206.726 317.266 207.945 317.301C209.155 317.36 210.348 316.989 211.311 316.255C211.756 315.875 212.119 315.409 212.378 314.884C212.636 314.359 212.784 313.787 212.814 313.203C212.876 312.111 212.704 311.018 212.31 309.998C210.877 306.532 208.147 303.761 204.703 302.277C202.417 301.258 199.913 300.827 197.419 301.022C196.51 301.091 195.615 301.279 194.756 301.583C194.756 301.649 195.707 301.335 197.438 301.212C199.504 301.1 201.572 301.41 203.515 302.125C205.457 302.839 207.233 303.943 208.735 305.367C210.128 306.702 211.215 308.325 211.92 310.122C212.289 311.082 212.448 312.11 212.386 313.136C212.358 313.656 212.224 314.165 211.992 314.631C211.76 315.098 211.434 315.511 211.036 315.846C210.166 316.514 209.088 316.851 207.993 316.797C206.85 316.767 205.727 316.488 204.703 315.979C203.669 315.518 202.819 314.725 202.287 313.726C202.073 313.24 201.994 312.706 202.057 312.179C202.121 311.651 202.325 311.151 202.649 310.73C203.312 309.893 204.162 309.222 205.131 308.771C206.07 308.322 207.047 307.956 208.05 307.678C211.521 306.555 215.272 306.652 218.681 307.954C220.991 308.79 222.936 310.408 224.177 312.528C224.589 313.327 224.893 314.178 225.081 315.057V315.057Z" fill="#2F3646"/>
<path d="M249.728 328.417C249.728 328.322 248.321 328.208 246.181 327.466C243.388 326.482 240.886 324.815 238.902 322.616C236.919 320.417 235.518 317.756 234.827 314.876C234.285 312.67 234.304 311.234 234.209 311.244C234.143 311.572 234.127 311.909 234.162 312.242C234.184 313.154 234.292 314.061 234.485 314.952C235.101 317.925 236.5 320.679 238.536 322.93C240.572 325.182 243.171 326.85 246.067 327.761C246.934 328.043 247.825 328.244 248.73 328.36C249.058 328.427 249.394 328.446 249.728 328.417V328.417Z" fill="#2F3646"/>
<path d="M261.728 300.831C261.587 300.752 261.437 300.692 261.281 300.651C260.977 300.555 260.539 300.422 259.959 300.27C258.313 299.837 256.61 299.664 254.91 299.757C253.73 299.846 252.573 300.132 251.487 300.603C250.222 301.148 249.121 302.014 248.292 303.113C247.381 304.361 246.94 305.89 247.046 307.43C247.107 308.25 247.358 309.044 247.778 309.751C248.204 310.495 248.877 311.067 249.68 311.367C250.104 311.512 250.558 311.542 250.997 311.455C251.436 311.368 251.844 311.167 252.181 310.873C252.752 310.244 253.061 309.421 253.046 308.572C253.095 307.056 252.796 305.55 252.171 304.169C251.304 302.2 249.803 300.578 247.908 299.56C246.013 298.542 243.832 298.186 241.711 298.549C241.256 298.62 240.807 298.731 240.371 298.882C240.076 298.996 239.924 299.063 239.933 299.082C239.943 299.101 240.57 298.882 241.74 298.739C243.393 298.539 245.07 298.755 246.618 299.367C248.912 300.287 250.748 302.079 251.724 304.35C252.305 305.669 252.581 307.102 252.533 308.543C252.553 309.27 252.294 309.978 251.81 310.521C251.537 310.753 251.209 310.91 250.857 310.977C250.505 311.043 250.142 311.017 249.804 310.901C249.099 310.641 248.508 310.143 248.13 309.494C247.752 308.853 247.524 308.134 247.464 307.392C247.365 305.964 247.765 304.545 248.596 303.38C249.368 302.333 250.401 301.507 251.591 300.983C252.632 300.511 253.744 300.215 254.881 300.109C256.544 299.984 258.216 300.103 259.845 300.46C261.072 300.698 261.709 300.869 261.728 300.831Z" fill="#2F3646"/>
<g opacity="0.3">
<path opacity="0.3" d="M207.087 322.35C211.042 320.115 214.913 318.394 219.049 316.521C223.185 314.648 227.246 312.223 229.956 308.571C235.062 301.687 234.482 291.75 239.703 284.96C239.36 289.525 239.021 294.092 238.685 298.663C238.371 302.847 239.008 306.993 236.317 309.836C234.045 312.232 229.614 314.068 226.476 315.104C220.171 317.187 213.382 320.277 207.087 322.35" fill="#2F3646"/>
</g>
<path d="M142.731 374.507C142.731 374.507 111.76 383.065 110.514 383.522C108.612 384.178 108.964 391.015 111.864 390.901C113.243 390.853 135.637 391.738 138.49 391.567C141.342 391.395 149.9 388.02 149.9 388.02L142.731 374.507Z" fill="#F995A6"/>
<path d="M129.867 386.327C129.484 385.189 129.027 384.077 128.497 382.999C127.831 382.002 127.1 381.049 126.31 380.146C127.412 380.749 128.327 381.644 128.954 382.733C129.581 383.821 129.897 385.061 129.867 386.317V386.327Z" fill="#2F3646"/>
<path d="M133.097 384.863C132.945 384.863 132.631 383.427 131.803 381.81C130.976 380.194 130.006 379.062 130.111 378.958C131.015 379.661 131.751 380.557 132.268 381.58C132.784 382.602 133.067 383.727 133.097 384.872V384.863Z" fill="#2F3646"/>
<path d="M136.077 384.054C135.925 382.946 135.684 381.852 135.355 380.783C134.869 379.774 134.306 378.805 133.672 377.883C134.654 378.544 135.41 379.489 135.84 380.592C136.27 381.695 136.353 382.903 136.077 384.054Z" fill="#2F3646"/>
<path d="M135.57 380.051C135.297 379.316 135.183 378.532 135.237 377.75C135.247 376.897 135.352 376.049 135.551 375.22C135.67 374.731 135.825 374.251 136.016 373.784C136.106 373.489 136.278 373.226 136.511 373.024C136.667 372.908 136.859 372.85 137.054 372.861C137.248 372.871 137.433 372.949 137.576 373.081C137.816 373.311 137.962 373.623 137.985 373.956C138.008 374.228 138.008 374.501 137.985 374.773C137.982 375.283 137.918 375.791 137.795 376.285C137.589 377.115 137.269 377.912 136.844 378.653C136.503 379.368 136.032 380.013 135.455 380.555C135.379 380.555 135.902 379.785 136.52 378.52C136.882 377.788 137.153 377.016 137.329 376.219C137.429 375.753 137.48 375.278 137.481 374.802C137.481 374.326 137.481 373.737 137.196 373.509C137.14 373.458 137.067 373.43 136.991 373.43C136.916 373.43 136.843 373.458 136.787 373.509C136.632 373.66 136.515 373.846 136.444 374.051C136.262 374.498 136.107 374.955 135.978 375.42C135.761 376.209 135.624 377.018 135.57 377.835C135.512 379.167 135.655 380.041 135.57 380.051Z" fill="#2F3646"/>
<path d="M135.61 379.737C136.241 379.474 136.925 379.363 137.606 379.414C138.347 379.414 139.084 379.503 139.803 379.68C140.246 379.781 140.674 379.937 141.077 380.146C141.331 380.275 141.536 380.483 141.661 380.739C141.786 380.994 141.825 381.283 141.771 381.563C141.7 381.83 141.56 382.073 141.365 382.269C141.169 382.464 140.926 382.604 140.659 382.675C140.203 382.79 139.726 382.79 139.271 382.675C138.538 382.508 137.85 382.184 137.255 381.725C136.691 381.347 136.204 380.866 135.819 380.308C136.391 380.642 136.94 381.014 137.464 381.42C138.039 381.815 138.685 382.096 139.366 382.248C139.743 382.343 140.139 382.343 140.516 382.248C140.695 382.202 140.858 382.111 140.99 381.982C141.122 381.854 141.218 381.693 141.267 381.515C141.296 381.341 141.267 381.162 141.185 381.006C141.103 380.85 140.971 380.725 140.811 380.65C140.458 380.456 140.081 380.308 139.689 380.213C139.006 380.018 138.305 379.897 137.597 379.851C136.389 379.699 135.629 379.823 135.61 379.737Z" fill="#2F3646"/>
<path d="M125.11 386.66C124.977 385.713 124.77 384.779 124.491 383.864C124.057 383.015 123.551 382.204 122.98 381.439C123.882 381.931 124.586 382.719 124.974 383.67C125.362 384.622 125.41 385.678 125.11 386.66V386.66Z" fill="#2F3646"/>
<path d="M146.719 388.096C146.344 388.333 145.941 388.525 145.521 388.666C144.397 389.093 143.247 389.449 142.078 389.731C138.195 390.578 134.223 390.955 130.249 390.853C125.609 390.796 121.425 390.587 118.391 390.463L114.806 390.273C114.366 390.266 113.927 390.221 113.494 390.14C113.931 390.071 114.374 390.049 114.816 390.074H118.401L130.249 390.302C134.186 390.403 138.123 390.084 141.993 389.351C144.96 388.752 146.681 387.991 146.719 388.096Z" fill="#2F3646"/>
<path d="M147.629 388.799C147.629 388.866 146.745 388.372 145.309 387.744C143.485 386.882 141.455 386.553 139.452 386.793C137.482 387.22 135.703 388.274 134.383 389.798C133.834 390.447 133.24 391.057 132.605 391.624C133.013 390.867 133.522 390.17 134.117 389.551C134.728 388.841 135.417 388.203 136.171 387.649C137.116 386.949 138.215 386.486 139.376 386.299C141.477 386.044 143.606 386.446 145.471 387.449C146.258 387.78 146.987 388.236 147.629 388.799V388.799Z" fill="#2F3646"/>
<path d="M175.64 365.959C175.64 365.959 204.947 385.148 205.993 385.928C207.572 387.117 205.765 392.793 203.026 391.814C201.733 391.348 177.143 384.502 174.499 383.475C171.856 382.448 164.733 376.685 164.733 376.685L175.64 365.959Z" fill="#F995A6"/>
<path d="M184.343 381.135C184.697 379.929 185.375 378.842 186.304 377.996C187.233 377.149 188.377 376.574 189.611 376.333C188.581 376.951 187.593 377.637 186.654 378.387C185.827 379.254 185.056 380.172 184.343 381.135V381.135Z" fill="#2F3646"/>
<path d="M181.719 378.758C182.092 377.673 182.701 376.683 183.502 375.861C184.302 375.039 185.275 374.405 186.35 374.003C186.426 374.137 185.143 374.954 183.878 376.21C182.613 377.465 181.853 378.834 181.719 378.758Z" fill="#2F3646"/>
<path d="M179.073 377.065C179.077 375.869 179.532 374.718 180.348 373.842C181.029 372.875 182.046 372.197 183.2 371.94C182.318 372.629 181.489 373.382 180.718 374.194C180.095 375.106 179.545 376.066 179.073 377.065V377.065Z" fill="#2F3646"/>
<path d="M180.768 373.423C180.692 373.423 181.091 372.596 181.424 371.227C181.624 370.433 181.742 369.62 181.776 368.802C181.808 368.321 181.808 367.838 181.776 367.357C181.779 367.14 181.723 366.926 181.614 366.739C181.573 366.674 181.508 366.628 181.434 366.61C181.359 366.592 181.281 366.604 181.215 366.644C180.882 366.777 180.711 367.347 180.549 367.804C180.41 368.256 180.314 368.721 180.264 369.192C180.19 370.007 180.216 370.827 180.34 371.636C180.54 373.024 180.815 373.87 180.739 373.899C180.348 373.219 180.089 372.47 179.979 371.693C179.796 370.86 179.732 370.005 179.788 369.154C179.827 368.645 179.919 368.141 180.064 367.652C180.142 367.389 180.238 367.132 180.349 366.881C180.476 366.57 180.713 366.316 181.015 366.168C181.191 366.086 181.391 366.069 181.579 366.119C181.767 366.17 181.931 366.285 182.042 366.444C182.199 366.708 182.282 367.011 182.28 367.319C182.384 368.673 182.23 370.035 181.823 371.331C181.623 372.096 181.263 372.809 180.768 373.423V373.423Z" fill="#2F3646"/>
<path d="M180.872 373.109C180.872 373.186 180.149 372.843 178.97 372.548C178.281 372.383 177.577 372.288 176.868 372.263C176.464 372.236 176.058 372.261 175.661 372.339C175.486 372.363 175.323 372.443 175.196 372.566C175.07 372.689 174.986 372.85 174.957 373.024C174.949 373.213 174.991 373.401 175.08 373.568C175.169 373.735 175.3 373.875 175.461 373.975C175.788 374.181 176.16 374.305 176.545 374.336C177.24 374.404 177.941 374.333 178.608 374.127C179.228 373.895 179.864 373.707 180.51 373.566C179.974 373.994 179.361 374.317 178.704 374.517C177.998 374.787 177.242 374.901 176.488 374.85C176.019 374.825 175.564 374.681 175.166 374.431C174.931 374.287 174.739 374.082 174.61 373.837C174.481 373.593 174.42 373.319 174.434 373.043C174.468 372.76 174.592 372.495 174.79 372.289C174.987 372.083 175.246 371.947 175.528 371.902C175.973 371.823 176.427 371.804 176.878 371.845C177.617 371.894 178.348 372.032 179.055 372.254C179.719 372.395 180.34 372.688 180.872 373.109V373.109Z" fill="#2F3646"/>
<path d="M199.304 390.758C199.304 390.806 198.809 390.464 198.581 389.627C198.353 388.533 198.551 387.394 199.133 386.441C199.414 385.931 199.732 385.442 200.084 384.977C200.369 384.581 200.705 384.223 201.082 383.912C201.352 383.689 201.684 383.553 202.033 383.522C202.28 383.522 202.404 383.57 202.404 383.598C202.404 383.627 201.881 383.646 201.339 384.197C201.019 384.52 200.735 384.878 200.492 385.262C200.151 385.721 199.834 386.197 199.542 386.688C199.016 387.542 198.789 388.545 198.895 389.541C199.007 389.955 199.143 390.361 199.304 390.758V390.758Z" fill="#2F3646"/>
<path d="M188.777 382.894C188.737 382.38 188.81 381.863 188.988 381.378C189.167 380.894 189.449 380.454 189.813 380.089C190.106 379.664 190.488 379.308 190.934 379.047C191.379 378.786 191.876 378.625 192.39 378.577C191.613 379.129 190.884 379.746 190.213 380.422C189.665 381.204 189.185 382.031 188.777 382.894V382.894Z" fill="#2F3646"/>
<path d="M167.749 377.702C168.205 377.956 168.638 378.248 169.043 378.577C170.204 379.383 171.411 380.123 172.656 380.793C174.499 381.77 176.405 382.625 178.361 383.351C180.587 384.178 183.116 384.958 185.702 385.718C190.98 387.24 195.754 388.628 199.196 389.665L203.294 390.948C203.8 391.082 204.293 391.261 204.768 391.481C204.25 391.41 203.738 391.299 203.237 391.148L199.12 389.997C195.649 389.046 190.866 387.715 185.588 386.194C182.954 385.424 180.453 384.625 178.228 383.769C176.248 383.016 174.325 382.12 172.475 381.087C171.233 380.384 170.044 379.589 168.919 378.71C168.502 378.407 168.111 378.07 167.749 377.702V377.702Z" fill="#2F3646"/>
<path d="M166.665 378.092C167.453 377.745 168.29 377.52 169.147 377.426C171.23 377.04 173.382 377.306 175.309 378.187C176.35 378.732 177.244 379.522 177.914 380.488C178.466 381.251 178.928 382.074 179.293 382.941C179.674 383.711 179.946 384.531 180.101 385.376C179.671 384.641 179.289 383.879 178.96 383.094C178.167 381.237 176.792 379.688 175.042 378.681C173.202 377.853 171.165 377.56 169.166 377.835C167.644 377.959 166.684 378.168 166.665 378.092Z" fill="#2F3646"/>
<path d="M114.735 319.165C114.735 319.165 105.939 322.302 105.91 332.163C105.834 351.039 144.061 371.854 144.061 371.854L194.934 338.154L198.12 336.861C198.12 336.861 129.417 311.072 114.735 319.165Z" fill="#2F3646"/>
<path d="M114.735 319.165C114.735 319.165 105.939 322.302 105.91 332.163C105.834 351.039 144.061 371.854 144.061 371.854L194.934 338.154L198.12 336.861C198.12 336.861 129.417 311.072 114.735 319.165Z" fill="url(#paint1_linear_786:10795)"/>
<path d="M169.169 355.175C168.701 354.915 168.256 354.616 167.838 354.281C167.011 353.672 165.822 352.779 164.367 351.647C161.448 349.403 157.492 346.208 153.223 342.547C148.953 338.886 145.207 335.453 142.544 332.914C141.213 331.649 140.148 330.603 139.416 329.871C139.02 329.514 138.657 329.123 138.332 328.702C138.769 329.008 139.18 329.352 139.558 329.729L142.791 332.648C145.52 335.111 149.305 338.505 153.565 342.157C157.825 345.808 161.743 349.042 164.586 351.362L167.962 354.119C168.392 354.439 168.796 354.791 169.169 355.175V355.175Z" fill="#455A64"/>
<path d="M129.097 326.22C132.423 325.868 135.754 326.849 138.358 328.949C138.273 329.092 136.457 327.903 133.851 327.162C131.246 326.42 129.097 326.382 129.097 326.22Z" fill="#455A64"/>
<path d="M133.477 323.244C134.654 323.744 135.69 324.526 136.493 325.521C137.295 326.516 137.84 327.694 138.08 328.95C137.927 328.95 137.376 327.419 136.092 325.85C134.809 324.281 133.392 323.377 133.477 323.244Z" fill="#455A64"/>
<path d="M111.941 383.037C111.941 382.98 112.55 382.856 113.253 383.436C114.082 384.209 114.603 385.257 114.718 386.384C114.885 387.493 114.726 388.626 114.261 389.646C113.9 390.416 113.501 390.777 113.453 390.739C113.579 390.317 113.734 389.903 113.919 389.503C114.252 388.525 114.35 387.483 114.204 386.46C114.091 385.441 113.674 384.48 113.006 383.703C112.464 383.142 111.932 383.123 111.941 383.037Z" fill="#2F3646"/>
<path d="M126.443 288.308L144.558 334.237L222.561 335.511L224.006 331.289L196.668 330.3L183.526 289.554L126.443 288.308Z" fill="#455A64"/>
<path d="M162.873 308.22C162.274 307.919 161.601 307.798 160.935 307.87C160.268 307.943 159.637 308.206 159.117 308.629C158.675 309.044 158.369 309.583 158.238 310.175C158.108 310.767 158.159 311.385 158.385 311.947C158.629 312.509 159.026 312.991 159.53 313.339C160.034 313.687 160.626 313.887 161.237 313.916C161.881 313.957 162.521 313.787 163.06 313.432C163.599 313.077 164.007 312.555 164.223 311.947C164.427 311.267 164.41 310.54 164.174 309.87C163.938 309.2 163.496 308.622 162.911 308.22" fill="#EBEBEB"/>
<path d="M139.254 374.155C139.254 374.155 211.123 327.009 214.052 326.03C216.981 325.05 224.113 320.391 231.216 322.35C238.319 324.309 244.709 330.689 247.895 340.008C249.721 345.333 250.577 354.414 250.985 361.232C251.53 369.385 248.888 377.431 243.616 383.674C241.28 386.587 238.178 388.79 234.658 390.035C233.907 390.273 233.127 390.473 232.329 390.644C218.74 393.592 204.752 387.487 197.145 375.867L195.472 373.318C195.472 373.318 148.449 390.587 147.717 390.349L139.254 374.155Z" fill="#2F3646"/>
<path d="M139.254 374.155C139.254 374.155 211.123 327.009 214.052 326.03C216.981 325.05 224.113 320.391 231.216 322.35C238.319 324.309 244.709 330.689 247.895 340.008C249.721 345.333 250.577 354.414 250.985 361.232C251.53 369.385 248.888 377.431 243.616 383.674C241.28 386.587 238.178 388.79 234.658 390.035C233.907 390.273 233.127 390.473 232.329 390.644C218.74 393.592 204.752 387.487 197.145 375.867L195.472 373.318C195.472 373.318 148.449 390.587 147.717 390.349L139.254 374.155Z" fill="url(#paint2_linear_786:10795)"/>
<path d="M228.161 361.176C228.034 361.24 227.904 361.297 227.771 361.347L226.592 361.813L222.037 363.572L205.102 369.952C197.913 372.634 189.298 375.829 179.627 379.347C169.956 382.866 159.249 386.717 147.8 390.587L147.6 390.663L147.496 390.463L141.876 379.737L139.023 374.27L138.919 374.06L139.118 373.937L193.938 339.134L210.408 328.75L214.877 325.954L216.047 325.241C216.313 325.079 216.455 325.013 216.455 325.013L216.075 325.288L214.934 326.04L210.512 328.892L194.081 339.438L139.347 374.374L139.442 374.032C140.345 375.772 141.344 377.626 142.294 379.5L147.905 390.226L147.591 390.102C159.002 386.241 169.747 382.4 179.427 378.91L204.94 369.629L221.971 363.372L226.554 361.699L227.752 361.28L228.161 361.176Z" fill="#455A64"/>
<path d="M220.707 193.769C219.48 190.45 216.77 189.014 213.338 188.187C211.611 187.785 209.813 187.806 208.096 188.248C206.379 188.69 204.795 189.54 203.477 190.726C201.737 192.314 200.462 194.53 198.313 195.48C194.766 197.087 190.231 194.739 186.903 196.707C185.903 197.296 185.138 198.213 184.738 199.302C184.338 200.392 184.327 201.586 184.708 202.682C185.09 203.778 185.838 204.708 186.828 205.314C187.817 205.92 188.986 206.165 190.136 206.007C187.825 207.091 187.397 210.571 188.985 212.568C190.573 214.565 193.511 215.107 195.974 214.413C198.402 213.577 200.555 212.094 202.203 210.124C203.933 208.223 205.455 206.178 207.337 204.419C209.145 202.583 211.543 201.445 214.108 201.205C217.56 201.072 220.764 203.401 222.561 206.34C224.359 209.278 225.053 212.768 225.557 216.191C226.061 219.614 226.441 223.095 227.763 226.29C227.915 226.67 228.143 227.079 228.533 227.165C229.113 227.288 229.532 226.651 229.76 226.109C232.362 220.002 233.738 213.443 233.811 206.806C233.858 203.002 233.421 199.36 231.034 196.346C228.647 193.331 223.141 191.458 220.736 193.721" fill="#2F3646"/>
<path d="M228.563 209.141L228.563 209.141L233.85 247.538L228.563 209.141ZM228.563 209.141L228.562 209.135M228.563 209.141L228.562 209.135M228.562 209.135C228.002 204.112 226.027 199.686 222.957 196.699C219.894 193.717 215.73 192.155 210.747 192.865L209.804 193.044C209.803 193.044 209.803 193.044 209.802 193.044C205.376 193.928 201.444 196.444 198.786 200.092C196.128 203.74 194.938 208.255 195.454 212.739C196.491 221.527 197.773 231.214 198.722 235.833C199.718 240.522 202.63 242.751 205.3 243.817C206.638 244.352 207.916 244.593 208.861 244.701C209.332 244.755 209.72 244.775 209.988 244.782C210.122 244.785 210.226 244.785 210.296 244.785C210.331 244.784 210.358 244.784 210.375 244.783L210.395 244.783L210.399 244.782L210.4 244.782L210.4 244.782L210.609 244.773L210.655 244.977C210.691 245.138 210.793 245.838 210.932 246.834C211.06 247.754 211.223 248.943 211.399 250.232L211.448 250.59C211.84 253.462 213.323 256.074 215.588 257.884C217.853 259.693 220.728 260.563 223.616 260.311L223.638 260.56M228.562 209.135L223.638 260.56M223.638 260.56L223.617 260.311C225.143 260.183 226.626 259.745 227.977 259.025C229.329 258.305 230.519 257.317 231.476 256.122C232.434 254.927 233.138 253.55 233.546 252.074C233.954 250.599 234.057 249.056 233.85 247.539L223.638 260.56Z" fill="white" stroke="#2F3646" stroke-width="0.5"/>
<path d="M210.827 243.735C215.278 242.918 219.386 240.796 222.628 237.64C222.628 237.64 221.049 245.133 211.303 246.198L210.827 243.735Z" fill="#D4BFC4"/>
<path d="M199.341 218.644C199.408 219.002 199.613 219.319 199.912 219.528C200.211 219.736 200.579 219.818 200.938 219.757C201.115 219.737 201.286 219.682 201.441 219.594C201.596 219.507 201.732 219.389 201.84 219.248C201.948 219.107 202.027 218.945 202.072 218.773C202.116 218.6 202.125 218.421 202.098 218.245C202.033 217.885 201.829 217.566 201.53 217.356C201.231 217.146 200.861 217.062 200.501 217.123C200.324 217.144 200.152 217.2 199.997 217.289C199.842 217.377 199.707 217.496 199.598 217.638C199.49 217.78 199.412 217.942 199.367 218.115C199.323 218.288 199.314 218.468 199.341 218.644Z" fill="#2F3646"/>
<path d="M198.253 217.066C198.462 217.218 199.347 216.239 200.821 215.944C202.295 215.649 203.531 216.182 203.673 215.944C203.816 215.706 203.493 215.564 202.951 215.316C202.228 214.995 201.422 214.912 200.649 215.079C199.882 215.225 199.182 215.616 198.653 216.191C198.244 216.648 198.158 217.009 198.253 217.066Z" fill="#2F3646"/>
<path d="M213.91 216.248C213.975 216.607 214.179 216.927 214.478 217.137C214.777 217.347 215.147 217.431 215.508 217.37C215.685 217.348 215.855 217.29 216.01 217.202C216.165 217.113 216.301 216.995 216.41 216.853C216.518 216.712 216.598 216.55 216.644 216.378C216.69 216.205 216.701 216.025 216.677 215.848C216.606 215.492 216.4 215.177 216.102 214.968C215.805 214.76 215.439 214.673 215.08 214.726C214.902 214.747 214.73 214.804 214.575 214.892C214.42 214.98 214.283 215.099 214.174 215.241C214.065 215.382 213.986 215.545 213.94 215.718C213.895 215.89 213.885 216.071 213.91 216.248V216.248Z" fill="#2F3646"/>
<path d="M212.812 214.451C213.021 214.594 213.905 213.614 215.379 213.319C216.853 213.025 218.089 213.557 218.232 213.319C218.375 213.082 218.051 212.939 217.509 212.692C216.785 212.375 215.981 212.292 215.208 212.454C214.441 212.61 213.74 212.998 213.202 213.567C212.802 214.08 212.717 214.384 212.812 214.451Z" fill="#2F3646"/>
<path d="M209.644 226.442C208.818 226.35 207.984 226.366 207.162 226.489C206.772 226.489 206.401 226.489 206.287 226.271C206.167 225.893 206.167 225.488 206.287 225.11C206.459 224.16 206.639 223.094 206.829 222.01C207.562 217.617 208.008 214.042 207.837 214.013C207.666 213.985 206.886 217.522 206.192 221.915C206.021 222.999 205.85 224.026 205.698 225.015C205.549 225.519 205.586 226.059 205.802 226.537C205.883 226.657 205.99 226.757 206.115 226.83C206.241 226.902 206.381 226.945 206.525 226.955C206.743 226.986 206.964 226.986 207.181 226.955C208.02 226.887 208.848 226.715 209.644 226.442V226.442Z" fill="#2F3646"/>
<path d="M214.19 226.613C213.943 226.613 214.266 228.249 213.125 229.656C211.984 231.063 210.272 231.234 210.272 231.463C210.272 231.691 210.71 231.691 211.433 231.567C212.374 231.394 213.225 230.896 213.838 230.16C214.419 229.447 214.702 228.537 214.628 227.621C214.551 226.936 214.295 226.575 214.19 226.613Z" fill="#2F3646"/>
<path d="M211.283 208.736C211.502 209.117 212.937 208.632 214.716 208.489C216.494 208.346 217.977 208.546 218.139 208.137C218.205 207.947 217.882 207.624 217.245 207.348C216.4 207.014 215.488 206.884 214.583 206.967C213.672 207.037 212.792 207.324 212.015 207.804C211.435 208.185 211.197 208.565 211.283 208.736Z" fill="#2F3646"/>
<path d="M197.951 212.692C198.275 212.977 199.216 212.425 200.443 212.159C201.669 211.893 202.744 211.94 202.906 211.541C202.982 211.351 202.754 211.047 202.231 210.818C201.549 210.55 200.802 210.5 200.091 210.676C199.374 210.827 198.724 211.203 198.237 211.75C197.885 212.178 197.799 212.549 197.951 212.692Z" fill="#2F3646"/>
<path d="M229.445 216.372C229.597 216.267 235.654 213.1 236.757 219.709C237.861 226.318 230.995 226.061 230.957 225.871C230.919 225.681 229.445 216.372 229.445 216.372Z" fill="#D4BFC4"/>
<path d="M232.553 223.028C232.553 223.028 232.676 223.094 232.886 223.151C233.179 223.222 233.489 223.177 233.751 223.028C234.136 222.688 234.422 222.251 234.579 221.762C234.737 221.274 234.759 220.752 234.645 220.251C234.569 219.68 234.364 219.134 234.046 218.654C233.956 218.456 233.82 218.284 233.649 218.15C233.479 218.016 233.279 217.924 233.066 217.883C232.927 217.872 232.788 217.909 232.673 217.989C232.559 218.069 232.476 218.186 232.439 218.321C232.382 218.511 232.439 218.644 232.439 218.654C232.439 218.663 232.277 218.568 232.286 218.292C232.296 218.123 232.364 217.962 232.477 217.836C232.554 217.751 232.647 217.682 232.752 217.635C232.857 217.587 232.97 217.562 233.085 217.56C233.364 217.568 233.637 217.648 233.876 217.791C234.116 217.934 234.315 218.136 234.454 218.378C234.832 218.904 235.077 219.514 235.168 220.156C235.348 221.497 234.873 222.857 233.96 223.284C233.791 223.366 233.606 223.409 233.418 223.409C233.23 223.409 233.045 223.366 232.876 223.284C232.591 223.189 232.534 223.047 232.553 223.028Z" fill="#2F3646"/>
<path d="M192.824 211.227C195.059 211.348 197.29 210.937 199.335 210.028C201.38 209.118 203.18 207.737 204.587 205.997C206.489 203.544 207.754 200.34 210.502 198.856C211.448 198.39 212.478 198.117 213.53 198.052C214.583 197.986 215.638 198.131 216.635 198.476C218.619 199.185 220.438 200.292 221.979 201.728C221.104 206.977 223.434 212.188 225.707 216.942C225.903 217.503 226.281 217.982 226.781 218.302C227.675 218.749 228.74 218.045 229.282 217.199C230.042 215.78 230.372 214.171 230.233 212.568C230.213 208.915 229.469 205.302 228.046 201.937C226.601 198.562 224.197 195.686 221.133 193.664C217.203 191.265 212.495 190.484 208.001 191.487C203.532 192.526 199.504 194.945 196.485 198.4C195.015 199.931 193.946 201.803 193.376 203.848" fill="#2F3646"/>
<path d="M458.945 366.082C458.903 365.943 458.846 365.809 458.774 365.683L458.241 364.532C457.586 363.045 457.054 361.505 456.653 359.93C455.607 355.841 455.246 349.594 456.796 342.177C457.63 338.131 458.729 334.144 460.086 330.243C461.484 326.011 463.1 321.523 464.422 316.664C465.914 311.596 466.636 306.332 466.562 301.05C466.362 295.525 464.726 290.01 462.929 284.523C461.132 279.037 459.278 273.654 458.726 268.253C458.103 263.056 459.145 257.796 461.703 253.229C464.089 248.836 467.075 245.089 469.31 241.2C471.404 237.599 472.949 233.704 473.893 229.647C475.24 223.764 475.337 217.664 474.178 211.741C473.752 209.576 473.115 207.458 472.277 205.417C472.299 205.563 472.334 205.706 472.381 205.845L472.762 207.053C474.999 214.356 475.239 222.125 473.456 229.551C472.503 233.563 470.955 237.409 468.863 240.962C466.628 244.766 463.623 248.57 461.199 252.972C458.601 257.629 457.54 262.987 458.165 268.282C458.726 273.778 460.6 279.189 462.387 284.675C464.175 290.162 465.801 295.611 466.001 301.04C466.083 306.27 465.381 311.481 463.918 316.502C462.615 321.333 461.008 325.821 459.639 330.072C458.293 333.995 457.21 338.004 456.397 342.072C454.885 349.546 455.322 355.86 456.397 359.959C456.816 361.539 457.382 363.077 458.089 364.551C458.336 365.027 458.536 365.398 458.679 365.683C458.754 365.824 458.844 365.958 458.945 366.082V366.082Z" fill="#2F3646"/>
<path d="M466.279 245.032C466.279 245.032 470.834 230.484 462.666 221.963C462.603 221.895 462.521 221.845 462.432 221.82C462.342 221.795 462.247 221.795 462.157 221.821C462.067 221.846 461.986 221.896 461.924 221.965C461.861 222.034 461.818 222.119 461.8 222.211C461.363 224.616 460.821 231.938 466.279 245.032Z" fill="#F995A6"/>
<path d="M463.549 226.813C463.564 227.715 463.669 228.613 463.863 229.495C464.158 231.396 464.51 233.517 464.899 235.913C465.289 238.309 465.622 240.487 465.917 242.332C465.994 243.233 466.156 244.124 466.402 244.994C466.479 244.091 466.45 243.181 466.316 242.284C466.164 240.62 465.869 238.338 465.46 235.828C465.052 233.317 464.614 231.073 464.253 229.428C464.119 228.532 463.883 227.655 463.549 226.813V226.813Z" fill="#2F3646"/>
<path d="M460.932 279.36C460.932 279.36 458.146 264.364 446.944 260.675C446.856 260.644 446.761 260.638 446.67 260.658C446.578 260.679 446.494 260.724 446.427 260.789C446.36 260.854 446.313 260.936 446.29 261.027C446.267 261.118 446.27 261.213 446.298 261.302C447.02 263.603 449.978 270.336 460.932 279.36Z" fill="#F995A6"/>
<path d="M449.998 264.525C450.433 265.316 450.945 266.062 451.529 266.751C452.651 268.253 453.982 270.003 455.446 271.942L459.383 277.144C459.875 277.901 460.435 278.611 461.057 279.264C460.703 278.429 460.253 277.637 459.716 276.906C458.765 275.508 457.481 273.626 455.912 271.6C454.343 269.575 452.926 267.797 451.852 266.503C451.312 265.775 450.69 265.111 449.998 264.525V264.525Z" fill="#2F3646"/>
<path d="M463.958 316.968C463.958 316.968 465.651 301.811 456.009 295.002C455.933 294.948 455.843 294.915 455.75 294.909C455.657 294.902 455.563 294.921 455.48 294.965C455.397 295.008 455.328 295.074 455.28 295.154C455.233 295.235 455.208 295.327 455.21 295.421C455.239 297.855 456.104 305.149 463.958 316.968Z" fill="#F995A6"/>
<path d="M457.809 299.595C457.99 300.48 458.264 301.344 458.626 302.172C459.273 303.931 460.024 305.975 460.871 308.276L463.086 314.381C463.322 315.25 463.64 316.094 464.037 316.901C463.936 316 463.736 315.114 463.438 314.258C462.972 312.651 462.249 310.454 461.365 308.077C460.481 305.7 459.615 303.56 458.959 302.029C458.669 301.177 458.283 300.36 457.809 299.595V299.595Z" fill="#2F3646"/>
<path d="M455.524 354.814C455.524 354.814 456.674 339.599 446.795 333.152C446.717 333.099 446.627 333.069 446.533 333.064C446.44 333.06 446.347 333.081 446.265 333.127C446.183 333.172 446.115 333.239 446.069 333.321C446.023 333.403 446.001 333.496 446.005 333.59C446.129 336.015 447.251 343.27 455.524 354.814Z" fill="#F995A6"/>
<path d="M448.754 337.698C448.982 338.578 449.301 339.432 449.705 340.246C450.418 341.977 451.245 344.05 452.168 346.256L454.612 352.285C454.861 353.124 455.185 353.938 455.582 354.719C455.454 353.823 455.221 352.945 454.887 352.104C454.374 350.516 453.566 348.357 452.596 346.009C451.626 343.66 450.694 341.549 449.981 340.046C449.659 339.221 449.248 338.433 448.754 337.698V337.698Z" fill="#2F3646"/>
<path d="M472.821 232.252C472.821 232.252 486.333 225.196 486.6 213.395C486.604 213.302 486.582 213.209 486.536 213.127C486.49 213.045 486.422 212.978 486.34 212.932C486.258 212.887 486.165 212.865 486.072 212.87C485.978 212.874 485.888 212.905 485.81 212.958C483.804 214.346 478.241 219.129 472.821 232.252Z" fill="#F995A6"/>
<path d="M483.797 217.447C483.166 218.091 482.602 218.799 482.114 219.558L478.311 224.826L474.507 230.084C473.928 230.775 473.412 231.516 472.967 232.3C473.682 231.727 474.321 231.066 474.868 230.332C475.943 229.057 477.36 227.232 478.843 225.168C480.327 223.105 481.62 221.193 482.523 219.786C483.036 219.057 483.463 218.273 483.797 217.447V217.447Z" fill="#2F3646"/>
<path d="M458.306 263.527C458.306 263.527 472.218 257.309 473.207 245.546C473.215 245.453 473.197 245.361 473.156 245.278C473.114 245.195 473.051 245.125 472.972 245.076C472.893 245.026 472.803 245 472.71 244.999C472.617 244.998 472.526 245.023 472.446 245.07C470.354 246.297 464.506 250.738 458.306 263.527Z" fill="#F995A6"/>
<path d="M470.158 249.397C469.491 250.004 468.885 250.676 468.351 251.403L464.225 256.434L460.088 261.445C459.471 262.084 458.917 262.782 458.434 263.527C459.159 262.969 459.819 262.331 460.402 261.626C461.553 260.408 463.074 258.678 464.681 256.709C466.288 254.741 467.695 252.906 468.675 251.565C469.25 250.901 469.747 250.173 470.158 249.397Z" fill="#2F3646"/>
<path d="M466.314 298.369C466.314 298.369 475.87 286.482 471.382 275.547C471.348 275.46 471.29 275.385 471.216 275.329C471.142 275.273 471.054 275.239 470.961 275.23C470.869 275.221 470.776 275.238 470.692 275.279C470.609 275.32 470.538 275.383 470.488 275.461C469.204 277.563 466.038 284.172 466.314 298.369Z" fill="#F995A6"/>
<path d="M470.441 280.406C470.121 281.248 469.889 282.121 469.747 283.011C469.348 284.846 468.882 286.996 468.359 289.373C467.836 291.75 467.408 293.89 466.961 295.715C466.706 296.582 466.531 297.47 466.438 298.368C466.86 297.562 467.18 296.706 467.389 295.82C467.864 294.213 468.425 292.016 468.958 289.487C469.49 286.957 469.909 284.732 470.175 283.097C470.362 282.212 470.451 281.31 470.441 280.406V280.406Z" fill="#2F3646"/>
<path d="M456.846 339.39C456.846 339.39 470.663 332.943 471.442 321.152C471.448 321.06 471.429 320.969 471.387 320.887C471.345 320.806 471.281 320.737 471.203 320.689C471.124 320.641 471.034 320.616 470.943 320.615C470.851 320.615 470.76 320.639 470.682 320.686C468.609 321.989 462.837 326.525 456.846 339.39Z" fill="#F995A6"/>
<path d="M468.469 325.08C467.809 325.696 467.213 326.378 466.691 327.115C465.53 328.588 464.161 330.31 462.649 332.211L458.598 337.299C457.989 337.964 457.442 338.683 456.963 339.448C457.67 338.892 458.309 338.253 458.865 337.546C459.987 336.319 461.48 334.56 463.049 332.563C464.618 330.566 466.044 328.722 466.995 327.362C467.566 326.656 468.061 325.891 468.469 325.08V325.08Z" fill="#2F3646"/>
<path d="M429.334 279.436C429.321 279.55 429.321 279.665 429.334 279.778C429.334 280.045 429.334 280.358 429.334 280.729C429.334 281.68 429.429 282.888 429.495 284.428C429.676 287.68 429.923 292.207 430.218 297.636C431.169 303.152 434.022 309.266 437.825 315.2C440.593 319.574 443.531 323.558 445.994 327.257C448.271 330.486 450.32 333.87 452.127 337.384C453.308 339.768 454.264 342.258 454.98 344.82C455.227 345.724 455.408 346.437 455.512 346.922C455.554 347.172 455.621 347.417 455.712 347.654C455.709 347.401 455.68 347.15 455.626 346.903C455.56 346.408 455.408 345.686 455.198 344.763C454.553 342.142 453.642 339.593 452.479 337.156C450.711 333.599 448.687 330.177 446.422 326.915C443.94 323.187 441.049 319.203 438.291 314.857C434.488 308.943 431.749 302.923 430.684 297.494C430.304 292.083 429.99 287.557 429.733 284.305C429.61 282.764 429.505 281.528 429.438 280.615C429.438 280.235 429.362 279.911 429.334 279.664C429.342 279.588 429.342 279.512 429.334 279.436V279.436Z" fill="#2F3646"/>
<path d="M437.517 314.115C437.517 314.115 431.668 300.032 439.028 290.809C439.086 290.735 439.162 290.678 439.249 290.645C439.337 290.612 439.432 290.604 439.523 290.621C439.615 290.639 439.7 290.682 439.769 290.745C439.838 290.809 439.888 290.89 439.913 290.98C440.607 293.338 441.815 300.612 437.517 314.115Z" fill="#F995A6"/>
<path d="M438.628 295.725C438.375 296.593 438.219 297.486 438.162 298.388C437.952 300.042 437.724 302.334 437.544 304.873C437.363 307.412 437.277 309.713 437.277 311.377C437.219 312.28 437.273 313.188 437.439 314.078C437.604 313.193 437.684 312.295 437.677 311.396C437.8 309.494 437.952 307.336 438.114 304.911C438.276 302.486 438.437 300.289 438.561 298.426C438.672 297.53 438.694 296.625 438.628 295.725V295.725Z" fill="#2F3646"/>
<g opacity="0.3">
<path opacity="0.3" d="M437.517 314.115C437.517 314.115 431.668 300.032 439.028 290.809C439.086 290.735 439.162 290.678 439.249 290.645C439.337 290.612 439.432 290.604 439.523 290.621C439.615 290.639 439.7 290.682 439.769 290.745C439.838 290.809 439.888 290.89 439.913 290.98C440.607 293.338 441.815 300.612 437.517 314.115Z" fill="#2F3646"/>
</g>
<path d="M455.673 348.044C455.673 348.044 450.985 333.543 459.068 324.947C459.131 324.878 459.211 324.828 459.3 324.802C459.39 324.777 459.484 324.776 459.574 324.801C459.663 324.825 459.744 324.874 459.808 324.942C459.871 325.009 459.915 325.093 459.934 325.184C460.399 327.581 461.008 334.893 455.673 348.044Z" fill="#F995A6"/>
<path d="M458.236 329.796C457.913 330.643 457.687 331.523 457.561 332.42C457.219 334.046 456.8 336.31 456.411 338.829C456.021 341.349 455.754 343.632 455.621 345.296C455.492 346.193 455.473 347.103 455.564 348.006C455.796 347.134 455.949 346.243 456.021 345.343C456.296 343.441 456.62 341.321 456.972 338.915C457.323 336.509 457.666 334.341 457.923 332.487C458.115 331.602 458.22 330.701 458.236 329.796Z" fill="#2F3646"/>
<g opacity="0.3">
<path opacity="0.3" d="M455.673 348.044C455.673 348.044 450.985 333.543 459.068 324.947C459.131 324.878 459.211 324.828 459.3 324.802C459.39 324.777 459.484 324.776 459.574 324.801C459.663 324.825 459.744 324.874 459.808 324.942C459.871 325.009 459.915 325.093 459.934 325.184C460.399 327.581 461.008 334.893 455.673 348.044Z" fill="#2F3646"/>
</g>
<path d="M430.115 296.914C430.115 296.914 417.62 288.165 418.885 276.431C418.893 276.338 418.927 276.249 418.983 276.174C419.039 276.099 419.114 276.041 419.201 276.007C419.288 275.972 419.382 275.963 419.474 275.979C419.566 275.995 419.652 276.036 419.722 276.098C421.529 277.791 426.435 283.202 430.115 296.914Z" fill="#F995A6"/>
<g opacity="0.3">
<path opacity="0.3" d="M430.115 296.914C430.115 296.914 417.62 288.165 418.885 276.431C418.893 276.338 418.927 276.249 418.983 276.174C419.039 276.099 419.114 276.041 419.201 276.007C419.288 275.972 419.382 275.963 419.474 275.979C419.566 275.995 419.652 276.036 419.722 276.098C421.529 277.791 426.435 283.202 430.115 296.914Z" fill="#2F3646"/>
</g>
<path d="M421.139 280.815C421.392 281.681 421.739 282.517 422.176 283.306C422.889 284.818 423.925 286.872 425.133 289.116C426.341 291.36 427.501 293.348 428.404 294.755C428.836 295.55 429.37 296.285 429.992 296.942C429.649 296.108 429.232 295.306 428.747 294.546L425.637 288.841L422.537 283.135C422.152 282.316 421.684 281.538 421.139 280.815V280.815Z" fill="#2F3646"/>
<path d="M450.646 333.666C450.646 333.666 435.612 331.317 431.542 320.23C431.508 320.142 431.5 320.047 431.517 319.955C431.534 319.863 431.577 319.778 431.64 319.709C431.703 319.64 431.785 319.59 431.875 319.564C431.965 319.538 432.06 319.539 432.15 319.564C434.499 320.23 441.317 322.978 450.646 333.666Z" fill="#F995A6"/>
<g opacity="0.3">
<path opacity="0.3" d="M450.646 333.666C450.646 333.666 435.612 331.317 431.542 320.23C431.508 320.142 431.5 320.047 431.517 319.955C431.534 319.863 431.577 319.778 431.64 319.709C431.703 319.64 431.785 319.59 431.875 319.564C431.965 319.538 432.06 319.539 432.15 319.564C434.499 320.23 441.317 322.978 450.646 333.666Z" fill="#2F3646"/>
</g>
<path d="M435.499 323.168C436.107 323.83 436.783 324.426 437.515 324.946C438.818 325.992 440.653 327.38 442.726 328.854C444.799 330.328 446.72 331.612 448.137 332.487C448.882 333.003 449.686 333.428 450.533 333.752C449.861 333.151 449.135 332.613 448.365 332.144L443.05 328.398L437.753 324.594C437.053 324.042 436.298 323.564 435.499 323.168V323.168Z" fill="#2F3646"/>
<path d="M465.012 361.395L469.405 390.968H442.019L445.576 361.395H465.012Z" fill="#455A64"/>
<path d="M465.012 361.395L469.405 390.968H442.019L445.576 361.395H465.012Z" fill="url(#paint3_linear_786:10795)"/>
<path d="M444.477 370.551C444.477 370.713 449.422 370.837 455.527 370.837C461.632 370.837 466.567 370.713 466.567 370.551C462.894 370.27 459.209 370.175 455.527 370.266C451.841 370.174 448.153 370.27 444.477 370.551V370.551Z" fill="#2F3646"/>
<path d="M443.929 372.881C443.929 373.034 449.035 373.167 455.34 373.167C461.644 373.167 466.75 373.034 466.75 372.881C466.75 372.729 461.644 372.596 455.34 372.596C449.035 372.596 443.929 372.748 443.929 372.881Z" fill="#2F3646"/>
</g>
<defs>
<linearGradient id="paint0_linear_786:10795" x1="295.287" y1="379.633" x2="295.287" y2="391.215" gradientUnits="userSpaceOnUse">
<stop stop-color="#343C50"/>
<stop offset="1" stop-color="#252C3D"/>
</linearGradient>
<linearGradient id="paint1_linear_786:10795" x1="152.015" y1="317.593" x2="152.015" y2="371.854" gradientUnits="userSpaceOnUse">
<stop stop-color="#343C50"/>
<stop offset="1" stop-color="#252C3D"/>
</linearGradient>
<linearGradient id="paint2_linear_786:10795" x1="195.155" y1="321.874" x2="195.155" y2="391.38" gradientUnits="userSpaceOnUse">
<stop stop-color="#343C50"/>
<stop offset="1" stop-color="#252C3D"/>
</linearGradient>
<linearGradient id="paint3_linear_786:10795" x1="455.712" y1="361.395" x2="455.712" y2="390.968" gradientUnits="userSpaceOnUse">
<stop stop-color="#343C50"/>
<stop offset="1" stop-color="#252C3D"/>
</linearGradient>
<clipPath id="clip0_786:10795">
<rect width="565" height="409" fill="white"/>
</clipPath>
</defs>
</svg>
