<svg width="13" height="16" viewBox="0 0 13 16" fill="none" xmlns="http://www.w3.org/2000/svg">
<path d="M2.94118 7.18167V4.38391C2.94118 3.4564 3.28204 2.56687 3.88877 1.91102C4.49551 1.25517 5.31842 0.886719 6.17647 0.886719C7.03452 0.886719 7.85743 1.25517 8.46417 1.91102C9.0709 2.56687 9.41176 3.4564 9.41176 4.38391V7.18167M2.22222 7.18167H10.7778C11.4528 7.18167 12 7.80797 12 8.58054V13.4766C12 14.2492 11.4528 14.8755 10.7778 14.8755H2.22222C1.54721 14.8755 1 14.2492 1 13.4766V8.58054C1 7.80797 1.54721 7.18167 2.22222 7.18167Z" stroke="white" stroke-width="1.5" stroke-linecap="round" stroke-linejoin="round"/>
</svg>
