<svg width="46" height="57" viewBox="0 0 46 57" fill="none" xmlns="http://www.w3.org/2000/svg">
<path fill-rule="evenodd" clip-rule="evenodd" d="M26.8885 50.2422C27.9198 49.2116 38.5567 38.5697 38.5567 38.5697C41.6334 35.4918 43.7286 31.5703 44.5774 27.3012C45.4261 23.0321 44.9904 18.6071 43.3252 14.5857C41.6601 10.5643 38.8403 7.12717 35.2224 4.70895C31.6046 2.29072 27.3511 1 23 1C18.6489 1 14.3954 2.29072 10.7776 4.70895C7.15972 7.12717 4.33993 10.5643 2.67477 14.5857C1.00961 18.6071 0.573868 23.0321 1.42265 27.3012C2.27143 31.5703 4.36662 35.4918 7.44326 38.5697C7.44326 38.5697 18.083 49.2116 19.1143 50.2422C20.1455 51.2728 23.0014 56 23.0014 56C23.0014 56 25.8572 51.2728 26.8885 50.2422ZM31.2499 23.0073C31.2499 27.5653 27.5563 31.2603 22.9999 31.2603C18.4436 31.2603 14.7499 27.5653 14.7499 23.0073C14.7499 18.4492 18.4436 14.7542 22.9999 14.7542C27.5563 14.7542 31.2499 18.4492 31.2499 23.0073Z" fill="url(#paint0_linear_80:103208)" stroke="white" stroke-width="2" stroke-linecap="round" stroke-linejoin="round"/>
<defs>
<linearGradient id="paint0_linear_80:103208" x1="-4.24327" y1="-23.5571" x2="76.4793" y2="23.811" gradientUnits="userSpaceOnUse">
<stop stop-color="#CC283C"/>
<stop offset="1" stop-color="#CC284F"/>
</linearGradient>
</defs>
</svg>
