<svg width="152" height="35" viewBox="0 0 152 35" fill="none" xmlns="http://www.w3.org/2000/svg">
<path d="M47.52 18.808V23H45.552V11.8C46.1067 11.8 46.7093 11.7947 47.36 11.784C48.0107 11.7733 48.544 11.768 48.96 11.768C51.6693 11.768 53.024 12.92 53.024 15.224C53.024 16.0773 52.8053 16.7813 52.368 17.336C51.9307 17.8693 51.4293 18.232 50.864 18.424L54.368 23H51.984L48.896 18.808H47.52ZM48.864 13.608C48.8107 13.608 48.7253 13.6133 48.608 13.624C48.4907 13.624 48.3253 13.6293 48.112 13.64C47.8987 13.64 47.7013 13.64 47.52 13.64V16.968H48.8C49.4293 16.968 49.9413 16.8133 50.336 16.504C50.7413 16.1947 50.944 15.7733 50.944 15.24C50.944 14.152 50.2507 13.608 48.864 13.608ZM60.547 20.984L61.075 22.28C60.3603 22.8773 59.443 23.176 58.323 23.176C57.171 23.176 56.2323 22.8293 55.507 22.136C54.803 21.4533 54.451 20.5413 54.451 19.4C54.451 18.3333 54.7977 17.4373 55.491 16.712C56.1843 15.9867 57.107 15.624 58.259 15.624C59.2083 15.624 60.0137 15.9387 60.675 16.568C61.3363 17.1973 61.667 17.9973 61.667 18.968C61.667 19.3947 61.6297 19.7253 61.555 19.96H56.355C56.4297 20.4827 56.659 20.8933 57.043 21.192C57.4377 21.4907 57.9283 21.64 58.515 21.64C59.315 21.64 59.9923 21.4213 60.547 20.984ZM58.179 17.16C57.1337 17.16 56.5043 17.6827 56.291 18.728H59.827C59.8377 18.2693 59.6883 17.896 59.379 17.608C59.0803 17.3093 58.6803 17.16 58.179 17.16ZM70.0141 26.2H68.1741V22.632C67.6195 22.9947 67.0275 23.176 66.3981 23.176C65.2568 23.176 64.3448 22.8347 63.6621 22.152C62.9901 21.4587 62.6541 20.5413 62.6541 19.4C62.6541 18.3227 63.0435 17.4267 63.8221 16.712C64.6115 15.9867 65.5981 15.624 66.7821 15.624C68.0195 15.624 69.0968 15.912 70.0141 16.488V26.2ZM66.6381 21.464C67.2568 21.464 67.7688 21.2453 68.1741 20.808V17.704C67.6941 17.4693 67.2248 17.352 66.7661 17.352C66.1048 17.352 65.5821 17.5547 65.1981 17.96C64.8141 18.3547 64.6221 18.8613 64.6221 19.48C64.6221 20.056 64.8035 20.5307 65.1661 20.904C65.5395 21.2773 66.0301 21.464 66.6381 21.464ZM76.7116 15.8H78.5516V23H76.7116V22.12C76.1356 22.824 75.3676 23.176 74.4076 23.176C73.6396 23.176 73.0263 22.92 72.5676 22.408C72.109 21.896 71.8796 21.16 71.8796 20.2V15.8H73.7196V19.816C73.7196 20.9147 74.1783 21.464 75.0956 21.464C75.725 21.464 76.2636 21.1707 76.7116 20.584V15.8ZM86.2501 20.984L86.7781 22.28C86.0635 22.8773 85.1461 23.176 84.0261 23.176C82.8741 23.176 81.9355 22.8293 81.2101 22.136C80.5061 21.4533 80.1541 20.5413 80.1541 19.4C80.1541 18.3333 80.5008 17.4373 81.1941 16.712C81.8875 15.9867 82.8101 15.624 83.9621 15.624C84.9115 15.624 85.7168 15.9387 86.3781 16.568C87.0395 17.1973 87.3701 17.9973 87.3701 18.968C87.3701 19.3947 87.3328 19.7253 87.2581 19.96H82.0581C82.1328 20.4827 82.3621 20.8933 82.7461 21.192C83.1408 21.4907 83.6315 21.64 84.2181 21.64C85.0181 21.64 85.6955 21.4213 86.2501 20.984ZM83.8821 17.16C82.8368 17.16 82.2075 17.6827 81.9941 18.728H85.5301C85.5408 18.2693 85.3915 17.896 85.0821 17.608C84.7835 17.3093 84.3835 17.16 83.8821 17.16ZM88.6121 17.816C88.6121 17.144 88.8575 16.6107 89.3481 16.216C89.8388 15.8213 90.4735 15.624 91.2521 15.624C92.4255 15.624 93.3375 15.928 93.9881 16.536L93.3001 17.848C92.7135 17.3893 92.0628 17.16 91.3481 17.16C91.0921 17.16 90.8788 17.224 90.7081 17.352C90.5375 17.4693 90.4521 17.6133 90.4521 17.784C90.4521 18.136 90.9055 18.4293 91.8121 18.664C92.1428 18.7387 92.4361 18.824 92.6921 18.92C92.9481 19.0053 93.2095 19.1333 93.4761 19.304C93.7535 19.464 93.9668 19.6773 94.1161 19.944C94.2655 20.2107 94.3401 20.52 94.3401 20.872C94.3401 21.576 94.0735 22.136 93.5401 22.552C93.0175 22.968 92.3135 23.176 91.4281 23.176C90.7988 23.176 90.1855 23.0427 89.5881 22.776C88.9801 22.4987 88.5908 22.2213 88.4201 21.944L89.3161 20.744C89.5188 20.9893 89.8548 21.1973 90.3241 21.368C90.8041 21.5493 91.2148 21.64 91.5561 21.64C91.9721 21.6827 92.2655 21.5493 92.4361 21.24C92.6068 20.92 92.4948 20.6587 92.1001 20.456C91.9401 20.3707 91.6895 20.28 91.3481 20.184C91.0175 20.088 90.7081 19.992 90.4201 19.896C90.1428 19.7893 89.8548 19.656 89.5561 19.496C89.2681 19.336 89.0388 19.1173 88.8681 18.84C88.6975 18.552 88.6121 18.2107 88.6121 17.816ZM95.8015 20.264V13.8H97.6415V15.8H99.9615V17.528H97.6415V20.152C97.6415 21.016 97.9295 21.448 98.5055 21.448C98.8682 21.448 99.2362 21.3093 99.6095 21.032L100.17 22.456C99.5828 22.9253 98.8735 23.16 98.0415 23.16C97.2628 23.16 96.6922 22.9253 96.3295 22.456C95.9775 21.976 95.8015 21.2453 95.8015 20.264ZM106.217 23H106.073V11.8H106.249C106.708 11.8 107.134 11.7947 107.529 11.784C108.318 11.7627 108.788 11.752 108.937 11.752C110.014 11.752 110.964 11.9013 111.785 12.2C112.617 12.488 113.278 12.8933 113.769 13.416C114.26 13.928 114.622 14.5093 114.857 15.16C115.102 15.8 115.225 16.4933 115.225 17.24C115.225 18.9253 114.665 20.312 113.545 21.4C112.436 22.488 110.857 23.032 108.809 23.032C108.35 23.032 107.929 23.0267 107.545 23.016C107.161 23.0053 106.718 23 106.217 23ZM108.905 12.584C108.67 12.584 108.324 12.5947 107.865 12.616C107.417 12.6267 107.113 12.632 106.953 12.632V22.168C107.305 22.168 107.636 22.1733 107.945 22.184C108.254 22.184 108.478 22.1893 108.617 22.2C108.756 22.2 108.83 22.2 108.841 22.2C110.58 22.2 111.924 21.7413 112.873 20.824C113.822 19.896 114.297 18.7013 114.297 17.24C114.297 15.864 113.844 14.744 112.937 13.88C112.02 13.016 110.676 12.584 108.905 12.584ZM122.976 21.48L123.248 22.12C122.597 22.8027 121.712 23.144 120.592 23.144C119.44 23.144 118.517 22.8027 117.824 22.12C117.12 21.4373 116.768 20.5307 116.768 19.4C116.768 18.312 117.088 17.416 117.728 16.712C118.378 16.008 119.274 15.656 120.416 15.656C121.344 15.656 122.122 15.9547 122.752 16.552C123.37 17.1387 123.68 17.9227 123.68 18.904C123.68 19.16 123.664 19.384 123.632 19.576H117.696C117.728 20.44 118.01 21.1227 118.544 21.624C119.077 22.1147 119.776 22.36 120.64 22.36C121.642 22.36 122.421 22.0667 122.976 21.48ZM120.336 16.44C119.568 16.44 118.944 16.664 118.464 17.112C117.994 17.56 117.722 18.152 117.648 18.888H122.832C122.821 18.1307 122.592 17.5333 122.144 17.096C121.696 16.6587 121.093 16.44 120.336 16.44ZM129.398 21.112C129.398 20.7813 129.26 20.5147 128.982 20.312C128.716 20.1093 128.385 19.9493 127.99 19.832C127.606 19.7147 127.217 19.5867 126.822 19.448C126.428 19.2987 126.092 19.0693 125.814 18.76C125.548 18.44 125.414 18.04 125.414 17.56C125.414 16.984 125.628 16.5253 126.054 16.184C126.481 15.832 127.041 15.656 127.734 15.656C128.726 15.656 129.478 15.9227 129.99 16.456L129.638 17.08C129.148 16.6213 128.518 16.392 127.75 16.392C127.324 16.392 126.972 16.504 126.694 16.728C126.428 16.9413 126.294 17.2133 126.294 17.544C126.294 17.8853 126.428 18.168 126.694 18.392C126.972 18.6053 127.302 18.776 127.686 18.904C128.081 19.0213 128.476 19.1493 128.87 19.288C129.265 19.4267 129.596 19.6453 129.862 19.944C130.14 20.2427 130.278 20.6213 130.278 21.08C130.278 21.7307 130.033 22.2373 129.542 22.6C129.062 22.9627 128.444 23.144 127.686 23.144C127.217 23.144 126.726 23.0373 126.214 22.824C125.734 22.6213 125.404 22.3813 125.222 22.104L125.686 21.56C125.889 21.8053 126.193 22.008 126.598 22.168C127.014 22.328 127.409 22.408 127.782 22.408C128.252 22.408 128.636 22.296 128.934 22.072C129.244 21.8373 129.398 21.5173 129.398 21.112ZM133.59 23H132.758V15.8H133.59V23ZM132.614 13C132.614 12.84 132.672 12.712 132.79 12.616C132.907 12.52 133.046 12.472 133.206 12.472C133.344 12.472 133.467 12.5253 133.574 12.632C133.691 12.728 133.75 12.8507 133.75 13C133.75 13.1813 133.696 13.3253 133.59 13.432C133.494 13.5387 133.366 13.592 133.206 13.592C133.035 13.592 132.891 13.5387 132.774 13.432C132.667 13.3253 132.614 13.1813 132.614 13ZM135.49 24.056C135.49 23.512 135.682 23.0533 136.066 22.68C136.45 22.3067 136.994 22.0453 137.698 21.896C137.538 21.704 137.458 21.4747 137.458 21.208C137.458 20.9413 137.548 20.7013 137.73 20.488C137.26 20.2853 136.892 19.9813 136.626 19.576C136.359 19.1707 136.226 18.712 136.226 18.2C136.226 17.464 136.487 16.856 137.01 16.376C137.532 15.896 138.22 15.656 139.074 15.656C139.756 15.656 140.359 15.8373 140.882 16.2H140.898L142.946 15.656V16.44L141.49 16.808C141.778 17.2453 141.922 17.7093 141.922 18.2C141.922 18.9147 141.655 19.5227 141.122 20.024C140.588 20.504 139.906 20.744 139.074 20.744C138.775 20.744 138.535 20.7227 138.354 20.68C138.258 20.8187 138.21 20.9947 138.21 21.208C138.21 21.4533 138.279 21.6453 138.418 21.784C138.823 21.7627 139.047 21.752 139.09 21.752C140.188 21.752 141.063 21.9547 141.714 22.36C142.364 22.7653 142.69 23.3307 142.69 24.056C142.69 24.7707 142.364 25.3253 141.714 25.72C141.063 26.1253 140.188 26.328 139.09 26.328C137.98 26.328 137.1 26.1307 136.45 25.736C135.81 25.3413 135.49 24.7813 135.49 24.056ZM136.338 24.056C136.338 24.5253 136.583 24.8933 137.074 25.16C137.575 25.4373 138.247 25.576 139.09 25.576C139.922 25.576 140.588 25.4373 141.09 25.16C141.591 24.8827 141.842 24.5147 141.842 24.056C141.842 23.5867 141.591 23.2133 141.09 22.936C140.599 22.648 139.932 22.504 139.09 22.504C138.258 22.504 137.591 22.6427 137.09 22.92C136.588 23.1973 136.338 23.576 136.338 24.056ZM137.634 16.92C137.26 17.2613 137.074 17.688 137.074 18.2C137.074 18.712 137.26 19.1387 137.634 19.48C138.007 19.8213 138.487 19.992 139.074 19.992C139.66 19.992 140.14 19.8213 140.514 19.48C140.887 19.1387 141.074 18.712 141.074 18.2C141.074 17.688 140.882 17.2613 140.498 16.92C140.124 16.5787 139.65 16.408 139.074 16.408C138.508 16.408 138.028 16.5787 137.634 16.92ZM145.205 23H144.373V15.8H145.205V16.808C145.504 16.4773 145.888 16.2053 146.357 15.992C146.837 15.7787 147.317 15.672 147.797 15.672C148.8 15.672 149.552 15.9333 150.053 16.456C150.555 16.9787 150.805 17.7893 150.805 18.888V23H149.973V19.048C149.973 17.32 149.184 16.456 147.605 16.456C147.147 16.456 146.699 16.5627 146.261 16.776C145.824 16.9787 145.472 17.24 145.205 17.56V23Z" fill="white"/>
<rect x="17.4604" width="24.535" height="24.5298" rx="2" transform="rotate(45.3814 17.4604 0)" fill="white"/>
<circle cx="17.1157" cy="17.2246" r="10" fill="black"/>
<rect x="10.6157" y="10.5254" width="12.65" height="12.6523" rx="2" fill="white"/>
<circle cx="16.9155" cy="16.9238" r="4.5" fill="black"/>
<rect x="16.9155" y="14.6738" width="2.97595" height="2.97532" rx="1" transform="rotate(45.3814 16.9155 14.6738)" fill="white"/>
</svg>
