<svg width="89" height="92" viewBox="0 0 89 92" fill="none" xmlns="http://www.w3.org/2000/svg">
<path d="M62.2912 0C55.4225 0 49.287 3.10111 45.2338 7.96411C44.9836 8.26431 44.5173 8.2643 44.2671 7.9641C40.214 3.1011 34.0783 0 27.2096 0C15.0051 0 5.11133 9.78753 5.11133 21.8612C5.11133 46.2155 37.2356 61.8575 43.6455 64.7362C44.3595 65.0569 45.142 65.059 45.8576 64.7418C52.2727 61.898 84.3895 46.4339 84.3895 21.8612C84.3897 9.78753 74.4957 0 62.2912 0Z" fill="#D92B48"/>
<path d="M0.923828 68.2091C34.5751 63.9647 53.4314 64.01 87.0827 68.2091C55.6426 57.907 29.9811 58.5725 0.923828 68.2091Z" fill="#D92B48"/>
<path fill-rule="evenodd" clip-rule="evenodd" d="M35.2774 13.4832C34.1413 12.063 34.118 10.2455 34.3066 9.15665C34.3471 8.92271 34.1301 8.71064 33.9117 8.80364C31.3822 9.88052 30.8072 13.0562 33.5859 16.2318C35.7283 18.6802 34.9911 20.6856 34.7409 21.3663C34.6454 21.6261 34.6208 21.693 34.8545 21.5177C38.5795 18.7238 36.9689 15.5975 35.2774 13.4832ZM38.6603 39.3661V44.0536C38.6603 44.2188 38.7942 44.3528 38.9594 44.3528H41.9555C42.1207 44.3528 42.2547 44.2188 42.2547 44.0536V39.3661C42.2547 39.2008 42.1207 39.0669 41.9555 39.0669H38.9594C38.7942 39.0669 38.6603 39.2008 38.6603 39.3661ZM25.9752 44.2647V39.7886C25.9752 39.6234 26.1091 39.4895 26.2744 39.4895H29.4819C29.6471 39.4895 29.781 39.6234 29.781 39.7886V44.2647C29.781 44.43 29.6471 44.5639 29.4819 44.5639H26.2744C26.1091 44.5639 25.9752 44.43 25.9752 44.2647ZM17.281 35.0364L22.0922 23.8103C22.1388 23.7015 22.244 23.6292 22.3623 23.6247L60.7185 22.1575C60.809 22.154 60.8933 22.1107 60.9489 22.0392L62.5938 19.9221C62.5783 19.8815 62.5607 19.8419 62.5408 19.8037C62.4223 19.5759 62.2735 19.4334 62.1106 19.2773C61.8579 19.0352 61.571 18.7604 61.3098 18.0835C61.1365 17.6343 61.0625 17.2111 60.9994 16.8503C60.9061 16.3169 60.8366 15.92 60.5054 15.7777C60.1717 15.6342 60.0757 16.323 60.0237 16.7071C60.0197 16.7364 59.9863 16.723 59.9795 16.689C59.8933 16.2577 60.0006 15.9499 60.0814 15.7178C60.1079 15.6418 60.1316 15.574 60.1447 15.5126C60.1499 15.4883 60.125 15.4602 60.1082 15.4706C59.7661 15.6812 59.7367 16.0844 59.7018 16.6221C59.6997 16.6537 59.6636 16.6416 59.6545 16.6063C59.4449 15.7927 59.5641 15.3763 59.6677 15.0145C59.677 14.9822 59.6861 14.9503 59.6949 14.9185C59.7018 14.8936 59.6757 14.8598 59.6578 14.8712C59.4346 15.0129 59.2908 15.4062 59.196 15.9932C59.1911 16.0238 59.1523 16.0057 59.1462 15.9698C59.0009 15.1256 59.1031 14.7849 59.2402 14.3279C59.2562 14.2743 59.2728 14.2192 59.2894 14.1615C59.2969 14.1358 59.2683 14.0991 59.2494 14.1104C58.9953 14.2615 58.8043 14.4878 58.5116 14.8564C58.4967 14.8751 58.4628 14.844 58.4653 14.8137C58.5238 14.1083 58.7099 13.1698 59.3553 12.6735C60.0582 12.133 61.2686 12.6674 61.9359 13.9367C62.2043 14.4472 62.0849 14.9842 61.9716 15.4935C61.8369 16.0991 61.7108 16.6656 62.2555 17.1023C62.8119 17.5484 63.2348 17.0935 63.2775 16.9694C63.3485 16.763 63.3661 16.5809 63.3836 16.4002C63.3976 16.2558 63.4114 16.1124 63.4524 15.9584C63.551 15.5877 63.8237 15.216 64.4343 15.0387C64.4425 15.0364 64.4475 15.027 64.4435 15.0143C64.426 14.9582 64.3609 14.9024 64.2875 14.8394C64.1556 14.7262 63.9966 14.5899 64.0383 14.3874C64.0739 14.214 64.2618 14.3313 64.3369 14.3792C64.3491 14.387 64.3607 14.3836 64.3616 14.3693C64.3655 14.3122 64.3299 14.2544 64.2935 14.1953C64.2494 14.1235 64.204 14.0498 64.2262 13.9729C64.2636 13.8433 64.3795 13.922 64.5063 14.0081C64.5813 14.0591 64.6601 14.1126 64.7287 14.1271C64.7405 14.1296 64.7477 14.1194 64.7459 14.104C64.7432 14.0815 64.7399 14.0575 64.7364 14.0328C64.7142 13.8762 64.6877 13.6884 64.8085 13.6392C65.0553 13.5387 65.6017 14.3301 65.5688 14.6203C65.5599 14.6985 65.5204 14.7284 65.4806 14.7585C65.442 14.7878 65.403 14.8172 65.3915 14.8916C65.3894 14.9051 65.3973 14.9228 65.4093 14.9316C65.4635 14.9711 65.5418 15.0096 65.6269 15.0515C65.7458 15.1099 65.8781 15.175 65.9768 15.2588C65.9915 15.2712 65.9979 15.2944 65.9887 15.3043C65.9602 15.335 65.91 15.3556 65.856 15.3778C65.7416 15.4249 65.6102 15.479 65.6326 15.6499C65.6453 15.747 65.7005 15.8074 65.7631 15.8759C65.7996 15.916 65.8388 15.9588 65.8734 16.0133C65.8865 16.034 65.8814 16.0558 65.8641 16.0514C65.8227 16.0408 65.7709 16.0156 65.7181 15.99C65.6229 15.9438 65.5248 15.8961 65.4803 15.9307C65.437 15.9645 65.48 16.1114 65.5297 16.281C65.6089 16.5515 65.7051 16.88 65.4949 16.9C65.3364 16.9151 65.2201 16.7175 65.1141 16.5373C65.0464 16.4222 64.9828 16.3142 64.9151 16.2733C64.9048 16.267 64.8956 16.2713 64.8924 16.2816C64.775 16.6493 64.8622 16.974 64.969 17.3713C65.0622 17.7181 65.1703 18.1202 65.1703 18.6547C65.1703 19.517 64.6146 19.9728 64.0212 20.1066C63.765 20.1644 63.5821 20.2509 63.4448 20.3754L69.3713 35.9022C69.4479 36.1029 69.2997 36.3182 69.0848 36.3182H68.8781C68.7598 36.3182 68.652 36.2501 68.6012 36.1432L62.7497 23.8349C62.6558 23.6376 62.3917 23.5988 62.2452 23.7609L52.6153 34.4153L60.9875 26.8599C61.1371 26.7248 61.3742 26.7685 61.466 26.948L66.1123 36.0386C66.1352 36.0834 66.1467 36.1331 66.1459 36.1833L65.9412 48.4627C65.9382 48.641 65.7844 48.7792 65.6068 48.763L61.5744 48.3964C61.4118 48.3816 61.2892 48.242 61.2958 48.0788L61.6958 38.0784C61.7021 37.9198 61.5864 37.7825 61.429 37.762L57.1772 37.2074C56.9983 37.1841 56.838 37.3195 56.8311 37.4997L56.433 47.8494C56.4265 48.0197 56.2822 48.152 56.112 48.1439L52.273 47.9611C52.1095 47.9533 51.981 47.8185 51.981 47.6548V35.1505C51.981 34.9789 51.8402 34.8407 51.6687 34.8438L17.5684 35.4639C17.3459 35.4679 17.1933 35.241 17.281 35.0364ZM32.9435 32.8486L32.7491 25.8502C32.7443 25.6776 32.8829 25.5351 33.0556 25.5351H36.6624C36.8317 25.5351 36.969 25.6724 36.969 25.8417V29.6914C36.969 29.739 36.958 29.7859 36.9367 29.8285L35.3623 32.9772C35.3104 33.0811 35.2042 33.1467 35.088 33.1467H33.25C33.084 33.1467 32.9481 33.0146 32.9435 32.8486Z" fill="white"/>
<path d="M6.73828 87.1242L0.642875 76.0533L3.20999 75.7649L7.40239 83.4566L9.73406 75.0317L12.3502 74.7378L8.84757 86.8872L6.73828 87.1242Z" fill="#171E2F"/>
<path d="M20.2482 86.0412C18.9246 86.1399 17.8299 85.8421 16.9641 85.1476C16.0975 84.4423 15.6044 83.5826 15.4848 82.5685L17.864 82.3911C17.9898 82.8987 18.2548 83.2804 18.6589 83.5363C19.0622 83.7812 19.5373 83.8832 20.0842 83.8424C20.5765 83.8057 20.968 83.672 21.2588 83.4413C21.5487 83.1997 21.6803 82.8984 21.6533 82.5374C21.6052 81.892 21.0505 81.4604 19.9893 81.2426L18.7317 80.9734C17.7596 80.7709 16.984 80.3998 16.4047 79.86C15.8255 79.3202 15.4981 78.6186 15.4227 77.7553C15.3436 76.6942 15.6367 75.8308 16.302 75.1652C16.9666 74.4887 17.8895 74.1063 19.0709 74.0182C20.2633 73.9293 21.2583 74.2181 22.056 74.8845C22.8529 75.5401 23.3079 76.3311 23.421 77.2577L21.0582 77.4339C20.9036 76.9835 20.6595 76.6607 20.3259 76.4656C19.9924 76.2704 19.6287 76.1876 19.2349 76.2169C18.7974 76.2496 18.4437 76.375 18.174 76.5931C17.9144 76.7994 17.7918 77.0726 17.8061 77.4125C17.8213 77.7634 17.9574 78.0392 18.2144 78.24C18.4713 78.4409 18.8567 78.5936 19.3705 78.6983L20.7606 78.9741C22.8149 79.3818 23.909 80.4827 24.0428 82.2767C24.1179 83.2831 23.8025 84.1426 23.0967 84.8552C22.401 85.5561 21.4515 85.9514 20.2482 86.0412Z" fill="#171E2F"/>
<path d="M27.7546 85.3541L27.2803 73.6814L34.547 73.3862L34.6391 75.6549L29.7563 75.8533L29.8539 78.2536L33.7503 78.0953L33.8424 80.3641L29.9461 80.5224L30.0463 82.9885L34.9291 82.7901L35.0212 85.0589L27.7546 85.3541Z" fill="#171E2F"/>
<path d="M47.8335 85.1542C46.5063 85.1416 45.4404 84.7531 44.6359 83.9885C43.8315 83.213 43.4121 82.315 43.3779 81.2945L45.7637 81.3171C45.8465 81.8335 46.0786 82.2361 46.4598 82.5249C46.8411 82.8028 47.3059 82.9443 47.8544 82.9495C48.348 82.9542 48.7493 82.8537 49.0584 82.6482C49.3676 82.4318 49.524 82.1426 49.5274 81.7806C49.5335 81.1334 49.017 80.6568 47.9777 80.3508L46.7472 79.9771C45.7955 79.6939 45.0537 79.259 44.5217 78.6726C43.9897 78.0861 43.7224 77.3596 43.7196 76.493C43.7297 75.429 44.0941 74.5933 44.8129 73.9858C45.5318 73.3673 46.4836 73.0637 47.6682 73.0749C48.8638 73.0862 49.8311 73.4574 50.5702 74.1884C51.3093 74.9084 51.6964 75.7348 51.7314 76.6676L49.3621 76.6452C49.2458 76.1833 49.0297 75.8412 48.7137 75.6188C48.3977 75.3964 48.0422 75.2834 47.6473 75.2796C47.2086 75.2755 46.8457 75.3708 46.5586 75.5655C46.2826 75.7494 46.1375 76.0113 46.1234 76.3512C46.1091 76.7021 46.2215 76.9884 46.4608 77.21C46.7 77.4317 47.0712 77.6162 47.5744 77.7636L48.9365 78.155C50.9494 78.7335 51.9474 79.9222 51.9303 81.7211C51.9208 82.7302 51.5345 83.5603 50.7714 84.2112C50.0194 84.8513 49.0401 85.1656 47.8335 85.1542Z" fill="#171E2F"/>
<path d="M58.9308 85.2513L54.6631 73.3557L57.2436 73.4768L60.1666 81.7348L63.8015 73.7848L66.4312 73.9083L61.0511 85.3508L58.9308 85.2513Z" fill="#171E2F"/>
<path d="M71.749 82.8492C72.3942 83.6342 73.2194 84.0719 74.2245 84.1624C75.2296 84.2529 76.1142 83.9691 76.8784 83.311C77.6544 82.6429 78.0886 81.7954 78.1811 80.7685C78.2736 79.7415 77.9972 78.8355 77.352 78.0505C76.7187 77.2556 75.8995 76.8129 74.8944 76.7224C73.8893 76.6319 72.9987 76.9207 72.2226 77.5887C71.4585 78.2468 71.0302 79.0894 70.9378 80.1163C70.8453 81.1433 71.1157 82.0542 71.749 82.8492ZM78.4202 85.0853C77.146 86.1491 75.6786 86.6062 74.0179 86.4567C72.3573 86.3072 70.9897 85.5948 69.915 84.3196C68.8523 83.0344 68.3956 81.5615 68.5452 79.9009C68.6947 78.2403 69.4065 76.8781 70.6808 75.8144C71.9669 74.7407 73.4403 74.2786 75.1009 74.4281C76.7615 74.5776 78.1232 75.295 79.186 76.5801C80.2606 77.8554 80.7232 79.3233 80.5737 80.9839C80.4242 82.6445 79.7064 84.0117 78.4202 85.0853Z" fill="#171E2F"/>
<path d="M83.1677 87.3348L84.5927 75.7398L86.9607 76.0308L85.5357 87.6259L83.1677 87.3348Z" fill="#171E2F"/>
</svg>
