<svg width="89" height="92" viewBox="0 0 89 92" fill="none" xmlns="http://www.w3.org/2000/svg">
<path d="M62.2919 0C55.4233 0 49.2879 3.10104 45.2348 7.96393C44.9846 8.26412 44.5183 8.26412 44.2681 7.96392C40.2152 3.10103 34.0796 0 27.2111 0C15.0068 0 5.11328 9.78731 5.11328 21.8607C5.11328 46.2144 37.2368 61.8561 43.6466 64.7347C44.3606 65.0554 45.143 65.0576 45.8586 64.7404C52.2736 61.8966 84.3896 46.4329 84.3896 21.8607C84.3899 9.78731 74.4961 0 62.2919 0Z" fill="#DC2B40"/>
<path d="M0.923828 68.2094C34.5743 63.9651 53.4303 64.0105 87.0808 68.2094C55.6413 57.9075 29.9805 58.573 0.923828 68.2094Z" fill="#DC2B40"/>
<path fill-rule="evenodd" clip-rule="evenodd" d="M35.2755 13.4635C34.1394 12.0434 34.1161 10.2259 34.3047 9.13711C34.3452 8.90318 34.1282 8.69111 33.9098 8.78411C31.3804 9.86097 30.8054 13.0365 33.5841 16.2121C35.7263 18.6604 34.9892 20.6658 34.739 21.3465C34.6435 21.6063 34.6189 21.6731 34.8526 21.4979C38.5775 18.704 36.9669 15.5778 35.2755 13.4635ZM38.6641 39.3529V44.0404C38.6641 44.2056 38.798 44.3395 38.9632 44.3395H41.9592C42.1244 44.3395 42.2584 44.2056 42.2584 44.0404V39.3529C42.2584 39.1877 42.1244 39.0538 41.9592 39.0538H38.9632C38.798 39.0538 38.6641 39.1877 38.6641 39.3529ZM25.9746 44.2469V39.7709C25.9746 39.6057 26.1085 39.4717 26.2738 39.4717H29.4812C29.6464 39.4717 29.7804 39.6057 29.7804 39.7709V44.2469C29.7804 44.4121 29.6464 44.5461 29.4812 44.5461H26.2738C26.1085 44.5461 25.9746 44.4121 25.9746 44.2469ZM17.281 35.0115L22.0921 23.7856C22.1387 23.6768 22.2439 23.6045 22.3622 23.6L60.7175 22.1328C60.808 22.1294 60.8924 22.0861 60.9479 22.0145L62.5925 19.8978C62.5773 19.8583 62.5601 19.8197 62.5407 19.7824C62.4221 19.5546 62.2734 19.4121 62.1105 19.256C61.8578 19.0139 61.5709 18.7391 61.3097 18.0622C61.1364 17.6131 61.0623 17.1899 60.9992 16.8291C60.9059 16.2957 60.8365 15.8988 60.5053 15.7565C60.1716 15.613 60.0757 16.3018 60.0236 16.6859C60.0196 16.7152 59.9862 16.7018 59.9794 16.6678C59.8932 16.2365 60.0005 15.9287 60.0814 15.6966C60.1078 15.6206 60.1315 15.5528 60.1446 15.4914C60.1498 15.4671 60.1249 15.439 60.1081 15.4494C59.766 15.66 59.7366 16.0632 59.7017 16.6009C59.6996 16.6325 59.6635 16.6204 59.6544 16.5851C59.4448 15.7715 59.564 15.3551 59.6677 14.9933C59.6769 14.961 59.6861 14.9291 59.6948 14.8973C59.7017 14.8724 59.6756 14.8386 59.6577 14.85C59.4345 14.9917 59.2907 15.385 59.196 15.972C59.191 16.0026 59.1523 15.9845 59.1461 15.9486C59.0008 15.1044 59.103 14.7637 59.2401 14.3067C59.2561 14.2532 59.2727 14.198 59.2894 14.1403C59.2968 14.1146 59.2682 14.078 59.2493 14.0892C58.9952 14.2404 58.8042 14.4667 58.5115 14.8352C58.4966 14.8539 58.4627 14.8228 58.4652 14.7925C58.5237 14.0871 58.7098 13.1487 59.3552 12.6524C60.0581 12.1119 61.2684 12.6462 61.9358 13.9156C62.2042 14.4261 62.0848 14.963 61.9714 15.4723C61.8367 16.0778 61.7107 16.6444 62.2554 17.0811C62.8117 17.5271 63.2346 17.0723 63.2774 16.9481C63.3483 16.7418 63.366 16.5596 63.3834 16.379C63.3974 16.2346 63.4113 16.0912 63.4522 15.9372C63.5508 15.5665 63.8235 15.1949 64.4341 15.0175C64.4423 15.0152 64.4473 15.0058 64.4433 14.9931C64.4258 14.937 64.3607 14.8812 64.2873 14.8182C64.1554 14.705 63.9965 14.5687 64.0381 14.3662C64.0737 14.1928 64.2616 14.3101 64.3367 14.3581C64.3489 14.3659 64.3605 14.3624 64.3615 14.3482C64.3653 14.2911 64.3297 14.2333 64.2933 14.1741C64.2492 14.1023 64.2038 14.0286 64.226 13.9517C64.2634 13.8222 64.3793 13.9009 64.5061 13.987C64.5811 14.0379 64.6599 14.0914 64.7285 14.1059C64.7403 14.1084 64.7476 14.0982 64.7457 14.0828C64.743 14.0603 64.7397 14.0364 64.7362 14.0116C64.7141 13.855 64.6875 13.6672 64.8083 13.618C65.0551 13.5176 65.6015 14.3089 65.5686 14.5991C65.5597 14.6774 65.5202 14.7072 65.4804 14.7373C65.4418 14.7666 65.4028 14.7961 65.3913 14.8704C65.3892 14.8839 65.3971 14.9016 65.4091 14.9104C65.4633 14.9499 65.5415 14.9884 65.6267 15.0303C65.7456 15.0887 65.8779 15.1538 65.9766 15.2376C65.9913 15.25 65.9977 15.2732 65.9885 15.2831C65.9599 15.3138 65.9097 15.3344 65.8558 15.3566C65.7413 15.4037 65.61 15.4578 65.6324 15.6287C65.6451 15.7258 65.7003 15.7862 65.7628 15.8547C65.7994 15.8948 65.8385 15.9376 65.8731 15.9921C65.8863 16.0128 65.8811 16.0346 65.8639 16.0302C65.8225 16.0196 65.7706 15.9944 65.7179 15.9688C65.6227 15.9226 65.5246 15.8749 65.4801 15.9095C65.4367 15.9433 65.4798 16.0902 65.5295 16.2598C65.6087 16.5303 65.7049 16.8587 65.4947 16.8788C65.3362 16.8939 65.2199 16.6963 65.1139 16.5161C65.0462 16.401 64.9826 16.293 64.9149 16.2521C64.9046 16.2458 64.8954 16.2501 64.8922 16.2603C64.7748 16.6281 64.862 16.9527 64.9688 17.3501C65.062 17.6968 65.1701 18.0989 65.1701 18.6335C65.1701 19.4958 64.6145 19.9515 64.021 20.0853C63.765 20.1431 63.5821 20.2295 63.4449 20.3538L69.3701 35.8772C69.4468 36.078 69.2985 36.2932 69.0836 36.2932H68.877C68.7586 36.2932 68.6508 36.2251 68.6 36.1182L62.7486 23.8102C62.6548 23.6129 62.3907 23.5741 62.2442 23.7362L52.6145 34.3903L60.9865 26.8351C61.1362 26.7 61.3732 26.7437 61.465 26.9232L66.1112 36.0136C66.1341 36.0584 66.1456 36.1081 66.1448 36.1583L65.9401 48.4374C65.9371 48.6157 65.7833 48.7539 65.6057 48.7377L61.5734 48.3712C61.4108 48.3564 61.2883 48.2167 61.2948 48.0535L61.6948 38.0533C61.7011 37.8947 61.5854 37.7575 61.428 37.737L57.1763 37.1824C56.9974 37.1591 56.8371 37.2944 56.8302 37.4747L56.4321 47.8241C56.4256 47.9944 56.2814 48.1267 56.1111 48.1186L52.2723 47.9358C52.1087 47.928 51.9802 47.7932 51.9802 47.6295V35.1255C51.9802 34.9539 51.8395 34.8158 51.668 34.8189L17.5684 35.4389C17.3459 35.4429 17.1933 35.216 17.281 35.0115ZM32.9431 32.8237L32.7487 25.8255C32.7439 25.6529 32.8826 25.5103 33.0553 25.5103H36.6619C36.8313 25.5103 36.9686 25.6476 36.9686 25.817V29.6665C36.9686 29.7141 36.9575 29.7611 36.9362 29.8037L35.3619 32.9523C35.31 33.0562 35.2038 33.1218 35.0876 33.1218H33.2497C33.0836 33.1218 32.9477 32.9897 32.9431 32.8237Z" fill="white"/>
<path d="M6.73817 87.1193L0.642903 76.0487L3.20996 75.7602L7.40226 83.4518L9.73388 75.0271L12.35 74.7332L8.84741 86.8823L6.73817 87.1193Z" fill="white"/>
<path d="M20.252 86.0358C18.9284 86.1345 17.8337 85.8367 16.968 85.1423C16.1014 84.437 15.6083 83.5773 15.4887 82.5633L17.8678 82.3858C17.9937 82.8934 18.2587 83.2751 18.6627 83.531C19.066 83.7759 19.5411 83.8779 20.088 83.8371C20.5802 83.8004 20.9717 83.6667 21.2625 83.436C21.5525 83.1944 21.684 82.8931 21.6571 82.5321C21.6089 81.8868 21.0543 81.4551 19.9931 81.2373L18.7355 80.9681C17.7635 80.7656 16.9878 80.3945 16.4086 79.8547C15.8294 79.315 15.502 78.6134 15.4266 77.7501C15.3475 76.689 15.6406 75.8257 16.3059 75.1601C16.9704 74.4836 17.8934 74.1012 19.0747 74.0131C20.2671 73.9242 21.2621 74.213 22.0597 74.8794C22.8566 75.535 23.3116 76.326 23.4247 77.2525L21.0619 77.4287C20.9073 76.9783 20.6633 76.6555 20.3297 76.4604C19.9962 76.2653 19.6325 76.1824 19.2387 76.2118C18.8012 76.2444 18.4476 76.3698 18.1778 76.5879C17.9182 76.7943 17.7956 77.0674 17.81 77.4073C17.8252 77.7582 17.9612 78.034 18.2182 78.2348C18.4752 78.4357 18.8605 78.5884 19.3743 78.6931L20.7643 78.9689C22.8187 79.3766 23.9127 80.4775 24.0465 82.2714C24.1216 83.2778 23.8062 84.1373 23.1004 84.8499C22.4047 85.5507 21.4552 85.946 20.252 86.0358Z" fill="white"/>
<path d="M27.7546 85.3512L27.2803 73.6788L34.5468 73.3835L34.639 75.6522L29.7563 75.8506L29.8538 78.2509L33.7501 78.0926L33.8423 80.3613L29.946 80.5196L30.0462 82.9856L34.9289 82.7872L35.0211 85.0559L27.7546 85.3512Z" fill="white"/>
<path d="M47.8295 85.1469C46.5023 85.1343 45.4364 84.7458 44.6319 83.9812C43.8275 83.2057 43.4082 82.3077 43.374 81.2873L45.7597 81.3099C45.8425 81.8262 46.0746 82.2288 46.4558 82.5176C46.8371 82.7955 47.3019 82.937 47.8504 82.9422C48.344 82.9469 48.7453 82.8465 49.0544 82.641C49.3636 82.4245 49.5199 82.1353 49.5233 81.7733C49.5295 81.1262 49.0129 80.6496 47.9737 80.3436L46.7432 79.9699C45.7915 79.6867 45.0497 79.2518 44.5178 78.6654C43.9858 78.079 43.7185 77.3524 43.7157 76.4858C43.7258 75.4219 44.0902 74.5862 44.809 73.9787C45.5279 73.3602 46.4796 73.0566 47.6642 73.0678C48.8598 73.0792 49.8271 73.4503 50.5661 74.1813C51.3052 74.9013 51.6923 75.7277 51.7273 76.6605L49.3581 76.638C49.2418 76.1762 49.0256 75.8341 48.7096 75.6117C48.3936 75.3893 48.0382 75.2763 47.6433 75.2725C47.2046 75.2684 46.8417 75.3636 46.5546 75.5584C46.2786 75.7422 46.1336 76.0041 46.1194 76.3441C46.1051 76.695 46.2175 76.9812 46.4568 77.2029C46.696 77.4245 47.0672 77.6091 47.5704 77.7564L48.9324 78.1478C50.9453 78.7263 51.9433 79.915 51.9262 81.7138C51.9167 82.7229 51.5303 83.553 50.7673 84.2039C50.0153 84.844 49.036 85.1583 47.8295 85.1469Z" fill="white"/>
<path d="M58.9288 85.2527L54.6612 73.3574L57.2415 73.4786L60.1646 81.7364L63.7993 73.7865L66.429 73.91L61.0489 85.3523L58.9288 85.2527Z" fill="white"/>
<path d="M71.747 82.8551C72.3922 83.6401 73.2173 84.0778 74.2224 84.1683C75.2275 84.2588 76.1121 83.975 76.8762 83.3169C77.6522 82.6489 78.0865 81.8014 78.1789 80.7744C78.2714 79.7475 77.995 78.8415 77.3498 78.0566C76.7165 77.2617 75.8973 76.819 74.8922 76.7285C73.8872 76.638 72.9966 76.9267 72.2206 77.5948C71.4565 78.2529 71.0282 79.0954 70.9357 80.1223C70.8433 81.1492 71.1137 82.0602 71.747 82.8551ZM78.418 85.0912C77.1438 86.1549 75.6764 86.612 74.0158 86.4625C72.3553 86.313 70.9877 85.6007 69.913 84.3255C68.8503 83.0403 68.3937 81.5675 68.5432 79.9069C68.6927 78.2463 69.4046 76.8842 70.6788 75.8205C71.9649 74.7468 73.4382 74.2847 75.0988 74.4342C76.7594 74.5837 78.121 75.3011 79.1838 76.5862C80.2584 77.8614 80.721 79.3293 80.5715 80.9899C80.422 82.6504 79.7041 84.0176 78.418 85.0912Z" fill="white"/>
<path d="M83.1697 87.3168L84.5946 75.7219L86.9625 76.013L85.5376 87.6078L83.1697 87.3168Z" fill="white"/>
</svg>
