<svg width="89" height="92" viewBox="0 0 89 92" fill="none" xmlns="http://www.w3.org/2000/svg">
<path d="M62.291 0C55.4222 0 49.2867 3.10111 45.2335 7.96411C44.9833 8.26431 44.517 8.2643 44.2668 7.9641C40.2138 3.1011 34.0781 0 27.2094 0C15.0049 0 5.11108 9.78753 5.11108 21.8612C5.11108 46.2155 37.2353 61.8575 43.6452 64.7362C44.3593 65.0569 45.1417 65.059 45.8573 64.7418C52.2724 61.898 84.3892 46.4339 84.3892 21.8612C84.3895 9.78753 74.4955 0 62.291 0Z" fill="#D92B48"/>
<path d="M0.923096 68.2093C34.5744 63.9649 53.4307 64.0103 87.082 68.2093C55.6418 57.9072 29.9804 58.5727 0.923096 68.2093Z" fill="#D92B48"/>
<path fill-rule="evenodd" clip-rule="evenodd" d="M35.2784 13.4829C34.1423 12.0628 34.119 10.2452 34.3076 9.15641C34.3481 8.92247 34.1311 8.71039 33.9126 8.8034C31.3832 9.88028 30.8082 13.0559 33.5869 16.2316C35.7292 18.6799 34.9921 20.6853 34.7419 21.366C34.6464 21.6259 34.6218 21.6927 34.8555 21.5175C38.5805 18.7235 36.9699 15.5973 35.2784 13.4829ZM38.6612 39.3658V44.0534C38.6612 44.2186 38.7952 44.3525 38.9604 44.3525H41.9565C42.1217 44.3525 42.2556 44.2186 42.2556 44.0534V39.3658C42.2556 39.2006 42.1217 39.0667 41.9565 39.0667H38.9604C38.7952 39.0667 38.6612 39.2006 38.6612 39.3658ZM25.9762 44.2645V39.7884C25.9762 39.6232 26.1101 39.4892 26.2753 39.4892H29.4828C29.6481 39.4892 29.782 39.6232 29.782 39.7884V44.2645C29.782 44.4297 29.6481 44.5637 29.4828 44.5637H26.2753C26.1101 44.5637 25.9762 44.4297 25.9762 44.2645ZM17.282 35.0362L22.0932 23.8101C22.1398 23.7012 22.245 23.629 22.3633 23.6244L60.7194 22.1573C60.81 22.1538 60.8943 22.1105 60.9499 22.039L62.5948 19.9218C62.5793 19.8813 62.5617 19.8417 62.5418 19.8035C62.4232 19.5756 62.2745 19.4331 62.1116 19.2771C61.8589 19.0349 61.572 18.7601 61.3108 18.0832C61.1374 17.6341 61.0634 17.2109 61.0003 16.8501C60.907 16.3167 60.8376 15.9198 60.5064 15.7774C60.1726 15.634 60.0767 16.3228 60.0247 16.7069C60.0207 16.7361 59.9873 16.7228 59.9805 16.6888C59.8943 16.2575 60.0015 15.9497 60.0824 15.7175C60.1089 15.6416 60.1325 15.5737 60.1457 15.5123C60.1508 15.4881 60.126 15.46 60.1092 15.4703C59.7671 15.6809 59.7377 16.0841 59.7027 16.6219C59.7007 16.6534 59.6646 16.6414 59.6555 16.606C59.4459 15.7925 59.5651 15.3761 59.6687 15.0143C59.678 14.9819 59.6871 14.95 59.6959 14.9183C59.7028 14.8933 59.6766 14.8596 59.6587 14.8709C59.4356 15.0127 59.2918 15.406 59.197 15.993C59.1921 16.0235 59.1533 16.0054 59.1471 15.9696C59.0019 15.1253 59.1041 14.7846 59.2411 14.3277C59.2572 14.2741 59.2737 14.219 59.2904 14.1612C59.2978 14.1355 59.2693 14.0989 59.2504 14.1101C58.9963 14.2613 58.8052 14.4876 58.5126 14.8561C58.4977 14.8749 58.4637 14.8438 58.4663 14.8135C58.5248 14.1081 58.7108 13.1696 59.3563 12.6733C60.0592 12.1328 61.2695 12.6671 61.9369 13.9365C62.2053 14.447 62.0859 14.9839 61.9726 15.4933C61.8378 16.0988 61.7118 16.6653 62.2565 17.1021C62.8129 17.5482 63.2358 17.0933 63.2785 16.9691C63.3495 16.7628 63.3671 16.5806 63.3846 16.4C63.3985 16.2556 63.4124 16.1121 63.4534 15.9581C63.5519 15.5874 63.8246 15.2158 64.4353 15.0385C64.4434 15.0361 64.4485 15.0268 64.4445 15.014C64.427 14.958 64.3619 14.9021 64.2885 14.8392C64.1565 14.726 63.9976 14.5896 64.0392 14.3871C64.0749 14.2137 64.2627 14.331 64.3379 14.379C64.3501 14.3868 64.3617 14.3833 64.3626 14.3691C64.3665 14.312 64.3309 14.2542 64.2945 14.195C64.2503 14.1233 64.2049 14.0495 64.2272 13.9727C64.2646 13.8431 64.3805 13.9218 64.5073 14.0079C64.5822 14.0588 64.661 14.1123 64.7297 14.1269C64.7415 14.1294 64.7487 14.1191 64.7469 14.1037C64.7442 14.0812 64.7408 14.0573 64.7373 14.0325C64.7152 13.876 64.6887 13.6882 64.8095 13.639C65.0562 13.5385 65.6027 14.3298 65.5698 14.62C65.5609 14.6983 65.5214 14.7281 65.4816 14.7583C65.4429 14.7875 65.404 14.817 65.3925 14.8914C65.3904 14.9049 65.3983 14.9225 65.4103 14.9313C65.4645 14.9709 65.5427 15.0094 65.6279 15.0512C65.7468 15.1097 65.8791 15.1747 65.9778 15.2585C65.9925 15.271 65.9989 15.2941 65.9897 15.3041C65.9611 15.3347 65.9109 15.3554 65.857 15.3776C65.7425 15.4247 65.6112 15.4787 65.6336 15.6497C65.6463 15.7467 65.7015 15.8072 65.764 15.8757C65.8006 15.9158 65.8397 15.9586 65.8743 16.0131C65.8875 16.0338 65.8823 16.0556 65.8651 16.0512C65.8237 16.0406 65.7718 16.0154 65.7191 15.9898C65.6238 15.9435 65.5257 15.8959 65.4813 15.9305C65.4379 15.9643 65.481 16.1111 65.5306 16.2808C65.6099 16.5513 65.7061 16.8797 65.4959 16.8998C65.3373 16.9149 65.2211 16.7173 65.1151 16.5371C65.0473 16.4219 64.9838 16.314 64.9161 16.273C64.9058 16.2668 64.8966 16.2711 64.8933 16.2813C64.776 16.6491 64.8632 16.9737 64.97 17.3711C65.0632 17.7178 65.1712 18.1199 65.1712 18.6545C65.1712 19.5168 64.6156 19.9726 64.0222 20.1064C63.7659 20.1642 63.583 20.2507 63.4457 20.3752L69.3723 35.902C69.4489 36.1027 69.3007 36.318 69.0858 36.318H68.8791C68.7607 36.318 68.653 36.2499 68.6021 36.143L62.7506 23.8346C62.6568 23.6373 62.3927 23.5986 62.2462 23.7607L52.6162 34.4151L60.9884 26.8597C61.1381 26.7246 61.3752 26.7682 61.467 26.9478L66.1133 36.0384C66.1362 36.0831 66.1477 36.1328 66.1468 36.1831L65.9422 48.4625C65.9392 48.6407 65.7854 48.7789 65.6078 48.7628L61.5754 48.3962C61.4127 48.3814 61.2902 48.2417 61.2967 48.0785L61.6968 38.0781C61.7031 37.9195 61.5874 37.7823 61.43 37.7618L57.1781 37.2072C56.9992 37.1838 56.839 37.3192 56.832 37.4995L56.434 47.8491C56.4274 48.0194 56.2832 48.1517 56.113 48.1436L52.274 47.9608C52.1105 47.953 51.9819 47.8182 51.9819 47.6545V35.1502C51.9819 34.9787 51.8412 34.8405 51.6697 34.8436L17.5694 35.4636C17.3469 35.4677 17.1943 35.2408 17.282 35.0362ZM32.9445 32.8484L32.7501 25.85C32.7453 25.6774 32.8839 25.5348 33.0566 25.5348H36.6633C36.8327 25.5348 36.97 25.6721 36.97 25.8415V29.6911C36.97 29.7387 36.9589 29.7857 36.9376 29.8283L35.3633 32.977C35.3113 33.0809 35.2052 33.1465 35.089 33.1465H33.251C33.085 33.1465 32.9491 33.0143 32.9445 32.8484Z" fill="white"/>
<path d="M6.73828 87.1242L0.642875 76.0533L3.20999 75.7649L7.40239 83.4566L9.73406 75.0317L12.3502 74.7378L8.84757 86.8872L6.73828 87.1242Z" fill="#171E2F"/>
<path d="M20.2475 86.0407C18.9239 86.1394 17.8292 85.8416 16.9634 85.1472C16.0968 84.4418 15.6037 83.5821 15.484 82.5681L17.8633 82.3906C17.9891 82.8982 18.2541 83.2799 18.6582 83.5358C19.0614 83.7807 19.5365 83.8827 20.0835 83.842C20.5757 83.8052 20.9672 83.6715 21.258 83.4409C21.548 83.1992 21.6795 82.8979 21.6526 82.5369C21.6045 81.8915 21.0498 81.4599 19.9885 81.2421L18.731 80.9729C17.7589 80.7704 16.9832 80.3993 16.404 79.8595C15.8247 79.3197 15.4974 78.6181 15.422 77.7548C15.3429 76.6937 15.636 75.8304 16.3013 75.1647C16.9658 74.4882 17.8888 74.1059 19.0702 74.0177C20.2625 73.9288 21.2576 74.2176 22.0553 74.8841C22.8521 75.5396 23.3071 76.3307 23.4202 77.2572L21.0574 77.4334C20.9028 76.983 20.6588 76.6602 20.3252 76.4651C19.9917 76.27 19.628 76.1871 19.2342 76.2165C18.7966 76.2491 18.443 76.3745 18.1733 76.5926C17.9137 76.7989 17.791 77.0721 17.8054 77.412C17.8206 77.7629 17.9566 78.0387 18.2136 78.2395C18.4706 78.4404 18.856 78.5931 19.3698 78.6978L20.7598 78.9736C22.8142 79.3814 23.9083 80.4822 24.0421 82.2762C24.1172 83.2826 23.8018 84.1421 23.096 84.8547C22.4002 85.5556 21.4507 85.9509 20.2475 86.0407Z" fill="#171E2F"/>
<path d="M27.7546 85.3536L27.2803 73.6809L34.547 73.3857L34.6391 75.6545L29.7563 75.8529L29.8539 78.2532L33.7503 78.0948L33.8424 80.3636L29.9461 80.5219L30.0463 82.988L34.9291 82.7896L35.0212 85.0584L27.7546 85.3536Z" fill="#171E2F"/>
<path d="M47.8333 85.154C46.506 85.1414 45.4402 84.7528 44.6356 83.9883C43.8312 83.2128 43.4119 82.3148 43.3777 81.2943L45.7634 81.3169C45.8463 81.8332 46.0783 82.2358 46.4595 82.5246C46.8408 82.8025 47.3057 82.944 47.8541 82.9492C48.3477 82.9539 48.7491 82.8535 49.0582 82.648C49.3674 82.4315 49.5237 82.1423 49.5271 81.7803C49.5333 81.1332 49.0167 80.6566 47.9775 80.3506L46.7469 79.9769C45.7952 79.6936 45.0534 79.2588 44.5215 78.6723C43.9895 78.0859 43.7221 77.3594 43.7194 76.4927C43.7295 75.4287 44.0939 74.593 44.8127 73.9855C45.5316 73.367 46.4834 73.0634 47.668 73.0746C48.8636 73.086 49.8309 73.4571 50.5699 74.1882C51.309 74.9082 51.6961 75.7346 51.7312 76.6674L49.3619 76.6449C49.2456 76.1831 49.0295 75.841 48.7134 75.6186C48.3974 75.3962 48.042 75.2831 47.6471 75.2794C47.2083 75.2752 46.8454 75.3705 46.5584 75.5652C46.2824 75.7491 46.1373 76.011 46.1231 76.351C46.1088 76.7018 46.2213 76.9881 46.4605 77.2098C46.6998 77.4315 47.071 77.616 47.5742 77.7634L48.9362 78.1547C50.9492 78.7332 51.9471 79.922 51.9301 81.7208C51.9205 82.73 51.5342 83.56 50.7711 84.211C50.0191 84.8511 49.0398 85.1654 47.8333 85.154Z" fill="#171E2F"/>
<path d="M58.9313 85.2508L54.6636 73.3552L57.2441 73.4763L60.1671 81.7344L63.802 73.7843L66.4317 73.9078L61.0515 85.3503L58.9313 85.2508Z" fill="#171E2F"/>
<path d="M71.7488 82.8487C72.394 83.6337 73.2192 84.0714 74.2243 84.1619C75.2294 84.2524 76.114 83.9686 76.8781 83.3105C77.6542 82.6425 78.0884 81.7949 78.1809 80.768C78.2733 79.741 77.997 78.835 77.3517 78.0501C76.7184 77.2551 75.8992 76.8124 74.8941 76.7219C73.889 76.6314 72.9984 76.9202 72.2224 77.5882C71.4583 78.2463 71.03 79.0889 70.9375 80.1158C70.8451 81.1428 71.1155 82.0537 71.7488 82.8487ZM78.42 85.0848C77.1457 86.1486 75.6783 86.6057 74.0177 86.4562C72.3571 86.3067 70.9894 85.5943 69.9148 84.3191C68.852 83.0339 68.3954 81.561 68.5449 79.9004C68.6944 78.2398 69.4063 76.8776 70.6805 75.8139C71.9667 74.7402 73.4401 74.2781 75.1007 74.4276C76.7613 74.5771 78.123 75.2945 79.1857 76.5796C80.2604 77.8549 80.723 79.3228 80.5735 80.9834C80.424 82.644 79.7061 84.0112 78.42 85.0848Z" fill="#171E2F"/>
<path d="M83.1685 87.3346L84.5934 75.7395L86.9614 76.0305L85.5365 87.6256L83.1685 87.3346Z" fill="#171E2F"/>
</svg>
