<svg width="465" height="353" viewBox="0 0 465 353" fill="none" xmlns="http://www.w3.org/2000/svg">
<path opacity="0.04" d="M104.41 265.016C104.41 265.016 59.113 238.209 61.5279 169.407C63.9429 100.605 124.679 58.8465 169.428 59.7701C214.177 60.6937 227.141 79.9552 264.04 82.9498C300.939 85.9443 365.893 59.2173 405.575 92.2729C445.257 125.329 413.71 206.596 366.555 265.05C319.399 323.504 177.523 333.677 104.41 265.016Z" fill="#2F3646"/>
<g clip-path="url(#clip0)">
<path d="M429.692 315.416H50.6848V315.605H429.692V315.416Z" fill="#EBEBEB"/>
<path d="M391.715 327.572H366.609V327.761H391.715V327.572Z" fill="#EBEBEB"/>
<path d="M301.754 329.627H295.167V329.816H301.754V329.627Z" fill="#EBEBEB"/>
<path d="M365.852 320.561H351.305V320.749H365.852V320.561Z" fill="#EBEBEB"/>
<path d="M123.189 321.83H90.4502V322.019H123.189V321.83Z" fill="#EBEBEB"/>
<path d="M134.741 321.83H129.943V322.019H134.741V321.83Z" fill="#EBEBEB"/>
<path d="M221.352 325.02H150.341V325.208H221.352V325.02Z" fill="#EBEBEB"/>
<path d="M230.342 281.722H83.9767C81.589 281.722 79.6484 279.788 79.6484 277.408V72.3489C79.6484 69.9692 81.589 68.0352 83.9767 68.0352H230.349C232.737 68.0352 234.677 69.9692 234.677 72.3489V277.408C234.67 279.788 232.729 281.722 230.342 281.722ZM83.9767 68.224C81.6951 68.224 79.8379 70.0749 79.8379 72.3489V277.408C79.8379 279.682 81.6951 281.533 83.9767 281.533H230.349C232.631 281.533 234.488 279.682 234.488 277.408V72.3489C234.488 70.0749 232.631 68.224 230.349 68.224H83.9767V68.224Z" fill="#EBEBEB"/>
<path d="M394.3 281.722H247.927C245.54 281.722 243.599 279.788 243.599 277.408V72.3489C243.599 69.9692 245.54 68.0352 247.927 68.0352H394.3C396.687 68.0352 398.628 69.9692 398.628 72.3489V277.408C398.628 279.788 396.687 281.722 394.3 281.722ZM247.927 68.224C245.646 68.224 243.789 70.0749 243.789 72.3489V277.408C243.789 279.682 245.646 281.533 247.927 281.533H394.3C396.581 281.533 398.439 279.682 398.439 277.408V72.3489C398.439 70.0749 396.581 68.224 394.3 68.224H247.927V68.224Z" fill="#EBEBEB"/>
<path d="M240.188 349.534C321.358 349.534 387.159 345.705 387.159 340.982C387.159 336.259 321.358 332.43 240.188 332.43C159.018 332.43 93.2168 336.259 93.2168 340.982C93.2168 345.705 159.018 349.534 240.188 349.534Z" fill="#F5F5F5"/>
<path d="M197.793 114.316C198.52 111.135 206.479 108.113 213.301 112.775C220.124 117.436 221.928 125.429 219.745 131.873C216.083 142.677 235.193 142.276 239.62 160.491C243.114 174.875 239.87 195.175 220.374 194.072C190.607 192.387 193.176 163.392 191.872 148.154C190.561 132.916 174.324 115.857 197.793 114.316Z" fill="#263238"/>
<path d="M187.961 154.998C187.832 157.204 187.574 159.221 187.286 161.321C186.991 163.399 186.597 165.461 186.149 167.516C185.687 169.571 185.202 171.626 184.55 173.651C183.936 175.683 183.201 177.7 182.337 179.68L181.669 181.16C181.579 181.387 181.397 181.712 181.253 181.991C181.101 182.278 180.934 182.528 180.775 182.8C180.131 183.835 179.418 184.719 178.698 185.557C177.258 187.234 175.719 188.708 174.15 190.113C170.974 192.885 167.699 195.378 164.175 197.637L162.151 195.031C163.576 193.656 165.031 192.236 166.433 190.815C167.851 189.403 169.223 187.952 170.542 186.486C171.868 185.028 173.127 183.532 174.218 182.037C174.764 181.289 175.249 180.526 175.643 179.808C175.727 179.634 175.833 179.453 175.901 179.279C175.977 179.098 176.037 178.977 176.128 178.728L176.636 177.398C177.955 173.825 178.888 170.032 179.653 166.194C180.04 164.275 180.313 162.326 180.608 160.385C180.889 158.458 181.109 156.441 181.283 154.598L187.961 154.998Z" fill="#FFB573"/>
<path d="M183.413 147.064C180.722 147.744 178.834 158.789 178.834 158.789L189.136 165.77C189.136 165.77 193.373 152.677 191.304 149.723C189.143 146.649 187.339 146.067 183.413 147.064Z" fill="#CC2849"/>
<path opacity="0.2" d="M183.656 149.527L181.586 160.656L185.755 163.481L183.656 149.527Z" fill="#2B3242"/>
<path d="M163.386 194.07L156.45 195.173L160.407 199.54C160.407 199.54 164.501 198.611 165.213 195.997L163.386 194.07Z" fill="#FFB573"/>
<path d="M153.168 196.043L157.125 200.311L160.407 199.54L156.451 195.174L153.168 196.043Z" fill="#FFB573"/>
<path d="M197.982 332.943H191.448L191.008 317.863H197.542L197.982 332.943Z" fill="#FFB573"/>
<path d="M243.16 313.754L237.111 316.217L229.447 303.049L235.496 300.586L243.16 313.754Z" fill="#FFB573"/>
<path d="M235.974 315.31L242.281 311.57C242.508 311.434 242.788 311.479 242.955 311.683L246.639 316.231C247.018 316.7 246.866 317.455 246.336 317.757C244.115 319.019 242.978 319.525 240.204 321.165C238.498 322.177 234.481 325.637 232.123 327.035C229.819 328.402 228.257 326.181 229.114 325.388C232.949 321.837 234.496 318.316 235.239 316.193C235.375 315.831 235.64 315.514 235.974 315.31Z" fill="#263238"/>
<path d="M191.221 332.195H198.558C198.823 332.195 199.043 332.377 199.081 332.641L199.915 338.428C199.998 339.025 199.483 339.599 198.869 339.584C196.307 339.539 195.079 339.387 191.85 339.387C189.864 339.387 185.755 339.591 183.011 339.591C180.328 339.591 180.123 336.887 181.268 336.645C186.384 335.55 188.401 334.031 190.129 332.588C190.44 332.331 190.834 332.195 191.221 332.195Z" fill="#263238"/>
<g opacity="0.2">
<path opacity="0.2" d="M191.008 317.871L191.236 325.645H197.77L197.55 317.871H191.008Z" fill="#2B3242"/>
<path opacity="0.2" d="M235.504 300.586L229.447 303.049L233.404 309.841L239.453 307.378L235.504 300.586Z" fill="#2B3242"/>
</g>
<path d="M183.413 147.065C183.413 147.065 180.298 148.161 186.536 186.365C197.065 186.365 207.95 186.365 213.074 186.365C212.627 175.599 212.619 168.966 217.781 146.876C217.781 146.876 212.225 145.667 206.517 145.395C202.053 145.184 198.392 145.04 194.465 145.395C189.28 145.864 183.413 147.065 183.413 147.065Z" fill="#CC2849"/>
<path opacity="0.2" d="M215.583 155.617C213.18 156.214 210.959 158.828 211.225 163.64C211.384 166.526 212.71 168.71 213.438 169.699C213.863 165.997 214.575 161.699 215.705 156.199L215.583 155.617Z" fill="#2B3242"/>
<path d="M195.852 155.957C195.852 155.957 199.301 158.08 200.203 161.223C203.948 158.488 209.034 150.881 209.239 146.333C209.261 145.781 208.791 145.328 208.238 145.32C207.154 145.305 206.51 145.388 206.51 145.388L195.852 155.957Z" fill="#FAFAFA"/>
<path d="M195.852 155.956C195.852 155.956 192.403 158.079 191.501 161.222C187.476 158.283 189.712 148.59 192.016 145.357C193.676 145.251 194.457 145.387 194.457 145.387L195.852 155.956Z" fill="#FAFAFA"/>
<path d="M205.312 131.873C204.554 135.734 203.796 142.82 206.502 145.396C206.502 145.396 202.916 152.248 195.852 155.965C190.478 151.682 194.457 145.396 194.457 145.396C198.778 144.369 198.672 141.173 197.914 138.166L205.312 131.873Z" fill="#FFB573"/>
<path opacity="0.2" d="M202.295 134.441L197.914 138.166C198.095 138.876 198.232 139.594 198.285 140.296C199.937 140.062 202.537 138.657 202.886 136.866C203.061 136.02 202.439 134.842 202.295 134.441Z" fill="#2B3242"/>
<path d="M211.808 125.662C210.019 131.872 209.39 134.539 205.479 137.062C199.597 140.863 192.335 137.312 192.229 130.686C192.13 124.726 195.079 115.569 201.825 114.436C208.465 113.325 213.605 119.452 211.808 125.662Z" fill="#FFB573"/>
<path d="M198.354 114.995C198.649 117.095 210.186 123.849 212.377 120.329C214.567 116.801 211.414 114.156 206.51 113.484C201.605 112.812 198.354 114.995 198.354 114.995Z" fill="#263238"/>
<path d="M205.873 116.135C204.455 118.001 207.457 131.38 211.755 130.126C216.053 128.872 215.856 124.581 212.869 120.63C209.883 116.671 205.873 116.135 205.873 116.135Z" fill="#263238"/>
<path d="M186.536 186.365C186.536 186.365 181.382 236.521 181.814 256.383C182.261 277.038 189.856 324.142 189.856 324.142H198.687C198.687 324.142 197.292 278.239 198.073 257.954C198.922 235.841 205.972 186.365 205.972 186.365H186.536V186.365Z" fill="#CC2849"/>
<path opacity="0.4" d="M186.536 186.365C186.536 186.365 181.382 236.521 181.814 256.383C182.261 277.038 189.856 324.142 189.856 324.142H198.687C198.687 324.142 197.292 278.239 198.073 257.954C198.922 235.841 205.972 186.365 205.972 186.365H186.536V186.365Z" fill="#2B3242"/>
<path d="M199.445 324.452H189.083L188.325 321.158L199.93 320.758L199.445 324.452Z" fill="#263238"/>
<path opacity="0.2" d="M197.982 198.846C191.463 211.916 196.671 235.751 198.975 244.62C200.157 231.301 202.151 215.021 203.705 203.061C202.712 196.292 200.984 192.817 197.982 198.846Z" fill="#2B3242"/>
<path d="M193.54 186.365C193.54 186.365 199.551 238.508 204.092 255.257C209.481 275.134 231.372 309.047 231.372 309.047L239.62 305.693C239.62 305.693 225.483 267.081 221.359 256.61C212.566 234.263 220.093 200.954 213.066 186.373H193.54V186.365Z" fill="#CC2849"/>
<path opacity="0.4" d="M193.54 186.365C193.54 186.365 199.551 238.508 204.092 255.257C209.481 275.134 231.372 309.047 231.372 309.047L239.62 305.693C239.62 305.693 225.483 267.081 221.359 256.61C212.566 234.263 220.093 200.954 213.066 186.373H193.54V186.365Z" fill="#2B3242"/>
<path d="M240.749 305.724L230.516 309.886L228.113 307.129L239.923 301.689L240.749 305.724Z" fill="#263238"/>
<path d="M120.126 120.019C101.692 136.277 99.9785 164.358 116.291 182.723C132.603 201.097 160.771 202.804 179.206 186.546C197.641 170.288 199.362 142.207 183.049 123.841C166.737 105.476 138.561 103.761 120.126 120.019ZM174.529 181.288C159.013 194.97 135.302 193.534 121.574 178.07C107.839 162.605 109.287 138.966 124.803 125.284C140.32 111.595 164.038 113.038 177.766 128.503C191.501 143.967 190.053 167.599 174.529 181.288Z" fill="#263238"/>
<path opacity="0.3" d="M147.574 187.49C128.624 186.342 114.199 170.092 115.351 151.205C116.511 132.31 132.808 117.934 151.759 119.082C170.716 120.238 185.141 136.481 183.989 155.375C182.829 174.262 166.532 188.639 147.574 187.49Z" fill="#CC2849"/>
<g opacity="0.5">
<path opacity="0.5" d="M151.758 119.081C151.539 119.066 151.334 119.058 151.114 119.051L115.396 150.554C115.374 150.773 115.366 150.985 115.351 151.204C114.881 158.925 117.019 166.215 121.006 172.206L171.997 127.233C166.517 122.556 159.513 119.549 151.758 119.081Z" fill="#FAFAFA"/>
<path opacity="0.5" d="M175.295 130.443L123.803 175.863C125.523 177.819 127.464 179.58 129.594 181.106L179.812 136.812C178.554 134.515 177.038 132.377 175.295 130.443Z" fill="#FAFAFA"/>
</g>
<path d="M184.74 186.887L178.873 192.062C177.978 192.848 176.621 192.764 175.833 191.881C175.045 190.989 175.128 189.637 176.015 188.851L181.882 183.676C182.776 182.89 184.133 182.973 184.921 183.857C185.717 184.741 185.634 186.101 184.74 186.887Z" fill="#263238"/>
<path d="M182.579 185.927C186.999 189.802 191.228 193.852 195.405 197.954C199.574 202.056 203.66 206.234 207.692 210.45C211.725 214.673 215.682 218.956 219.608 223.278C223.292 227.81 228.31 231.157 229.061 238.274C229.265 240.253 227.833 242.021 225.847 242.225C225.445 242.27 225.036 242.24 224.657 242.149C217.66 240.54 214.931 235.169 210.868 230.976C207.048 226.571 203.266 222.129 199.544 217.627C195.829 213.124 192.168 208.576 188.59 203.952C185.013 199.329 181.495 194.652 178.175 189.802C177.251 188.458 177.599 186.622 178.948 185.7C180.093 184.929 181.586 185.058 182.579 185.927Z" fill="#263238"/>
<path d="M201.363 125.103C201.249 125.616 200.885 125.972 200.544 125.896C200.211 125.82 200.029 125.344 200.142 124.831C200.256 124.317 200.62 123.962 200.961 124.037C201.294 124.113 201.476 124.589 201.363 125.103Z" fill="#263238"/>
<path d="M195.549 123.819C195.435 124.333 195.071 124.688 194.73 124.613C194.397 124.537 194.215 124.061 194.328 123.548C194.442 123.034 194.806 122.679 195.147 122.754C195.481 122.83 195.662 123.306 195.549 123.819Z" fill="#263238"/>
<path d="M195.291 122.815L194.131 122.188C194.131 122.188 194.548 123.291 195.291 122.815Z" fill="#263238"/>
<path d="M197.133 125.141C197.133 125.141 195.768 127.158 194.571 128.004C195.109 128.79 196.329 128.752 196.329 128.752L197.133 125.141Z" fill="#ED893E"/>
<path d="M198.687 131.381C198.445 131.366 198.187 131.328 197.914 131.268C197.831 131.253 197.777 131.17 197.793 131.087C197.808 131.003 197.891 130.943 197.975 130.973C200.233 131.472 201.636 130.135 201.651 130.12C201.712 130.059 201.81 130.059 201.871 130.12C201.931 130.18 201.931 130.278 201.871 130.339C201.818 130.392 200.643 131.51 198.687 131.381Z" fill="#263238"/>
<path d="M212.225 131.856C211.482 132.974 210.285 133.639 209.201 133.843C207.563 134.145 206.896 132.649 207.48 131.191C208.003 129.877 209.481 128.139 211.058 128.502C212.612 128.857 213.074 130.587 212.225 131.856Z" fill="#FFB573"/>
<path d="M203.781 122.845C203.66 122.882 203.516 122.845 203.432 122.731C202.591 121.575 200.749 121.59 200.726 121.59C200.552 121.59 200.415 121.454 200.415 121.288C200.415 121.122 200.544 120.979 200.718 120.979C200.809 120.979 202.902 120.963 203.932 122.376C204.031 122.512 204.001 122.709 203.864 122.807C203.841 122.814 203.811 122.829 203.781 122.845Z" fill="#263238"/>
<path d="M194.336 119.573C194.23 119.565 194.131 119.505 194.078 119.406C194.002 119.255 194.063 119.066 194.214 118.991C195.738 118.22 196.989 118.915 197.042 118.945C197.193 119.029 197.239 119.217 197.156 119.369C197.072 119.512 196.883 119.565 196.731 119.482C196.678 119.452 195.708 118.93 194.495 119.542C194.442 119.565 194.389 119.573 194.336 119.573Z" fill="#263238"/>
<path d="M233.465 317.781C233.442 317.781 233.412 317.774 233.389 317.766C233.101 317.706 232.881 317.517 232.752 317.192C232.654 316.95 232.722 316.769 232.798 316.663C233.275 315.983 235.633 316.066 235.905 316.081C235.974 316.081 236.019 316.127 236.042 316.18C236.065 316.24 236.049 316.301 236.004 316.346C235.39 316.935 234.276 317.88 233.465 317.781ZM235.511 316.384C234.564 316.376 233.298 316.489 233.048 316.845C233.017 316.89 232.987 316.958 233.04 317.079C233.131 317.305 233.268 317.434 233.457 317.472C233.897 317.57 234.647 317.154 235.511 316.384Z" fill="#CC2849"/>
<path d="M235.655 316.382C234.852 316.292 233.411 315.74 233.191 315.098C233.146 314.962 233.108 314.698 233.419 314.463C233.616 314.312 233.843 314.259 234.086 314.305C235.018 314.479 235.989 316.088 236.026 316.156C236.057 316.201 236.057 316.261 236.026 316.307C235.996 316.352 235.951 316.382 235.898 316.382C235.822 316.397 235.738 316.39 235.655 316.382ZM233.98 314.599C233.843 314.584 233.715 314.615 233.608 314.705C233.449 314.826 233.457 314.924 233.487 314.992C233.639 315.423 234.814 315.952 235.602 316.058C235.253 315.536 234.586 314.705 234.033 314.599C234.01 314.607 233.995 314.607 233.98 314.599Z" fill="#CC2849"/>
<path d="M188.772 333.328C188.12 333.328 187.521 333.23 187.188 332.928C186.976 332.739 186.885 332.482 186.907 332.18C186.923 331.998 187.014 331.855 187.173 331.772C187.976 331.334 190.576 332.663 190.872 332.814C190.933 332.845 190.963 332.905 190.955 332.973C190.948 333.041 190.895 333.086 190.834 333.101C190.273 333.207 189.492 333.328 188.772 333.328ZM187.605 331.983C187.484 331.983 187.385 331.998 187.317 332.036C187.256 332.074 187.218 332.119 187.211 332.202C187.188 332.414 187.249 332.573 187.385 332.693C187.779 333.049 188.856 333.109 190.303 332.875C189.416 332.452 188.226 331.983 187.605 331.983Z" fill="#CC2849"/>
<path d="M190.796 333.1C190.773 333.1 190.75 333.093 190.735 333.085C189.955 332.738 188.416 331.333 188.537 330.592C188.567 330.419 188.689 330.199 189.121 330.154C189.439 330.124 189.727 330.215 189.977 330.419C190.796 331.098 190.948 332.851 190.955 332.927C190.963 332.98 190.932 333.033 190.887 333.063C190.857 333.093 190.826 333.1 190.796 333.1ZM189.242 330.456C189.212 330.456 189.181 330.456 189.151 330.464C188.871 330.494 188.848 330.607 188.848 330.645C188.772 331.091 189.818 332.194 190.614 332.67C190.538 332.156 190.318 331.106 189.78 330.66C189.613 330.524 189.439 330.456 189.242 330.456Z" fill="#CC2849"/>
<path d="M201.105 124.106L199.945 123.479C199.945 123.471 200.362 124.574 201.105 124.106Z" fill="#263238"/>
<path d="M213.468 184.808L214.15 187.172C214.241 187.354 214.022 187.543 213.718 187.543H186.407C186.165 187.543 185.967 187.429 185.952 187.278L185.71 184.914C185.695 184.747 185.899 184.611 186.165 184.611H213.036C213.233 184.611 213.408 184.687 213.468 184.808Z" fill="#CC2849"/>
<path opacity="0.2" d="M213.468 184.808L214.15 187.172C214.241 187.354 214.022 187.543 213.718 187.543H186.407C186.165 187.543 185.967 187.429 185.952 187.278L185.71 184.914C185.695 184.747 185.899 184.611 186.165 184.611H213.036C213.233 184.611 213.408 184.687 213.468 184.808Z" fill="#2B3242"/>
<path d="M209.769 187.808H210.489C210.633 187.808 210.739 187.732 210.732 187.641L210.391 184.567C210.383 184.476 210.254 184.4 210.11 184.4H209.39C209.246 184.4 209.14 184.476 209.148 184.567L209.489 187.641C209.496 187.732 209.625 187.808 209.769 187.808Z" fill="#CC2849"/>
<path opacity="0.4" d="M209.769 187.808H210.489C210.633 187.808 210.739 187.732 210.732 187.641L210.391 184.567C210.383 184.476 210.254 184.4 210.11 184.4H209.39C209.246 184.4 209.14 184.476 209.148 184.567L209.489 187.641C209.496 187.732 209.625 187.808 209.769 187.808Z" fill="white"/>
<path d="M188.423 187.808H189.144C189.288 187.808 189.394 187.732 189.386 187.641L189.045 184.567C189.037 184.476 188.909 184.4 188.765 184.4H188.044C187.9 184.4 187.794 184.476 187.802 184.567L188.143 187.641C188.158 187.732 188.279 187.808 188.423 187.808Z" fill="#CC2849"/>
<path opacity="0.4" d="M188.423 187.808H189.144C189.288 187.808 189.394 187.732 189.386 187.641L189.045 184.567C189.037 184.476 188.909 184.4 188.765 184.4H188.044C187.9 184.4 187.794 184.476 187.802 184.567L188.143 187.641C188.158 187.732 188.279 187.808 188.423 187.808Z" fill="white"/>
<path d="M199.051 187.808H199.771C199.915 187.808 200.021 187.732 200.013 187.641L199.672 184.567C199.665 184.476 199.536 184.4 199.392 184.4H198.672C198.528 184.4 198.422 184.476 198.429 184.567L198.77 187.641C198.785 187.732 198.907 187.808 199.051 187.808Z" fill="#CC2849"/>
<path opacity="0.4" d="M199.051 187.808H199.771C199.915 187.808 200.021 187.732 200.013 187.641L199.672 184.567C199.665 184.476 199.536 184.4 199.392 184.4H198.672C198.528 184.4 198.422 184.476 198.429 184.567L198.77 187.641C198.785 187.732 198.907 187.808 199.051 187.808Z" fill="white"/>
<path d="M197.125 191.638L190.682 188.768L192.517 195.129C192.517 195.129 196.61 196.05 198.391 194.011L197.125 191.638Z" fill="#FFB573"/>
<path d="M220.866 154.719C221.162 156.947 221.397 159.191 221.662 161.427L222.344 168.144C222.587 170.38 222.769 172.624 222.974 174.867L223.262 178.237L223.33 179.075C223.337 179.158 223.36 179.514 223.368 179.748C223.375 180.012 223.353 180.269 223.337 180.533C223.224 181.568 222.867 182.505 222.435 183.261C221.556 184.779 220.457 185.746 219.396 186.57C218.327 187.386 217.243 188.035 216.151 188.617C213.961 189.75 211.77 190.642 209.549 191.382C207.328 192.13 205.107 192.757 202.871 193.324C200.62 193.845 198.399 194.344 196.087 194.699L195.352 191.48C197.436 190.8 199.574 190.09 201.635 189.305C203.72 188.549 205.774 187.733 207.76 186.834C209.739 185.928 211.694 184.991 213.43 183.888C214.302 183.344 215.121 182.77 215.803 182.173C216.485 181.584 217.031 180.926 217.235 180.465C217.342 180.239 217.364 180.088 217.364 179.997C217.349 179.974 217.364 179.959 217.349 179.937C217.334 179.891 217.349 179.967 217.326 179.77L217.205 178.932L216.72 175.585C216.417 173.356 216.091 171.12 215.81 168.892L214.954 162.19C214.711 159.954 214.423 157.718 214.211 155.474L220.866 154.719Z" fill="#FFB573"/>
<path d="M217.774 146.877C220.434 147.685 223.626 156.804 223.626 156.804L214.325 166.353C214.325 166.353 209.549 156.54 210.671 153.117C211.831 149.544 214.742 145.955 217.774 146.877Z" fill="#CC2849"/>
<path d="M185.346 190.09L187.173 195.333L192.517 195.136L190.682 188.768L185.346 190.09Z" fill="#FFB573"/>
<path d="M275.33 171.287C277.066 158.867 268.372 148.789 255.902 148.789H278.476H346.962C359.424 148.789 368.126 158.86 366.39 171.287H275.33Z" fill="#263238"/>
<path opacity="0.7" d="M275.33 171.287C277.066 158.867 268.372 148.789 255.902 148.789H278.476H346.962C359.424 148.789 368.126 158.86 366.39 171.287H275.33Z" fill="#CC2849"/>
<path d="M255.91 148.797H324.396H346.97C334.508 148.797 322.994 158.867 321.25 171.295L300.67 318.492C298.934 330.912 287.42 340.991 274.951 340.991H229.038C216.576 340.991 207.874 330.92 209.61 318.492L230.19 171.295C231.934 158.867 243.44 148.797 255.91 148.797Z" fill="#CC2849"/>
<path d="M255.523 318.484C253.787 330.904 262.482 340.983 274.951 340.983H252.377H183.891C171.429 340.983 162.727 330.912 164.463 318.484H255.523V318.484Z" fill="#263238"/>
<path opacity="0.7" d="M255.523 318.484C253.787 330.904 262.482 340.983 274.951 340.983H252.377H183.891C171.429 340.983 162.727 330.912 164.463 318.484H255.523V318.484Z" fill="#CC2849"/>
<path opacity="0.4" d="M270.123 194.586H305.393C306.424 194.586 307.379 193.748 307.523 192.728C307.667 191.7 306.939 190.869 305.916 190.869H270.646C269.615 190.869 268.66 191.708 268.516 192.728C268.372 193.748 269.099 194.586 270.123 194.586Z" fill="white"/>
<path opacity="0.4" d="M269.153 201.514H295.069C296.1 201.514 297.055 200.675 297.199 199.655C297.343 198.628 296.615 197.797 295.592 197.797H269.676C268.645 197.797 267.69 198.635 267.546 199.655C267.402 200.675 268.129 201.514 269.153 201.514Z" fill="white"/>
<path opacity="0.4" d="M254.539 202.625C259.416 198.092 260.162 190.988 256.204 186.759C252.246 182.53 245.084 182.777 240.207 187.311C235.33 191.844 234.585 198.948 238.543 203.177C242.5 207.406 249.662 207.159 254.539 202.625Z" fill="white"/>
<path d="M237.316 194.963C237.073 196.693 237.285 198.317 237.861 199.737C239.12 202.857 242.144 204.988 245.965 204.988C249.785 204.988 253.408 202.865 255.538 199.737C256.509 198.317 257.176 196.693 257.418 194.963C258.191 189.425 254.318 184.938 248.762 184.938C243.221 184.945 238.089 189.433 237.316 194.963Z" fill="white"/>
<path opacity="0.4" d="M240.052 198.793C241.015 201.188 243.342 202.82 246.276 202.82C249.209 202.82 251.983 201.188 253.621 198.793C251.862 197.502 249.634 196.746 247.125 196.746C244.608 196.746 242.175 197.502 240.052 198.793Z" fill="#263238"/>
<path opacity="0.4" d="M244.275 192.5C244.009 194.389 245.336 195.923 247.231 195.923C249.126 195.923 250.884 194.389 251.15 192.5C251.415 190.612 250.088 189.078 248.193 189.078C246.298 189.078 244.54 190.612 244.275 192.5Z" fill="#263238"/>
<path opacity="0.4" d="M265.892 224.858H277.793C278.824 224.858 279.779 224.019 279.923 222.999C280.067 221.972 279.34 221.141 278.316 221.141H266.415C265.385 221.141 264.429 221.979 264.285 222.999C264.141 224.019 264.862 224.858 265.892 224.858Z" fill="white"/>
<path opacity="0.4" d="M284.964 224.858H301.959C302.99 224.858 303.945 224.019 304.089 222.999C304.233 221.972 303.505 221.141 302.482 221.141H285.487C284.456 221.141 283.501 221.979 283.357 222.999C283.213 224.019 283.941 224.858 284.964 224.858Z" fill="white"/>
<path opacity="0.4" d="M264.922 231.793H294.06C295.091 231.793 296.046 230.955 296.19 229.935C296.334 228.907 295.607 228.076 294.583 228.076H265.445C264.414 228.076 263.459 228.915 263.315 229.935C263.171 230.955 263.891 231.793 264.922 231.793Z" fill="white"/>
<path opacity="0.4" d="M250.313 232.899C255.19 228.365 255.935 221.262 251.978 217.033C248.02 212.803 240.858 213.05 235.981 217.584C231.104 222.118 230.359 229.221 234.317 233.45C238.274 237.679 245.436 237.432 250.313 232.899Z" fill="white"/>
<path d="M233.078 225.236C232.836 226.966 233.048 228.59 233.624 230.011C234.882 233.131 237.907 235.261 241.727 235.261C245.548 235.261 249.171 233.138 251.301 230.011C252.271 228.59 252.938 226.966 253.181 225.236C253.954 219.698 250.081 215.211 244.524 215.211C238.983 215.218 233.851 219.706 233.078 225.236Z" fill="white"/>
<path opacity="0.4" d="M235.814 229.065C236.777 231.46 239.104 233.092 242.038 233.092C244.971 233.092 247.746 231.46 249.383 229.065C247.624 227.773 245.396 227.018 242.887 227.018C240.378 227.018 237.944 227.773 235.814 229.065Z" fill="#263238"/>
<path opacity="0.4" d="M240.045 222.772C239.779 224.661 241.106 226.194 243.001 226.194C244.896 226.194 246.654 224.661 246.92 222.772C247.185 220.883 245.858 219.35 243.963 219.35C242.068 219.35 240.31 220.883 240.045 222.772Z" fill="#263238"/>
<path opacity="0.4" d="M261.655 255.137H282.372C283.403 255.137 284.358 254.298 284.502 253.278C284.646 252.251 283.918 251.42 282.895 251.42H262.178C261.148 251.42 260.192 252.258 260.048 253.278C259.904 254.298 260.632 255.137 261.655 255.137Z" fill="white"/>
<path opacity="0.4" d="M260.685 262.065H292.977C294.008 262.065 294.963 261.226 295.107 260.206C295.251 259.179 294.523 258.348 293.5 258.348H261.208C260.177 258.348 259.222 259.186 259.078 260.206C258.934 261.226 259.662 262.065 260.685 262.065Z" fill="white"/>
<path opacity="0.2" d="M225.324 291.56H274.777C276.217 291.56 277.559 290.389 277.763 288.946C277.96 287.511 276.952 286.34 275.512 286.34H226.059C224.619 286.34 223.277 287.511 223.073 288.946C222.868 290.382 223.884 291.56 225.324 291.56Z" fill="white"/>
<path opacity="0.2" d="M223.967 301.275H260.306C261.746 301.275 263.088 300.104 263.293 298.661C263.49 297.226 262.482 296.055 261.041 296.055H224.702C223.262 296.055 221.92 297.226 221.716 298.661C221.511 300.096 222.527 301.275 223.967 301.275Z" fill="white"/>
<path opacity="0.2" d="M242.516 172.64H301.474C302.217 172.64 302.914 172.036 303.02 171.288C303.126 170.547 302.596 169.936 301.853 169.936H242.895C242.152 169.936 241.454 170.54 241.348 171.288C241.25 172.036 241.773 172.64 242.516 172.64Z" fill="white"/>
<path opacity="0.4" d="M246.077 263.178C250.954 258.644 251.699 251.541 247.741 247.312C243.783 243.083 236.621 243.33 231.744 247.863C226.867 252.397 226.122 259.501 230.08 263.73C234.038 267.959 241.2 267.712 246.077 263.178Z" fill="white"/>
<path d="M228.849 255.515C228.606 257.245 228.819 258.87 229.395 260.29C230.653 263.41 233.677 265.541 237.498 265.541C241.318 265.541 244.941 263.418 247.071 260.29C248.042 258.87 248.709 257.245 248.951 255.515C249.725 249.978 245.851 245.49 240.295 245.49C234.754 245.49 229.622 249.978 228.849 255.515Z" fill="white"/>
<path opacity="0.4" d="M231.585 259.344C232.548 261.739 234.875 263.371 237.808 263.371C240.742 263.371 243.516 261.739 245.153 259.344C243.395 258.052 241.166 257.297 238.657 257.297C236.141 257.289 233.707 258.045 231.585 259.344Z" fill="#263238"/>
<path opacity="0.4" d="M235.807 253.051C235.542 254.94 236.868 256.474 238.763 256.474C240.659 256.474 242.417 254.94 242.682 253.051C242.948 251.163 241.621 249.629 239.726 249.629C237.831 249.629 236.073 251.155 235.807 253.051Z" fill="#263238"/>
<path d="M318.721 141.869H371.392V82.9991H318.721V141.869Z" fill="#F0F0F0"/>
<path d="M315 141.869H370.569V82.9991H315V141.869Z" fill="#F5F5F5"/>
<path d="M319.662 87.6353V137.232H365.919V87.6353H319.662Z" fill="white"/>
<path d="M347.998 106.817L319.667 94.9336V115.501L340.632 124.283C345.452 126.304 351.061 124.021 353.089 119.217C355.109 114.421 352.818 108.831 347.998 106.817Z" fill="#F0F0F0"/>
<path d="M247.721 116.869H300.392V57.9991L247.721 57.9991V116.869Z" fill="#F0F0F0"/>
<path d="M244 116.869H299.569V57.9991L244 57.9991V116.869Z" fill="#F5F5F5"/>
<path d="M248.659 62.6333V112.23H294.916V62.6333H248.659Z" fill="white"/>
<path d="M264.122 73.1367C260.476 73.1367 257.018 75.2646 255.524 78.8003C253.545 83.4817 255.778 88.9407 260.492 90.9213L294.924 105.367V85.2741L267.694 73.8488C266.528 73.3659 265.312 73.1367 264.122 73.1367Z" fill="#F0F0F0"/>
</g>
<defs>
<clipPath id="clip0">
<rect width="312" height="295" fill="white" transform="translate(94 53.6953)"/>
</clipPath>
</defs>
</svg>
