<svg width="38" height="38" viewBox="0 0 38 38" fill="none" xmlns="http://www.w3.org/2000/svg">
<path d="M33.2498 18.2082C33.2498 26.5207 26.5207 33.2498 18.2082 33.2498C9.89567 33.2498 3.1665 26.5207 3.1665 18.2082C3.1665 9.89567 9.89567 3.1665 18.2082 3.1665" stroke="#EB3A53" stroke-width="2.3" stroke-linecap="round" stroke-linejoin="round"/>
<path d="M34.8332 34.8332L31.6665 31.6665" stroke="#EB3A53" stroke-width="2.3" stroke-linecap="round" stroke-linejoin="round"/>
<path d="M22.9582 9.70555C22.404 7.96389 23.0532 5.79472 24.8899 5.20889C25.8557 4.89222 27.0432 5.16139 27.724 6.09555C28.3574 5.12972 29.5924 4.90805 30.5424 5.20889C32.379 5.79472 33.0282 7.96389 32.474 9.70555C31.6032 12.4764 28.5632 13.9172 27.724 13.9172C26.869 13.9172 23.8607 12.5081 22.9582 9.70555Z" stroke="#EB3A53" stroke-width="2.3" stroke-linecap="round" stroke-linejoin="round"/>
</svg>
