<svg width="38" height="38" viewBox="0 0 38 38" fill="none" xmlns="http://www.w3.org/2000/svg">
<path d="M28.5625 21.4541C27.8975 22.1032 27.5175 23.0374 27.6125 24.0349C27.755 25.7449 29.3225 26.9957 31.0325 26.9957H34.0409V28.8799C34.0409 32.1574 31.365 34.8333 28.0875 34.8333H9.91085C6.63335 34.8333 3.95752 32.1574 3.95752 28.8799V18.2241C3.95752 14.9466 6.63335 12.2708 9.91085 12.2708H28.0875C31.365 12.2708 34.0409 14.9466 34.0409 18.2241V20.5041H30.8425C29.9559 20.5041 29.1484 20.8524 28.5625 21.4541Z" stroke="#EB3A53" stroke-width="2.3" stroke-linecap="round" stroke-linejoin="round"/>
<path d="M3.95752 19.6492V12.4134C3.95752 10.5293 5.11335 8.85087 6.87085 8.18587L19.4425 3.43587C21.4059 2.6917 23.5117 4.14841 23.5117 6.25425V12.2709" stroke="#EB3A53" stroke-width="2.3" stroke-linecap="round" stroke-linejoin="round"/>
<path d="M35.7183 22.1193V25.3811C35.7183 26.2519 35.0216 26.9644 34.1349 26.996H31.0316C29.3216 26.996 27.7541 25.7452 27.6116 24.0352C27.5166 23.0377 27.8966 22.1035 28.5616 21.4544C29.1474 20.8527 29.9549 20.5044 30.8416 20.5044H34.1349C35.0216 20.5361 35.7183 21.2485 35.7183 22.1193Z" stroke="#EB3A53" stroke-width="2.3" stroke-linecap="round" stroke-linejoin="round"/>
<path d="M11.082 19H22.1654" stroke="#EB3A53" stroke-width="2.3" stroke-linecap="round" stroke-linejoin="round"/>
</svg>
