<svg width="34" height="35" viewBox="0 0 34 35" fill="none" xmlns="http://www.w3.org/2000/svg">
<path d="M26.9166 13.446C26.9166 15.5001 26.3074 17.3843 25.2591 18.9568C23.7291 21.2235 21.3066 22.8243 18.4874 23.2351C18.0058 23.3201 17.5099 23.3626 16.9999 23.3626C16.4899 23.3626 15.9941 23.3201 15.5124 23.2351C12.6933 22.8243 10.2708 21.2235 8.74075 18.9568C7.69242 17.3843 7.08325 15.5001 7.08325 13.446C7.08325 7.96346 11.5174 3.5293 16.9999 3.5293C22.4824 3.5293 26.9166 7.96346 26.9166 13.446Z" stroke="#BEBBC3" stroke-width="1.9" stroke-linecap="round" stroke-linejoin="round"/>
<path d="M30.1042 26.8615L27.7667 27.414C27.2425 27.5415 26.8317 27.9382 26.7184 28.4624L26.2225 30.5449C25.9534 31.6782 24.5084 32.0182 23.7575 31.1257L17 23.3624L10.2425 31.1399C9.4917 32.0324 8.0467 31.6924 7.77753 30.559L7.2817 28.4765C7.1542 27.9524 6.74336 27.5415 6.23336 27.4282L3.89586 26.8757C2.8192 26.6207 2.4367 25.2749 3.21586 24.4957L8.74086 18.9707C10.2709 21.2374 12.6934 22.8382 15.5125 23.2491C15.9942 23.3341 16.49 23.3766 17 23.3766C17.51 23.3766 18.0059 23.3341 18.4875 23.2491C21.3067 22.8382 23.7292 21.2374 25.2592 18.9707L30.7842 24.4957C31.5634 25.2607 31.1809 26.6065 30.1042 26.8615Z" stroke="#BEBBC3" stroke-width="1.9" stroke-linecap="round" stroke-linejoin="round"/>
<path d="M17.8215 9.16828L18.6574 10.8399C18.7707 11.0666 19.0682 11.2933 19.3374 11.3358L20.8532 11.5908C21.8165 11.7466 22.0432 12.4549 21.349 13.1491L20.1732 14.3249C19.9749 14.5233 19.8615 14.9058 19.9324 15.1891L20.2724 16.6483C20.5415 17.7958 19.9324 18.2491 18.9124 17.6399L17.4957 16.8041C17.2407 16.6483 16.8157 16.6483 16.5607 16.8041L15.144 17.6399C14.124 18.2349 13.5149 17.7958 13.784 16.6483L14.124 15.1891C14.1807 14.9199 14.0815 14.5233 13.8832 14.3249L12.7074 13.1491C12.0132 12.4549 12.2399 11.7608 13.2032 11.5908L14.719 11.3358C14.974 11.2933 15.2715 11.0666 15.3849 10.8399L16.2207 9.16828C16.6315 8.26161 17.3682 8.26161 17.8215 9.16828Z" stroke="#BEBBC3" stroke-width="1.9" stroke-linecap="round" stroke-linejoin="round"/>
</svg>
