<svg width="54" height="54" viewBox="0 0 54 54" fill="none" xmlns="http://www.w3.org/2000/svg">
<rect x="0.5" y="0.5" width="53" height="53" rx="26.5" stroke="#DCDBE1"/>
<path d="M27.4992 25.0062C27.403 24.9925 27.2792 24.9925 27.1692 25.0062C24.7492 24.9237 22.8242 22.9437 22.8242 20.51C22.8242 18.0213 24.8317 16 27.3342 16C29.823 16 31.8442 18.0213 31.8442 20.51C31.8305 22.9437 29.9192 24.9237 27.4992 25.0062Z" fill="#DC2B40" stroke="#DC2B40" stroke-width="1.5" stroke-linecap="round" stroke-linejoin="round"/>
<path d="M36.6004 34.0814C36.2518 36.8663 30.9079 37.6839 27.3329 37.6839C23.7579 37.6839 18.8599 36.8663 18.0654 34.0814C17.6848 32.7475 19.0279 31.5239 20.4991 30.5339C24.2666 28.0314 30.4266 28.0314 34.1666 30.5339C35.6379 31.5239 36.6977 32.8528 36.6004 34.0814Z" fill="#DC2B40" stroke="#DC2B40" stroke-width="1.5" stroke-linecap="round" stroke-linejoin="round"/>
</svg>
