<svg width="54" height="54" viewBox="0 0 54 54" fill="none" xmlns="http://www.w3.org/2000/svg">
<rect x="0.5" y="0.5" width="53" height="53" rx="26.5" stroke="#DCDBE1"/>
<path d="M32.4165 16.6326H21.5832C18.3332 16.6326 16.1665 18.7992 16.1665 22.0492V28.5492C16.1665 31.7992 18.3332 33.9659 21.5832 33.9659H25.9165L30.7373 37.1726C31.4523 37.6492 32.4165 37.1401 32.4165 36.2734V33.9659C35.6665 33.9659 37.8332 31.7992 37.8332 28.5492V22.0492C37.8332 18.7992 35.6665 16.6326 32.4165 16.6326ZM30.7915 26.1876H23.2082C22.764 26.1876 22.3957 25.8192 22.3957 25.3751C22.3957 24.9309 22.764 24.5626 23.2082 24.5626H30.7915C31.2357 24.5626 31.604 24.9309 31.604 25.3751C31.604 25.8192 31.2357 26.1876 30.7915 26.1876Z" fill="#AEABB4"/>
</svg>
