<svg width="54" height="54" viewBox="0 0 54 54" fill="none" xmlns="http://www.w3.org/2000/svg">
<rect x="0.5" y="0.5" width="53" height="53" rx="26.5" stroke="#DCDBE1"/>
<path d="M34.9518 29.6976L33.8684 27.8992C33.6409 27.4984 33.4351 26.7401 33.4351 26.2959V23.5551C33.4351 21.0092 31.9401 18.8101 29.7843 17.7809C29.2209 16.7842 28.1809 16.1667 26.9893 16.1667C25.8084 16.1667 24.7468 16.8059 24.1834 17.8134C22.0709 18.8642 20.6084 21.0417 20.6084 23.5551V26.2959C20.6084 26.7401 20.4026 27.4984 20.1751 27.8884L19.0809 29.6976C18.6476 30.4234 18.5501 31.2251 18.8209 31.9617C19.0809 32.6876 19.6984 33.2509 20.5001 33.5217C22.6018 34.2367 24.8118 34.5834 27.0218 34.5834C29.2318 34.5834 31.4418 34.2367 33.5434 33.5326C34.3018 33.2834 34.8868 32.7092 35.1684 31.9617C35.4501 31.2142 35.3743 30.3909 34.9518 29.6976Z" fill="#B0ADB6"/>
<path d="M30.0657 35.6776C29.6107 36.9342 28.4082 37.8334 26.9998 37.8334C26.144 37.8334 25.299 37.4867 24.7032 36.8692C24.3565 36.5442 24.0965 36.1109 23.9448 35.6667C24.0857 35.6884 24.2265 35.6992 24.3782 35.7209C24.6273 35.7534 24.8873 35.7859 25.1473 35.8076C25.7648 35.8617 26.3932 35.8942 27.0215 35.8942C27.639 35.8942 28.2565 35.8617 28.8632 35.8076C29.0907 35.7859 29.3182 35.7751 29.5348 35.7426C29.7082 35.7209 29.8815 35.6992 30.0657 35.6776Z" fill="#B0ADB6"/>
</svg>
