<svg width="54" height="54" viewBox="0 0 54 54" fill="none" xmlns="http://www.w3.org/2000/svg">
<rect x="0.5" y="0.5" width="53" height="53" rx="26.5" stroke="#DCDBE1"/>
<path d="M32.416 16.6323H21.5827C18.3327 16.6323 16.166 18.799 16.166 22.049V28.549C16.166 31.799 18.3327 33.9657 21.5827 33.9657H25.916L30.7368 37.1723C31.4518 37.649 32.416 37.1398 32.416 36.2732V33.9657C35.666 33.9657 37.8327 31.799 37.8327 28.549V22.049C37.8327 18.799 35.666 16.6323 32.416 16.6323ZM30.791 26.1873H23.2077C22.7635 26.1873 22.3952 25.819 22.3952 25.3748C22.3952 24.9307 22.7635 24.5623 23.2077 24.5623H30.791C31.2352 24.5623 31.6035 24.9307 31.6035 25.3748C31.6035 25.819 31.2352 26.1873 30.791 26.1873Z" fill="#AEABB4"/>
</svg>
