<svg width="21" height="21" viewBox="0 0 21 21" fill="none" xmlns="http://www.w3.org/2000/svg">
<path d="M15.291 0.916748H5.70768C3.06268 0.916748 0.916016 3.05383 0.916016 5.68925V11.4201V12.3784C0.916016 15.0138 3.06268 17.1509 5.70768 17.1509H7.14518C7.40393 17.1509 7.74893 17.3234 7.91185 17.5342L9.34935 19.4413C9.98185 20.2847 11.0168 20.2847 11.6493 19.4413L13.0868 17.5342C13.2689 17.2947 13.5564 17.1509 13.8535 17.1509H15.291C17.936 17.1509 20.0827 15.0138 20.0827 12.3784V5.68925C20.0827 3.05383 17.936 0.916748 15.291 0.916748ZM6.66602 10.5001C6.12935 10.5001 5.70768 10.0688 5.70768 9.54175C5.70768 9.01466 6.13893 8.58342 6.66602 8.58342C7.1931 8.58342 7.62435 9.01466 7.62435 9.54175C7.62435 10.0688 7.20268 10.5001 6.66602 10.5001ZM10.4993 10.5001C9.96268 10.5001 9.54102 10.0688 9.54102 9.54175C9.54102 9.01466 9.97227 8.58342 10.4993 8.58342C11.0264 8.58342 11.4577 9.01466 11.4577 9.54175C11.4577 10.0688 11.036 10.5001 10.4993 10.5001ZM14.3327 10.5001C13.796 10.5001 13.3743 10.0688 13.3743 9.54175C13.3743 9.01466 13.8056 8.58342 14.3327 8.58342C14.8598 8.58342 15.291 9.01466 15.291 9.54175C15.291 10.0688 14.8693 10.5001 14.3327 10.5001Z" fill="#3AB292"/>
</svg>
