<svg width="22" height="22" viewBox="0 0 22 22" fill="none" xmlns="http://www.w3.org/2000/svg">
<path d="M19.2222 14.7399C19.0022 17.1874 17.233 18.7916 14.6663 18.7916H6.41634C3.88634 18.7916 1.83301 16.7383 1.83301 14.2083V7.79159C1.83301 5.29825 3.33634 3.55659 5.67384 3.26325C5.91217 3.22659 6.15967 3.20825 6.41634 3.20825H14.6663C14.9047 3.20825 15.1338 3.21742 15.3538 3.25409C17.5447 3.51075 19.0297 5.04159 19.2222 7.25992C19.2497 7.52575 19.0297 7.74575 18.7638 7.74575H17.343C16.463 7.74575 15.6472 8.08492 15.0605 8.68992C14.3638 9.36825 14.0155 10.3216 14.098 11.2749C14.2447 12.9433 15.7113 14.2541 17.453 14.2541H18.7638C19.0297 14.2541 19.2497 14.4741 19.2222 14.7399Z" fill="#CFCCD4"/>
<path d="M20.1665 10.0559V11.9442C20.1665 12.4484 19.7632 12.8609 19.2499 12.8792H17.4532C16.4632 12.8792 15.5557 12.155 15.4732 11.165C15.4182 10.5875 15.6382 10.0467 16.0232 9.67085C16.3624 9.32252 16.8299 9.12085 17.3432 9.12085H19.2499C19.7632 9.13918 20.1665 9.55168 20.1665 10.0559Z" fill="#CFCCD4"/>
</svg>
