<svg width="36" height="36" viewBox="0 0 36 36" fill="none" xmlns="http://www.w3.org/2000/svg">
<circle cx="18" cy="18" r="18" fill="white"/>
<path d="M15.9884 6.61908C17.1309 5.58618 18.8699 5.58618 20.0123 6.61908L21.4579 7.92603C22.002 8.418 22.7076 8.69354 23.4411 8.70057L25.3861 8.7192C27.0185 8.73484 28.3388 10.0529 28.3572 11.6853L28.3723 13.0308C28.3815 13.8455 28.7216 14.6215 29.3146 15.1803L30.2838 16.0937C31.5404 17.278 31.5404 19.2759 30.2838 20.4602L29.3146 21.3737C28.7216 21.9325 28.3815 22.7084 28.3723 23.5232L28.3572 24.8686C28.3388 26.501 27.0185 27.8191 25.3861 27.8347L23.4411 27.8534C22.7076 27.8604 22.002 28.1359 21.4579 28.6279L20.0123 29.9349C18.8699 30.9678 17.1309 30.9678 15.9884 29.9349L14.5429 28.6279C13.9987 28.1359 13.2932 27.8604 12.5597 27.8534L10.6147 27.8347C8.98223 27.8191 7.66195 26.501 7.6436 24.8686L7.62847 23.5232C7.61931 22.7084 7.27916 21.9325 6.68622 21.3737L5.71696 20.4602C4.46037 19.2759 4.46037 17.278 5.71696 16.0937L6.68621 15.1803C7.27916 14.6215 7.61931 13.8455 7.62847 13.0308L7.6436 11.6853C7.66195 10.0529 8.98224 8.73484 10.6147 8.7192L12.5597 8.70057C13.2932 8.69354 13.9987 8.418 14.5429 7.92603L15.9884 6.61908Z" fill="url(#paint0_linear)"/>
<defs>
<linearGradient id="paint0_linear" x1="-14.1708" y1="-19.3791" x2="52.8095" y2="-6.68248" gradientUnits="userSpaceOnUse">
<stop stop-color="#DC2B40"/>
<stop offset="1" stop-color="#CC284F"/>
</linearGradient>
</defs>
</svg>
