<svg width="22" height="22" viewBox="0 0 22 22" fill="none" xmlns="http://www.w3.org/2000/svg">
<path d="M20.1663 6.92087C20.1663 7.52587 19.6713 8.02087 19.0663 8.02087H2.93301C2.32801 8.02087 1.83301 7.52587 1.83301 6.92087V6.9117C1.83301 4.81253 3.52884 3.1167 5.62801 3.1167H16.3622C18.4613 3.1167 20.1663 4.8217 20.1663 6.92087Z" fill="#CFCCD4"/>
<path d="M1.83301 10.4958V15.0883C1.83301 17.1874 3.52884 18.8833 5.62801 18.8833H16.3622C18.4613 18.8833 20.1663 17.1783 20.1663 15.0791V10.4958C20.1663 9.89075 19.6713 9.39575 19.0663 9.39575H2.93301C2.32801 9.39575 1.83301 9.89075 1.83301 10.4958ZM7.33301 15.8124H5.49967C5.12384 15.8124 4.81217 15.5008 4.81217 15.1249C4.81217 14.7491 5.12384 14.4374 5.49967 14.4374H7.33301C7.70884 14.4374 8.02051 14.7491 8.02051 15.1249C8.02051 15.5008 7.70884 15.8124 7.33301 15.8124ZM13.2913 15.8124H9.62467C9.24884 15.8124 8.93717 15.5008 8.93717 15.1249C8.93717 14.7491 9.24884 14.4374 9.62467 14.4374H13.2913C13.6672 14.4374 13.9788 14.7491 13.9788 15.1249C13.9788 15.5008 13.6672 15.8124 13.2913 15.8124Z" fill="#CFCCD4"/>
</svg>
