<svg width="20" height="20" viewBox="0 0 20 20" fill="none" xmlns="http://www.w3.org/2000/svg">
<path d="M17.3462 4H1.65385C1.29641 4 1 3.77333 1 3.5C1 3.22667 1.29641 3 1.65385 3H17.3462C17.7036 3 18 3.22667 18 3.5C18 3.77333 17.7036 4 17.3462 4Z" fill="#CFCCD4" stroke="#CFCCD4" stroke-width="1.5"/>
<path d="M10.3163 10H1.68368C1.30994 10 1 9.77333 1 9.5C1 9.22667 1.30994 9 1.68368 9H10.3163C10.6901 9 11 9.22667 11 9.5C11 9.77333 10.6992 10 10.3163 10Z" fill="#CFCCD4" stroke="#CFCCD4" stroke-width="1.5"/>
<path d="M17.3462 16H1.65385C1.29641 16 1 15.7733 1 15.5C1 15.2267 1.29641 15 1.65385 15H17.3462C17.7036 15 18 15.2267 18 15.5C18 15.7733 17.7036 16 17.3462 16Z" fill="#CFCCD4" stroke="#CFCCD4" stroke-width="1.5"/>
</svg>
