<svg width="20" height="17" viewBox="0 0 20 17" fill="none" xmlns="http://www.w3.org/2000/svg">
<path d="M14.0904 15.8635V14.2272C14.0904 13.3592 13.7456 12.5268 13.1318 11.9131C12.5181 11.2994 11.6857 10.9546 10.8178 10.9546H4.27259C3.40465 10.9546 2.57225 11.2994 1.95852 11.9131C1.34479 12.5268 1 13.3592 1 14.2272V15.8635" stroke="#BEBBC3" stroke-width="2" stroke-linecap="round" stroke-linejoin="round"/>
<path d="M7.54603 7.6819C9.35343 7.6819 10.8186 6.21671 10.8186 4.40931C10.8186 2.60191 9.35343 1.13672 7.54603 1.13672C5.73863 1.13672 4.27344 2.60191 4.27344 4.40931C4.27344 6.21671 5.73863 7.6819 7.54603 7.6819Z" stroke="#BEBBC3" stroke-width="2" stroke-linecap="round" stroke-linejoin="round"/>
<path d="M18.9994 15.8633V14.227C18.9988 13.5019 18.7575 12.7975 18.3132 12.2245C17.869 11.6514 17.247 11.2421 16.5449 11.0608" stroke="#BEBBC3" stroke-width="2" stroke-linecap="round" stroke-linejoin="round"/>
<path d="M13.2725 1.24316C13.9764 1.4234 14.6003 1.8328 15.0459 2.40682C15.4915 2.98084 15.7333 3.68683 15.7333 4.41349C15.7333 5.14014 15.4915 5.84613 15.0459 6.42015C14.6003 6.99417 13.9764 7.40357 13.2725 7.58381" stroke="#BEBBC3" stroke-width="2" stroke-linecap="round" stroke-linejoin="round"/>
</svg>
