<svg width="80" height="80" viewBox="0 0 80 80" fill="none" xmlns="http://www.w3.org/2000/svg">
<path d="M0 14C0 6.26801 6.26801 0 14 0H66C73.732 0 80 6.26801 80 14V66C80 73.732 73.732 80 66 80H14C6.26801 80 0 73.732 0 66V14Z" fill="#F4F3F8"/>
<path d="M47.917 53.4584H32.0837C27.3337 53.4584 24.167 51.0834 24.167 45.5417V34.4584C24.167 28.9167 27.3337 26.5417 32.0837 26.5417H47.917C52.667 26.5417 55.8337 28.9167 55.8337 34.4584V45.5417C55.8337 51.0834 52.667 53.4584 47.917 53.4584Z" stroke="#BDBAC3" stroke-width="2" stroke-miterlimit="10" stroke-linecap="round" stroke-linejoin="round"/>
<path d="M47.9173 35.25L42.9615 39.2083C41.3306 40.5067 38.6548 40.5067 37.024 39.2083L32.084 35.25" stroke="#BDBAC3" stroke-width="2" stroke-miterlimit="10" stroke-linecap="round" stroke-linejoin="round"/>
</svg>
