<svg width="80" height="80" viewBox="0 0 80 80" fill="none" xmlns="http://www.w3.org/2000/svg">
<path d="M0 14C0 6.26801 6.26801 0 14 0H66C73.732 0 80 6.26801 80 14V66C80 73.732 73.732 80 66 80H14C6.26801 80 0 73.732 0 66V14Z" fill="#F4F3F8"/>
<path d="M54.8456 49.5878C54.8456 50.1078 54.73 50.6422 54.4844 51.1622C54.2389 51.6822 53.9211 52.1733 53.5022 52.6356C52.7944 53.4156 52.0144 53.9789 51.1333 54.34C50.2667 54.7011 49.3278 54.8889 48.3167 54.8889C46.8433 54.8889 45.2689 54.5422 43.6078 53.8344C41.9467 53.1267 40.2856 52.1733 38.6389 50.9744C36.9778 49.7611 35.4033 48.4178 33.9011 46.93C32.4133 45.4278 31.07 43.8533 29.8711 42.2067C28.6867 40.56 27.7333 38.9133 27.04 37.2811C26.3467 35.6344 26 34.06 26 32.5578C26 31.5756 26.1733 30.6367 26.52 29.77C26.8667 28.8889 27.4156 28.08 28.1811 27.3578C29.1056 26.4478 30.1167 26 31.1856 26C31.59 26 31.9944 26.0867 32.3556 26.26C32.7311 26.4333 33.0633 26.6933 33.3233 27.0689L36.6744 31.7922C36.9344 32.1533 37.1222 32.4856 37.2522 32.8033C37.3822 33.1067 37.4544 33.41 37.4544 33.6844C37.4544 34.0311 37.3533 34.3778 37.1511 34.71C36.9633 35.0422 36.6889 35.3889 36.3422 35.7356L35.2444 36.8767C35.0856 37.0356 35.0133 37.2233 35.0133 37.4544C35.0133 37.57 35.0278 37.6711 35.0567 37.7867C35.1 37.9022 35.1433 37.9889 35.1722 38.0756C35.4322 38.5522 35.88 39.1733 36.5156 39.9244C37.1656 40.6756 37.8589 41.4411 38.61 42.2067C39.39 42.9722 40.1411 43.68 40.9067 44.33C41.6578 44.9656 42.2789 45.3989 42.77 45.6589C42.8422 45.6878 42.9289 45.7311 43.03 45.7744C43.1456 45.8178 43.2611 45.8322 43.3911 45.8322C43.6367 45.8322 43.8244 45.7456 43.9833 45.5867L45.0811 44.5033C45.4422 44.1422 45.7889 43.8678 46.1211 43.6944C46.4533 43.4922 46.7856 43.3911 47.1467 43.3911C47.4211 43.3911 47.71 43.4489 48.0278 43.5789C48.3456 43.7089 48.6778 43.8967 49.0389 44.1422L53.82 47.5367C54.1956 47.7967 54.4556 48.1 54.6144 48.4611C54.7589 48.8222 54.8456 49.1833 54.8456 49.5878Z" stroke="#BDBAC3" stroke-width="2" stroke-miterlimit="10"/>
</svg>
