<svg width="44" height="35" viewBox="0 0 44 35" fill="none" xmlns="http://www.w3.org/2000/svg">
<path d="M34.7177 35C31.0484 35 28.2729 33.5185 26.3911 30.5555C24.7917 28.0555 23.9919 25 23.9919 21.3889C23.9919 16.7593 25.168 12.5926 27.5202 8.88888C29.9664 5.18518 33.6358 2.22223 38.5282 0L39.7984 2.5C36.8817 3.7037 34.3414 5.60185 32.1774 8.19444C30.1075 10.787 29.0726 13.4259 29.0726 16.1111C29.0726 17.2222 29.2137 18.1944 29.496 19.0278C31.0013 17.8241 32.7419 17.2222 34.7177 17.2222C37.2581 17.2222 39.375 18.0556 41.0686 19.7222C42.8562 21.2963 43.75 23.4259 43.75 26.1111C43.75 28.6111 42.8562 30.7407 41.0686 32.5C39.375 34.1667 37.2581 35 34.7177 35ZM10.7258 35C7.05645 35 4.28091 33.5185 2.39919 30.5555C0.799731 28.0555 0 25 0 21.3889C0 16.7593 1.17608 12.5926 3.52823 8.88888C5.97446 5.18518 9.64382 2.22223 14.5363 0L15.8065 2.5C12.8898 3.7037 10.3495 5.60185 8.18548 8.19444C6.11559 10.787 5.08065 13.4259 5.08065 16.1111C5.08065 17.2222 5.22177 18.1944 5.50403 19.0278C7.00941 17.8241 8.75 17.2222 10.7258 17.2222C13.2661 17.2222 15.3831 18.0556 17.0766 19.7222C18.8643 21.2963 19.7581 23.4259 19.7581 26.1111C19.7581 28.6111 18.8643 30.7407 17.0766 32.5C15.3831 34.1667 13.2661 35 10.7258 35Z" fill="#3AB292"/>
</svg>
