<svg width="24" height="22" viewBox="0 0 24 22" fill="none" xmlns="http://www.w3.org/2000/svg">
<path d="M13.7276 2.37197L15.4874 5.74323C15.7274 6.21253 16.3673 6.66267 16.9073 6.74886L20.0969 7.25647C22.1367 7.5821 22.6167 8.99956 21.1468 10.3979L18.6671 12.7731C18.2471 13.1753 18.0172 13.9511 18.1471 14.5066L18.8571 17.4469C19.417 19.7742 18.1272 20.6745 15.9774 19.4581L12.9877 17.7629C12.4478 17.4565 11.5579 17.4565 11.0079 17.7629L8.01827 19.4581C5.8785 20.6745 4.57865 19.7646 5.13859 17.4469L5.84851 14.5066C5.97849 13.9511 5.74852 13.1753 5.32856 12.7731L2.84884 10.3979C1.389 8.99956 1.85895 7.5821 3.89872 7.25647L7.08837 6.74886C7.61831 6.66267 8.25824 6.21253 8.49821 5.74323L10.258 2.37197C11.2179 0.542677 12.7777 0.542677 13.7276 2.37197Z" stroke="#FFCDD6" stroke-width="2" stroke-linecap="round" stroke-linejoin="round"/>
</svg>
