<svg width="23" height="23" viewBox="0 0 23 23" fill="none" xmlns="http://www.w3.org/2000/svg">
<path d="M8.14616 18.2084H7.66699C3.83366 18.2084 1.91699 17.2501 1.91699 12.4584V7.66675C1.91699 3.83342 3.83366 1.91675 7.66699 1.91675H15.3337C19.167 1.91675 21.0837 3.83342 21.0837 7.66675V12.4584C21.0837 16.2917 19.167 18.2084 15.3337 18.2084H14.8545C14.5574 18.2084 14.2699 18.3522 14.0878 18.5917L12.6503 20.5084C12.0178 21.3517 10.9828 21.3517 10.3503 20.5084L8.91283 18.5917C8.75949 18.3809 8.40491 18.2084 8.14616 18.2084Z" stroke="#BDBAC4" stroke-width="2" stroke-miterlimit="10" stroke-linecap="round" stroke-linejoin="round"/>
<path d="M15.3303 10.5417H15.339" stroke="#BDBAC4" stroke-width="2" stroke-linecap="round" stroke-linejoin="round"/>
<path d="M11.4954 10.5417H11.504" stroke="#BDBAC4" stroke-width="2" stroke-linecap="round" stroke-linejoin="round"/>
<path d="M7.6614 10.5417H7.67001" stroke="#BDBAC4" stroke-width="2" stroke-linecap="round" stroke-linejoin="round"/>
</svg>
