<svg width="16" height="16" viewBox="0 0 16 16" fill="none" xmlns="http://www.w3.org/2000/svg">
<path d="M15.8096 12.9279C15.8096 13.2129 15.7462 13.5058 15.6117 13.7908C15.4771 14.0758 15.3029 14.345 15.0733 14.5983C14.6854 15.0258 14.2579 15.3346 13.775 15.5325C13.3 15.7304 12.7854 15.8333 12.2312 15.8333C11.4237 15.8333 10.5608 15.6433 9.65042 15.2554C8.74 14.8675 7.82958 14.345 6.92708 13.6879C6.01667 13.0229 5.15375 12.2867 4.33042 11.4713C3.515 10.6479 2.77875 9.785 2.12167 8.8825C1.4725 7.98 0.95 7.0775 0.57 6.18292C0.19 5.28042 0 4.4175 0 3.59417C0 3.05583 0.0949999 2.54125 0.285 2.06625C0.475 1.58333 0.775833 1.14 1.19542 0.744167C1.70208 0.245417 2.25625 0 2.84208 0C3.06375 0 3.28542 0.0475001 3.48333 0.1425C3.68917 0.2375 3.87125 0.38 4.01375 0.585833L5.85042 3.17458C5.99292 3.3725 6.09583 3.55458 6.16708 3.72875C6.23833 3.895 6.27792 4.06125 6.27792 4.21167C6.27792 4.40167 6.2225 4.59167 6.11167 4.77375C6.00875 4.95583 5.85833 5.14583 5.66833 5.33583L5.06667 5.96125C4.97958 6.04833 4.94 6.15125 4.94 6.27792C4.94 6.34125 4.94792 6.39667 4.96375 6.46C4.9875 6.52333 5.01125 6.57083 5.02708 6.61833C5.16958 6.87958 5.415 7.22 5.76333 7.63167C6.11958 8.04333 6.49958 8.46292 6.91125 8.8825C7.33875 9.30208 7.75042 9.69 8.17 10.0463C8.58167 10.3946 8.92208 10.6321 9.19125 10.7746C9.23083 10.7904 9.27833 10.8142 9.33375 10.8379C9.39708 10.8617 9.46042 10.8696 9.53167 10.8696C9.66625 10.8696 9.76917 10.8221 9.85625 10.735L10.4579 10.1413C10.6558 9.94334 10.8458 9.79292 11.0279 9.69792C11.21 9.58708 11.3921 9.53167 11.59 9.53167C11.7404 9.53167 11.8987 9.56334 12.0729 9.63459C12.2471 9.70584 12.4292 9.80875 12.6271 9.94334L15.2475 11.8038C15.4533 11.9463 15.5958 12.1125 15.6829 12.3104C15.7621 12.5083 15.8096 12.7063 15.8096 12.9279Z" fill="#BDBAC3"/>
</svg>
