<svg width="54" height="54" viewBox="0 0 54 54" fill="none" xmlns="http://www.w3.org/2000/svg">
<rect x="0.5" y="0.5" width="53" height="53" rx="26.5" stroke="#DCDBE1"/>
<path d="M34.9518 29.6973L33.8684 27.899C33.6409 27.4982 33.4351 26.7398 33.4351 26.2957V23.5548C33.4351 21.009 31.9401 18.8098 29.7843 17.7807C29.2209 16.784 28.1809 16.1665 26.9893 16.1665C25.8084 16.1665 24.7468 16.8057 24.1834 17.8132C22.0709 18.864 20.6084 21.0415 20.6084 23.5548V26.2957C20.6084 26.7398 20.4026 27.4982 20.1751 27.8882L19.0809 29.6973C18.6476 30.4232 18.5501 31.2248 18.8209 31.9615C19.0809 32.6873 19.6984 33.2507 20.5001 33.5215C22.6018 34.2365 24.8118 34.5832 27.0218 34.5832C29.2318 34.5832 31.4418 34.2365 33.5434 33.5323C34.3018 33.2832 34.8868 32.709 35.1684 31.9615C35.4501 31.214 35.3743 30.3907 34.9518 29.6973Z" fill="#B0ADB6"/>
<path d="M30.0661 35.6773C29.6111 36.934 28.4086 37.8332 27.0003 37.8332C26.1445 37.8332 25.2995 37.4865 24.7036 36.869C24.357 36.544 24.097 36.1107 23.9453 35.6665C24.0861 35.6882 24.227 35.699 24.3786 35.7207C24.6278 35.7532 24.8878 35.7857 25.1478 35.8073C25.7653 35.8615 26.3936 35.894 27.022 35.894C27.6395 35.894 28.257 35.8615 28.8636 35.8073C29.0911 35.7857 29.3186 35.7748 29.5353 35.7423C29.7086 35.7207 29.882 35.699 30.0661 35.6773Z" fill="#B0ADB6"/>
</svg>
