<svg width="29" height="29" viewBox="0 0 29 29" fill="none" xmlns="http://www.w3.org/2000/svg">
<path d="M27.6992 7.85425H20.4492" stroke="#BEBBC4" stroke-width="2" stroke-miterlimit="10" stroke-linecap="round" stroke-linejoin="round"/>
<path d="M7.24935 7.85425H2.41602" stroke="#BEBBC4" stroke-width="2" stroke-miterlimit="10" stroke-linecap="round" stroke-linejoin="round"/>
<path d="M12.0827 12.0833C14.4184 12.0833 16.3118 10.1899 16.3118 7.85417C16.3118 5.51846 14.4184 3.625 12.0827 3.625C9.74698 3.625 7.85352 5.51846 7.85352 7.85417C7.85352 10.1899 9.74698 12.0833 12.0827 12.0833Z" stroke="#BEBBC4" stroke-width="2" stroke-miterlimit="10" stroke-linecap="round" stroke-linejoin="round"/>
<path d="M27.6986 21.1458H22.8652" stroke="#BEBBC4" stroke-width="2" stroke-miterlimit="10" stroke-linecap="round" stroke-linejoin="round"/>
<path d="M9.66602 21.1458H2.41602" stroke="#BEBBC4" stroke-width="2" stroke-miterlimit="10" stroke-linecap="round" stroke-linejoin="round"/>
<path d="M18.0319 25.3751C20.3676 25.3751 22.2611 23.4816 22.2611 21.1459C22.2611 18.8102 20.3676 16.9167 18.0319 16.9167C15.6962 16.9167 13.8027 18.8102 13.8027 21.1459C13.8027 23.4816 15.6962 25.3751 18.0319 25.3751Z" stroke="#BEBBC4" stroke-width="2" stroke-miterlimit="10" stroke-linecap="round" stroke-linejoin="round"/>
</svg>
