<svg width="26" height="25" viewBox="0 0 26 25" fill="none" xmlns="http://www.w3.org/2000/svg">
<path d="M24.1528 7.97278V3.1175C24.1528 1.60958 23.4683 1 21.7679 1H17.4474C15.7469 1 15.0625 1.60958 15.0625 3.1175V7.96208C15.0625 9.48069 15.7469 10.0796 17.4474 10.0796H21.7679C23.4683 10.0903 24.1528 9.48069 24.1528 7.97278Z" stroke="#BEBBC3" stroke-width="2" stroke-linecap="round" stroke-linejoin="round"/>
<path d="M24.1528 21.4518V17.1312C24.1528 15.4308 23.4683 14.7463 21.7679 14.7463H17.4474C15.7469 14.7463 15.0625 15.4308 15.0625 17.1312V21.4518C15.0625 23.1522 15.7469 23.8366 17.4474 23.8366H21.7679C23.4683 23.8366 24.1528 23.1522 24.1528 21.4518Z" stroke="#BEBBC3" stroke-width="2" stroke-linecap="round" stroke-linejoin="round"/>
<path d="M10.395 7.97278V3.1175C10.395 1.60958 9.71052 1 8.0101 1H3.68955C1.98913 1 1.30469 1.60958 1.30469 3.1175V7.96208C1.30469 9.48069 1.98913 10.0796 3.68955 10.0796H8.0101C9.71052 10.0903 10.395 9.48069 10.395 7.97278Z" stroke="#BEBBC3" stroke-width="2" stroke-linecap="round" stroke-linejoin="round"/>
<path d="M10.395 21.4518V17.1312C10.395 15.4308 9.71052 14.7463 8.0101 14.7463H3.68955C1.98913 14.7463 1.30469 15.4308 1.30469 17.1312V21.4518C1.30469 23.1522 1.98913 23.8366 3.68955 23.8366H8.0101C9.71052 23.8366 10.395 23.1522 10.395 21.4518Z" stroke="#BEBBC3" stroke-width="2" stroke-linecap="round" stroke-linejoin="round"/>
</svg>
