<svg width="100" height="100" viewBox="0 0 100 100" fill="none" xmlns="http://www.w3.org/2000/svg">
<rect width="100" height="100" rx="30" fill="#F2F1F5"/>
<path d="M71.6032 47.8516L65.5991 40.7451C67.3707 36.8245 67.0812 32.1518 64.8027 28.4133C64.556 28.0084 64.0272 27.8801 63.6218 28.1264C63.3883 28.2684 63.2472 28.5039 63.2163 28.7554C61.2841 36.6576 55.1733 42.7368 47.2459 44.6326C43.0527 45.6355 39.2248 47.7749 36.1759 50.8198C33.2175 53.7741 31.1129 57.4612 30.0731 61.5031C29.4981 61.817 28.935 62.155 28.3853 62.5182C27.9895 62.7797 27.8809 63.3122 28.1427 63.7075C28.3081 63.957 28.5814 64.0922 28.8603 64.0922C29.0231 64.0922 29.1877 64.0462 29.3336 63.9498C31.443 62.5563 33.7617 61.551 36.2255 60.9618C39.0661 60.2825 41.7207 59.0946 44.1156 57.4311C44.5053 57.1604 44.6014 56.6255 44.3305 56.2364C44.0595 55.8473 43.5239 55.7513 43.1343 56.0219C40.916 57.5628 38.4569 58.6631 35.8253 59.2925C34.5653 59.5937 33.3411 59.9972 32.1587 60.4969C34.4998 53.4209 40.2912 48.0608 47.6464 46.3017C48.9046 46.0008 50.1298 45.5967 51.3111 45.0973C50.6355 47.134 49.6645 49.0494 48.4103 50.8095C48.1351 51.1956 48.2255 51.7315 48.6121 52.0063C48.7633 52.1137 48.9373 52.1654 49.1097 52.1654C49.3783 52.1654 49.6429 52.0399 49.8106 51.8047C51.4782 49.4646 52.6829 46.8709 53.3973 44.0907C55.3415 43.0305 57.1341 41.6949 58.7164 40.1146C61.2283 37.6061 63.1241 34.5692 64.2757 31.2355C65.4093 34.2365 65.2705 37.6255 63.8179 40.4865C63.6619 40.7939 63.7051 41.1647 63.9276 41.4281L70.2642 48.9281L67.8074 50.5423C67.4221 50.7955 67.3056 51.3074 67.5435 51.702L68.4892 53.2705C68.7164 53.6472 68.7681 54.1029 68.631 54.5207C68.494 54.9386 68.1825 55.2756 67.7763 55.4451C67.5038 55.5589 67.3089 55.8046 67.2602 56.0956C67.2114 56.3866 67.3158 56.6821 67.5366 56.8782C67.8887 57.191 68.0572 57.6381 67.9989 58.1051C67.9406 58.572 67.6673 58.9643 67.2485 59.1814L67.1955 59.2089C66.9112 59.3566 66.7328 59.6501 66.7328 59.9702V62.8453C66.7328 64.3597 65.4991 65.5917 63.9828 65.5917H58.9389C56.7323 65.5917 54.5852 66.2217 52.7296 67.4137L48.1387 70.3625C47.7395 70.6188 47.6241 71.1499 47.8808 71.5485C48.045 71.8035 48.3217 71.9426 48.6044 71.9426C48.7636 71.9426 48.9247 71.8985 49.0684 71.806L53.6594 68.8572C55.2371 67.8437 57.0628 67.308 58.9389 67.308H63.9828C66.4468 67.308 68.4515 65.306 68.4515 62.8452V60.4496C69.1392 59.9453 69.5971 59.1768 69.7044 58.3174C69.7859 57.6648 69.6585 57.0135 69.355 56.4499C69.7706 56.0764 70.0865 55.5975 70.2644 55.0545C70.557 54.1622 70.4465 53.1891 69.9616 52.3848L69.4418 51.5228L71.2418 50.3402C71.6436 50.0762 71.9136 49.6522 71.9827 49.1769C72.0515 48.7019 71.9133 48.2187 71.6032 47.8516V47.8516Z" fill="#C5C5CD" stroke="#C5C5CD" stroke-width="0.7"/>
<path d="M28.4379 44.4011C28.5712 44.476 28.7159 44.5116 28.8588 44.5116C29.159 44.5116 29.4506 44.3542 29.6084 44.0743C30.3226 42.8075 30.857 41.447 31.1967 40.0304C32.4302 34.886 36.3966 30.9248 41.5481 29.693C42.0096 29.5826 42.2943 29.1194 42.1837 28.6585C42.0731 28.1975 41.609 27.9135 41.1478 28.0238C38.325 28.6987 35.7481 30.1389 33.6957 32.1886C31.6433 34.2383 30.2011 36.8116 29.5252 39.6306C29.2226 40.8923 28.7467 42.1041 28.1108 43.2321C27.8778 43.6452 28.0243 44.1685 28.4379 44.4011V44.4011Z" fill="#C5C5CD" stroke="#C5C5CD" stroke-width="0.7"/>
</svg>
