<svg width="100" height="100" viewBox="0 0 100 100" fill="none" xmlns="http://www.w3.org/2000/svg">
<rect width="100" height="100" rx="30" fill="#CD2946"/>
<g clip-path="url(#clip0_776:10791)">
<path d="M70.6519 59.7753C67.9173 59.7753 65.349 58.7203 63.4195 56.8045C61.4906 54.8897 60.4287 52.3393 60.4287 49.6233C60.4287 48.8789 59.825 48.2756 59.081 48.2756C58.3366 48.2756 57.7334 48.8789 57.7334 49.6233C57.7334 52.3393 56.671 54.8897 54.7422 56.8045C52.8127 58.7203 50.2444 59.7753 47.5098 59.7753C46.7654 59.7753 46.1621 60.3786 46.1621 61.1229C46.1621 61.8673 46.7654 62.4706 47.5098 62.4706C53.1468 62.4706 57.7334 67.0382 57.7334 72.6524C57.7334 73.3968 58.3366 74.0001 59.081 74.0001C59.825 74.0001 60.4287 73.3968 60.4287 72.6524C60.4287 67.0382 65.0149 62.4706 70.6519 62.4706C71.3963 62.4706 71.9996 61.8673 71.9996 61.1229C71.9996 60.3786 71.3963 59.7753 70.6519 59.7753V59.7753ZM59.081 66.9287C57.8295 64.4254 55.7838 62.3825 53.2752 61.1303C54.5053 60.5204 55.641 59.7104 56.6412 58.7172C57.646 57.7198 58.4647 56.5862 59.0807 55.3578C59.6969 56.5862 60.5157 57.7198 61.5201 58.7172C62.5203 59.7104 63.6564 60.5204 64.8861 61.1303C62.3779 62.3825 60.3322 64.4254 59.081 66.9287V66.9287Z" fill="white" stroke="#F2F1F5" stroke-width="0.8"/>
<path d="M44.439 49.2379C40.4701 49.2379 37.241 46.0327 37.241 42.0925C37.241 41.3485 36.6377 40.7449 35.8933 40.7449C35.149 40.7449 34.5457 41.3485 34.5457 42.0925C34.5457 46.0327 31.3166 49.2379 27.3477 49.2379C26.6033 49.2379 26 49.8416 26 50.5856C26 51.3299 26.6033 51.9332 27.3477 51.9332C31.3166 51.9332 34.5457 55.1487 34.5457 59.1007C34.5457 59.8447 35.149 60.4484 35.8933 60.4484C36.6377 60.4484 37.241 59.8447 37.241 59.1007C37.241 55.1487 40.4701 51.9332 44.439 51.9332C45.1834 51.9332 45.7867 51.3299 45.7867 50.5856C45.7867 49.8416 45.1834 49.2379 44.439 49.2379V49.2379ZM35.8933 54.1355C35.0339 52.6709 33.8062 51.4458 32.3382 50.5873C33.8062 49.7307 35.0339 48.5083 35.8933 47.0469C36.7528 48.5083 37.9805 49.7307 39.4485 50.5873C37.9805 51.4458 36.7528 52.6706 35.8933 54.1355Z" fill="white" stroke="#F2F1F5" stroke-width="0.8"/>
<path d="M46.6309 37.3129C49.5497 37.3129 51.9246 39.6695 51.9246 42.5659C51.9246 43.3099 52.5279 43.9136 53.2723 43.9136C54.0166 43.9136 54.6199 43.3099 54.6199 42.5659C54.6199 39.66 56.9948 37.296 59.9137 37.296C60.6581 37.296 61.2614 36.6924 61.2614 35.9484C61.2614 35.204 60.6581 34.6007 59.9137 34.6007C56.9948 34.6007 54.6199 32.2441 54.6199 29.3477C54.6199 28.6033 54.0166 28 53.2723 28C52.5279 28 51.9246 28.6033 51.9246 29.3477C51.9246 32.2535 49.5497 34.6176 46.6309 34.6176C45.8865 34.6176 45.2832 35.2208 45.2832 35.9652C45.2832 36.7096 45.8865 37.3129 46.6309 37.3129V37.3129ZM53.2754 33.7658C53.857 34.6277 54.6034 35.3707 55.4696 35.9498C54.6003 36.532 53.8517 37.2799 53.2691 38.1478C52.6876 37.2858 51.9411 36.5429 51.075 35.9638C51.9443 35.3816 52.6932 34.6337 53.2754 33.7658Z" fill="white" stroke="#F2F1F5" stroke-width="0.8"/>
</g>
<defs>
<clipPath id="clip0_776:10791">
<rect width="46" height="46" fill="white" transform="translate(26 28)"/>
</clipPath>
</defs>
</svg>
