<svg width="100" height="100" viewBox="0 0 100 100" fill="none" xmlns="http://www.w3.org/2000/svg">
<rect width="100" height="100" rx="30" fill="#F2F1F5"/>
<g clip-path="url(#clip0_776:10792)">
<path d="M32.6305 67.5103C30.9151 65.688 30.9674 62.711 32.7411 60.8714L50.1067 44.0748C49.0821 40.5297 50.0881 36.678 52.7687 34.0853C55.5759 31.3701 59.7419 30.5321 63.3822 31.9511L65.0289 32.5929L61.0605 36.3088L61.7518 39.275L64.6656 40.1594L68.6547 36.3826L69.2223 38.0409C69.8299 39.8167 69.9273 41.7241 69.5039 43.5568C69.069 45.4396 68.102 47.1477 66.7075 48.4966C64.7602 50.3801 62.179 51.3581 59.567 51.3145C58.5833 51.2981 57.595 51.1367 56.635 50.8243L39.2694 67.6209C38.339 68.5209 37.1303 68.8965 35.9282 68.8765C34.7261 68.8565 33.5177 68.4528 32.6305 67.5103ZM56.1108 48.2337L56.7836 48.5088C59.6481 49.6802 62.9357 49.0472 65.1597 46.8962C66.8766 45.2354 67.7145 42.8812 67.4997 40.556L65.2494 42.6635L59.8754 41.0322L58.6003 35.5623L60.7402 33.5586C58.4208 33.2617 56.0395 34.0194 54.3166 35.6858C52.0927 37.8369 51.3506 41.1017 52.4258 44.0035L52.6784 44.6851L34.2891 62.4718C33.3107 63.4181 33.2846 64.984 34.2309 65.9623C35.1773 66.9406 36.743 66.9667 37.7214 66.0205L56.1108 48.2337Z" fill="#C5C5CD"/>
</g>
<defs>
<clipPath id="clip0_776:10792">
<rect width="38" height="38" fill="white" transform="translate(31.9336 30.804) rotate(0.954281)"/>
</clipPath>
</defs>
</svg>
