<svg width="100" height="100" viewBox="0 0 100 100" fill="none" xmlns="http://www.w3.org/2000/svg">
<rect width="100" height="100" rx="30" fill="#CD2946"/>
<path fill-rule="evenodd" clip-rule="evenodd" d="M60.5 29H39.5C37.5698 29 36 30.5697 36 32.5V65.75C36 67.6803 37.5697 69.25 39.5 69.25V70.1251C39.5 70.6087 39.8914 71.0001 40.3751 71.0001H42.125C42.6087 71.0001 43.0001 70.6087 43.0001 70.1251V69.25H57.0001V70.1251C57.0001 70.6087 57.3915 71.0001 57.8751 71.0001H59.6251C60.1087 71.0001 60.5001 70.6087 60.5001 70.1251V69.25C62.4304 69.25 64.0001 67.6804 64.0001 65.75V32.5C64.0001 30.5697 62.4303 29 60.5 29ZM62.25 65.75C62.25 66.7147 61.4647 67.5 60.5 67.5H39.5C38.5353 67.5 37.7501 66.7147 37.7501 65.75V43H62.2501V65.75H62.25ZM62.25 41.25H37.7501V32.5C37.7501 31.5353 38.5353 30.7501 39.5 30.7501H60.5C61.4647 30.7501 62.25 31.5353 62.25 32.5V41.25ZM45.6252 36H42.1252C42.1252 35.7761 42.0397 35.5523 41.8689 35.3813C41.527 35.0395 40.9733 35.0395 40.6316 35.3813L39.7566 36.2563C39.5062 36.5067 39.431 36.8826 39.5668 37.2099C39.7018 37.5373 40.0214 37.75 40.3752 37.75H45.6252C46.1088 37.75 46.5002 37.3586 46.5002 36.8749C46.5002 36.3913 46.1089 36 45.6252 36ZM45.6252 48.25H40.3752C40.0214 48.25 39.7018 48.0372 39.5668 47.7099C39.431 47.3826 39.5062 47.0067 39.7566 46.7563L40.6316 45.8813C40.9733 45.5395 41.527 45.5395 41.8689 45.8813C42.0397 46.0522 42.1252 46.2761 42.1252 46.5H45.6252C46.1089 46.5 46.5003 46.8913 46.5003 47.375C46.5003 47.8586 46.1089 48.25 45.6252 48.25Z" fill="white"/>
<path d="M39.5 69.25H39.7V69.05H39.5V69.25ZM43.0001 69.25V69.05H42.8001V69.25H43.0001ZM57.0001 69.25H57.2001V69.05H57.0001V69.25ZM60.5001 69.25V69.05H60.3001V69.25H60.5001ZM64.0001 32.5H64.2001V32.5L64.0001 32.5ZM62.25 65.75V65.55H62.05V65.75H62.25ZM37.7501 43V42.8H37.5501V43H37.7501ZM62.2501 43H62.4501V42.8H62.2501V43ZM62.2501 65.75V65.95H62.4501V65.75H62.2501ZM37.7501 41.25H37.5501V41.45H37.7501V41.25ZM62.25 41.25V41.45H62.45V41.25H62.25ZM42.1252 36H41.9252V36.2H42.1252V36ZM41.8689 35.3813L42.0103 35.2399L42.0103 35.2399L41.8689 35.3813ZM40.6316 35.3813L40.773 35.5227L40.773 35.5227L40.6316 35.3813ZM39.7566 36.2563L39.6151 36.1149L39.7566 36.2563ZM39.5668 37.2099L39.7517 37.1337L39.7515 37.1333L39.5668 37.2099ZM39.5668 47.7099L39.7517 47.6337L39.7515 47.6333L39.5668 47.7099ZM39.7566 46.7563L39.6151 46.6149H39.6151L39.7566 46.7563ZM40.6316 45.8813L40.773 46.0227L40.773 46.0227L40.6316 45.8813ZM41.8689 45.8813L42.0103 45.7399L42.0103 45.7399L41.8689 45.8813ZM42.1252 46.5H41.9252V46.7H42.1252V46.5ZM39.5 29.2H60.5V28.8H39.5V29.2ZM36.2 32.5C36.2 30.6801 37.6802 29.2 39.5 29.2V28.8C37.4593 28.8 35.8 30.4592 35.8 32.5H36.2ZM36.2 65.75V32.5H35.8V65.75H36.2ZM39.5 69.05C37.6801 69.05 36.2 67.5698 36.2 65.75H35.8C35.8 67.7907 37.4592 69.45 39.5 69.45V69.05ZM39.7 70.1251V69.25H39.3V70.1251H39.7ZM40.3751 70.8001C40.0019 70.8001 39.7 70.4983 39.7 70.1251H39.3C39.3 70.7192 39.7809 71.2001 40.3751 71.2001V70.8001ZM42.125 70.8001H40.3751V71.2001H42.125V70.8001ZM42.8001 70.1251C42.8001 70.4983 42.4982 70.8001 42.125 70.8001V71.2001C42.7191 71.2001 43.2001 70.7192 43.2001 70.1251H42.8001ZM42.8001 69.25V70.1251H43.2001V69.25H42.8001ZM57.0001 69.05H43.0001V69.45H57.0001V69.05ZM57.2001 70.1251V69.25H56.8001V70.1251H57.2001ZM57.8751 70.8001C57.5019 70.8001 57.2001 70.4983 57.2001 70.1251H56.8001C56.8001 70.7192 57.281 71.2001 57.8751 71.2001V70.8001ZM59.6251 70.8001H57.8751V71.2001H59.6251V70.8001ZM60.3001 70.1251C60.3001 70.4983 59.9983 70.8001 59.6251 70.8001V71.2001C60.2192 71.2001 60.7001 70.7192 60.7001 70.1251H60.3001ZM60.3001 69.25V70.1251H60.7001V69.25H60.3001ZM63.8001 65.75C63.8001 67.5699 62.3199 69.05 60.5001 69.05V69.45C62.5408 69.45 64.2001 67.7908 64.2001 65.75H63.8001ZM63.8001 32.5V65.75H64.2001V32.5H63.8001ZM60.5 29.2C62.3199 29.2 63.8001 30.6801 63.8001 32.5L64.2001 32.5C64.2001 30.4592 62.5408 28.8 60.5 28.8V29.2ZM60.5 67.7C61.5752 67.7 62.45 66.8251 62.45 65.75H62.05C62.05 66.6042 61.3543 67.3 60.5 67.3V67.7ZM39.5 67.7H60.5V67.3H39.5V67.7ZM37.5501 65.75C37.5501 66.8251 38.4249 67.7 39.5 67.7V67.3C38.6458 67.3 37.9501 66.6042 37.9501 65.75H37.5501ZM37.5501 43V65.75H37.9501V43H37.5501ZM62.2501 42.8H37.7501V43.2H62.2501V42.8ZM62.4501 65.75V43H62.0501V65.75H62.4501ZM62.25 65.95H62.2501V65.55H62.25V65.95ZM37.7501 41.45H62.25V41.05H37.7501V41.45ZM37.5501 32.5V41.25H37.9501V32.5H37.5501ZM39.5 30.5501C38.4249 30.5501 37.5501 31.4249 37.5501 32.5H37.9501C37.9501 31.6458 38.6458 30.9501 39.5 30.9501V30.5501ZM60.5 30.5501H39.5V30.9501H60.5V30.5501ZM62.45 32.5C62.45 31.4249 61.5752 30.5501 60.5 30.5501V30.9501C61.3543 30.9501 62.05 31.6458 62.05 32.5H62.45ZM62.45 41.25V32.5H62.05V41.25H62.45ZM42.1252 36.2H45.6252V35.8H42.1252V36.2ZM41.7274 35.5227C41.8593 35.6547 41.9252 35.8271 41.9252 36H42.3252C42.3252 35.7252 42.2201 35.4498 42.0103 35.2399L41.7274 35.5227ZM40.773 35.5227C41.0367 35.259 41.4637 35.259 41.7274 35.5227L42.0103 35.2399C41.5904 34.82 40.91 34.8199 40.4901 35.2399L40.773 35.5227ZM39.898 36.3978L40.773 35.5227L40.4902 35.2399L39.6151 36.1149L39.898 36.3978ZM39.7515 37.1333C39.6468 36.8809 39.7047 36.591 39.898 36.3978L39.6151 36.1149C39.3077 36.4223 39.2151 36.8843 39.3821 37.2866L39.7515 37.1333ZM40.3752 37.55C40.102 37.55 39.8557 37.3857 39.7517 37.1337L39.3819 37.2862C39.548 37.6888 39.9409 37.95 40.3752 37.95V37.55ZM45.6252 37.55H40.3752V37.95H45.6252V37.55ZM46.3002 36.8749C46.3002 37.2481 45.9984 37.55 45.6252 37.55V37.95C46.2193 37.95 46.7002 37.469 46.7002 36.8749H46.3002ZM45.6252 36.2C45.9984 36.2 46.3002 36.5017 46.3002 36.8749H46.7002C46.7002 36.2808 46.2194 35.8 45.6252 35.8V36.2ZM40.3752 48.45H45.6252V48.05H40.3752V48.45ZM39.3819 47.7862C39.548 48.1887 39.9408 48.45 40.3752 48.45V48.05C40.102 48.05 39.8557 47.8857 39.7517 47.6337L39.3819 47.7862ZM39.6151 46.6149C39.3077 46.9223 39.2151 47.3843 39.3821 47.7866L39.7515 47.6333C39.6468 47.3809 39.7047 47.091 39.898 46.8977L39.6151 46.6149ZM40.4902 45.7399L39.6151 46.6149L39.898 46.8977L40.773 46.0227L40.4902 45.7399ZM42.0103 45.7399C41.5904 45.3199 40.91 45.3199 40.4901 45.7399L40.773 46.0227C41.0367 45.759 41.4637 45.759 41.7274 46.0227L42.0103 45.7399ZM42.3252 46.5C42.3252 46.2252 42.2201 45.9498 42.0103 45.7399L41.7274 46.0227C41.8593 46.1547 41.9252 46.327 41.9252 46.5H42.3252ZM45.6252 46.3H42.1252V46.7H45.6252V46.3ZM46.7003 47.375C46.7003 46.7809 46.2194 46.3 45.6252 46.3V46.7C45.9984 46.7 46.3003 47.0018 46.3003 47.375H46.7003ZM45.6252 48.45C46.2194 48.45 46.7003 47.9691 46.7003 47.375H46.3003C46.3003 47.7482 45.9984 48.05 45.6252 48.05V48.45Z" fill="white"/>
</svg>
