<svg width="100" height="100" viewBox="0 0 100 100" fill="none" xmlns="http://www.w3.org/2000/svg">
<rect width="100" height="100" rx="30" fill="#F2F1F5"/>
<path d="M70.1959 70.4233C64.0059 71.1168 59.097 68.3487 59.0478 68.3208C58.8813 68.2248 58.6839 68.1989 58.4987 68.2503C58.4206 68.2715 50.6346 70.3793 44.3636 68.9734C40.4542 68.0956 36.7667 65.3143 34.0741 63.2837C33.7125 63.0111 33.3698 62.7523 33.0481 62.515C32.6087 62.1904 31.91 61.9205 31.2941 61.6821C31.0175 61.5754 30.6386 61.4287 30.5572 61.3773C30.4867 61.3216 30.4482 61.2397 30.4482 61.146V59.4508C30.4831 58.1094 36.0518 37.4686 36.9153 34.8428C36.9366 34.8119 37.0197 34.7511 37.0808 34.7219L48.1012 29.6382L51.664 34.3228C51.8398 34.5655 51.8232 34.9049 51.6251 35.1288L48.1045 39.1148C47.8742 39.376 47.4863 39.4045 47.2457 39.2014L45.8221 37.8758C45.6552 37.7207 45.4179 37.6693 45.1956 37.7106C44.9725 37.7509 44.7731 37.9114 44.6701 38.1155C44.5511 38.3521 43.4732 38.6422 42.3736 38.6506L42.0153 38.614C41.7282 38.5794 41.4496 38.7308 41.3094 38.9863C41.1684 39.2417 41.1924 39.5573 41.3692 39.7889C41.675 40.188 41.9133 40.5086 42.0482 40.6926L42.7529 52.79C42.3161 54.508 41.916 54.9961 41.8166 55.0938C41.5231 55.1875 41.31 55.4644 41.31 55.7914C41.31 56.1952 41.6344 56.5229 42.0343 56.5229C42.8556 56.5229 43.5536 55.4329 44.114 53.3049C49.8738 48.9523 54.9004 53.0602 55.2946 53.3982C57.124 55.2526 57.2374 56.4843 57.241 56.539C57.2496 56.9351 57.5704 57.254 57.9653 57.254C58.3651 57.254 58.6895 56.9267 58.6895 56.5229C58.6895 56.3547 58.629 54.9115 56.7547 52.8265C58.5223 50.6318 60.5349 49.3676 62.7515 49.0923C66.5732 48.617 69.7857 51.2125 69.8179 51.2384C70.1284 51.4935 70.5837 51.4465 70.8363 51.1336C71.089 50.8211 71.0434 50.3612 70.7343 50.1058C70.5847 49.9826 67.0286 47.0932 62.5893 47.6387C59.9944 47.9566 57.6651 49.3739 55.6572 51.8547C54.0276 50.7355 49.355 48.2024 44.1293 51.5153L43.4811 40.3901C43.4745 40.2699 43.4379 40.1535 43.3758 40.0511C44.0239 39.9735 44.7957 39.8027 45.3554 39.4307L46.2884 40.2991C47.1569 41.0353 48.4289 40.9437 49.1848 40.089L52.7053 36.1026C53.3548 35.3678 53.409 34.2567 52.823 33.4463L48.8983 28.2857C48.6935 28.0161 48.3312 27.9245 48.0231 28.0662L36.4879 33.3876C36.3672 33.4409 35.7553 33.74 35.5542 34.351C35.144 35.5944 29 57.7243 29 59.4484V61.1464C29 61.6912 29.2423 62.1951 29.6641 62.5291C29.8752 62.6959 30.1906 62.8222 30.7766 63.0484C31.2552 63.2337 31.9103 63.4865 32.1932 63.6956C32.5116 63.9306 32.85 64.1861 33.2076 64.456C36.0052 66.5661 39.8366 69.4558 44.0498 70.4014C50.0476 71.7476 57.0884 70.1201 58.5975 69.7361C59.6052 70.2621 63.3026 72 68.1431 72C68.8574 72 69.5969 71.9624 70.3557 71.8768C70.7533 71.8325 71.0394 71.4706 70.9956 71.0695C70.951 70.6673 70.5917 70.3759 70.1959 70.4233Z" fill="#C5C5CD" stroke="#C5C5CD" stroke-width="0.7"/>
</svg>
