<svg width="64" height="64" viewBox="0 0 64 64" fill="none" xmlns="http://www.w3.org/2000/svg">
<path d="M0 2C0 0.895431 0.895431 0 2 0H49C57.2843 0 64 6.71573 64 15V49C64 57.2843 57.2843 64 49 64H15C6.71573 64 0 57.2843 0 49V2Z" fill="#CD2946"/>
<path d="M0 2C0 0.895431 0.895431 0 2 0H49C57.2843 0 64 6.71573 64 15V49C64 57.2843 57.2843 64 49 64H15C6.71573 64 0 57.2843 0 49V2Z" fill="url(#paint0_linear)"/>
<path d="M44.6884 17.0693C44.6241 16.2104 43.9091 15.5456 43.0467 15.5428H39.6044C38.7422 15.5457 38.0272 16.2106 37.963 17.0693L36.9384 31.3912C36.9168 31.693 37.1443 31.9551 37.4465 31.9767C37.4595 31.9776 37.4725 31.9781 37.4855 31.9781H39.6798V41.7895L38.5915 47.7678C38.5374 48.0655 38.7353 48.3506 39.0334 48.4046C39.0657 48.4104 39.0984 48.4134 39.1313 48.4134H43.5198C43.8228 48.4134 44.0684 48.1681 44.0684 47.8656C44.0684 47.8327 44.0654 47.7999 44.0595 47.7676L42.9712 41.7903V31.9781H45.1655C45.4685 31.9781 45.714 31.7328 45.714 31.4302C45.714 31.4172 45.7135 31.4042 45.7126 31.3912L44.6884 17.0693ZM39.7885 47.3176L40.6862 42.3871H41.9648L42.8624 47.3176H39.7885ZM41.8742 41.2913H40.777V31.9781H41.8742V41.2913ZM38.0748 30.8824L39.0571 17.1474C39.0785 16.861 39.3169 16.6394 39.6044 16.6385H43.0467C43.3341 16.6395 43.5724 16.8611 43.5938 17.1474L44.5764 30.8824H38.0748Z" fill="white" stroke="white" stroke-width="0.5"/>
<path d="M31.048 48.4132C32.192 48.4102 33.2149 47.7011 33.6177 46.6319C34.4474 44.4071 35.8393 40.2568 35.8393 37.4564C35.8393 34.3841 34.364 32.757 33.1265 31.933C32.4473 31.4857 31.6943 31.1617 30.9022 30.9759V27.0474C30.9022 26.7448 30.6566 26.4996 30.3537 26.4996H23.7708C23.4678 26.4996 23.2223 26.7449 23.2223 27.0474V30.9759C22.4301 31.1616 21.6772 31.4857 20.998 31.933C19.7605 32.757 18.2852 34.3841 18.2852 37.4564C18.2852 40.2568 19.6771 44.4071 20.5068 46.6319C20.9096 47.7011 21.9325 48.4102 23.0765 48.4132H31.048ZM29.8051 27.5952V28.6909V29.7866V30.8823H24.3194V29.7866V28.6909V27.5952H29.8051ZM23.8051 31.9779H30.3194C30.7086 32.0306 34.3514 32.6354 34.713 36.7761L32.2302 38.3539C31.0571 39.0986 29.5726 39.1525 28.3484 38.4949L25.4884 36.957C24.0733 36.1972 22.3768 36.1717 20.9395 36.8885L19.3856 37.6645C19.3837 37.5943 19.3823 37.5249 19.3823 37.4564C19.3823 32.6952 23.4033 32.0322 23.8051 31.9779ZM19.4824 38.8409L21.4298 37.8685C22.5479 37.3109 23.8675 37.3308 24.9681 37.9218L27.828 39.4598C29.4022 40.3052 31.3107 40.2359 32.8191 39.2785L34.7194 38.0709C34.5847 40.0526 33.8537 42.5962 33.1835 44.5785H20.9408C20.355 42.8448 19.7224 40.6817 19.4824 38.8409ZM21.535 46.2492C21.4681 46.0699 21.3973 45.8768 21.3239 45.6739H32.8007C32.7273 45.877 32.6567 46.0702 32.5895 46.2492C32.3479 46.8905 31.7342 47.3158 31.048 47.3175H23.0765C22.3903 47.3158 21.7767 46.8905 21.535 46.2492Z" fill="white" stroke="white" stroke-width="0.5"/>
<defs>
<linearGradient id="paint0_linear" x1="7.15655" y1="-11.4899" x2="87.798" y2="33.1312" gradientUnits="userSpaceOnUse">
<stop stop-color="#CC283C"/>
<stop offset="1" stop-color="#CC284F"/>
</linearGradient>
</defs>
</svg>
