<svg width="150" height="150" viewBox="0 0 150 150" fill="none" xmlns="http://www.w3.org/2000/svg">
<g clip-path="url(#clip0)">
<rect width="150" height="150" fill="white"/>
<path d="M33.9755 32.5213C35.4516 15.0203 21.6448 0 4.08168 0H-293C-309.569 0 -323 13.4315 -323 30V499C-323 515.569 -309.569 529 -293 529H120C136.569 529 150 515.569 150 499V141.925C150 125.357 136.569 111.925 120 111.925H81.673C52.4011 111.925 29.3898 86.8914 31.85 57.723L33.9755 32.5213Z" fill="white"/>
<path d="M33.9755 32.5213C35.4516 15.0203 21.6448 0 4.08168 0H-293C-309.569 0 -323 13.4315 -323 30V499C-323 515.569 -309.569 529 -293 529H120C136.569 529 150 515.569 150 499V141.925C150 125.357 136.569 111.925 120 111.925H81.673C52.4011 111.925 29.3898 86.8914 31.85 57.723L33.9755 32.5213Z" fill="url(#paint0_linear)"/>
<path d="M33.9755 32.5213C35.4516 15.0203 21.6448 0 4.08168 0H-293C-309.569 0 -323 13.4315 -323 30V499C-323 515.569 -309.569 529 -293 529H120C136.569 529 150 515.569 150 499V141.925C150 125.357 136.569 111.925 120 111.925H81.673C52.4011 111.925 29.3898 86.8914 31.85 57.723L33.9755 32.5213Z" fill="url(#paint1_linear)"/>
<path d="M-213.588 428.016C-213.588 428.016 -258.886 401.209 -256.471 332.407C-254.056 263.605 -193.32 221.847 -148.571 222.77C-103.821 223.694 -90.8577 242.955 -53.9586 245.95C-17.0594 248.944 47.8941 222.217 87.5764 255.273C127.259 288.329 95.7116 369.596 48.5562 428.05C1.40075 486.504 -140.475 496.677 -213.588 428.016Z" fill="#CD2942"/>
<path opacity="0.08" d="M-213.588 428.016C-213.588 428.016 -258.886 401.209 -256.471 332.407C-254.056 263.605 -193.32 221.847 -148.571 222.77C-103.821 223.694 -90.8577 242.955 -53.9586 245.95C-17.0594 248.944 47.8941 222.217 87.5764 255.273C127.259 288.329 95.7116 369.596 48.5562 428.05C1.40075 486.504 -140.475 496.677 -213.588 428.016Z" fill="#2F3646"/>
</g>
<defs>
<linearGradient id="paint0_linear" x1="206.365" y1="-236.195" x2="-609.338" y2="298.786" gradientUnits="userSpaceOnUse">
<stop stop-color="#CC283C"/>
<stop offset="1" stop-color="#CC284F"/>
</linearGradient>
<linearGradient id="paint1_linear" x1="206.365" y1="-236.195" x2="-609.338" y2="298.786" gradientUnits="userSpaceOnUse">
<stop stop-color="#CC283C"/>
<stop offset="1" stop-color="#CC284F"/>
</linearGradient>
<clipPath id="clip0">
<rect width="150" height="150" fill="white"/>
</clipPath>
</defs>
</svg>
