<svg width="64" height="64" viewBox="0 0 64 64" fill="none" xmlns="http://www.w3.org/2000/svg">
<path d="M0 2C0 0.895431 0.895431 0 2 0H49C57.2843 0 64 6.71573 64 15V49C64 57.2843 57.2843 64 49 64H15C6.71573 64 0 57.2843 0 49V2Z" fill="#CD2946"/>
<path d="M0 2C0 0.895431 0.895431 0 2 0H49C57.2843 0 64 6.71573 64 15V49C64 57.2843 57.2843 64 49 64H15C6.71573 64 0 57.2843 0 49V2Z" fill="url(#paint0_linear)"/>
<g clip-path="url(#clip0)">
<path d="M40.496 37.4628L37.9665 27.8511C37.8003 27.2192 37.8285 26.5599 38.0483 25.9445L40.4687 19.1674C40.6826 18.5688 40.3327 17.9162 39.7167 17.7621L35.6608 16.7482L34.7178 14.3904C34.5545 13.9821 34.1589 13.7143 33.7191 13.7143H30.2771C29.8373 13.7143 29.4418 13.9821 29.2785 14.3904L28.3354 16.7481L24.2796 17.7621C23.6629 17.9162 23.3139 18.5694 23.5275 19.1673L25.948 25.9445C26.1677 26.5599 26.1959 27.2191 26.0296 27.8511L23.5003 37.4628C23.3209 38.1443 23.8357 38.8121 24.5405 38.8121H30.9225V44.0448L24.5175 48.3148C23.6296 48.9067 24.0607 50.2855 25.1151 50.2855C25.576 50.2855 25.3413 50.3511 30.9225 46.6303V49.2098C30.9225 49.8038 31.4041 50.2854 31.9981 50.2854C32.5922 50.2854 33.0738 49.8038 33.0738 49.2098V46.6303C38.6748 50.3643 38.4279 50.2856 38.8811 50.2856C39.9362 50.2856 40.3663 48.9065 39.4787 48.3149L33.0738 44.0449V38.8121H39.4558C40.1605 38.8121 40.6753 38.1444 40.496 37.4628ZM29.3907 18.7017C29.7257 18.618 30.0002 18.3784 30.1285 18.0577L31.0053 15.8655H32.9909L33.8677 18.0577C33.996 18.3784 34.2705 18.618 34.6055 18.7017L38.0436 19.5613C35.8628 25.6675 35.9578 25.3644 35.861 25.7613H28.1351C28.0377 25.3616 28.1279 25.6523 25.9525 19.5613L29.3907 18.7017ZM25.9358 36.6609C28.3036 27.6632 28.1527 28.2761 28.2136 27.9125H35.7827C35.8436 28.2764 35.6894 27.6503 38.0605 36.6609H25.9358Z" fill="white"/>
</g>
<defs>
<linearGradient id="paint0_linear" x1="7.15655" y1="-11.4899" x2="87.798" y2="33.1312" gradientUnits="userSpaceOnUse">
<stop stop-color="#CC283C"/>
<stop offset="1" stop-color="#CC284F"/>
</linearGradient>
<clipPath id="clip0">
<rect width="36.5714" height="36.5714" fill="white" transform="translate(13.7144 13.7143)"/>
</clipPath>
</defs>
</svg>
