<svg width="347" height="696" viewBox="0 0 347 696" fill="none" xmlns="http://www.w3.org/2000/svg">
<path d="M1311.6 656.187C1311.6 656.187 1721.09 7.00435 1475.57 0.45989C1218.49 -6.39217 1080.48 253.352 907.39 265.251C689.715 280.216 587.731 230.169 413.642 242.137C226.584 254.997 182.53 380.15 -29.9351 394.757C-251.446 409.985 -555.406 546.957 -383.971 719.903C-238.814 866.339 918.109 754.564 1311.6 656.187Z" fill="#EAE9ED" fill-opacity="0.9"/>
<path d="M-881.346 739.832C-881.346 739.832 -1007.96 812.274 -1088.34 674.551C-1168.71 536.827 -868.879 265.195 -649.072 270.491C-458.025 275.093 -303.499 421.194 -174.499 469.973C-6.11444 533.644 72.8797 507.243 252.5 534.044C439.768 561.986 713.21 773.381 555.707 908.79C422.347 1023.44 -553.536 850.099 -881.346 739.832Z" fill="#E6E5E9" fill-opacity="0.8"/>
</svg>
