<svg width="78" height="78" viewBox="0 0 78 78" fill="none" xmlns="http://www.w3.org/2000/svg">
<circle cx="39" cy="39" r="39" fill="white"/>
<path d="M33.3501 27.6833L31.0001 32.3833C30.6834 33.0333 29.8334 33.65 29.1168 33.7833L24.8667 34.4833C22.1501 34.9333 21.5167 36.9 23.4667 38.8666L26.7834 42.1833C27.3334 42.7333 27.6501 43.8166 27.4667 44.6L26.5168 48.7C25.7668 51.9333 27.5001 53.2 30.3501 51.5L34.3334 49.1333C35.0501 48.7 36.2501 48.7 36.9667 49.1333L40.9501 51.5C43.8001 53.1833 45.5334 51.9333 44.7834 48.7L43.8334 44.6C43.6501 43.8333 43.9667 42.75 44.5167 42.1833L47.8334 38.8666C49.7834 36.9166 49.1501 34.95 46.4334 34.4833L42.1834 33.7833C41.4668 33.6666 40.6167 33.0333 40.3001 32.3833L37.9501 27.6833C36.7001 25.1333 34.6334 25.1333 33.3501 27.6833Z" stroke="#CD2943" stroke-width="2.3125" stroke-linecap="round" stroke-linejoin="round"/>
<path d="M47.668 27.3334H57.668" stroke="#CD2943" stroke-width="2.3125" stroke-linecap="round" stroke-linejoin="round"/>
<path d="M50.668 50.6666H57.668" stroke="#CD2943" stroke-width="2.3125" stroke-linecap="round" stroke-linejoin="round"/>
<path d="M54.0013 39H57.668" stroke="#CD2943" stroke-width="2.3125" stroke-linecap="round" stroke-linejoin="round"/>
</svg>
