<svg width="64" height="64" viewBox="0 0 64 64" fill="none" xmlns="http://www.w3.org/2000/svg">
<path d="M0 2C0 0.895431 0.895431 0 2 0H49C57.2843 0 64 6.71573 64 15V49C64 57.2843 57.2843 64 49 64H15C6.71573 64 0 57.2843 0 49V2Z" fill="#CD2946"/>
<path d="M0 2C0 0.895431 0.895431 0 2 0H49C57.2843 0 64 6.71573 64 15V49C64 57.2843 57.2843 64 49 64H15C6.71573 64 0 57.2843 0 49V2Z" fill="url(#paint0_linear)"/>
<path d="M52.0923 30.8157L45.7838 21.5626C44.4645 19.6277 42.5063 18.1763 40.2696 17.4758C38.0328 16.7755 35.5953 16.8502 33.4059 17.6866L27.6456 19.8868C27.2402 20.0417 27.0374 20.4952 27.1924 20.8999C27.3474 21.3046 27.8016 21.507 28.2069 21.3525L33.9672 19.1522C37.8316 17.6765 42.1565 19.0306 44.4849 22.4458L48.3597 28.1291L41.4061 23.2382C39.9487 22.2132 38.0714 21.9442 36.384 22.5189L15.4617 29.6445C14.7335 29.893 13.933 29.5046 13.6777 28.7797C13.3508 27.8518 13.8154 26.8496 14.7354 26.4982L29.2487 21.0093C29.6541 20.8545 29.8569 20.4009 29.7019 19.9962C29.5468 19.5914 29.0925 19.3891 28.6874 19.5436L14.174 25.0327C12.453 25.69 11.584 27.5646 12.1952 29.3004C12.7353 30.8338 14.4281 31.6547 15.9689 31.1297L36.8914 24.0041C38.1041 23.591 39.4537 23.7844 40.5014 24.5212L50.9907 31.8988C51.1272 31.9949 51.2854 32.042 51.4428 32.042C51.6434 32.042 51.8426 31.9655 51.9942 31.8165C52.2646 31.5505 52.306 31.1292 52.0923 30.8157Z" fill="white" stroke="white" stroke-width="0.4"/>
<path d="M45.9009 38.3319L45.8711 38.3227C44.9253 38.0295 44.1112 37.4423 43.5371 36.6489C44.1266 36.1744 44.695 35.6669 45.2379 35.1247C45.5447 34.8183 45.5447 34.3215 45.2379 34.015C44.9312 33.7086 44.4336 33.7086 44.1268 34.015C41.0456 37.0923 37.1097 39.0058 32.8538 39.5354C32.8253 39.5374 32.7972 39.5407 32.7695 39.5455C31.9952 39.6385 31.2106 39.6862 30.4186 39.6862C30.4182 39.6862 30.4178 39.6862 30.4173 39.6862C30.4168 39.6862 30.4165 39.6862 30.4161 39.6862C29.6241 39.6862 28.8394 39.6385 28.065 39.5455C28.0374 39.5406 28.0093 39.5373 27.9807 39.5354C23.7248 39.0058 19.789 37.0923 16.7077 34.015C16.4009 33.7087 15.9035 33.7086 15.5966 34.015C15.2898 34.3214 15.2898 34.8182 15.5966 35.1247C16.1396 35.6669 16.708 36.1745 17.2975 36.6489C16.7234 37.4423 15.9095 38.0296 14.9645 38.3224L14.9337 38.3319C14.519 38.4598 14.2868 38.899 14.4149 39.3131C14.519 39.6501 14.8298 39.8664 15.1652 39.8664C15.2421 39.8664 15.3202 39.855 15.3973 39.8312L15.4291 39.8214C16.6948 39.4292 17.7849 38.6453 18.5568 37.5869C18.8255 37.7718 19.0979 37.9503 19.3741 38.1219C18.9904 39.3242 18.0924 40.2957 16.9013 40.7676L16.6581 40.8639C16.2547 41.0237 16.0575 41.4797 16.2174 41.8825C16.3396 42.1905 16.6352 42.378 16.9478 42.378C17.0443 42.378 17.1422 42.3601 17.2373 42.3226L17.4808 42.2261C19.0091 41.6206 20.187 40.4155 20.7627 38.9121C21.0645 39.0689 21.3697 39.2181 21.6784 39.3596C21.5884 40.7052 20.8094 41.9062 19.6001 42.5363L19.5533 42.5607C19.1685 42.761 19.0192 43.2349 19.2197 43.6192C19.3598 43.8876 19.6336 44.0413 19.917 44.0413C20.0393 44.0413 20.1635 44.0126 20.2795 43.9522L20.3266 43.9277C21.8694 43.1238 22.913 41.6585 23.1865 39.9807C23.5197 40.1027 23.856 40.2165 24.1955 40.3214C24.1506 41.566 23.6674 42.7489 22.8214 43.6706C22.5282 43.99 22.5498 44.4863 22.8697 44.7792C23.0206 44.9173 23.2107 44.9854 23.4003 44.9854C23.6129 44.9854 23.8248 44.8997 23.9797 44.7309C24.9978 43.6216 25.6121 42.2212 25.7439 40.7356C26.1954 40.8378 26.6515 40.9243 27.1113 40.9966C27.0095 42.202 26.6391 43.3741 26.023 44.4214L25.9172 44.6011C25.6974 44.9748 25.8226 45.4556 26.1968 45.6751C26.3218 45.7484 26.4587 45.7833 26.594 45.7833C26.8635 45.7833 27.1258 45.6447 27.2722 45.3959L27.3778 45.2163C28.104 43.9821 28.5443 42.6025 28.6724 41.1828C28.9908 41.2088 29.3106 41.2276 29.6316 41.2394V45.9011C29.6316 46.3344 29.9834 46.6857 30.4172 46.6857C30.8511 46.6857 31.2029 46.3343 31.2029 45.9011V41.2394C31.524 41.2276 31.8437 41.2088 32.1621 41.1828C32.2901 42.6023 32.7304 43.9821 33.4565 45.2161L33.5623 45.3959C33.7087 45.6448 33.971 45.7833 34.2405 45.7833C34.3757 45.7833 34.5127 45.7484 34.6377 45.6751C35.0119 45.4556 35.137 44.9748 34.9173 44.6011L34.8114 44.4212C34.1954 43.3741 33.825 42.2018 33.7231 40.9966C34.1829 40.9242 34.639 40.8378 35.0906 40.7356C35.2223 42.2211 35.8366 43.6216 36.8548 44.7309C37.0097 44.8997 37.2215 44.9854 37.4342 44.9854C37.6238 44.9854 37.814 44.9172 37.9648 44.7792C38.2846 44.4863 38.3063 43.99 38.0131 43.6706C37.1672 42.7489 36.6839 41.5658 36.6389 40.3214C36.9784 40.2165 37.3147 40.1028 37.648 39.9807C37.9215 41.6586 38.9651 43.1239 40.5081 43.9278L40.5549 43.9522C40.671 44.0126 40.7951 44.0413 40.9175 44.0413C41.201 44.0413 41.4746 43.8875 41.6147 43.6192C41.8153 43.2349 41.666 42.761 41.2812 42.5607L41.2346 42.5364C40.0251 41.9063 39.2461 40.7052 39.1561 39.3596C39.4648 39.2181 39.7701 39.0689 40.0718 38.9121C40.6474 40.4155 41.8253 41.6206 43.3538 42.2262L43.5972 42.3226C43.6922 42.3602 43.7902 42.3781 43.8866 42.3781C44.1993 42.3781 44.4949 42.1903 44.6171 41.8826C44.7771 41.4797 44.5798 41.0237 44.1764 40.864L43.9331 40.7676C42.742 40.2956 41.8439 39.3241 41.4603 38.1218C41.7365 37.9502 42.0089 37.7718 42.2776 37.5868C43.0495 38.6453 44.1397 39.4292 45.4063 39.8217L45.4371 39.8312C45.5143 39.855 45.5924 39.8663 45.6692 39.8663C46.0047 39.8663 46.3154 39.6499 46.4195 39.313C46.5478 38.899 46.3156 38.4598 45.9009 38.3319Z" fill="white" stroke="white" stroke-width="0.4"/>
<defs>
<linearGradient id="paint0_linear" x1="7.15655" y1="-11.4899" x2="87.798" y2="33.1312" gradientUnits="userSpaceOnUse">
<stop stop-color="#CC283C"/>
<stop offset="1" stop-color="#CC284F"/>
</linearGradient>
</defs>
</svg>
