<svg width="78" height="78" viewBox="0 0 78 78" fill="none" xmlns="http://www.w3.org/2000/svg">
<circle cx="39" cy="39" r="39" fill="white"/>
<path d="M34.7422 43.2749L37.1172 45.6499L43.4505 39.3165" stroke="#CD2943" stroke-width="2.125" stroke-linecap="round" stroke-linejoin="round"/>
<path d="M35.8346 29.5H42.168C45.3346 29.5 45.3346 27.9166 45.3346 26.3333C45.3346 23.1666 43.7513 23.1666 42.168 23.1666H35.8346C34.2513 23.1666 32.668 23.1666 32.668 26.3333C32.668 29.5 34.2513 29.5 35.8346 29.5Z" stroke="#CD2943" stroke-width="2.125" stroke-miterlimit="10" stroke-linecap="round" stroke-linejoin="round"/>
<path d="M45.3333 26.365C50.6058 26.65 53.25 28.5975 53.25 35.8334V45.3334C53.25 51.6667 51.6667 54.8334 43.75 54.8334H34.25C26.3333 54.8334 24.75 51.6667 24.75 45.3334V35.8334C24.75 28.6134 27.3942 26.65 32.6667 26.365" stroke="#CD2943" stroke-width="2.125" stroke-miterlimit="10" stroke-linecap="round" stroke-linejoin="round"/>
</svg>
