<svg width="64" height="64" viewBox="0 0 64 64" fill="none" xmlns="http://www.w3.org/2000/svg">
<path d="M0 2C0 0.895431 0.895431 0 2 0H49C57.2843 0 64 6.71573 64 15V49C64 57.2843 57.2843 64 49 64H15C6.71573 64 0 57.2843 0 49V2Z" fill="#CD2946"/>
<path d="M0 2C0 0.895431 0.895431 0 2 0H49C57.2843 0 64 6.71573 64 15V49C64 57.2843 57.2843 64 49 64H15C6.71573 64 0 57.2843 0 49V2Z" fill="url(#paint0_linear)"/>
<path d="M46.7276 23.7138L42.395 19.3816C42.3949 19.3814 42.3948 19.3813 42.3947 19.3812L41.5686 18.5553L41.0206 18.0073C41.0205 18.0072 41.0204 18.0072 41.0203 18.007L40.8875 17.8742C39.9737 16.9604 38.7586 16.4572 37.4663 16.4572C36.174 16.4572 34.9589 16.9604 34.0451 17.8741L17.8718 34.0461C15.9926 35.925 15.986 38.9775 17.8506 40.8655C17.8542 40.8692 17.8573 40.8733 17.861 40.877L17.8718 40.8878L19.379 42.3949C19.3791 42.3949 19.3791 42.3949 19.3792 42.395L23.712 46.7274C24.238 47.2533 24.9372 47.5429 25.6809 47.5429C26.4246 47.5429 27.1238 47.2533 27.6497 46.7274L29.2351 45.1421C29.5915 44.7858 29.5915 44.2081 29.2351 43.8518L24.2237 38.8408L25.5251 37.5395L29.5696 41.5837C29.7478 41.7619 29.9813 41.851 30.2148 41.851C30.4482 41.851 30.6818 41.7619 30.8599 41.5837C31.2163 41.2274 31.2163 40.6497 30.8599 40.2934L26.8154 36.2494L28.2012 34.8637L32.2457 38.9079C32.4239 39.086 32.6574 39.1751 32.8909 39.1751C33.1243 39.1751 33.3579 39.0861 33.536 38.9079C33.8924 38.5516 33.8924 37.9739 33.536 37.6176L29.4915 33.5734L30.8773 32.1878L34.9218 36.2319C35.1 36.4101 35.3335 36.4992 35.567 36.4992C35.8005 36.4992 36.034 36.4101 36.2122 36.2319C36.5685 35.8756 36.5685 35.298 36.2122 34.9416L32.1677 30.8975L33.5985 29.4668L37.643 33.5109C37.8211 33.6891 38.0546 33.7782 38.2881 33.7782C38.5216 33.7782 38.7552 33.6891 38.9333 33.5109C39.2896 33.1547 39.2896 32.5769 38.9333 32.2206L34.8888 28.1765L36.3197 26.7457L40.3642 30.7899C40.5424 30.9681 40.7759 31.0572 41.0094 31.0572C41.2428 31.0572 41.4764 30.9681 41.6545 30.7899C42.0109 30.4336 42.0109 29.8559 41.6545 29.4996L37.61 25.4555L38.8402 24.2254L43.8517 29.2364C44.0228 29.4075 44.2549 29.5036 44.4968 29.5036C44.7388 29.5036 44.971 29.4075 45.142 29.2364L46.7274 27.6511C47.2534 27.1252 47.543 26.426 47.543 25.6824C47.543 24.9387 47.2535 24.2396 46.7276 23.7138ZM19.1622 35.3363L35.3355 19.1645C35.9047 18.5953 36.6614 18.2819 37.4663 18.2819C38.2712 18.2819 39.0279 18.5953 39.5971 19.1645L40.4079 19.9752L40.4591 20.0264C33.846 26.6389 26.6316 33.8527 20.0242 40.4595L19.1667 39.6021L19.1622 39.5976C17.9873 38.4227 17.9873 36.5112 19.1622 35.3363ZM27.2995 44.497L26.3593 45.4372C26.1781 45.6184 25.9372 45.7182 25.6809 45.7182C25.4246 45.7182 25.1836 45.6184 25.0024 45.4372L21.3146 41.7498L22.9333 40.1312L27.2995 44.497ZM45.4372 26.3609L44.497 27.301L40.1308 22.9352L41.7495 21.3167L45.4372 25.0041C45.8113 25.3781 45.8113 25.9868 45.4372 26.3609Z" fill="white"/>
<defs>
<linearGradient id="paint0_linear" x1="7.15655" y1="-11.4899" x2="87.798" y2="33.1312" gradientUnits="userSpaceOnUse">
<stop stop-color="#CC283C"/>
<stop offset="1" stop-color="#CC284F"/>
</linearGradient>
</defs>
</svg>
