<svg width="64" height="64" viewBox="0 0 64 64" fill="none" xmlns="http://www.w3.org/2000/svg">
<path d="M0 2C0 0.895431 0.895431 0 2 0H49C57.2843 0 64 6.71573 64 15V49C64 57.2843 57.2843 64 49 64H15C6.71573 64 0 57.2843 0 49V2Z" fill="#CD2946"/>
<path d="M0 2C0 0.895431 0.895431 0 2 0H49C57.2843 0 64 6.71573 64 15V49C64 57.2843 57.2843 64 49 64H15C6.71573 64 0 57.2843 0 49V2Z" fill="url(#paint0_linear)"/>
<path d="M49.0581 25.9802L44.3172 20.3688C45.7161 17.2731 45.4875 13.5835 43.6884 10.6315C43.4935 10.3118 43.076 10.2105 42.7559 10.405C42.5715 10.5171 42.4602 10.703 42.4357 10.9017C40.91 17.1413 36.0849 21.9415 29.8254 23.4384C26.5144 24.2303 23.4918 25.9196 21.0844 28.3239C18.7484 30.6567 17.0866 33.568 16.2656 36.7595C15.8116 37.0073 15.3669 37.2743 14.9329 37.561C14.6204 37.7675 14.5346 38.188 14.7414 38.5001C14.8719 38.6971 15.0878 38.8039 15.308 38.8039C15.4365 38.8039 15.5665 38.7675 15.6817 38.6914C17.3473 37.5911 19.1782 36.7973 21.1236 36.332C23.3666 35.7957 25.4627 34.8577 27.3537 33.5442C27.6613 33.3305 27.7373 32.9081 27.5233 32.6009C27.3094 32.2936 26.8865 32.2179 26.5788 32.4315C24.8272 33.6482 22.8855 34.5171 20.8075 35.014C19.8127 35.2518 18.846 35.5704 17.9124 35.965C19.7609 30.3777 24.3339 26.1454 30.1416 24.7564C31.1351 24.5188 32.1025 24.1997 33.0353 23.8054C32.5018 25.4136 31.7351 26.926 30.7448 28.3157C30.5275 28.6206 30.5989 29.0437 30.9042 29.2607C31.0235 29.3456 31.1609 29.3864 31.297 29.3864C31.5092 29.3864 31.7181 29.2873 31.8505 29.1015C33.1672 27.2538 34.1185 25.2058 34.6826 23.0105C36.2177 22.1734 37.6332 21.1188 38.8826 19.871C40.866 17.8902 42.3629 15.4922 43.2723 12.86C44.1674 15.2296 44.0578 17.9056 42.9108 20.1646C42.7876 20.4074 42.8217 20.7001 42.9974 20.9081L48.0008 26.8302L46.0609 28.1048C45.7566 28.3047 45.6647 28.7089 45.8525 29.0205L46.5993 30.259C46.7786 30.5564 46.8195 30.9162 46.7112 31.2462C46.6031 31.5761 46.3571 31.8422 46.0363 31.9761C45.8212 32.0659 45.6673 32.2599 45.6288 32.4897C45.5903 32.7195 45.6728 32.9528 45.8471 33.1076C46.1251 33.3547 46.2582 33.7076 46.2121 34.0764C46.1661 34.4451 45.9503 34.7548 45.6196 34.9263L45.5778 34.948C45.3532 35.0646 45.2124 35.2964 45.2124 35.5491V37.8193C45.2124 39.0151 44.2383 39.9879 43.0409 39.9879H39.0582C37.3159 39.9879 35.6205 40.4853 34.1554 41.4265L30.5303 43.7549C30.2151 43.9574 30.124 44.3767 30.3267 44.6914C30.4564 44.8928 30.6749 45.0026 30.898 45.0026C31.0238 45.0026 31.1509 44.9678 31.2645 44.8948L34.8895 42.5664C36.1353 41.7661 37.5768 41.3431 39.0582 41.3431H43.0409C44.9866 41.3431 46.5695 39.7623 46.5695 37.8193V35.9276C47.1125 35.5294 47.474 34.9226 47.5588 34.244C47.6231 33.7287 47.5225 33.2145 47.2829 32.7695C47.611 32.4746 47.8605 32.0964 48.001 31.6677C48.232 30.9631 48.1448 30.1947 47.7619 29.5597L47.3515 28.879L48.7727 27.9452C49.09 27.7367 49.3032 27.402 49.3577 27.0267C49.4121 26.6516 49.303 26.2701 49.0581 25.9802Z" fill="white" stroke="white" stroke-width="0.7"/>
<path d="M14.9745 23.2556C15.0797 23.3148 15.194 23.3429 15.3067 23.3429C15.5438 23.3429 15.7741 23.2186 15.8987 22.9976C16.4626 21.9973 16.8845 20.923 17.1528 19.8045C18.1268 15.7424 21.2587 12.6147 25.3263 11.642C25.6908 11.5548 25.9155 11.1891 25.8282 10.8251C25.7409 10.4612 25.3744 10.2369 25.0102 10.3239C22.7814 10.8569 20.7466 11.9941 19.1261 13.6125C17.5054 15.231 16.3667 17.2629 15.833 19.4888C15.5941 20.4851 15.2183 21.4419 14.7161 22.3326C14.5322 22.6587 14.6479 23.072 14.9745 23.2556Z" fill="white" stroke="white" stroke-width="0.7"/>
<defs>
<linearGradient id="paint0_linear" x1="7.15655" y1="-11.4899" x2="87.798" y2="33.1312" gradientUnits="userSpaceOnUse">
<stop stop-color="#CC283C"/>
<stop offset="1" stop-color="#CC284F"/>
</linearGradient>
</defs>
</svg>
