<svg width="400" height="300" viewBox="0 0 400 300" fill="none" xmlns="http://www.w3.org/2000/svg">
<g clip-path="url(#clip0)">
<path opacity="0.7" d="M333.169 280.92C333.169 285.268 268.28 288.793 188.233 288.793C108.185 288.793 43.2969 285.268 43.2969 280.92C43.2969 276.572 108.185 273 188.233 273C268.28 273 333.169 276.572 333.169 280.92Z" fill="#AA2338"/>
<path d="M100.633 250.666V255.38H135.927V250.666H100.633Z" fill="#FFEEF2"/>
<path d="M59.4116 229.016C59.4116 229.016 14.1144 202.209 16.5294 133.407C18.9444 64.6049 79.68 22.8465 124.429 23.7701C169.179 24.6937 182.142 43.9552 219.041 46.9498C255.941 49.9443 320.894 23.2173 360.576 56.2729C400.259 89.3286 368.712 170.596 321.556 229.05C274.401 287.504 132.525 297.677 59.4116 229.016Z" fill="#CD2942"/>
<path opacity="0.08" d="M59.4116 229.016C59.4116 229.016 14.1144 202.209 16.5294 133.407C18.9444 64.6049 79.68 22.8465 124.429 23.7701C169.179 24.6937 182.142 43.9552 219.041 46.9498C255.941 49.9443 320.894 23.2173 360.576 56.2729C400.259 89.3286 368.712 170.596 321.556 229.05C274.401 287.504 132.525 297.677 59.4116 229.016Z" fill="#2F3646"/>
<path d="M105.444 250.854C105.564 250.854 105.664 251.844 105.664 253.067C105.664 254.289 105.564 255.274 105.444 255.274C105.325 255.274 105.219 254.283 105.219 253.067C105.219 251.851 105.319 250.854 105.444 250.854Z" fill="#FAFAFA"/>
<path d="M104.676 250.76C104.802 250.76 104.896 251.751 104.896 252.967C104.896 254.183 104.802 255.18 104.676 255.18C104.551 255.18 104.457 254.189 104.457 252.967C104.457 251.744 104.551 250.76 104.676 250.76Z" fill="#FAFAFA"/>
<path d="M133.2 250.854C133.325 250.854 133.426 251.844 133.426 253.067C133.426 254.289 133.325 255.274 133.2 255.274C133.075 255.274 132.98 254.283 132.98 253.067C132.98 251.851 133.081 250.854 133.2 250.854Z" fill="#FAFAFA"/>
<path d="M132.433 250.76C132.552 250.76 132.652 251.751 132.652 252.967C132.652 254.183 132.552 255.18 132.433 255.18C132.314 255.18 132.207 254.189 132.207 252.967C132.207 251.744 132.307 250.76 132.433 250.76Z" fill="#FAFAFA"/>
<path d="M127.82 253.161C127.82 253.286 123.777 253.38 118.793 253.38C113.809 253.38 109.766 253.286 109.766 253.161C109.766 253.036 113.809 252.942 118.793 252.942C123.777 252.942 127.82 253.036 127.82 253.161Z" fill="#FAFAFA"/>
<path d="M100.484 271.893V281.321H135.778V271.893H100.484Z" fill="#DF889A"/>
<path d="M136.226 278.669C136.226 278.669 136.17 278.713 136.038 278.776C135.907 278.839 135.712 278.933 135.449 279.045C134.682 279.371 133.878 279.6 133.054 279.729C131.735 279.968 130.374 279.774 129.174 279.177C128.432 278.782 127.798 278.209 127.331 277.51C126.794 276.713 126.571 275.746 126.704 274.795C126.781 274.279 126.998 273.793 127.331 273.391C127.509 273.171 127.736 272.995 127.994 272.877C128.252 272.76 128.533 272.704 128.817 272.714C129.108 272.738 129.391 272.821 129.649 272.959C129.907 273.097 130.134 273.287 130.315 273.516C130.701 273.971 130.939 274.533 130.998 275.127C131.046 275.739 130.963 276.354 130.753 276.93C130.543 277.506 130.212 278.031 129.782 278.469C128.889 279.413 127.684 280.003 126.391 280.13C125.058 280.258 123.714 280.091 122.454 279.641C121.107 279.22 119.911 278.416 119.012 277.328C118.548 276.743 118.269 276.034 118.21 275.29C118.172 274.904 118.22 274.513 118.35 274.147C118.48 273.781 118.689 273.448 118.962 273.171C119.261 272.885 119.652 272.713 120.065 272.689C120.474 272.678 120.876 272.791 121.219 273.015C121.88 273.448 122.346 274.123 122.516 274.895C122.664 275.649 122.613 276.429 122.369 277.157C122.125 277.886 121.696 278.539 121.125 279.052C120.004 279.998 118.613 280.564 117.15 280.669C115.764 280.828 114.36 280.69 113.031 280.262C111.728 279.851 110.615 278.986 109.897 277.823C109.54 277.271 109.318 276.643 109.251 275.989C109.183 275.335 109.272 274.675 109.508 274.062C109.626 273.754 109.819 273.482 110.07 273.269C110.321 273.056 110.621 272.911 110.944 272.845C111.254 272.79 111.572 272.799 111.879 272.872C112.185 272.946 112.473 273.082 112.724 273.272C113.164 273.658 113.479 274.167 113.629 274.733C113.778 275.299 113.756 275.897 113.564 276.45C113.221 277.438 112.604 278.308 111.784 278.958C110.426 280.108 108.722 280.77 106.944 280.838C105.862 280.877 104.784 280.687 103.779 280.282C102.775 279.877 101.867 279.266 101.114 278.487C100.963 278.332 100.821 278.169 100.688 277.999C100.641 277.942 100.599 277.881 100.562 277.817C101.308 278.639 102.198 279.317 103.189 279.817C104.357 280.39 105.651 280.658 106.951 280.594C108.666 280.496 110.301 279.835 111.602 278.713C112.366 278.095 112.939 277.273 113.257 276.344C113.423 275.859 113.442 275.336 113.312 274.841C113.181 274.345 112.907 273.9 112.524 273.56C112.313 273.403 112.073 273.291 111.817 273.231C111.562 273.171 111.296 273.163 111.038 273.209C110.776 273.263 110.532 273.384 110.33 273.56C110.128 273.735 109.975 273.96 109.884 274.212C109.678 274.766 109.606 275.36 109.672 275.947C109.738 276.534 109.942 277.097 110.267 277.591C110.94 278.665 111.977 279.462 113.188 279.835C114.459 280.238 115.801 280.367 117.125 280.211C118.494 280.11 119.796 279.581 120.849 278.701C121.365 278.236 121.752 277.645 121.972 276.985C122.192 276.326 122.237 275.621 122.103 274.939C121.961 274.276 121.568 273.694 121.006 273.316C120.752 273.128 120.44 273.035 120.125 273.053C119.81 273.072 119.512 273.2 119.282 273.416C119.054 273.646 118.879 273.924 118.771 274.23C118.663 274.535 118.623 274.861 118.655 275.184C118.707 275.842 118.954 276.47 119.363 276.989C120.208 278.009 121.329 278.765 122.592 279.165C123.795 279.598 125.079 279.762 126.353 279.647C127.545 279.532 128.657 278.994 129.487 278.13C129.883 277.734 130.189 277.258 130.385 276.733C130.581 276.209 130.662 275.648 130.622 275.09C130.601 274.582 130.408 274.097 130.076 273.714C129.743 273.33 129.291 273.07 128.792 272.977C128.559 272.97 128.328 273.016 128.116 273.111C127.904 273.207 127.717 273.35 127.569 273.529C127.263 273.885 127.062 274.319 126.986 274.783C126.858 275.66 127.061 276.554 127.557 277.29C127.991 277.96 128.583 278.513 129.281 278.901C130.439 279.496 131.757 279.704 133.042 279.497C133.855 279.386 134.654 279.186 135.424 278.901C135.951 278.77 136.22 278.65 136.226 278.669Z" fill="#FAFAFA"/>
<path d="M103.633 255.512V271.874H135.774V255.512H103.633Z" fill="#FFC1CF"/>
<path d="M108.976 256.076C109.095 256.076 109.195 259.618 109.195 263.994C109.195 268.37 109.095 271.911 108.976 271.911C108.857 271.911 108.75 268.37 108.75 263.994C108.75 259.618 108.85 256.076 108.976 256.076Z" fill="#FFEEF2"/>
<path d="M111.417 255.869C111.536 255.869 111.636 259.373 111.636 263.687C111.636 268 111.536 271.504 111.417 271.504C111.298 271.504 111.191 268.006 111.191 263.687C111.191 259.367 111.292 255.869 111.417 255.869Z" fill="#FFEEF2"/>
<path d="M132.148 255.368C132.267 255.368 132.367 259.054 132.367 263.605C132.367 268.156 132.267 271.836 132.148 271.836C132.028 271.836 131.922 268.15 131.922 263.605C131.922 259.06 132.022 255.368 132.148 255.368Z" fill="#FFEEF2"/>
<path d="M129.284 255.568C129.403 255.568 129.504 259.154 129.504 263.586C129.504 268.018 129.403 271.604 129.284 271.604C129.165 271.604 129.059 268.018 129.059 263.586C129.059 259.154 129.159 255.568 129.284 255.568Z" fill="#FFEEF2"/>
<path d="M302.297 219.798C305.632 218.074 309.55 217.854 313.255 218.462C315.242 218.795 317.311 219.384 318.665 220.882C320.019 222.381 320.27 225.001 318.722 226.28C317.794 227.045 316.509 227.164 315.305 227.145C312.409 227.114 309.199 226.606 306.886 228.349C305.563 229.339 304.685 230.994 303.124 231.483C301.564 231.972 299.84 231.05 299.025 229.659C298.271 228.207 298.105 226.521 298.561 224.951C298.745 223.862 299.178 222.831 299.826 221.937C300.474 221.044 301.32 220.312 302.297 219.798V219.798Z" fill="#EE95A8"/>
<path d="M294.663 205.059C296.7 207.968 300.662 207.003 302.499 205.229C304.336 203.455 305.113 200.878 305.815 198.421C307.433 192.816 309.056 186.93 307.859 181.219C307.572 179.486 306.81 177.868 305.659 176.542C305.076 175.889 304.333 175.399 303.502 175.122C302.672 174.845 301.784 174.79 300.926 174.962C298.932 175.495 297.691 177.47 296.794 179.307C294.153 184.801 292.767 190.814 292.738 196.91C292.738 199.743 293.064 202.715 294.663 205.059Z" fill="#EE95A8"/>
<path d="M289.088 209.235C291.301 206.608 291.721 202.778 290.737 199.493C289.753 196.208 287.527 193.399 284.963 191.118C281.947 188.432 278.435 186.36 274.626 185.018C273.152 184.424 271.568 184.155 269.98 184.228C269.187 184.274 268.417 184.513 267.737 184.925C267.058 185.337 266.489 185.909 266.081 186.591C264.99 188.666 266.037 191.18 267.166 193.236C269.154 196.851 271.422 200.306 273.949 203.568C275.986 206.194 278.337 208.783 281.415 209.968C284.493 211.153 287.74 211.009 289.383 208.859" fill="#EE95A8"/>
<path d="M294.523 248.954C294.631 248.521 294.694 248.078 294.711 247.632C294.805 246.673 294.918 245.463 295.062 244.027C295.242 242.249 295.512 240.481 295.871 238.73C296.343 236.592 296.986 234.495 297.796 232.461C298.59 230.44 299.664 228.541 300.987 226.819C302.064 225.415 303.441 224.27 305.018 223.465C306.089 222.939 307.235 222.581 308.415 222.406C308.86 222.392 309.301 222.329 309.732 222.217C309.286 222.168 308.836 222.168 308.39 222.217C307.164 222.311 305.964 222.623 304.848 223.139C303.19 223.923 301.736 225.079 300.598 226.518C299.215 228.266 298.1 230.21 297.288 232.285C296.478 234.344 295.849 236.468 295.407 238.636C295.066 240.407 294.829 242.197 294.699 243.996C294.586 245.525 294.542 246.767 294.523 247.625C294.477 248.067 294.477 248.513 294.523 248.954V248.954Z" fill="#2F3646"/>
<path d="M294.777 246.177C294.815 245.971 294.828 245.76 294.815 245.55C294.815 245.093 294.815 244.51 294.815 243.795C294.815 242.278 294.815 240.071 294.89 237.351C295.028 231.909 295.517 226.067 296.401 217.792C297.26 210.031 298.407 200.991 299.623 195.117C299.88 193.782 300.144 192.578 300.394 191.525C300.645 190.472 300.827 189.563 301.021 188.829C301.216 188.096 301.322 187.575 301.429 187.124C301.485 186.919 301.523 186.709 301.542 186.497C301.446 186.679 301.374 186.873 301.328 187.074C301.191 187.513 301.021 188.071 300.814 188.754C300.608 189.437 300.357 190.384 300.093 191.437C299.83 192.49 299.529 193.688 299.247 195.023C297.741 201.97 296.609 208.993 295.856 216.061C294.953 224.336 294.545 231.872 294.508 237.326C294.477 240.053 294.508 242.259 294.602 243.783C294.646 244.497 294.683 245.08 294.708 245.538C294.705 245.753 294.728 245.968 294.777 246.177V246.177Z" fill="#2F3646"/>
<path d="M294.813 231.646C294.861 231.037 294.861 230.425 294.813 229.815C294.744 228.637 294.581 226.932 294.248 224.85C293.849 222.411 293.311 219.995 292.637 217.616C291.847 214.689 290.835 211.826 289.609 209.053C287.512 203.94 284.502 199.252 280.726 195.217C280.068 194.528 279.369 193.879 278.633 193.274C278.313 193.004 278.006 192.735 277.742 192.522L276.934 191.964C276.446 191.591 275.928 191.26 275.385 190.973C275.298 191.092 277.573 192.428 280.444 195.487C284.096 199.557 287.026 204.221 289.108 209.278C290.306 212.033 291.317 214.864 292.136 217.754C292.932 220.412 293.459 222.857 293.86 224.913C294.261 226.969 294.455 228.675 294.587 229.834C294.613 230.443 294.689 231.049 294.813 231.646Z" fill="#2F3646"/>
<path d="M279.793 255.073L281.254 275.021H306.875L308.335 255.073H279.793Z" fill="#FFC1CF"/>
<path d="M311.388 247.212H277.316V255.073H311.388V247.212Z" fill="#EBEBEB"/>
<path d="M277.316 274.256V276.437H278.921H310.83V274.256H277.316Z" fill="#FFEEF2"/>
<path d="M280.485 280.03L278.918 276.199H309.604L307.774 280.03H280.485Z" fill="#FFEEF2"/>
<path d="M307.861 261.593C307.829 261.658 307.789 261.719 307.742 261.775C307.635 261.912 307.51 262.075 307.359 262.282L305.861 264.194L305.798 264.282L305.736 264.188C304.795 262.89 303.541 261.16 302.068 259.117H302.256L298.645 264.232L298.533 264.389L298.407 264.238L294.144 259.129H294.389L294.157 259.424L290.345 264.238L290.214 264.401L290.101 264.232C288.797 262.395 287.593 260.671 286.484 259.123H286.697L282.246 264.194L282.171 264.282L282.108 264.182L280.716 261.843C280.566 261.586 280.453 261.38 280.359 261.217C280.313 261.148 280.275 261.075 280.246 260.997C280.304 261.056 280.354 261.121 280.397 261.192L280.791 261.818L282.252 264.119H282.114L286.502 258.985L286.609 258.859L286.709 258.997L290.358 264.088H290.107L293.931 259.279L294.163 258.979L294.289 258.828L294.414 258.979L298.683 264.082H298.445L302.093 258.991L302.2 258.841L302.3 258.991L305.892 264.119H305.761C306.419 263.329 306.933 262.709 307.315 262.238L307.729 261.756C307.804 261.637 307.854 261.586 307.861 261.593Z" fill="#FFD3DD"/>
<path d="M308.694 254.941C308.694 255.029 302.269 255.098 294.351 255.098C286.433 255.098 280.008 255.029 280.008 254.941C280.008 254.854 286.427 254.785 294.351 254.785C302.275 254.785 308.694 254.854 308.694 254.941Z" fill="#FFD3DD"/>
<path d="M172.367 73.719H155.422V89.1594H172.367V73.719Z" fill="#FFD3DD"/>
<path d="M172.369 89.1593C172.369 89.1593 172.369 89.0527 172.369 88.8646V88.0246C172.369 87.2723 172.369 86.2129 172.331 84.8901C172.331 82.1694 172.287 78.3391 172.256 73.7314L172.4 73.8819H155.474L155.643 73.7126V77.8564C155.643 79.2105 155.643 80.5395 155.643 81.8372C155.643 84.4262 155.643 86.8523 155.643 89.1468L155.487 88.9963L167.711 89.0715L171.178 89.1154H172.106C172.214 89.1063 172.323 89.1063 172.432 89.1154C172.334 89.1244 172.235 89.1244 172.137 89.1154H171.241L167.811 89.153L155.487 89.2282H155.336V89.0715C155.336 86.8084 155.336 84.351 155.336 81.7619C155.336 80.4643 155.336 79.1352 155.336 77.7812V73.6374C155.18 73.7878 155.543 73.4242 155.512 73.4619H172.438H172.588V73.606C172.557 78.2513 172.532 82.1193 172.513 84.8901C172.513 86.2066 172.482 87.2535 172.476 88.0246C172.476 88.3548 172.476 88.6243 172.476 88.8333C172.455 88.9463 172.419 89.056 172.369 89.1593V89.1593Z" fill="#FFEEF2"/>
<path d="M172.367 91.5791H155.422V99.3401H172.367V91.5791Z" fill="#FFD3DD"/>
<path d="M172.364 99.3401C172.364 99.3401 172.364 99.1394 172.364 98.7758L172.332 97.2211C172.332 95.8482 172.295 93.9362 172.263 91.5791L172.389 91.7045L155.463 91.7546C155.306 91.9114 155.669 91.5415 155.632 91.5854V95.5787C155.632 96.8764 155.632 98.1364 155.632 99.3401L155.463 99.1771L167.58 99.2523L171.116 99.3024H172.069H172.408C172.307 99.3116 172.207 99.3116 172.107 99.3024H171.185L167.693 99.3526L155.463 99.4278H155.3V99.2648C155.3 98.0612 155.3 96.8011 155.3 95.5035V91.5101C155.262 91.5101 155.626 91.1779 155.475 91.3346L172.401 91.3785H172.483V91.5039C172.483 93.8923 172.433 95.8357 172.42 97.2211C172.42 97.848 172.42 98.3684 172.42 98.7508C172.42 98.9486 172.401 99.1459 172.364 99.3401V99.3401Z" fill="#FFEEF2"/>
<path d="M152.424 73.7628C146.117 82.4704 138.871 90.6325 132.57 99.3401Z" fill="white"/>
<path d="M132.578 99.3402C132.578 99.3402 132.622 99.2336 132.741 99.0518L133.274 98.2744C133.738 97.5974 134.434 96.6382 135.311 95.4659C137.06 93.1088 139.562 89.9242 142.37 86.4449C145.179 82.9657 147.705 79.8061 149.498 77.4929L151.623 74.7534L152.206 74.0074C152.344 73.8444 152.419 73.7566 152.432 73.7629C152.386 73.865 152.33 73.9618 152.263 74.0513L151.73 74.8286C151.266 75.5057 150.57 76.4648 149.692 77.6434C147.943 79.9942 145.442 83.1788 142.634 86.6581C139.825 90.1374 137.305 93.2969 135.506 95.6101L133.381 98.3559L132.798 99.0957C132.734 99.1854 132.661 99.2675 132.578 99.3402Z" fill="#FFEEF2"/>
<path d="M180.94 66.0457C180.94 66.6756 180.753 67.2913 180.403 67.815C180.053 68.3387 179.556 68.7469 178.974 68.9879C178.392 69.2289 177.751 69.292 177.134 69.1691C176.516 69.0463 175.948 68.7429 175.503 68.2976C175.058 67.8522 174.754 67.2847 174.632 66.667C174.509 66.0492 174.572 65.4089 174.813 64.827C175.054 64.2451 175.462 63.7477 175.986 63.3978C176.509 63.0479 177.125 62.8611 177.755 62.8611C178.599 62.8627 179.408 63.1988 180.005 63.7957C180.602 64.3925 180.938 65.2016 180.94 66.0457V66.0457Z" fill="#FFEEF2"/>
<path d="M305.515 88.2253H268.816V141.424H305.515V88.2253Z" fill="#A32135"/>
<path d="M303.675 88.2253H266.977V141.424H303.675V88.2253Z" fill="#DF889A"/>
<path d="M299.122 93.9865H271.539V135.662H299.122V93.9865Z" fill="#DD344E"/>
<path d="M299.119 135.662C299.119 135.662 299.119 135.587 299.119 135.455C299.119 135.324 299.119 135.123 299.119 134.866C299.119 134.34 299.119 133.575 299.119 132.578C299.119 130.584 299.119 127.669 299.119 123.996C299.119 116.649 299.119 106.242 299.076 93.9864L299.17 94.0804H271.536L271.636 93.9801C271.636 109.703 271.636 124.196 271.636 135.656L271.555 135.575L291.616 135.618H297.164H298.618H299.126H298.637H297.195H291.666L271.542 135.656H271.461V135.581C271.461 124.121 271.461 109.627 271.461 93.9049V93.8046H271.536H299.119H299.207V93.8923C299.207 106.173 299.176 116.598 299.163 123.983C299.163 127.651 299.163 130.553 299.163 132.547C299.163 133.531 299.163 134.289 299.163 134.81C299.163 135.067 299.163 135.255 299.163 135.393L299.119 135.662Z" fill="#A22135"/>
<path d="M303.78 88.2253C303.603 88.5629 303.393 88.8821 303.153 89.1782C302.727 89.7487 302.119 90.5198 301.429 91.3598C300.739 92.1998 300.094 92.9396 299.617 93.4724C299.374 93.7708 299.103 94.0458 298.809 94.2937C299.018 93.9702 299.253 93.6642 299.511 93.3784L301.279 91.2344L303.04 89.0904C303.265 88.7844 303.513 88.4953 303.78 88.2253V88.2253Z" fill="#A22135"/>
<path d="M299.258 135.524C300.627 137.706 302.24 139.725 304.066 141.543Z" fill="white"/>
<path d="M304.066 141.543C303.761 141.319 303.481 141.063 303.232 140.778C302.591 140.129 301.985 139.446 301.414 138.734C300.844 138.022 300.311 137.281 299.816 136.515C299.595 136.206 299.408 135.873 299.258 135.524C299.504 135.811 299.731 136.115 299.935 136.433C300.336 137.004 300.907 137.775 301.571 138.609C302.236 139.442 302.869 140.163 303.333 140.684C303.599 140.95 303.844 141.238 304.066 141.543V141.543Z" fill="#A22135"/>
<path d="M266.969 141.38L271.777 135.449Z" fill="white"/>
<path d="M271.783 135.449C271.82 135.449 270.78 136.841 269.457 138.477C268.673 139.488 267.836 140.457 266.949 141.38C268.447 139.32 270.052 137.34 271.758 135.449H271.783Z" fill="#A22135"/>
<path d="M266.977 88.2253C267.8 89.1156 268.579 90.0466 269.309 91.015C270.087 91.9458 270.813 92.919 271.484 93.9301C270.658 93.0356 269.879 92.0982 269.152 91.1216C268.372 90.1988 267.645 89.2318 266.977 88.2253V88.2253Z" fill="#A22135"/>
<path d="M290.527 102.449H281.293V128.672H290.527V102.449Z" fill="#DF889A"/>
<path d="M138.122 65.5693C128.06 81.3921 128.718 103.333 139.714 118.523C147.043 128.654 158.032 135.449 166.758 144.389C175.485 153.328 182.117 166.524 177.51 178.147C172.82 189.976 159.085 194.785 148.804 202.282C137.461 210.544 129.76 222.88 127.319 236.699C124.879 250.519 127.888 264.746 135.715 276.394H242.55C242.55 276.394 261.319 240.629 237.19 213.366C213.061 186.102 200.103 185.663 200.993 167.784C201.883 149.905 214.396 144.107 221.549 137.399C228.702 130.691 263.551 115.063 242.995 65.563L138.122 65.5693Z" fill="#FFECF0"/>
<path d="M138.121 65.5694H139.958H145.374H166.225L242.994 65.5129H243.076V65.5882C244.649 69.3361 245.989 73.178 247.088 77.0917C248.241 81.1892 249.001 85.3876 249.357 89.6295C249.727 94.0637 249.499 98.5274 248.68 102.901C247.78 107.434 246.15 111.792 243.853 115.802C242.663 117.848 241.317 119.799 239.828 121.639C238.309 123.503 236.665 125.262 234.907 126.905C233.128 128.577 231.263 130.157 229.322 131.638C227.378 133.142 225.347 134.559 223.366 136.064C222.376 136.81 221.486 137.65 220.52 138.49C219.555 139.33 218.596 140.113 217.605 140.903C215.63 142.483 213.637 144.038 211.756 145.787C207.831 149.189 204.815 153.515 202.98 158.375C202.098 160.867 201.542 163.463 201.325 166.098C201.268 166.725 201.18 167.415 201.155 168.079C201.13 168.744 201.105 169.408 201.155 170.073C201.17 171.407 201.304 172.737 201.557 174.047C202.054 176.702 203.137 179.212 204.729 181.394C206.366 183.576 208.221 185.586 210.264 187.394C214.32 191.099 218.627 194.641 222.746 198.465C226.864 202.289 230.895 206.276 234.782 210.495C236.765 212.583 238.62 214.79 240.336 217.102C242.063 219.444 243.564 221.944 244.819 224.568C247.356 229.889 248.914 235.622 249.42 241.495C249.931 247.448 249.581 253.445 248.379 259.298C247.795 262.256 247.029 265.174 246.085 268.037C245.157 270.924 244.026 273.742 242.7 276.469L242.656 276.557H135.626L135.582 276.488C130.572 268.944 127.5 260.282 126.637 251.268C125.768 242.609 127.038 233.869 130.335 225.816C133.469 218.118 138.294 211.223 144.453 205.643C147.442 203.004 150.669 200.649 154.094 198.609C157.43 196.54 160.796 194.622 163.974 192.528C167.156 190.539 170.078 188.164 172.676 185.457C175.156 182.798 176.996 179.607 178.054 176.128C178.982 172.734 179.128 169.174 178.481 165.716C177.862 162.378 176.749 159.152 175.177 156.143C173.674 153.246 171.871 150.515 169.798 147.993C167.798 145.575 165.623 143.306 163.291 141.204C158.771 137.042 154.138 133.399 149.976 129.657C147.888 127.776 145.914 125.895 144.089 123.971C142.321 122.087 140.691 120.077 139.212 117.959C136.538 114.074 134.477 109.801 133.1 105.289C131.894 101.394 131.194 97.3587 131.019 93.2843C130.931 92.3565 130.968 91.4413 130.968 90.5448C130.968 89.6483 130.968 88.777 131.05 87.9307C131.131 87.0844 131.175 86.2569 131.238 85.4231C131.301 84.5893 131.47 83.8433 131.576 83.0848C132.269 78.4671 133.682 73.9867 135.764 69.8072C136.046 69.1606 136.369 68.5325 136.73 67.9265L137.501 66.6163C137.908 65.9204 138.127 65.5694 138.127 65.5694L137.501 66.6351L136.755 67.9265C136.402 68.5352 136.084 69.163 135.802 69.8072C133.739 73.9968 132.343 78.483 131.664 83.1036C131.558 83.8559 131.432 84.6332 131.338 85.4294C131.244 86.2255 131.213 87.0593 131.15 87.9056C131.087 88.7519 131.087 89.6233 131.081 90.5135C131.075 91.4036 131.05 92.3189 131.138 93.2467C131.319 97.3076 132.025 101.328 133.238 105.208C134.613 109.703 136.672 113.959 139.344 117.827C140.819 119.937 142.447 121.936 144.215 123.808C146.033 125.739 148.007 127.619 150.095 129.45C154.257 133.211 158.871 136.816 163.423 140.985C165.772 143.101 167.964 145.387 169.98 147.824C172.064 150.364 173.877 153.114 175.39 156.03C176.977 159.057 178.101 162.305 178.725 165.665C179.382 169.161 179.236 172.76 178.299 176.191C177.235 179.71 175.378 182.938 172.87 185.626C170.26 188.349 167.325 190.741 164.131 192.747C160.94 194.847 157.574 196.766 154.245 198.834C150.834 200.87 147.619 203.216 144.641 205.843C138.52 211.395 133.723 218.251 130.605 225.904C127.328 233.916 126.068 242.611 126.937 251.224C127.801 260.187 130.858 268.799 135.839 276.3L135.714 276.231H242.549L242.405 276.319C243.729 273.598 244.856 270.787 245.778 267.906C246.717 265.055 247.479 262.149 248.06 259.204C249.256 253.38 249.604 247.413 249.094 241.488C248.598 235.648 247.05 229.945 244.524 224.656C243.278 222.05 241.79 219.567 240.079 217.24C238.367 214.939 236.521 212.741 234.55 210.658C230.684 206.449 226.678 202.445 222.532 198.646C218.42 194.829 214.126 191.293 210.057 187.569C207.998 185.747 206.127 183.722 204.472 181.526C202.849 179.317 201.738 176.775 201.218 174.085C200.967 172.755 200.831 171.407 200.811 170.054C200.779 169.383 200.811 168.712 200.811 168.041C200.811 167.371 200.923 166.706 200.974 166.042C201.204 163.391 201.773 160.781 202.666 158.274C204.517 153.372 207.562 149.009 211.524 145.58C213.405 143.837 215.417 142.257 217.392 140.684C218.382 139.894 219.354 139.098 220.301 138.283C221.247 137.468 222.181 136.59 223.159 135.838C225.153 134.333 227.178 132.917 229.115 131.418C231.051 129.944 232.911 128.373 234.688 126.71C236.434 125.075 238.069 123.327 239.584 121.476C241.061 119.642 242.4 117.702 243.59 115.671C245.874 111.688 247.496 107.36 248.392 102.857C249.207 98.519 249.437 94.0913 249.075 89.6922C248.725 85.451 247.971 81.2527 246.825 77.1544C245.741 73.2299 244.418 69.3756 242.863 65.6132L242.969 65.6822L166.244 65.6258H145.381H139.952L138.121 65.5694Z" fill="#2F3646"/>
<path d="M238.731 94.5883C254.466 97.1773 229.66 125.049 215.611 136.045C207.462 142.408 198.748 149.316 194.886 158.895C190.498 169.765 193.751 181.977 191.633 192.91C191.564 193.287 191.356 193.624 191.049 193.854C190.743 194.084 190.36 194.189 189.979 194.149C189.598 194.108 189.247 193.925 188.995 193.636C188.744 193.347 188.611 192.973 188.623 192.591C188.724 185.413 188.536 178.241 187.37 171.176C185.683 161.146 181.834 151.247 174.832 143.906C169.096 137.907 161.579 133.926 155.467 128.321C146.54 120.14 137.369 109.59 136.472 97.5158C136.472 97.5158 153.611 83.7242 163.128 85.4481C174.249 87.4855 185.194 104.644 202.421 102.681C214.408 101.309 220.482 91.5917 238.731 94.5883Z" fill="#DD2B50"/>
<path d="M240.129 243.758C239.734 239.821 238.681 235.37 235.189 233.514C233.077 232.386 230.5 232.511 228.181 233.119C225.861 233.727 223.686 234.787 221.391 235.47C216.83 236.811 211.959 236.655 207.493 235.025C203.224 233.458 199.563 230.637 195.582 228.392C191.601 226.148 186.981 224.506 182.568 225.603C174.957 227.483 170.995 236.661 163.473 238.874C160.125 239.852 156.533 239.3 153.135 238.536C149.738 237.771 146.321 236.774 142.842 236.906C140.108 237.006 137.269 237.953 135.357 239.821L135.306 239.877C134.988 240.189 134.699 240.529 134.441 240.893C132.109 244.027 131.733 248.183 132.454 251.982C133.256 256.239 135.244 260.17 137.375 263.937C139.883 268.376 142.741 272.789 146.891 275.748C152.019 279.403 158.458 276.883 164.733 277.378C179.358 278.531 195.093 279.315 209.725 278.187C217.455 277.56 224.695 278.425 230.826 273.679C235.139 270.344 237.948 265.316 239.302 260.038C240.656 254.76 240.675 249.18 240.129 243.758Z" fill="#DD2B50"/>
<g opacity="0.24">
<path opacity="0.24" d="M212.523 236.222C211.702 237.476 211.345 239.181 212.141 240.46C212.937 241.739 214.022 242.911 214.36 244.385C214.905 246.692 213.514 248.948 212.479 251.086C210.565 254.908 209.842 259.217 210.404 263.455C210.997 267.706 213.193 271.57 216.542 274.256C218.027 275.403 219.958 276.293 221.751 275.729C223.437 275.203 224.522 273.491 224.886 271.755C225.249 270.018 224.942 268.232 224.723 266.483C223.702 258.331 223.913 250.072 225.349 241.984C225.588 240.636 225.813 239.094 224.961 238.022C224.346 237.397 223.565 236.962 222.71 236.768C219.45 235.683 215.934 236.887 212.555 236.247" fill="#2F3646"/>
</g>
<path d="M127.873 281.246C127.873 281.246 127.579 276.344 133.973 273.61H246.344C246.344 273.61 252.205 276.582 252.926 281.133L127.873 281.246Z" fill="#2F3646"/>
<path d="M127.873 281.246C127.873 281.246 127.579 276.344 133.973 273.61H246.344C246.344 273.61 252.205 276.582 252.926 281.133L127.873 281.246Z" fill="url(#paint0_linear)"/>
<path d="M243.955 66.1648L243.773 66.2463L138.11 65.5693C138.11 65.5693 137.734 65.3311 137.176 64.886C136.517 64.37 136.037 63.6607 135.802 62.8576C135.567 62.0545 135.589 61.198 135.866 60.4083C136.142 59.6186 136.659 58.9353 137.344 58.4544C138.029 57.9735 138.847 57.7191 139.684 57.7269L242.244 58.5544C246.463 58.592 247.792 64.3594 243.955 66.1648Z" fill="#2F3646"/>
<g opacity="0.24">
<path opacity="0.24" d="M227.027 106.474C227.241 106.882 226.444 107.728 224.934 109.107C223.423 110.486 221.172 112.298 218.376 114.574C215.019 117.347 211.457 119.862 207.719 122.096C205.397 123.441 202.954 124.564 200.422 125.45C199.05 125.925 197.649 126.312 196.228 126.61C194.735 126.927 193.22 127.124 191.696 127.199C188.607 127.367 185.515 126.942 182.587 125.945C179.998 125.004 177.538 123.74 175.265 122.184C173.158 120.792 171.347 119.413 169.623 118.091C167.899 116.768 166.363 115.495 164.971 114.292C159.423 109.483 156.502 105.948 157.066 105.264C157.63 104.581 161.58 106.806 167.723 110.568L172.738 113.64C174.538 114.73 176.462 115.94 178.431 117.056C180.384 118.203 182.454 119.138 184.605 119.846C186.807 120.505 189.106 120.777 191.401 120.648C196.216 120.397 200.886 118.705 204.929 116.749C208.973 114.793 212.634 112.511 215.806 110.731C218.316 109.249 220.941 107.971 223.655 106.907C225.642 106.211 226.846 106.079 227.027 106.474Z" fill="#2F3646"/>
</g>
<path d="M188.697 206.006C189.141 205.83 189.637 205.835 190.077 206.021C190.517 206.207 190.867 206.559 191.049 207.001C191.232 207.443 191.233 207.939 191.052 208.382C190.872 208.824 190.524 209.178 190.085 209.366C189.646 209.555 189.15 209.562 188.705 209.388C188.26 209.213 187.901 208.87 187.707 208.433C187.513 207.997 187.499 207.501 187.668 207.054C187.837 206.606 188.175 206.244 188.609 206.044" fill="#F995A6"/>
<path d="M150.909 123.958C150.772 123.845 150.646 123.719 150.533 123.582L149.511 122.466C149.079 121.971 148.508 121.394 147.925 120.661L145.932 118.153C145.249 117.188 144.478 116.147 143.7 115.019L142.553 113.194C142.359 112.881 142.152 112.567 141.964 112.235L141.412 111.22C139.744 108.263 138.437 105.116 137.519 101.848C136.597 98.5816 136.1 95.2104 136.04 91.8173C136.04 91.0337 136.083 90.2752 136.096 89.5292C136.096 89.1593 136.096 88.7957 136.146 88.4384C136.196 88.081 136.221 87.73 136.259 87.3852C136.34 86.6956 136.391 86.0248 136.485 85.3854C136.579 84.746 136.71 84.1316 136.817 83.5611C136.992 82.3888 137.306 81.367 137.525 80.4267C137.644 79.9753 137.738 79.549 137.858 79.1729L138.202 78.126L138.685 76.6904C138.731 76.5195 138.794 76.3536 138.873 76.1951C138.847 76.37 138.805 76.5421 138.748 76.7092C138.641 77.0728 138.503 77.5555 138.321 78.1636L138.008 79.2105C137.901 79.5929 137.814 80.0192 137.701 80.4643C137.5 81.3733 137.206 82.4014 137.074 83.5987C136.974 84.1755 136.873 84.7836 136.767 85.4167C136.66 86.0499 136.635 86.7144 136.56 87.404C136.56 87.7488 136.491 88.0936 136.453 88.4509C136.416 88.8082 136.453 89.1718 136.416 89.5354C136.416 90.2752 136.366 91.0274 136.372 91.8048C136.433 95.178 136.924 98.5296 137.832 101.779C138.745 105.023 140.035 108.15 141.675 111.094C141.857 111.433 142.039 111.771 142.214 112.11C142.39 112.448 142.609 112.737 142.797 113.063L143.926 114.887C144.691 116.04 145.449 117.081 146.114 118.021L148.07 120.529C148.634 121.275 149.192 121.858 149.606 122.372L150.583 123.532C150.701 123.667 150.81 123.809 150.909 123.958V123.958Z" fill="#2F3646"/>
<path d="M144.961 217.09C144.992 217.017 145.03 216.948 145.074 216.883L145.45 216.293C145.619 216.03 145.826 215.717 146.077 215.34L146.472 214.714C146.628 214.507 146.81 214.3 146.992 214.087L148.246 212.582C148.729 212.062 149.28 211.523 149.863 210.933C151.215 209.632 152.652 208.421 154.164 207.31C157.493 204.802 161.787 202.295 166.438 199.355C168.884 197.847 171.235 196.191 173.478 194.396C175.885 192.479 178.01 190.234 179.791 187.726C183.052 182.716 184.824 176.883 184.9 170.906C184.98 166.035 184.164 161.19 182.493 156.613C181.386 153.524 179.997 150.545 178.343 147.711C177.76 146.702 177.284 145.937 176.958 145.417L176.588 144.827C176.506 144.696 176.469 144.621 176.469 144.621C176.525 144.677 176.573 144.74 176.613 144.809L177.014 145.385C177.359 145.887 177.854 146.639 178.45 147.649C180.155 150.467 181.583 153.444 182.712 156.538C184.428 161.134 185.278 166.007 185.22 170.913C185.194 172.327 185.078 173.738 184.875 175.138C184.672 176.602 184.364 178.05 183.954 179.47C183.097 182.476 181.766 185.327 180.011 187.914C178.211 190.449 176.062 192.718 173.629 194.653C171.372 196.45 169.009 198.108 166.551 199.618C161.881 202.533 157.58 205.016 154.252 207.504C152.74 208.601 151.299 209.792 149.938 211.071C149.355 211.654 148.798 212.181 148.309 212.695L147.055 214.168C146.867 214.394 146.685 214.601 146.528 214.795L146.121 215.391L145.494 216.325L145.093 216.895C145.054 216.963 145.01 217.028 144.961 217.09Z" fill="#2F3646"/>
<path d="M139.131 228.167C139.094 228.269 139.047 228.367 138.994 228.461L138.542 229.258C138.342 229.596 138.103 230.022 137.859 230.511C137.614 231 137.301 231.577 137.038 232.235C136.9 232.561 136.749 232.9 136.599 233.251C136.448 233.602 136.323 233.991 136.172 234.379C135.872 235.157 135.633 236.009 135.358 236.887C134.267 240.817 133.891 244.911 134.248 248.973C134.354 249.901 134.43 250.791 134.593 251.606C134.662 252.014 134.718 252.415 134.8 252.791C134.881 253.167 134.969 253.531 135.05 253.876C135.188 254.572 135.395 255.18 135.546 255.719C135.696 256.258 135.847 256.722 135.984 257.098L136.279 257.963C136.321 258.061 136.349 258.164 136.361 258.27C136.3 258.183 136.252 258.088 136.216 257.988C136.122 257.756 136.009 257.48 135.865 257.142C135.676 256.696 135.511 256.239 135.37 255.775C135.201 255.236 134.981 254.628 134.825 253.932C134.737 253.587 134.649 253.224 134.555 252.848C134.461 252.471 134.405 252.064 134.323 251.657C134.148 250.829 134.06 249.939 133.947 249.005C133.555 244.917 133.933 240.791 135.063 236.843C135.345 235.94 135.596 235.081 135.915 234.304C136.072 233.915 136.198 233.533 136.361 233.176L136.824 232.154C137.1 231.527 137.451 230.944 137.696 230.442C137.917 230.011 138.162 229.593 138.429 229.189L138.931 228.418C139.056 228.248 139.119 228.161 139.131 228.167Z" fill="#2F3646"/>
<path d="M216.635 243.237L216.51 243.325L216.121 243.569L214.597 244.485L213.494 245.112C213.08 245.344 212.623 245.557 212.134 245.801C211.143 246.278 210.052 246.886 208.761 247.375L206.755 248.196C206.059 248.472 205.301 248.691 204.536 248.954C203.012 249.512 201.32 249.914 199.558 250.371C191.824 252.183 183.801 252.396 175.981 250.998C174.188 250.635 172.483 250.321 170.928 249.845C170.151 249.619 169.386 249.443 168.671 249.218L166.628 248.472C165.317 248.052 164.189 247.506 163.18 247.08C162.678 246.861 162.208 246.666 161.788 246.453L160.647 245.858L159.08 245.024L158.679 244.798L158.547 244.717C158.547 244.717 158.603 244.717 158.697 244.773L159.111 244.967L160.703 245.745L161.851 246.309C162.277 246.51 162.753 246.691 163.255 246.905C164.264 247.306 165.393 247.839 166.709 248.24L168.728 248.973C169.442 249.211 170.207 249.381 170.984 249.6C172.533 250.064 174.232 250.359 176 250.716C183.783 252.064 191.757 251.851 199.458 250.089C201.213 249.638 202.9 249.255 204.423 248.71C205.188 248.453 205.94 248.246 206.636 247.97L208.642 247.174C209.933 246.698 211.03 246.108 212.021 245.651C212.51 245.413 212.974 245.206 213.388 245.024L214.503 244.397L216.052 243.532L216.459 243.319C216.585 243.25 216.635 243.231 216.635 243.237Z" fill="#2F3646"/>
<path d="M223.171 110.555C223.132 110.601 223.088 110.641 223.039 110.674L222.625 111.013C222.243 111.32 221.71 111.753 221.027 112.267C219.635 113.37 217.616 114.969 215.065 116.874C212.096 119.147 208.982 121.225 205.743 123.093C203.817 124.171 201.809 125.095 199.737 125.858C197.503 126.671 195.172 127.189 192.804 127.4C188.199 127.658 183.608 126.703 179.489 124.629C177.707 123.724 175.988 122.702 174.342 121.57C172.812 120.491 171.414 119.445 170.179 118.435C167.672 116.442 165.753 114.755 164.399 113.602L162.851 112.26L162.456 111.909L162.324 111.778C162.324 111.778 162.381 111.778 162.475 111.878L162.895 112.21L164.481 113.502C165.86 114.63 167.828 116.285 170.323 118.253C171.577 119.238 172.963 120.272 174.499 121.338C176.139 122.451 177.85 123.456 179.62 124.347C183.698 126.38 188.235 127.315 192.785 127.061C195.125 126.854 197.428 126.344 199.637 125.544C201.694 124.792 203.69 123.88 205.605 122.817C208.839 120.983 211.956 118.95 214.939 116.73C217.497 114.849 219.535 113.282 220.958 112.21L222.594 110.956L223.026 110.643C223.07 110.607 223.118 110.577 223.171 110.555Z" fill="#2F3646"/>
<g opacity="0.24">
<path opacity="0.24" d="M166.633 248.503C169.604 246.209 173.779 246.76 177.453 247.538C181.127 248.315 184.825 249.563 188.543 249.042C191.345 248.647 193.915 247.274 196.692 246.673C199.47 246.071 202.811 246.516 204.347 248.892C192.071 252.847 178.843 252.711 166.652 248.503" fill="#2F3646"/>
</g>
<path d="M270.285 231.489L256.806 216.375L256.668 234.749L260.731 246.535L220.346 253.537L218.635 221.672L215.726 197.223C215.553 195.766 215.868 194.292 216.621 193.032C217.374 191.772 218.523 190.797 219.888 190.258L231.003 185.87L246.676 188.741L252.976 191.136C255.618 192.142 257.972 193.78 259.834 195.907L278.791 217.585" fill="#E3D0D4"/>
<path d="M255.867 212.739C256.628 212.728 257.388 212.674 258.143 212.576C259.961 212.298 261.655 211.484 263.008 210.238C264.36 208.991 265.31 207.369 265.734 205.58C265.891 204.832 266.006 204.077 266.079 203.317C266.13 203.521 266.149 203.733 266.136 203.943C266.14 204.512 266.082 205.08 265.96 205.636C265.581 207.498 264.625 209.192 263.229 210.481C261.833 211.769 260.066 212.585 258.18 212.814C257.617 212.887 257.048 212.899 256.482 212.852C256.272 212.847 256.065 212.809 255.867 212.739Z" fill="#2F3646"/>
<path d="M257.038 233.966C257.132 233.966 257.157 227.596 257.094 219.748C257.031 211.899 256.9 205.536 256.806 205.536C256.712 205.536 256.687 211.899 256.749 219.754C256.812 227.609 256.944 233.966 257.038 233.966Z" fill="#2F3646"/>
<path d="M255.558 238.636L231.16 228.812C230.195 228.424 229.358 227.774 228.744 226.936C228.129 226.097 227.761 225.103 227.68 224.067L225.894 200.671C225.894 200.671 226.107 190.716 219.888 190.233L216.371 191.625C211.801 194.051 210.673 200.709 211.293 205.843C212.177 213.14 212.547 223.471 213.531 229.803C214.346 234.987 217.293 239.545 222.383 240.88L252.437 247.387L255.558 238.636Z" fill="#E3D0D4"/>
<path d="M226.247 204.238C226.287 204.413 226.313 204.592 226.322 204.771C226.359 205.153 226.416 205.667 226.479 206.313C226.604 207.686 226.78 209.617 226.993 211.987C227.206 214.356 227.444 217.246 227.72 220.406C227.783 221.202 227.852 222.011 227.92 222.838C227.969 223.68 228.074 224.518 228.234 225.346C228.404 226.183 228.829 226.947 229.45 227.534C230.119 228.121 230.879 228.596 231.701 228.938C238.427 231.847 244.627 234.254 249.128 235.94L254.476 237.909L255.93 238.441C256.1 238.498 256.266 238.567 256.425 238.648C256.248 238.616 256.074 238.568 255.905 238.504L254.432 238.028C253.178 237.601 251.297 236.968 249.053 236.147C244.521 234.517 238.314 232.147 231.563 229.251C230.709 228.892 229.919 228.397 229.224 227.784C228.558 227.151 228.102 226.328 227.92 225.427C227.759 224.587 227.656 223.737 227.613 222.882C227.544 222.048 227.482 221.24 227.419 220.443C227.174 217.309 226.949 214.425 226.792 212.018C226.635 209.611 226.479 207.711 226.378 206.338C226.334 205.711 226.303 205.172 226.284 204.79C226.256 204.607 226.243 204.423 226.247 204.238V204.238Z" fill="#2F3646"/>
<path d="M212.265 216.958C212.29 217.061 212.305 217.166 212.309 217.271L212.39 218.174C212.466 219.008 212.56 220.13 212.679 221.497C212.798 222.863 212.986 224.562 213.231 226.405C213.47 228.401 213.837 230.38 214.328 232.329C214.558 233.333 214.961 234.29 215.519 235.157C216.063 235.952 216.673 236.701 217.343 237.395C218.484 238.568 219.802 239.556 221.248 240.322C222.597 241.008 224.044 241.481 225.536 241.726C225.43 241.74 225.323 241.74 225.217 241.726C224.914 241.706 224.612 241.666 224.314 241.607C223.211 241.402 222.143 241.041 221.142 240.535C219.654 239.787 218.299 238.8 217.13 237.614C216.437 236.913 215.807 236.151 215.249 235.338C214.664 234.448 214.239 233.461 213.995 232.423C213.498 230.459 213.135 228.463 212.911 226.449C212.685 224.568 212.535 222.926 212.434 221.522C212.334 220.117 212.278 218.976 212.246 218.187C212.246 217.823 212.246 217.522 212.246 217.278C212.236 217.171 212.242 217.063 212.265 216.958Z" fill="#2F3646"/>
<path d="M222.696 233.326C222.76 232.869 222.911 232.429 223.141 232.028C223.644 231.029 224.341 230.14 225.191 229.414C226.042 228.687 227.029 228.138 228.094 227.797C228.526 227.632 228.986 227.553 229.448 227.565C229.038 227.736 228.619 227.887 228.194 228.016C227.186 228.406 226.252 228.964 225.43 229.665C224.609 230.368 223.912 231.203 223.367 232.135C222.928 232.856 222.746 233.345 222.696 233.326Z" fill="#2F3646"/>
<path d="M227.5 215.535C227.553 215.55 227.604 215.574 227.65 215.604L228.089 215.836C228.655 216.115 229.237 216.359 229.832 216.569C232.026 217.339 234.378 217.542 236.671 217.158C240.077 216.551 243.12 214.659 245.172 211.874C246.399 210.265 247.167 208.354 247.398 206.345C247.511 205.288 247.4 204.22 247.072 203.21C246.725 202.179 246.121 201.253 245.316 200.521C244.524 199.779 243.525 199.293 242.451 199.129C241.943 199.038 241.42 199.063 240.923 199.204C240.426 199.344 239.967 199.595 239.58 199.938C239.23 200.28 239.028 200.746 239.016 201.235C239.027 201.722 239.194 202.192 239.492 202.577C239.804 202.948 240.186 203.254 240.616 203.477C241.047 203.7 241.517 203.835 242 203.875C243.698 204.086 245.421 203.868 247.013 203.241C248.604 202.613 250.013 201.596 251.109 200.283C251.94 199.261 252.566 198.088 252.952 196.828C253.24 195.874 253.396 194.885 253.416 193.888C253.423 193.259 253.377 192.629 253.278 192.008C253.24 191.813 253.209 191.65 253.19 191.525C253.185 191.469 253.185 191.412 253.19 191.356C253.449 192.166 253.576 193.013 253.566 193.863C253.573 194.875 253.433 195.882 253.152 196.853C252.454 199.196 250.948 201.214 248.901 202.549C246.854 203.884 244.4 204.449 241.975 204.144C241.457 204.099 240.954 203.951 240.493 203.71C240.033 203.469 239.624 203.139 239.292 202.74C238.951 202.302 238.762 201.765 238.753 201.21C238.753 200.64 238.978 200.093 239.38 199.687C239.801 199.311 240.301 199.034 240.844 198.878C241.387 198.722 241.957 198.69 242.514 198.784C243.654 198.953 244.715 199.467 245.555 200.257C246.403 201.024 247.038 201.999 247.398 203.085C247.739 204.135 247.854 205.246 247.736 206.345C247.491 208.398 246.697 210.348 245.435 211.987C243.695 214.361 241.225 216.101 238.403 216.938C235.58 217.776 232.561 217.666 229.807 216.626C228.993 216.365 228.218 215.998 227.5 215.535Z" fill="#2F3646"/>
<path d="M211.512 209.297C211.618 209.11 211.753 208.94 211.913 208.796C212.314 208.372 212.754 207.987 213.229 207.648C214.83 206.549 216.691 205.889 218.627 205.736C219.689 205.617 220.763 205.661 221.812 205.868C222.664 206.045 223.488 206.336 224.263 206.733C224.783 206.995 225.281 207.297 225.755 207.636C225.938 207.748 226.103 207.888 226.244 208.05C226.206 208.1 225.479 207.548 224.162 206.94C222.446 206.144 220.543 205.84 218.665 206.062C216.778 206.211 214.957 206.82 213.361 207.837C212.151 208.645 211.556 209.341 211.512 209.297Z" fill="#2F3646"/>
<path d="M215.418 192.566C216.013 193.126 216.677 193.608 217.393 194.001C218.175 194.402 219.026 194.653 219.901 194.741C220.966 194.848 222.041 194.697 223.035 194.302C224.01 193.886 224.871 193.241 225.543 192.421C226.098 191.737 226.523 190.958 226.797 190.121C227.022 189.335 227.15 188.524 227.179 187.707C227.24 187.923 227.267 188.147 227.26 188.372C227.271 188.986 227.189 189.599 227.016 190.19C226.76 191.07 226.334 191.893 225.762 192.609C225.075 193.508 224.162 194.209 223.116 194.641C222.07 195.073 220.928 195.22 219.807 195.067C218.898 194.964 218.018 194.683 217.218 194.239C216.679 193.944 216.188 193.567 215.763 193.123C215.615 192.96 215.498 192.771 215.418 192.566Z" fill="#2F3646"/>
<path d="M236.683 231.038C236.684 230.882 236.701 230.727 236.733 230.574C236.82 230.139 236.966 229.717 237.165 229.32C237.962 227.86 239.257 226.735 240.814 226.148C243.105 225.237 245.641 225.146 247.992 225.891C249.283 226.274 250.763 226.75 251.753 228.01C252.002 228.332 252.159 228.715 252.208 229.119C252.257 229.523 252.195 229.933 252.029 230.304C251.651 231.03 251.039 231.606 250.292 231.941C249.572 232.297 248.783 232.494 247.979 232.517C247.181 232.556 246.395 232.312 245.76 231.828C245.467 231.577 245.228 231.27 245.057 230.924C244.887 230.578 244.789 230.201 244.77 229.815C244.728 229.096 244.842 228.375 245.102 227.703C246.047 225.418 247.846 223.591 250.117 222.612C251.624 221.941 253.274 221.657 254.919 221.785C255.518 221.831 256.108 221.955 256.674 222.155C256.674 222.199 256.047 221.992 254.906 221.91C253.544 221.836 252.181 222.041 250.9 222.512C249.62 222.983 248.449 223.711 247.459 224.65C246.54 225.53 245.823 226.6 245.359 227.784C245.116 228.417 245.011 229.095 245.052 229.772C245.07 230.114 245.158 230.45 245.311 230.757C245.464 231.065 245.679 231.337 245.942 231.558C246.515 231.999 247.226 232.221 247.948 232.185C248.702 232.165 249.442 231.981 250.117 231.646C250.798 231.342 251.359 230.819 251.709 230.16C251.85 229.84 251.903 229.488 251.861 229.14C251.819 228.793 251.684 228.463 251.471 228.186C251.034 227.634 250.473 227.191 249.835 226.894C249.216 226.598 248.572 226.357 247.91 226.173C245.622 225.433 243.149 225.497 240.902 226.355C239.379 226.906 238.097 227.973 237.278 229.37C237.007 229.897 236.807 230.458 236.683 231.038V231.038Z" fill="#2F3646"/>
<path d="M220.434 239.846C220.434 239.783 221.361 239.708 222.772 239.219C224.613 238.57 226.263 237.471 227.571 236.021C228.878 234.571 229.802 232.817 230.257 230.919C230.614 229.464 230.602 228.518 230.665 228.524C230.708 228.741 230.719 228.963 230.696 229.182C230.681 229.783 230.61 230.381 230.483 230.969C230.076 232.929 229.155 234.744 227.812 236.229C226.47 237.713 224.756 238.812 222.847 239.413C222.276 239.599 221.688 239.732 221.092 239.808C220.875 239.852 220.654 239.865 220.434 239.846V239.846Z" fill="#2F3646"/>
<path d="M212.522 221.66C212.615 221.608 212.714 221.568 212.817 221.54C213.018 221.478 213.306 221.39 213.688 221.29C214.774 221.004 215.897 220.89 217.017 220.951C217.795 221.01 218.558 221.199 219.274 221.509C220.108 221.869 220.834 222.439 221.38 223.164C221.981 223.987 222.271 224.994 222.202 226.01C222.161 226.551 221.996 227.074 221.719 227.54C221.438 228.031 220.995 228.408 220.465 228.606C220.186 228.701 219.887 228.721 219.597 228.664C219.308 228.606 219.038 228.474 218.816 228.28C218.44 227.865 218.236 227.322 218.246 226.762C218.214 225.764 218.411 224.771 218.823 223.86C219.395 222.562 220.384 221.493 221.634 220.822C222.883 220.15 224.321 219.916 225.719 220.155C226.019 220.202 226.315 220.275 226.603 220.374C226.797 220.45 226.897 220.494 226.891 220.506C226.885 220.519 226.471 220.374 225.7 220.28C224.61 220.149 223.505 220.291 222.484 220.694C220.971 221.301 219.761 222.482 219.117 223.979C218.735 224.849 218.552 225.794 218.585 226.744C218.571 227.223 218.742 227.69 219.061 228.048C219.241 228.201 219.457 228.304 219.689 228.348C219.921 228.392 220.16 228.375 220.384 228.298C220.848 228.127 221.238 227.799 221.487 227.371C221.737 226.948 221.887 226.474 221.926 225.985C221.992 225.043 221.728 224.108 221.18 223.34C220.671 222.65 219.99 222.105 219.205 221.76C218.519 221.448 217.786 221.253 217.036 221.183C215.94 221.101 214.837 221.179 213.764 221.415C212.955 221.572 212.535 221.685 212.522 221.66Z" fill="#2F3646"/>
<g opacity="0.3">
<path opacity="0.3" d="M248.545 235.846C245.938 234.373 243.386 233.238 240.659 232.003C237.932 230.768 235.255 229.17 233.469 226.762C230.102 222.224 230.485 215.673 227.043 211.197C227.269 214.206 227.492 217.217 227.714 220.23C227.921 222.989 227.501 225.722 229.275 227.596C230.773 229.176 233.694 230.386 235.763 231.069C239.919 232.442 244.395 234.479 248.545 235.846" fill="#2F3646"/>
</g>
<path d="M290.973 270.231C290.973 270.231 311.391 275.873 312.212 276.174C313.466 276.607 313.234 281.114 311.322 281.039C310.413 281.008 295.649 281.591 293.769 281.478C291.888 281.365 286.246 279.139 286.246 279.139L290.973 270.231Z" fill="#F995A6"/>
<path d="M299.453 278.024C299.706 277.273 300.007 276.54 300.356 275.829C300.796 275.172 301.277 274.544 301.798 273.949C301.072 274.347 300.469 274.937 300.055 275.654C299.642 276.372 299.433 277.189 299.453 278.017V278.024Z" fill="#2F3646"/>
<path d="M297.324 277.058C297.425 277.058 297.631 276.112 298.177 275.046C298.722 273.98 299.362 273.234 299.293 273.165C298.697 273.629 298.211 274.22 297.871 274.894C297.53 275.568 297.344 276.309 297.324 277.064V277.058Z" fill="#2F3646"/>
<path d="M295.359 276.525C295.459 275.795 295.619 275.073 295.835 274.369C296.156 273.704 296.527 273.064 296.945 272.457C296.298 272.893 295.799 273.516 295.515 274.243C295.232 274.97 295.177 275.766 295.359 276.525Z" fill="#2F3646"/>
<path d="M295.694 273.886C295.874 273.402 295.948 272.884 295.913 272.369C295.907 271.807 295.837 271.248 295.706 270.701C295.628 270.379 295.525 270.062 295.399 269.755C295.34 269.56 295.227 269.386 295.073 269.253C294.97 269.177 294.843 269.139 294.715 269.146C294.587 269.153 294.465 269.204 294.371 269.291C294.213 269.443 294.117 269.649 294.101 269.868C294.086 270.047 294.086 270.227 294.101 270.407C294.103 270.743 294.145 271.077 294.227 271.403C294.362 271.95 294.573 272.476 294.854 272.964C295.078 273.436 295.389 273.861 295.769 274.218C295.819 274.218 295.474 273.71 295.067 272.877C294.829 272.394 294.65 271.885 294.534 271.36C294.468 271.053 294.434 270.74 294.434 270.426C294.434 270.112 294.434 269.723 294.622 269.573C294.659 269.539 294.707 269.521 294.757 269.521C294.806 269.521 294.854 269.539 294.891 269.573C294.993 269.673 295.07 269.795 295.117 269.93C295.237 270.225 295.34 270.526 295.424 270.833C295.568 271.353 295.658 271.887 295.694 272.425C295.731 273.303 295.637 273.88 295.694 273.886Z" fill="#2F3646"/>
<path d="M295.668 273.679C295.252 273.506 294.801 273.433 294.351 273.466C293.863 273.466 293.377 273.525 292.903 273.642C292.611 273.708 292.329 273.811 292.063 273.949C291.896 274.034 291.761 274.171 291.678 274.339C291.596 274.508 291.57 274.699 291.605 274.883C291.652 275.059 291.745 275.219 291.873 275.348C292.002 275.477 292.163 275.569 292.339 275.616C292.639 275.692 292.954 275.692 293.254 275.616C293.737 275.506 294.191 275.292 294.583 274.989C294.955 274.741 295.276 274.424 295.53 274.055C295.153 274.276 294.79 274.521 294.445 274.789C294.066 275.049 293.64 275.234 293.191 275.334C292.942 275.397 292.682 275.397 292.433 275.334C292.315 275.304 292.207 275.244 292.12 275.159C292.033 275.075 291.97 274.968 291.938 274.852C291.918 274.737 291.938 274.619 291.992 274.516C292.046 274.413 292.133 274.33 292.238 274.281C292.471 274.153 292.72 274.056 292.978 273.993C293.428 273.864 293.89 273.785 294.357 273.754C295.154 273.654 295.655 273.736 295.668 273.679Z" fill="#2F3646"/>
<path d="M302.59 278.243C302.677 277.619 302.813 277.003 302.997 276.4C303.284 275.84 303.617 275.305 303.994 274.801C303.399 275.126 302.935 275.645 302.679 276.272C302.423 276.899 302.391 277.595 302.59 278.243V278.243Z" fill="#2F3646"/>
<path d="M288.344 279.189C288.591 279.346 288.856 279.472 289.134 279.566C289.875 279.847 290.633 280.081 291.403 280.268C293.963 280.826 296.582 281.075 299.202 281.007C302.261 280.97 305.019 280.832 307.019 280.75L309.382 280.625C309.673 280.62 309.962 280.591 310.247 280.537C309.959 280.492 309.667 280.477 309.376 280.493H307.013L299.202 280.644C296.606 280.71 294.011 280.5 291.459 280.017C289.504 279.622 288.369 279.12 288.344 279.189Z" fill="#2F3646"/>
<path d="M287.743 279.653C287.743 279.697 288.326 279.371 289.273 278.958C290.475 278.39 291.814 278.172 293.134 278.331C294.433 278.612 295.606 279.307 296.476 280.312C296.838 280.74 297.23 281.142 297.648 281.515C297.379 281.017 297.044 280.557 296.651 280.149C296.249 279.681 295.795 279.26 295.297 278.895C294.674 278.434 293.95 278.128 293.185 278.005C291.799 277.837 290.395 278.102 289.166 278.763C288.647 278.981 288.166 279.282 287.743 279.653V279.653Z" fill="#2F3646"/>
<path d="M269.277 264.596C269.277 264.596 249.956 277.246 249.266 277.76C248.226 278.544 249.417 282.286 251.222 281.641C252.075 281.334 268.286 276.82 270.029 276.143C271.772 275.466 276.467 271.667 276.467 271.667L269.277 264.596Z" fill="#F995A6"/>
<path d="M263.539 274.601C263.306 273.805 262.859 273.089 262.247 272.531C261.634 271.973 260.88 271.594 260.066 271.435C260.746 271.842 261.397 272.295 262.016 272.789C262.561 273.361 263.07 273.966 263.539 274.601V274.601Z" fill="#2F3646"/>
<path d="M265.269 273.033C265.023 272.318 264.622 271.666 264.094 271.124C263.566 270.582 262.925 270.164 262.216 269.899C262.166 269.987 263.012 270.526 263.846 271.353C264.68 272.181 265.181 273.084 265.269 273.033Z" fill="#2F3646"/>
<path d="M267.014 271.918C267.011 271.129 266.711 270.37 266.174 269.792C265.724 269.155 265.054 268.708 264.293 268.539C264.874 268.993 265.421 269.489 265.929 270.024C266.34 270.626 266.703 271.259 267.014 271.918V271.918Z" fill="#2F3646"/>
<path d="M265.897 269.517C265.947 269.517 265.683 268.971 265.464 268.069C265.332 267.545 265.254 267.009 265.232 266.47C265.211 266.153 265.211 265.834 265.232 265.517C265.23 265.374 265.267 265.233 265.339 265.11C265.366 265.067 265.408 265.037 265.458 265.025C265.507 265.013 265.559 265.021 265.602 265.047C265.821 265.135 265.934 265.511 266.041 265.812C266.133 266.11 266.196 266.417 266.229 266.727C266.277 267.264 266.26 267.805 266.179 268.338C266.047 269.253 265.865 269.811 265.915 269.83C266.174 269.382 266.344 268.888 266.417 268.376C266.537 267.826 266.579 267.263 266.542 266.702C266.517 266.366 266.456 266.034 266.361 265.711C266.309 265.538 266.246 265.369 266.172 265.204C266.089 264.998 265.933 264.831 265.734 264.734C265.617 264.679 265.486 264.668 265.362 264.701C265.238 264.734 265.13 264.81 265.057 264.915C264.953 265.09 264.899 265.289 264.9 265.492C264.831 266.385 264.933 267.283 265.201 268.138C265.333 268.641 265.57 269.111 265.897 269.517V269.517Z" fill="#2F3646"/>
<path d="M265.828 269.31C265.828 269.36 266.305 269.134 267.082 268.94C267.536 268.831 268 268.768 268.467 268.752C268.734 268.734 269.001 268.75 269.263 268.802C269.379 268.818 269.486 268.87 269.57 268.951C269.653 269.033 269.708 269.138 269.727 269.253C269.733 269.378 269.705 269.502 269.646 269.612C269.588 269.722 269.501 269.815 269.395 269.88C269.179 270.016 268.934 270.098 268.68 270.118C268.222 270.163 267.76 270.116 267.32 269.98C266.912 269.827 266.493 269.704 266.066 269.611C266.42 269.893 266.824 270.106 267.257 270.237C267.723 270.416 268.221 270.491 268.718 270.457C269.027 270.441 269.327 270.346 269.589 270.181C269.745 270.086 269.871 269.951 269.956 269.79C270.041 269.629 270.081 269.448 270.072 269.266C270.05 269.079 269.968 268.905 269.838 268.769C269.708 268.633 269.537 268.544 269.351 268.514C269.058 268.461 268.758 268.449 268.461 268.476C267.974 268.509 267.492 268.599 267.025 268.745C266.588 268.839 266.178 269.032 265.828 269.31V269.31Z" fill="#2F3646"/>
<path d="M253.676 280.945C253.676 280.976 254.002 280.75 254.153 280.199C254.303 279.478 254.173 278.727 253.789 278.099C253.604 277.762 253.394 277.44 253.162 277.133C252.974 276.872 252.753 276.636 252.504 276.431C252.326 276.284 252.107 276.194 251.877 276.174C251.714 276.174 251.633 276.206 251.633 276.224C251.633 276.243 251.978 276.256 252.335 276.619C252.546 276.832 252.733 277.068 252.893 277.321C253.118 277.624 253.327 277.938 253.52 278.262C253.866 278.824 254.016 279.486 253.946 280.142C253.872 280.415 253.782 280.683 253.676 280.945V280.945Z" fill="#2F3646"/>
<path d="M260.617 275.761C260.643 275.421 260.595 275.08 260.477 274.761C260.359 274.442 260.174 274.152 259.933 273.911C259.74 273.631 259.488 273.396 259.195 273.224C258.901 273.052 258.573 272.946 258.234 272.914C258.747 273.278 259.227 273.685 259.67 274.131C260.031 274.646 260.347 275.192 260.617 275.761V275.761Z" fill="#2F3646"/>
<path d="M274.479 272.338C274.179 272.505 273.894 272.698 273.627 272.914C272.861 273.446 272.066 273.934 271.244 274.375C270.029 275.019 268.773 275.583 267.483 276.061C266.016 276.607 264.349 277.121 262.643 277.622C259.164 278.625 256.017 279.541 253.748 280.224L251.046 281.07C250.712 281.159 250.387 281.276 250.074 281.421C250.416 281.375 250.753 281.301 251.084 281.202L253.798 280.443C256.086 279.816 259.239 278.939 262.719 277.936C264.455 277.428 266.104 276.901 267.571 276.337C268.876 275.841 270.144 275.25 271.364 274.569C272.183 274.105 272.966 273.581 273.708 273.002C273.983 272.802 274.241 272.58 274.479 272.338V272.338Z" fill="#2F3646"/>
<path d="M275.194 272.595C274.674 272.366 274.122 272.218 273.558 272.156C272.184 271.901 270.766 272.077 269.495 272.657C268.809 273.017 268.219 273.537 267.778 274.174C267.414 274.677 267.109 275.22 266.869 275.792C266.617 276.299 266.438 276.839 266.336 277.396C266.62 276.912 266.871 276.41 267.088 275.892C267.611 274.668 268.517 273.647 269.671 272.983C270.884 272.437 272.227 272.244 273.545 272.425C274.548 272.507 275.181 272.645 275.194 272.595Z" fill="#2F3646"/>
<path d="M309.429 233.746C309.429 233.746 315.228 235.815 315.247 242.316C315.297 254.759 290.096 268.482 290.096 268.482L256.557 246.265L254.457 245.413C254.457 245.413 299.75 228.411 309.429 233.746Z" fill="#2F3646"/>
<path d="M309.429 233.746C309.429 233.746 315.228 235.815 315.247 242.316C315.297 254.759 290.096 268.482 290.096 268.482L256.557 246.265L254.457 245.413C254.457 245.413 299.75 228.411 309.429 233.746Z" fill="url(#paint1_linear)"/>
<path d="M273.543 257.486C273.852 257.315 274.145 257.118 274.421 256.897C274.966 256.496 275.75 255.907 276.709 255.161C278.633 253.681 281.241 251.575 284.056 249.161C286.871 246.748 289.341 244.485 291.096 242.811C291.974 241.977 292.676 241.287 293.158 240.805C293.419 240.569 293.658 240.311 293.873 240.034C293.585 240.236 293.314 240.462 293.064 240.711L290.933 242.635C289.134 244.259 286.639 246.497 283.83 248.904C281.022 251.311 278.439 253.443 276.565 254.972L274.339 256.79C274.056 257.001 273.789 257.234 273.543 257.486V257.486Z" fill="#455A64"/>
<path d="M299.961 238.398C297.768 238.166 295.572 238.813 293.855 240.197C293.912 240.291 295.109 239.507 296.827 239.018C298.545 238.529 299.961 238.504 299.961 238.398Z" fill="#455A64"/>
<path d="M297.073 236.435C296.297 236.765 295.614 237.28 295.085 237.936C294.556 238.592 294.197 239.369 294.039 240.197C294.139 240.197 294.503 239.188 295.349 238.153C296.196 237.119 297.13 236.523 297.073 236.435Z" fill="#455A64"/>
<path d="M311.271 275.855C311.271 275.817 310.87 275.736 310.406 276.118C309.859 276.627 309.516 277.318 309.44 278.061C309.331 278.792 309.435 279.539 309.741 280.212C309.98 280.719 310.243 280.957 310.274 280.932C310.192 280.654 310.089 280.381 309.967 280.117C309.748 279.473 309.683 278.786 309.779 278.111C309.853 277.44 310.129 276.806 310.569 276.293C310.926 275.924 311.277 275.911 311.271 275.855Z" fill="#2F3646"/>
<path d="M301.71 213.403L289.768 243.682L238.344 244.522L237.391 241.739L255.414 241.087L264.078 214.225L301.71 213.403Z" fill="#455A64"/>
<path d="M277.694 226.531C278.089 226.332 278.532 226.252 278.972 226.3C279.411 226.348 279.827 226.522 280.17 226.8C280.461 227.074 280.663 227.429 280.749 227.82C280.835 228.21 280.801 228.617 280.653 228.988C280.492 229.358 280.23 229.676 279.898 229.905C279.565 230.135 279.175 230.267 278.772 230.286C278.347 230.313 277.925 230.201 277.57 229.967C277.215 229.733 276.946 229.389 276.803 228.988C276.669 228.54 276.681 228.06 276.836 227.619C276.991 227.177 277.283 226.796 277.669 226.531" fill="#EBEBEB"/>
<path d="M293.265 269.999C293.265 269.999 245.884 238.918 243.953 238.272C242.023 237.626 237.321 234.555 232.638 235.846C227.955 237.137 223.742 241.344 221.642 247.487C220.439 250.998 219.874 256.985 219.605 261.48C219.246 266.855 220.988 272.159 224.463 276.274C226.003 278.195 228.048 279.647 230.369 280.468C230.864 280.625 231.378 280.757 231.905 280.87C240.863 282.813 250.084 278.788 255.1 271.128L256.203 269.448C256.203 269.448 287.203 280.832 287.686 280.675L293.265 269.999Z" fill="#2F3646"/>
<path d="M293.265 269.999C293.265 269.999 245.884 238.918 243.953 238.272C242.023 237.626 237.321 234.555 232.638 235.846C227.955 237.137 223.742 241.344 221.642 247.487C220.439 250.998 219.874 256.985 219.605 261.48C219.246 266.855 220.988 272.159 224.463 276.274C226.003 278.195 228.048 279.647 230.369 280.468C230.864 280.625 231.378 280.757 231.905 280.87C240.863 282.813 250.084 278.788 255.1 271.128L256.203 269.448C256.203 269.448 287.203 280.832 287.686 280.675L293.265 269.999Z" fill="url(#paint2_linear)"/>
<path d="M234.652 261.442C234.735 261.484 234.821 261.522 234.909 261.555L235.686 261.862L238.689 263.022L249.854 267.229C254.593 268.996 260.273 271.103 266.649 273.422C273.024 275.742 280.083 278.281 287.631 280.832L287.762 280.882L287.831 280.751L291.536 273.679L293.417 270.075L293.486 269.937L293.354 269.855L257.214 246.911L246.356 240.065L243.41 238.222L242.638 237.752C242.463 237.645 242.369 237.602 242.369 237.602L242.62 237.783L243.372 238.279L246.287 240.159L257.12 247.112L293.204 270.144L293.141 269.918C292.545 271.065 291.887 272.288 291.26 273.523L287.562 280.594L287.769 280.512C280.246 277.967 273.162 275.435 266.78 273.134L249.961 267.015L238.733 262.89L235.711 261.787L234.921 261.511L234.652 261.442Z" fill="#455A64"/>
<path d="M239.566 151.078C240.375 148.89 242.161 147.943 244.425 147.398C245.563 147.133 246.748 147.147 247.88 147.438C249.012 147.729 250.057 148.29 250.925 149.072C252.073 150.118 252.913 151.579 254.329 152.206C256.668 153.265 259.658 151.717 261.852 153.015C262.511 153.403 263.016 154.008 263.279 154.726C263.543 155.444 263.55 156.231 263.299 156.954C263.047 157.676 262.554 158.289 261.901 158.689C261.249 159.089 260.479 159.25 259.721 159.146C261.244 159.86 261.526 162.155 260.479 163.471C259.432 164.788 257.495 165.145 255.872 164.687C254.271 164.136 252.851 163.159 251.765 161.86C250.624 160.606 249.621 159.259 248.38 158.099C247.189 156.888 245.608 156.138 243.917 155.98C241.641 155.892 239.528 157.428 238.344 159.365C237.159 161.302 236.701 163.603 236.369 165.86C236.037 168.117 235.786 170.411 234.915 172.517C234.814 172.768 234.664 173.038 234.407 173.094C234.024 173.176 233.749 172.756 233.598 172.398C231.883 168.372 230.975 164.048 230.927 159.672C230.896 157.165 231.185 154.764 232.758 152.776C234.332 150.789 237.961 149.554 239.547 151.046" fill="#2F3646"/>
<path d="M234.471 161.223L234.471 161.223L230.986 186.537L234.471 161.223ZM234.471 161.223L234.472 161.217M234.471 161.223L234.472 161.217M234.472 161.217C234.84 157.921 236.135 155.023 238.142 153.07C240.142 151.123 242.861 150.102 246.119 150.566L246.738 150.683C246.738 150.683 246.738 150.683 246.739 150.683C249.636 151.262 252.209 152.909 253.949 155.296C255.689 157.684 256.467 160.639 256.13 163.574C255.446 169.368 254.601 175.751 253.977 178.791C253.327 181.848 251.431 183.298 249.692 183.993C248.818 184.342 247.983 184.5 247.366 184.57C247.058 184.606 246.805 184.619 246.631 184.623C246.543 184.625 246.476 184.625 246.43 184.625C246.427 184.625 246.423 184.625 246.42 184.625C246.403 184.625 246.389 184.624 246.38 184.624L246.368 184.624L246.365 184.624L246.365 184.624L234.472 161.217ZM237.634 195.111L237.656 194.861C239.538 195.025 241.411 194.459 242.888 193.279C244.364 192.1 245.33 190.398 245.586 188.526L245.618 188.292C245.734 187.442 245.841 186.657 245.926 186.049C246.017 185.396 246.085 184.929 246.11 184.818L246.156 184.615L237.634 195.111ZM237.634 195.111L237.655 194.861C236.661 194.778 235.694 194.492 234.813 194.023C233.933 193.554 233.157 192.91 232.533 192.131C231.909 191.353 231.45 190.455 231.184 189.493C230.918 188.532 230.851 187.526 230.986 186.537L237.634 195.111Z" fill="white" stroke="#2F3646" stroke-width="0.5"/>
<path d="M246.08 184.018C243.145 183.48 240.437 182.081 238.3 180C238.3 180 239.34 184.94 245.766 185.642L246.08 184.018Z" fill="#D4BFC4"/>
<path d="M253.652 167.477C253.608 167.713 253.473 167.922 253.276 168.059C253.079 168.196 252.836 168.251 252.599 168.21C252.482 168.197 252.37 168.161 252.267 168.103C252.165 168.046 252.076 167.968 252.004 167.875C251.933 167.782 251.881 167.675 251.852 167.562C251.822 167.448 251.816 167.33 251.834 167.214C251.877 166.977 252.012 166.766 252.209 166.627C252.406 166.489 252.65 166.434 252.887 166.474C253.004 166.488 253.117 166.525 253.219 166.583C253.321 166.642 253.411 166.72 253.482 166.813C253.554 166.907 253.605 167.014 253.635 167.128C253.664 167.242 253.67 167.361 253.652 167.477Z" fill="#2F3646"/>
<path d="M254.369 166.436C254.231 166.537 253.648 165.891 252.676 165.697C251.705 165.502 250.89 165.853 250.796 165.697C250.702 165.54 250.915 165.446 251.272 165.283C251.748 165.071 252.28 165.016 252.789 165.126C253.295 165.223 253.757 165.48 254.106 165.86C254.375 166.161 254.432 166.399 254.369 166.436Z" fill="#2F3646"/>
<path d="M244.047 165.897C244.004 166.134 243.87 166.345 243.673 166.483C243.475 166.622 243.232 166.677 242.994 166.637C242.877 166.622 242.765 166.585 242.663 166.526C242.56 166.468 242.471 166.39 242.399 166.296C242.328 166.203 242.275 166.096 242.245 165.983C242.215 165.869 242.207 165.75 242.223 165.634C242.27 165.399 242.406 165.191 242.602 165.054C242.798 164.916 243.039 164.859 243.276 164.894C243.393 164.908 243.506 164.945 243.609 165.003C243.711 165.062 243.801 165.14 243.873 165.233C243.945 165.327 243.997 165.434 244.027 165.548C244.057 165.662 244.064 165.781 244.047 165.897V165.897Z" fill="#2F3646"/>
<path d="M244.771 164.712C244.633 164.806 244.05 164.161 243.079 163.966C242.107 163.772 241.292 164.123 241.198 163.966C241.104 163.81 241.317 163.716 241.674 163.553C242.152 163.344 242.682 163.289 243.192 163.396C243.697 163.498 244.159 163.755 244.514 164.129C244.778 164.468 244.834 164.669 244.771 164.712Z" fill="#2F3646"/>
<path d="M246.859 172.618C247.404 172.557 247.954 172.567 248.496 172.649C248.753 172.649 248.997 172.649 249.072 172.505C249.152 172.256 249.152 171.989 249.072 171.74C248.959 171.113 248.84 170.411 248.715 169.696C248.232 166.8 247.938 164.443 248.05 164.424C248.163 164.405 248.677 166.737 249.135 169.634C249.248 170.348 249.361 171.025 249.461 171.677C249.559 172.009 249.535 172.365 249.392 172.68C249.339 172.759 249.268 172.825 249.186 172.873C249.103 172.921 249.011 172.949 248.916 172.956C248.772 172.976 248.626 172.976 248.483 172.956C247.93 172.911 247.384 172.798 246.859 172.618V172.618Z" fill="#2F3646"/>
<path d="M243.862 172.73C244.025 172.73 243.812 173.809 244.565 174.737C245.317 175.664 246.445 175.777 246.445 175.928C246.445 176.078 246.157 176.078 245.68 175.997C245.06 175.882 244.498 175.554 244.094 175.069C243.712 174.599 243.525 173.999 243.574 173.395C243.624 172.944 243.793 172.705 243.862 172.73Z" fill="#2F3646"/>
<path d="M245.779 160.945C245.635 161.196 244.688 160.876 243.516 160.782C242.344 160.688 241.366 160.819 241.259 160.55C241.215 160.425 241.428 160.211 241.848 160.03C242.406 159.81 243.007 159.724 243.604 159.779C244.204 159.825 244.784 160.014 245.296 160.331C245.679 160.581 245.835 160.832 245.779 160.945Z" fill="#2F3646"/>
<path d="M254.568 163.553C254.355 163.741 253.734 163.377 252.926 163.202C252.117 163.026 251.408 163.057 251.302 162.794C251.252 162.669 251.402 162.468 251.747 162.318C252.196 162.141 252.689 162.108 253.157 162.224C253.63 162.323 254.058 162.572 254.38 162.932C254.612 163.214 254.668 163.459 254.568 163.553Z" fill="#2F3646"/>
<path d="M233.805 165.979C233.705 165.91 229.712 163.822 228.984 168.179C228.257 172.536 232.783 172.367 232.808 172.241C232.833 172.116 233.805 165.979 233.805 165.979Z" fill="#D4BFC4"/>
<path d="M231.757 170.367C231.757 170.367 231.675 170.411 231.537 170.448C231.344 170.495 231.14 170.466 230.967 170.367C230.713 170.143 230.524 169.855 230.421 169.533C230.317 169.211 230.302 168.866 230.378 168.536C230.428 168.16 230.563 167.8 230.773 167.483C230.832 167.353 230.921 167.239 231.034 167.151C231.146 167.063 231.278 167.003 231.418 166.975C231.51 166.968 231.602 166.992 231.677 167.045C231.753 167.098 231.807 167.175 231.832 167.264C231.87 167.389 231.832 167.477 231.832 167.483C231.832 167.49 231.939 167.427 231.932 167.245C231.926 167.133 231.881 167.027 231.807 166.944C231.756 166.888 231.694 166.843 231.625 166.811C231.556 166.78 231.481 166.763 231.406 166.762C231.222 166.768 231.042 166.82 230.884 166.914C230.726 167.009 230.595 167.142 230.503 167.301C230.254 167.649 230.093 168.051 230.033 168.474C229.914 169.358 230.227 170.254 230.829 170.536C230.94 170.59 231.063 170.618 231.186 170.618C231.31 170.618 231.432 170.59 231.544 170.536C231.732 170.474 231.769 170.379 231.757 170.367Z" fill="#2F3646"/>
<path d="M257.948 162.587C256.475 162.667 255.004 162.396 253.656 161.796C252.308 161.197 251.121 160.286 250.193 159.139C248.94 157.522 248.106 155.409 246.294 154.431C245.67 154.124 244.992 153.944 244.298 153.901C243.603 153.858 242.908 153.953 242.251 154.181C240.943 154.648 239.744 155.378 238.728 156.325C239.304 159.785 237.768 163.22 236.27 166.355C236.141 166.725 235.892 167.04 235.562 167.251C234.972 167.546 234.27 167.082 233.913 166.524C233.412 165.589 233.194 164.528 233.286 163.471C233.299 161.063 233.79 158.681 234.728 156.463C235.681 154.238 237.265 152.341 239.285 151.009C241.876 149.427 244.98 148.912 247.943 149.573C250.889 150.258 253.545 151.853 255.535 154.13C256.504 155.14 257.209 156.374 257.584 157.723" fill="#2F3646"/>
<path d="M82.5055 264.677C82.5329 264.585 82.5708 264.497 82.6183 264.414L82.9694 263.655C83.4017 262.674 83.7519 261.66 84.0163 260.621C84.7059 257.925 84.9441 253.807 83.9223 248.917C83.3725 246.25 82.648 243.622 81.7532 241.049C80.8317 238.26 79.766 235.301 78.8946 232.097C77.9108 228.756 77.4353 225.286 77.4841 221.804C77.6157 218.162 78.694 214.526 79.8788 210.908C81.0636 207.291 82.2861 203.743 82.6497 200.182C83.0606 196.756 82.3735 193.288 80.6875 190.277C79.114 187.381 77.1456 184.911 75.6724 182.347C74.2915 179.973 73.2731 177.406 72.6507 174.73C71.7627 170.852 71.6987 166.831 72.4627 162.926C72.7437 161.499 73.1636 160.103 73.7165 158.757C73.7017 158.853 73.6787 158.947 73.6475 159.039L73.3967 159.835C71.9217 164.65 71.7637 169.771 72.9391 174.668C73.5673 177.312 74.5879 179.848 75.967 182.19C77.4402 184.698 79.4212 187.206 81.0198 190.108C82.732 193.178 83.4318 196.71 83.0196 200.201C82.6497 203.824 81.4147 207.391 80.2361 211.009C79.0576 214.626 77.9856 218.218 77.854 221.798C77.7994 225.245 78.2622 228.681 79.2268 231.991C80.0857 235.175 81.1451 238.134 82.0479 240.937C82.9351 243.523 83.6492 246.166 84.1856 248.848C85.1823 253.775 84.894 257.938 84.1856 260.64C83.9093 261.682 83.5357 262.696 83.0697 263.668C82.9067 263.981 82.7751 264.226 82.681 264.414C82.6311 264.507 82.5724 264.595 82.5055 264.677V264.677Z" fill="#2F3646"/>
<path d="M77.6702 184.873C77.6702 184.873 74.6674 175.282 80.0524 169.665C80.0941 169.62 80.1476 169.587 80.2068 169.571C80.266 169.554 80.3287 169.554 80.3878 169.571C80.4469 169.588 80.5002 169.621 80.5417 169.666C80.5832 169.712 80.6113 169.768 80.6229 169.828C80.9112 171.414 81.2686 176.241 77.6702 184.873Z" fill="#F995A6"/>
<path d="M79.4699 172.862C79.4598 173.457 79.3905 174.049 79.263 174.63C79.0687 175.884 78.8367 177.282 78.5797 178.862C78.3227 180.441 78.1033 181.877 77.9089 183.093C77.8582 183.687 77.7512 184.275 77.5892 184.848C77.5385 184.253 77.5575 183.653 77.6456 183.062C77.7459 181.965 77.9403 180.46 78.2098 178.805C78.4794 177.15 78.7678 175.671 79.006 174.586C79.0939 173.996 79.2496 173.417 79.4699 172.862V172.862Z" fill="#2F3646"/>
<path d="M81.1953 207.504C81.1953 207.504 83.0321 197.618 90.4169 195.186C90.4751 195.165 90.5378 195.162 90.598 195.175C90.6582 195.188 90.7135 195.218 90.7578 195.261C90.802 195.304 90.8334 195.358 90.8485 195.418C90.8636 195.478 90.8618 195.541 90.8432 195.6C90.3668 197.117 88.4171 201.555 81.1953 207.504Z" fill="#F995A6"/>
<path d="M88.4041 197.725C88.1173 198.246 87.7792 198.737 87.3948 199.192C86.655 200.182 85.7774 201.336 84.812 202.614L82.2166 206.044C81.8926 206.542 81.5233 207.01 81.1133 207.441C81.3464 206.891 81.643 206.369 81.9972 205.887C82.6241 204.965 83.4704 203.724 84.5048 202.389C85.5392 201.053 86.4732 199.881 87.1816 199.029C87.5374 198.548 87.9476 198.111 88.4041 197.725V197.725Z" fill="#2F3646"/>
<path d="M79.2003 232.298C79.2003 232.298 78.0845 222.305 84.4412 217.817C84.4912 217.781 84.5504 217.759 84.6119 217.755C84.6735 217.75 84.7351 217.763 84.7897 217.792C84.8444 217.821 84.89 217.864 84.9215 217.917C84.9529 217.97 84.969 218.031 84.9678 218.093C84.949 219.697 84.3785 224.506 79.2003 232.298Z" fill="#F995A6"/>
<path d="M83.2546 220.844C83.1354 221.428 82.9546 221.998 82.7155 222.543C82.2892 223.703 81.7939 225.051 81.236 226.568L79.7753 230.593C79.62 231.165 79.41 231.722 79.1484 232.254C79.2148 231.66 79.3473 231.076 79.5434 230.511C79.8506 229.452 80.327 228.004 80.91 226.436C81.493 224.869 82.0635 223.459 82.496 222.449C82.6873 221.887 82.9418 221.349 83.2546 220.844V220.844Z" fill="#2F3646"/>
<path d="M84.7605 257.248C84.7605 257.248 84.0019 247.218 90.5154 242.968C90.5663 242.933 90.6259 242.912 90.6877 242.909C90.7494 242.906 90.8107 242.921 90.8648 242.951C90.9189 242.981 90.9635 243.025 90.9937 243.079C91.0239 243.133 91.0384 243.194 91.0357 243.256C90.9542 244.855 90.2144 249.638 84.7605 257.248Z" fill="#F995A6"/>
<path d="M89.2238 245.964C89.0733 246.544 88.8633 247.107 88.5969 247.644C88.1267 248.785 87.5813 250.152 86.9732 251.606L85.3621 255.581C85.1978 256.134 84.9838 256.671 84.7227 257.186C84.8069 256.595 84.9605 256.016 85.1803 255.462C85.5188 254.415 86.0517 252.992 86.6911 251.443C87.3305 249.895 87.9449 248.503 88.4151 247.513C88.6269 246.968 88.8981 246.449 89.2238 245.964V245.964Z" fill="#2F3646"/>
<path d="M73.3575 176.448C73.3575 176.448 64.4493 171.796 64.2738 164.017C64.271 163.955 64.2856 163.894 64.3158 163.84C64.3459 163.786 64.3906 163.741 64.4446 163.711C64.4987 163.681 64.56 163.667 64.6218 163.67C64.6835 163.673 64.7432 163.693 64.7941 163.728C66.1168 164.644 69.7842 167.797 73.3575 176.448Z" fill="#F995A6"/>
<path d="M66.1211 166.687C66.5375 167.112 66.9093 167.579 67.2307 168.079L69.7383 171.552L72.2458 175.019C72.6278 175.474 72.9678 175.963 73.2614 176.479C72.79 176.102 72.3687 175.666 72.0076 175.182C71.2992 174.342 70.3652 173.138 69.3872 171.778C68.4093 170.417 67.5567 169.157 66.9611 168.23C66.6232 167.749 66.3414 167.232 66.1211 166.687V166.687Z" fill="#2F3646"/>
<path d="M82.9262 197.067C82.9262 197.067 73.7547 192.967 73.1028 185.212C73.0976 185.151 73.1093 185.09 73.1366 185.035C73.164 184.981 73.2059 184.934 73.2577 184.902C73.3096 184.87 73.3694 184.852 73.4305 184.852C73.4917 184.851 73.5518 184.867 73.6043 184.899C74.9834 185.707 78.8388 188.635 82.9262 197.067Z" fill="#F995A6"/>
<path d="M75.1128 187.751C75.553 188.151 75.952 188.594 76.3039 189.074L79.0246 192.39L81.7516 195.694C82.1586 196.115 82.5239 196.575 82.8424 197.067C82.3643 196.698 81.9291 196.278 81.5447 195.813C80.7862 195.01 79.7831 193.869 78.7237 192.572C77.6642 191.274 76.7364 190.064 76.0907 189.18C75.7118 188.742 75.3837 188.263 75.1128 187.751Z" fill="#2F3646"/>
<path d="M77.6475 220.036C77.6475 220.036 71.3472 212.2 74.3062 204.99C74.3287 204.934 74.3665 204.884 74.4154 204.847C74.4644 204.81 74.5226 204.788 74.5835 204.782C74.6445 204.776 74.7059 204.787 74.761 204.814C74.816 204.841 74.8625 204.882 74.8954 204.934C75.7418 206.319 77.8293 210.676 77.6475 220.036Z" fill="#F995A6"/>
<path d="M74.9263 208.194C75.1371 208.749 75.2905 209.325 75.3839 209.912C75.6472 211.121 75.9544 212.538 76.2992 214.105C76.644 215.673 76.9261 217.083 77.2207 218.287C77.3884 218.858 77.5038 219.444 77.5655 220.036C77.2871 219.504 77.0765 218.94 76.9386 218.356C76.6252 217.296 76.2553 215.848 75.9042 214.181C75.5532 212.513 75.2773 211.046 75.1018 209.968C74.9786 209.385 74.9197 208.79 74.9263 208.194V208.194Z" fill="#2F3646"/>
<path d="M83.8891 247.08C83.8891 247.08 74.7804 242.83 74.2663 235.056C74.2624 234.996 74.275 234.936 74.3029 234.882C74.3307 234.828 74.3727 234.783 74.4243 234.751C74.476 234.72 74.5353 234.703 74.5958 234.702C74.6563 234.702 74.7158 234.718 74.7678 234.749C76.1345 235.608 79.9397 238.598 83.8891 247.08Z" fill="#F995A6"/>
<path d="M76.2266 237.646C76.6618 238.052 77.0546 238.501 77.3989 238.987C78.1637 239.959 79.0664 241.093 80.0632 242.347L82.7337 245.701C83.1353 246.14 83.4962 246.614 83.812 247.118C83.3456 246.751 82.9247 246.331 82.5582 245.864C81.8185 245.055 80.8342 243.896 79.7999 242.579C78.7655 241.263 77.8251 240.047 77.1982 239.15C76.8214 238.685 76.4957 238.18 76.2266 237.646V237.646Z" fill="#2F3646"/>
<path d="M102.027 207.554C102.036 207.629 102.036 207.705 102.027 207.78C102.027 207.956 102.027 208.163 102.027 208.407C102.027 209.034 101.964 209.83 101.92 210.846C101.801 212.99 101.638 215.974 101.444 219.553C100.817 223.189 98.9362 227.22 96.4286 231.132C94.6043 234.016 92.6672 236.642 91.0436 239.081C89.5425 241.21 88.1914 243.441 87.0001 245.757C86.2212 247.329 85.5915 248.97 85.1194 250.66C84.9564 251.255 84.8373 251.725 84.7684 252.045C84.7407 252.21 84.6966 252.372 84.6367 252.528C84.6387 252.361 84.6576 252.195 84.6931 252.033C84.737 251.707 84.8373 251.23 84.9752 250.622C85.4007 248.894 86.0014 247.213 86.7682 245.607C87.9333 243.262 89.268 241.006 90.7615 238.855C92.3977 236.398 94.3034 233.771 96.1214 230.906C98.629 227.007 100.434 223.039 101.137 219.459C101.387 215.892 101.594 212.908 101.763 210.764C101.845 209.749 101.914 208.934 101.958 208.332C101.958 208.081 102.008 207.868 102.027 207.705C102.021 207.655 102.021 207.604 102.027 207.554V207.554Z" fill="#2F3646"/>
<path d="M96.6324 230.417C96.6324 230.417 100.488 221.133 95.6356 215.052C95.598 215.003 95.5476 214.966 95.4899 214.944C95.4323 214.922 95.3698 214.917 95.3093 214.929C95.2488 214.94 95.1928 214.969 95.1474 215.01C95.1021 215.052 95.0693 215.106 95.0526 215.165C94.595 216.72 93.7988 221.515 96.6324 230.417Z" fill="#F995A6"/>
<path d="M95.8997 218.293C96.0659 218.865 96.1689 219.454 96.2069 220.049C96.3448 221.139 96.4952 222.65 96.6144 224.324C96.7335 225.998 96.7899 227.515 96.7899 228.612C96.8285 229.207 96.7927 229.806 96.6833 230.392C96.5744 229.809 96.5219 229.217 96.5266 228.624C96.4451 227.371 96.3448 225.948 96.2382 224.349C96.1316 222.75 96.0251 221.302 95.9436 220.074C95.8705 219.483 95.8558 218.887 95.8997 218.293V218.293Z" fill="#2F3646"/>
<g opacity="0.3">
<path opacity="0.3" d="M96.6324 230.417C96.6324 230.417 100.488 221.133 95.6356 215.052C95.598 215.003 95.5476 214.966 95.4899 214.944C95.4323 214.922 95.3698 214.917 95.3093 214.929C95.2488 214.94 95.1928 214.969 95.1474 215.01C95.1021 215.052 95.0693 215.106 95.0526 215.165C94.595 216.72 93.7988 221.515 96.6324 230.417Z" fill="#2F3646"/>
</g>
<path d="M84.6622 252.785C84.6622 252.785 87.7528 243.225 82.4242 237.558C82.3829 237.513 82.3299 237.48 82.2711 237.463C82.2123 237.446 82.15 237.445 82.091 237.462C82.032 237.478 81.9786 237.51 81.9367 237.555C81.8949 237.599 81.8661 237.655 81.8537 237.714C81.5465 239.294 81.1453 244.115 84.6622 252.785Z" fill="#F995A6"/>
<path d="M82.9727 240.755C83.1857 241.313 83.335 241.893 83.4178 242.485C83.6434 243.557 83.9193 245.049 84.1763 246.71C84.4333 248.372 84.6089 249.876 84.6966 250.973C84.7818 251.565 84.7944 252.165 84.7342 252.76C84.5816 252.185 84.4808 251.598 84.4333 251.005C84.2515 249.751 84.0384 248.353 83.8064 246.767C83.5745 245.181 83.3488 243.751 83.1795 242.529C83.0524 241.946 82.9831 241.352 82.9727 240.755Z" fill="#2F3646"/>
<g opacity="0.3">
<path opacity="0.3" d="M84.6622 252.785C84.6622 252.785 87.7528 243.225 82.4242 237.558C82.3829 237.513 82.3299 237.48 82.2711 237.463C82.2123 237.446 82.15 237.445 82.091 237.462C82.032 237.478 81.9786 237.51 81.9367 237.555C81.8949 237.599 81.8661 237.655 81.8537 237.714C81.5465 239.294 81.1453 244.115 84.6622 252.785Z" fill="#2F3646"/>
</g>
<path d="M101.512 219.077C101.512 219.077 109.749 213.309 108.915 205.574C108.91 205.512 108.888 205.454 108.851 205.404C108.814 205.355 108.764 205.317 108.707 205.294C108.65 205.271 108.588 205.265 108.527 205.275C108.466 205.286 108.41 205.313 108.364 205.354C107.173 206.47 103.938 210.037 101.512 219.077Z" fill="#F995A6"/>
<g opacity="0.3">
<path opacity="0.3" d="M101.512 219.077C101.512 219.077 109.749 213.309 108.915 205.574C108.91 205.512 108.888 205.454 108.851 205.404C108.814 205.355 108.764 205.317 108.707 205.294C108.65 205.271 108.588 205.265 108.527 205.275C108.466 205.286 108.41 205.313 108.364 205.354C107.173 206.47 103.938 210.037 101.512 219.077Z" fill="#2F3646"/>
</g>
<path d="M107.429 208.464C107.263 209.035 107.034 209.585 106.746 210.106C106.276 211.103 105.592 212.457 104.796 213.936C104 215.416 103.235 216.726 102.64 217.654C102.355 218.178 102.003 218.663 101.593 219.096C101.819 218.546 102.094 218.017 102.414 217.516L104.464 213.754L106.508 209.993C106.761 209.453 107.07 208.94 107.429 208.464V208.464Z" fill="#2F3646"/>
<path d="M87.9771 243.306C87.9771 243.306 97.8882 241.758 100.571 234.448C100.594 234.391 100.599 234.328 100.588 234.267C100.576 234.207 100.548 234.15 100.506 234.105C100.465 234.059 100.411 234.026 100.352 234.009C100.292 233.992 100.23 233.992 100.17 234.009C98.6217 234.448 94.1269 236.26 87.9771 243.306Z" fill="#F995A6"/>
<g opacity="0.3">
<path opacity="0.3" d="M87.9771 243.306C87.9771 243.306 97.8882 241.758 100.571 234.448C100.594 234.391 100.599 234.328 100.588 234.267C100.576 234.207 100.548 234.15 100.506 234.105C100.465 234.059 100.411 234.026 100.352 234.009C100.292 233.992 100.23 233.992 100.17 234.009C98.6217 234.448 94.1269 236.26 87.9771 243.306Z" fill="#2F3646"/>
</g>
<path d="M97.962 236.385C97.5615 236.822 97.1161 237.215 96.633 237.558C95.7741 238.247 94.5642 239.162 93.1976 240.134C91.831 241.106 90.5646 241.952 89.6306 242.529C89.1395 242.869 88.609 243.149 88.0508 243.363C88.4941 242.967 88.9725 242.612 89.4801 242.303L92.9844 239.833L96.4762 237.326C96.9375 236.961 97.4355 236.646 97.962 236.385V236.385Z" fill="#2F3646"/>
<path d="M78.5056 261.586L75.6094 281.083H93.6639L91.3193 261.586H78.5056Z" fill="#455A64"/>
<path d="M78.5056 261.586L75.6094 281.083H93.6639L91.3193 261.586H78.5056Z" fill="url(#paint3_linear)"/>
<path d="M92.0432 267.623C92.0432 267.73 88.7834 267.811 84.7587 267.811C80.734 267.811 77.4805 267.73 77.4805 267.623C79.9018 267.438 82.331 267.375 84.7587 267.435C87.1885 267.375 89.6198 267.438 92.0432 267.623V267.623Z" fill="#2F3646"/>
<path d="M92.4048 269.159C92.4048 269.26 89.0384 269.348 84.8821 269.348C80.7258 269.348 77.3594 269.26 77.3594 269.159C77.3594 269.059 80.7258 268.971 84.8821 268.971C89.0384 268.971 92.4048 269.072 92.4048 269.159Z" fill="#2F3646"/>
</g>
<defs>
<linearGradient id="paint0_linear" x1="190.399" y1="273.61" x2="190.399" y2="281.246" gradientUnits="userSpaceOnUse">
<stop stop-color="#343C50"/>
<stop offset="1" stop-color="#252C3D"/>
</linearGradient>
<linearGradient id="paint1_linear" x1="284.852" y1="232.71" x2="284.852" y2="268.482" gradientUnits="userSpaceOnUse">
<stop stop-color="#343C50"/>
<stop offset="1" stop-color="#252C3D"/>
</linearGradient>
<linearGradient id="paint2_linear" x1="256.412" y1="235.532" x2="256.412" y2="281.355" gradientUnits="userSpaceOnUse">
<stop stop-color="#343C50"/>
<stop offset="1" stop-color="#252C3D"/>
</linearGradient>
<linearGradient id="paint3_linear" x1="84.6366" y1="261.586" x2="84.6366" y2="281.083" gradientUnits="userSpaceOnUse">
<stop stop-color="#343C50"/>
<stop offset="1" stop-color="#252C3D"/>
</linearGradient>
<clipPath id="clip0">
<rect width="400" height="300" fill="white"/>
</clipPath>
</defs>
</svg>
