<svg width="1720" height="633" viewBox="0 0 1720 633" fill="none" xmlns="http://www.w3.org/2000/svg">
<path d="M1699.45 774.64C1699.45 774.64 2152.5 155.071 1908 131.702C1652 107.235 1496.5 356.902 1323 356.902C1104.81 356.902 1006.5 299.978 832.002 299.978C644.503 299.978 591.969 421.815 379.002 421.815C156.968 421.815 -155.671 537.618 3.49973 721.914C138.272 877.961 1300.14 845.797 1699.45 774.64Z" fill="#EAE9ED" fill-opacity="0.9"/>
<path d="M-511.346 741.987C-511.346 741.987 -637.961 814.429 -718.338 676.705C-798.714 538.982 -498.879 267.35 -279.072 272.645C-88.025 277.248 66.5005 423.349 195.501 472.128C363.886 535.799 442.88 509.398 622.5 536.198C809.768 564.14 1083.21 775.535 925.707 910.944C792.347 1025.6 -183.536 852.254 -511.346 741.987Z" fill="#E6E5E9" fill-opacity="0.8"/>
</svg>
