<svg width="473" height="187" viewBox="0 0 473 187" fill="none" xmlns="http://www.w3.org/2000/svg">
<g clip-path="url(#clip0)">
<rect width="473" height="187" fill="white"/>
<path d="M356.976 32.5213C358.452 15.0203 344.645 0 327.082 0H30C13.4314 0 0 13.4315 0 30V499C0 515.569 13.4315 529 30 529H443C459.569 529 473 515.569 473 499V141.925C473 125.357 459.569 111.925 443 111.925H404.673C375.401 111.925 352.39 86.8914 354.85 57.723L356.976 32.5213Z" fill="white"/>
<path d="M356.976 32.5213C358.452 15.0203 344.645 0 327.082 0H30C13.4314 0 0 13.4315 0 30V499C0 515.569 13.4315 529 30 529H443C459.569 529 473 515.569 473 499V141.925C473 125.357 459.569 111.925 443 111.925H404.673C375.401 111.925 352.39 86.8914 354.85 57.723L356.976 32.5213Z" fill="url(#paint0_linear)"/>
<path d="M356.976 32.5213C358.452 15.0203 344.645 0 327.082 0H30C13.4314 0 0 13.4315 0 30V499C0 515.569 13.4315 529 30 529H443C459.569 529 473 515.569 473 499V141.925C473 125.357 459.569 111.925 443 111.925H404.673C375.401 111.925 352.39 86.8914 354.85 57.723L356.976 32.5213Z" fill="url(#paint1_linear)"/>
</g>
<defs>
<linearGradient id="paint0_linear" x1="529.365" y1="-236.195" x2="-286.338" y2="298.786" gradientUnits="userSpaceOnUse">
<stop stop-color="#CC283C"/>
<stop offset="1" stop-color="#CC284F"/>
</linearGradient>
<linearGradient id="paint1_linear" x1="529.365" y1="-236.195" x2="-286.338" y2="298.786" gradientUnits="userSpaceOnUse">
<stop stop-color="#CC283C"/>
<stop offset="1" stop-color="#CC284F"/>
</linearGradient>
<clipPath id="clip0">
<rect width="473" height="187" fill="white"/>
</clipPath>
</defs>
</svg>
