<svg width="64" height="64" viewBox="0 0 64 64" fill="none" xmlns="http://www.w3.org/2000/svg">
<path d="M0 2C0 0.895431 0.895431 0 2 0H49C57.2843 0 64 6.71573 64 15V49C64 57.2843 57.2843 64 49 64H15C6.71573 64 0 57.2843 0 49V2Z" fill="#CD2946"/>
<path d="M0 2C0 0.895431 0.895431 0 2 0H49C57.2843 0 64 6.71573 64 15V49C64 57.2843 57.2843 64 49 64H15C6.71573 64 0 57.2843 0 49V2Z" fill="url(#paint0_linear)"/>
<path d="M45.0311 19.8578C42.4712 17.3013 39.0679 15.9317 35.4481 16.0026C33.8811 16.0331 32.5662 17.1252 32.2505 18.6582L30.124 28.9828L16.8615 42.2276C15.7138 43.3737 15.7138 45.2387 16.8615 46.3849L18.4881 48.0093C19.044 48.5645 19.7832 48.8703 20.5695 48.8703C21.3558 48.8703 22.095 48.5645 22.651 48.0093L35.6432 35.0345C35.663 35.032 35.6827 35.029 35.7023 35.0246L46.2908 32.6485C47.7916 32.3116 48.8607 31.0038 48.8907 29.468L48.8914 29.4281C48.9621 25.8133 47.5911 22.4145 45.0311 19.8578ZM21.7423 47.1019C21.4291 47.4148 21.0126 47.5871 20.5695 47.5871C20.1265 47.5871 19.71 47.4148 19.3968 47.1019L18.9472 46.653L21.3673 44.2362C21.6182 43.9856 21.6183 43.5793 21.3673 43.3287C21.1163 43.0783 20.7096 43.0783 20.4587 43.3287L18.0386 45.7456L17.7701 45.4774C17.1234 44.8316 17.1234 43.7807 17.7701 43.1349L24.8101 36.1043L28.7823 40.0712L21.7423 47.1019ZM29.691 39.1639L25.7187 35.197L30.5856 30.3367L34.5578 34.3036L29.691 39.1639ZM47.6068 29.403L47.606 29.4429C47.5876 30.3863 46.9309 31.1897 46.0091 31.3965L35.7658 33.6952L35.2409 33.171L39.641 31.2718C39.9667 31.1312 40.1166 30.7536 39.9758 30.4283C39.8351 30.1031 39.4569 29.9532 39.1313 30.0939L34.2635 32.195L33.9414 31.8734L36.4035 29.4145C36.6544 29.164 36.6544 28.7577 36.4035 28.5071C36.1526 28.2566 35.7458 28.2566 35.4949 28.5071L33.0328 30.9659L32.7243 30.6579L34.8283 25.7966C34.9691 25.4714 34.8192 25.0937 34.4934 24.9532C34.1677 24.8124 33.7896 24.9623 33.6488 25.2876L31.7471 29.6818L31.3696 29.3048L33.5091 18.9168C33.703 17.9752 34.5106 17.3044 35.4731 17.2857C38.7421 17.2218 41.812 18.4578 44.1226 20.7653C46.4331 23.0727 47.6706 26.1404 47.6068 29.403Z" fill="white" stroke="white" stroke-width="0.4"/>
<defs>
<linearGradient id="paint0_linear" x1="7.15655" y1="-11.4899" x2="87.798" y2="33.1312" gradientUnits="userSpaceOnUse">
<stop stop-color="#CC283C"/>
<stop offset="1" stop-color="#CC284F"/>
</linearGradient>
</defs>
</svg>
