<svg width="38" height="38" viewBox="0 0 38 38" fill="none" xmlns="http://www.w3.org/2000/svg">
<path d="M28.562 21.4538C27.897 22.103 27.517 23.0372 27.612 24.0347C27.7545 25.7447 29.322 26.9955 31.032 26.9955H34.0404V28.8797C34.0404 32.1572 31.3645 34.833 28.087 34.833H9.91037C6.63287 34.833 3.95703 32.1572 3.95703 28.8797V18.2239C3.95703 14.9464 6.63287 12.2705 9.91037 12.2705H28.087C31.3645 12.2705 34.0404 14.9464 34.0404 18.2239V20.5039H30.842C29.9554 20.5039 29.1479 20.8522 28.562 21.4538Z" stroke="#EB3A53" stroke-width="2.3" stroke-linecap="round" stroke-linejoin="round"/>
<path d="M3.95703 19.6496V12.4138C3.95703 10.5296 5.11286 8.85123 6.87037 8.18623L19.442 3.43623C21.4054 2.69207 23.5112 4.14878 23.5112 6.25461V12.2713" stroke="#EB3A53" stroke-width="2.3" stroke-linecap="round" stroke-linejoin="round"/>
<path d="M35.7188 22.1198V25.3816C35.7188 26.2524 35.0221 26.9648 34.1354 26.9965H31.0321C29.3221 26.9965 27.7546 25.7457 27.6121 24.0357C27.5171 23.0382 27.8971 22.104 28.5621 21.4548C29.1479 20.8532 29.9554 20.5049 30.8421 20.5049H34.1354C35.0221 20.5365 35.7188 21.249 35.7188 22.1198Z" stroke="#EB3A53" stroke-width="2.3" stroke-linecap="round" stroke-linejoin="round"/>
<path d="M11.082 19H22.1654" stroke="#EB3A53" stroke-width="2.3" stroke-linecap="round" stroke-linejoin="round"/>
</svg>
