<svg width="46" height="46" viewBox="0 0 46 46" fill="none" xmlns="http://www.w3.org/2000/svg">
<g clip-path="url(#clip0)">
<path d="M44.6519 31.7753C41.9173 31.7753 39.349 30.7203 37.4195 28.8045C35.4906 26.8897 34.4287 24.3393 34.4287 21.6233C34.4287 20.8789 33.825 20.2756 33.081 20.2756C32.3366 20.2756 31.7334 20.8789 31.7334 21.6233C31.7334 24.3393 30.671 26.8897 28.7422 28.8045C26.8127 30.7203 24.2444 31.7753 21.5098 31.7753C20.7654 31.7753 20.1621 32.3786 20.1621 33.1229C20.1621 33.8673 20.7654 34.4706 21.5098 34.4706C27.1468 34.4706 31.7334 39.0382 31.7334 44.6524C31.7334 45.3968 32.3366 46.0001 33.081 46.0001C33.825 46.0001 34.4287 45.3968 34.4287 44.6524C34.4287 39.0382 39.0149 34.4706 44.6519 34.4706C45.3963 34.4706 45.9996 33.8673 45.9996 33.1229C45.9996 32.3786 45.3963 31.7753 44.6519 31.7753ZM33.081 38.9287C31.8295 36.4254 29.7838 34.3825 27.2752 33.1303C28.5053 32.5204 29.641 31.7104 30.6412 30.7172C31.646 29.7198 32.4647 28.5862 33.0807 27.3578C33.6969 28.5862 34.5157 29.7198 35.5201 30.7172C36.5203 31.7104 37.6564 32.5204 38.8861 33.1303C36.3779 34.3825 34.3322 36.4254 33.081 38.9287Z" fill="#C5C5CD" stroke="#F2F1F5" stroke-width="0.8"/>
<path d="M18.439 21.2379C14.4701 21.2379 11.241 18.0327 11.241 14.0925C11.241 13.3485 10.6377 12.7449 9.89334 12.7449C9.14897 12.7449 8.54568 13.3485 8.54568 14.0925C8.54568 18.0327 5.31657 21.2379 1.34766 21.2379C0.603287 21.2379 0 21.8416 0 22.5856C0 23.3299 0.603287 23.9332 1.34766 23.9332C5.31657 23.9332 8.54568 27.1487 8.54568 31.1007C8.54568 31.8447 9.14897 32.4484 9.89334 32.4484C10.6377 32.4484 11.241 31.8447 11.241 31.1007C11.241 27.1487 14.4701 23.9332 18.439 23.9332C19.1834 23.9332 19.7867 23.3299 19.7867 22.5856C19.7867 21.8416 19.1834 21.2379 18.439 21.2379ZM9.89334 26.1355C9.03386 24.6709 7.80623 23.4458 6.3382 22.5873C7.80623 21.7307 9.03386 20.5083 9.89334 19.0469C10.7528 20.5083 11.9805 21.7307 13.4485 22.5873C11.9805 23.4458 10.7528 24.6706 9.89334 26.1355Z" fill="#C5C5CD" stroke="#F2F1F5" stroke-width="0.8"/>
<path d="M20.6309 9.31287C23.5497 9.31287 25.9246 11.6695 25.9246 14.5659C25.9246 15.3099 26.5279 15.9136 27.2723 15.9136C28.0166 15.9136 28.6199 15.3099 28.6199 14.5659C28.6199 11.66 30.9948 9.29602 33.9137 9.29602C34.6581 9.29602 35.2614 8.69238 35.2614 7.94836C35.2614 7.20399 34.6581 6.60071 33.9137 6.60071C30.9948 6.60071 28.6199 4.24406 28.6199 1.34766C28.6199 0.603287 28.0166 0 27.2723 0C26.5279 0 25.9246 0.603287 25.9246 1.34766C25.9246 4.25354 23.5497 6.61755 20.6309 6.61755C19.8865 6.61755 19.2832 7.22084 19.2832 7.96521C19.2832 8.70958 19.8865 9.31287 20.6309 9.31287ZM27.2754 5.76579C27.857 6.62773 28.6034 7.3707 29.4696 7.94977C28.6003 8.532 27.8517 9.27988 27.2691 10.1478C26.6876 9.28584 25.9411 8.54288 25.075 7.96381C25.9443 7.38158 26.6932 6.6337 27.2754 5.76579Z" fill="#C5C5CD" stroke="#F2F1F5" stroke-width="0.8"/>
</g>
<defs>
<clipPath id="clip0">
<rect width="46" height="46" fill="white"/>
</clipPath>
</defs>
</svg>
