<svg width="65" height="65" viewBox="0 0 65 65" fill="none" xmlns="http://www.w3.org/2000/svg">
<rect width="65" height="65" rx="19.5" fill="#CD2946"/>
<rect width="65" height="65" rx="19.5" fill="url(#paint0_linear_80:73078)"/>
<g clip-path="url(#clip0_80:73078)">
<path d="M45.9242 38.8542C44.1467 38.8542 42.4773 38.1684 41.2231 36.9231C39.9694 35.6785 39.2791 34.0208 39.2791 32.2554C39.2791 31.7715 38.8868 31.3794 38.4031 31.3794C37.9193 31.3794 37.5272 31.7715 37.5272 32.2554C37.5272 34.0208 36.8367 35.6785 35.5829 36.9231C34.3287 38.1684 32.6593 38.8542 30.8818 38.8542C30.398 38.8542 30.0059 39.2463 30.0059 39.7301C30.0059 40.214 30.398 40.6061 30.8818 40.6061C34.5459 40.6061 37.5272 43.5751 37.5272 47.2243C37.5272 47.7081 37.9193 48.1003 38.4031 48.1003C38.8868 48.1003 39.2791 47.7081 39.2791 47.2243C39.2791 43.5751 42.2602 40.6061 45.9242 40.6061C46.4081 40.6061 46.8002 40.214 46.8002 39.7301C46.8002 39.2463 46.4081 38.8542 45.9242 38.8542ZM38.4031 43.5039C37.5897 41.8767 36.26 40.5489 34.6294 39.7349C35.4289 39.3385 36.1671 38.812 36.8173 38.1664C37.4704 37.5181 38.0026 36.7813 38.4029 35.9828C38.8035 36.7813 39.3357 37.5181 39.9886 38.1664C40.6387 38.812 41.3771 39.3385 42.1765 39.7349C40.5461 40.5489 39.2164 41.8767 38.4031 43.5039Z" fill="white"/>
<path d="M28.8858 32.0049C26.306 32.0049 24.207 29.9214 24.207 27.3604C24.207 26.8767 23.8149 26.4844 23.3311 26.4844C22.8472 26.4844 22.4551 26.8767 22.4551 27.3604C22.4551 29.9214 20.3562 32.0049 17.7764 32.0049C17.2925 32.0049 16.9004 32.3972 16.9004 32.8808C16.9004 33.3647 17.2925 33.7568 17.7764 33.7568C20.3562 33.7568 22.4551 35.8468 22.4551 38.4157C22.4551 38.8993 22.8472 39.2917 23.3311 39.2917C23.8149 39.2917 24.207 38.8993 24.207 38.4157C24.207 35.8468 26.306 33.7568 28.8858 33.7568C29.3696 33.7568 29.7617 33.3647 29.7617 32.8808C29.7617 32.3972 29.3696 32.0049 28.8858 32.0049ZM23.3311 35.1883C22.7724 34.2363 21.9744 33.4399 21.0202 32.882C21.9744 32.3251 22.7724 31.5306 23.3311 30.5807C23.8897 31.5306 24.6877 32.3251 25.6419 32.882C24.6877 33.4399 23.8897 34.2361 23.3311 35.1883Z" fill="white"/>
<path d="M30.3115 24.2536C32.2088 24.2536 33.7525 25.7854 33.7525 27.668C33.7525 28.1517 34.1446 28.544 34.6284 28.544C35.1123 28.544 35.5044 28.1517 35.5044 27.668C35.5044 25.7792 37.0481 24.2426 38.9454 24.2426C39.4292 24.2426 39.8213 23.8502 39.8213 23.3666C39.8213 22.8828 39.4292 22.4907 38.9454 22.4907C37.0481 22.4907 35.5044 20.9588 35.5044 19.0762C35.5044 18.5923 35.1123 18.2002 34.6284 18.2002C34.1446 18.2002 33.7525 18.5923 33.7525 19.0762C33.7525 20.965 32.2088 22.5016 30.3115 22.5016C29.8277 22.5016 29.4355 22.8937 29.4355 23.3776C29.4355 23.8614 29.8277 24.2536 30.3115 24.2536ZM34.6305 21.948C35.0085 22.5082 35.4937 22.9911 36.0567 23.3675C35.4916 23.746 35.0051 24.2321 34.6264 24.7963C34.2484 24.236 33.7632 23.7531 33.2002 23.3767C33.7652 22.9982 34.252 22.5121 34.6305 21.948Z" fill="white"/>
</g>
<defs>
<linearGradient id="paint0_linear_80:73078" x1="7.26837" y1="-11.6695" x2="89.1698" y2="33.6489" gradientUnits="userSpaceOnUse">
<stop stop-color="#CC283C"/>
<stop offset="1" stop-color="#CC284F"/>
</linearGradient>
<clipPath id="clip0_80:73078">
<rect width="29.9" height="29.9" fill="white" transform="translate(16.9004 18.2002)"/>
</clipPath>
</defs>
</svg>
