<svg width="24" height="23" viewBox="0 0 24 23" fill="none" xmlns="http://www.w3.org/2000/svg">
<path d="M13.5721 2.45615L15.6086 6.34681C15.8864 6.88841 16.6269 7.4079 17.2518 7.50738L20.9431 8.09319C23.3037 8.46899 23.8591 10.1048 22.1581 11.7186L19.2884 14.4597C18.8024 14.9239 18.5362 15.8192 18.6867 16.4603L19.5082 19.8536C20.1562 22.5395 18.6635 23.5785 16.1756 22.1747L12.7158 20.2183C12.0909 19.8646 11.0611 19.8646 10.4246 20.2183L6.96478 22.1747C4.48849 23.5785 2.9842 22.5284 3.6322 19.8536L4.45377 16.4603C4.6042 15.8192 4.33806 14.9239 3.85206 14.4597L0.982338 11.7186C-0.707094 10.1048 -0.163235 8.46899 2.19734 8.09319L5.88863 7.50738C6.50192 7.4079 7.24249 6.88841 7.52021 6.34681L9.55678 2.45615C10.6676 0.345021 12.4728 0.345021 13.5721 2.45615Z" fill="#FFDB1F"/>
</svg>
