<svg width="67" height="67" viewBox="0 0 67 67" fill="none" xmlns="http://www.w3.org/2000/svg">
<rect x="1" y="1" width="65" height="65" rx="19.5" stroke="#C5C5CD" stroke-width="1.3"/>
<g clip-path="url(#clip0_80:72497)">
<path d="M46.9242 39.8542C45.1467 39.8542 43.4773 39.1684 42.2231 37.9231C40.9694 36.6785 40.2791 35.0208 40.2791 33.2554C40.2791 32.7715 39.8868 32.3794 39.4031 32.3794C38.9193 32.3794 38.5272 32.7715 38.5272 33.2554C38.5272 35.0208 37.8367 36.6785 36.5829 37.9231C35.3287 39.1684 33.6593 39.8542 31.8818 39.8542C31.398 39.8542 31.0059 40.2463 31.0059 40.7301C31.0059 41.214 31.398 41.6061 31.8818 41.6061C35.5459 41.6061 38.5272 44.5751 38.5272 48.2243C38.5272 48.7081 38.9193 49.1003 39.4031 49.1003C39.8868 49.1003 40.2791 48.7081 40.2791 48.2243C40.2791 44.5751 43.2602 41.6061 46.9242 41.6061C47.4081 41.6061 47.8002 41.214 47.8002 40.7301C47.8002 40.2463 47.4081 39.8542 46.9242 39.8542ZM39.4031 44.5039C38.5897 42.8767 37.26 41.5489 35.6294 40.7349C36.4289 40.3385 37.1671 39.812 37.8173 39.1664C38.4704 38.5181 39.0026 37.7813 39.4029 36.9828C39.8035 37.7813 40.3357 38.5181 40.9886 39.1664C41.6387 39.812 42.3771 40.3385 43.1765 40.7349C41.5461 41.5489 40.2164 42.8767 39.4031 44.5039Z" fill="#C5C5CD" stroke="#F4F3F8" stroke-width="0.5"/>
<path d="M29.8858 33.0049C27.306 33.0049 25.207 30.9214 25.207 28.3604C25.207 27.8767 24.8149 27.4844 24.3311 27.4844C23.8472 27.4844 23.4551 27.8767 23.4551 28.3604C23.4551 30.9214 21.3562 33.0049 18.7764 33.0049C18.2925 33.0049 17.9004 33.3972 17.9004 33.8808C17.9004 34.3647 18.2925 34.7568 18.7764 34.7568C21.3562 34.7568 23.4551 36.8468 23.4551 39.4157C23.4551 39.8993 23.8472 40.2917 24.3311 40.2917C24.8149 40.2917 25.207 39.8993 25.207 39.4157C25.207 36.8468 27.306 34.7568 29.8858 34.7568C30.3696 34.7568 30.7617 34.3647 30.7617 33.8808C30.7617 33.3972 30.3696 33.0049 29.8858 33.0049ZM24.3311 36.1883C23.7724 35.2363 22.9744 34.4399 22.0202 33.882C22.9744 33.3251 23.7724 32.5306 24.3311 31.5807C24.8897 32.5306 25.6877 33.3251 26.6419 33.882C25.6877 34.4399 24.8897 35.2361 24.3311 36.1883Z" fill="#C5C5CD" stroke="#F4F3F8" stroke-width="0.5"/>
<path d="M31.3115 25.2536C33.2088 25.2536 34.7525 26.7854 34.7525 28.668C34.7525 29.1517 35.1446 29.544 35.6284 29.544C36.1123 29.544 36.5044 29.1517 36.5044 28.668C36.5044 26.7792 38.0481 25.2426 39.9454 25.2426C40.4292 25.2426 40.8213 24.8502 40.8213 24.3666C40.8213 23.8828 40.4292 23.4907 39.9454 23.4907C38.0481 23.4907 36.5044 21.9588 36.5044 20.0762C36.5044 19.5923 36.1123 19.2002 35.6284 19.2002C35.1446 19.2002 34.7525 19.5923 34.7525 20.0762C34.7525 21.965 33.2088 23.5016 31.3115 23.5016C30.8277 23.5016 30.4355 23.8937 30.4355 24.3776C30.4355 24.8614 30.8277 25.2536 31.3115 25.2536ZM35.6305 22.948C36.0085 23.5082 36.4937 23.9911 37.0567 24.3675C36.4916 24.746 36.0051 25.2321 35.6264 25.7963C35.2484 25.236 34.7632 24.7531 34.2002 24.3767C34.7652 23.9982 35.252 23.5121 35.6305 22.948Z" fill="#C5C5CD" stroke="#F4F3F8" stroke-width="0.5"/>
</g>
<defs>
<clipPath id="clip0_80:72497">
<rect width="29.9" height="29.9" fill="white" transform="translate(17.9004 19.2002)"/>
</clipPath>
</defs>
</svg>
