<svg width="14" height="14" viewBox="0 0 14 14" fill="none" xmlns="http://www.w3.org/2000/svg">
<path d="M8.20934 1.12475L9.44121 3.4314C9.60919 3.7525 10.0571 4.06049 10.4351 4.11947L12.6679 4.46678C14.0957 4.68958 14.4317 5.65942 13.4028 6.61616L11.667 8.2413C11.373 8.51652 11.212 9.04732 11.303 9.42739L11.7999 11.4392C12.1919 13.0315 11.289 13.6475 9.78417 12.8153L7.6914 11.6554C7.31344 11.4457 6.69051 11.4457 6.30556 11.6554L4.21279 12.8153C2.71495 13.6475 1.80505 13.025 2.19701 11.4392L2.69395 9.42739C2.78494 9.04732 2.62396 8.51652 2.33 8.2413L0.594187 6.61616C-0.4277 5.65942 -0.0987362 4.68958 1.32911 4.46678L3.56186 4.11947C3.93282 4.06049 4.38077 3.7525 4.54875 3.4314L5.78061 1.12475C6.45254 -0.12687 7.54442 -0.12687 8.20934 1.12475Z" fill="#DC1E35"/>
</svg>
