<svg width="38" height="38" viewBox="0 0 38 38" fill="none" xmlns="http://www.w3.org/2000/svg">
<path d="M24.3672 8.249L26.5997 12.714C26.9005 13.3315 27.708 13.9173 28.3888 14.044L32.4264 14.709C35.0072 15.1365 35.6089 17.0048 33.7564 18.8732L30.6055 22.024C30.083 22.5465 29.7822 23.5757 29.9564 24.3198L30.8588 28.2148C31.5713 31.2865 29.9247 32.4898 27.2172 30.8748L23.433 28.6265C22.7522 28.2148 21.6122 28.2148 20.9313 28.6265L17.1472 30.8748C14.4397 32.474 12.793 31.2865 13.5055 28.2148L14.408 24.3198C14.5822 23.5915 14.2813 22.5623 13.7588 22.024L10.608 18.8732C8.75553 17.0207 9.35719 15.1523 11.938 14.709L15.9755 14.044C16.6563 13.9332 17.4638 13.3315 17.7647 12.714L19.9972 8.249C21.1847 5.8265 23.148 5.8265 24.3672 8.249Z" stroke="#EB3A53" stroke-width="2.3" stroke-linecap="round" stroke-linejoin="round"/>
<path d="M12.6665 7.9165H3.1665" stroke="#EB3A53" stroke-width="2.3" stroke-linecap="round" stroke-linejoin="round"/>
<path d="M7.9165 30.0835H3.1665" stroke="#EB3A53" stroke-width="2.3" stroke-linecap="round" stroke-linejoin="round"/>
<path d="M4.74984 19H3.1665" stroke="#EB3A53" stroke-width="2.3" stroke-linecap="round" stroke-linejoin="round"/>
</svg>
