<svg width="64" height="64" viewBox="0 0 64 64" fill="none" xmlns="http://www.w3.org/2000/svg">
<path d="M0 2C0 0.895431 0.895431 0 2 0H49C57.2843 0 64 6.71573 64 15V49C64 57.2843 57.2843 64 49 64H15C6.71573 64 0 57.2843 0 49V2Z" fill="#3BB293"/>
<path d="M31.2347 34.4509C33.4333 34.4509 35.2156 32.6686 35.2156 30.4701C35.2156 28.2715 33.4333 26.4893 31.2347 26.4893C29.0362 26.4893 27.2539 28.2715 27.2539 30.4701C27.2539 32.6686 29.0362 34.4509 31.2347 34.4509Z" stroke="white" stroke-width="2" stroke-linecap="round" stroke-linejoin="round"/>
<path d="M38.5876 43.6168C38.5876 40.316 35.3009 37.6243 31.2351 37.6243C27.1692 37.6243 23.8826 40.3018 23.8826 43.6168" stroke="white" stroke-width="2" stroke-linecap="round" stroke-linejoin="round"/>
<path d="M44.7499 32.7083C44.7499 40.1458 38.7291 46.1667 31.2916 46.1667C23.8541 46.1667 17.8333 40.1458 17.8333 32.7083C17.8333 25.2708 23.8541 19.25 31.2916 19.25C33.1474 19.25 34.9183 19.6183 36.5333 20.2983C36.3491 20.865 36.2499 21.46 36.2499 22.0833C36.2499 23.1458 36.5474 24.1517 37.0716 25.0017C37.3549 25.4833 37.7233 25.9225 38.1483 26.2908C39.1399 27.1975 40.4574 27.75 41.9166 27.75C42.5399 27.75 43.1349 27.6508 43.6874 27.4525C44.3674 29.0675 44.7499 30.8525 44.7499 32.7083Z" stroke="white" stroke-width="2" stroke-linecap="round" stroke-linejoin="round"/>
<path d="M47.5833 22.0834C47.5833 22.5367 47.5267 22.9759 47.4133 23.4009C47.2858 23.9676 47.0592 24.5201 46.7617 25.0017C46.0817 26.1492 44.9908 27.0417 43.6875 27.4525C43.135 27.6509 42.54 27.7501 41.9167 27.7501C40.4575 27.7501 39.14 27.1975 38.1483 26.2909C37.7233 25.9225 37.355 25.4834 37.0717 25.0017C36.5475 24.1517 36.25 23.1459 36.25 22.0834C36.25 21.4601 36.3492 20.8651 36.5333 20.2984C36.8025 19.4767 37.2558 18.7401 37.8508 18.1309C38.885 17.0684 40.33 16.4167 41.9167 16.4167C43.5883 16.4167 45.1042 17.1393 46.1242 18.3009C47.0308 19.3068 47.5833 20.6384 47.5833 22.0834Z" stroke="white" stroke-width="2" stroke-miterlimit="10" stroke-linecap="round" stroke-linejoin="round"/>
<path d="M44.0276 22.0552H39.8059" stroke="white" stroke-width="2" stroke-miterlimit="10" stroke-linecap="round" stroke-linejoin="round"/>
<path d="M41.9167 19.9868V24.2226" stroke="white" stroke-width="2" stroke-miterlimit="10" stroke-linecap="round" stroke-linejoin="round"/>
</svg>
