<svg width="28" height="32" viewBox="0 0 28 32" fill="none" xmlns="http://www.w3.org/2000/svg">
<path d="M14.2633 13.7771C14.139 13.7593 13.9792 13.7593 13.8372 13.7771C10.7123 13.6705 8.22656 11.1138 8.22656 7.97115C8.22656 4.75747 10.8188 2.14746 14.0502 2.14746C17.2639 2.14746 19.8739 4.75747 19.8739 7.97115C19.8562 11.1138 17.3882 13.6705 14.2633 13.7771Z" stroke="white" stroke-width="2.5" stroke-linecap="round" stroke-linejoin="round"/>
<path d="M26.0183 25.4957C25.5682 29.0919 18.6677 30.1476 14.0514 30.1476C9.43503 30.1476 3.11039 29.0919 2.08439 25.4957C1.59295 23.7733 3.32725 22.1933 5.22705 20.9149C10.092 17.6835 18.0463 17.6835 22.8757 20.9149C24.7755 22.1933 26.144 23.9093 26.0183 25.4957Z" stroke="white" stroke-width="2.5" stroke-linecap="round" stroke-linejoin="round"/>
</svg>
