<svg width="64" height="64" viewBox="0 0 64 64" fill="none" xmlns="http://www.w3.org/2000/svg">
<path d="M0 2C0 0.895431 0.895431 0 2 0H49C57.2843 0 64 6.71573 64 15V49C64 57.2843 57.2843 64 49 64H15C6.71573 64 0 57.2843 0 49V2Z" fill="#3BB293"/>
<path d="M37.0716 32.0001C37.0716 34.8051 34.8049 37.0718 31.9999 37.0718C29.1949 37.0718 26.9282 34.8051 26.9282 32.0001C26.9282 29.1951 29.1949 26.9285 31.9999 26.9285C34.8049 26.9285 37.0716 29.1951 37.0716 32.0001Z" stroke="white" stroke-width="2" stroke-linecap="round" stroke-linejoin="round"/>
<path d="M32 43.7159C37.0009 43.7159 41.6617 40.7692 44.9059 35.6692C46.1809 33.6717 46.1809 30.3142 44.9059 28.3167C41.6617 23.2167 37.0009 20.27 32 20.27C26.9992 20.27 22.3384 23.2167 19.0942 28.3167C17.8192 30.3142 17.8192 33.6717 19.0942 35.6692C22.3384 40.7692 26.9992 43.7159 32 43.7159Z" stroke="white" stroke-width="2" stroke-linecap="round" stroke-linejoin="round"/>
</svg>
