<svg width="39" height="41" viewBox="0 0 39 41" fill="none" xmlns="http://www.w3.org/2000/svg">
<mask id="path-1-inside-1" fill="white">
<path d="M27.4096 4.95437C26.0651 3.81491 24.6557 2.61737 23.2207 1.3122C22.6769 0.8176 22.0315 0.447871 21.3298 0.22891C20.628 0.00994877 19.8869 -0.0529506 19.1583 0.0446172C18.4523 0.137881 17.7755 0.385143 17.1756 0.768909C16.5758 1.15268 16.0676 1.66357 15.687 2.26545C13.6506 5.66842 12.2108 9.39441 11.4298 13.2825C11.1233 12.84 10.8515 12.3745 10.6166 11.8902C10.3748 11.3807 10.0107 10.9391 9.55671 10.6046C9.10271 10.2701 8.57298 10.0531 8.01476 9.9731C7.45655 9.89309 6.8872 9.9525 6.35753 10.146C5.82785 10.3395 5.3543 10.6611 4.97914 11.0822C2.11368 14.0103 0.525173 17.9546 0.561387 22.0514C0.521786 26.2363 1.88285 30.3142 4.42805 33.6364C6.97324 36.9586 10.5563 39.3342 14.6073 40.3852C16.1582 40.7754 17.7504 40.9773 19.3496 40.9865C19.4009 40.9865 19.4504 41.0002 19.5017 41.0002C19.7255 41.0002 19.9458 40.9814 20.1662 40.966C25.072 40.8071 29.7233 38.7451 33.1351 35.2165C36.547 31.6879 38.4515 26.9699 38.4454 22.0616C38.4386 14.3229 33.3272 9.9837 27.4096 4.95437ZM19.8929 37.5391C19.6981 37.5391 19.5034 37.5596 19.3069 37.5579C18.0355 37.4612 16.8233 36.9811 15.8305 36.181C15.0966 35.6855 14.4762 35.04 14.0103 34.287C13.5444 33.534 13.2437 32.6907 13.1279 31.8128C12.8375 29.0419 14.5458 25.4185 18.0359 21.3253C18.2167 21.1141 18.4413 20.9448 18.6942 20.8292C18.947 20.7135 19.222 20.6543 19.5 20.6557C19.7743 20.6537 20.0457 20.7124 20.2946 20.8275C20.5436 20.9427 20.764 21.1115 20.9401 21.3219C24.1381 25.1178 25.8943 28.6199 25.8943 31.1841C25.8895 32.8074 25.2671 34.368 24.1534 35.549C23.0397 36.7299 21.5182 37.4427 19.898 37.5425L19.8929 37.5391ZM29.0256 34.3087C28.9248 34.3872 28.8138 34.4505 28.7113 34.5256C29.1055 33.4544 29.3084 32.3222 29.3109 31.1807C29.3109 26.8637 26.1761 22.2376 23.5487 19.1165C23.0521 18.5283 22.4332 18.0555 21.7351 17.7309C21.037 17.4064 20.2766 17.2379 19.5068 17.2373H19.5C18.7285 17.2359 17.966 17.4022 17.2652 17.7246C16.5643 18.047 15.9419 18.5178 15.441 19.1045V19.1045C11.2641 23.9972 9.34564 28.3927 9.73855 32.1698C9.83185 33.0467 10.0558 33.9047 10.4031 34.7152C8.40363 33.2665 6.77828 31.362 5.66181 29.1596C4.54533 26.9573 3.96989 24.5205 3.98318 22.0514C3.96687 20.4405 4.27333 18.8427 4.88449 17.3522C5.49566 15.8617 6.39914 14.5087 7.54164 13.373C7.9357 14.1922 8.40888 14.9709 8.95443 15.6981C9.32101 16.1937 9.82475 16.571 10.4034 16.7836C10.9821 16.9961 11.6103 17.0344 12.2105 16.8939C12.8228 16.7585 13.3827 16.4486 13.8226 16.0017C14.2625 15.5549 14.5635 14.9901 14.6893 14.3758C15.3756 10.748 16.6872 7.26699 18.5655 4.08824C18.6796 3.90879 18.8321 3.75687 19.012 3.64344C19.1919 3.53 19.3948 3.45787 19.6059 3.43224C19.8419 3.40048 20.082 3.42089 20.3093 3.49202C20.5366 3.56316 20.7455 3.68329 20.9213 3.84395C22.3871 5.17645 23.8255 6.40645 25.1921 7.56299C30.8946 12.4061 35.0168 15.9048 35.0168 22.0616C35.024 24.4257 34.488 26.7598 33.4502 28.8838C32.4123 31.0079 30.9002 32.8651 29.0308 34.3121L29.0256 34.3087Z"/>
</mask>
<path d="M27.4096 4.95437C26.0651 3.81491 24.6557 2.61737 23.2207 1.3122C22.6769 0.8176 22.0315 0.447871 21.3298 0.22891C20.628 0.00994877 19.8869 -0.0529506 19.1583 0.0446172C18.4523 0.137881 17.7755 0.385143 17.1756 0.768909C16.5758 1.15268 16.0676 1.66357 15.687 2.26545C13.6506 5.66842 12.2108 9.39441 11.4298 13.2825C11.1233 12.84 10.8515 12.3745 10.6166 11.8902C10.3748 11.3807 10.0107 10.9391 9.55671 10.6046C9.10271 10.2701 8.57298 10.0531 8.01476 9.9731C7.45655 9.89309 6.8872 9.9525 6.35753 10.146C5.82785 10.3395 5.3543 10.6611 4.97914 11.0822C2.11368 14.0103 0.525173 17.9546 0.561387 22.0514C0.521786 26.2363 1.88285 30.3142 4.42805 33.6364C6.97324 36.9586 10.5563 39.3342 14.6073 40.3852C16.1582 40.7754 17.7504 40.9773 19.3496 40.9865C19.4009 40.9865 19.4504 41.0002 19.5017 41.0002C19.7255 41.0002 19.9458 40.9814 20.1662 40.966C25.072 40.8071 29.7233 38.7451 33.1351 35.2165C36.547 31.6879 38.4515 26.9699 38.4454 22.0616C38.4386 14.3229 33.3272 9.9837 27.4096 4.95437ZM19.8929 37.5391C19.6981 37.5391 19.5034 37.5596 19.3069 37.5579C18.0355 37.4612 16.8233 36.9811 15.8305 36.181C15.0966 35.6855 14.4762 35.04 14.0103 34.287C13.5444 33.534 13.2437 32.6907 13.1279 31.8128C12.8375 29.0419 14.5458 25.4185 18.0359 21.3253C18.2167 21.1141 18.4413 20.9448 18.6942 20.8292C18.947 20.7135 19.222 20.6543 19.5 20.6557C19.7743 20.6537 20.0457 20.7124 20.2946 20.8275C20.5436 20.9427 20.764 21.1115 20.9401 21.3219C24.1381 25.1178 25.8943 28.6199 25.8943 31.1841C25.8895 32.8074 25.2671 34.368 24.1534 35.549C23.0397 36.7299 21.5182 37.4427 19.898 37.5425L19.8929 37.5391ZM29.0256 34.3087C28.9248 34.3872 28.8138 34.4505 28.7113 34.5256C29.1055 33.4544 29.3084 32.3222 29.3109 31.1807C29.3109 26.8637 26.1761 22.2376 23.5487 19.1165C23.0521 18.5283 22.4332 18.0555 21.7351 17.7309C21.037 17.4064 20.2766 17.2379 19.5068 17.2373H19.5C18.7285 17.2359 17.966 17.4022 17.2652 17.7246C16.5643 18.047 15.9419 18.5178 15.441 19.1045V19.1045C11.2641 23.9972 9.34564 28.3927 9.73855 32.1698C9.83185 33.0467 10.0558 33.9047 10.4031 34.7152C8.40363 33.2665 6.77828 31.362 5.66181 29.1596C4.54533 26.9573 3.96989 24.5205 3.98318 22.0514C3.96687 20.4405 4.27333 18.8427 4.88449 17.3522C5.49566 15.8617 6.39914 14.5087 7.54164 13.373C7.9357 14.1922 8.40888 14.9709 8.95443 15.6981C9.32101 16.1937 9.82475 16.571 10.4034 16.7836C10.9821 16.9961 11.6103 17.0344 12.2105 16.8939C12.8228 16.7585 13.3827 16.4486 13.8226 16.0017C14.2625 15.5549 14.5635 14.9901 14.6893 14.3758C15.3756 10.748 16.6872 7.26699 18.5655 4.08824C18.6796 3.90879 18.8321 3.75687 19.012 3.64344C19.1919 3.53 19.3948 3.45787 19.6059 3.43224C19.8419 3.40048 20.082 3.42089 20.3093 3.49202C20.5366 3.56316 20.7455 3.68329 20.9213 3.84395C22.3871 5.17645 23.8255 6.40645 25.1921 7.56299C30.8946 12.4061 35.0168 15.9048 35.0168 22.0616C35.024 24.4257 34.488 26.7598 33.4502 28.8838C32.4123 31.0079 30.9002 32.8651 29.0308 34.3121L29.0256 34.3087Z" fill="#CC2845" stroke="white" mask="url(#path-1-inside-1)"/>
</svg>
