<svg width="44" height="46" viewBox="0 0 44 46" fill="none" xmlns="http://www.w3.org/2000/svg">
<path d="M42.1959 43.4233C36.0059 44.1168 31.097 41.3487 31.0478 41.3208C30.8813 41.2248 30.6839 41.1989 30.4987 41.2503C30.4206 41.2715 22.6346 43.3793 16.3636 41.9734C12.4542 41.0956 8.76673 38.3143 6.07411 36.2837C5.71248 36.0111 5.3698 35.7523 5.04806 35.515C4.60865 35.1904 3.90999 34.9205 3.29409 34.6821C3.01755 34.5754 2.63863 34.4287 2.5572 34.3773C2.48674 34.3216 2.44818 34.2397 2.44818 34.146V32.4508C2.48308 31.1094 8.05178 10.4686 8.9153 7.84279C8.93657 7.81191 9.01967 7.75115 9.08082 7.72194L20.1012 2.6382L23.664 7.3228C23.8398 7.56551 23.8232 7.90489 23.6251 8.1288L20.1045 12.1148C19.8742 12.376 19.4863 12.4045 19.2457 12.2014L17.8221 10.8758C17.6552 10.7207 17.4179 10.6693 17.1956 10.7106C16.9725 10.7509 16.7731 10.9114 16.6701 11.1155C16.5511 11.3521 15.4732 11.6422 14.3736 11.6506L14.0153 11.614C13.7282 11.5794 13.4496 11.7308 13.3094 11.9863C13.1684 12.2417 13.1924 12.5573 13.3692 12.7889C13.675 13.188 13.9133 13.5086 14.0482 13.6926L14.7529 25.79C14.3161 27.508 13.916 27.9961 13.8166 28.0938C13.5231 28.1875 13.31 28.4644 13.31 28.7914C13.31 29.1952 13.6344 29.5229 14.0343 29.5229C14.8556 29.5229 15.5536 28.4329 16.114 26.3049C21.8738 21.9523 26.9004 26.0602 27.2946 26.3982C29.124 28.2526 29.2374 29.4843 29.241 29.539C29.2496 29.9351 29.5704 30.254 29.9653 30.254C30.3651 30.254 30.6895 29.9267 30.6895 29.5229C30.6895 29.3547 30.629 27.9115 28.7547 25.8265C30.5223 23.6318 32.5349 22.3676 34.7515 22.0923C38.5732 21.617 41.7857 24.2125 41.8179 24.2384C42.1284 24.4935 42.5837 24.4465 42.8363 24.1336C43.089 23.8211 43.0434 23.3612 42.7343 23.1058C42.5847 22.9826 39.0286 20.0932 34.5893 20.6387C31.9944 20.9566 29.6651 22.3739 27.6572 24.8547C26.0276 23.7355 21.355 21.2024 16.1293 24.5153L15.4811 13.3901C15.4745 13.2699 15.4379 13.1535 15.3758 13.0511C16.0239 12.9735 16.7957 12.8027 17.3554 12.4307L18.2884 13.2991C19.1569 14.0353 20.4289 13.9437 21.1848 13.089L24.7053 9.10265C25.3548 8.36782 25.409 7.25667 24.823 6.44631L20.8983 1.2857C20.6935 1.01613 20.3312 0.92449 20.0231 1.06615L8.48786 6.38756C8.3672 6.44094 7.75529 6.74004 7.5542 7.351C7.14405 8.59441 1 30.7243 1 32.4484V34.1464C1 34.6912 1.24231 35.1951 1.6641 35.5291C1.87516 35.6959 2.19059 35.8222 2.77657 36.0484C3.2552 36.2337 3.91032 36.4865 4.19318 36.6956C4.5116 36.9306 4.84996 37.1861 5.2076 37.456C8.00524 39.5661 11.8366 42.4558 16.0498 43.4014C22.0476 44.7476 29.0884 43.1201 30.5975 42.7361C31.6052 43.2621 35.3026 45 40.1431 45C40.8574 45 41.5969 44.9624 42.3557 44.8768C42.7533 44.8325 43.0394 44.4706 42.9956 44.0695C42.951 43.6673 42.5917 43.3759 42.1959 43.4233Z" fill="#C5C5CD" stroke="#C5C5CD" stroke-width="0.7"/>
</svg>
