<svg width="66" height="66" viewBox="0 0 66 66" fill="none" xmlns="http://www.w3.org/2000/svg">
<rect x="1" y="1" width="64" height="64" rx="19.2" stroke="#C5C5CD" stroke-width="1.28"/>
<path d="M45.9259 46.0708C41.9643 46.5147 38.8226 44.7431 38.7912 44.7252C38.6846 44.6638 38.5582 44.6472 38.4397 44.6801C38.3897 44.6937 33.4067 46.0427 29.3933 45.1429C26.8912 44.5811 24.5313 42.8011 22.808 41.5015C22.5765 41.3271 22.3572 41.1614 22.1513 41.0095C21.8701 40.8018 21.4229 40.629 21.0288 40.4765C20.8518 40.4082 20.6093 40.3143 20.5572 40.2814C20.5121 40.2457 20.4874 40.1933 20.4874 40.1334V39.0484C20.5097 38.1899 24.0737 24.9798 24.6263 23.2993C24.64 23.2795 24.6931 23.2407 24.7323 23.222L31.7853 19.9684L34.0655 22.9665C34.178 23.1218 34.1674 23.3391 34.0406 23.4824L31.7875 26.0334C31.64 26.2006 31.3918 26.2188 31.2378 26.0888L30.3267 25.2404C30.2199 25.1412 30.068 25.1083 29.9257 25.1347C29.783 25.1605 29.6553 25.2632 29.5894 25.3938C29.5132 25.5453 28.8234 25.7309 28.1197 25.7363L27.8904 25.7129C27.7066 25.6907 27.5283 25.7876 27.4385 25.9511C27.3483 26.1146 27.3637 26.3166 27.4768 26.4648C27.6725 26.7203 27.8251 26.9254 27.9114 27.0432L28.3624 34.7855C28.0829 35.8851 27.8268 36.1974 27.7632 36.26C27.5753 36.3199 27.439 36.4972 27.439 36.7064C27.439 36.9649 27.6466 37.1746 27.9025 37.1746C28.4281 37.1746 28.8748 36.477 29.2335 35.1151C32.9198 32.3294 36.1368 34.9584 36.3891 35.1748C37.5599 36.3616 37.6325 37.1498 37.6348 37.1849C37.6403 37.4384 37.8456 37.6425 38.0983 37.6425C38.3542 37.6425 38.5618 37.433 38.5618 37.1746C38.5618 37.0669 38.5231 36.1433 37.3236 34.8089C38.4548 33.4043 39.7429 32.5952 41.1615 32.419C43.6074 32.1148 45.6634 33.7759 45.684 33.7925C45.8827 33.9558 46.1741 33.9257 46.3358 33.7255C46.4975 33.5254 46.4683 33.2311 46.2705 33.0676C46.1748 32.9888 43.8989 31.1396 41.0577 31.4887C39.397 31.6922 37.9062 32.5992 36.6212 34.1869C35.5782 33.4707 32.5877 31.8494 29.2433 33.9697L28.8285 26.8496C28.8242 26.7727 28.8008 26.6981 28.761 26.6326C29.1758 26.583 29.6698 26.4736 30.028 26.2356L30.6251 26.7914C31.181 27.2625 31.9951 27.2039 32.4788 26.6569L34.732 24.1056C35.1476 23.6353 35.1823 22.9242 34.8073 22.4056L32.2954 19.1028C32.1644 18.9302 31.9325 18.8716 31.7353 18.9623L24.3528 22.368C24.2756 22.4021 23.8839 22.5935 23.7552 22.9846C23.4927 23.7803 19.5605 37.9435 19.5605 39.0469V40.1336C19.5605 40.4823 19.7156 40.8048 19.9856 41.0185C20.1206 41.1253 20.3225 41.2061 20.6976 41.3509C21.0039 41.4695 21.4232 41.6313 21.6042 41.7651C21.808 41.9155 22.0245 42.079 22.2534 42.2517C24.0439 43.6022 26.496 45.4516 29.1924 46.0568C33.031 46.9184 37.5371 45.8768 38.5029 45.631C39.1479 45.9677 41.5142 47.0799 44.6121 47.0799C45.0693 47.0799 45.5426 47.0559 46.0282 47.0011C46.2826 46.9727 46.4658 46.7411 46.4377 46.4844C46.4092 46.227 46.1792 46.0405 45.9259 46.0708Z" fill="#C5C5CD" stroke="#C5C5CD" stroke-width="0.448"/>
</svg>
