<svg width="40" height="40" viewBox="0 0 40 40" fill="none" xmlns="http://www.w3.org/2000/svg">
<mask id="path-1-inside-1" fill="white">
<path d="M39.726 14.6564C39.3851 13.5713 38.704 12.6246 37.7834 11.9565C36.8629 11.2884 35.7517 10.9342 34.6143 10.9464H27.3327L25.121 4.05309C24.7732 2.96802 24.0898 2.02145 23.1693 1.34987C22.2488 0.678289 21.1388 0.316406 19.9993 0.316406C18.8599 0.316406 17.7499 0.678289 16.8294 1.34987C15.9089 2.02145 15.2255 2.96802 14.8777 4.05309L12.666 10.9464H5.38434C4.25058 10.948 3.14633 11.3079 2.22931 11.9746C1.31229 12.6413 0.629413 13.5807 0.278214 14.6587C-0.072985 15.7367 -0.0745394 16.8981 0.273773 17.9771C0.622085 19.056 1.30245 19.9973 2.21768 20.6664L8.14434 24.9998L5.89101 31.9781C5.52686 33.0604 5.52225 34.2314 5.87786 35.3166C6.23347 36.4017 6.93025 37.3429 7.86434 37.9998C8.78243 38.6777 9.895 39.0409 11.0363 39.0352C12.1775 39.0295 13.2864 38.6552 14.1977 37.9681L19.9993 33.6981L25.8027 37.9631C26.7191 38.6372 27.8257 39.0033 28.9633 39.0089C30.1009 39.0144 31.211 38.6591 32.134 37.9939C33.0569 37.3288 33.7452 36.3882 34.0998 35.3072C34.4545 34.2263 34.4572 33.0607 34.1077 31.9781L31.8543 24.9998L37.7877 20.6664C38.7134 20.0057 39.4017 19.0644 39.7508 17.982C40.0999 16.8996 40.0912 15.7335 39.726 14.6564ZM35.821 17.9748L28.9143 23.0231C28.6307 23.23 28.4196 23.5213 28.3112 23.8553C28.2029 24.1893 28.2028 24.549 28.311 24.8831L30.936 32.9998C31.0688 33.4114 31.0677 33.8546 30.9328 34.2656C30.7978 34.6766 30.5361 35.0342 30.1851 35.2871C29.8341 35.5399 29.4119 35.6749 28.9794 35.6727C28.5468 35.6705 28.1261 35.5312 27.7777 35.2748L20.986 30.2748C20.7 30.0646 20.3543 29.9513 19.9993 29.9513C19.6444 29.9513 19.2987 30.0646 19.0127 30.2748L12.221 35.2748C11.8728 35.5346 11.4509 35.6768 11.0165 35.6808C10.582 35.6847 10.1576 35.5502 9.80473 35.2967C9.45187 35.0432 9.18893 34.6839 9.054 34.2709C8.91908 33.8579 8.9192 33.4127 9.05434 32.9998L11.6877 24.8831C11.7959 24.549 11.7958 24.1893 11.6874 23.8553C11.5791 23.5213 11.368 23.23 11.0843 23.0231L4.17768 17.9748C3.82985 17.7201 3.5714 17.362 3.43925 16.9517C3.30709 16.5413 3.30799 16.0997 3.44182 15.6899C3.57564 15.2801 3.83555 14.9231 4.18441 14.6698C4.53328 14.4166 4.95325 14.2801 5.38434 14.2798H13.8843C14.2372 14.2798 14.581 14.1677 14.8661 13.9599C15.1512 13.752 15.363 13.459 15.471 13.1231L18.0543 5.07143C18.1869 4.6594 18.4469 4.30008 18.7967 4.04518C19.1465 3.79027 19.5682 3.65294 20.001 3.65294C20.4338 3.65294 20.8555 3.79027 21.2053 4.04518C21.5552 4.30008 21.8151 4.6594 21.9477 5.07143L24.531 13.1231C24.639 13.459 24.8508 13.752 25.1359 13.9599C25.4211 14.1677 25.7648 14.2798 26.1177 14.2798H34.6177C35.0488 14.2801 35.4687 14.4166 35.8176 14.6698C36.1665 14.9231 36.4264 15.2801 36.5602 15.6899C36.694 16.0997 36.6949 16.5413 36.5628 16.9517C36.4306 17.362 36.1722 17.7201 35.8243 17.9748H35.821Z"/>
</mask>
<path d="M39.726 14.6564C39.3851 13.5713 38.704 12.6246 37.7834 11.9565C36.8629 11.2884 35.7517 10.9342 34.6143 10.9464H27.3327L25.121 4.05309C24.7732 2.96802 24.0898 2.02145 23.1693 1.34987C22.2488 0.678289 21.1388 0.316406 19.9993 0.316406C18.8599 0.316406 17.7499 0.678289 16.8294 1.34987C15.9089 2.02145 15.2255 2.96802 14.8777 4.05309L12.666 10.9464H5.38434C4.25058 10.948 3.14633 11.3079 2.22931 11.9746C1.31229 12.6413 0.629413 13.5807 0.278214 14.6587C-0.072985 15.7367 -0.0745394 16.8981 0.273773 17.9771C0.622085 19.056 1.30245 19.9973 2.21768 20.6664L8.14434 24.9998L5.89101 31.9781C5.52686 33.0604 5.52225 34.2314 5.87786 35.3166C6.23347 36.4017 6.93025 37.3429 7.86434 37.9998C8.78243 38.6777 9.895 39.0409 11.0363 39.0352C12.1775 39.0295 13.2864 38.6552 14.1977 37.9681L19.9993 33.6981L25.8027 37.9631C26.7191 38.6372 27.8257 39.0033 28.9633 39.0089C30.1009 39.0144 31.211 38.6591 32.134 37.9939C33.0569 37.3288 33.7452 36.3882 34.0998 35.3072C34.4545 34.2263 34.4572 33.0607 34.1077 31.9781L31.8543 24.9998L37.7877 20.6664C38.7134 20.0057 39.4017 19.0644 39.7508 17.982C40.0999 16.8996 40.0912 15.7335 39.726 14.6564ZM35.821 17.9748L28.9143 23.0231C28.6307 23.23 28.4196 23.5213 28.3112 23.8553C28.2029 24.1893 28.2028 24.549 28.311 24.8831L30.936 32.9998C31.0688 33.4114 31.0677 33.8546 30.9328 34.2656C30.7978 34.6766 30.5361 35.0342 30.1851 35.2871C29.8341 35.5399 29.4119 35.6749 28.9794 35.6727C28.5468 35.6705 28.1261 35.5312 27.7777 35.2748L20.986 30.2748C20.7 30.0646 20.3543 29.9513 19.9993 29.9513C19.6444 29.9513 19.2987 30.0646 19.0127 30.2748L12.221 35.2748C11.8728 35.5346 11.4509 35.6768 11.0165 35.6808C10.582 35.6847 10.1576 35.5502 9.80473 35.2967C9.45187 35.0432 9.18893 34.6839 9.054 34.2709C8.91908 33.8579 8.9192 33.4127 9.05434 32.9998L11.6877 24.8831C11.7959 24.549 11.7958 24.1893 11.6874 23.8553C11.5791 23.5213 11.368 23.23 11.0843 23.0231L4.17768 17.9748C3.82985 17.7201 3.5714 17.362 3.43925 16.9517C3.30709 16.5413 3.30799 16.0997 3.44182 15.6899C3.57564 15.2801 3.83555 14.9231 4.18441 14.6698C4.53328 14.4166 4.95325 14.2801 5.38434 14.2798H13.8843C14.2372 14.2798 14.581 14.1677 14.8661 13.9599C15.1512 13.752 15.363 13.459 15.471 13.1231L18.0543 5.07143C18.1869 4.6594 18.4469 4.30008 18.7967 4.04518C19.1465 3.79027 19.5682 3.65294 20.001 3.65294C20.4338 3.65294 20.8555 3.79027 21.2053 4.04518C21.5552 4.30008 21.8151 4.6594 21.9477 5.07143L24.531 13.1231C24.639 13.459 24.8508 13.752 25.1359 13.9599C25.4211 14.1677 25.7648 14.2798 26.1177 14.2798H34.6177C35.0488 14.2801 35.4687 14.4166 35.8176 14.6698C36.1665 14.9231 36.4264 15.2801 36.5602 15.6899C36.694 16.0997 36.6949 16.5413 36.5628 16.9517C36.4306 17.362 36.1722 17.7201 35.8243 17.9748H35.821Z" fill="#CC2847" stroke="white" mask="url(#path-1-inside-1)"/>
</svg>
