<svg width="49" height="49" viewBox="0 0 49 49" fill="none" xmlns="http://www.w3.org/2000/svg">
<path d="M0 14C0 6.26801 6.26801 0 14 0H35C42.732 0 49 6.26801 49 14V35C49 42.732 42.732 49 35 49H14C6.26801 49 0 42.732 0 35V14Z" fill="#3AB292"/>
<path d="M30.6722 17.7296L17.6124 18.7187C14.5122 18.9512 13.5356 23.022 16.1901 24.6388L19.2838 26.5232C20.1432 27.0466 20.7063 27.9446 20.8032 28.9462L21.152 32.5518C21.4512 35.6455 25.5357 36.5309 27.1005 33.85L33.6791 22.5248C34.9732 20.2969 33.2414 17.535 30.6722 17.7296Z" stroke="white" stroke-width="1.8" stroke-linecap="round" stroke-linejoin="round"/>
</svg>
