<svg width="509" height="488" viewBox="0 0 509 488" fill="none" xmlns="http://www.w3.org/2000/svg">
<path d="M482.449 223.72L355.562 239.654L368.296 341.053L495.183 325.118L482.449 223.72Z" fill="#FAFAFA"/>
<path d="M482.498 223.714C482.498 223.714 482.274 223.714 481.939 223.826C481.492 223.937 480.934 223.937 480.152 224.049C478.588 224.272 476.243 224.607 473.227 224.942C467.196 225.724 458.373 226.841 447.315 228.293C425.089 231.085 393.37 235.218 355.73 239.909L356.065 239.574C359.863 269.73 364.219 304.353 368.798 340.988L368.351 340.652C415.372 334.733 458.931 329.372 495.23 324.793L495.007 325.128C491.209 294.637 488.082 269.283 485.96 251.524C484.843 242.701 484.061 235.665 483.503 230.974C483.168 228.628 483.056 226.841 482.833 225.501C482.498 224.384 482.498 223.714 482.498 223.714C482.498 223.714 482.609 224.272 482.721 225.501C482.833 226.729 483.168 228.517 483.391 230.862C483.95 235.553 484.955 242.478 486.072 251.301C488.305 269.06 491.544 294.413 495.454 325.016V325.351H495.118C458.819 329.93 415.261 335.403 368.24 341.323H367.904V340.988C363.325 304.353 358.969 269.73 355.172 239.574V239.239H355.507C393.258 234.548 424.978 230.639 447.315 227.846C458.484 226.506 467.196 225.389 473.227 224.719C476.243 224.384 478.477 224.049 480.04 223.937C480.822 223.826 481.381 223.826 481.827 223.714C482.274 223.714 482.498 223.714 482.498 223.714Z" fill="#E0E0E0"/>
<path d="M478.713 230.707L360.803 245.514L371.936 334.168L489.846 319.361L478.713 230.707Z" fill="#EBEBEB"/>
<path d="M371.926 334.174L406.214 273.862L436.035 305.135L451.002 284.584L489.87 319.32L371.926 334.174Z" fill="#E0E0E0"/>
<path d="M441.731 262.581C442.401 267.718 438.715 272.409 433.578 273.079C428.44 273.75 423.749 270.064 423.079 264.926C422.409 259.788 426.094 255.097 431.232 254.427C436.37 253.757 441.061 257.443 441.731 262.581Z" fill="#E0E0E0"/>
<path d="M73.8268 76.2842L68.0189 74.2738L61.6527 52.1593L65.7852 40.6553C65.7852 40.6553 57.0734 36.9696 52.7175 52.3827C48.3616 67.9075 48.585 63.6633 48.585 63.6633C48.585 63.6633 29.5979 56.9619 27.3641 58.0788C25.8004 58.8607 18.5406 77.5128 14.7432 87.6765C12.8445 92.8142 14.2964 98.7337 18.6523 101.638C19.3225 102.084 19.8809 102.419 20.551 102.643C25.242 104.318 50.8188 109.121 50.8188 109.121L60.7592 112.695L73.8268 76.2842Z" fill="#EBEBEB"/>
<path d="M91.472 78.9638L73.8251 117.273L63.8848 113.811L77.7342 75.0547L91.472 78.9638Z" fill="#EBEBEB"/>
<path d="M143.855 28.8165C144.079 25.8009 143.073 22.897 141.622 20.3281C140.058 17.8709 137.936 15.7488 135.255 14.632C132.351 13.4034 129.001 13.5151 126.208 14.7436C124.533 15.5255 123.081 16.6424 121.964 18.0943C121.406 16.5307 120.512 15.0787 119.284 13.9618C117.05 11.8397 113.923 10.6111 110.907 10.7228C108.003 10.8345 105.211 12.0631 102.865 13.8501C100.52 15.6372 98.6212 18.0943 97.7277 20.9982C96.6108 24.5723 96.6108 28.7048 97.951 32.1672C99.403 35.8529 102.084 39.0919 104.987 41.6607C109.902 46.0166 116.491 51.4894 116.491 51.4894C116.491 51.4894 123.528 47.9153 129.671 45.5699C133.357 44.1179 137.042 42.1075 139.611 39.0919C142.18 36.4113 143.632 32.5022 143.855 28.8165Z" fill="#F5F5F5"/>
<path d="M174.682 39.2032C174.347 37.9746 173.677 36.9694 172.783 36.1876C171.89 35.4058 170.773 34.8473 169.544 34.7356C168.316 34.6239 166.976 35.0707 166.082 35.9642C165.524 36.5226 165.077 37.0811 164.853 37.8629C164.407 37.3045 163.848 36.8577 163.29 36.5226C162.173 35.9642 160.833 35.8525 159.604 36.2993C158.487 36.746 157.594 37.5278 156.924 38.533C156.253 39.5382 155.807 40.7668 155.807 41.9954C155.807 43.5591 156.365 45.1227 157.259 46.3513C158.264 47.5799 159.716 48.5851 161.168 49.1435C163.625 50.2604 166.864 51.6007 166.864 51.6007C166.864 51.6007 169.209 49.3669 171.331 47.6916C172.56 46.6864 173.789 45.4578 174.459 43.8941C175.017 42.4422 175.017 40.7668 174.682 39.2032Z" fill="#F5F5F5"/>
<path d="M361.537 0.462196L318.787 147.034L465.359 189.784L508.109 43.2124L361.537 0.462196Z" fill="#FAFAFA"/>
<path d="M465.409 189.76C465.409 189.76 465.52 189.537 465.632 189.09C465.744 188.643 465.967 187.973 466.191 187.079C466.749 185.292 467.419 182.612 468.424 179.149C470.435 172.225 473.339 162.173 477.024 149.328C484.508 123.64 495.118 87.0059 507.851 43.112L508.074 43.4471C465.409 31.0496 415.149 16.4183 361.426 0.670138L361.761 0.446759C346.125 54.1693 331.382 104.429 318.984 147.095L318.761 146.76C362.655 159.604 399.289 170.326 424.977 177.809C437.822 181.607 447.874 184.511 454.798 186.521C458.261 187.526 460.83 188.308 462.617 188.866C463.51 189.09 464.18 189.313 464.627 189.425C465.185 189.648 465.409 189.76 465.409 189.76C465.409 189.76 465.185 189.76 464.739 189.537C464.292 189.425 463.622 189.202 462.728 188.978C460.941 188.42 458.372 187.75 454.91 186.744C447.985 184.734 437.933 181.83 425.089 178.144C399.4 170.661 362.655 160.051 318.649 147.206L318.426 147.095L318.537 146.871C330.935 104.318 345.566 54.0576 361.203 0.335071L361.314 0L361.649 0.111692C415.372 15.7482 465.632 30.4912 508.186 42.8887L508.409 43.0003L508.297 43.2237C495.453 87.2293 484.619 123.863 477.136 149.552C473.339 162.396 470.435 172.448 468.424 179.261C467.419 182.724 466.637 185.292 466.079 187.079C465.855 187.973 465.632 188.643 465.52 189.09C465.409 189.537 465.409 189.76 465.409 189.76Z" fill="#263238"/>
<path d="M497.425 47.1882L366.4 8.97266L328.185 139.997L459.21 178.213L497.425 47.1882Z" fill="#EBEBEB"/>
<path d="M459.155 178.144C459.155 178.144 459.155 177.921 459.266 177.474C459.378 177.027 459.602 176.469 459.825 175.687C460.272 174.123 460.942 171.666 461.835 168.651C463.622 162.508 466.191 153.461 469.542 141.957C476.243 119.061 485.737 86.3357 497.129 47.0211L497.352 47.3561C459.266 36.4106 414.367 23.2313 366.341 9.27011L366.676 9.04673C352.715 57.0731 339.536 101.972 328.478 140.058L328.255 139.723C367.458 151.227 400.183 160.832 423.079 167.534C434.583 170.884 443.518 173.565 449.661 175.352C452.677 176.245 455.134 176.916 456.698 177.474C457.479 177.697 458.038 177.921 458.485 178.033C459.043 178.144 459.155 178.144 459.155 178.144C459.155 178.144 458.931 178.144 458.596 178.033C458.15 177.921 457.591 177.697 456.809 177.474C455.246 177.027 452.9 176.357 449.773 175.464C443.63 173.677 434.583 171.108 423.191 167.757C400.183 161.056 367.458 151.562 328.143 140.17L327.92 140.058L328.032 139.835C339.089 101.749 352.268 56.8497 366.229 8.82335L366.341 8.48828L366.676 8.59997C414.591 22.5611 459.602 35.7404 497.688 46.7977L497.911 46.9094L497.799 47.1328C486.295 86.4473 476.69 119.172 469.989 142.18C466.638 153.573 463.957 162.619 462.17 168.762C461.277 171.778 460.607 174.123 460.048 175.799C459.825 176.581 459.601 177.139 459.49 177.586C459.266 178.033 459.155 178.144 459.155 178.144Z" fill="#263238"/>
<path d="M435.811 124.982L390.465 111.802C388.008 111.132 386.668 108.563 387.338 106.218L395.268 78.8539C395.938 76.3967 398.507 75.0565 400.852 75.7266L446.198 88.9059C448.655 89.5761 449.996 92.1449 449.325 94.4904L441.396 121.854C440.725 124.2 438.268 125.652 435.811 124.982Z" fill="#455A64"/>
<g opacity="0.3">
<g opacity="0.3">
<g opacity="0.3">
<g opacity="0.3">
<g opacity="0.3">
<path opacity="0.3" d="M435.811 124.982L390.465 111.802C388.008 111.132 386.668 108.563 387.338 106.218L395.268 78.8539C395.938 76.3967 398.507 75.0565 400.852 75.7266L446.198 88.9059C448.655 89.5761 449.996 92.1449 449.325 94.4904L441.396 121.854C440.725 124.2 438.268 125.652 435.811 124.982Z" fill="black"/>
</g>
</g>
</g>
</g>
</g>
<path d="M434.024 92.478C434.024 92.478 434.024 92.2546 434.248 91.8079C434.471 91.2494 434.695 90.691 434.918 89.9091C435.476 88.2338 436.37 85.7766 436.928 82.6493C437.487 79.522 437.487 75.6129 435.588 71.9272C434.583 70.1402 433.131 68.4648 431.121 67.4596C429.11 66.3427 426.876 65.5609 424.531 64.8908C419.952 63.5505 415.149 63.1037 411.24 64.7791C409.341 65.5609 407.778 66.7895 406.549 68.2414C405.32 69.6934 404.539 71.1454 403.868 72.5973C402.64 75.5012 402.193 78.0701 401.746 79.8571C401.635 80.6389 401.411 81.3091 401.3 81.8675C401.188 82.3143 401.188 82.5377 401.076 82.5377C401.076 82.5377 401.076 82.3143 401.076 81.8675C401.188 81.4208 401.188 80.7506 401.411 79.8571C401.746 78.0701 402.081 75.5012 403.31 72.4856C403.98 71.0337 404.762 69.3583 405.99 67.9064C407.219 66.4544 408.783 65.1141 410.793 64.2206C412.804 63.3271 415.037 62.992 417.383 63.1037C419.728 63.2154 422.074 63.5505 424.419 64.2206C426.765 64.8908 429.11 65.6726 431.121 66.7895C433.131 67.9064 434.806 69.6934 435.812 71.5921C437.822 75.5012 437.71 79.6337 437.04 82.761C436.37 85.8883 435.476 88.3455 434.806 90.0208C434.471 90.8027 434.248 91.4728 434.024 91.9196C434.136 92.2546 434.024 92.478 434.024 92.478Z" fill="#263238"/>
<path d="M429.11 122.746L383.764 109.567C381.307 108.897 379.967 106.328 380.637 103.982L388.567 76.6185C389.237 74.1614 391.806 72.8211 394.151 73.4913L439.497 86.6706C441.954 87.3407 443.294 89.9096 442.624 92.255L434.694 119.619C434.024 122.076 431.455 123.416 429.11 122.746Z" fill="#455A64"/>
<path d="M429.11 122.746C429.11 122.746 429.78 122.969 430.897 122.857C431.455 122.746 432.237 122.522 432.907 122.075C433.577 121.629 434.247 120.735 434.582 119.73C435.811 115.262 437.598 109.008 439.832 101.19C440.39 99.1792 440.949 97.1688 441.619 95.0467C441.954 94.0415 442.289 92.8129 442.512 91.8077C442.736 90.6908 442.512 89.5739 441.842 88.6804C441.172 87.7869 440.167 87.1167 438.938 86.8933C437.71 86.5583 436.593 86.2232 435.364 85.8881C432.907 85.218 430.338 84.4362 427.769 83.766C417.382 80.7504 406.102 77.5115 394.151 74.0491C392.811 73.6023 391.247 74.0491 390.13 74.9426C389.572 75.3894 389.237 76.0595 389.013 76.7296C388.79 77.5115 388.567 78.1816 388.343 78.8517C387.45 81.7556 386.668 84.6596 385.886 87.4518C384.211 93.0363 382.647 98.509 381.195 103.647C380.972 104.317 380.86 104.875 380.86 105.545C380.86 106.216 381.083 106.774 381.307 107.332C381.865 108.449 382.87 109.231 383.987 109.566C386.444 110.236 388.79 111.018 391.135 111.688C395.715 113.029 399.959 114.257 403.868 115.486C411.686 117.831 417.941 119.618 422.408 120.959C424.53 121.629 426.206 122.075 427.434 122.522C427.993 122.746 428.44 122.857 428.775 122.969C428.886 122.634 429.11 122.746 429.11 122.746C429.11 122.746 428.998 122.746 428.663 122.634C428.328 122.522 427.881 122.411 427.323 122.299C426.094 121.964 424.419 121.517 422.297 120.847C417.829 119.618 411.574 117.831 403.756 115.597C399.847 114.481 395.603 113.252 390.912 111.912C388.567 111.242 386.221 110.571 383.764 109.901C382.424 109.566 381.307 108.673 380.637 107.332C380.302 106.662 380.19 105.992 380.078 105.322C380.078 104.652 380.302 103.87 380.413 103.312C381.865 98.174 383.429 92.7012 385.104 87.1167C385.886 84.3245 386.779 81.4206 387.561 78.5167C387.785 77.7348 388.008 77.0647 388.231 76.2829C388.455 75.5011 388.902 74.8309 389.572 74.2725C390.8 73.1556 392.587 72.7088 394.151 73.1556C406.102 76.6179 417.494 79.9686 427.769 82.9842C430.338 83.7661 432.907 84.4362 435.364 85.218C436.593 85.5531 437.821 85.8881 438.938 86.2232C440.167 86.4466 441.396 87.2284 442.066 88.2336C442.847 89.2388 443.071 90.5791 442.847 91.8077C442.512 93.0363 442.177 94.0415 441.954 95.1584C441.284 97.2804 440.725 99.2909 440.167 101.301C437.821 109.12 436.034 115.374 434.694 119.842C434.359 120.959 433.577 121.74 432.907 122.299C432.125 122.746 431.455 122.969 430.785 123.081C429.668 123.081 429.11 122.746 429.11 122.746Z" fill="#263238"/>
<path d="M397.278 94.3772C397.055 95.9408 395.603 97.0577 393.928 96.8344C392.252 96.611 391.247 95.159 391.47 93.4837C391.694 91.92 393.146 90.8031 394.821 91.0265C396.496 91.2499 397.502 92.7018 397.278 94.3772Z" fill="#455A64"/>
<path d="M349.543 86.996L349.385 88.1016L394.273 94.5135L394.431 93.4079L349.543 86.996Z" fill="#455A64"/>
<path d="M445.417 344.896C445.417 344.896 437.933 340.875 430.897 358.522C423.861 376.169 421.515 386.221 421.515 386.221C421.515 386.221 419.616 390.018 416.936 387.896C414.255 385.774 410.346 379.52 406.325 381.195C402.193 382.87 401.188 387.785 402.64 394.709C404.092 401.634 406.772 416.936 406.995 418.387C407.219 419.728 406.66 421.85 404.65 420.733C402.64 419.616 390.465 408.447 385.551 414.478C380.637 420.51 387.897 439.162 388.678 441.284C389.46 443.294 389.125 444.299 388.12 444.858C387.115 445.528 383.429 441.284 379.855 438.268C376.281 435.253 371.59 432.349 369.021 436.034C366.452 439.72 366.899 454.24 382.759 476.354L390.801 486.071L403.31 484.172C429.892 478.476 439.944 468.089 440.614 463.51C441.172 459.042 435.811 458.037 431.12 457.814C426.429 457.702 420.845 458.261 420.622 457.144C420.286 456.027 420.733 455.133 422.632 454.128C424.531 453.123 442.513 444.188 442.959 436.369C443.406 428.551 426.876 428.663 424.642 428.104C422.409 427.546 423.302 425.647 424.419 424.754C425.536 423.86 437.822 414.367 443.518 410.234C449.326 406.102 451.895 401.857 449.884 397.837C447.985 393.928 440.837 395.938 437.487 395.715C434.136 395.491 435.253 391.359 435.253 391.359C435.253 391.359 440.279 382.312 446.98 364.553C453.682 346.795 445.193 344.673 445.193 344.673" fill="#DF4F6C"/>
<path d="M390.578 486.295C395.492 473.228 402.529 455.246 410.347 435.477C418.165 415.596 425.202 397.726 430.228 384.658C432.685 378.18 434.807 372.931 436.147 369.245C436.817 367.458 437.376 366.006 437.823 365.001C438.046 364.554 438.158 364.219 438.269 363.884C438.381 363.661 438.381 363.549 438.381 363.549C438.381 363.549 438.381 363.661 438.269 363.884C438.158 364.107 438.046 364.554 437.823 365.001C437.488 366.006 436.929 367.458 436.259 369.245C434.919 372.931 432.908 378.18 430.451 384.77C425.537 397.837 418.5 415.819 410.682 435.588C402.864 455.469 395.827 473.339 390.801 486.407" fill="#263238"/>
<path d="M411.574 390.242C411.574 390.242 411.798 390.577 412.021 391.024C412.244 391.582 412.579 392.364 412.915 393.369C413.696 395.38 414.702 398.06 415.707 401.076C416.712 404.092 417.605 406.772 418.276 408.894C418.611 409.788 418.834 410.57 419.057 411.24C419.281 411.798 419.392 412.133 419.281 412.133C419.281 412.133 419.057 411.798 418.834 411.351C418.611 410.793 418.276 410.011 417.941 409.006C417.159 406.996 416.265 404.315 415.26 401.299C414.255 398.284 413.361 395.603 412.579 393.593C412.244 392.699 412.021 391.918 411.798 391.247C411.686 390.466 411.574 390.242 411.574 390.242Z" fill="#263238"/>
<path d="M420.51 412.133C420.51 412.022 425.983 409.788 432.907 407.107C439.832 404.427 445.416 402.305 445.416 402.416C445.416 402.528 439.944 404.762 433.019 407.442C426.206 410.123 420.621 412.245 420.51 412.133Z" fill="#263238"/>
<path d="M407.219 442.065C407.219 442.065 407.554 441.954 408.112 441.954C408.782 441.842 409.676 441.842 410.681 441.73C412.803 441.507 415.707 441.284 418.946 440.837C422.185 440.39 425.089 439.943 427.211 439.608C428.216 439.385 428.998 439.273 429.668 439.161C430.227 439.05 430.562 439.05 430.562 439.05C430.562 439.05 430.227 439.161 429.668 439.273C429.11 439.385 428.216 439.608 427.211 439.832C425.089 440.278 422.185 440.837 418.946 441.284C415.707 441.73 412.692 441.954 410.569 442.065C409.453 442.177 408.671 442.177 408.001 442.177C407.554 442.065 407.219 442.065 407.219 442.065Z" fill="#263238"/>
<path d="M394.709 423.972C394.709 423.972 394.932 424.195 395.267 424.642C395.602 425.089 396.049 425.759 396.719 426.541C397.948 428.104 399.512 430.338 401.187 432.795C402.974 435.252 404.538 437.486 405.655 439.161C406.213 439.943 406.66 440.613 406.995 441.06C407.33 441.507 407.442 441.842 407.442 441.842C407.442 441.842 407.218 441.619 406.883 441.172C406.548 440.725 406.101 440.055 405.431 439.273C404.203 437.709 402.639 435.476 400.964 433.018C399.177 430.561 397.613 428.328 396.496 426.652C395.938 425.87 395.491 425.2 395.156 424.753C394.821 424.307 394.709 423.972 394.709 423.972Z" fill="#263238"/>
<path d="M379.631 448.879C379.631 448.879 379.855 449.214 380.302 449.772C380.748 450.443 381.418 451.224 382.089 452.118C383.652 454.128 385.663 457.032 387.896 460.16C390.13 463.287 392.141 466.191 393.704 468.201C394.374 469.206 394.933 469.988 395.38 470.658C395.826 471.217 395.938 471.552 395.938 471.552C395.938 471.552 395.715 471.217 395.268 470.658C394.821 469.988 394.151 469.206 393.481 468.313C391.917 466.302 389.907 463.399 387.673 460.271C385.439 457.144 383.429 454.24 381.977 452.23C381.307 451.224 380.748 450.443 380.302 449.772C379.743 449.214 379.52 448.879 379.631 448.879Z" fill="#263238"/>
<path d="M395.715 470.994C395.715 470.994 396.162 470.882 396.832 470.771C397.614 470.659 398.73 470.547 400.071 470.324C402.751 469.989 406.437 469.43 410.57 468.872C414.702 468.202 418.388 467.532 421.068 466.973C422.297 466.75 423.414 466.526 424.196 466.415C424.977 466.303 425.312 466.191 425.312 466.191C425.312 466.191 424.866 466.303 424.196 466.526C423.414 466.75 422.409 466.973 421.068 467.308C418.388 467.867 414.702 468.649 410.681 469.319C406.549 469.989 402.863 470.436 400.182 470.659C398.842 470.771 397.725 470.882 396.943 470.882C396.162 470.994 395.715 470.994 395.715 470.994Z" fill="#263238"/>
<path d="M380.861 486.965H115.934C108.786 486.965 103.09 481.157 103.09 474.121V82.6499C103.09 75.5018 108.898 69.8057 115.934 69.8057H380.861C388.009 69.8057 393.705 75.6135 393.705 82.6499V474.009C393.705 481.157 387.897 486.965 380.861 486.965Z" fill="#263238"/>
<path d="M384.435 99.5146H112.025V447.873H384.435V99.5146Z" fill="white"/>
<path d="M259.246 468.459C260.624 462.447 256.867 456.456 250.855 455.078C244.843 453.7 238.852 457.457 237.474 463.469C236.096 469.481 239.852 475.473 245.865 476.851C251.877 478.229 257.868 474.472 259.246 468.459Z" fill="#455A64"/>
<path d="M290.728 86.3361H205.844C205.062 86.3361 204.504 85.7776 204.504 84.9958V83.0971C204.504 82.3153 205.062 81.7568 205.844 81.7568H290.728C291.51 81.7568 292.068 82.3153 292.068 83.0971V84.9958C292.18 85.7776 291.51 86.3361 290.728 86.3361Z" fill="#455A64"/>
<path d="M240.69 422.631C240.69 423.972 239.574 425.2 238.122 425.2C236.781 425.2 235.553 424.083 235.553 422.631C235.553 421.291 236.67 420.062 238.122 420.062C239.574 420.174 240.69 421.291 240.69 422.631Z" fill="#263238"/>
<path d="M250.855 422.631C250.855 423.972 249.738 425.2 248.286 425.2C246.945 425.2 245.717 424.083 245.717 422.631C245.717 421.291 246.834 420.062 248.286 420.062C249.738 420.174 250.855 421.291 250.855 422.631Z" fill="#263238"/>
<path d="M261.019 422.631C261.019 423.972 259.902 425.2 258.45 425.2C257.109 425.2 255.881 424.083 255.881 422.631C255.881 421.291 256.998 420.062 258.45 420.062C259.902 420.174 261.019 421.291 261.019 422.631Z" fill="#263238"/>
<path d="M148.658 128.666H135.814C135.591 128.666 135.367 128.443 135.367 128.219C135.367 127.996 135.591 127.772 135.814 127.772H148.658C148.882 127.772 149.105 127.996 149.105 128.219C149.105 128.443 148.993 128.666 148.658 128.666Z" fill="#263238"/>
<path d="M140.841 132.799C140.729 132.799 140.618 132.799 140.506 132.688L134.698 128.555C134.586 128.443 134.475 128.332 134.475 128.108C134.475 127.997 134.586 127.773 134.698 127.662L140.618 123.641C140.841 123.529 141.176 123.529 141.288 123.752C141.399 123.976 141.399 124.311 141.176 124.423L135.815 128.108L141.064 131.794C141.288 131.906 141.288 132.241 141.176 132.464C141.176 132.688 141.064 132.799 140.841 132.799Z" fill="#263238"/>
<path d="M355.844 128.777H342.999C342.776 128.777 342.553 128.554 342.553 128.331C342.553 128.107 342.776 127.884 342.999 127.884H355.844C356.067 127.884 356.29 128.107 356.29 128.331C356.402 128.554 356.179 128.777 355.844 128.777Z" fill="#263238"/>
<path d="M350.706 132.798C350.594 132.798 350.371 132.686 350.259 132.575C350.147 132.351 350.147 132.016 350.371 131.904L355.732 128.219L350.482 124.533C350.259 124.421 350.259 124.086 350.371 123.863C350.482 123.639 350.817 123.639 351.041 123.751L356.849 127.884C356.96 127.995 357.072 128.107 357.072 128.33C357.072 128.442 356.96 128.665 356.849 128.777L350.929 132.798C350.929 132.798 350.817 132.798 350.706 132.798Z" fill="#263238"/>
<path d="M288.495 137.154C288.495 137.266 270.625 137.377 248.51 137.377C226.396 137.377 208.525 137.266 208.525 137.154C208.525 137.042 226.396 136.931 248.51 136.931C270.625 136.931 288.495 137.042 288.495 137.154Z" fill="#E0E0E0"/>
<path d="M261.69 140.393C261.69 140.505 255.77 140.617 248.622 140.617C241.363 140.617 235.555 140.505 235.555 140.393C235.555 140.282 241.474 140.17 248.622 140.17C255.77 140.17 261.69 140.282 261.69 140.393Z" fill="#E0E0E0"/>
<path d="M353.721 167.311C353.721 167.422 333.171 167.646 307.705 167.646C282.24 167.646 261.689 167.534 261.689 167.311C261.689 167.199 282.24 166.976 307.705 166.976C333.059 167.087 353.721 167.199 353.721 167.311Z" fill="#263238"/>
<path d="M353.72 178.256C353.72 178.368 329.707 178.591 299.998 178.591C270.289 178.591 246.275 178.479 246.275 178.256C246.275 178.144 270.289 177.921 299.998 177.921C329.596 177.921 353.72 178.033 353.72 178.256Z" fill="#263238"/>
<path d="M353.72 188.308C353.72 188.419 329.707 188.643 299.998 188.643C270.289 188.643 246.275 188.531 246.275 188.308C246.275 188.084 270.289 187.973 299.998 187.973C329.596 187.973 353.72 188.084 353.72 188.308Z" fill="#263238"/>
<path d="M353.72 198.359C353.72 198.471 329.707 198.695 299.998 198.695C270.289 198.695 246.275 198.583 246.275 198.359C246.275 198.248 270.289 198.024 299.998 198.024C329.596 198.024 353.72 198.248 353.72 198.359Z" fill="#263238"/>
<path d="M353.72 208.412C353.72 208.524 329.707 208.747 299.998 208.747C270.289 208.747 246.275 208.636 246.275 208.412C246.275 208.189 270.289 208.077 299.998 208.077C329.596 208.189 353.72 208.301 353.72 208.412Z" fill="#263238"/>
<path d="M353.72 218.464C353.72 218.576 329.707 218.799 299.998 218.799C270.289 218.799 246.275 218.687 246.275 218.464C246.275 218.352 270.289 218.129 299.998 218.129C329.596 218.241 353.72 218.352 353.72 218.464Z" fill="#263238"/>
<path d="M353.72 228.628C353.72 228.74 329.707 228.963 299.998 228.963C270.289 228.963 246.275 228.851 246.275 228.628C246.275 228.405 270.289 228.293 299.998 228.293C329.596 228.293 353.72 228.405 353.72 228.628Z" fill="#263238"/>
<path d="M353.72 238.01C353.72 238.122 329.707 238.345 299.998 238.345C270.289 238.345 246.275 238.233 246.275 238.01C246.275 237.898 270.289 237.675 299.998 237.675C329.596 237.786 353.72 237.898 353.72 238.01Z" fill="#263238"/>
<path d="M299.998 248.733C299.998 248.844 287.935 249.068 273.192 249.068C258.337 249.068 246.387 248.956 246.387 248.733C246.387 248.621 258.449 248.397 273.192 248.397C287.935 248.509 299.998 248.621 299.998 248.733Z" fill="#263238"/>
<path d="M353.72 286.26C353.72 286.372 329.707 286.595 299.998 286.595C270.289 286.595 246.275 286.483 246.275 286.26C246.275 286.148 270.289 285.925 299.998 285.925C329.596 286.036 353.72 286.148 353.72 286.26Z" fill="#263238"/>
<path d="M353.72 297.205C353.72 297.317 329.707 297.54 299.998 297.54C270.289 297.54 246.275 297.429 246.275 297.205C246.275 297.094 270.289 296.87 299.998 296.87C329.596 296.982 353.72 297.094 353.72 297.205Z" fill="#263238"/>
<path d="M353.72 307.816C353.72 307.927 329.707 308.151 299.998 308.151C270.289 308.151 246.275 308.039 246.275 307.816C246.275 307.592 270.289 307.48 299.998 307.48C329.596 307.592 353.72 307.704 353.72 307.816Z" fill="#263238"/>
<path d="M353.72 318.538C353.72 318.65 329.707 318.873 299.998 318.873C270.289 318.873 246.275 318.762 246.275 318.538C246.275 318.315 270.289 318.203 299.998 318.203C329.596 318.203 353.72 318.315 353.72 318.538Z" fill="#263238"/>
<path d="M299.998 328.813C299.998 328.924 287.935 329.148 273.192 329.148C258.337 329.148 246.387 329.036 246.387 328.813C246.387 328.701 258.449 328.478 273.192 328.478C287.935 328.478 299.998 328.701 299.998 328.813Z" fill="#263238"/>
<path d="M244.377 155.359H256.887L256.998 159.157H256.44C256.216 157.928 255.881 157.258 255.435 156.811C254.988 156.476 254.206 156.253 252.866 156.253H251.637V167.534C251.637 168.427 251.749 168.874 252.084 169.097C252.307 169.321 252.977 169.432 253.871 169.544V169.991H247.393V169.544C248.286 169.432 248.957 169.321 249.18 169.097C249.403 168.874 249.515 168.315 249.515 167.31V156.253H248.286C247.058 156.253 246.276 156.476 245.829 156.811C245.383 157.146 245.047 157.928 244.824 159.157H244.266L244.377 155.359Z" fill="#263238"/>
<path d="M306.475 386.667C307.368 387.225 308.373 387.56 309.379 387.56C312.953 387.56 314.963 384.545 314.851 381.864C315.186 381.641 315.521 381.306 315.856 380.859C315.521 380.971 315.186 381.082 314.74 381.194C315.186 380.971 315.41 380.636 315.633 380.189C315.298 380.412 314.851 380.524 314.405 380.636C314.069 380.301 313.511 380.077 313.064 380.077C311.836 380.077 310.942 381.194 311.166 382.423C309.602 382.311 308.15 381.529 307.256 380.412C306.81 381.306 307.033 382.423 307.815 382.981C307.48 382.981 307.256 382.869 306.921 382.758C306.921 383.651 307.48 384.433 308.485 384.656C308.262 384.768 307.927 384.768 307.592 384.656C307.815 385.438 308.485 385.997 309.379 385.997C308.485 386.443 307.48 386.778 306.475 386.667Z" fill="#D93D5B"/>
<path d="M334.508 379.185C335.849 379.185 336.072 379.185 336.519 379.185C336.966 379.185 337.301 379.296 337.412 379.408C337.636 379.52 337.859 379.631 337.971 379.743C338.194 379.966 338.306 380.078 338.306 380.301C338.418 380.525 338.418 380.748 338.529 381.195C338.529 381.753 338.529 381.865 338.529 383.205C338.529 384.546 338.529 384.769 338.529 385.216C338.529 385.663 338.418 385.998 338.306 386.109C338.194 386.333 338.082 386.556 337.971 386.668C337.747 386.891 337.636 387.003 337.412 387.003C337.189 387.114 336.966 387.114 336.519 387.226C335.96 387.226 335.849 387.226 334.508 387.226C333.168 387.226 332.945 387.226 332.498 387.226C332.051 387.226 331.716 387.114 331.605 387.003C331.381 386.891 331.158 386.779 331.046 386.668C330.823 386.444 330.711 386.333 330.711 386.109C330.599 385.886 330.599 385.663 330.488 385.216C330.488 384.657 330.488 384.546 330.488 383.205C330.488 381.865 330.488 381.642 330.488 381.195C330.488 380.748 330.599 380.413 330.711 380.301C330.823 380.078 330.934 379.855 331.046 379.743C331.269 379.52 331.381 379.408 331.605 379.408C331.828 379.296 332.051 379.296 332.498 379.185C333.056 379.185 333.168 379.185 334.508 379.185ZM334.508 378.291C333.168 378.291 332.945 378.291 332.386 378.291C331.828 378.291 331.493 378.403 331.158 378.514C330.823 378.626 330.488 378.849 330.264 379.073C329.929 379.408 329.818 379.631 329.706 379.966C329.594 380.301 329.482 380.636 329.482 381.195C329.482 381.753 329.482 381.865 329.482 383.317C329.482 384.769 329.482 384.881 329.482 385.439C329.482 385.998 329.594 386.333 329.706 386.668C329.818 387.003 330.041 387.338 330.264 387.561C330.599 387.896 330.823 388.008 331.158 388.12C331.493 388.231 331.828 388.343 332.386 388.343C332.945 388.343 333.056 388.343 334.508 388.343C335.849 388.343 336.072 388.343 336.631 388.343C337.189 388.343 337.524 388.231 337.859 388.12C338.194 388.008 338.529 387.785 338.753 387.561C339.088 387.226 339.199 387.003 339.311 386.668C339.423 386.333 339.534 385.998 339.534 385.439C339.534 384.881 339.534 384.769 339.534 383.317C339.534 381.865 339.534 381.753 339.534 381.195C339.534 380.636 339.423 380.301 339.311 379.966C339.199 379.631 338.976 379.296 338.753 379.073C338.418 378.738 338.194 378.626 337.859 378.514C337.524 378.403 337.189 378.291 336.631 378.291C336.072 378.291 335.96 378.291 334.508 378.291Z" fill="#D93D5B"/>
<path d="M334.508 380.748C333.056 380.748 331.939 381.865 331.939 383.317C331.939 384.769 333.056 385.886 334.508 385.886C335.96 385.886 337.077 384.769 337.077 383.317C337.189 381.865 335.96 380.748 334.508 380.748ZM334.508 384.992C333.615 384.992 332.833 384.21 332.833 383.317C332.833 382.423 333.615 381.642 334.508 381.642C335.402 381.642 336.184 382.423 336.184 383.317C336.184 384.21 335.513 384.992 334.508 384.992Z" fill="#D93D5B"/>
<path d="M337.859 380.636C337.859 380.971 337.636 381.194 337.301 381.194C336.966 381.194 336.742 380.971 336.742 380.636C336.742 380.301 336.966 380.077 337.301 380.077C337.636 380.077 337.859 380.301 337.859 380.636Z" fill="#D93D5B"/>
<path d="M357.181 387.562H358.856V383.317H360.085L360.196 381.865H358.856C358.856 381.865 358.856 381.307 358.856 381.084C358.856 380.749 358.968 380.637 359.303 380.637C359.526 380.637 360.196 380.637 360.196 380.637V379.073C360.196 379.073 359.191 379.073 358.968 379.073C357.739 379.073 357.181 379.632 357.181 380.749C357.181 381.642 357.181 381.865 357.181 381.865H356.287V383.317H357.181V387.562Z" fill="#D93D5B"/>
<path d="M308.821 409.006C308.821 409.118 295.754 409.341 279.67 409.341C263.587 409.341 250.52 409.229 250.52 409.006C250.52 408.783 263.587 408.671 279.67 408.671C295.865 408.671 308.821 408.894 308.821 409.006Z" fill="#E0E0E0"/>
<path d="M360.423 402.863C360.423 402.975 335.851 403.198 305.584 403.198C275.316 403.198 250.744 403.087 250.744 402.863C250.744 402.64 275.316 402.528 305.584 402.528C335.851 402.528 360.423 402.64 360.423 402.863Z" fill="#E0E0E0"/>
<path d="M215.406 125.33L0.289062 151.201L34.3484 434.402L249.465 408.53L215.406 125.33Z" fill="#FAFAFA"/>
<path d="M249.402 408.447C249.179 406.102 235.441 293.184 215.113 125.315L215.448 125.539C151.004 133.245 77.7357 142.069 0.335067 151.45L0.558446 151.115C13.1793 256.438 24.9067 354.166 34.512 434.247L34.2886 434.024C164.295 418.611 247.392 408.671 249.402 408.447C247.392 408.671 164.406 418.723 34.2886 434.583H34.0652V434.359C24.3482 354.278 12.6209 256.55 0 151.227V150.892H0.335067C77.7357 141.622 151.004 132.798 215.448 125.092H215.672V125.315C235.664 293.184 249.179 406.214 249.402 408.447Z" fill="#263238"/>
<path d="M210.283 134.547L7.91797 158.885L36.8964 399.838L239.262 375.5L210.283 134.547Z" fill="#EBEBEB"/>
<path d="M239.125 375.499C238.902 373.266 227.286 277.995 209.863 134.586L210.198 134.809C150.333 142.069 81.1969 150.334 7.92882 159.157L8.1522 158.822C18.8744 247.839 28.8147 330.712 37.0797 399.736L36.8563 399.512C158.709 385.105 237.115 375.723 239.125 375.499C237.115 375.723 158.709 385.216 36.8563 400.071H36.6329V399.848C28.3679 330.824 18.3159 247.95 7.59375 158.934V158.599H7.92882C81.1969 149.775 150.333 141.51 210.198 134.362H210.421V134.586C227.51 277.995 238.902 373.266 239.125 375.499Z" fill="#263238"/>
<path d="M63.774 418.612C60.8701 418.947 58.3012 416.937 57.9661 414.033C57.6311 411.129 59.6415 408.56 62.5454 408.225C65.4493 407.89 68.0182 409.9 68.3532 412.804C68.4649 413.809 68.3532 414.815 67.7948 415.708L68.8 417.495C68.8 417.607 68.8 417.719 68.8 417.719C68.6883 417.83 68.6883 417.83 68.5766 417.83L66.5662 417.272C65.8961 418.054 64.8909 418.5 63.774 418.612ZM62.6571 408.672C60.0882 409.007 58.1895 411.352 58.5246 413.921C58.8596 416.49 61.2051 418.389 63.774 418.054C64.7792 417.942 65.7844 417.495 66.4545 416.825C66.5662 416.713 66.5662 416.713 66.6779 416.713L68.2415 417.16L67.4597 415.82C67.4597 415.708 67.4597 415.708 67.4597 415.596C67.9065 414.703 68.1299 413.809 68.0182 412.804C67.5714 410.235 65.2259 408.448 62.6571 408.672Z" fill="#263238"/>
<path d="M49.4772 420.286H49.3655C49.1421 420.175 43.2226 417.382 42.8876 414.367C42.6642 412.468 44.0044 410.681 46.0148 410.458C46.9084 410.346 47.8019 410.569 48.472 411.128C49.0305 410.458 49.8123 410.011 50.7058 409.899C52.6045 409.676 54.3915 411.016 54.6149 413.027C54.95 416.042 49.924 420.175 49.7006 420.286C49.5889 420.286 49.5889 420.286 49.4772 420.286Z" fill="#D93D5B"/>
<path d="M49.4772 420.286H49.3655C49.1421 420.175 43.2226 417.382 42.8876 414.367C42.6642 412.468 44.0044 410.681 46.0148 410.458C46.9084 410.346 47.8019 410.569 48.472 411.128C49.0305 410.458 49.8123 410.011 50.7058 409.899C52.6045 409.676 54.3915 411.016 54.6149 413.027C54.95 416.042 49.924 420.175 49.7006 420.286C49.5889 420.286 49.5889 420.286 49.4772 420.286ZM46.0148 410.904C44.3395 411.128 43.1109 412.58 43.3343 414.255C43.6694 416.712 48.5837 419.281 49.4772 419.728C50.259 419.058 54.3915 415.484 54.1682 412.915C53.9448 411.24 52.4928 410.011 50.8175 410.234C50.0357 410.346 49.2538 410.793 48.8071 411.463C48.6954 411.575 48.5837 411.575 48.472 411.463C47.6902 411.128 46.7967 410.793 46.0148 410.904Z" fill="#263238"/>
<path d="M238.121 397.391H238.009L233.541 394.934L229.744 398.396C229.632 398.508 229.521 398.508 229.521 398.396C229.409 398.396 229.409 398.285 229.297 398.173L227.957 387.116C227.957 387.004 228.069 386.892 228.18 386.781L236.78 385.775C236.892 385.775 237.004 385.887 237.116 385.999L238.456 397.056C238.456 397.168 238.456 397.279 238.344 397.279C238.232 397.391 238.232 397.391 238.121 397.391ZM233.43 394.375H233.541L237.786 396.721L236.557 386.446L228.515 387.451L229.744 397.726L233.318 394.487C233.318 394.375 233.318 394.375 233.43 394.375Z" fill="#263238"/>
<path d="M125.538 168.205C124.309 164.854 122.522 161.615 119.618 159.605C116.826 157.594 112.917 156.589 110.013 158.376C108.337 157.036 105.657 156.254 103.423 156.589C100.072 157.036 96.8334 158.376 94.1529 160.275C90.8022 162.62 87.7866 166.418 85.7762 170.103C82.984 175.13 83.4307 181.272 83.9892 186.969C85.1061 198.584 86.223 210.312 87.3399 221.927C87.4515 222.821 87.5632 223.714 88.2334 224.273C88.7918 224.72 89.5737 224.608 90.2438 224.496C104.317 222.821 118.389 220.364 132.127 217.236C128.33 201.153 131.457 183.618 125.538 168.205Z" fill="#263238"/>
<path d="M174.011 330.712C169.432 313.847 162.395 284.138 162.395 284.138L136.93 207.854C132.239 207.966 127.66 207.854 127.66 207.854C127.66 207.854 125.315 200.036 114.704 202.158L96.8338 204.28C96.8338 204.28 90.2442 207.408 88.2338 211.875C86.2233 216.343 85.8883 219.582 83.3194 221.257C80.7506 222.932 70.9219 235.777 71.7037 238.681C72.4856 241.584 69.0232 249.068 69.6933 256.886C70.3635 264.704 71.9271 275.873 71.9271 275.873C71.9271 275.873 66.6777 280.899 69.805 287.489C69.805 287.489 67.4596 295.419 69.9167 301.673L73.4908 307.816C73.4908 307.816 68.7998 324.681 69.805 333.393C70.8102 342.105 74.6077 395.045 74.6077 395.045L150.221 385.775L181.047 374.606C180.936 374.83 178.59 347.689 174.011 330.712Z" fill="#F995A6"/>
<g opacity="0.3">
<g opacity="0.3">
<path opacity="0.3" d="M122.969 210.535C123.639 208.301 122.633 206.403 120.623 205.174C118.948 204.169 116.937 204.057 115.039 203.945C108.449 203.834 101.413 204.392 95.8281 207.855C94.2644 208.86 92.8125 210.088 92.0306 211.764C91.2488 213.439 91.919 214.779 92.8125 216.678L100.072 209.865L122.969 210.535Z" fill="black"/>
</g>
</g>
<path d="M92.9239 167.535L104.875 160.275L108.337 160.051C115.82 158.823 122.41 166.194 123.527 172.337C124.755 179.15 125.872 187.415 125.649 192.553C125.202 202.94 117.496 205.174 117.496 205.174C117.496 205.174 118.054 207.854 118.612 211.317C119.729 217.348 115.597 223.156 109.566 223.938C103.758 224.72 98.3967 220.81 97.3915 215.003L90.1317 171.444C89.9083 169.657 91.1369 167.981 92.9239 167.535Z" fill="white"/>
<path d="M120.736 179.708C120.847 180.378 120.289 181.048 119.619 181.16C118.948 181.272 118.278 180.825 118.167 180.155C118.055 179.484 118.613 178.814 119.284 178.703C119.954 178.591 120.624 179.038 120.736 179.708Z" fill="#263238"/>
<path d="M121.63 176.581C121.518 176.804 120.401 176.134 118.949 176.357C117.497 176.469 116.604 177.362 116.38 177.139C116.268 177.027 116.38 176.692 116.827 176.357C117.274 176.022 117.944 175.575 118.837 175.464C119.731 175.352 120.513 175.575 120.959 175.91C121.518 176.245 121.741 176.469 121.63 176.581Z" fill="#263238"/>
<path d="M114.593 188.642C114.593 188.531 115.486 188.307 116.826 187.972C117.161 187.861 117.497 187.749 117.497 187.526C117.497 187.302 117.385 186.855 117.161 186.52C116.715 185.739 116.268 184.845 115.821 183.84C113.922 180.154 112.471 177.027 112.582 176.915C112.694 176.803 114.369 179.819 116.38 183.505C116.826 184.398 117.273 185.292 117.72 186.185C117.943 186.632 118.167 186.967 118.055 187.526C117.943 187.861 117.72 188.084 117.497 188.084C117.273 188.196 117.05 188.196 116.938 188.196C115.486 188.642 114.704 188.754 114.593 188.642Z" fill="#263238"/>
<path d="M117.499 205.284C117.499 205.284 110.686 206.513 103.426 203.162C103.426 203.162 107.893 209.863 117.945 207.741L117.499 205.284Z" fill="#DADADA"/>
<path d="M114.37 192.105C113.812 191.547 112.807 191.212 112.025 191.435C111.466 191.547 110.796 191.882 110.573 192.44C110.238 192.999 110.238 193.669 110.685 194.116C111.131 194.562 111.913 194.674 112.583 194.339C113.253 194.116 113.812 193.557 114.259 193.111C114.37 192.999 114.594 192.775 114.594 192.664C114.594 192.552 114.594 192.329 114.37 192.105Z" fill="#DADADA"/>
<path d="M110.572 190.095C110.795 190.095 111.019 191.547 112.359 192.552C113.811 193.445 115.375 193.11 115.486 193.334C115.486 193.445 115.151 193.669 114.481 193.78C113.811 193.892 112.806 193.78 111.912 193.222C111.019 192.664 110.572 191.77 110.46 191.212C110.349 190.541 110.46 190.095 110.572 190.095Z" fill="#263238"/>
<path d="M120.512 171.666C120.289 172.001 119.284 171.778 118.167 171.89C116.938 172.001 116.045 172.336 115.822 172.001C115.71 171.89 115.822 171.555 116.268 171.108C116.715 170.773 117.385 170.438 118.167 170.326C118.949 170.214 119.731 170.438 120.177 170.773C120.401 171.108 120.512 171.443 120.512 171.666Z" fill="#263238"/>
<path d="M104.319 181.719C104.431 182.389 105.101 182.947 105.771 182.836C106.441 182.724 107 182.166 106.888 181.495C106.776 180.825 106.106 180.267 105.436 180.379C104.766 180.49 104.207 181.049 104.319 181.719Z" fill="#263238"/>
<path d="M102.419 179.372C102.643 179.484 103.536 178.591 104.876 178.479C106.328 178.255 107.445 178.814 107.557 178.591C107.669 178.479 107.445 178.255 106.887 177.92C106.44 177.697 105.546 177.474 104.765 177.585C103.871 177.697 103.201 178.144 102.866 178.591C102.419 178.926 102.308 179.261 102.419 179.372Z" fill="#263238"/>
<path d="M102.979 176.357C103.314 176.692 104.207 176.133 105.324 176.022C106.441 175.798 107.558 175.91 107.67 175.575C107.782 175.352 107.558 175.128 107.111 174.905C106.665 174.682 105.883 174.57 105.101 174.682C104.319 174.793 103.649 175.24 103.314 175.575C102.867 175.91 102.755 176.245 102.979 176.357Z" fill="#263238"/>
<path d="M95.6051 188.421C95.4934 187.639 94.4882 185.963 93.7063 185.963C91.6959 185.852 88.0102 186.41 88.5686 191.548C89.3505 198.473 96.1635 196.351 96.1635 196.127C96.0518 195.904 95.8284 190.989 95.6051 188.421Z" fill="white"/>
<path d="M93.0374 193.67C93.0374 193.67 92.9257 193.782 92.7024 193.893C92.479 194.005 92.1439 194.117 91.8088 194.005C91.027 193.782 90.2452 192.665 90.1335 191.436C90.0218 190.766 90.1335 190.208 90.2452 189.649C90.3569 189.091 90.692 188.756 91.027 188.644C91.3621 188.532 91.6972 188.756 91.8088 188.867C91.9205 189.091 91.9205 189.202 91.9205 189.202C91.9205 189.202 92.0322 189.091 91.9205 188.756C91.9205 188.644 91.8089 188.421 91.5855 188.309C91.3621 188.197 91.1387 188.197 90.9153 188.197C90.3569 188.309 89.9101 188.867 89.7984 189.426C89.5751 189.984 89.4634 190.654 89.5751 191.436C89.7984 192.888 90.5803 194.117 91.6972 194.228C92.2556 194.34 92.5907 194.117 92.8141 193.893C93.0374 193.782 93.1491 193.67 93.0374 193.67Z" fill="#794742"/>
<path d="M92.477 185.851L94.4874 187.415C100.854 178.926 112.581 158.264 111.911 159.493C111.911 159.493 106.326 158.264 100.854 160.163C95.3809 162.061 85.2172 166.641 86.4458 173.342C87.6744 180.043 92.477 185.851 92.477 185.851Z" fill="#263238"/>
<g opacity="0.3">
<g opacity="0.3">
<path opacity="0.3" d="M141.957 305.806C143.968 305.024 144.749 302.455 146.76 301.561C147.653 301.115 148.659 301.115 149.664 301.115C153.461 300.78 157.147 298.769 159.492 295.642C161.838 292.515 162.731 288.494 161.838 284.696C156.924 286.595 152.009 288.494 147.877 291.844C143.856 295.195 140.729 300.109 141.064 305.359" fill="black"/>
</g>
</g>
<path d="M140.281 286.372L145.865 277.549L146.424 260.46V241.696L145.083 232.538L136.818 207.854C136.818 207.854 147.987 208.301 150.221 212.769C152.455 217.236 166.416 255.322 166.416 255.322C166.416 255.322 169.543 264.034 169.767 265.821C169.99 267.608 171.665 270.847 170.437 273.751C169.208 276.543 162.395 284.25 162.395 284.25L160.161 287.154C160.161 287.154 160.608 289.164 160.385 289.723C160.161 290.058 157.704 294.637 154.8 296.536C153.348 297.541 150.444 296.759 150.333 296.647L140.281 286.372Z" fill="#F995A6"/>
<path d="M82.6499 244.264C82.6499 244.264 82.6499 244.487 82.5382 244.822C82.4265 245.269 82.4265 245.716 82.3148 246.274C82.0914 247.614 81.7564 249.401 81.3096 251.747C80.5278 256.438 79.746 262.804 79.0758 269.952C78.5174 277.1 78.1823 283.578 78.0706 288.269C77.9589 290.503 77.9589 292.402 77.9589 293.854C77.9589 294.412 77.9589 294.971 77.9589 295.417C77.9589 295.752 77.9589 295.976 77.8472 295.976C77.8472 295.976 77.8472 295.752 77.7355 295.417C77.7355 294.971 77.7355 294.524 77.6239 293.854C77.6239 292.513 77.5122 290.615 77.6239 288.269C77.6239 283.578 77.8472 277.1 78.5174 269.841C79.0758 262.692 79.9693 256.214 80.8628 251.635C81.3096 249.29 81.6447 247.503 81.9797 246.162C82.0914 245.604 82.2031 245.045 82.3148 244.71C82.5382 244.375 82.6499 244.264 82.6499 244.264Z" fill="#263238"/>
<path d="M85.1071 219.135C85.1071 219.135 85.1071 219.246 84.8837 219.582C84.6603 219.917 84.5486 220.252 84.2135 220.698C83.5434 221.704 82.7616 223.156 81.6447 224.831C79.4109 228.405 76.2836 233.431 72.7096 239.351L72.5979 239.015C74.4966 240.356 76.8421 241.361 79.2992 242.366C81.7564 243.371 84.3252 244.265 86.7824 245.94C89.1279 247.392 91.0266 249.626 91.8084 252.083C92.7019 254.54 92.9253 257.109 93.037 259.455C93.3721 264.146 93.3721 268.501 92.8136 272.075C92.2552 275.65 91.25 278.442 90.2448 280.117C89.798 281.011 89.3512 281.681 89.0162 282.127C88.6811 282.574 88.5694 282.798 88.5694 282.798C88.4577 282.798 89.1279 281.904 90.0214 280.117C90.9149 278.33 91.9201 275.65 92.3669 272.075C92.9253 268.613 92.8136 264.257 92.4785 259.566C92.2552 257.221 92.0318 254.764 91.25 252.418C90.4681 250.073 88.6811 247.951 86.3356 246.499C83.9902 244.935 81.4213 243.93 78.9641 243.036C76.507 242.031 74.1615 241.026 72.1511 239.574L71.9277 239.462L72.0394 239.239C75.7252 233.431 78.8525 228.405 81.1979 224.831C82.3148 223.156 83.2083 221.704 83.8785 220.698C84.2135 220.252 84.4369 219.917 84.5486 219.582C84.9954 219.246 85.1071 219.135 85.1071 219.135Z" fill="#263238"/>
<path d="M93.7075 276.32C93.7075 276.32 95.2711 261.354 95.9412 254.094C96.6114 246.835 95.8296 243.372 95.4945 239.351C95.1594 235.331 92.3672 215.785 92.3672 215.785L97.0581 212.881C97.0581 212.881 101.972 219.247 107.669 218.465C117.609 217.125 118.391 210.424 118.391 210.424L123.082 210.647C123.082 210.647 122.523 231.31 122.523 236.447C122.523 243.149 122.858 258.115 123.417 262.918C123.975 267.609 127.103 280.006 127.103 280.006L93.7075 276.32Z" fill="#E0E0E0"/>
<g opacity="0.3">
<path opacity="0.3" d="M77.0634 308.04C77.0634 308.04 71.5907 324.682 75.3881 345.679C79.0738 366.677 83.2063 394.152 83.2063 394.152L149.773 386.111C156.474 383.653 162.282 381.531 162.282 381.531C162.282 381.531 150.332 310.832 142.513 304.689C130.898 295.642 77.0634 308.04 77.0634 308.04Z" fill="black"/>
</g>
<path d="M93.7066 276.32C93.7066 276.32 75.1662 304.019 75.2778 316.975C75.3895 329.931 91.4728 393.147 91.4728 393.147L143.855 386.893C143.855 386.893 149.551 330.266 148.658 319.656C147.876 308.934 126.543 278.107 126.543 278.107L93.7066 276.32Z" fill="#263238"/>
<path d="M120.736 304.465C120.736 304.465 125.204 300.891 126.432 299.216C127.773 297.541 128.555 296.647 128.555 296.647C128.555 296.647 133.916 295.084 135.814 292.85C137.825 290.616 140.952 287.377 140.952 287.377L147.207 293.967C147.207 293.967 143.521 299.886 143.298 301.785C142.962 303.684 140.729 309.045 140.729 309.045L128.666 301.785C128.666 301.785 126.097 305.359 124.422 305.806C123.193 306.141 120.848 307.146 120.736 304.465Z" fill="white"/>
<path d="M72.4864 292.18C72.4864 292.18 69.5825 298.434 69.9175 300.556C70.2526 302.678 79.6345 310.162 79.6345 310.162L86.6709 301.562C86.6709 301.562 90.58 302.343 92.032 301.785C93.484 301.226 94.2658 299.886 94.0424 299.104C93.819 298.323 90.4684 298.323 89.2398 298.323C87.8995 298.211 80.4163 295.195 77.9592 295.865C77.9592 295.865 78.2942 291.956 76.5072 291.621C74.6085 291.398 72.4864 292.18 72.4864 292.18Z" fill="white"/>
<path d="M130.228 299.104C130.34 299.104 130.228 300.11 129.558 301.003C129 302.008 128.218 302.455 128.106 302.343C127.994 302.232 128.553 301.562 129.111 300.668C129.67 299.775 130.005 298.993 130.228 299.104Z" fill="#794742"/>
<path d="M127.548 207.854C127.548 207.854 127.66 207.966 127.995 208.078C128.33 208.301 128.665 208.525 129.112 208.86C130.117 209.53 131.457 210.535 133.133 211.652C136.595 214.109 141.51 217.571 146.982 221.592L147.206 221.816L146.982 222.039C144.86 223.938 142.738 226.06 140.728 228.517C134.92 235.442 130.564 242.478 127.548 247.504C125.985 250.073 124.868 252.195 124.086 253.647C123.751 254.317 123.416 254.876 123.192 255.322C122.969 255.657 122.857 255.881 122.857 255.881C122.857 255.881 122.969 255.657 123.081 255.211C123.304 254.764 123.528 254.206 123.974 253.535C124.756 252.083 125.873 249.961 127.325 247.392C130.341 242.255 134.585 235.218 140.393 228.182C142.403 225.725 144.637 223.603 146.647 221.592V222.039C141.174 218.018 136.372 214.444 132.909 211.987C131.234 210.758 129.894 209.753 128.889 208.971C128.442 208.636 128.107 208.413 127.883 208.19C127.66 207.966 127.548 207.854 127.548 207.854Z" fill="#263238"/>
<path d="M158.151 336.743C158.151 336.743 158.263 336.855 158.375 337.19C158.487 337.302 158.487 337.525 158.598 337.748C158.598 337.86 158.71 337.972 158.71 338.084L158.822 338.307C158.822 338.307 158.933 338.419 158.822 338.307C158.822 338.307 158.822 338.307 158.71 338.307C158.598 338.419 158.71 338.419 158.71 338.419C158.487 337.302 157.928 335.738 157.37 333.728C156.253 329.819 154.689 324.346 153.014 318.426C151.338 312.395 149.886 306.922 148.993 303.013C148.546 301.003 148.099 299.439 147.876 298.322C147.653 297.205 147.541 296.535 147.541 296.535C147.541 296.535 147.764 297.094 148.099 298.21C148.435 299.439 148.881 301.003 149.328 302.901C150.445 306.922 151.897 312.283 153.572 318.315C155.248 324.346 156.7 329.707 157.705 333.728C158.263 335.738 158.598 337.302 158.822 338.419V338.53C158.822 338.53 158.822 338.53 158.822 338.642C158.71 338.642 158.71 338.642 158.71 338.642C158.598 338.53 158.598 338.53 158.598 338.53L158.487 338.307C158.487 338.195 158.375 338.084 158.375 337.972C158.375 337.748 158.263 337.637 158.263 337.413C158.151 336.967 158.04 336.855 158.151 336.743Z" fill="#263238"/>
<path d="M92.1433 272.188C92.0316 272.299 91.2498 272.188 90.2446 271.741C89.2394 271.294 88.4575 270.847 88.5692 270.736C88.6809 270.624 89.4627 270.736 90.4679 271.182C91.4732 271.629 92.255 272.076 92.1433 272.188Z" fill="#263238"/>
<path d="M131.681 267.273C131.792 267.385 130.787 268.278 129.335 268.725C127.883 269.172 126.543 269.06 126.543 268.948C126.543 268.725 127.772 268.613 129.112 268.166C130.564 267.72 131.681 267.05 131.681 267.273Z" fill="#263238"/>
<path d="M95.6039 203.052C95.6039 203.052 95.4922 203.276 95.1571 203.611C94.8221 203.946 94.1519 204.393 93.2584 204.616C92.3649 204.839 91.248 204.951 90.1311 204.504C89.0142 204.058 87.8973 203.164 87.3389 201.824C86.7804 200.595 86.6688 199.143 87.1155 197.915C87.5623 196.798 88.3441 195.904 89.1259 195.457C89.9077 195.011 90.5779 194.787 91.1363 194.676C91.5831 194.564 91.9182 194.676 91.9182 194.676C91.9182 194.787 90.8013 194.787 89.3493 195.793C88.6792 196.351 88.009 197.021 87.674 198.138C87.3389 199.143 87.3389 200.483 87.8973 201.6C88.4558 202.717 89.3493 203.611 90.3545 204.058C91.3597 204.504 92.3649 204.393 93.2584 204.281C94.8221 203.834 95.4922 202.941 95.6039 203.052Z" fill="#E0E0E0"/>
<g opacity="0.3">
<g opacity="0.3">
<path opacity="0.3" d="M123.191 255.099C123.191 255.099 129.223 244.935 133.132 240.58C137.153 236.335 142.29 232.761 148.098 231.868C147.093 229.187 145.418 226.73 143.407 224.72C143.519 224.72 128.664 242.255 123.191 255.099Z" fill="black"/>
</g>
</g>
<path d="M162.396 284.139C162.396 284.139 162.285 284.474 161.838 284.921C161.391 285.479 160.944 286.261 160.274 287.154V287.043C160.386 287.49 160.386 287.936 160.498 288.383C160.498 288.606 160.609 288.83 160.609 289.165C160.609 289.5 160.498 289.723 160.386 290.058C159.828 291.064 159.046 292.069 158.264 293.074C157.37 294.079 156.477 295.308 155.248 296.425C154.69 296.983 153.796 297.318 152.903 297.318C152.009 297.318 151.116 297.206 150.334 296.871C147.542 294.079 144.414 290.952 140.952 287.49C140.282 286.931 140.059 286.038 140.059 285.256C140.059 284.474 140.282 283.58 140.505 282.91C141.064 281.347 142.181 280.006 143.521 279.113C144.079 278.666 144.75 278.443 145.308 278.108L145.196 278.219C146.537 275.762 147.877 273.417 149.105 271.183V271.406C147.318 262.359 145.643 254.43 144.526 248.733C143.968 245.941 143.521 243.707 143.298 242.144C143.186 241.362 143.074 240.803 142.963 240.357C142.851 239.91 142.851 239.687 142.851 239.687C142.851 239.687 142.963 239.91 143.074 240.245C143.186 240.692 143.298 241.25 143.521 242.032C143.856 243.596 144.414 245.829 144.973 248.622C146.202 254.318 147.877 262.248 149.776 271.295V271.406V271.518C148.547 273.752 147.207 276.097 145.866 278.554V278.666H145.755C145.196 278.889 144.638 279.224 144.079 279.56C142.739 280.453 141.846 281.682 141.175 283.134C140.84 283.804 140.729 284.586 140.729 285.256C140.729 285.926 140.952 286.708 141.399 287.154C144.75 290.505 147.877 293.744 150.669 296.536L150.557 296.425C152.121 296.983 154.02 297.206 155.025 296.09C156.142 294.973 157.147 293.856 158.041 292.851C158.934 291.845 159.716 290.84 160.163 289.835C160.274 289.612 160.386 289.388 160.386 289.165C160.386 288.941 160.386 288.606 160.274 288.383C160.274 287.936 160.163 287.49 160.163 287.043C160.833 286.149 161.391 285.367 161.838 284.921C162.173 284.362 162.285 284.139 162.396 284.139Z" fill="#263238"/>
<path d="M157.815 288.718C157.703 288.829 155.693 285.814 152.231 283.021C148.88 280.229 145.529 278.889 145.529 278.777C145.529 278.666 146.423 279.001 147.763 279.559C149.103 280.118 150.89 281.234 152.566 282.575C154.353 284.027 155.693 285.479 156.475 286.707C157.48 287.936 157.927 288.718 157.815 288.718Z" fill="#263238"/>
<path d="M162.507 268.836C162.507 269.059 159.268 268.166 155.359 269.059C151.45 269.841 148.881 271.963 148.77 271.852C148.77 271.852 149.328 271.182 150.445 270.511C151.562 269.841 153.237 268.948 155.248 268.501C157.258 268.054 159.157 268.054 160.497 268.278C161.725 268.389 162.507 268.724 162.507 268.836Z" fill="#263238"/>
<g opacity="0.3">
<g opacity="0.3">
<path opacity="0.3" d="M91.4734 251.637C90.0215 248.286 87.0059 246.052 83.7669 244.488C80.5279 242.925 77.1772 241.92 73.7148 239.909V240.244C74.385 242.031 75.8369 243.372 77.4006 244.488C78.9642 245.605 80.7513 246.387 82.4266 247.281C87.4526 250.296 91.25 255.322 92.8137 260.907C93.0371 257.891 92.702 254.429 91.4734 251.637Z" fill="black"/>
</g>
</g>
<path d="M117.496 390.354C117.384 390.354 115.485 375.723 113.252 357.741C111.129 339.647 109.454 325.016 109.566 325.016C109.678 325.016 111.576 339.647 113.81 357.629C116.044 375.723 117.607 390.354 117.496 390.354Z" fill="#455A64"/>
<path d="M116.155 312.061C116.267 312.173 114.591 314.742 112.693 318.204C110.794 321.555 109.454 324.459 109.23 324.347C109.119 324.235 110.236 321.331 112.134 317.869C114.145 314.518 116.043 311.949 116.155 312.061Z" fill="#455A64"/>
<path d="M113.588 249.959C113.699 249.959 113.141 250.741 112.136 251.746C111.131 252.752 109.79 254.204 108.003 255.544C106.216 256.884 104.541 257.889 103.312 258.559C102.084 259.23 101.19 259.453 101.19 259.453C101.079 259.341 104.318 257.778 107.668 255.209C111.131 252.417 113.476 249.736 113.588 249.959Z" fill="#455A64"/>
<path d="M78.0694 283.357C78.0694 283.468 77.3993 283.357 76.5058 283.468C75.5005 283.58 74.1603 283.803 72.9317 284.585C71.7031 285.367 70.6979 286.372 70.1395 287.154C69.581 287.936 69.3576 288.494 69.246 288.494C69.1343 288.494 69.246 287.824 69.8044 286.931C70.2512 286.037 71.2564 284.92 72.5966 284.027C73.9369 283.245 75.5005 283.021 76.5058 283.021C77.511 283.021 78.1811 283.357 78.0694 283.357Z" fill="#263238"/>
<path d="M74.6079 274.196C74.7196 274.308 74.0495 274.866 73.2676 275.536C72.4858 276.095 71.704 276.541 71.5923 276.43C71.4806 276.318 72.1508 275.76 72.9326 275.089C73.8261 274.531 74.4962 274.084 74.6079 274.196Z" fill="#263238"/>
<path d="M63.9977 255.88C64.1094 257.332 62.9925 258.673 61.4288 258.673C59.9769 258.784 58.6366 257.667 58.6366 256.104C58.5249 254.652 59.6418 253.311 61.2055 253.311C62.6574 253.2 63.886 254.317 63.9977 255.88Z" fill="#455A64"/>
<path d="M130.453 336.409C130.564 337.861 129.448 339.201 127.884 339.201C126.432 339.313 125.092 338.196 125.092 336.632C124.98 335.18 126.097 333.84 127.661 333.84C129.112 333.84 130.453 334.957 130.453 336.409Z" fill="#455A64"/>
<path d="M41.1017 238.009C41.2134 237.897 45.7927 241.807 51.3771 246.721C56.9616 251.635 61.4291 255.768 61.3175 255.879C61.2058 255.991 56.6265 252.082 51.042 247.168C45.3459 242.253 40.99 238.121 41.1017 238.009Z" fill="#455A64"/>
<path d="M168.874 323.34C168.874 323.34 168.316 323.452 167.199 323.675C165.97 323.898 164.407 324.122 162.508 324.345C158.599 324.903 153.126 325.685 147.207 326.467C146.872 326.467 146.536 326.579 146.201 326.579H146.313C141.175 329.371 136.596 331.94 133.357 333.727C131.794 334.62 130.453 335.291 129.448 335.849C128.555 336.296 127.996 336.631 127.996 336.519C127.996 336.519 128.443 336.184 129.336 335.626C130.342 335.067 131.682 334.285 133.134 333.392C136.373 331.493 140.952 328.924 146.09 326.132C146.425 326.132 146.76 326.02 147.095 326.02C153.126 325.239 158.487 324.457 162.508 324.01C164.407 323.787 165.97 323.563 167.199 323.452C168.204 323.34 168.874 323.34 168.874 323.34Z" fill="#455A64"/>
<path d="M41.5486 230.639C41.5486 230.75 37.0811 230.974 31.6083 230.974C26.1355 230.974 21.668 230.862 21.668 230.639C21.668 230.527 26.1355 230.304 31.6083 230.304C37.0811 230.304 41.5486 230.415 41.5486 230.639Z" fill="#455A64"/>
<path d="M37.3053 233.431C37.3053 233.542 34.178 233.766 30.2688 233.766C26.3597 233.766 23.2324 233.654 23.2324 233.431C23.2324 233.319 26.3597 233.096 30.2688 233.096C34.178 233.096 37.3053 233.319 37.3053 233.431Z" fill="#455A64"/>
<path d="M198.472 320.771C198.472 320.883 193.781 321.33 188.085 321.776C182.277 322.223 177.698 322.335 177.586 322.223C177.586 322.112 182.277 321.665 187.973 321.218C193.781 320.883 198.472 320.66 198.472 320.771Z" fill="#455A64"/>
<path d="M194.562 323.898C194.562 324.01 191.882 324.345 188.643 324.457C185.292 324.568 182.723 324.568 182.611 324.457C182.611 324.345 185.292 324.01 188.531 323.898C191.882 323.787 194.562 323.787 194.562 323.898Z" fill="#455A64"/>
<path d="M471.105 486.965C471.105 487.077 369.691 487.3 244.599 487.3C119.508 487.3 18.0938 487.188 18.0938 486.965C18.0938 486.853 119.508 486.63 244.599 486.63C369.691 486.63 471.105 486.742 471.105 486.965Z" fill="#263238"/>
</svg>
