<svg width="50" height="50" viewBox="0 0 50 50" fill="none" xmlns="http://www.w3.org/2000/svg">
<path fill-rule="evenodd" clip-rule="evenodd" d="M50 25C50 38.8071 38.8071 50 25 50C11.1929 50 0 38.8071 0 25C0 11.1929 11.1929 0 25 0C38.8071 0 50 11.1929 50 25ZM25.5378 19.8763C23.3883 20.7303 19.0923 22.498 12.6499 25.1794C11.6037 25.5768 11.0557 25.9656 11.0058 26.3457C10.9215 26.9882 11.7637 27.2412 12.9106 27.5857C13.0666 27.6326 13.2283 27.6811 13.394 27.7326C14.5223 28.0829 16.0402 28.4929 16.8292 28.5091C17.545 28.5239 18.3439 28.242 19.2258 27.6635C25.2452 23.782 28.3524 21.82 28.5475 21.7777C28.6851 21.7479 28.8759 21.7104 29.0051 21.8201C29.1343 21.9298 29.1216 22.1376 29.1079 22.1933C29.0245 22.5331 25.7184 25.4693 24.0075 26.9887C23.4742 27.4624 23.0959 27.7984 23.0185 27.8751C22.8453 28.047 22.6687 28.2096 22.499 28.3659C21.4507 29.3312 20.6646 30.0552 22.5425 31.2373C23.445 31.8054 24.1671 32.2752 24.8875 32.7439C25.6743 33.2557 26.4591 33.7662 27.4744 34.402C27.7331 34.564 27.9801 34.7323 28.2208 34.8961C29.1364 35.5197 29.959 36.0799 30.9753 35.9906C31.5658 35.9387 32.1758 35.4082 32.4856 33.8262C33.2177 30.0874 34.6568 21.9865 34.9893 18.6484C35.0185 18.3559 34.9818 17.9816 34.9524 17.8173C34.9229 17.653 34.8614 17.4189 34.6379 17.2456C34.3731 17.0404 33.9643 16.9971 33.7815 17.0001C32.9503 17.0141 31.675 17.4377 25.5378 19.8763Z" fill="url(#paint0_linear)"/>
<defs>
<linearGradient id="paint0_linear" x1="-5.95826" y1="-22.3246" x2="74.2201" y2="36.4863" gradientUnits="userSpaceOnUse">
<stop stop-color="#CC283C"/>
<stop offset="1" stop-color="#CC284F"/>
</linearGradient>
</defs>
</svg>
