<svg width="22" height="24" viewBox="0 0 22 24" fill="none" xmlns="http://www.w3.org/2000/svg">
<path d="M20.5 5.31169C16.8925 4.95419 13.2633 4.77002 9.645 4.77002C7.5 4.77002 5.355 4.87835 3.21 5.09502L1 5.31169" stroke="#D1284B" stroke-width="1.6" stroke-linecap="round" stroke-linejoin="round"/>
<path d="M6.95898 4.2175L7.19732 2.79833C7.37065 1.76917 7.50065 1 9.33148 1H12.1698C14.0006 1 14.1415 1.8125 14.304 2.80917L14.5423 4.2175" stroke="#D1284B" stroke-width="1.6" stroke-linecap="round" stroke-linejoin="round"/>
<path d="M18.1717 8.73511L17.4676 19.6443C17.3484 21.3451 17.2509 22.6668 14.2284 22.6668H7.27341C4.25091 22.6668 4.15341 21.3451 4.03424 19.6443L3.33008 8.73511" stroke="#D1284B" stroke-width="1.6" stroke-linecap="round" stroke-linejoin="round"/>
<path d="M8.94141 16.7083H12.5489" stroke="#D1284B" stroke-width="1.6" stroke-linecap="round" stroke-linejoin="round"/>
<path d="M8.04102 12.375H13.4577" stroke="#D1284B" stroke-width="1.6" stroke-linecap="round" stroke-linejoin="round"/>
</svg>
