<svg width="31" height="35" viewBox="0 0 31 35" fill="none" xmlns="http://www.w3.org/2000/svg">
<path d="M2.78125 2.3125C2.16794 2.3125 1.57974 2.55614 1.14607 2.98982C0.712388 3.42349 0.46875 4.01169 0.46875 4.625V6.9375C0.46875 7.55081 0.712388 8.13901 1.14607 8.57268C1.57974 9.00636 2.16794 9.25 2.78125 9.25H3.9375V30.0625C3.9375 31.2891 4.42478 32.4655 5.29213 33.3329C6.15949 34.2002 7.33587 34.6875 8.5625 34.6875H22.4375C23.6641 34.6875 24.8405 34.2002 25.7079 33.3329C26.5752 32.4655 27.0625 31.2891 27.0625 30.0625V9.25H28.2188C28.8321 9.25 29.4203 9.00636 29.8539 8.57268C30.2876 8.13901 30.5312 7.55081 30.5312 6.9375V4.625C30.5312 4.01169 30.2876 3.42349 29.8539 2.98982C29.4203 2.55614 28.8321 2.3125 28.2188 2.3125H20.125C20.125 1.69919 19.8814 1.11099 19.4477 0.677316C19.014 0.243638 18.4258 0 17.8125 0L13.1875 0C12.5742 0 11.986 0.243638 11.5523 0.677316C11.1186 1.11099 10.875 1.69919 10.875 2.3125H2.78125ZM9.71875 11.5625C10.0254 11.5625 10.3195 11.6843 10.5363 11.9012C10.7532 12.118 10.875 12.4121 10.875 12.7188V28.9062C10.875 29.2129 10.7532 29.507 10.5363 29.7238C10.3195 29.9407 10.0254 30.0625 9.71875 30.0625C9.41209 30.0625 9.118 29.9407 8.90116 29.7238C8.68432 29.507 8.5625 29.2129 8.5625 28.9062V12.7188C8.5625 12.4121 8.68432 12.118 8.90116 11.9012C9.118 11.6843 9.41209 11.5625 9.71875 11.5625ZM15.5 11.5625C15.8067 11.5625 16.1008 11.6843 16.3176 11.9012C16.5344 12.118 16.6562 12.4121 16.6562 12.7188V28.9062C16.6562 29.2129 16.5344 29.507 16.3176 29.7238C16.1008 29.9407 15.8067 30.0625 15.5 30.0625C15.1933 30.0625 14.8992 29.9407 14.6824 29.7238C14.4656 29.507 14.3438 29.2129 14.3438 28.9062V12.7188C14.3438 12.4121 14.4656 12.118 14.6824 11.9012C14.8992 11.6843 15.1933 11.5625 15.5 11.5625ZM22.4375 12.7188V28.9062C22.4375 29.2129 22.3157 29.507 22.0988 29.7238C21.882 29.9407 21.5879 30.0625 21.2812 30.0625C20.9746 30.0625 20.6805 29.9407 20.4637 29.7238C20.2468 29.507 20.125 29.2129 20.125 28.9062V12.7188C20.125 12.4121 20.2468 12.118 20.4637 11.9012C20.6805 11.6843 20.9746 11.5625 21.2812 11.5625C21.5879 11.5625 21.882 11.6843 22.0988 11.9012C22.3157 12.118 22.4375 12.4121 22.4375 12.7188Z" fill="white"/>
</svg>
