<svg width="22" height="24" viewBox="0 0 22 24" fill="none" xmlns="http://www.w3.org/2000/svg">
<path d="M20.5 5.31169C16.8925 4.95419 13.2633 4.77002 9.645 4.77002C7.5 4.77002 5.355 4.87835 3.21 5.09502L1 5.31169" stroke="white" stroke-width="1.6" stroke-linecap="round" stroke-linejoin="round"/>
<path d="M6.9585 4.2175L7.19683 2.79833C7.37016 1.76917 7.50016 1 9.33099 1H12.1693C14.0002 1 14.141 1.8125 14.3035 2.80917L14.5418 4.2175" stroke="white" stroke-width="1.6" stroke-linecap="round" stroke-linejoin="round"/>
<path d="M18.1708 8.73511L17.4666 19.6443C17.3474 21.3451 17.2499 22.6668 14.2274 22.6668H7.27244C4.24993 22.6668 4.15244 21.3451 4.03327 19.6443L3.3291 8.73511" stroke="white" stroke-width="1.6" stroke-linecap="round" stroke-linejoin="round"/>
<path d="M8.94092 16.7083H12.5484" stroke="white" stroke-width="1.6" stroke-linecap="round" stroke-linejoin="round"/>
<path d="M8.0415 12.375H13.4582" stroke="white" stroke-width="1.6" stroke-linecap="round" stroke-linejoin="round"/>
</svg>
