<svg width="50" height="50" viewBox="0 0 50 50" fill="none" xmlns="http://www.w3.org/2000/svg">
<circle cx="25" cy="25" r="25" fill="url(#paint0_linear)"/>
<path d="M21.1793 36C30.9882 36 36.3548 28.3046 36.3548 21.6332C36.3548 21.4169 36.3497 21.1957 36.3396 20.9794C37.3835 20.2647 38.2845 19.3793 39 18.3651C38.0277 18.7746 36.9954 19.0421 35.9384 19.1583C37.0514 18.5267 37.8847 17.5345 38.284 16.3656C37.2369 16.9531 36.0919 17.3675 34.8979 17.5911C34.0934 16.7818 33.0297 16.246 31.8713 16.0664C30.7129 15.8869 29.5243 16.0736 28.4892 16.5978C27.4541 17.1219 26.6303 17.9542 26.145 18.9661C25.6597 19.978 25.54 21.113 25.8045 22.1957C23.6844 22.095 21.6103 21.5736 19.7166 20.6653C17.823 19.757 16.1522 18.4821 14.8124 16.9233C14.1314 18.0348 13.9231 19.35 14.2296 20.6017C14.5362 21.8534 15.3347 22.9476 16.4628 23.662C15.6158 23.6365 14.7875 23.4207 14.0461 23.0322V23.0947C14.0453 24.2611 14.4713 25.3918 15.2515 26.2945C16.0317 27.1972 17.1181 27.8163 18.3259 28.0464C17.5414 28.2497 16.718 28.2793 15.9194 28.133C16.2602 29.1361 16.9234 30.0135 17.8163 30.6426C18.7091 31.2718 19.7872 31.6213 20.9 31.6425C19.0108 33.0474 16.677 33.8095 14.2746 33.8058C13.8486 33.8052 13.4229 33.7805 13 33.7318C15.4406 35.2141 18.2797 36.0014 21.1793 36Z" fill="white"/>
<defs>
<linearGradient id="paint0_linear" x1="-5.95826" y1="-22.3246" x2="74.2201" y2="36.4863" gradientUnits="userSpaceOnUse">
<stop stop-color="#CC283C"/>
<stop offset="1" stop-color="#CC284F"/>
</linearGradient>
</defs>
</svg>
