<svg width="92" height="92" viewBox="0 0 92 92" fill="none" xmlns="http://www.w3.org/2000/svg">
<path d="M0 14C0 6.26802 6.26801 0 14 0H78C85.732 0 92 6.26801 92 14V78C92 85.732 85.732 92 78 92H14C6.26802 92 0 85.732 0 78V14Z" fill="white"/>
<g clip-path="url(#clip0)">
<path fill-rule="evenodd" clip-rule="evenodd" d="M67.0146 35.6568C67.312 34.6785 67.0146 33.9583 65.5902 33.9583H60.8871C59.6903 33.9583 59.1384 34.58 58.8392 35.2662C58.8392 35.2662 56.4473 40.9923 53.0593 44.7118C51.9628 45.7904 51.4647 46.1326 50.8663 46.1326C50.5671 46.1326 50.1174 45.7904 50.1174 44.8104V35.6568C50.1174 34.4814 49.7877 33.9583 48.7915 33.9583H41.3955C40.6484 33.9583 40.1987 34.5029 40.1987 35.0207C40.1987 36.1333 41.8936 36.3913 42.0674 39.5232V46.3279C42.0674 47.8204 41.7933 48.0909 41.1949 48.0909C39.6003 48.0909 35.7213 42.3379 33.419 35.7553C32.9729 34.4743 32.5214 33.9583 31.3192 33.9583H26.6125C25.2687 33.9583 25 34.58 25 35.2662C25 36.4881 26.5946 42.5583 32.4265 50.5867C36.3144 56.0692 41.7879 59.0416 46.7741 59.0416C49.7644 59.0416 50.1335 58.3823 50.1335 57.2445V53.1004C50.1335 51.78 50.4166 51.5166 51.3644 51.5166C52.0631 51.5166 53.2582 51.8606 56.0496 54.5033C59.2388 57.6369 59.7637 59.0416 61.559 59.0416H66.2621C67.6058 59.0416 68.2795 58.3823 67.8925 57.0779C67.4661 55.7808 65.9432 53.8977 63.924 51.6635C62.8275 50.3914 61.1827 49.0208 60.6828 48.3346C59.9859 47.4549 60.1847 47.0625 60.6828 46.2795C60.6828 46.2795 66.4162 38.3496 67.0128 35.6568H67.0146Z" fill="#5F83AA"/>
</g>
<defs>
<clipPath id="clip0">
<rect width="43" height="43" fill="white" transform="translate(25 25)"/>
</clipPath>
</defs>
</svg>
