<svg width="31" height="31" viewBox="0 0 31 31" fill="none" xmlns="http://www.w3.org/2000/svg">
<path d="M10.9779 24.5413H10.332C5.16536 24.5413 2.58203 23.2497 2.58203 16.7913V10.333C2.58203 5.16634 5.16536 2.58301 10.332 2.58301H20.6654C25.832 2.58301 28.4154 5.16634 28.4154 10.333V16.7913C28.4154 21.958 25.832 24.5413 20.6654 24.5413H20.0195C19.6191 24.5413 19.2316 24.7351 18.9862 25.058L17.0487 27.6413C16.1962 28.778 14.8012 28.778 13.9487 27.6413L12.0112 25.058C11.8045 24.7738 11.3266 24.5413 10.9779 24.5413Z" stroke="#BEFFEE" stroke-width="2" stroke-miterlimit="10" stroke-linecap="round" stroke-linejoin="round"/>
<path d="M20.6622 14.2083H20.6738" stroke="#BEFFEE" stroke-width="2" stroke-linecap="round" stroke-linejoin="round"/>
<path d="M15.4942 14.2083H15.5058" stroke="#BEFFEE" stroke-width="2" stroke-linecap="round" stroke-linejoin="round"/>
<path d="M10.3262 14.2083H10.3378" stroke="#BEFFEE" stroke-width="2" stroke-linecap="round" stroke-linejoin="round"/>
</svg>
