<svg width="26" height="24" viewBox="0 0 26 24" fill="none" xmlns="http://www.w3.org/2000/svg">
<path d="M14.9004 2.51639L16.8362 6.24252C17.1002 6.76121 17.8041 7.25874 18.398 7.35401L21.9066 7.91504C24.1504 8.27495 24.6783 9.84162 23.0615 11.3871L20.3338 14.0123C19.8718 14.4569 19.6189 15.3144 19.7619 15.9283L20.5428 19.1781C21.1587 21.7504 19.7399 22.7455 17.3751 21.4011L14.0865 19.5274C13.4926 19.1887 12.5137 19.1887 11.9087 19.5274L8.62009 21.4011C6.26635 22.7455 4.83651 21.7398 5.45244 19.1781L6.23336 15.9283C6.37634 15.3144 6.12337 14.4569 5.66142 14.0123L2.93372 11.3871C1.3279 9.84162 1.84484 8.27495 4.0886 7.91504L7.59721 7.35401C8.18014 7.25874 8.88406 6.76121 9.14804 6.24252L11.0838 2.51639C12.1397 0.494538 13.8555 0.494538 14.9004 2.51639Z" stroke="white" stroke-width="2" stroke-linecap="round" stroke-linejoin="round"/>
</svg>
