<svg width="22" height="22" fill="none" xmlns="http://www.w3.org/2000/svg"><path d="M20.166 6.92c0 .606-.495 1.1-1.1 1.1H2.933c-.605 0-1.1-.494-1.1-1.1v-.008a3.79 3.79 0 013.795-3.795h10.734c2.1 0 3.804 1.705 3.804 3.804zM1.833 10.496v4.592a3.79 3.79 0 003.795 3.795h10.734c2.1 0 3.804-1.705 3.804-3.804v-4.583c0-.605-.495-1.1-1.1-1.1H2.933c-.605 0-1.1.495-1.1 1.1zm5.5 5.316H5.5a.692.692 0 01-.688-.687c0-.376.312-.688.688-.688h1.833c.376 0 .688.312.688.688a.692.692 0 01-.688.687zm5.958 0H9.625a.692.692 0 01-.688-.687c0-.376.312-.688.688-.688h3.666c.376 0 .688.312.688.688a.692.692 0 01-.688.687z" fill="#CFCCD4"/></svg>