<svg width="31" height="31" fill="none" xmlns="http://www.w3.org/2000/svg"><path d="M10.978 24.541h-.646c-5.167 0-7.75-1.291-7.75-7.75v-6.458c0-5.167 2.583-7.75 7.75-7.75h10.333c5.167 0 7.75 2.583 7.75 7.75v6.458c0 5.167-2.583 7.75-7.75 7.75h-.645c-.4 0-.788.194-1.034.517l-1.937 2.583c-.853 1.137-2.248 1.137-3.1 0l-1.938-2.583c-.206-.284-.684-.517-1.033-.517z" stroke="#BEFFEE" stroke-width="2" stroke-miterlimit="10" stroke-linecap="round" stroke-linejoin="round"/><path d="M20.662 14.208h.012m-5.18 0h.012m-5.18 0h.012" stroke="#BEFFEE" stroke-width="2" stroke-linecap="round" stroke-linejoin="round"/></svg>