<svg width="23" height="23" fill="none" xmlns="http://www.w3.org/2000/svg"><path d="M17.288 12.986a1.925 1.925 0 00-.575 1.562c.086 1.035 1.035 1.792 2.07 1.792h1.82v1.14A3.611 3.611 0 0117 21.084H6a3.611 3.611 0 01-3.603-3.604v-6.45A3.611 3.611 0 016 7.427h11a3.611 3.611 0 013.604 3.604v1.38h-1.936a1.91 1.91 0 00-1.38.575z" stroke="#BEBBC3" stroke-width="2" stroke-linecap="round" stroke-linejoin="round"/><path d="M2.396 11.893v-4.38c0-1.14.7-2.156 1.763-2.558l7.609-2.875a1.821 1.821 0 012.463 1.706v3.641m7.388 5.961v1.974a.984.984 0 01-.959.978h-1.878c-1.035 0-1.984-.757-2.07-1.792a1.925 1.925 0 01.575-1.562 1.91 1.91 0 011.38-.575h1.993c.537.019.959.45.959.977zM6.708 11.5h6.708" stroke="#BEBBC3" stroke-width="2" stroke-linecap="round" stroke-linejoin="round"/></svg>