<svg width="19" height="20" fill="none" xmlns="http://www.w3.org/2000/svg"><path d="M10.871 2.926l1.394 2.787c.19.388.696.76 1.124.831l2.525.42c1.615.269 1.995 1.44.832 2.596l-1.964 1.964c-.332.332-.514.974-.412 1.433l.563 2.43c.443 1.924-.578 2.668-2.28 1.663l-2.367-1.402c-.428-.253-1.133-.253-1.568 0L6.351 17.05c-1.694 1.005-2.723.253-2.28-1.663l.562-2.43c.103-.46-.08-1.1-.412-1.433L2.258 9.56c-1.156-1.155-.784-2.327.831-2.596l2.526-.42c.42-.071.926-.443 1.116-.831l1.393-2.787c.76-1.512 1.995-1.512 2.747 0z" stroke="#CD294A" stroke-width="2.5" stroke-linecap="round" stroke-linejoin="round"/></svg>