<svg width="20" height="20" viewBox="0 0 20 20" fill="none" xmlns="http://www.w3.org/2000/svg">
<path d="M10.125 13.75V15.5" stroke="#D22A4B" stroke-width="1.43" stroke-linecap="round" stroke-linejoin="round"/>
<path d="M5.95898 18.332H14.2923V17.4987C14.2923 16.582 13.5423 15.832 12.6256 15.832H7.62565C6.70898 15.832 5.95898 16.582 5.95898 17.4987V18.332V18.332Z" stroke="#D22A4B" stroke-width="1.43" stroke-miterlimit="10"/>
<path d="M5.125 18.332H15.125" stroke="#D22A4B" stroke-width="1.43" stroke-linecap="round" stroke-linejoin="round"/>
<path d="M9.99935 13.3346C6.77435 13.3346 4.16602 10.7263 4.16602 7.5013V5.0013C4.16602 3.15964 5.65768 1.66797 7.49935 1.66797H12.4993C14.341 1.66797 15.8327 3.15964 15.8327 5.0013V7.5013C15.8327 10.7263 13.2243 13.3346 9.99935 13.3346Z" stroke="#D22A4B" stroke-width="1.43" stroke-linecap="round" stroke-linejoin="round"/>
<path d="M4.55853 9.70833C3.93353 9.50833 3.38353 9.14167 2.9502 8.70833C2.2002 7.875 1.7002 6.875 1.7002 5.70833C1.7002 4.54167 2.61686 3.625 3.78353 3.625H4.3252C4.15853 4.00833 4.0752 4.43333 4.0752 4.875V7.375C4.0752 8.20833 4.2502 8.99167 4.55853 9.70833Z" stroke="#D22A4B" stroke-width="1.43" stroke-linecap="round" stroke-linejoin="round"/>
<path d="M15.4419 9.70833C16.0669 9.50833 16.6169 9.14167 17.0502 8.70833C17.8002 7.875 18.3002 6.875 18.3002 5.70833C18.3002 4.54167 17.3836 3.625 16.2169 3.625H15.6752C15.8419 4.00833 15.9252 4.43333 15.9252 4.875V7.375C15.9252 8.20833 15.7502 8.99167 15.4419 9.70833Z" stroke="#D22A4B" stroke-width="1.43" stroke-linecap="round" stroke-linejoin="round"/>
</svg>
