<svg width="19" height="17" viewBox="0 0 19 17" fill="none" xmlns="http://www.w3.org/2000/svg">
<path d="M7.9918 2.1346C8.52897 1.19205 9.88769 1.19205 10.4249 2.1346C10.7834 2.76373 11.5625 3.0157 12.2216 2.71566L12.4464 2.61331C13.3788 2.18883 14.409 2.97157 14.25 3.98361C14.1399 4.68468 14.6183 5.34251 15.3192 5.45365L15.4846 5.47988C16.4988 5.6407 16.8876 6.89509 16.1422 7.60131C15.6269 8.08961 15.6269 8.91039 16.1422 9.39869C16.8876 10.1049 16.4988 11.3593 15.4846 11.5201L15.3192 11.5463C14.6183 11.6575 14.1399 12.3153 14.25 13.0164C14.409 14.0284 13.3788 14.8112 12.4464 14.3867L12.2216 14.2843C11.5625 13.9843 10.7834 14.2363 10.4249 14.8654C9.88769 15.808 8.52897 15.808 7.9918 14.8654C7.63325 14.2363 6.85415 13.9843 6.1951 14.2843L5.97028 14.3867C5.0379 14.8112 4.00765 14.0284 4.16666 13.0164C4.27681 12.3153 3.79835 11.6575 3.09744 11.5463L2.93202 11.5201C1.91788 11.3593 1.52905 10.1049 2.27442 9.39869C2.78978 8.91039 2.78978 8.08961 2.27442 7.60131C1.52905 6.89509 1.91788 5.6407 2.93202 5.47988L3.09744 5.45365C3.79835 5.3425 4.27681 4.68468 4.16666 3.98361C4.00765 2.97157 5.0379 2.18883 5.97028 2.61331L6.1951 2.71566C6.85415 3.0157 7.63325 2.76373 7.9918 2.1346Z" fill="#3AB292"/>
<path d="M6.375 9.03125L7.92045 10.625L12.0417 6.375" stroke="white" stroke-width="1.41667" stroke-linecap="round" stroke-linejoin="round"/>
</svg>
