<svg width="18" height="18" viewBox="0 0 18 18" fill="none" xmlns="http://www.w3.org/2000/svg">
<path d="M9 16.4961C13.1421 16.4961 16.5 13.1382 16.5 8.99609C16.5 4.85396 13.1421 1.49609 9 1.49609C4.85786 1.49609 1.5 4.85396 1.5 8.99609C1.5 13.1382 4.85786 16.4961 9 16.4961Z" stroke="#F4F3F8" stroke-width="1.28571" stroke-linecap="round" stroke-linejoin="round"/>
<path d="M6.82031 6.74554C6.99664 6.2443 7.34468 5.82162 7.80278 5.55239C8.26088 5.28316 8.79948 5.18475 9.3232 5.27458C9.84691 5.36441 10.3219 5.63669 10.6641 6.04319C11.0063 6.44969 11.1936 6.96419 11.1928 7.49554C11.1928 8.99554 8.94281 9.74554 8.94281 9.74554" stroke="#F4F3F8" stroke-width="1.28571" stroke-linecap="round" stroke-linejoin="round"/>
<path d="M9 12.7461H9.00735" stroke="#F4F3F8" stroke-width="1.28571" stroke-linecap="round" stroke-linejoin="round"/>
</svg>
