<svg width="32" height="32" viewBox="0 0 32 32" fill="none" xmlns="http://www.w3.org/2000/svg">
<circle cx="16" cy="16" r="16" fill="white"/>
<path d="M13.9331 3.93177C15.0965 2.84441 16.9035 2.84441 18.0669 3.93177L20.7368 6.4271C21.0745 6.74266 21.4799 6.97673 21.922 7.11135L25.4179 8.17589C26.9413 8.63976 27.8448 10.2046 27.4849 11.7559L26.6588 15.3158C26.5543 15.7659 26.5543 16.2341 26.6588 16.6842L27.4848 20.2441C27.8448 21.7954 26.9413 23.3602 25.4179 23.8241L21.922 24.8887C21.4799 25.0233 21.0745 25.2573 20.7368 25.5729L18.0669 28.0682C16.9035 29.1556 15.0965 29.1556 13.9331 28.0682L11.2632 25.5729C10.9255 25.2573 10.5201 25.0233 10.078 24.8887L6.58206 23.8241C5.05867 23.3602 4.15518 21.7954 4.51515 20.2441L5.34122 16.6842C5.44569 16.2341 5.44569 15.7659 5.34122 15.3158L4.51515 11.7559C4.15518 10.2046 5.05867 8.63977 6.58206 8.17589L10.078 7.11135C10.5201 6.97673 10.9255 6.74266 11.2632 6.4271L13.9331 3.93177Z" fill="#D22A4B"/>
<path d="M11.3141 15.5725L10.4366 14.1775L12.5741 12.625H13.7891V20.5H12.1016V15.0212L11.3141 15.5725ZM15.8415 19.5325C15.3765 18.82 15.144 17.83 15.144 16.5625C15.144 15.295 15.3728 14.3087 15.8303 13.6037C16.2953 12.8912 16.974 12.535 17.8665 12.535C18.7515 12.535 19.4265 12.8912 19.8915 13.6037C20.3565 14.3162 20.589 15.3025 20.589 16.5625C20.589 17.8375 20.3603 18.8275 19.9028 19.5325C19.4453 20.2375 18.774 20.59 17.889 20.59C16.9965 20.59 16.314 20.2375 15.8415 19.5325ZM16.944 16.5625C16.944 18.1975 17.259 19.015 17.889 19.015C18.2115 19.015 18.4403 18.8312 18.5753 18.4637C18.7178 18.0962 18.789 17.4625 18.789 16.5625C18.789 15.6625 18.7178 15.0287 18.5753 14.6612C18.4403 14.2937 18.204 14.11 17.8665 14.11C17.544 14.11 17.3078 14.3012 17.1578 14.6837C17.0153 15.0587 16.944 15.685 16.944 16.5625Z" fill="white"/>
</svg>
