<svg width="16" height="15" viewBox="0 0 16 15" fill="none" xmlns="http://www.w3.org/2000/svg">
<path d="M9.38211 1.08313L10.79 3.74466C10.9819 4.11515 11.4939 4.47053 11.9258 4.53858L14.4775 4.93932C16.1094 5.1964 16.4933 6.31544 15.3175 7.41937L13.3337 9.29453C12.9977 9.6121 12.8137 10.2246 12.9177 10.6631L13.4857 12.9844C13.9336 14.8217 12.9017 15.5325 11.1819 14.5722L8.79017 13.2339C8.35822 12.9919 7.6463 12.9919 7.20635 13.2339L4.81461 14.5722C3.1028 15.5325 2.06292 14.8142 2.51087 12.9844L3.07881 10.6631C3.18279 10.2246 2.99881 9.6121 2.66285 9.29453L0.679071 7.41937C-0.4888 6.31544 -0.112841 5.1964 1.51898 4.93932L4.0707 4.53858C4.49465 4.47053 5.00659 4.11515 5.19857 3.74466L6.60642 1.08313C7.37433 -0.361045 8.62219 -0.361045 9.38211 1.08313Z" fill="#3AB292"/>
</svg>
