<svg width="22" height="24" viewBox="0 0 22 24" fill="none" xmlns="http://www.w3.org/2000/svg">
<path d="M20.5 5.3112C16.8925 4.9537 13.2633 4.76953 9.645 4.76953C7.5 4.76953 5.355 4.87786 3.21 5.09453L1 5.3112" stroke="#D1284B" stroke-width="1.6" stroke-linecap="round" stroke-linejoin="round"/>
<path d="M6.95801 4.2175L7.19634 2.79833C7.36967 1.76917 7.49967 1 9.33051 1H12.1688C13.9997 1 14.1405 1.8125 14.303 2.80917L14.5413 4.2175" stroke="#D1284B" stroke-width="1.6" stroke-linecap="round" stroke-linejoin="round"/>
<path d="M18.1708 8.73438L17.4666 19.6435C17.3474 21.3444 17.2499 22.666 14.2274 22.666H7.27244C4.24993 22.666 4.15244 21.3444 4.03327 19.6435L3.3291 8.73438" stroke="#D1284B" stroke-width="1.6" stroke-linecap="round" stroke-linejoin="round"/>
<path d="M8.94043 16.709H12.5479" stroke="#D1284B" stroke-width="1.6" stroke-linecap="round" stroke-linejoin="round"/>
<path d="M8.04199 12.375H13.4587" stroke="#D1284B" stroke-width="1.6" stroke-linecap="round" stroke-linejoin="round"/>
</svg>
