<svg width="24" height="24" viewBox="0 0 24 24" fill="none" xmlns="http://www.w3.org/2000/svg">
<g clip-path="url(#clip0_80:96587)">
<path d="M13.8177 2.08917C13.6976 2.06705 13.574 2.07163 13.4558 2.10258C13.3377 2.13352 13.2277 2.19008 13.1338 2.26824C13.0399 2.3464 12.9643 2.44426 12.9124 2.55487C12.8606 2.66549 12.8336 2.78616 12.8336 2.90833V5.3075C11.8246 5.17364 10.7983 5.27394 9.83437 5.60063C8.8704 5.92731 7.99461 6.47161 7.2749 7.19132C6.55519 7.91103 6.01089 8.78682 5.68421 9.75079C5.35752 10.7148 5.25722 11.741 5.39108 12.75H2.99191C2.86974 12.7501 2.74907 12.777 2.63845 12.8289C2.52784 12.8807 2.42998 12.9563 2.35182 13.0502C2.27366 13.1441 2.2171 13.2541 2.18616 13.3723C2.15521 13.4905 2.15063 13.614 2.17275 13.7342C2.50276 15.5271 3.31661 17.1957 4.52631 18.5596C5.736 19.9234 7.29552 20.9306 9.03623 21.4723C10.7769 22.014 12.6326 22.0695 14.4026 21.6329C16.1726 21.1963 17.7895 20.2841 19.0786 18.995C20.3677 17.7059 21.2799 16.089 21.7165 14.319C22.1531 12.549 22.0976 10.6934 21.5559 8.95264C21.0142 7.21194 20.007 5.65242 18.6431 4.44272C17.2793 3.23303 15.6107 2.41918 13.8177 2.08917ZM12.0002 13.5833C11.7089 13.5825 11.4228 13.5051 11.1708 13.3588C10.9188 13.2126 10.7097 13.0026 10.5644 12.75H8.66691C8.4459 12.75 8.23394 12.6622 8.07766 12.5059C7.92138 12.3496 7.83358 12.1377 7.83358 11.9167C7.83358 11.6957 7.92138 11.4837 8.07766 11.3274C8.23394 11.1711 8.4459 11.0833 8.66691 11.0833H10.5644C10.7097 10.8337 10.9173 10.6261 11.1669 10.4808V7.75C11.1669 7.52899 11.2547 7.31702 11.411 7.16074C11.5673 7.00446 11.7792 6.91667 12.0002 6.91667C12.2213 6.91667 12.4332 7.00446 12.5895 7.16074C12.7458 7.31702 12.8336 7.52899 12.8336 7.75V10.4808C13.1514 10.6634 13.4 10.946 13.5406 11.2846C13.6811 11.6232 13.7057 11.9987 13.6107 12.3527C13.5156 12.7068 13.3061 13.0194 13.0148 13.242C12.7235 13.4646 12.3668 13.5846 12.0002 13.5833ZM10.3102 2C10.4751 2 10.6362 2.04887 10.7732 2.14044C10.9103 2.23201 11.0171 2.36216 11.0801 2.51443C11.1432 2.6667 11.1597 2.83426 11.1276 2.99591C11.0954 3.15756 11.016 3.30605 10.8995 3.42259C10.783 3.53913 10.6345 3.6185 10.4728 3.65065C10.3112 3.68281 10.1436 3.66631 9.99135 3.60323C9.83907 3.54016 9.70893 3.43335 9.61736 3.29631C9.52579 3.15927 9.47691 2.99815 9.47691 2.83333C9.47691 2.61232 9.56471 2.40036 9.72099 2.24408C9.87727 2.0878 10.0892 2 10.3102 2ZM6.89358 3.46333C7.0584 3.46333 7.21952 3.51221 7.35656 3.60378C7.4936 3.69534 7.60041 3.82549 7.66348 3.97776C7.72655 4.13004 7.74306 4.29759 7.7109 4.45924C7.67875 4.62089 7.59938 4.76938 7.48284 4.88592C7.36629 5.00247 7.21781 5.08183 7.05616 5.11399C6.89451 5.14614 6.72695 5.12964 6.57468 5.06657C6.42241 5.00349 6.29226 4.89668 6.20069 4.75964C6.10912 4.6226 6.06025 4.46148 6.06025 4.29667C6.05981 4.0758 6.14706 3.86379 6.30285 3.70722C6.45864 3.55065 6.67021 3.46233 6.89108 3.46167L6.89358 3.46333ZM4.31608 5.95083C4.4809 5.95083 4.64202 5.99971 4.77906 6.09128C4.9161 6.18284 5.02291 6.31299 5.08598 6.46526C5.14905 6.61754 5.16556 6.78509 5.1334 6.94674C5.10125 7.10839 5.02188 7.25688 4.90534 7.37342C4.78879 7.48997 4.64031 7.56933 4.47866 7.60149C4.31701 7.63364 4.14945 7.61714 3.99718 7.55407C3.84491 7.49099 3.71476 7.38418 3.62319 7.24714C3.53162 7.1101 3.48275 6.94898 3.48275 6.78417C3.48275 6.56315 3.57054 6.35119 3.72683 6.19491C3.88311 6.03863 4.09507 5.95083 4.31608 5.95083ZM2.98275 9.42333C3.14757 9.42333 3.30868 9.47221 3.44572 9.56378C3.58276 9.65534 3.68957 9.78549 3.75265 9.93776C3.81572 10.09 3.83222 10.2576 3.80007 10.4192C3.76791 10.5809 3.68855 10.7294 3.572 10.8459C3.45546 10.9625 3.30697 11.0418 3.14532 11.074C2.98367 11.1061 2.81612 11.0896 2.66384 11.0266C2.51157 10.9635 2.38142 10.8567 2.28986 10.7196C2.19829 10.5826 2.14941 10.4215 2.14941 10.2567C2.14941 10.0359 2.23698 9.82423 2.3929 9.668C2.54882 9.51177 2.76036 9.42377 2.98108 9.42333H2.98275Z" fill="#CFCCD4"/>
</g>
<defs>
<clipPath id="clip0_80:96587">
<rect width="20" height="20" fill="white" transform="translate(2 2)"/>
</clipPath>
</defs>
</svg>
