<svg width="22" height="22" viewBox="0 0 22 22" fill="none" xmlns="http://www.w3.org/2000/svg">
<path d="M19.2232 14.7399C19.0031 17.1874 17.234 18.7916 14.6673 18.7916H6.41732C3.88732 18.7916 1.83398 16.7383 1.83398 14.2083V7.79159C1.83398 5.29825 3.33732 3.55659 5.67482 3.26325C5.91315 3.22659 6.16065 3.20825 6.41732 3.20825H14.6673C14.9057 3.20825 15.1348 3.21742 15.3548 3.25409C17.5457 3.51075 19.0306 5.04159 19.2232 7.25992C19.2507 7.52575 19.0306 7.74575 18.7648 7.74575H17.344C16.464 7.74575 15.6482 8.08492 15.0615 8.68992C14.3648 9.36825 14.0165 10.3216 14.099 11.2749C14.2457 12.9433 15.7123 14.2541 17.454 14.2541H18.7648C19.0306 14.2541 19.2507 14.4741 19.2232 14.7399Z" fill="#BDBAC3"/>
<path d="M20.1665 10.0559V11.9442C20.1665 12.4484 19.7632 12.8609 19.2499 12.8792H17.4532C16.4632 12.8792 15.5557 12.155 15.4732 11.165C15.4182 10.5875 15.6382 10.0467 16.0232 9.67085C16.3624 9.32252 16.8299 9.12085 17.3432 9.12085H19.2499C19.7632 9.13918 20.1665 9.55168 20.1665 10.0559Z" fill="#BDBAC3"/>
</svg>
