<svg width="30" height="30" fill="none" xmlns="http://www.w3.org/2000/svg"><circle cx="15" cy="15" r="15" fill="#fff"/><path d="M12.988 5.819a3 3 0 014.024 0l.728.659a3 3 0 001.983.774l.942.01a3 3 0 012.97 2.965l.006.42a3 3 0 00.942 2.149l.267.252a3 3 0 010 4.366l-.267.252a3 3 0 00-.942 2.15l-.005.418a3 3 0 01-2.971 2.966l-.942.01a3 3 0 00-1.983.774l-.728.658a3 3 0 01-4.024 0l-.729-.658a3 3 0 00-1.983-.775l-.941-.009a3 3 0 01-2.971-2.966l-.005-.419a3 3 0 00-.942-2.15l-.267-.251a3 3 0 010-4.367l.267-.251a3 3 0 00.942-2.15l.005-.419a3 3 0 012.97-2.966l.942-.009a3 3 0 001.983-.774l.729-.659z" fill="url(#paint0_linear_142:6603)"/><path d="M10 12.631l2.105-1.542h1.197v7.822H11.64v-5.442l-.776.548L10 12.63zM14.637 15c0-1.251.225-2.23.676-2.938.458-.708 1.126-1.062 2.005-1.062.88 0 1.544.354 1.995 1.062.458.707.687 1.687.687 2.938 0 1.251-.225 2.23-.676 2.939C18.881 18.646 18.22 19 17.34 19c-.886 0-1.558-.354-2.016-1.061-.458-.715-.687-1.695-.687-2.939zm1.773 0c0 1.624.31 2.436.93 2.436.318 0 .544-.179.677-.537.14-.364.21-.998.21-1.899s-.07-1.53-.21-1.888c-.14-.365-.374-.548-.699-.548-.317 0-.55.187-.698.559-.14.372-.21.998-.21 1.877z" fill="#fff"/><defs><linearGradient id="paint0_linear_142:6603" x1="-11.81" y1="-16.149" x2="44.007" y2="-5.569" gradientUnits="userSpaceOnUse"><stop stop-color="#DC2B40"/><stop offset="1" stop-color="#CC284F"/></linearGradient></defs></svg>