<svg width="30" height="30" fill="none" xmlns="http://www.w3.org/2000/svg"><path d="M15 0l5.625 5.257L27.99 7.5 26.25 15l1.74 7.5-7.365 2.243L15 30l-5.625-5.257L2.01 22.5 3.75 15 2.01 7.5l7.365-2.243L15 0z" fill="#F995A6"/><path d="M12.795 15.88l.72-5.88h5.19v2.25h-3.21l-.21 1.335h.36c.94 0 1.72.31 2.34.93.63.62.945 1.45.945 2.49 0 1.14-.36 2.04-1.08 2.7-.72.65-1.635.975-2.745.975a4.58 4.58 0 01-1.77-.375c-.59-.26-1.035-.605-1.335-1.035l1.26-1.725c.21.25.495.46.855.63.36.17.71.255 1.05.255.4 0 .725-.12.975-.36.26-.25.39-.57.39-.96 0-.44-.17-.8-.51-1.08-.34-.28-.815-.42-1.425-.42-.82 0-1.42.09-1.8.27z" fill="#fff"/></svg>