<svg width="596" height="397" fill="none" xmlns="http://www.w3.org/2000/svg"><g clip-path="url(#clip0)"><path d="M85.172 332.857s-72.96-43.178-69.07-153.996C19.992 68.043 117.818.783 189.895 2.271c72.078 1.488 92.958 32.512 152.391 37.335 59.433 4.823 164.052-38.226 227.968 15.017 63.916 53.242 13.103 184.139-62.849 278.29-75.953 94.15-304.471 110.536-422.233-.056z" fill="url(#paint0_linear)" fill-opacity=".9"/><path d="M137.294 59.924H42.268V230.49h95.026V59.924z" fill="#FFC1CF"/><path d="M132.519 64.87H46.067v160.54h86.452V64.87z" fill="#FFECF0"/><path d="M132.519 66.76L46.067 176.642V64.87h86.452v1.89z" fill="#FFECF0"/><path d="M134.394 111.049H46.067v1.707h88.327v-1.707zm0 38.231H46.067v1.707h88.327v-1.707zm0 38.231H46.067v1.707h88.327v-1.707z" fill="#FFC1CF"/><path d="M87.11 111.902v118.052h4.371V111.902h-4.37zM64.694 64.87h-1.98v47.037h1.98V64.87zm17.069 0h-1.978v47.037h1.978V64.87zm17.062 0h-1.979v47.037h1.979V64.87zm17.069 0h-1.978v47.037h1.978V64.87z" fill="#FFC1CF"/><path d="M42.276 57.025h-4.02V231.54h4.02V57.025z" fill="#FFECF0"/><path d="M141.315 232.023l-4.021-1.54V57.025h4.021v174.998z" fill="#DA7B8F"/><path d="M141.324 55.27H38.255v4.653h103.069V55.27zm2.717 177.325H35.402v4.335h108.639v-4.335z" fill="#DA7B8F"/><path d="M137.295 230.482l6.738 2.112H35.403l6.865-2.112h95.027zm408.768-64.234s-6.715-.484-6.095 14.57c.62 15.054 2.153 23.073 2.153 23.073s-.198 3.335-2.781 2.684c-2.591-.659-7.454-3.906-9.862-1.477-2.495 2.517-1.605 6.384 1.701 10.934 3.306 4.549 10.187 14.784 10.807 15.713.604.913.851 2.62-.985 2.453-1.836-.166-14.217-4.359-15.854 1.636-1.637 5.987 9.656 17.15 10.871 18.397 1.208 1.247 1.28 2.033.787 2.779-.493.754-4.522-1.048-8.09-2.096-3.568-1.048-7.891-1.636-8.55 1.898-.66 3.533 4.323 13.879 22.958 24.748l8.963 4.471 8.488-5.407c17.45-12.681 21.368-23.471 20.359-26.917-1.009-3.454-5.253-2.43-8.694-1.032-3.449 1.397-7.271 3.597-7.835 2.898-.564-.699-.58-1.485.5-2.851 1.081-1.357 11.205-13.593 8.972-19.389-2.233-5.796-14.129-.389-15.941-.04-1.812.35-1.74-1.373-1.224-2.342.525-.985 6.342-11.854 9.179-16.714 2.837-4.859 3.33-8.789.596-11.044-2.638-2.176-7.152 1.54-9.663 2.453-2.511.913-3.036-2.39-3.036-2.39s.723-8.13-.167-23.169c-.89-15.038-7.684-13.823-7.684-13.823" fill="#FFC1CF"/><path d="M546.587 179.73s.016.104.04.318c.016.222.04.532.071.921.056.826.135 2.025.239 3.557.206 3.089.469 7.559.778 13.085.612 11.053 1.336 26.321 2.067 43.186.739 16.873 1.414 32.141 1.97 43.194.279 5.51.509 9.98.668 13.085.079 1.532.135 2.731.175 3.557.016.397.032.699.039.929.008.206 0 .317 0 .317s-.015-.103-.039-.317c-.016-.222-.04-.532-.072-.921l-.238-3.557c-.207-3.089-.469-7.559-.779-13.085-.612-11.053-1.335-26.322-2.074-43.194-.739-16.865-1.415-32.133-1.971-43.186-.278-5.51-.508-9.98-.667-13.085-.08-1.532-.135-2.731-.175-3.557-.016-.397-.032-.707-.04-.929.008-.206.008-.318.008-.318z" fill="#DA7B8F"/><path d="M536.098 209.918c.016-.016.214.151.556.461.342.309.826.778 1.422 1.365 1.184 1.167 2.774 2.835 4.498 4.693l4.387 4.796c.524.563.969 1.048 1.335 1.445.318.341.485.54.469.555-.016.016-.215-.15-.565-.46a59.091 59.091 0 01-1.414-1.374c-1.168-1.183-2.742-2.866-4.458-4.724-1.693-1.826-3.234-3.478-4.418-4.756a492.78 492.78 0 00-1.343-1.437c-.318-.35-.485-.548-.469-.564zm13.548 13.021c-.063-.063 3.211-3.493 7.319-7.662 4.109-4.168 7.502-7.487 7.566-7.424.063.064-3.211 3.494-7.319 7.663-4.109 4.168-7.494 7.495-7.566 7.423zm-.031 25.956c-.008-.024.215-.159.628-.397.477-.27 1.065-.595 1.756-.984 1.478-.834 3.521-1.985 5.722-3.343a163.509 163.509 0 005.578-3.581c.66-.437 1.216-.81 1.669-1.112.398-.262.62-.397.636-.373.016.016-.183.191-.556.485a55.14 55.14 0 01-1.613 1.206 90.489 90.489 0 01-11.316 6.94c-.755.389-1.375.691-1.804.889-.445.191-.692.294-.7.27zm-14.852-9.083c.015-.024.23.087.619.294.39.206.946.516 1.63.905 1.366.778 3.234 1.866 5.292 3.088a364.396 364.396 0 015.245 3.176c.667.413 1.2.755 1.573.993.366.238.564.381.549.405-.016.024-.231-.087-.62-.294-.39-.206-.946-.516-1.629-.905a355.47 355.47 0 01-10.546-6.265c-.667-.413-1.2-.754-1.573-.992-.358-.238-.556-.381-.54-.405zm-2.948 22.915c.016-.024.294.119.786.381.557.302 1.256.691 2.09 1.152 1.757.984 4.164 2.366 6.819 3.906a486.448 486.448 0 016.77 3.994c.811.5 1.494.913 2.034 1.246.477.302.732.477.724.501-.008.023-.294-.119-.787-.381-.548-.302-1.248-.691-2.09-1.152a565.197 565.197 0 01-6.818-3.906 497.586 497.586 0 01-6.771-3.994c-.81-.5-1.494-.913-2.034-1.247-.477-.309-.731-.484-.723-.5zm18.834 10.774c-.008-.023.27-.206.778-.524l2.178-1.326a283.649 283.649 0 007.128-4.47 266.018 266.018 0 006.969-4.7c.842-.588 1.55-1.072 2.098-1.453.501-.342.779-.524.795-.501.016.016-.239.239-.716.612-.468.373-1.168.905-2.034 1.54a142.48 142.48 0 01-6.929 4.796 150.121 150.121 0 01-7.192 4.391c-.938.532-1.701.953-2.233 1.231-.532.277-.834.42-.842.404zm13.469 15.46h-24.802l8.098 61.217h8.614l8.09-61.217z" fill="#DA7B8F"/><path d="M540.604 296.48c-.008.008.024.087.135.214.103.127.302.302.596.429.588.254 1.621.278 2.622-.318 1.001-.555 1.876-1.635 3.219-2.112 1.327-.508 2.98-.413 4.561.088 1.597.492 2.988 1.302 4.244 2.056 1.263.747 2.415 1.421 3.456 1.85 1.033.453 1.923.659 2.551.739.31.039.556.055.723.047.167 0 .255-.008.255-.024.016-.079-1.407-.071-3.402-1.024-1.001-.46-2.129-1.143-3.377-1.905-1.247-.771-2.67-1.612-4.315-2.12-1.629-.524-3.385-.62-4.816-.056-.715.27-1.311.699-1.811 1.12-.509.42-.962.809-1.423 1.095-.906.588-1.859.612-2.416.421-.588-.198-.771-.532-.802-.5zm.906 11.283c.032.024.199-.254.588-.659a5.625 5.625 0 011.979-1.255c.929-.357 2.129-.571 3.449-.516 1.327.048 2.773.334 4.315.588 1.533.262 3.059.373 4.418.182a12.12 12.12 0 003.481-.992 11.244 11.244 0 002.09-1.239c.46-.349.675-.579.659-.595-.048-.064-1.001.786-2.869 1.572-.929.381-2.09.738-3.409.881-1.319.167-2.781.04-4.307-.214-1.526-.246-2.996-.532-4.37-.564-1.375-.032-2.607.222-3.568.627-.97.397-1.622.977-1.987 1.414-.175.23-.31.413-.374.548-.071.135-.103.214-.095.222zm19.803 6.034c.008-.016-.222-.175-.683-.357-.461-.183-1.169-.366-2.059-.437-.89-.072-1.954-.016-3.107.175-1.16.19-2.4.508-3.695.786-1.303.278-2.559.46-3.695.412-1.136-.039-2.146-.285-2.932-.635-1.598-.698-2.162-1.715-2.225-1.651-.016.008.095.262.421.643.318.381.874.865 1.684 1.27.803.397 1.852.683 3.036.747 1.184.063 2.479-.119 3.791-.397 1.319-.278 2.55-.612 3.679-.81 1.128-.207 2.161-.294 3.028-.262 1.74.063 2.733.587 2.757.516zm-17.61 8.488c.016.063.882-.548 2.408-.246.747.135 1.581.516 2.519.937.938.436 2.058.81 3.266.897 2.44.23 4.601-.556 5.936-1.374.684-.405 1.153-.841 1.478-1.135.302-.318.453-.508.438-.524-.056-.056-.708.675-2.059 1.413-1.327.731-3.417 1.445-5.753 1.215-2.344-.135-4.148-1.532-5.777-1.715-.795-.119-1.455-.008-1.868.159-.421.174-.604.357-.588.373zm1.383 11.751c0 .048.834.04 2.066-.413 1.248-.413 2.789-1.373 4.593-2.088.906-.341 1.812-.556 2.639-.548.826 0 1.557.207 2.121.485 1.137.563 1.47 1.373 1.534 1.318.016-.008-.032-.207-.238-.524-.199-.31-.58-.715-1.161-1.048-.58-.334-1.358-.58-2.248-.604-.89-.024-1.852.191-2.782.548-1.867.746-3.361 1.723-4.553 2.199-1.184.508-1.979.612-1.971.675zm1.216 5.471c-.016.048.58.262 1.574.508.985.246 2.376.508 3.925.659 1.55.151 2.964.167 3.982.111 1.017-.047 1.644-.143 1.637-.19-.008-.119-2.512-.016-5.579-.326-3.068-.294-5.507-.881-5.539-.762z" fill="#FFECF0"/><path d="M550.044 66.935H473.47v50.307h76.574V66.935z" fill="#DA7B8F"/><path d="M547.342 68.991h-71.21v45.997h71.21V68.991z" fill="#FFECF0"/><path d="M523.351 85.76h-23.228v12.657h23.228V85.761z" fill="#DA7B8F"/><path d="M571.564 350.988c0 .111-122.49.206-273.548.206-151.114 0-273.572-.095-273.572-.206 0-.111 122.458-.207 273.572-.207 151.058 0 273.548.096 273.548.207z" fill="#2B3242"/><path d="M381.623 199.294h-151.09V30.37H394.52v156.053c-.008 7.106-5.777 12.871-12.897 12.871z" fill="#FFC1CF"/><path d="M380.971 80.647c0 .341-29.641.619-66.196.619-36.562 0-66.195-.278-66.195-.62 0-.34 29.633-.619 66.195-.619 36.563 0 66.196.278 66.196.62zm-65.409 11.441c0 .342-14.646.62-32.701.62-18.062 0-32.708-.278-32.708-.62 0-.341 14.638-.62 32.708-.62 18.063 0 32.701.279 32.701.62zm26.168-1.056c0 .342-3.877.62-8.661.62s-8.662-.278-8.662-.62c0-.341 3.878-.619 8.662-.619 4.784 0 8.661.278 8.661.62zm42.777-.707c0 .342-7.676.62-17.149.62-9.472 0-17.149-.278-17.149-.62 0-.341 7.677-.619 17.149-.619 9.473 0 17.149.278 17.149.62zm-74.404 12.712c0 .342-13.772.62-30.762.62-16.99 0-30.761-.278-30.761-.62 0-.341 13.771-.619 30.761-.619s30.762.278 30.762.619zm74.404-.309c0 .341-15.043.619-33.59.619-18.556 0-33.591-.278-33.591-.619 0-.342 15.035-.62 33.591-.62 18.555 0 33.59.27 33.59.62zm0 11.02c0 .342-6.699.62-14.955.62-8.265 0-14.956-.278-14.956-.62 0-.341 6.691-.619 14.956-.619 8.264-.008 14.955.27 14.955.619z" fill="#455A64"/><path d="M322.634 68.38c0 .34-16.227.618-36.236.618-20.018 0-36.245-.278-36.245-.619 0-.341 16.219-.62 36.245-.62 20.009 0 36.236.279 36.236.62z" fill="#DF5A78"/><path d="M423.446 350.067H105.953c-6.397 0-11.579-5.177-11.579-11.569V136.552c0-6.392 5.182-11.569 11.579-11.569h317.493c6.397 0 11.578 5.177 11.578 11.569v201.946c0 6.392-5.181 11.569-11.578 11.569z" fill="#2B3242"/><path d="M435.533 353.115H94.756c-7.812 0-14.145-6.328-14.145-14.133v-5.566h369.067v5.566c-.008 7.805-6.334 14.133-14.145 14.133z" fill="#2B3242"/><path d="M425.401 133.932H103.998v190.075h321.403V133.932z" fill="#767A85"/><path d="M231.598 333.417c-.008 0 .111-.008.357-.008.262 0 .62-.008 1.081-.008.977-.008 2.392-.016 4.196-.024 3.687-.016 8.995-.04 15.575-.064 13.255-.031 31.604-.071 52.067-.111h.381l-.19.334c-.652 1.119-1.359 2.326-2.067 3.541-.739 1.27-1.478 2.533-2.185 3.74l-.064.111h-.127c-28.322-.056-52.503-.095-64.439-.119h-.056l-.032-.048c-1.47-2.39-2.598-4.224-3.377-5.486a350.95 350.95 0 01-.85-1.39l-.27-.468s.119.166.317.484c.215.325.509.794.898 1.389.795 1.231 1.947 3.026 3.441 5.352l-.087-.048c11.936-.023 36.125-.063 64.439-.119l-.19.111a1340.56 1340.56 0 002.185-3.739c.707-1.215 1.415-2.414 2.066-3.542l.191.334c-20.383-.048-38.661-.08-51.86-.111-6.604-.024-11.944-.048-15.647-.064a1244.82 1244.82 0 01-4.259-.024c-.477-.008-.843-.008-1.121-.008-.23-.008-.373-.015-.373-.015z" fill="#455A64"/><path d="M435.024 333.416c0 .112-76.264.207-170.313.207-94.088 0-170.329-.095-170.329-.207 0-.111 76.249-.206 170.329-.206 94.049 0 170.313.095 170.313.206z" fill="#455A64"/><path d="M348.088 95.97c5.253 0 9.512 4.257 9.512 9.505v19.509h-28.449v-18c0-6.082 4.935-11.021 11.03-11.021h7.907v.008z" fill="#2B3242"/><path d="M348.088 95.97c0 .112-26.844.183-59.958.152-33.122-.032-59.965-.143-59.965-.262 0-.111 26.843-.183 59.965-.151 33.114.031 59.958.15 59.958.262z" fill="#2B3242"/><path d="M347.841 95.947l-11.864-.08-17.236.103H192.11c-10.751 0-19.469 8.711-19.469 19.453V324.46h163.988V106.634c.484-10.664 11.212-10.687 11.212-10.687z" fill="#FFECF0"/><path d="M347.841 95.947l-98.88.214-49.436.04-6.183.008c-1.033-.024-2.05.04-3.067.095-1.009.143-2.018.254-2.996.548-3.957.976-7.509 3.35-10.092 6.487-1.288 1.58-2.289 3.374-3.02 5.264-.159.484-.381.945-.493 1.437l-.381 1.477c-.151 1-.35 2.001-.358 3.025-.087 4.089-.016 8.226-.039 12.339l.135 197.587-.398-.397 163.988.103-.286.286.079-117.512.096-58.756.055-29.378.016-7.345.008-3.668c0-.611-.016-1.223.079-1.834.08-.611.104-1.223.287-1.81.54-2.382 1.907-4.621 3.973-5.98a11.298 11.298 0 013.298-1.587 13.36 13.36 0 013.615-.643zm0 0c-1.223.04-2.439.278-3.607.643a11.459 11.459 0 00-3.282 1.604c-2.051 1.365-3.401 3.596-3.934 5.971-.183.587-.206 1.198-.278 1.802-.095.603-.072 1.215-.072 1.834l.008 3.676.016 7.345.056 29.378.095 58.756.08 117.512v.286h-.286l-163.988.103h-.397v-.397l.135-197.587c.024-4.121-.04-8.226.056-12.363.008-1.048.206-2.072.365-3.104l.39-1.517c.119-.508.341-.984.508-1.477.755-1.937 1.78-3.779 3.107-5.399 2.655-3.208 6.294-5.637 10.355-6.63 1.001-.301 2.042-.413 3.075-.555 1.041-.056 2.082-.112 3.107-.096l6.183.008 49.436.04 98.872.167z" fill="#2B3242"/><path d="M197.348 133.583h28.616l.047 9.576h-1.367c-.453-3.43-1.732-5.741-3.854-6.956-1.192-.667-2.972-1.032-5.34-1.096v25.019c0 1.747.302 2.906.914 3.478.612.572 1.883.858 3.814.858v1.207h-16.942v-1.207c1.86 0 3.091-.294 3.703-.874.612-.579.914-1.739.914-3.47V135.1c-2.32.063-4.1.428-5.34 1.095-2.273 1.239-3.56 3.557-3.854 6.956h-1.367l.056-9.568zm116.776 2.159c0 .342-15.783.62-35.252.62-19.477 0-35.259-.278-35.259-.62 0-.341 15.782-.619 35.259-.619 19.469 0 35.252.278 35.252.619z" fill="#DF5A78"/><path d="M272.293 146.993c0 .342-6.103.62-13.629.62-7.533 0-13.628-.278-13.628-.62 0-.341 6.103-.619 13.628-.619 7.526 0 13.629.278 13.629.619zm-34.362 34.341c0 .342-11.594.619-25.882.619-14.296 0-25.89-.277-25.89-.619 0-.341 11.586-.619 25.89-.619 14.296 0 25.882.278 25.882.619z" fill="#455A64"/><path d="M296.562 181.334c0 .342-11.595.619-25.883.619-14.296 0-25.89-.277-25.89-.619 0-.341 11.586-.619 25.89-.619 14.288 0 25.883.278 25.883.619z" fill="#DF5A78"/><path d="M237.931 190.504c0 .342-11.594.619-25.882.619-14.296 0-25.89-.277-25.89-.619 0-.341 11.586-.619 25.89-.619 14.296 0 25.882.278 25.882.619z" fill="#455A64"/><path d="M237.931 199.675c0 .342-11.594.619-25.882.619-14.296 0-25.89-.277-25.89-.619 0-.341 11.586-.619 25.89-.619 14.296-.008 25.882.27 25.882.619z" fill="#DF5A78"/><path d="M272.293 165.676c0 .341-6.103.619-13.629.619-7.533 0-13.628-.278-13.628-.619 0-.341 6.103-.619 13.628-.619 7.526 0 13.629.278 13.629.619zm47.282 15.658c0 .342-4.068.619-9.083.619-5.022 0-9.091-.277-9.091-.619 0-.341 4.069-.619 9.091-.619 5.015 0 9.083.278 9.083.619zm4.864-34.341c0 .342-10.474.62-23.387.62-12.922 0-23.387-.278-23.387-.62 0-.341 10.473-.619 23.387-.619 12.913 0 23.387.278 23.387.619zm-2.114 8.949c0 .341-17.308.619-38.645.619-21.345 0-38.653-.278-38.653-.619 0-.342 17.3-.62 38.653-.62 21.345 0 38.645.278 38.645.62zm-2.75 34.562c0 .342-16.744.619-37.389.619-20.653 0-37.397-.277-37.397-.619 0-.341 16.736-.619 37.397-.619 20.645 0 37.389.278 37.389.619z" fill="#455A64"/><path d="M319.575 217.048c0 .341-15.71.619-35.084.619-19.382 0-35.093-.278-35.093-.619 0-.341 15.711-.619 35.093-.619 19.374 0 35.084.278 35.084.619z" fill="#DF5A78"/><path d="M319.575 225.973c0 .341-15.71.619-35.084.619-19.382 0-35.093-.278-35.093-.619 0-.342 15.711-.619 35.093-.619 19.374 0 35.084.277 35.084.619zm0 8.924c0 .341-15.71.619-35.084.619-19.382 0-35.093-.278-35.093-.619 0-.342 15.711-.62 35.093-.62 19.374 0 35.084.278 35.084.62zm0 8.924c0 .342-15.71.62-35.084.62-19.382 0-35.093-.278-35.093-.62 0-.341 15.711-.619 35.093-.619 19.374 0 35.084.278 35.084.619zm-29.776 8.925c0 .175-2.264.326-5.92.437-3.655.111-8.702.183-14.28.183-5.579 0-10.633-.072-14.288-.183-3.656-.111-5.913-.27-5.913-.437 0-.174 2.257-.325 5.913-.436 3.655-.112 8.709-.183 14.288-.183 5.578 0 10.625.071 14.28.183 3.656.111 5.92.262 5.92.436zm17.061-52.594c0 .341-13.533.619-30.221.619-16.696 0-30.221-.278-30.221-.619 0-.342 13.533-.62 30.221-.62 16.688 0 30.221.278 30.221.62z" fill="#455A64"/><path d="M236.707 218.056l3.727 68.888-67.411 8.432-.056-77.907 63.74.587z" fill="#DA7B8F"/><path d="M149.425 213.276l-.47 73.079 91.482.588.47-73.08-91.482-.587z" fill="#FFECF0"/><path d="M152.546 217.896l-.41 63.877 85.053.546.411-63.877-85.054-.546z" fill="#DF5A78"/><path opacity=".2" d="M208.338 237.565a6.697 6.697 0 01-13.391-.087 6.697 6.697 0 0113.391.087z" fill="#000"/><path d="M249.239 304.182c0 .778-.636 1.413-1.414 1.413a1.417 1.417 0 01-1.415-1.413c0-.778.636-1.413 1.415-1.413.786 0 1.414.635 1.414 1.413zm8.4 0c0 .778-.636 1.413-1.414 1.413a1.417 1.417 0 01-1.415-1.413c0-.778.636-1.413 1.415-1.413.778 0 1.414.635 1.414 1.413zm8.392 0c0 .778-.636 1.413-1.415 1.413a1.416 1.416 0 01-1.414-1.413c0-.778.635-1.413 1.414-1.413.779 0 1.415.635 1.415 1.413z" fill="#2B3242"/><path d="M296.959 271.342c0 .341-11.594.619-25.882.619-14.296 0-25.89-.278-25.89-.619 0-.341 11.586-.619 25.89-.619 14.288 0 25.882.278 25.882.619z" fill="#DF5A78"/><path d="M319.973 280.512c0 .341-16.744.619-37.389.619-20.654 0-37.397-.278-37.397-.619 0-.342 16.735-.619 37.397-.619 20.645 0 37.389.277 37.389.619z" fill="#455A64"/><path d="M230 231.5c0 .276-9.854.5-21.997.5-12.149 0-22.003-.224-22.003-.5s9.847-.5 22.003-.5c12.15 0 21.997.224 21.997.5z" fill="#fff"/><path d="M230 237.5c0 .276-9.854.5-21.997.5-12.149 0-22.003-.224-22.003-.5s9.847-.5 22.003-.5c12.15 0 21.997.224 21.997.5z" fill="#455A64"/><path d="M230 252.5c0 .276-15.9.5-35.495.5-19.605 0-35.505-.224-35.505-.5s15.889-.5 35.505-.5c19.606 0 35.495.224 35.495.5z" fill="#fff"/><path d="M230 261.5c0 .276-15.9.5-35.495.5-19.605 0-35.505-.224-35.505-.5s15.889-.5 35.505-.5c19.606 0 35.495.224 35.495.5zm0 9c0 .276-15.9.5-35.495.5-19.605 0-35.505-.224-35.505-.5s15.889-.5 35.505-.5c19.606 0 35.495.224 35.495.5z" fill="#455A64"/><path d="M484.512 295.777l-.283 44.019 55.103.354.283-44.02-55.103-.353z" fill="#FFECF0"/><path d="M486.39 298.564l-.247 38.477 51.232.329.247-38.477-51.232-.329z" fill="#DF5A78"/><path opacity=".2" d="M486.138 337.044l18.047-23.796 10.99 15.03 7.573-7.947 14.622 17.047-51.232-.334zm33.86-26.63a4.034 4.034 0 01-4.06 4.002 4.035 4.035 0 01-4.005-4.058 4.033 4.033 0 018.065.056z" fill="#000"/><path d="M476.43 291.181l-.283 44.019 55.102.354.283-44.019-55.102-.354z" fill="#FFECF0"/><path d="M478.316 293.959l-.248 38.478 51.233.328.247-38.477-51.232-.329z" fill="#DF5A78"/><path opacity=".2" d="M478.056 332.448l18.054-23.797 10.983 15.031 7.573-7.948 14.63 17.047-51.24-.333zm33.86-26.624a4.033 4.033 0 01-8.065-.056 4.033 4.033 0 014.06-4.001 4.024 4.024 0 014.005 4.057z" fill="#000"/><path d="M469.237 287.386l-.283 44.019 55.102.354.283-44.019-55.102-.354z" fill="#FFECF0"/><path d="M471.114 290.164l-.247 38.478 51.232.328.247-38.477-51.232-.329z" fill="#DF5A78"/><path opacity=".2" d="M470.864 328.653l18.047-23.804 10.99 15.038 7.565-7.956 14.63 17.047-51.232-.325zm33.852-26.632a4.033 4.033 0 01-8.066-.055 4.034 4.034 0 018.066.055z" fill="#000"/><path d="M461.152 292.107l-.283 44.019 55.102.354.283-44.02-55.102-.353z" fill="#FFECF0"/><path d="M463.037 294.894l-.247 38.477 51.232.329.247-38.477-51.232-.329z" fill="#767A85"/><path opacity=".2" d="M462.782 333.376l18.047-23.796 10.99 15.031 7.566-7.948 14.629 17.047-51.232-.334zm33.853-26.622a4.035 4.035 0 01-4.06 4.002 4.036 4.036 0 01-4.006-4.058 4.036 4.036 0 014.061-4.002 4.03 4.03 0 014.005 4.058z" fill="#000"/><path d="M548.058 308.493h-31.811v42.503h31.811v-42.503z" fill="#2B3242"/><path d="M455.32 308.493v42.503h63.629v-42.503H455.32zm38.581 10.052h-13.525a2.925 2.925 0 01-2.924-2.922 2.925 2.925 0 012.924-2.922h13.525a2.926 2.926 0 012.925 2.922 2.926 2.926 0 01-2.925 2.922z" fill="#DF5A78"/><path d="M414.061 346.548l-59.171-3.62c-.373-.85-.62-1.342-.62-1.342l-16.036.318-5.221-.318s-.079.159-.207.429l-53.83 1.072c-10.736 0-22.013 6.542-22.013 14.903-.135 7.956 3.719 16.595 13.335 16.396l73.348-.246 73.339.246c9.616.199 12.159-5.598 12.175-12.474 1.128-12.799-6.898-15.26-15.099-15.364z" fill="#767A85"/><path d="M277.037 374.394s.119-.016.349-.024c.255-.008.596-.008 1.033-.016.93-.008 2.273-.024 3.998-.04 3.488-.015 8.526-.039 14.756-.063 12.516-.016 29.856-.04 49.246-.064l-.207.223c-.103-1.604-.206-3.327-.318-5.058-.222-3.541-.437-7.035-.643-10.346l.183.191c-18.016-2.001-33.933-3.772-45.368-5.042l-13.446-1.54c-1.565-.191-2.773-.334-3.623-.437a27.596 27.596 0 00-.938-.119c-.215-.032-.318-.048-.318-.056s.111 0 .318.016c.23.024.54.048.938.087.85.088 2.066.207 3.631.366 3.179.333 7.756.817 13.454 1.413 11.435 1.239 27.36 2.962 45.383 4.907l.175.016.008.174c.207 3.319.429 6.805.652 10.346.111 1.731.214 3.454.318 5.058l.016.222h-.223l-49.245-.063c-6.239-.024-11.269-.048-14.757-.064-1.725-.016-3.068-.032-3.998-.039-.445-.008-.786-.016-1.033-.016-.222-.024-.341-.032-.341-.032z" fill="#2B3242"/><path d="M292.159 353.369c-.048.055-.779-.54-2.074-1.326a22.726 22.726 0 00-5.388-2.366 22.464 22.464 0 00-5.825-.858c-1.51-.016-2.455.095-2.463.024 0-.032.23-.08.651-.151.421-.079 1.041-.135 1.812-.167 1.534-.063 3.679.103 5.936.755 2.257.651 4.164 1.651 5.428 2.517.636.428 1.128.809 1.446 1.095.326.286.493.453.477.477zm117.309-3.144c.024.111-11.642 2.93-26.065 6.296-14.424 3.367-26.137 6.003-26.161 5.892-.024-.111 11.642-2.93 26.065-6.296 14.424-3.367 26.137-6.003 26.161-5.892z" fill="#2B3242"/><path d="M399.606 349.081c.04.127-2.257.587-4.569 2.191-2.337 1.572-3.608 3.534-3.72 3.446-.039-.024.215-.548.795-1.294.572-.746 1.494-1.683 2.686-2.493a12.04 12.04 0 013.314-1.58c.898-.262 1.486-.318 1.494-.27z" fill="#2B3242"/><path d="M377.578 281.965l18.738 32.594a13.857 13.857 0 01.381 13.093 13.86 13.86 0 01-12.786 7.654l-28.775-.81-.755-10.457 25.342-4.851-17.085-29.553 14.94-7.67zm-69.851 55.786l26.462 7.003.572-7.932-24.388-14.149 17.808-33.03-14.947-7.67-18.738 32.593c-4.538 8.417-.302 18.89 8.82 21.788l4.411 1.397z" fill="#fff"/><path d="M369.623 302.895l18.087-9.521s-3.012-6.367-7.748-12.91c-5.602-7.741-14.288-13.157-24.158-15.213l-20.804.246c-2.964.318-5.396.881-7.422 1.707l.016-.079c-11.293 2.485-23.817 27.091-23.817 27.091l16.458 8.655.365 2.588c.477 3.406 1.971 6.606 4.292 9.218l-4.792 31.498 53.417 1.104-6.802-22.557 2.908-21.827z" fill="#DF5A78"/><path d="M325.376 314.852c-.016.016-.31-.183-.795-.603a11.778 11.778 0 01-1.819-2.033c-1.343-1.866-2.543-5.026-2.226-8.591.255-1.755.755-3.351 1.224-4.788a63.522 63.522 0 011.391-3.771 48.128 48.128 0 011.057-2.494c.262-.579.429-.897.453-.881.024.008-.088.349-.31.945-.246.675-.556 1.524-.93 2.533a92.364 92.364 0 00-1.295 3.787c-.445 1.429-.93 3.025-1.176 4.724-.159 1.684.063 3.359.453 4.78.381 1.437 1.001 2.644 1.613 3.597 1.247 1.882 2.424 2.724 2.36 2.795zm-8.01 38.93l-3.02-35.135h65.075l-4.315 35.572-57.74-.437z" fill="#2B3242"/><path d="M351.028 337.386a4.136 4.136 0 01-4.14 4.137 4.135 4.135 0 01-4.14-4.137 4.135 4.135 0 014.14-4.137c2.288 0 4.14 1.85 4.14 4.137z" fill="#FFECF0"/><path d="M345.744 360.643l11.053 1.54v12.005l-10.163-.262-.89-13.283z" fill="#fff"/><path d="M356.797 362.183h4.967c.97 0 1.915.254 2.75.738l2.622 1.509c.858.492 3.632 1.881 4.577 2.183 3.02.969 8.098 2.271 9.171 3.097 3.059 2.358 2.13 5.137.445 5.431-1.478.254-24.539-.961-24.539-.961v-11.997h.007z" fill="#DF5A78"/><path d="M364.951 373.195c-.104.024-.485-1.357-.533-3.12-.056-1.763.238-3.16.35-3.144.119.016.008 1.413.063 3.136.048 1.715.239 3.105.12 3.128zm2.36-.071c-.112 0-.199-1.286-.183-2.866.016-1.58.119-2.866.23-2.859.112 0 .199 1.287.183 2.867-.016 1.58-.119 2.858-.23 2.858zm2.781.477c-.111.008-.309-1.302-.437-2.938-.127-1.628-.135-2.962-.023-2.97.111-.008.31 1.303.437 2.938.127 1.636.135 2.962.023 2.97zm-7.287-3.606c-.008.024-.381-.055-1.017-.317a9.633 9.633 0 01-2.479-1.533 7.668 7.668 0 01-.708-.667c-.23-.246-.484-.524-.635-.897-.151-.373-.151-.857.135-1.23a.935.935 0 01.62-.342c.238-.032.46.008.667.08 1.613.547 2.996 2.127 3.25 4.073.247 1.969-.81 3.795-2.209 4.716-.35.23-.715.437-1.136.508a1.31 1.31 0 01-.652-.031.849.849 0 01-.501-.445c-.19-.437-.023-.842.143-1.143.175-.318.422-.548.636-.771a7.617 7.617 0 012.44-1.596c.643-.254 1.025-.309 1.025-.293.008.031-.35.143-.962.436a8.047 8.047 0 00-2.296 1.66c-.207.222-.421.444-.564.714-.143.262-.239.596-.12.834.12.254.437.341.779.262.334-.063.668-.254.993-.468 1.272-.858 2.233-2.565 2.011-4.351-.223-1.779-1.51-3.256-2.948-3.764-.35-.119-.707-.103-.89.127-.191.23-.215.595-.104.881.247.596.795 1.056 1.216 1.461 1.82 1.636 3.346 2.017 3.306 2.096zm18.524 5.146c-.032-.039.326-.198.604-.754.278-.548.23-1.532-.326-2.501-.54-.977-1.661-1.818-3.067-2.311-1.407-.508-3.084-.746-4.768-1.278a33.018 33.018 0 01-8.209-3.74 27.388 27.388 0 01-2.233-1.572c-.501-.405-.771-.643-.755-.667.016-.023.318.175.85.532.533.358 1.311.874 2.297 1.453a37.3 37.3 0 008.169 3.589c1.661.516 3.322.77 4.784 1.31 1.454.532 2.638 1.453 3.194 2.525.557 1.048.573 2.128.215 2.716a1.723 1.723 0 01-.509.563c-.159.112-.238.151-.246.135z" fill="#2B3242"/><path d="M373.803 273.874c.008 0 .008.055 0 .167-.008.135-.024.293-.04.492-.039.46-.103 1.103-.174 1.921-.175 1.707-.414 4.145-.724 7.21l-.015.182-.167-.087c-2.662-1.397-5.913-3.112-9.592-5.042l.23-.063a5707.048 5707.048 0 01-5.213 8.781l-.111.191-.175-.135c-2.741-2.104-5.705-4.367-8.773-6.725h.255c-1.216.952-2.512 1.969-3.823 2.993-1.772 1.382-3.512 2.747-5.213 4.073l-.191.151-.119-.214c-1.732-3.2-3.393-6.273-4.966-9.171l.246.087c-3.822 1.7-7.359 3.28-10.529 4.685l-.191.087-.032-.206c-.612-3.605-1.144-6.741-1.589-9.353l.159.087c-2.567.977-4.601 1.755-6.024 2.295-.683.254-1.216.452-1.605.595a19.68 19.68 0 00-.413.143c-.096.032-.143.048-.143.04s.039-.032.135-.072l.405-.174c.381-.159.906-.374 1.581-.652 1.415-.563 3.441-1.381 5.984-2.397l.135-.056.024.143c.469 2.612 1.033 5.741 1.677 9.337l-.231-.119c3.155-1.429 6.684-3.017 10.506-4.74l.159-.071.087.158c1.574 2.899 3.25 5.971 4.983 9.163l-.31-.063c1.7-1.334 3.441-2.692 5.205-4.081 1.311-1.025 2.606-2.041 3.822-2.994l.127-.095.128.095c3.067 2.358 6.023 4.637 8.757 6.741l-.286.056c1.883-3.144 3.655-6.098 5.253-8.758l.087-.143.143.079c3.663 1.962 6.898 3.7 9.552 5.122l-.183.095.842-7.194c.104-.809.183-1.453.239-1.913.032-.199.055-.357.071-.492.024-.104.04-.159.04-.159z" fill="#FFECF0"/><path d="M381.528 282.719c.007 0-.008.079-.048.23-.04.175-.095.397-.167.675-.159.611-.389 1.485-.683 2.596-.612 2.287-1.502 5.566-2.607 9.663l-.04.159-.151-.072c-3.186-1.532-6.985-3.35-11.212-5.375l.222-.056c-2.861 4.082-6.047 8.615-9.441 13.459l-.135.198-.166-.174c-2.885-2.922-5.937-6.011-9.076-9.187a205.068 205.068 0 00-1.907-1.929l.254.031a9879.704 9879.704 0 01-12.229 7.662l-.175.112-.104-.183c-2.36-4.169-4.577-8.075-6.595-11.632l.206.079c-4.831 1.66-9.083 3.129-12.571 4.328l-.12.039-.039-.119c-1.192-3.454-2.138-6.185-2.79-8.083-.309-.921-.548-1.635-.723-2.151-.071-.231-.135-.413-.174-.556-.04-.127-.056-.191-.048-.191s.032.056.079.183c.056.143.127.317.207.548.183.508.445 1.214.787 2.128.683 1.889 1.66 4.613 2.9 8.043l-.159-.08c3.481-1.222 7.716-2.715 12.54-4.414l.135-.048.072.127c2.034 3.557 4.259 7.448 6.635 11.608l-.278-.071c3.87-2.43 7.971-5.01 12.222-7.678l.143-.087.119.119c.628.635 1.264 1.286 1.907 1.929 3.139 3.184 6.183 6.273 9.068 9.195l-.31.023c3.409-4.827 6.611-9.353 9.488-13.426l.087-.119.135.063c4.212 2.049 7.995 3.899 11.174 5.447l-.191.088c1.152-4.082 2.082-7.353 2.725-9.632.318-1.103.573-1.969.747-2.58.088-.278.151-.492.207-.667.048-.151.072-.23.08-.222z" fill="#FFECF0"/><path d="M373.517 227.33c-3.178.357-6.484-.691-8.884-2.803 2.892 1.461 6.755-.54 7.772-3.621 1.017-3.072.182-8.797-2.345-10.83-2.407-1.929-5.737-2.668-8.717-1.874-2.98.794-6.135 5.328-7.112 8.25l.055.087a33.48 33.48 0 00-1.382-.508c-3.298-1.103-6.827-1.643-10.283-1.246-3.457.397-6.842 1.77-9.401 4.136l20.208 32.451c3.671-.325 6.922-2.795 8.845-5.939 1.923-3.136 2.662-6.876 2.845-10.552.047-.921.039-1.858.008-2.787 2.169.349 4.33.699 6.5 1.04a14.468 14.468 0 00-4.323-3.859c2.177.842 4.887-.008 6.214-1.945z" fill="#2B3242"/><path d="M347.969 277.694c5.483-.12 9.878-4.558 9.941-10.037l.469-40.374a3.211 3.211 0 00-2.877-3.256l-17.069-4.311c-5.467-.58-9.099 6.145-9.449 11.624-.381 6.09-.612 13.538.112 18.079 1.454 9.139 8.463 10.298 8.463 10.298 0-.023.008 3.534.024 7.869.031 5.677 4.712 10.227 10.386 10.108z" fill="#fff"/><path d="M332.536 237.255c-.023.619.485 1.151 1.129 1.183.644.032 1.184-.437 1.208-1.056.024-.619-.485-1.151-1.129-1.183-.643-.032-1.184.436-1.208 1.056zm-1.923-2.041c.143.151 1.033-.5 2.297-.5 1.263-.016 2.185.635 2.32.476.064-.071-.079-.341-.485-.635-.397-.294-1.072-.579-1.859-.571-.787.008-1.446.293-1.828.587-.389.302-.516.58-.445.643zm13.931 2.041c-.024.619.484 1.151 1.128 1.183.644.032 1.184-.437 1.208-1.056.024-.619-.485-1.151-1.128-1.183-.644-.032-1.184.436-1.208 1.056zm-1.526-1.802c.143.15 1.033-.501 2.297-.501 1.263-.016 2.185.636 2.32.477.064-.072-.079-.342-.485-.635-.397-.294-1.073-.58-1.859-.572-.787.008-1.447.294-1.828.587-.389.302-.517.572-.445.644zm-4.585 9.353c.008-.071-.779-.206-2.05-.373-.326-.032-.628-.095-.684-.317-.079-.231.056-.58.215-.953l.953-2.454c1.328-3.493 2.281-6.36 2.138-6.415-.143-.056-1.327 2.731-2.654 6.225-.318.857-.62 1.683-.914 2.469-.119.365-.334.778-.167 1.263.088.238.326.412.533.468.206.064.389.064.548.079 1.287.072 2.082.08 2.082.008z" fill="#2B3242"/><path d="M337.566 259.725s6.151.397 12.246-3.263c0 0-2.972 6.272-12.118 5.423l-.128-2.16zm1.407-11.886c.453-.603 1.248-.929 2.043-.842.548.056 1.104.326 1.43.771.334.444.405 1.079.103 1.5-.341.477-1.049.588-1.653.421-.604-.175-1.12-.564-1.613-.961-.135-.111-.278-.222-.357-.373-.088-.151-.104-.341 0-.468" fill="#DD2B50"/><path d="M342.152 245.672c-.207-.008-.207 1.358-1.383 2.326-1.168.977-2.63.818-2.638 1.009-.016.087.326.262.938.286a3.383 3.383 0 002.201-.771c.715-.595 1.025-1.389 1.073-1.953.055-.564-.104-.897-.191-.897zm.294-12.426c.127.341 1.383.183 2.861.357 1.486.151 2.678.58 2.876.278.088-.151-.119-.468-.603-.802-.477-.333-1.24-.643-2.13-.746-.89-.095-1.701.047-2.241.262-.541.222-.819.492-.763.651zm-11.658-.358c.223.286 1.089-.008 2.138-.024 1.041-.048 1.931.191 2.138-.103.087-.143-.048-.429-.438-.707-.381-.27-1.017-.492-1.74-.468-.715.024-1.343.286-1.7.579-.374.294-.493.588-.398.723z" fill="#2B3242"/><path d="M357.37 238.636c.691-.476 1.661-.301 2.392.119 1.677.969 2.519 3.192 1.891 5.026-.62 1.835-2.638 3.089-4.561 2.835" fill="#fff"/><path d="M358.013 243.9c.024-.063.358.08.795-.127.437-.174.826-.817.787-1.564-.024-.754-.517-1.302-.978-1.469-.461-.19-.794-.095-.81-.166-.032-.048.31-.286.914-.151.294.071.627.238.89.556.262.309.429.746.453 1.198.063.922-.517 1.755-1.145 1.898-.62.175-.953-.143-.906-.175z" fill="#DD2B50"/><path d="M360.509 245.751c.008-.016.159.087.421.294.302.246.675.555 1.12.913 1.01.857 2.352 2.001 3.95 3.35l.135.112-.111.135c-1.471 1.762-3.108 3.97-4.943 6.272a53.737 53.737 0 01-1.24 1.509l-.342.397-.023-.524a686.251 686.251 0 01-.366-9.377c-.024-1.128-.048-2.057-.064-2.787-.008-.651 0-1.017.024-1.017s.072.358.119 1.009c.048.722.112 1.659.191 2.779.143 2.358.326 5.653.501 9.369l-.358-.127c.39-.477.811-.985 1.224-1.501 1.836-2.294 3.489-4.494 4.998-6.241l.024.246c-1.549-1.397-2.86-2.572-3.854-3.461-.421-.389-.771-.715-1.057-.985-.238-.222-.357-.357-.349-.365z" fill="#455A64"/><path d="M342.017 215.722c-2.241.095-4.49.19-6.668.73-2.177.54-4.283 1.564-5.761 3.24-1.478 1.683-2.233 4.089-1.589 6.233.635 2.143 2.845 3.827 5.062 3.525 1.684-.222 3.298-1.469 4.927-.977 1.533.469 2.384 2.343 3.965 2.636 1.558.286 2.948-1.111 4.53-1.246 1.74-.151 3.258 1.278 4.029 2.842.778 1.564 1.072 3.335 1.851 4.907.501 1.001 1.272 1.961 2.352 2.239.994.254 2.075-.127 2.853-.802.771-.675 1.28-1.603 1.669-2.556 1.645-4.042 1.287-8.838-.938-12.585-2.225-3.748-6.269-6.368-10.6-6.86" fill="#2B3242"/><path d="M364.299 225.424c-.071.024-.286-.738-.842-1.858a13.329 13.329 0 00-2.94-3.851c-1.423-1.278-2.964-2.096-4.133-2.533-1.168-.444-1.947-.579-1.931-.651.008-.032.199-.016.557.032.357.04.866.151 1.478.349 1.223.381 2.845 1.183 4.315 2.501 1.462 1.326 2.431 2.859 2.932 4.034.254.587.421 1.08.493 1.429.063.349.095.54.071.548z" fill="#DF5A78"/><path d="M371.292 212.046c-.04.071-.803-.429-2.201-.683-1.383-.262-3.425-.159-5.364.81-1.939.968-3.306 2.461-4.148 3.604-.851 1.152-1.248 1.954-1.304 1.922-.023-.008.048-.222.215-.596.167-.365.445-.889.85-1.5.795-1.207 2.17-2.787 4.196-3.803 2.034-1.017 4.188-1.072 5.603-.723a6.278 6.278 0 011.621.603c.373.199.548.342.532.366zm-8.789 10.727c.048 0 .119.714.016 1.881-.103 1.16-.437 2.755-1.144 4.391-.707 1.636-1.645 2.978-2.416 3.851-.771.873-1.343 1.318-1.375 1.278-.111-.087 2.042-2.064 3.409-5.288 1.407-3.215 1.367-6.129 1.51-6.113z" fill="#455A64"/><path d="M362.765 222.971c.024-.008.104.175.223.524.127.341.254.858.357 1.509.215 1.286.247 3.136-.246 5.089-.501 1.953-1.399 3.565-2.201 4.597-.398.516-.755.913-1.033 1.16-.27.246-.429.373-.445.357-.056-.056.516-.619 1.239-1.683a14.613 14.613 0 002.043-4.526c.476-1.898.5-3.684.357-4.955-.135-1.278-.365-2.056-.294-2.072z" fill="#455A64"/><path d="M386.812 225.052c-2.312.73-3.314 4.018-1.796 5.907 1.51 1.89 4.943 1.636 6.159-.46 1.216-2.096-.263-5.201-2.654-5.574m9.035-15.475c-2.646.833-3.799 4.605-2.058 6.773 1.732 2.167 5.674 1.873 7.064-.525 1.399-2.397-.302-5.962-3.043-6.399" fill="#FFC1CF"/><path d="M420.498 140.689c-7.192-.603-14.463 1.001-19.39 6.257-4.927 5.264-7.279 12.831-6.198 19.961-7.645 3.176-11.817 12.887-8.845 20.612 2.972 7.726 12.579 12.148 20.383 9.385 3.505 8.885 11.936 15.642 21.369 17.143 9.44 1.5 19.548-2.311 25.644-9.663 7.501 1.691 15.917 1.58 22.218-2.819 6.302-4.399 9.155-14.093 4.347-20.088 8.638-2.104 13.033-12.879 10.466-21.391-2.559-8.503-10.227-14.609-18.42-18.071-5.412-2.287-12.167-3.478-16.784.151-3.695-5.685-10.235-9.409-17.013-9.703-6.771-.278-13.605 2.882-17.777 8.226z" fill="#fff"/><path d="M420.498 140.689s.143-.19.437-.556c.286-.373.755-.889 1.399-1.54a21.532 21.532 0 016.643-4.454 22.01 22.01 0 015.61-1.588c2.122-.286 4.49-.302 6.954.214 2.463.484 5.014 1.477 7.438 3.009 2.408 1.549 4.688 3.645 6.445 6.321l-.207-.032c1.859-1.445 4.283-2.271 6.802-2.335 2.519-.095 5.118.382 7.661 1.223 2.543.85 5.054 2.009 7.501 3.438 2.448 1.429 4.832 3.145 6.962 5.249 2.145 2.072 4.013 4.565 5.372 7.384.651 1.421 1.192 2.922 1.533 4.486.287 1.572.453 3.2.318 4.827-.206 3.248-1.208 6.543-3.107 9.362-.961 1.389-2.082 2.715-3.488 3.724a13.77 13.77 0 01-4.689 2.239l.111-.318a11.429 11.429 0 012.138 4.534c.373 1.659.389 3.398.127 5.097-.54 3.407-2.241 6.654-4.752 9.155-2.543 2.501-5.936 4.049-9.457 4.828-3.544.778-7.247.786-10.887.317-1.327-.159-2.638-.421-3.925-.699l.206-.071c-6.595 7.908-17.395 11.457-26.851 9.536-4.737-.953-9.075-3.184-12.604-6.177-3.528-2.994-6.262-6.781-7.899-10.894l.239.111c-4.522 1.556-9.465.762-13.343-1.397-3.918-2.136-6.85-5.804-7.803-9.886-.97-4.081-.183-8.273 1.613-11.648 1.804-3.39 4.649-6.026 7.875-7.384l-.088.151c-.484-3.303-.222-6.527.493-9.433.755-2.898 1.955-5.494 3.425-7.678.723-1.103 1.55-2.072 2.376-2.977.858-.874 1.733-1.668 2.662-2.311 1.828-1.334 3.735-2.167 5.484-2.755 3.528-1.135 6.428-1.238 8.352-1.246 1.923.039 2.924.174 2.924.174s-.254 0-.747-.032a38.108 38.108 0 00-2.193-.047c-1.915.04-4.808.159-8.305 1.318-1.732.587-3.615 1.429-5.419 2.755-.914.635-1.772 1.437-2.623 2.303-.81.897-1.629 1.866-2.336 2.961-1.454 2.168-2.63 4.74-3.369 7.615-.7 2.874-.954 6.058-.461 9.321l.016.111-.104.048c-3.155 1.342-5.944 3.93-7.708 7.265-1.756 3.319-2.519 7.44-1.565 11.426.937 3.978 3.806 7.559 7.652 9.647 3.807 2.104 8.638 2.874 13.041 1.35l.175-.064.063.167c1.613 4.049 4.315 7.781 7.796 10.735 3.48 2.954 7.764 5.153 12.428 6.082 9.306 1.89 19.962-1.62 26.455-9.401l.079-.095.127.023c1.28.27 2.575.532 3.894.691 3.608.461 7.264.445 10.752-.317 3.457-.763 6.795-2.287 9.258-4.717 2.448-2.429 4.108-5.613 4.633-8.924.548-3.303-.143-6.781-2.17-9.314l-.19-.238.302-.079a13.364 13.364 0 004.545-2.168c1.367-.985 2.464-2.271 3.409-3.629 1.852-2.747 2.845-5.978 3.052-9.17.127-1.596-.032-3.192-.31-4.733-.326-1.532-.858-3.009-1.494-4.406-1.335-2.779-3.171-5.241-5.293-7.289-2.097-2.081-4.458-3.78-6.881-5.209-2.424-1.421-4.919-2.58-7.438-3.43-2.512-.834-5.078-1.31-7.55-1.223-2.471.056-4.831.858-6.643 2.255l-.119.096-.08-.128c-1.724-2.644-3.973-4.724-6.341-6.256-2.392-1.517-4.911-2.517-7.351-3.002-2.44-.524-4.784-.508-6.882-.246a22.001 22.001 0 00-5.578 1.541 21.838 21.838 0 00-6.644 4.367c-.651.635-1.128 1.143-1.422 1.508-.294.358-.461.532-.461.532z" fill="#2B3242"/><path d="M469.64 165.439c0 .341-14.089.619-31.468.619-17.388 0-31.477-.278-31.477-.619 0-.342 14.089-.62 31.477-.62 17.371 0 31.468.278 31.468.62zm0 6.828c0 .341-14.089.619-31.468.619-17.388 0-31.477-.278-31.477-.619 0-.341 14.089-.619 31.477-.619 17.371-.008 31.468.27 31.468.619zm0 6.82c0 .342-14.089.619-31.468.619-17.388 0-31.477-.277-31.477-.619 0-.341 14.089-.619 31.477-.619 17.371 0 31.468.278 31.468.619zm0 6.82c0 .342-14.089.62-31.468.62-17.388 0-31.477-.278-31.477-.62 0-.341 14.089-.619 31.477-.619 17.371 0 31.468.278 31.468.619z" fill="#455A64"/><circle cx="169" cy="234" r="10" fill="#fff"/></g><defs><linearGradient id="paint0_linear" x1="216.5" y1="-22" x2="242.435" y2="430.591" gradientUnits="userSpaceOnUse"><stop stop-color="#D73558"/><stop offset="1" stop-color="#CC284D" stop-opacity="0"/></linearGradient><clipPath id="clip0"><path fill="#fff" d="M0 0h596v397H0z"/></clipPath></defs></svg>