<svg width="39" height="71" viewBox="0 0 39 71" fill="none" xmlns="http://www.w3.org/2000/svg">
<rect x="0.65" y="0.65" width="37.7" height="69.7" rx="18.85" stroke="#E3E3E7" stroke-width="1.3"/>
<rect x="3.95312" y="5.73828" width="31.087" height="59.5252" rx="15.5435" fill="#0D0E1C" fill-opacity="0.25"/>
<path d="M20.6812 32.9902C20.6812 32.4932 20.2783 32.0902 19.7813 32.0902C19.2842 32.0902 18.8813 32.4932 18.8813 32.9902L20.6812 32.9902ZM19.1449 44.7428C19.4963 45.0943 20.0662 45.0943 20.4176 44.7428L26.1452 39.0152C26.4967 38.6638 26.4967 38.0939 26.1452 37.7424C25.7937 37.391 25.2239 37.391 24.8724 37.7424L19.7812 42.8336L14.6901 37.7424C14.3386 37.391 13.7688 37.391 13.4173 37.7424C13.0658 38.0939 13.0658 38.6638 13.4173 39.0152L19.1449 44.7428ZM18.8813 32.9902L18.8812 44.1064L20.6812 44.1064L20.6812 32.9902L18.8813 32.9902Z" fill="white"/>
</svg>
