<svg width="375" height="303" viewBox="0 0 375 303" fill="none" xmlns="http://www.w3.org/2000/svg">
<g clip-path="url(#clip0_652_55030)">
<path d="M29.796 233.979C29.796 233.979 -20.8612 204.003 -18.1605 127.07C-15.4597 50.1372 52.4628 3.44371 102.508 4.47647C152.552 5.50922 167.05 27.047 208.315 30.3955C249.581 33.744 322.22 3.85831 366.598 40.8205C410.976 77.7828 375.696 168.655 322.961 234.017C270.225 299.379 111.561 310.754 29.796 233.979Z" fill="url(#paint0_linear_652_55030)" fill-opacity="0.9"/>
<path d="M407.348 267.882C407.348 267.967 313.836 268.04 198.515 268.04C83.1514 268.04 -10.3359 267.967 -10.3359 267.882C-10.3359 267.797 83.1514 267.725 198.515 267.725C313.836 267.725 407.348 267.797 407.348 267.882Z" fill="#3B3E47"/>
<path d="M262.338 152.106H146.992V23.1797H272.184V142.283C272.178 147.707 267.773 152.106 262.338 152.106Z" fill="#FFC1CF"/>
<path d="M261.844 61.5508C261.844 61.8114 239.215 62.0235 211.309 62.0235C183.396 62.0235 160.773 61.8114 160.773 61.5508C160.773 61.2902 183.396 61.0781 211.309 61.0781C239.221 61.0781 261.844 61.2902 261.844 61.5508Z" fill="#455A64"/>
<path d="M211.911 70.2832C211.911 70.5438 200.73 70.7559 186.947 70.7559C173.157 70.7559 161.977 70.5438 161.977 70.2832C161.977 70.0226 173.151 69.8105 186.947 69.8105C200.736 69.8105 211.911 70.0226 211.911 70.2832Z" fill="#455A64"/>
<path d="M231.889 69.4766C231.889 69.7372 228.929 69.9493 225.277 69.9493C221.625 69.9493 218.664 69.7372 218.664 69.4766C218.664 69.216 221.625 69.0039 225.277 69.0039C228.929 69.0039 231.889 69.216 231.889 69.4766Z" fill="#455A64"/>
<path d="M264.543 68.9375C264.543 69.1981 258.683 69.4102 251.451 69.4102C244.22 69.4102 238.359 69.1981 238.359 68.9375C238.359 68.6769 244.22 68.4648 251.451 68.4648C258.683 68.4648 264.543 68.6769 264.543 68.9375Z" fill="#455A64"/>
<path d="M207.742 78.6406C207.742 78.9012 197.228 79.1133 184.257 79.1133C171.287 79.1133 160.773 78.9012 160.773 78.6406C160.773 78.3801 171.287 78.168 184.257 78.168C197.228 78.168 207.742 78.3801 207.742 78.6406Z" fill="#455A64"/>
<path d="M264.545 78.4043C264.545 78.6649 253.061 78.877 238.902 78.877C224.736 78.877 213.258 78.6649 213.258 78.4043C213.258 78.1437 224.736 77.9316 238.902 77.9316C253.067 77.9316 264.545 78.1377 264.545 78.4043Z" fill="#455A64"/>
<path d="M264.546 86.8146C264.546 87.0752 259.432 87.2873 253.128 87.2873C246.819 87.2873 241.711 87.0752 241.711 86.8146C241.711 86.554 246.819 86.3419 253.128 86.3419C259.438 86.3359 264.546 86.548 264.546 86.8146Z" fill="#455A64"/>
<path d="M217.303 52.1895C217.303 52.4501 204.915 52.6622 189.639 52.6622C174.357 52.6622 161.969 52.4501 161.969 52.1895C161.969 51.9289 174.351 51.7168 189.639 51.7168C204.915 51.7168 217.303 51.9289 217.303 52.1895Z" fill="#DF5A78"/>
<path d="M294.267 267.179H51.886C47.0023 267.179 43.0469 263.228 43.0469 258.35V104.22C43.0469 99.3417 47.0023 95.3906 51.886 95.3906H294.267C299.151 95.3906 303.107 99.3417 303.107 104.22V258.35C303.107 263.228 299.151 267.179 294.267 267.179Z" fill="#3B3E47"/>
<path d="M303.495 269.507H43.3377C37.3742 269.507 32.5391 264.678 32.5391 258.721V254.473H314.293V258.721C314.287 264.678 309.458 269.507 303.495 269.507Z" fill="#3B3E47"/>
<path d="M295.757 102.221H50.3906V247.291H295.757V102.221Z" fill="#767A85"/>
<path d="M147.805 254.472C147.799 254.472 147.89 254.466 148.078 254.466C148.278 254.466 148.551 254.46 148.903 254.46C149.649 254.454 150.729 254.448 152.106 254.442C154.921 254.43 158.974 254.412 163.997 254.393C174.116 254.369 188.124 254.339 203.746 254.309H204.037L203.891 254.563C203.394 255.418 202.854 256.339 202.314 257.266C201.75 258.235 201.186 259.199 200.646 260.12L200.597 260.205H200.5C178.878 260.163 160.418 260.132 151.305 260.114H151.263L151.239 260.078C150.116 258.254 149.255 256.854 148.66 255.89C148.381 255.436 148.163 255.078 148.011 254.83C147.872 254.587 147.805 254.472 147.805 254.472C147.805 254.472 147.896 254.599 148.048 254.842C148.211 255.09 148.436 255.448 148.733 255.902C149.34 256.842 150.219 258.211 151.36 259.987L151.293 259.95C160.405 259.932 178.872 259.902 200.488 259.86L200.342 259.944C200.882 259.023 201.446 258.06 202.011 257.09C202.551 256.163 203.091 255.248 203.588 254.387L203.734 254.642C188.173 254.606 174.219 254.581 164.143 254.557C159.101 254.539 155.024 254.521 152.197 254.509C150.796 254.503 149.704 254.496 148.946 254.49C148.582 254.484 148.302 254.484 148.09 254.484C147.914 254.478 147.805 254.472 147.805 254.472Z" fill="#455A64"/>
<path d="M303.108 254.472C303.108 254.557 244.887 254.63 173.088 254.63C101.258 254.63 43.0547 254.557 43.0547 254.472C43.0547 254.387 101.264 254.314 173.088 254.314C244.887 254.314 303.108 254.387 303.108 254.472Z" fill="#455A64"/>
<path d="M236.73 73.2463C240.74 73.2463 243.992 76.4945 243.992 80.5001V95.3895H222.273V81.6515C222.273 77.0096 226.041 73.2402 230.694 73.2402H236.73V73.2463Z" fill="#3B3E47"/>
<path d="M236.732 73.2468C236.732 73.3316 216.239 73.3862 190.959 73.3619C165.673 73.3377 145.18 73.2528 145.18 73.1619C145.18 73.0771 165.673 73.0226 190.959 73.0468C216.239 73.071 236.732 73.1619 236.732 73.2468Z" fill="#3B3E47"/>
<path d="M236.549 73.2286L227.491 73.168L214.333 73.2468H117.66C109.452 73.2468 102.797 79.8946 102.797 88.0937V244.896V247.635H227.989V81.3853C228.359 73.2468 236.549 73.2286 236.549 73.2286Z" fill="#FFECF0"/>
<path d="M236.549 73.2282L161.062 73.3918L123.321 73.4221L118.601 73.4282C117.812 73.41 117.036 73.4585 116.259 73.5009C115.489 73.61 114.718 73.6948 113.972 73.9191C110.951 74.6644 108.239 76.4764 106.267 78.8701C105.285 80.076 104.52 81.4456 103.962 82.8879C103.841 83.2575 103.671 83.609 103.586 83.9847L103.295 85.1119C103.179 85.8754 103.028 86.639 103.022 87.4207C102.955 90.5416 103.01 93.6989 102.991 96.838L103.095 247.641L102.791 247.338L227.983 247.417L227.765 247.635L227.825 157.947L227.898 113.103L227.94 90.681L227.953 85.0755L227.959 82.2758C227.959 81.8092 227.947 81.3426 228.019 80.8759C228.08 80.4093 228.098 79.9427 228.238 79.4943C228.65 77.6763 229.694 75.9673 231.271 74.9311C232.035 74.3917 232.891 73.9857 233.789 73.7191C234.687 73.4343 235.609 73.2585 236.549 73.2282ZM236.549 73.2282C235.615 73.2585 234.687 73.4403 233.795 73.7191C232.903 73.9918 232.048 74.4039 231.289 74.9432C229.724 75.9855 228.693 77.6884 228.286 79.5003C228.147 79.9488 228.129 80.4154 228.074 80.8759C228.001 81.3365 228.019 81.8031 228.019 82.2758L228.025 85.0816L228.038 90.6871L228.08 113.109L228.153 157.953L228.213 247.641V247.859H227.995L102.803 247.938H102.5V247.635L102.603 96.8319C102.621 93.6868 102.573 90.5538 102.646 87.3965C102.652 86.5966 102.803 85.8148 102.925 85.027L103.222 83.8696C103.313 83.4817 103.483 83.1181 103.61 82.7424C104.187 81.2638 104.969 79.8579 105.982 78.6216C108.009 76.1734 110.787 74.319 113.887 73.5615C114.652 73.3312 115.446 73.2464 116.235 73.1373C117.03 73.0949 117.824 73.0525 118.607 73.0646L123.327 73.0707L161.068 73.101L236.549 73.2282Z" fill="#3B3E47"/>
<path d="M121.652 101.953H143.498L143.534 109.261H142.491C142.145 106.644 141.168 104.88 139.548 103.953C138.638 103.444 137.28 103.165 135.472 103.117V122.212C135.472 123.545 135.702 124.43 136.169 124.866C136.636 125.302 137.607 125.52 139.081 125.52V126.442H126.147V125.52C127.567 125.52 128.507 125.296 128.974 124.854C129.441 124.412 129.672 123.527 129.672 122.206V103.111C127.9 103.159 126.542 103.438 125.595 103.947C123.86 104.892 122.877 106.662 122.653 109.255H121.609L121.652 101.953Z" fill="#DF5A78"/>
<path d="M210.806 103.602C210.806 103.862 198.758 104.074 183.894 104.074C169.025 104.074 156.977 103.862 156.977 103.602C156.977 103.341 169.025 103.129 183.894 103.129C198.758 103.129 210.806 103.341 210.806 103.602Z" fill="#DF5A78"/>
<path d="M178.871 112.188C178.871 112.448 174.212 112.66 168.467 112.66C162.716 112.66 158.062 112.448 158.062 112.188C158.062 111.927 162.722 111.715 168.467 111.715C174.212 111.715 178.871 111.927 178.871 112.188Z" fill="#455A64"/>
<path d="M152.634 138.398C152.634 138.659 143.782 138.871 132.875 138.871C121.961 138.871 113.109 138.659 113.109 138.398C113.109 138.138 121.955 137.926 132.875 137.926C143.789 137.926 152.634 138.138 152.634 138.398Z" fill="#455A64"/>
<path d="M197.399 138.398C197.399 138.659 188.548 138.871 177.64 138.871C166.726 138.871 157.875 138.659 157.875 138.398C157.875 138.138 166.72 137.926 177.64 137.926C188.548 137.926 197.399 138.138 197.399 138.398Z" fill="#DF5A78"/>
<path d="M152.634 145.396C152.634 145.657 143.782 145.869 132.875 145.869C121.961 145.869 113.109 145.657 113.109 145.396C113.109 145.136 121.955 144.924 132.875 144.924C143.789 144.924 152.634 145.136 152.634 145.396Z" fill="#455A64"/>
<path d="M152.634 152.397C152.634 152.657 143.782 152.869 132.875 152.869C121.961 152.869 113.109 152.657 113.109 152.397C113.109 152.136 121.955 151.924 132.875 151.924C143.789 151.918 152.634 152.13 152.634 152.397Z" fill="#DF5A78"/>
<path d="M178.871 126.447C178.871 126.708 174.212 126.92 168.467 126.92C162.716 126.92 158.062 126.708 158.062 126.447C158.062 126.187 162.722 125.975 168.467 125.975C174.212 125.975 178.871 126.187 178.871 126.447Z" fill="#455A64"/>
<path d="M214.968 138.398C214.968 138.659 211.862 138.871 208.034 138.871C204.2 138.871 201.094 138.659 201.094 138.398C201.094 138.138 204.2 137.926 208.034 137.926C211.862 137.926 214.968 138.138 214.968 138.398Z" fill="#455A64"/>
<path d="M218.677 112.188C218.677 112.448 210.681 112.66 200.823 112.66C190.959 112.66 182.969 112.448 182.969 112.188C182.969 111.927 190.965 111.715 200.823 111.715C210.681 111.715 218.677 111.927 218.677 112.188Z" fill="#455A64"/>
<path d="M217.065 119.018C217.065 119.278 203.852 119.49 187.563 119.49C171.268 119.49 158.055 119.278 158.055 119.018C158.055 118.757 171.262 118.545 187.563 118.545C203.858 118.545 217.065 118.757 217.065 119.018Z" fill="#455A64"/>
<path d="M214.968 145.396C214.968 145.657 202.186 145.869 186.425 145.869C170.657 145.869 157.875 145.657 157.875 145.396C157.875 145.136 170.651 144.924 186.425 144.924C202.186 144.924 214.968 145.136 214.968 145.396Z" fill="#455A64"/>
<path d="M214.965 165.656C214.965 165.917 202.972 166.129 188.181 166.129C173.384 166.129 161.391 165.917 161.391 165.656C161.391 165.396 173.384 165.184 188.181 165.184C202.972 165.184 214.965 165.396 214.965 165.656Z" fill="#DF5A78"/>
<path d="M214.965 172.467C214.965 172.727 202.972 172.939 188.181 172.939C173.384 172.939 161.391 172.727 161.391 172.467C161.391 172.206 173.384 171.994 188.181 171.994C202.972 171.994 214.965 172.206 214.965 172.467Z" fill="#455A64"/>
<path d="M214.965 179.279C214.965 179.54 202.972 179.752 188.181 179.752C173.384 179.752 161.391 179.54 161.391 179.279C161.391 179.019 173.384 178.807 188.181 178.807C202.972 178.807 214.965 179.019 214.965 179.279Z" fill="#455A64"/>
<path d="M214.965 186.09C214.965 186.35 202.972 186.563 188.181 186.563C173.384 186.563 161.391 186.35 161.391 186.09C161.391 185.829 173.384 185.617 188.181 185.617C202.972 185.617 214.965 185.829 214.965 186.09Z" fill="#455A64"/>
<path d="M192.234 192.902C192.234 193.036 190.505 193.151 187.714 193.236C184.923 193.32 181.071 193.375 176.812 193.375C172.553 193.375 168.695 193.32 165.904 193.236C163.114 193.151 161.391 193.03 161.391 192.902C161.391 192.769 163.114 192.654 165.904 192.569C168.695 192.484 172.553 192.43 176.812 192.43C181.071 192.43 184.923 192.484 187.714 192.569C190.505 192.654 192.234 192.769 192.234 192.902Z" fill="#455A64"/>
<path d="M205.26 152.76C205.26 153.02 194.929 153.232 182.189 153.232C169.443 153.232 159.117 153.02 159.117 152.76C159.117 152.499 169.449 152.287 182.189 152.287C194.929 152.287 205.26 152.499 205.26 152.76Z" fill="#455A64"/>
<path d="M151.7 166.425L154.545 219.002L103.082 225.437L103.039 165.977L151.7 166.425Z" fill="#DA7B8F"/>
<path d="M85.0697 162.775L84.7109 218.551L154.55 218.999L154.909 163.223L85.0697 162.775Z" fill="#FFECF0"/>
<path d="M87.4542 166.302L87.1406 215.055L152.072 215.471L152.386 166.719L87.4542 166.302Z" fill="#DF5A78"/>
<g opacity="0.2">
<g opacity="0.2">
<g opacity="0.2">
<path opacity="0.2" d="M130.043 181.315C130.025 184.133 127.719 186.405 124.898 186.387C122.077 186.369 119.802 184.066 119.82 181.248C119.839 178.43 122.144 176.158 124.965 176.176C127.786 176.194 130.061 178.497 130.043 181.315Z" fill="#3B3E47"/>
</g>
</g>
</g>
<path d="M161.269 232.159C161.269 232.753 160.784 233.237 160.189 233.237C159.595 233.237 159.109 232.753 159.109 232.159C159.109 231.565 159.595 231.08 160.189 231.08C160.79 231.08 161.269 231.565 161.269 232.159Z" fill="#3B3E47"/>
<path d="M167.683 232.159C167.683 232.753 167.198 233.237 166.603 233.237C166.009 233.237 165.523 232.753 165.523 232.159C165.523 231.565 166.009 231.08 166.603 231.08C167.198 231.08 167.683 231.565 167.683 232.159Z" fill="#3B3E47"/>
<path d="M174.089 232.159C174.089 232.753 173.604 233.237 173.01 233.237C172.415 233.237 171.93 232.753 171.93 232.159C171.93 231.565 172.415 231.08 173.01 231.08C173.604 231.08 174.089 231.565 174.089 232.159Z" fill="#3B3E47"/>
<path d="M197.704 207.094C197.704 207.354 188.853 207.567 177.945 207.567C167.031 207.567 158.18 207.354 158.18 207.094C158.18 206.833 167.025 206.621 177.945 206.621C188.853 206.621 197.704 206.833 197.704 207.094Z" fill="#DF5A78"/>
<path d="M215.273 214.094C215.273 214.354 202.491 214.566 186.729 214.566C170.962 214.566 158.18 214.354 158.18 214.094C158.18 213.833 170.956 213.621 186.729 213.621C202.491 213.621 215.273 213.833 215.273 214.094Z" fill="#455A64"/>
<path d="M146.583 176.686C146.583 176.897 139.06 177.068 129.79 177.068C120.515 177.068 112.992 176.897 112.992 176.686C112.992 176.476 120.509 176.305 129.79 176.305C139.066 176.305 146.583 176.476 146.583 176.686Z" fill="white"/>
<path d="M146.583 181.264C146.583 181.475 139.06 181.646 129.79 181.646C120.515 181.646 112.992 181.475 112.992 181.264C112.992 181.054 120.509 180.883 129.79 180.883C139.066 180.883 146.583 181.054 146.583 181.264Z" fill="#455A64"/>
<path d="M146.586 192.714C146.586 192.924 134.447 193.095 119.488 193.095C104.521 193.095 92.3828 192.924 92.3828 192.714C92.3828 192.503 104.513 192.332 119.488 192.332C134.456 192.332 146.586 192.503 146.586 192.714Z" fill="white"/>
<path d="M146.586 199.583C146.586 199.793 134.447 199.964 119.488 199.964C104.521 199.964 92.3828 199.793 92.3828 199.583C92.3828 199.372 104.513 199.201 119.488 199.201C134.456 199.201 146.586 199.372 146.586 199.583Z" fill="#455A64"/>
<path d="M146.586 206.452C146.586 206.662 134.447 206.834 119.488 206.834C104.521 206.834 92.3828 206.662 92.3828 206.452C92.3828 206.242 104.513 206.07 119.488 206.07C134.456 206.07 146.586 206.242 146.586 206.452Z" fill="#455A64"/>
<path d="M287.106 264.496L241.934 261.733C241.649 261.085 241.461 260.709 241.461 260.709L229.218 260.951L225.232 260.709C225.232 260.709 225.172 260.83 225.075 261.036L183.979 261.854C175.783 261.854 167.174 266.848 167.174 273.229C167.071 279.301 170.014 285.894 177.354 285.743L233.35 285.555L289.339 285.743C296.68 285.894 298.621 281.47 298.633 276.223C299.495 266.454 293.367 264.575 287.106 264.496Z" fill="#767A85"/>
<path d="M182.5 285.75C182.5 285.75 182.591 285.738 182.767 285.732C182.961 285.726 183.222 285.726 183.556 285.719C184.265 285.713 185.291 285.701 186.607 285.689C189.27 285.677 193.117 285.659 197.873 285.641C207.428 285.629 220.665 285.61 235.468 285.592L235.31 285.762C235.231 284.538 235.153 283.223 235.068 281.902C234.898 279.199 234.734 276.533 234.576 274.006L234.716 274.151C220.963 272.624 208.811 271.272 200.081 270.303C195.737 269.806 192.243 269.406 189.816 269.127C188.621 268.982 187.699 268.873 187.05 268.794C186.747 268.751 186.51 268.721 186.334 268.703C186.17 268.679 186.091 268.667 186.091 268.661C186.091 268.655 186.176 268.661 186.334 268.673C186.51 268.691 186.747 268.709 187.05 268.739C187.699 268.806 188.627 268.897 189.822 269.018C192.249 269.273 195.744 269.642 200.093 270.097C208.823 271.042 220.981 272.357 234.74 273.842L234.874 273.854L234.88 273.987C235.037 276.52 235.207 279.181 235.377 281.883C235.462 283.205 235.541 284.52 235.62 285.744L235.632 285.913H235.462C220.653 285.895 207.416 285.877 197.867 285.865C193.105 285.847 189.264 285.829 186.601 285.816C185.285 285.804 184.259 285.792 183.55 285.786C183.21 285.78 182.949 285.774 182.761 285.774C182.591 285.756 182.5 285.75 182.5 285.75Z" fill="#3B3E47"/>
<path d="M194.048 269.702C194.011 269.745 193.453 269.29 192.464 268.69C191.481 268.09 190.044 267.375 188.351 266.884C186.658 266.4 185.063 266.242 183.904 266.23C182.751 266.218 182.03 266.303 182.023 266.248C182.023 266.224 182.199 266.187 182.521 266.133C182.842 266.072 183.316 266.03 183.904 266.006C185.075 265.957 186.713 266.084 188.436 266.581C190.159 267.078 191.615 267.842 192.579 268.502C193.065 268.83 193.441 269.121 193.684 269.339C193.932 269.557 194.06 269.684 194.048 269.702Z" fill="#3B3E47"/>
<path d="M283.597 267.301C283.615 267.386 274.709 269.538 263.698 272.107C252.687 274.676 243.745 276.688 243.727 276.604C243.708 276.519 252.614 274.367 263.625 271.798C274.636 269.229 283.579 267.217 283.597 267.301Z" fill="#3B3E47"/>
<path d="M276.073 266.43C276.103 266.527 274.35 266.878 272.584 268.102C270.801 269.302 269.83 270.799 269.745 270.732C269.715 270.714 269.909 270.314 270.352 269.745C270.789 269.175 271.492 268.46 272.402 267.842C273.312 267.224 274.241 266.836 274.932 266.636C275.618 266.436 276.067 266.393 276.073 266.43Z" fill="#3B3E47"/>
<path d="M259.255 215.203L273.561 240.079C275.326 243.152 275.435 246.903 273.852 250.072C272.014 253.751 268.204 256.029 264.091 255.914L242.123 255.296L241.547 247.315L260.893 243.612L247.85 221.057L259.255 215.203Z" fill="white"/>
<path d="M205.931 257.781L226.133 263.125L226.569 257.071L207.951 246.273L221.546 221.063L210.135 215.209L195.83 240.085C192.366 246.509 195.599 254.502 202.564 256.714L205.931 257.781Z" fill="white"/>
<path d="M253.182 231.178L266.99 223.912C266.99 223.912 264.691 219.052 261.075 214.058C256.798 208.15 250.167 204.017 242.633 202.447L226.75 202.635C224.487 202.878 222.631 203.308 221.084 203.938L221.096 203.877C212.475 205.774 202.914 224.554 202.914 224.554L215.478 231.16L215.757 233.135C216.121 235.735 217.262 238.177 219.033 240.171L215.375 264.211L256.155 265.053L250.962 247.837L253.182 231.178Z" fill="#DF5A78"/>
<path d="M219.406 240.305C219.394 240.317 219.169 240.165 218.799 239.844C218.429 239.523 217.926 239.014 217.41 238.293C216.385 236.868 215.469 234.457 215.711 231.736C215.905 230.396 216.288 229.178 216.646 228.081C217.01 226.985 217.38 226.015 217.707 225.203C218.029 224.391 218.308 223.742 218.514 223.3C218.714 222.858 218.842 222.615 218.86 222.627C218.878 222.633 218.793 222.894 218.623 223.349C218.435 223.864 218.199 224.512 217.913 225.282C217.616 226.1 217.27 227.075 216.925 228.172C216.585 229.263 216.215 230.481 216.027 231.778C215.905 233.063 216.075 234.341 216.373 235.426C216.664 236.523 217.137 237.444 217.604 238.171C218.557 239.608 219.454 240.25 219.406 240.305Z" fill="#3B3E47"/>
<path d="M213.29 270.017L210.984 243.201H260.664L257.37 270.35L213.29 270.017Z" fill="#3B3E47"/>
<path d="M238.986 257.503C238.986 259.248 237.572 260.66 235.825 260.66C234.078 260.66 232.664 259.248 232.664 257.503C232.664 255.758 234.078 254.346 235.825 254.346C237.572 254.346 238.986 255.758 238.986 257.503Z" fill="#FFECF0"/>
<path d="M234.953 275.252L243.392 276.428V285.59L235.633 285.39L234.953 275.252Z" fill="white"/>
<path d="M243.389 276.428H247.181C247.921 276.428 248.643 276.622 249.28 276.991L251.282 278.143C251.937 278.518 254.054 279.579 254.776 279.809C257.081 280.549 260.958 281.542 261.777 282.173C264.113 283.972 263.403 286.093 262.117 286.318C260.988 286.512 243.383 285.584 243.383 285.584V276.428H243.389Z" fill="#DF5A78"/>
<path d="M249.615 284.832C249.536 284.85 249.245 283.796 249.208 282.451C249.166 281.105 249.39 280.039 249.475 280.051C249.566 280.063 249.481 281.13 249.524 282.445C249.56 283.753 249.706 284.814 249.615 284.832Z" fill="#3B3E47"/>
<path d="M251.414 284.779C251.329 284.779 251.263 283.798 251.275 282.592C251.287 281.386 251.366 280.404 251.451 280.41C251.536 280.41 251.602 281.392 251.59 282.598C251.578 283.804 251.499 284.779 251.414 284.779Z" fill="#3B3E47"/>
<path d="M253.536 285.142C253.451 285.148 253.3 284.148 253.203 282.899C253.106 281.657 253.1 280.639 253.184 280.633C253.269 280.627 253.421 281.627 253.518 282.875C253.615 284.123 253.621 285.136 253.536 285.142Z" fill="#3B3E47"/>
<path d="M247.974 282.39C247.968 282.409 247.683 282.348 247.198 282.148C246.712 281.942 246.027 281.59 245.305 280.978C245.123 280.827 244.941 280.657 244.765 280.469C244.589 280.281 244.395 280.069 244.28 279.785C244.164 279.5 244.164 279.13 244.383 278.845C244.492 278.7 244.674 278.609 244.856 278.585C245.038 278.56 245.208 278.591 245.366 278.645C246.597 279.063 247.653 280.269 247.847 281.754C248.035 283.257 247.228 284.651 246.16 285.354C245.893 285.529 245.614 285.687 245.293 285.742C245.135 285.772 244.965 285.772 244.795 285.717C244.626 285.663 244.486 285.536 244.413 285.378C244.268 285.045 244.395 284.736 244.522 284.505C244.656 284.263 244.844 284.087 245.008 283.917C245.693 283.257 246.385 282.893 246.87 282.699C247.362 282.505 247.653 282.463 247.653 282.475C247.659 282.499 247.386 282.584 246.919 282.808C246.458 283.033 245.802 283.414 245.165 284.075C245.008 284.245 244.844 284.414 244.735 284.62C244.626 284.82 244.553 285.075 244.644 285.257C244.735 285.451 244.977 285.517 245.238 285.457C245.493 285.408 245.748 285.263 245.997 285.099C246.967 284.445 247.701 283.142 247.531 281.778C247.362 280.421 246.379 279.294 245.281 278.906C245.014 278.815 244.741 278.827 244.601 279.003C244.456 279.179 244.437 279.457 244.522 279.675C244.71 280.13 245.129 280.481 245.451 280.79C246.84 282.039 248.005 282.33 247.974 282.39Z" fill="#3B3E47"/>
<path d="M262.122 286.318C262.098 286.287 262.371 286.166 262.584 285.742C262.796 285.324 262.759 284.572 262.335 283.833C261.922 283.088 261.067 282.445 259.993 282.07C258.919 281.682 257.639 281.5 256.353 281.094C253.763 280.324 251.573 279.191 250.086 278.24C249.34 277.767 248.77 277.343 248.382 277.04C247.999 276.731 247.793 276.549 247.805 276.531C247.817 276.513 248.048 276.664 248.454 276.937C248.861 277.209 249.455 277.603 250.208 278.046C251.712 278.937 253.89 280.021 256.444 280.785C257.712 281.179 258.98 281.373 260.096 281.785C261.206 282.191 262.11 282.894 262.535 283.712C262.96 284.512 262.972 285.336 262.699 285.784C262.571 286.009 262.414 286.142 262.311 286.215C262.189 286.299 262.129 286.33 262.122 286.318Z" fill="#3B3E47"/>
<path d="M256.373 209.028C256.379 209.028 256.379 209.07 256.373 209.155C256.367 209.258 256.355 209.379 256.343 209.531C256.313 209.882 256.264 210.373 256.209 210.997C256.076 212.3 255.894 214.16 255.657 216.5L255.645 216.639L255.518 216.572C253.486 215.506 251.004 214.197 248.195 212.724L248.371 212.676C247.164 214.712 245.823 216.972 244.392 219.378L244.307 219.524L244.173 219.421C242.08 217.815 239.817 216.088 237.476 214.288H237.67C236.741 215.015 235.753 215.791 234.752 216.572C233.399 217.627 232.07 218.669 230.772 219.681L230.626 219.796L230.535 219.633C229.213 217.19 227.945 214.845 226.744 212.633L226.932 212.7C224.014 213.997 221.314 215.203 218.893 216.275L218.748 216.342L218.723 216.184C218.256 213.433 217.85 211.04 217.51 209.046L217.631 209.112C215.672 209.858 214.119 210.452 213.033 210.864C212.511 211.058 212.105 211.209 211.807 211.318C211.68 211.361 211.577 211.397 211.492 211.427C211.419 211.452 211.383 211.464 211.383 211.458C211.383 211.452 211.413 211.433 211.486 211.403C211.571 211.367 211.668 211.324 211.795 211.27C212.087 211.149 212.487 210.985 213.003 210.773C214.082 210.343 215.629 209.718 217.571 208.943L217.674 208.9L217.692 209.009C218.05 211.003 218.481 213.391 218.972 216.136L218.796 216.045C221.205 214.954 223.898 213.742 226.816 212.427L226.938 212.373L227.004 212.494C228.206 214.706 229.486 217.051 230.808 219.487L230.572 219.439C231.87 218.421 233.199 217.384 234.545 216.324C235.546 215.542 236.535 214.766 237.463 214.039L237.56 213.967L237.658 214.039C239.999 215.839 242.256 217.578 244.343 219.184L244.125 219.227C245.562 216.827 246.915 214.573 248.135 212.542L248.201 212.433L248.311 212.494C251.107 213.991 253.577 215.318 255.603 216.403L255.463 216.475C255.736 214.142 255.955 212.282 256.106 210.985C256.185 210.367 256.246 209.876 256.288 209.525C256.313 209.373 256.331 209.252 256.343 209.149C256.361 209.07 256.373 209.028 256.373 209.028Z" fill="#FFECF0"/>
<path d="M262.267 215.78C262.273 215.78 262.261 215.84 262.23 215.955C262.2 216.089 262.158 216.258 262.103 216.47C261.982 216.937 261.806 217.604 261.581 218.452C261.114 220.197 260.435 222.7 259.591 225.827L259.561 225.948L259.446 225.894C257.013 224.724 254.113 223.336 250.886 221.791L251.056 221.749C248.872 224.864 246.439 228.324 243.848 232.02L243.745 232.172L243.618 232.039C241.416 229.808 239.086 227.451 236.69 225.027C236.204 224.53 235.719 224.039 235.234 223.555L235.428 223.579C232.182 225.615 229.046 227.578 226.091 229.427L225.958 229.512L225.879 229.372C224.077 226.191 222.385 223.209 220.844 220.494L221.001 220.555C217.313 221.821 214.067 222.943 211.404 223.858L211.313 223.888L211.283 223.797C210.373 221.161 209.651 219.076 209.153 217.628C208.917 216.925 208.735 216.38 208.601 215.986C208.546 215.81 208.498 215.671 208.468 215.561C208.437 215.464 208.425 215.416 208.431 215.416C208.437 215.416 208.455 215.458 208.492 215.555C208.534 215.664 208.589 215.798 208.65 215.974C208.789 216.361 208.989 216.901 209.25 217.598C209.772 219.04 210.518 221.118 211.465 223.736L211.343 223.676C214 222.743 217.234 221.603 220.916 220.306L221.02 220.27L221.074 220.367C222.627 223.082 224.326 226.051 226.14 229.227L225.927 229.172C228.882 227.318 232.012 225.348 235.258 223.312L235.367 223.246L235.458 223.336C235.937 223.821 236.423 224.318 236.914 224.809C239.311 227.239 241.634 229.596 243.836 231.826L243.6 231.845C246.202 228.16 248.647 224.706 250.843 221.597L250.91 221.506L251.013 221.555C254.228 223.118 257.116 224.53 259.543 225.712L259.397 225.779C260.277 222.664 260.987 220.167 261.478 218.428C261.721 217.585 261.915 216.925 262.048 216.458C262.115 216.246 262.164 216.083 262.206 215.949C262.243 215.834 262.261 215.774 262.267 215.78Z" fill="#FFECF0"/>
<path d="M256.155 173.505C253.728 173.777 251.204 172.978 249.372 171.366C251.58 172.481 254.529 170.954 255.305 168.602C256.082 166.257 255.445 161.888 253.516 160.336C251.678 158.864 249.136 158.3 246.861 158.906C244.586 159.512 242.177 162.973 241.431 165.203L241.473 165.269C241.121 165.13 240.77 165.003 240.418 164.881C237.9 164.039 235.206 163.627 232.567 163.93C229.928 164.233 227.344 165.281 225.391 167.087L240.818 191.854C243.621 191.606 246.102 189.721 247.57 187.322C249.039 184.928 249.603 182.074 249.742 179.268C249.779 178.565 249.773 177.85 249.748 177.141C251.405 177.407 253.055 177.674 254.711 177.935C253.825 176.747 252.697 175.735 251.411 174.989C253.073 175.632 255.142 174.983 256.155 173.505Z" fill="#3B3E47"/>
<path d="M236.651 211.943C240.837 211.852 244.192 208.464 244.24 204.283L244.598 173.468C244.622 172.195 243.67 171.117 242.402 170.983L229.371 167.693C225.197 167.25 222.424 172.383 222.157 176.565C221.866 181.213 221.69 186.897 222.242 190.363C223.353 197.338 228.703 198.223 228.703 198.223C228.703 198.205 228.709 200.92 228.722 204.229C228.746 208.561 232.319 212.034 236.651 211.943Z" fill="white"/>
<path d="M224.868 181.079C224.85 181.551 225.238 181.957 225.729 181.982C226.221 182.006 226.633 181.648 226.651 181.176C226.67 180.703 226.281 180.297 225.79 180.273C225.299 180.248 224.886 180.606 224.868 181.079Z" fill="#3B3E47"/>
<path d="M223.397 179.521C223.506 179.637 224.186 179.14 225.151 179.14C226.115 179.128 226.819 179.624 226.922 179.503C226.971 179.449 226.861 179.243 226.552 179.018C226.249 178.794 225.733 178.576 225.132 178.582C224.532 178.588 224.028 178.806 223.737 179.031C223.44 179.261 223.343 179.473 223.397 179.521Z" fill="#3B3E47"/>
<path d="M234.04 181.079C234.021 181.551 234.41 181.957 234.901 181.982C235.392 182.006 235.805 181.648 235.823 181.176C235.841 180.703 235.453 180.297 234.962 180.273C234.47 180.248 234.058 180.606 234.04 181.079Z" fill="#3B3E47"/>
<path d="M232.874 179.703C232.983 179.818 233.663 179.321 234.627 179.321C235.592 179.309 236.295 179.806 236.399 179.685C236.447 179.63 236.338 179.424 236.029 179.2C235.725 178.976 235.21 178.758 234.609 178.764C234.008 178.77 233.505 178.988 233.214 179.212C232.916 179.443 232.819 179.649 232.874 179.703Z" fill="#3B3E47"/>
<path d="M229.367 186.842C229.374 186.788 228.773 186.685 227.802 186.558C227.554 186.533 227.323 186.485 227.281 186.315C227.22 186.139 227.323 185.873 227.444 185.588C227.675 184.994 227.918 184.37 228.172 183.715C229.185 181.049 229.913 178.861 229.804 178.819C229.695 178.777 228.791 180.904 227.778 183.57C227.535 184.225 227.305 184.855 227.08 185.455C226.989 185.733 226.826 186.049 226.953 186.418C227.02 186.6 227.202 186.733 227.359 186.776C227.517 186.824 227.657 186.824 227.778 186.836C228.761 186.891 229.367 186.897 229.367 186.842Z" fill="#3B3E47"/>
<path d="M228.711 198.229C228.711 198.229 233.407 198.532 238.06 195.738C238.06 195.738 235.791 200.526 228.808 199.877L228.711 198.229Z" fill="#DD2B50"/>
<path d="M229.786 189.157C230.132 188.696 230.739 188.448 231.345 188.515C231.764 188.557 232.189 188.763 232.437 189.102C232.692 189.442 232.747 189.927 232.516 190.248C232.255 190.611 231.716 190.696 231.254 190.569C230.793 190.436 230.399 190.139 230.023 189.836C229.92 189.751 229.811 189.666 229.75 189.551C229.683 189.436 229.671 189.29 229.75 189.193" fill="#DD2B50"/>
<path d="M232.211 187.502C232.053 187.496 232.053 188.538 231.155 189.278C230.263 190.023 229.147 189.902 229.141 190.047C229.129 190.114 229.39 190.247 229.857 190.265C230.318 190.284 230.991 190.132 231.537 189.678C232.083 189.223 232.32 188.617 232.356 188.187C232.399 187.757 232.277 187.502 232.211 187.502Z" fill="#3B3E47"/>
<path d="M232.435 178.019C232.532 178.279 233.491 178.158 234.619 178.291C235.753 178.407 236.663 178.734 236.815 178.504C236.882 178.388 236.724 178.146 236.354 177.891C235.99 177.637 235.408 177.401 234.728 177.322C234.049 177.249 233.43 177.358 233.017 177.522C232.605 177.691 232.393 177.898 232.435 178.019Z" fill="#3B3E47"/>
<path d="M223.532 177.747C223.702 177.965 224.363 177.741 225.164 177.729C225.958 177.693 226.638 177.874 226.796 177.65C226.862 177.541 226.759 177.323 226.462 177.111C226.171 176.905 225.685 176.735 225.133 176.753C224.587 176.771 224.108 176.971 223.835 177.196C223.55 177.42 223.459 177.644 223.532 177.747Z" fill="#3B3E47"/>
<path d="M243.83 182.134C244.357 181.77 245.097 181.904 245.656 182.225C246.936 182.964 247.579 184.661 247.099 186.061C246.626 187.461 245.085 188.418 243.617 188.224" fill="white"/>
<path d="M244.316 186.152C244.334 186.104 244.589 186.213 244.922 186.055C245.256 185.922 245.553 185.431 245.523 184.862C245.505 184.286 245.128 183.868 244.777 183.74C244.425 183.595 244.17 183.668 244.158 183.613C244.134 183.577 244.394 183.395 244.855 183.498C245.08 183.553 245.335 183.68 245.535 183.922C245.735 184.159 245.863 184.492 245.881 184.837C245.929 185.54 245.486 186.177 245.007 186.286C244.534 186.419 244.279 186.177 244.316 186.152Z" fill="#DD2B50"/>
<path d="M246.22 187.563C246.226 187.551 246.341 187.63 246.542 187.787C246.772 187.975 247.057 188.212 247.397 188.484C248.168 189.139 249.193 190.011 250.412 191.042L250.515 191.126L250.43 191.229C249.308 192.575 248.058 194.259 246.657 196.017C246.341 196.417 246.02 196.805 245.711 197.168L245.45 197.471L245.431 197.071C245.304 194.235 245.207 191.72 245.152 189.914C245.134 189.054 245.116 188.345 245.104 187.787C245.098 187.29 245.104 187.012 245.122 187.012C245.14 187.012 245.177 187.284 245.213 187.781C245.249 188.333 245.298 189.048 245.359 189.902C245.468 191.702 245.607 194.217 245.741 197.053L245.468 196.956C245.765 196.593 246.087 196.205 246.402 195.811C247.804 194.059 249.065 192.381 250.218 191.048L250.236 191.236C249.053 190.169 248.052 189.272 247.294 188.593C246.972 188.296 246.705 188.048 246.487 187.842C246.305 187.672 246.214 187.569 246.22 187.563Z" fill="#455A64"/>
<path d="M232.105 164.645C230.394 164.717 228.677 164.79 227.015 165.202C225.352 165.614 223.745 166.396 222.616 167.675C221.488 168.959 220.912 170.795 221.403 172.432C221.888 174.068 223.575 175.353 225.268 175.122C226.554 174.953 227.785 174.001 229.029 174.377C230.2 174.734 230.849 176.165 232.056 176.389C233.245 176.607 234.307 175.54 235.514 175.437C236.843 175.322 238.001 176.413 238.59 177.607C239.184 178.801 239.409 180.152 240.003 181.352C240.386 182.115 240.974 182.849 241.799 183.061C242.557 183.255 243.383 182.964 243.977 182.449C244.566 181.934 244.954 181.225 245.251 180.497C246.507 177.413 246.234 173.753 244.535 170.892C242.837 168.032 239.749 166.032 236.442 165.657" fill="#3B3E47"/>
<path d="M249.118 172.05C249.064 172.068 248.9 171.486 248.475 170.632C248.051 169.777 247.31 168.668 246.231 167.693C245.145 166.717 243.968 166.093 243.076 165.76C242.184 165.42 241.59 165.317 241.602 165.263C241.608 165.238 241.753 165.25 242.026 165.287C242.299 165.317 242.688 165.402 243.155 165.553C244.089 165.844 245.327 166.456 246.449 167.462C247.565 168.474 248.305 169.644 248.688 170.541C248.882 170.989 249.009 171.365 249.064 171.632C249.112 171.898 249.136 172.044 249.118 172.05Z" fill="#DF5A78"/>
<path d="M254.456 161.839C254.426 161.893 253.843 161.511 252.776 161.318C251.72 161.118 250.161 161.196 248.681 161.936C247.2 162.675 246.157 163.814 245.514 164.687C244.865 165.566 244.562 166.178 244.519 166.153C244.501 166.147 244.555 165.984 244.683 165.699C244.81 165.42 245.023 165.02 245.332 164.554C245.939 163.632 246.988 162.427 248.535 161.651C250.088 160.875 251.732 160.833 252.812 161.099C253.358 161.227 253.783 161.408 254.05 161.56C254.335 161.711 254.468 161.821 254.456 161.839Z" fill="#455A64"/>
<path d="M247.743 170.025C247.779 170.025 247.834 170.571 247.755 171.462C247.676 172.346 247.421 173.564 246.881 174.813C246.341 176.061 245.626 177.085 245.037 177.752C244.449 178.419 244.012 178.758 243.988 178.728C243.903 178.661 245.547 177.152 246.59 174.692C247.664 172.237 247.634 170.013 247.743 170.025Z" fill="#455A64"/>
<path d="M247.947 170.178C247.966 170.172 248.026 170.311 248.117 170.578C248.214 170.838 248.311 171.232 248.39 171.729C248.554 172.711 248.578 174.123 248.202 175.614C247.82 177.105 247.135 178.335 246.522 179.122C246.218 179.516 245.946 179.819 245.733 180.007C245.527 180.195 245.406 180.292 245.393 180.28C245.351 180.238 245.788 179.807 246.34 178.995C246.892 178.189 247.529 176.983 247.899 175.541C248.263 174.093 248.281 172.729 248.172 171.76C248.069 170.784 247.893 170.19 247.947 170.178Z" fill="#455A64"/>
<path d="M266.298 171.765C264.533 172.322 263.768 174.831 264.927 176.274C266.08 177.716 268.701 177.522 269.629 175.922C270.557 174.322 269.429 171.953 267.602 171.668" fill="#FFC1CF"/>
<path d="M274.5 159.855C272.48 160.492 271.601 163.37 272.929 165.025C274.252 166.679 277.261 166.455 278.322 164.625C279.39 162.794 278.092 160.074 275.999 159.74" fill="#FFC1CF"/>
<path d="M292.015 107.377C286.524 106.916 280.973 108.141 277.212 112.152C273.45 116.17 271.655 121.945 272.48 127.387C266.644 129.811 263.459 137.222 265.728 143.119C267.997 149.015 275.331 152.391 281.289 150.282C283.964 157.063 290.401 162.22 297.602 163.365C304.809 164.511 312.526 161.602 317.179 155.99C322.906 157.281 329.331 157.196 334.141 153.839C338.952 150.482 341.13 143.083 337.46 138.507C344.054 136.901 347.409 128.678 345.45 122.182C343.496 115.691 337.642 111.031 331.387 108.389C327.256 106.644 322.099 105.735 318.574 108.504C315.753 104.165 310.761 101.323 305.586 101.099C300.417 100.887 295.2 103.299 292.015 107.377Z" fill="white"/>
<path d="M292.011 107.376C292.011 107.376 292.12 107.231 292.345 106.952C292.563 106.667 292.921 106.274 293.412 105.777C294.401 104.807 296.015 103.444 298.484 102.377C299.71 101.85 301.147 101.395 302.767 101.165C304.387 100.947 306.195 100.935 308.076 101.329C309.956 101.698 311.904 102.456 313.754 103.625C315.592 104.807 317.333 106.407 318.674 108.449L318.516 108.425C319.936 107.322 321.786 106.692 323.709 106.643C325.633 106.57 327.616 106.934 329.558 107.576C331.499 108.225 333.416 109.11 335.285 110.2C337.153 111.291 338.973 112.6 340.599 114.206C342.237 115.788 343.663 117.691 344.7 119.842C345.198 120.927 345.61 122.072 345.871 123.266C346.089 124.466 346.217 125.708 346.114 126.95C345.956 129.429 345.191 131.944 343.742 134.095C343.007 135.155 342.152 136.168 341.078 136.937C340.017 137.719 338.803 138.307 337.499 138.646L337.584 138.404C338.373 139.41 338.931 140.597 339.216 141.864C339.501 143.13 339.513 144.458 339.313 145.754C338.9 148.354 337.602 150.833 335.685 152.742C333.744 154.651 331.153 155.832 328.466 156.426C325.76 157.02 322.933 157.026 320.154 156.668C319.141 156.547 318.14 156.347 317.157 156.135L317.315 156.081C312.28 162.116 304.035 164.825 296.816 163.359C293.2 162.632 289.888 160.929 287.194 158.644C284.501 156.359 282.414 153.469 281.164 150.33L281.346 150.415C277.894 151.602 274.12 150.996 271.16 149.348C268.169 147.718 265.93 144.918 265.202 141.803C264.462 138.688 265.063 135.489 266.434 132.913C267.811 130.326 269.983 128.314 272.446 127.277L272.379 127.393C272.009 124.872 272.209 122.411 272.755 120.193C273.332 117.981 274.248 116 275.37 114.333C275.922 113.491 276.553 112.752 277.184 112.061C277.839 111.394 278.507 110.788 279.216 110.297C280.612 109.279 282.068 108.643 283.402 108.195C286.096 107.328 288.31 107.249 289.779 107.243C291.247 107.273 292.011 107.376 292.011 107.376C292.011 107.376 291.817 107.376 291.441 107.352C291.065 107.328 290.5 107.316 289.766 107.316C288.304 107.346 286.096 107.437 283.427 108.322C282.104 108.77 280.666 109.413 279.289 110.425C278.592 110.909 277.936 111.521 277.287 112.182C276.668 112.867 276.044 113.606 275.504 114.442C274.393 116.097 273.496 118.06 272.931 120.254C272.398 122.448 272.203 124.878 272.58 127.368L272.592 127.453L272.513 127.49C270.104 128.514 267.975 130.489 266.628 133.034C265.287 135.568 264.705 138.713 265.433 141.755C266.149 144.791 268.339 147.524 271.275 149.118C274.181 150.724 277.87 151.311 281.231 150.148L281.364 150.099L281.413 150.227C282.644 153.317 284.707 156.166 287.364 158.42C290.021 160.674 293.291 162.353 296.852 163.062C303.956 164.504 312.092 161.826 317.048 155.887L317.109 155.814L317.206 155.832C318.183 156.038 319.172 156.238 320.179 156.359C322.933 156.711 325.724 156.699 328.387 156.117C331.026 155.535 333.574 154.372 335.454 152.517C337.323 150.663 338.591 148.233 338.991 145.706C339.41 143.185 338.882 140.531 337.335 138.598L337.19 138.416L337.42 138.355C338.682 138.028 339.859 137.458 340.89 136.701C341.934 135.949 342.771 134.968 343.493 133.931C344.906 131.835 345.665 129.368 345.822 126.932C345.919 125.714 345.798 124.496 345.586 123.32C345.337 122.151 344.931 121.024 344.445 119.957C343.426 117.836 342.025 115.957 340.405 114.394C338.803 112.806 337.002 111.509 335.151 110.419C333.301 109.334 331.396 108.449 329.473 107.801C327.556 107.164 325.596 106.801 323.709 106.867C321.823 106.91 320.021 107.522 318.638 108.588L318.547 108.661L318.486 108.564C317.17 106.546 315.453 104.959 313.645 103.789C311.819 102.631 309.896 101.868 308.033 101.498C306.171 101.098 304.381 101.11 302.779 101.31C301.172 101.529 299.746 101.971 298.521 102.486C296.064 103.528 294.45 104.868 293.449 105.819C292.951 106.304 292.587 106.692 292.363 106.97C292.138 107.243 292.011 107.376 292.011 107.376Z" fill="#3B3E47"/>
<path d="M329.531 126.266C329.531 126.526 318.774 126.738 305.507 126.738C292.233 126.738 281.477 126.526 281.477 126.266C281.477 126.005 292.233 125.793 305.507 125.793C318.768 125.793 329.531 126.005 329.531 126.266Z" fill="#455A64"/>
<path d="M329.531 131.477C329.531 131.737 318.774 131.949 305.507 131.949C292.233 131.949 281.477 131.737 281.477 131.477C281.477 131.216 292.233 131.004 305.507 131.004C318.768 130.998 329.531 131.21 329.531 131.477Z" fill="#455A64"/>
<path d="M329.531 136.682C329.531 136.942 318.774 137.154 305.507 137.154C292.233 137.154 281.477 136.942 281.477 136.682C281.477 136.421 292.233 136.209 305.507 136.209C318.768 136.209 329.531 136.421 329.531 136.682Z" fill="#455A64"/>
<path d="M329.531 141.889C329.531 142.149 318.774 142.361 305.507 142.361C292.233 142.361 281.477 142.149 281.477 141.889C281.477 141.628 292.233 141.416 305.507 141.416C318.768 141.416 329.531 141.628 329.531 141.889Z" fill="#455A64"/>
<ellipse cx="100.017" cy="178.595" rx="7.63424" ry="7.63224" fill="white"/>
</g>
<defs>
<linearGradient id="paint0_linear_652_55030" x1="120.98" y1="-12.3731" x2="138.982" y2="301.828" gradientUnits="userSpaceOnUse">
<stop stop-color="#D73558"/>
<stop offset="1" stop-color="#CC284D" stop-opacity="0"/>
</linearGradient>
<clipPath id="clip0_652_55030">
<rect width="455" height="303" fill="white" transform="translate(-29)"/>
</clipPath>
</defs>
</svg>
