<svg width="90" height="90" fill="none" xmlns="http://www.w3.org/2000/svg"><mask id="a" style="mask-type:alpha" maskUnits="userSpaceOnUse" x="0" y="0" width="90" height="90"><circle cx="45" cy="45" r="45" fill="#C4C4C4"/></mask><g mask="url(#a)"><path fill="#CC284C" d="M-68.055-22.357h198.543v133.901H-68.055z"/></g><g clip-path="url(#clip0)" fill="#fff"><path d="M37.917 28h-4.25A5.667 5.667 0 0028 33.667v4.25a5.667 5.667 0 005.667 5.666h4.25a5.667 5.667 0 005.666-5.666v-4.25A5.667 5.667 0 0037.917 28zm0 18.416h-4.25A5.667 5.667 0 0028 52.083v4.25a5.667 5.667 0 005.667 5.666h4.25a5.667 5.667 0 005.666-5.666v-4.25a5.667 5.667 0 00-5.666-5.667zm21.665 8.679l-3.249 3.244V31.661l3.249 3.244a1.417 1.417 0 102.003-2.005l-3.665-3.659a4.25 4.25 0 00-6.007 0l-3.665 3.66a1.417 1.417 0 002.004 2.004L53.5 31.66v26.678l-3.248-3.244a1.419 1.419 0 00-2.42 1.004 1.418 1.418 0 00.416 1.002l3.665 3.66a4.259 4.259 0 006.007 0l3.665-3.66a1.418 1.418 0 10-2.003-2.006z"/></g><defs><clipPath id="clip0"><path fill="#fff" transform="translate(28 28)" d="M0 0h34v34H0z"/></clipPath></defs></svg>