<svg width="90" height="90" fill="none" xmlns="http://www.w3.org/2000/svg"><mask id="a" style="mask-type:alpha" maskUnits="userSpaceOnUse" x="0" y="0" width="90" height="90"><circle cx="45" cy="45" r="45" fill="#C4C4C4"/></mask><g mask="url(#a)"><path fill="#3AB292" d="M-68.055-22.358h198.543v133.901H-68.055z"/></g><path d="M29.88 45.567l5.043 3.683-1.915 5.932a4.502 4.502 0 001.677 5.118 4.5 4.5 0 005.384-.026L45 56.643l4.933 3.625a4.571 4.571 0 007.06-5.087l-1.916-5.932 5.043-3.683a4.57 4.57 0 00-2.692-8.262h-6.195l-1.88-5.86a4.571 4.571 0 00-8.706 0l-1.88 5.86h-6.19a4.572 4.572 0 00-2.691 8.262h-.006z" fill="#fff"/></svg>