<svg width="90" height="90" fill="none" xmlns="http://www.w3.org/2000/svg"><mask id="a" style="mask-type:alpha" maskUnits="userSpaceOnUse" x="0" y="0" width="90" height="90"><circle cx="45" cy="45" r="45" fill="#C4C4C4"/></mask><g mask="url(#a)"><path fill="#CC284C" d="M-68.055-22.357h198.543v133.901H-68.055z"/></g><g clip-path="url(#clip0)"><path d="M33.365 57.263A5.368 5.368 0 0128 51.899V38.101a5.36 5.36 0 018.53-4.322l5.353 3.93a5.36 5.36 0 018.514-3.93l9.409 6.899a5.361 5.361 0 010 8.642l-9.408 6.899a5.359 5.359 0 01-8.515-3.927l-5.353 3.93a5.348 5.348 0 01-3.165 1.04z" fill="#fff"/></g><defs><clipPath id="clip0"><path fill="#fff" transform="translate(28 28)" d="M0 0h34v34H0z"/></clipPath></defs></svg>