<svg width="90" height="90" fill="none" xmlns="http://www.w3.org/2000/svg"><mask id="a" style="mask-type:alpha" maskUnits="userSpaceOnUse" x="0" y="0" width="90" height="90"><circle cx="45" cy="45" r="45" fill="#C4C4C4"/></mask><g mask="url(#a)"><path fill="#CC284C" d="M-68.055-22.357h198.543v133.901H-68.055z"/></g><path d="M50.307 53.86c0-2.124-1.46-5.029-4.108-8.178A1.542 1.542 0 0045 45.131a1.581 1.581 0 00-1.21.554c-2.898 3.396-4.315 6.399-4.07 8.701a5.195 5.195 0 002.241 3.622A5.132 5.132 0 0045 59.168a5.312 5.312 0 005.307-5.307z" fill="#fff"/><path d="M51.558 32.108c-1.114-.946-2.283-1.938-3.473-3.02a4.183 4.183 0 00-3.368-1.049 4.033 4.033 0 00-2.88 1.842 28.883 28.883 0 00-3.53 9.135 8.843 8.843 0 01-.674-1.155 2.833 2.833 0 00-4.675-.67 12.848 12.848 0 00-3.662 9.096A15.554 15.554 0 0040.943 61.49a16.55 16.55 0 003.932.498 7.865 7.865 0 01-4.644-1.736 7.978 7.978 0 01-3.329-5.574c-.326-3.13 1.265-6.776 4.729-10.833A4.411 4.411 0 0145 42.297h.014a4.392 4.392 0 013.352 1.558c2.179 2.588 4.778 6.425 4.778 10.003a8.145 8.145 0 01-7.592 8.113 15.662 15.662 0 0015.159-15.675c-.007-6.418-4.246-10.016-9.153-14.188z" fill="#fff"/></svg>