<svg width="92" height="92" fill="none" xmlns="http://www.w3.org/2000/svg"><path d="M0 14C0 6.268 6.268 0 14 0h64c7.732 0 14 6.268 14 14v64c0 7.732-6.268 14-14 14H14C6.268 92 0 85.732 0 78V14z" fill="#fff"/><path d="M55.195 46.926c-.015-2.664 1.192-4.672 3.63-6.153-1.364-1.953-3.427-3.027-6.145-3.234-2.575-.203-5.39 1.5-6.422 1.5-1.09 0-3.582-1.43-5.543-1.43-4.047.063-8.348 3.227-8.348 9.664 0 1.903.348 3.868 1.043 5.891.93 2.664 4.281 9.191 7.778 9.086 1.828-.043 3.12-1.297 5.5-1.297 2.308 0 3.503 1.297 5.542 1.297 3.528-.05 6.56-5.984 7.442-8.656-4.73-2.23-4.477-6.532-4.477-6.668zM51.09 35.012c1.98-2.352 1.8-4.492 1.742-5.262-1.75.102-3.773 1.191-4.926 2.531-1.27 1.438-2.015 3.215-1.855 5.219 1.89.145 3.617-.828 5.039-2.488z" fill="#000"/></svg>