<svg width="92" height="92" viewBox="0 0 92 92" fill="none" xmlns="http://www.w3.org/2000/svg">
<path d="M55.1953 46.9258C55.1797 44.2617 56.3867 42.2539 58.8242 40.7734C57.4609 38.8203 55.3984 37.7461 52.6797 37.5391C50.1055 37.3359 47.2891 39.0391 46.2578 39.0391C45.168 39.0391 42.6758 37.6094 40.7148 37.6094C36.668 37.6719 32.3672 40.8359 32.3672 47.2734C32.3672 49.1758 32.7148 51.1406 33.4102 53.1641C34.3398 55.8281 37.6914 62.3555 41.1875 62.25C43.0156 62.207 44.3086 60.9531 46.6875 60.9531C48.9961 60.9531 50.1914 62.25 52.2305 62.25C55.7578 62.1992 58.7891 56.2656 59.6719 53.5938C54.9414 51.3633 55.1953 47.0625 55.1953 46.9258ZM51.0898 35.0117C53.0703 32.6602 52.8906 30.5195 52.832 29.75C51.082 29.8516 49.0586 30.9414 47.9062 32.2813C46.6367 33.7188 45.8906 35.4961 46.0508 37.5C47.9414 37.6445 49.668 36.6719 51.0898 35.0117Z" fill="black"/>
</svg>
