<svg width="50" height="50" fill="none" xmlns="http://www.w3.org/2000/svg"><circle cx="25" cy="25" r="25" fill="url(#paint0_linear)"/><path d="M33.602 29.703a13.31 13.31 0 01-1.213 2.32c-.638.968-1.16 1.637-1.562 2.009-.624.61-1.292.923-2.008.94-.514 0-1.133-.155-1.854-.47-.724-.314-1.39-.47-1.997-.47-.638 0-1.322.156-2.053.47-.733.315-1.323.48-1.774.496-.687.031-1.37-.29-2.054-.966-.435-.404-.98-1.098-1.634-2.08-.7-1.049-1.276-2.265-1.727-3.652-.484-1.497-.726-2.948-.726-4.352 0-1.608.327-2.995.98-4.158.515-.934 1.2-1.67 2.055-2.21a5.28 5.28 0 012.778-.835c.545 0 1.26.18 2.148.532.886.354 1.455.533 1.704.533.186 0 .818-.21 1.89-.628 1.012-.387 1.867-.548 2.568-.485 1.897.163 3.323.96 4.271 2.393-1.697 1.094-2.536 2.627-2.52 4.593.016 1.531.538 2.806 1.564 3.817.465.47.984.833 1.562 1.09-.125.387-.258.758-.398 1.113zM29.249 11.48c0 1.2-.412 2.321-1.233 3.358-.992 1.234-2.19 1.946-3.491 1.834a3.989 3.989 0 01-.026-.455c0-1.152.471-2.385 1.308-3.394a5.08 5.08 0 011.595-1.273c.643-.334 1.251-.518 1.824-.55.016.16.023.32.023.48z" fill="#fff"/><defs><linearGradient id="paint0_linear" x1="-5.958" y1="-22.325" x2="74.22" y2="36.486" gradientUnits="userSpaceOnUse"><stop stop-color="#CC283C"/><stop offset="1" stop-color="#CC284F"/></linearGradient></defs></svg>