<svg width="376" height="338" fill="none" xmlns="http://www.w3.org/2000/svg"><rect width="376" height="338" rx="30" fill="#fff"/><path d="M162.703 51l6.02-14.08h1.46l6.02 14.08h-1.82l-1.8-4.24h-6.38l-1.78 4.24h-1.72zm6.7-11.82l-2.52 5.98h5.04l-2.52-5.98zM177.704 51v-9c.214 0 .687-.013 1.42-.04.747-.027 1.36-.04 1.84-.04 2.587 0 3.88.773 3.88 2.32 0 .533-.166.993-.5 1.38-.333.373-.766.6-1.3.68v.04c1.4.253 2.1.96 2.1 2.12 0 1.747-1.38 2.62-4.14 2.62-.4 0-.986-.013-1.76-.04a56.035 56.035 0 00-1.54-.04zm3.52-4.04h-1.92v2.76c.96.04 1.574.06 1.84.06 1.534 0 2.3-.48 2.3-1.44 0-.92-.74-1.38-2.22-1.38zm-.14-3.74c-.386 0-.98.02-1.78.06v2.68h2.02c.547 0 .987-.127 1.32-.38.334-.253.5-.593.5-1.02 0-.893-.686-1.34-2.06-1.34zm6.263 7.78v-9h5.7v1.5h-4.1V51h-1.6zm15.421-9l-3.6 9c-.64 1.56-1.207 2.613-1.7 3.16-.494.56-1.074.84-1.74.84-.574 0-1.14-.187-1.7-.56l.52-1.22c.426.2.76.3 1 .3.373 0 .706-.16 1-.48.306-.32.613-.84.92-1.56l.2-.48-4.32-9h1.92l2.64 5.72c.053.12.233.573.54 1.36.12-.44.26-.9.42-1.38l2.08-5.7h1.82zm7.972 6.54l.76 1.16c-.373.48-.866.853-1.48 1.12a5.133 5.133 0 01-1.98.38c-1.44 0-2.606-.427-3.5-1.28-.88-.867-1.32-2.007-1.32-3.42 0-1.32.434-2.433 1.3-3.34.867-.907 1.954-1.36 3.26-1.36 1.574 0 2.754.393 3.54 1.18l-.74 1.26c-.68-.627-1.54-.94-2.58-.94-.84 0-1.566.307-2.18.92-.6.6-.9 1.36-.9 2.28 0 .96.307 1.733.92 2.32.627.587 1.4.88 2.32.88 1.04 0 1.9-.387 2.58-1.16zm1.349-4.94V42h8.2v1.6h-3.3V51h-1.6v-7.4h-3.3z" fill="#000"/><path d="M53.155 92.156c-.832 0-1.547-.195-2.145-.585a3.128 3.128 0 01-1.235-1.638l.78-.455c.164.572.468 1.014.91 1.326.45.312 1.018.468 1.703.468.667 0 1.191-.147 1.573-.442.381-.295.572-.693.572-1.196 0-.477-.174-.836-.52-1.079-.338-.243-.91-.494-1.716-.754-.962-.32-1.586-.572-1.872-.754-.694-.416-1.04-1.018-1.04-1.807 0-.771.269-1.378.806-1.82.529-.45 1.192-.676 1.989-.676.684 0 1.291.182 1.82.546.529.355.923.828 1.183 1.417l-.767.429c-.416-1.005-1.161-1.508-2.236-1.508-.572 0-1.032.143-1.378.429-.338.277-.507.659-.507 1.144 0 .46.156.797.468 1.014.32.225.836.455 1.547.689l.702.247c.147.043.355.121.624.234.295.113.498.208.61.286.46.277.75.533.872.767.216.347.325.737.325 1.17 0 .771-.282 1.391-.845 1.859-.563.46-1.304.689-2.223.689zM102.53 82.9h1.131V92h-.91v-7.722l-3.185 5.33h-.13l-3.185-5.33V92h-.91v-9.1h1.131l3.03 5.07 3.028-5.07zm40.22 0h6.5v.858h-2.795V92h-.91v-8.242h-2.795V82.9zm48.371 9.1h-1.092l-2.639-9.1h.962l2.249 7.865 2.366-7.865h1.066l2.366 7.865 2.249-7.865h.962l-2.639 9.1h-1.092l-2.379-7.904L191.121 92zm46.629-9.1h6.5v.858h-2.795V92h-.91v-8.242h-2.795V82.9zm50.58 0v.858h-4.225v3.354h4.03v.858h-4.03V92h-.91v-9.1h5.135zm41.825 9.256c-.832 0-1.547-.195-2.145-.585a3.13 3.13 0 01-1.235-1.638l.78-.455c.165.572.468 1.014.91 1.326.451.312 1.018.468 1.703.468.667 0 1.192-.147 1.573-.442.381-.295.572-.693.572-1.196 0-.477-.173-.836-.52-1.079-.338-.243-.91-.494-1.716-.754-.962-.32-1.586-.572-1.872-.754-.693-.416-1.04-1.018-1.04-1.807 0-.771.269-1.378.806-1.82.529-.45 1.192-.676 1.989-.676.685 0 1.291.182 1.82.546.529.355.923.828 1.183 1.417l-.767.429c-.416-1.005-1.161-1.508-2.236-1.508-.572 0-1.031.143-1.378.429-.338.277-.507.659-.507 1.144 0 .46.156.797.468 1.014.321.225.836.455 1.547.689l.702.247c.147.043.355.121.624.234.295.113.498.208.611.286.459.277.75.533.871.767.217.347.325.737.325 1.17 0 .771-.282 1.391-.845 1.859-.563.46-1.304.689-2.223.689z" fill="#D8D8D8"/><path d="M52.815 137h-7.12v-1.008l4.032-4.064c1.152-1.152 1.728-2.139 1.728-2.96 0-.693-.219-1.243-.656-1.648-.427-.416-.96-.624-1.6-.624-1.142 0-1.979.528-2.512 1.584l-.944-.56c.341-.683.816-1.205 1.424-1.568a3.888 3.888 0 012.032-.544c.896 0 1.68.304 2.352.912.682.587 1.024 1.403 1.024 2.448 0 .619-.171 1.227-.512 1.824-.342.587-.864 1.232-1.568 1.936l-3.2 3.184h5.52V137zm8.646-7.696c0 .843-.23 1.589-.688 2.24L57.109 137h-1.264l2.752-4.096a4.118 4.118 0 01-.896.096c-1.11 0-2.01-.341-2.704-1.024-.704-.683-1.056-1.573-1.056-2.672 0-1.077.352-1.963 1.056-2.656.715-.693 1.616-1.04 2.704-1.04s1.99.347 2.704 1.04c.704.693 1.056 1.579 1.056 2.656zm-5.68-1.888c-.48.48-.72 1.109-.72 1.888 0 .779.24 1.408.72 1.888.501.48 1.141.72 1.92.72.79 0 1.424-.24 1.904-.72.49-.48.736-1.109.736-1.888 0-.779-.245-1.408-.736-1.888-.48-.48-1.115-.72-1.904-.72-.779 0-1.419.24-1.92.72z" fill="#C1B2C8"/><path d="M51.844 169.168h1.632c1.056 0 1.947.315 2.672.944.736.629 1.104 1.488 1.104 2.576 0 1.099-.373 1.957-1.12 2.576-.757.629-1.664.944-2.72.944-.874 0-1.648-.208-2.32-.624a3.318 3.318 0 01-1.376-1.776l1.264-.72c.15.533.438.944.864 1.232.427.288.95.432 1.568.432.715 0 1.286-.181 1.712-.544.438-.373.656-.88.656-1.52s-.218-1.147-.656-1.52c-.426-.373-.986-.56-1.68-.56h-3.168l.416-5.808h6.128v1.392h-4.784l-.192 2.976zm-5.19 35.656l2.944-1.024h1.28V215h-1.472v-9.6l-2.384.704-.368-1.28zM59.94 215h-7.232v-1.216l3.952-4.032c1.056-1.056 1.584-1.963 1.584-2.72 0-.619-.192-1.104-.576-1.456-.373-.363-.843-.544-1.408-.544-1.056 0-1.824.501-2.304 1.504l-1.248-.736c.341-.715.821-1.259 1.44-1.632.618-.384 1.317-.576 2.096-.576.95 0 1.765.309 2.448.928.693.629 1.04 1.461 1.04 2.496 0 1.131-.667 2.363-2 3.696l-2.864 2.848h5.072V215zm-13.372 28.824l2.944-1.024h1.28V254H49.32v-9.6l-2.384.704-.368-1.28zm13.639 2.528c0 .875-.23 1.627-.688 2.256h.016L55.919 254h-1.68l2.656-3.92c-.32.021-.502.032-.544.032-1.13 0-2.059-.347-2.784-1.04-.715-.704-1.072-1.611-1.072-2.72 0-1.12.357-2.021 1.072-2.704.715-.704 1.642-1.056 2.784-1.056 1.12 0 2.043.352 2.768 1.056.725.693 1.088 1.595 1.088 2.704zm-3.856-2.336c-.704 0-1.28.213-1.728.64-.438.427-.656.992-.656 1.696s.218 1.275.656 1.712c.448.427 1.024.64 1.728.64s1.275-.213 1.712-.64c.448-.437.672-1.008.672-1.712s-.219-1.269-.656-1.696c-.438-.427-1.014-.64-1.728-.64zM52.925 293h-7.232v-1.216l3.952-4.032c1.056-1.056 1.584-1.963 1.584-2.72 0-.619-.192-1.104-.576-1.456-.373-.363-.843-.544-1.408-.544-1.056 0-1.824.501-2.304 1.504l-1.248-.736c.342-.715.822-1.259 1.44-1.632.619-.384 1.317-.576 2.096-.576.95 0 1.766.309 2.448.928.694.629 1.04 1.461 1.04 2.496 0 1.131-.666 2.363-2 3.696l-2.864 2.848h5.072V293zm4.652-7.328c1.12 0 2.043.352 2.768 1.056.726.693 1.088 1.595 1.088 2.704 0 1.109-.362 2.016-1.088 2.72-.725.704-1.648 1.056-2.768 1.056-1.14 0-2.069-.352-2.784-1.056-.714-.704-1.072-1.611-1.072-2.72 0-.875.224-1.621.672-2.24l3.6-5.392h1.696l-2.64 3.904c.32-.021.496-.032.528-.032zm0 1.424c-.714 0-1.29.213-1.728.64-.437.427-.656.992-.656 1.696s.22 1.275.656 1.712c.448.427 1.024.64 1.728.64s1.275-.213 1.712-.64c.448-.437.672-1.008.672-1.712s-.224-1.269-.672-1.696c-.437-.427-1.008-.64-1.712-.64z" fill="#5F5F5F"/><path d="M97.579 126.856l-2.608 3.6c.885.107 1.621.453 2.208 1.04.586.555.88 1.307.88 2.256 0 1.056-.368 1.899-1.104 2.528-.715.608-1.6.912-2.656.912-.843 0-1.59-.192-2.24-.576a3.13 3.13 0 01-1.36-1.648l.928-.544c.181.544.501.96.96 1.248.47.288 1.04.432 1.712.432.79 0 1.424-.208 1.904-.624.49-.427.736-1.003.736-1.728 0-.725-.246-1.296-.736-1.712-.48-.427-1.115-.64-1.904-.64v-.016l-.016.016h-.304l-.48-.736 2.784-3.808h-5.264V125.8h6.56v1.056zm9.284 8.768c-.736 1.045-1.776 1.568-3.12 1.568-1.333 0-2.379-.523-3.136-1.568-.736-1.056-1.104-2.464-1.104-4.224 0-1.771.368-3.173 1.104-4.208.757-1.056 1.803-1.584 3.136-1.584 1.344 0 2.384.528 3.12 1.584.747 1.035 1.12 2.437 1.12 4.208 0 1.771-.373 3.179-1.12 4.224zm-5.424-.752c.565.821 1.333 1.232 2.304 1.232.981 0 1.744-.411 2.288-1.232.555-.811.832-1.968.832-3.472s-.277-2.661-.832-3.472c-.544-.821-1.307-1.232-2.288-1.232-.971 0-1.739.411-2.304 1.232-.544.821-.816 1.979-.816 3.472 0 1.493.272 2.651.816 3.472z" fill="#C1B2C8"/><path d="M99.5 168.672c1.119 0 2.042.352 2.767 1.056.726.693 1.088 1.595 1.088 2.704 0 1.109-.362 2.016-1.088 2.72-.725.704-1.648 1.056-2.768 1.056-1.141 0-2.069-.352-2.784-1.056-.714-.704-1.072-1.611-1.072-2.72 0-.875.224-1.621.672-2.24l3.6-5.392h1.696l-2.64 3.904c.32-.021.496-.032.528-.032zm0 1.424c-.715 0-1.291.213-1.729.64-.437.427-.656.992-.656 1.696s.219 1.275.656 1.712c.448.427 1.024.64 1.728.64s1.275-.213 1.712-.64c.448-.437.672-1.008.672-1.712s-.224-1.269-.672-1.696c-.437-.427-1.008-.64-1.712-.64zm-6.909 34.728l2.944-1.024h1.28V215h-1.472v-9.6l-2.384.704-.368-1.28zm12.967.288l-2.432 3.28c.875.16 1.579.533 2.112 1.12.534.587.8 1.312.8 2.176 0 1.099-.373 1.957-1.12 2.576-.757.629-1.664.944-2.72.944-.874 0-1.637-.197-2.288-.592a3.279 3.279 0 01-1.392-1.68l1.248-.736c.331 1.035 1.142 1.552 2.432 1.552.704 0 1.27-.181 1.696-.544.438-.373.656-.88.656-1.52s-.218-1.147-.656-1.52c-.426-.373-.992-.56-1.696-.56h-.384l-.592-.912 2.592-3.504h-4.976V203.8h6.72v1.312zM98.128 254h-7.232v-1.216l3.952-4.032c1.056-1.056 1.584-1.963 1.584-2.72 0-.619-.192-1.104-.576-1.456-.373-.363-.842-.544-1.408-.544-1.056 0-1.824.501-2.304 1.504l-1.248-.736c.342-.715.822-1.259 1.44-1.632.619-.384 1.318-.576 2.096-.576.95 0 1.766.309 2.448.928.694.629 1.04 1.461 1.04 2.496 0 1.131-.666 2.363-2 3.696l-2.864 2.848h5.072V254zm8.698-1.376c-.747 1.056-1.808 1.584-3.184 1.584-1.376 0-2.438-.528-3.184-1.584-.758-1.067-1.136-2.475-1.136-4.224s.378-3.157 1.136-4.224c.746-1.056 1.808-1.584 3.184-1.584 1.376 0 2.437.528 3.184 1.584.757 1.067 1.136 2.475 1.136 4.224s-.379 3.157-1.136 4.224zm-6.016-4.224c0 1.387.245 2.459.736 3.216.49.757 1.189 1.136 2.096 1.136.906 0 1.605-.379 2.096-1.136.501-.757.752-1.829.752-3.216 0-1.387-.251-2.459-.752-3.216-.491-.768-1.19-1.152-2.096-1.152-.907 0-1.606.379-2.096 1.136-.491.757-.736 1.835-.736 3.232zM99.324 293h-7.232v-1.216l3.952-4.032c1.056-1.056 1.584-1.963 1.584-2.72 0-.619-.192-1.104-.576-1.456-.374-.363-.843-.544-1.408-.544-1.056 0-1.824.501-2.304 1.504l-1.248-.736c.341-.715.821-1.259 1.44-1.632.618-.384 1.317-.576 2.096-.576.949 0 1.765.309 2.448.928.693.629 1.04 1.461 1.04 2.496 0 1.131-.667 2.363-2 3.696l-2.864 2.848h5.072V293zm.605-9.792V281.8h6.992v1.328l-4.08 9.872h-1.552l4.048-9.792h-5.408z" fill="#5F5F5F"/><path d="M146.555 126.856l-2.608 3.6c.886.107 1.622.453 2.208 1.04.587.555.88 1.307.88 2.256 0 1.056-.368 1.899-1.104 2.528-.714.608-1.6.912-2.656.912-.842 0-1.589-.192-2.24-.576a3.134 3.134 0 01-1.36-1.648l.928-.544c.182.544.502.96.96 1.248.47.288 1.04.432 1.712.432.79 0 1.424-.208 1.904-.624.491-.427.736-1.003.736-1.728 0-.725-.245-1.296-.736-1.712-.48-.427-1.114-.64-1.904-.64v-.016l-.016.016h-.304l-.48-.736 2.784-3.808h-5.264V125.8h6.56v1.056zm1.052-.032l2.96-1.024h.96V137h-1.12v-9.968l-2.512.752-.288-.96z" fill="#C1B2C8"/><path d="M142.366 166.208V164.8h6.992v1.328l-4.08 9.872h-1.552l4.048-9.792h-5.408zm-3.634 38.616l2.944-1.024h1.28V215h-1.472v-9.6l-2.384.704-.368-1.28zm13.063 6.656h1.36v1.392h-1.36V215h-1.488v-2.128h-5.712v-1.392l4.016-7.68h1.6l-4.016 7.68h4.112v-3.168h1.488v3.168zM146.777 254h-7.232v-1.216l3.952-4.032c1.056-1.056 1.584-1.963 1.584-2.72 0-.619-.192-1.104-.576-1.456-.374-.363-.843-.544-1.408-.544-1.056 0-1.824.501-2.304 1.504l-1.248-.736c.341-.715.821-1.259 1.44-1.632.618-.384 1.317-.576 2.096-.576.949 0 1.765.309 2.448.928.693.629 1.04 1.461 1.04 2.496 0 1.131-.667 2.363-2 3.696l-2.864 2.848h5.072V254zm.775-10.176l2.944-1.024h1.28V254h-1.472v-9.6l-2.384.704-.368-1.28zM145.191 293h-7.232v-1.216l3.952-4.032c1.056-1.056 1.584-1.963 1.584-2.72 0-.619-.192-1.104-.576-1.456-.374-.363-.843-.544-1.408-.544-1.056 0-1.824.501-2.304 1.504l-1.248-.736c.341-.715.821-1.259 1.44-1.632.618-.384 1.317-.576 2.096-.576.949 0 1.765.309 2.448.928.693.629 1.04 1.461 1.04 2.496 0 1.131-.667 2.363-2 3.696l-2.864 2.848h5.072V293zm7.079-5.792c1.163.597 1.744 1.504 1.744 2.72 0 1.024-.357 1.829-1.072 2.416-.725.576-1.648.864-2.768.864-1.12 0-2.037-.288-2.752-.864-.714-.587-1.072-1.392-1.072-2.416 0-1.216.582-2.123 1.744-2.72-.917-.576-1.376-1.392-1.376-2.448 0-1.013.336-1.792 1.008-2.336.683-.555 1.499-.832 2.448-.832.971 0 1.787.277 2.448.832.683.544 1.024 1.323 1.024 2.336 0 1.056-.458 1.872-1.376 2.448zm-2.096-4.192c-.586 0-1.066.155-1.44.464-.362.309-.544.747-.544 1.312 0 .555.187.992.56 1.312.374.32.848.48 1.424.48s1.051-.16 1.424-.48c.374-.32.56-.757.56-1.312 0-.565-.181-1.003-.544-1.312-.362-.309-.842-.464-1.44-.464zm0 8.768c.726 0 1.302-.171 1.728-.512.427-.341.64-.821.64-1.44 0-.608-.213-1.083-.64-1.424-.426-.341-1.002-.512-1.728-.512-.714 0-1.285.171-1.712.512-.426.341-.64.816-.64 1.424 0 .619.214 1.099.64 1.44.427.341.998.512 1.712.512zm38.698-164.96l2.944-1.024h1.28V137h-1.472v-9.6l-2.384.704-.368-1.28zm4.719 43.384c1.162.597 1.744 1.504 1.744 2.72 0 1.024-.358 1.829-1.072 2.416-.726.576-1.648.864-2.768.864-1.12 0-2.038-.288-2.752-.864-.715-.587-1.072-1.392-1.072-2.416 0-1.216.581-2.123 1.743-2.72-.917-.576-1.375-1.392-1.375-2.448 0-1.013.336-1.792 1.008-2.336.682-.555 1.498-.832 2.448-.832.97 0 1.786.277 2.448.832.682.544 1.024 1.323 1.024 2.336 0 1.056-.459 1.872-1.376 2.448zm-2.096-4.192c-.587 0-1.067.155-1.44.464-.363.309-.544.747-.544 1.312 0 .555.186.992.56 1.312.373.32.848.48 1.424.48s1.05-.16 1.424-.48c.373-.32.56-.757.56-1.312 0-.565-.182-1.003-.544-1.312-.363-.309-.843-.464-1.44-.464zm0 8.768c.725 0 1.301-.171 1.728-.512.426-.341.64-.821.64-1.44 0-.608-.214-1.083-.64-1.424-.427-.341-1.003-.512-1.728-.512-.715 0-1.286.171-1.712.512-.427.341-.64.816-.64 1.424 0 .619.213 1.099.64 1.44.426.341.997.512 1.712.512zm-6.966 30.04l2.944-1.024h1.28V215h-1.472v-9.6l-2.384.704-.368-1.28zm8.167 3.344h1.632c1.056 0 1.946.315 2.672.944.736.629 1.104 1.488 1.104 2.576 0 1.099-.374 1.957-1.12 2.576-.758.629-1.664.944-2.72.944-.875 0-1.648-.208-2.32-.624a3.315 3.315 0 01-1.376-1.776l1.264-.72c.149.533.437.944.864 1.232.426.288.949.432 1.568.432.714 0 1.285-.181 1.712-.544.437-.373.656-.88.656-1.52s-.219-1.147-.656-1.52c-.427-.373-.987-.56-1.68-.56h-3.168l.416-5.808h6.128v1.392h-4.784l-.192 2.976zM190.871 254h-7.232v-1.216l3.952-4.032c1.056-1.056 1.584-1.963 1.584-2.72 0-.619-.192-1.104-.576-1.456-.374-.363-.843-.544-1.408-.544-1.056 0-1.824.501-2.304 1.504l-1.248-.736c.341-.715.821-1.259 1.44-1.632.618-.384 1.317-.576 2.095-.576.95 0 1.766.309 2.449.928.693.629 1.04 1.461 1.04 2.496 0 1.131-.667 2.363-2 3.696l-2.864 2.848h5.072V254zm8.437 0h-7.232v-1.216l3.952-4.032c1.056-1.056 1.584-1.963 1.584-2.72 0-.619-.192-1.104-.576-1.456-.373-.363-.843-.544-1.408-.544-1.056 0-1.824.501-2.304 1.504l-1.248-.736c.341-.715.821-1.259 1.44-1.632.619-.384 1.317-.576 2.096-.576.949 0 1.765.309 2.448.928.693.629 1.04 1.461 1.04 2.496 0 1.131-.667 2.363-2 3.696l-2.864 2.848h5.072V254zm-8.5 39h-7.232v-1.216l3.952-4.032c1.056-1.056 1.584-1.963 1.584-2.72 0-.619-.192-1.104-.576-1.456-.373-.363-.843-.544-1.408-.544-1.056 0-1.824.501-2.304 1.504l-1.248-.736c.341-.715.821-1.259 1.44-1.632.619-.384 1.317-.576 2.096-.576.949 0 1.765.309 2.448.928.693.629 1.04 1.461 1.04 2.496 0 1.131-.667 2.363-2 3.696l-2.864 2.848h5.072V293zm8.743-7.648c0 .875-.23 1.627-.688 2.256h.016L195.263 293h-1.68l2.656-3.92c-.32.021-.502.032-.544.032-1.131 0-2.059-.347-2.784-1.04-.715-.704-1.072-1.611-1.072-2.72 0-1.12.357-2.021 1.072-2.704.714-.704 1.642-1.056 2.784-1.056 1.12 0 2.042.352 2.768 1.056.725.693 1.088 1.595 1.088 2.704zm-3.856-2.336c-.704 0-1.28.213-1.728.64-.438.427-.656.992-.656 1.696s.218 1.275.656 1.712c.448.427 1.024.64 1.728.64s1.274-.213 1.712-.64c.448-.437.672-1.008.672-1.712s-.219-1.269-.656-1.696c-.438-.427-1.014-.64-1.728-.64zM241.089 137h-7.232v-1.216l3.952-4.032c1.056-1.056 1.584-1.963 1.584-2.72 0-.619-.192-1.104-.576-1.456-.373-.363-.842-.544-1.408-.544-1.056 0-1.824.501-2.304 1.504l-1.248-.736c.342-.715.822-1.259 1.44-1.632.619-.384 1.318-.576 2.096-.576.95 0 1.766.309 2.448.928.694.629 1.04 1.461 1.04 2.496 0 1.131-.666 2.363-2 3.696l-2.864 2.848h5.072V137zm.266 31.352c0 .875-.229 1.627-.688 2.256h.016L237.067 176h-1.68l2.656-3.92c-.32.021-.501.032-.544.032-1.13 0-2.058-.347-2.784-1.04-.714-.704-1.072-1.611-1.072-2.72 0-1.12.358-2.021 1.072-2.704.715-.704 1.643-1.056 2.784-1.056 1.12 0 2.043.352 2.768 1.056.726.693 1.088 1.595 1.088 2.704zm-3.856-2.336c-.704 0-1.28.213-1.728.64-.437.427-.656.992-.656 1.696s.219 1.275.656 1.712c.448.427 1.024.64 1.728.64s1.275-.213 1.712-.64c.448-.437.672-1.008.672-1.712s-.218-1.269-.656-1.696c-.437-.427-1.013-.64-1.728-.64zm-6.931 38.808l2.944-1.024h1.28V215h-1.472v-9.6l-2.384.704-.368-1.28zm9.783 2.848c1.12 0 2.043.352 2.768 1.056.725.693 1.088 1.595 1.088 2.704 0 1.109-.363 2.016-1.088 2.72-.725.704-1.648 1.056-2.768 1.056-1.141 0-2.069-.352-2.784-1.056-.715-.704-1.072-1.611-1.072-2.72 0-.875.224-1.621.672-2.24l3.6-5.392h1.696l-2.64 3.904c.32-.021.496-.032.528-.032zm0 1.424c-.715 0-1.291.213-1.728.64-.437.427-.656.992-.656 1.696s.219 1.275.656 1.712c.448.427 1.024.64 1.728.64s1.275-.213 1.712-.64c.448-.437.672-1.008.672-1.712s-.224-1.269-.672-1.696c-.437-.427-1.008-.64-1.712-.64zM236.886 254h-7.232v-1.216l3.952-4.032c1.056-1.056 1.584-1.963 1.584-2.72 0-.619-.192-1.104-.576-1.456-.373-.363-.843-.544-1.408-.544-1.056 0-1.824.501-2.304 1.504l-1.248-.736c.341-.715.821-1.259 1.44-1.632.619-.384 1.317-.576 2.096-.576.949 0 1.765.309 2.448.928.693.629 1.04 1.461 1.04 2.496 0 1.131-.667 2.363-2 3.696l-2.864 2.848h5.072V254zm7.961-9.888l-2.432 3.28c.875.16 1.579.533 2.112 1.12.534.587.8 1.312.8 2.176 0 1.099-.373 1.957-1.12 2.576-.757.629-1.664.944-2.72.944-.874 0-1.637-.197-2.288-.592a3.286 3.286 0 01-1.392-1.68l1.248-.736c.331 1.035 1.142 1.552 2.432 1.552.704 0 1.27-.181 1.696-.544.438-.373.656-.88.656-1.52s-.218-1.147-.656-1.52c-.426-.373-.992-.56-1.696-.56h-.384l-.592-.912 2.592-3.504h-4.976V242.8h6.72v1.312zm-9.179 39l-2.432 3.28c.874.16 1.578.533 2.112 1.12.533.587.8 1.312.8 2.176 0 1.099-.374 1.957-1.12 2.576-.758.629-1.664.944-2.72.944-.875 0-1.638-.197-2.288-.592a3.276 3.276 0 01-1.392-1.68l1.248-.736c.33 1.035 1.141 1.552 2.432 1.552.704 0 1.269-.181 1.696-.544.437-.373.656-.88.656-1.52s-.219-1.147-.656-1.52c-.427-.373-.992-.56-1.696-.56h-.384l-.592-.912 2.592-3.504h-4.976V281.8h6.72v1.312zm9.298 8.512c-.746 1.056-1.808 1.584-3.184 1.584-1.376 0-2.437-.528-3.184-1.584-.757-1.067-1.136-2.475-1.136-4.224s.379-3.157 1.136-4.224c.747-1.056 1.808-1.584 3.184-1.584 1.376 0 2.438.528 3.184 1.584.758 1.067 1.136 2.475 1.136 4.224s-.378 3.157-1.136 4.224zm-6.016-4.224c0 1.387.246 2.459.736 3.216.491.757 1.19 1.136 2.096 1.136.907 0 1.606-.379 2.096-1.136.502-.757.752-1.829.752-3.216 0-1.387-.25-2.459-.752-3.216-.49-.768-1.189-1.152-2.096-1.152-.906 0-1.605.379-2.096 1.136-.49.757-.736 1.835-.736 3.232zm48.257-160.288l-2.432 3.28c.874.16 1.578.533 2.112 1.12.533.587.8 1.312.8 2.176 0 1.099-.374 1.957-1.12 2.576-.758.629-1.664.944-2.72.944-.875 0-1.638-.197-2.288-.592a3.276 3.276 0 01-1.392-1.68l1.248-.736c.33 1.035 1.141 1.552 2.432 1.552.704 0 1.269-.181 1.696-.544.437-.373.656-.88.656-1.52s-.219-1.147-.656-1.52c-.427-.373-.992-.56-1.696-.56h-.384l-.592-.912 2.592-3.504h-4.976V125.8h6.72v1.312zm-10.874 38.712l2.944-1.024h1.28V176h-1.472v-9.6l-2.384.704-.368-1.28zm13.703 8.8c-.746 1.056-1.807 1.584-3.183 1.584s-2.438-.528-3.184-1.584c-.758-1.067-1.136-2.475-1.136-4.224s.378-3.157 1.136-4.224c.746-1.056 1.808-1.584 3.184-1.584 1.376 0 2.437.528 3.183 1.584.758 1.067 1.137 2.475 1.137 4.224s-.379 3.157-1.137 4.224zm-6.015-4.224c0 1.387.245 2.459.736 3.216.49.757 1.189 1.136 2.096 1.136.906 0 1.605-.379 2.096-1.136.501-.757.752-1.829.752-3.216 0-1.387-.251-2.459-.752-3.216-.491-.768-1.19-1.152-2.096-1.152-.907 0-1.606.379-2.096 1.136-.491.757-.736 1.835-.736 3.232zm-6.57 34.424l2.944-1.024h1.28V215h-1.472v-9.6l-2.384.704-.368-1.28zm5.767.384V203.8h6.992v1.328L286.13 215h-1.552l4.048-9.792h-5.408zM283.089 254h-7.232v-1.216l3.952-4.032c1.056-1.056 1.584-1.963 1.584-2.72 0-.619-.192-1.104-.576-1.456-.373-.363-.842-.544-1.408-.544-1.056 0-1.824.501-2.304 1.504l-1.248-.736c.342-.715.822-1.259 1.44-1.632.619-.384 1.318-.576 2.096-.576.95 0 1.766.309 2.448.928.694.629 1.04 1.461 1.04 2.496 0 1.131-.666 2.363-2 3.696l-2.864 2.848h5.072V254zm7.933-3.52h1.36v1.392h-1.36V254h-1.488v-2.128h-5.712v-1.392l4.016-7.68h1.6l-4.016 7.68h4.112v-3.168h1.488v3.168zm-6.464 32.632l-2.432 3.28c.875.16 1.579.533 2.112 1.12.534.587.8 1.312.8 2.176 0 1.099-.373 1.957-1.12 2.576-.757.629-1.664.944-2.72.944-.874 0-1.637-.197-2.288-.592a3.286 3.286 0 01-1.392-1.68l1.248-.736c.331 1.035 1.142 1.552 2.432 1.552.704 0 1.27-.181 1.696-.544.438-.373.656-.88.656-1.52s-.218-1.147-.656-1.52c-.426-.373-.992-.56-1.696-.56h-.384l-.592-.912 2.592-3.504h-4.976V281.8h6.72v1.312zm.893-.288l2.944-1.024h1.28V293h-1.472v-9.6l-2.384.704-.368-1.28zm46.992-149.344h1.36v1.392h-1.36V137h-1.488v-2.128h-5.712v-1.392l4.016-7.68h1.6l-4.016 7.68h4.112v-3.168h1.488v3.168zm-8.422 32.344l2.944-1.024h1.28V176h-1.472v-9.6l-2.384.704-.368-1.28zm5.703 0l2.944-1.024h1.28V176h-1.472v-9.6l-2.384.704-.368-1.28zm-7.289 39l2.944-1.024h1.28V215h-1.472v-9.6l-2.384.704-.368-1.28zm12.007 4.384c1.163.597 1.744 1.504 1.744 2.72 0 1.024-.357 1.829-1.072 2.416-.725.576-1.648.864-2.768.864-1.12 0-2.037-.288-2.752-.864-.715-.587-1.072-1.392-1.072-2.416 0-1.216.581-2.123 1.744-2.72-.917-.576-1.376-1.392-1.376-2.448 0-1.013.336-1.792 1.008-2.336.683-.555 1.499-.832 2.448-.832.971 0 1.787.277 2.448.832.683.544 1.024 1.323 1.024 2.336 0 1.056-.459 1.872-1.376 2.448zm-2.096-4.192c-.587 0-1.067.155-1.44.464-.363.309-.544.747-.544 1.312 0 .555.187.992.56 1.312.373.32.848.48 1.424.48s1.051-.16 1.424-.48c.373-.32.56-.757.56-1.312 0-.565-.181-1.003-.544-1.312-.363-.309-.843-.464-1.44-.464zm0 8.768c.725 0 1.301-.171 1.728-.512.427-.341.64-.821.64-1.44 0-.608-.213-1.083-.64-1.424-.427-.341-1.003-.512-1.728-.512-.715 0-1.285.171-1.712.512-.427.341-.64.816-.64 1.424 0 .619.213 1.099.64 1.44.427.341.997.512 1.712.512zM328.808 254h-7.232v-1.216l3.952-4.032c1.056-1.056 1.584-1.963 1.584-2.72 0-.619-.192-1.104-.576-1.456-.373-.363-.843-.544-1.408-.544-1.056 0-1.824.501-2.304 1.504l-1.248-.736c.341-.715.821-1.259 1.44-1.632.619-.384 1.317-.576 2.096-.576.949 0 1.765.309 2.448.928.693.629 1.04 1.461 1.04 2.496 0 1.131-.667 2.363-2 3.696l-2.864 2.848h5.072V254zm3.193-6.832h1.632c1.056 0 1.946.315 2.672.944.736.629 1.104 1.488 1.104 2.576 0 1.099-.374 1.957-1.12 2.576-.758.629-1.664.944-2.72.944-.875 0-1.648-.208-2.32-.624a3.315 3.315 0 01-1.376-1.776l1.264-.72c.149.533.437.944.864 1.232.426.288.949.432 1.568.432.714 0 1.285-.181 1.712-.544.437-.373.656-.88.656-1.52s-.219-1.147-.656-1.52c-.427-.373-.987-.56-1.68-.56h-3.168l.416-5.808h6.128v1.392h-4.784l-.192 2.976z" fill="#5F5F5F"/><path d="M327.021 282.824l2.96-1.024h.96V293h-1.12v-9.968l-2.512.752-.288-.96z" fill="#C1B2C8"/><circle cx="192" cy="211" r="16" fill="#3AB292"/><circle cx="146" cy="171" r="15" stroke="#3AB292" stroke-width="2"/><circle cx="237" cy="211" r="16" fill="#3AB292"/><circle cx="282" cy="211" r="16" fill="#3AB292"/><path d="M183.775 206.776l3.222-2.412h1.494V217h-2.07v-9.684l-1.548 1.17-1.098-1.71zm8.058 4.32l.828-6.696h5.958v2.07h-4.14l-.36 2.502c.264-.048.504-.072.72-.072 1.14 0 2.082.366 2.826 1.098.756.732 1.134 1.704 1.134 2.916 0 1.32-.414 2.364-1.242 3.132-.828.768-1.86 1.152-3.096 1.152-.708 0-1.41-.156-2.106-.468-.684-.324-1.212-.768-1.584-1.332l1.188-1.566c.264.384.636.696 1.116.936.48.24.96.36 1.44.36.6 0 1.092-.198 1.476-.594.396-.396.594-.906.594-1.53 0-.648-.24-1.182-.72-1.602-.48-.42-1.134-.63-1.962-.63-.876 0-1.566.108-2.07.324zm37.038-4.32l3.222-2.412h1.494V217h-2.07v-9.684l-1.548 1.17-1.098-1.71zm7.41 5.76c0-1.104.192-2.148.576-3.132.384-.996.882-1.836 1.494-2.52a9.477 9.477 0 011.98-1.728c.72-.456 1.434-.774 2.142-.954l.846 1.566a7.14 7.14 0 00-2.88 1.674c-.828.792-1.398 1.77-1.71 2.934.564-.78 1.428-1.17 2.592-1.17.984 0 1.818.36 2.502 1.08.684.72 1.026 1.644 1.026 2.772 0 1.26-.408 2.268-1.224 3.024-.816.744-1.764 1.116-2.844 1.116-1.368 0-2.46-.45-3.276-1.35-.816-.9-1.224-2.004-1.224-3.312zm2.196.018c0 .744.204 1.362.612 1.854.408.48.978.72 1.71.72.552 0 .996-.186 1.332-.558.348-.384.522-.84.522-1.368 0-.6-.18-1.092-.54-1.476-.348-.396-.846-.594-1.494-.594-.516 0-.954.138-1.314.414-.36.276-.636.612-.828 1.008zm35.947-5.778l3.222-2.412h1.494V217h-2.07v-9.684l-1.548 1.17-1.098-1.71zm7.05-.306v-2.07h7.92v1.386L284.93 217h-2.268l4.248-10.53h-5.436z" fill="#fff"/></svg>