<svg width="89" height="89" fill="none" xmlns="http://www.w3.org/2000/svg"><mask id="a" style="mask-type:alpha" maskUnits="userSpaceOnUse" x="0" y="0" width="89" height="89"><circle cx="44.5" cy="44.5" r="44.5" fill="#3AB292"/></mask><g mask="url(#a)"><path fill="#F4F3F8" d="M-46.973-9.999h160.64V98.339h-160.64z"/><circle cx="44.5" cy="44.5" r="43.5" stroke="#3AB292" stroke-width="2"/></g><g clip-path="url(#clip0)"><path d="M54 52.5V49h2v3.75h3.75v2H56v3.75h-2v-3.75h-3.75v-2H54v-.25zM38.534 54h8.716v2H33.74a.991.991 0 01-.99-.991V34.992a1 1 0 01.991-.992H56.26a.99.99 0 01.99.991V46h-2V36h-20.5v18.352l.427-.426L47.5 41.602l3.5 3.5v2.83l-3.323-3.324-.177-.176-.177.176-8.966 8.964-.427.427h.604zM40 39a2.25 2.25 0 110 4.5 2.25 2.25 0 010-4.5z" fill="#898D93" stroke="#F4F3F8" stroke-width=".5"/></g><defs><clipPath id="clip0"><path fill="#fff" transform="translate(30 30)" d="M0 0h30v30H0z"/></clipPath></defs></svg>