<svg width="751" height="500" fill="none" xmlns="http://www.w3.org/2000/svg"><path d="M524.84 64.15c5.4 13.7-1.36 29.19-15.09 34.6-13.73 5.409-29.24-1.31-34.63-15.01-5.4-13.7 1.36-29.19 15.09-34.6 13.73-5.4 29.23 1.32 34.63 15.01z" fill="#F5F5F5"/><path d="M518.92 66.48c4.11 10.44-1.04 22.24-11.5 26.36-10.46 4.12-22.28-1-26.39-11.44-4.11-10.44 1.04-22.24 11.5-26.37 10.46-4.11 22.28 1.01 26.39 11.45z" fill="#EBEBEB"/><path d="M518.679 65.889c-.11.05-.52-.75-1.4-2.08-.88-1.32-2.28-3.18-4.47-4.95-1.1-.88-2.39-1.73-3.86-2.45-1.48-.71-3.15-1.31-4.96-1.66-.9-.18-1.84-.31-2.81-.35a19.97 19.97 0 00-5.96.58c-1 .26-2 .6-2.98 1.01-.97.43-1.9.92-2.78 1.47-.88.55-1.69 1.17-2.45 1.82-.76.65-1.44 1.37-2.07 2.1-.63.73-1.18 1.5-1.68 2.28-.99 1.56-1.7 3.18-2.2 4.74-.49 1.57-.76 3.09-.87 4.49-.23 2.81.17 5.1.52 6.65.37 1.55.67 2.4.55 2.44-.08.04-.58-.73-1.13-2.27-.55-1.54-1.13-3.9-1.04-6.88.05-1.48.27-3.11.73-4.8.48-1.68 1.19-3.44 2.22-5.13.51-.85 1.09-1.68 1.76-2.48.66-.8 1.39-1.58 2.2-2.29.81-.71 1.68-1.39 2.63-1.99.94-.6 1.95-1.13 3-1.59 1.06-.45 2.13-.81 3.21-1.08 1.08-.28 2.17-.44 3.25-.54 1.08-.1 2.14-.1 3.17-.03 1.04.06 2.04.22 3.01.43 1.94.41 3.7 1.1 5.25 1.91 1.55.82 2.88 1.78 3.99 2.77 2.23 1.98 3.54 4.03 4.28 5.48.76 1.48.98 2.37.89 2.4z" fill="#E0E0E0"/><path d="M506.57 84.4l1.35 3.28-2.93 1.2-1.31-3.19c-2.97 1.01-6.13 1.25-8.26.65l.14-4.24c1.91.48 4.34.41 6.54-.25l-2.01-4.89c-3.58.55-7.65.95-9.37-3.24-1.27-3.11-.11-6.7 4.3-9.12l-1.34-3.25 2.93-1.2 1.31 3.19c2.27-.73 4.65-1.02 6.68-.66l.02 4.21c-1.84-.24-3.57-.11-5.11.32l2.05 4.98c3.56-.57 7.58-.96 9.28 3.17 1.25 3.05.1 6.6-4.27 9.04zm-8.25-11.74l-1.71-4.16c-1.41.99-1.67 2.09-1.28 3.06.43 1.02 1.54 1.22 2.99 1.1zm7.94 4.99c-.42-1.03-1.5-1.23-2.94-1.16l1.66 4.04c1.34-.92 1.67-1.94 1.28-2.88z" fill="#E0E0E0"/><path d="M354.189 35.12s-6.63 10.44-21.45 8.95c-9.18-.93-27.13-.2-28.86 6.63l4.47 19.88s11.56-4.13 23.91-2.3c12.13 1.8 28.53-8.12 28.53-8.12l-6.6-25.04z" fill="#F5F5F5"/><path opacity=".4" d="M332.989 65.14c-6.64-.04-10.58-6.12-9.67-11.11.91-4.99 7.98-7.88 12.98-6.97a9.2 9.2 0 017.39 10.7c-.92 4.98-5.63 7.41-10.7 7.38z" fill="#fff"/><path d="M334.39 61.34l.09 1.62-1.44.08-.08-1.57c-1.43-.01-2.83-.39-3.65-.97l.7-1.8c.75.5 1.81.83 2.85.88l-.13-2.41c-1.62-.3-3.44-.74-3.55-2.81-.08-1.53.96-2.9 3.23-3.28l-.08-1.6 1.44-.08.08 1.57c1.09.03 2.15.26 2.97.73l-.63 1.81c-.76-.38-1.52-.59-2.25-.63l.13 2.45c1.62.29 3.41.73 3.51 2.76.08 1.5-.94 2.85-3.19 3.25zm-1.78-6.3l-.11-2.05c-.75.21-1.04.65-1.01 1.12.03.51.47.76 1.12.93zm2.66 3.34c-.03-.51-.46-.76-1.09-.94l.1 1.99c.72-.19 1.02-.58.99-1.05z" fill="#EBEBEB"/><path opacity=".5" d="M309.849 68.29l-3.99-18.1.14-.13c6.67-5.87 20.01-4.83 28.85-4.13 1.52.12 2.96.23 4.19.3 8.28.43 13.79-6.54 13.89-7.3l.64-.08 4.63 19.46-.16.13c-9.78 7.81-22.14 8.82-29.76 7.32-7.11-1.4-17.98 2.38-18.09 2.42l-.34.11zm-3.27-17.86l3.75 17.02c1.96-.65 11.44-3.64 18.08-2.33 7.44 1.47 19.48.49 29.06-7.06l-4.32-18.17c-.41.6-.99 1.22-1.15 1.4-1.33 1.4-6.18 5.95-12.99 5.6-1.24-.07-2.69-.18-4.21-.3-8.66-.69-21.72-1.71-28.22 3.84z" fill="#fff"/><path d="M684.269 90.23s-11.2 1.55-18.91-9.67c-4.77-6.95-15.89-19.04-21.68-16.21l-11.23 14.86s9.71 5.63 15.73 15.31c5.91 9.519 22.52 15.099 22.52 15.099l13.57-19.39z" fill="#F5F5F5"/><path opacity=".4" d="M650.809 93.169c-3.9-4.66-1.98-10.99 2.04-13.31 4.02-2.31 10.21.91 12.53 4.93 2.31 4.02.93 9.16-3.1 11.47-4.02 2.32-8.49.47-11.47-3.09z" fill="#fff"/><path d="M654.289 91.898l-1.08 1.01-.9-.96 1.05-.99c-.84-1.01-1.4-2.2-1.48-3.12l1.67-.58c.1.82.49 1.75 1.07 2.51l1.6-1.51c-.75-1.31-1.51-2.84-.14-4.13 1.02-.96 2.59-1.04 4.19.31l1.07-1 .9.96-1.05.99c.62.77 1.09 1.66 1.25 2.5l-1.63.63c-.18-.75-.49-1.41-.88-1.94l-1.63 1.54c.75 1.3 1.5 2.81.15 4.08-1.01.95-2.56 1.04-4.16-.3zm3.34-4.96l1.36-1.28c-.59-.4-1.06-.34-1.38-.04-.33.31-.24.77.02 1.32zm-.76 3.84c.34-.32.26-.77.01-1.32l-1.33 1.25c.56.38 1.01.36 1.32.07z" fill="#EBEBEB"/><path opacity=".5" d="M634.939 78.899l10.27-13.48.17.03c8.03 1.18 15.19 11.1 19.93 17.67.82 1.13 1.59 2.2 2.27 3.1 4.59 6.03 12.71 5.76 13.3 5.38l.44.4-10.84 14.72-.18-.04c-11.22-2.21-19.23-10.23-22.68-16.43-3.22-5.79-12.28-11.13-12.38-11.19l-.3-.16zm10.53-12.84l-9.65 12.67c1.61.98 9.3 5.83 12.3 11.24 3.37 6.05 11.17 13.88 22.1 16.1l10.12-13.75c-.66.07-1.43.03-1.66.02-1.76-.1-7.8-.8-11.58-5.75-.69-.91-1.46-1.98-2.28-3.11-4.64-6.45-11.64-16.16-19.35-17.42z" fill="#fff"/><path d="M704.09 350.96s-6.82 9.01-20.21 6.53c-8.29-1.54-24.7-2.23-26.79 3.87l2.57 18.45s10.84-2.89 21.95-.29c10.91 2.55 26.6-5.25 26.6-5.25l-4.12-23.31z" fill="#F5F5F5"/><path opacity=".4" d="M682.509 376.7c-6.05-.54-9.17-6.37-7.97-10.85 1.21-4.48 7.87-6.58 12.35-5.37a8.4 8.4 0 015.92 10.3c-1.21 4.48-5.68 6.33-10.3 5.92z" fill="#fff"/><path d="M684.068 373.341l-.04 1.48-1.32-.04.04-1.44c-1.3-.12-2.54-.57-3.25-1.15l.77-1.59c.65.51 1.58.89 2.53 1.01l.07-2.2c-1.45-.4-3.07-.94-3.02-2.82.04-1.4 1.09-2.57 3.19-2.74l.04-1.46 1.32.04-.04 1.44c.99.11 1.94.4 2.65.89l-.71 1.6a5.46 5.46 0 00-2-.75l-.07 2.24c1.45.39 3.05.92 2.99 2.78-.03 1.37-1.07 2.52-3.15 2.71zm-1.14-5.87l.06-1.87c-.7.14-.99.51-1.01.95-.01.46.37.72.95.92zm2.17 3.25c.01-.46-.36-.72-.92-.94l-.06 1.82c.67-.13.97-.46.98-.88z" fill="#EBEBEB"/><path opacity=".5" d="M661.2 377.83l-2.27-16.79.14-.1c6.51-4.85 18.59-2.89 26.59-1.59 1.38.22 2.68.43 3.8.59 7.51 1.02 13.06-4.92 13.2-5.6l.59-.03 2.75 18.07-.16.1c-9.5 6.37-20.83 6.37-27.65 4.42-6.37-1.81-16.56.81-16.66.84l-.33.09zm-1.64-16.53l2.14 15.78c1.83-.45 10.7-2.45 16.65-.75 6.66 1.9 17.71 1.91 27.01-4.24l-2.57-16.88c-.42.51-.99 1.04-1.16 1.19-1.31 1.18-6.08 4.95-12.26 4.12-1.13-.15-2.43-.37-3.81-.59-7.84-1.27-19.65-3.19-26 1.37z" fill="#fff"/><path d="M110.63 130.24c7.45 19.81-2.6 41.92-22.45 49.39-2.15.81-4.33 1.41-6.51 1.82-17.96 3.36-36.28-6.5-42.92-24.16-7.45-19.81 2.6-41.92 22.45-49.38 19.85-7.47 41.98 2.53 49.43 22.33z" fill="#F5F5F5"/><path d="M103.21 133.46c5.68 15.09-1.98 31.94-17.11 37.63-15.13 5.69-32-1.93-37.67-17.02-5.68-15.09 1.98-31.94 17.11-37.63 15.12-5.69 31.99 1.93 37.67 17.02z" fill="#F5F5F5"/><path d="M102.079 133.46c-.01 0-.08-.14-.22-.42-.14-.31-.34-.73-.58-1.26-.13-.28-.27-.59-.42-.93-.17-.33-.39-.69-.61-1.07-.44-.77-.93-1.68-1.64-2.6-1.28-1.92-3.21-4.04-5.77-6.09a29.277 29.277 0 00-9.83-5.08c-3.94-1.14-8.56-1.64-13.33-.74-4.73.91-9.69 2.94-13.79 6.54-1.07.85-1.99 1.87-2.95 2.88-.46.52-.87 1.09-1.31 1.64-.46.54-.84 1.14-1.21 1.74-.82 1.17-1.43 2.48-2.09 3.76-.53 1.35-1.12 2.7-1.48 4.14-.78 2.84-1.25 5.86-1.08 8.91.14 3.05.74 6.12 1.81 9.07 1.14 2.92 2.71 5.63 4.61 8.02 1.88 2.41 4.23 4.37 6.69 6 1.22.85 2.55 1.47 3.84 2.14 1.35.53 2.67 1.11 4.06 1.45 1.35.45 2.76.63 4.13.88 1.39.12 2.76.29 4.12.22 5.46.01 10.53-1.74 14.69-4.17 4.18-2.47 7.32-5.88 9.54-9.34a29.3 29.3 0 004.05-10.29c.57-3.22.63-6.09.33-8.38-.07-1.16-.3-2.16-.48-3.03-.09-.44-.16-.84-.25-1.21-.11-.36-.21-.68-.3-.98-.17-.56-.3-1-.39-1.33-.11-.31-.15-.47-.14-.47.01 0 .07.15.17.44l.45 1.32c.1.29.21.62.33.97.1.36.18.77.28 1.21.2.88.45 1.88.54 3.05.34 2.31.32 5.2-.23 8.47-.57 3.26-1.79 6.91-4.02 10.46-2.22 3.52-5.4 7.01-9.64 9.55-4.22 2.49-9.37 4.29-14.94 4.3-1.39.07-2.79-.09-4.2-.22-1.39-.25-2.83-.43-4.21-.89-1.41-.35-2.76-.93-4.14-1.47-1.32-.67-2.68-1.31-3.92-2.17-2.51-1.66-4.91-3.65-6.83-6.12-1.95-2.43-3.55-5.2-4.71-8.19a31.426 31.426 0 01-1.85-9.26c-.17-3.12.31-6.2 1.11-9.1.37-1.47.97-2.84 1.52-4.22.68-1.32 1.31-2.65 2.14-3.84.39-.62.78-1.22 1.24-1.77.45-.56.87-1.14 1.34-1.67.98-1.02 1.92-2.07 3.02-2.93 4.19-3.67 9.25-5.71 14.07-6.62 4.86-.89 9.55-.36 13.54.83a29.17 29.17 0 019.92 5.22c2.57 2.1 4.49 4.26 5.75 6.22.7.94 1.17 1.86 1.6 2.65.21.4.42.75.59 1.09.14.35.28.66.4.95.22.54.4.97.53 1.29.11.3.16.45.15.45z" fill="#E0E0E0"/><path d="M101.97 133.83c-.16.07-.73-1.09-1.96-3.02-1.23-1.92-3.19-4.62-6.29-7.22a30.286 30.286 0 00-5.46-3.63c-2.1-1.06-4.46-1.97-7.04-2.51-1.29-.28-2.62-.49-3.99-.57-1.37-.09-2.78-.11-4.2.01-1.42.12-2.86.32-4.29.67-1.43.35-2.86.8-4.26 1.37-1.39.59-2.73 1.27-3.99 2.03-1.26.76-2.43 1.64-3.52 2.55-1.1.92-2.08 1.92-2.99 2.95-.91 1.03-1.71 2.12-2.43 3.23-1.44 2.21-2.48 4.52-3.22 6.75-.72 2.24-1.13 4.42-1.32 6.43-.37 4.03.15 7.32.63 9.55.49 2.24.91 3.46.74 3.52-.12.05-.81-1.06-1.58-3.29-.75-2.22-1.55-5.63-1.36-9.9.1-2.13.43-4.45 1.13-6.87.71-2.41 1.75-4.91 3.25-7.31.74-1.2 1.58-2.39 2.55-3.51.96-1.13 2.01-2.22 3.18-3.22 1.17-1 2.42-1.95 3.78-2.78 1.35-.83 2.79-1.57 4.3-2.2 1.51-.61 3.05-1.1 4.6-1.47 1.55-.37 3.1-.58 4.64-.69 1.53-.12 3.05-.08 4.52.04 1.48.12 2.91.37 4.28.69 2.75.65 5.25 1.68 7.45 2.89 2.19 1.22 4.07 2.64 5.64 4.08 3.14 2.9 4.97 5.87 6.01 7.98 1.03 2.12 1.32 3.4 1.2 3.45z" fill="#E0E0E0"/><path d="M83.929 158.94l1.86 4.75-4.24 1.66-1.81-4.62c-4.29 1.39-8.83 1.66-11.88.75l.3-6.08c2.73.74 6.23.68 9.4-.22l-2.78-7.08c-5.15.7-11.02 1.2-13.4-4.86-1.76-4.49-.02-9.63 6.38-13.02l-1.85-4.7 4.24-1.66 1.81 4.62c3.28-.99 6.7-1.36 9.61-.79l-.07 6.04c-2.64-.38-5.13-.23-7.35.34l2.83 7.2c5.13-.75 10.92-1.21 13.27 4.76 1.74 4.41.02 9.49-6.32 12.91zm-11.59-17.06l-2.36-6.01c-2.05 1.39-2.45 2.97-1.9 4.37.58 1.47 2.16 1.78 4.26 1.64zm11.3 7.35c-.58-1.48-2.13-1.81-4.2-1.73l2.3 5.85c1.93-1.3 2.43-2.77 1.9-4.12zm537.22 312.759l-152.31-271.84-213.58-17.78-35.19-79.88-40.81 23.29 50.5 103.34 201.2 17.79 122.16 223.13 68.03 1.95z" fill="#E0E0E0"/><path d="M263.579 99.07l-91.96-72.93-22.16 115.24 114.12-42.31z" fill="#E0E0E0"/><path d="M699.289 268.84c-12.45 7.85-28.93 4.1-36.8-8.38-7.87-12.48-4.16-28.97 8.3-36.82 12.45-7.85 28.93-4.1 36.8 8.38 7.87 12.48 4.15 28.96-8.3 36.82z" fill="#F5F5F5"/><path d="M695.9 263.46c-9.49 5.98-22.05 3.12-28.04-6.39-6-9.51-3.17-22.08 6.32-28.06s22.05-3.12 28.05 6.39c5.99 9.51 3.16 22.07-6.33 28.06z" fill="#F5F5F5"/><path d="M696.439 263.11c-.07-.1.64-.65 1.78-1.76 1.13-1.11 2.7-2.83 4.03-5.32.66-1.24 1.26-2.67 1.69-4.25.42-1.59.7-3.34.71-5.18.01-.92-.04-1.87-.18-2.82-.13-.95-.32-1.92-.61-2.88s-.63-1.92-1.07-2.86c-.44-.93-.96-1.85-1.55-2.74-.6-.88-1.26-1.7-1.96-2.46s-1.46-1.44-2.25-2.06c-.78-.63-1.61-1.16-2.45-1.64-.83-.48-1.69-.88-2.55-1.22-1.71-.69-3.44-1.08-5.07-1.28a20.66 20.66 0 00-4.58-.02c-2.8.3-4.98 1.11-6.43 1.75-1.46.65-2.23 1.1-2.3 1-.05-.07.61-.7 2.02-1.54 1.41-.82 3.62-1.84 6.56-2.3 1.47-.23 3.1-.32 4.85-.17a20.938 20.938 0 018.22 2.49c.91.5 1.81 1.07 2.66 1.74.85.66 1.68 1.39 2.44 2.21.76.82 1.47 1.7 2.12 2.65.64.95 1.19 1.94 1.66 2.95.47 1.01.84 2.05 1.14 3.09.3 1.04.49 2.08.62 3.11.13 1.03.17 2.05.14 3.04-.05 1.98-.4 3.84-.9 5.52-.52 1.67-1.22 3.16-1.97 4.44-1.53 2.55-3.3 4.23-4.59 5.23-1.3.98-2.13 1.36-2.18 1.28z" fill="#E0E0E0"/><path d="M675.989 254.66l-2.97 1.94-1.73-2.65 2.89-1.88c-1.55-2.73-2.37-5.79-2.18-7.99l4.19-.65c-.12 1.97.41 4.34 1.47 6.38l4.43-2.89c-1.2-3.41-2.36-7.34 1.43-9.81 2.81-1.83 6.56-1.36 9.77 2.52l2.95-1.92 1.73 2.65-2.89 1.88c1.14 2.09 1.87 4.38 1.89 6.44l-4.13.8c-.11-1.85-.56-3.53-1.26-4.96l-4.51 2.94c1.23 3.39 2.35 7.27-1.39 9.71-2.77 1.79-6.47 1.33-9.69-2.51zm10.01-10.29l3.77-2.45c-1.23-1.2-2.37-1.25-3.24-.69-.93.61-.92 1.73-.53 3.14zm-3.43 8.73c.93-.61.93-1.7.59-3.1l-3.66 2.38c1.15 1.14 2.22 1.27 3.07.72z" fill="#E0E0E0"/><path d="M695.4 459.81c0 .14-143.45.26-320.36.26-176.97 0-320.39-.12-320.39-.26s143.42-.26 320.39-.26c176.91 0 320.36.11 320.36.26z" fill="#263238"/><path d="M180.4 198.43c-12.13 6.28-21.43 17.1-28.12 29.01-6.69 11.91-11 24.98-15.27 37.96l-3.74 66.92c14.11-24.01 25.44-52.23 28.5-79.92l-9.39-.84c6.3-.96 11.58-5.52 14.95-10.93 3.36-5.41 5.09-11.65 6.78-17.79-3.82.57-7.64 1.14-11.46 1.7 8.98-5.99 15.49-15.56 17.75-26.11z" fill="#C2C2C2"/><path opacity=".3" d="M180.4 198.43c-12.13 6.28-21.43 17.1-28.12 29.01-6.69 11.91-11 24.98-15.27 37.96l-3.74 66.92c14.11-24.01 25.44-52.23 28.5-79.92l-9.39-.84c6.3-.96 11.58-5.52 14.95-10.93 3.36-5.41 5.09-11.65 6.78-17.79-3.82.57-7.64 1.14-11.46 1.7 8.98-5.99 15.49-15.56 17.75-26.11z" fill="#2C3343"/><path d="M131.189 348s-30.63-36.67-30.28-71.67h12.37s-13.44-8.84-12.38-13.79c1.06-4.95 1.42-23.69 1.42-23.69l11.31 2.83s-8.49-4.24-9.55-10.96c-1.06-6.72 2.47-37.83 2.47-37.83s13.79 14.5 18.03 29.34c4.24 14.85 15.38 32.17 12.11 77.43-3.25 45.26-5.5 48.34-5.5 48.34zm15.53 3.46s33.19-22.11 40.56-50.33l-9.95-2.71s12.74-4.17 12.97-8.38c.23-4.21 4.04-19.35 4.04-19.35l-9.71-.2s7.75-1.55 10.07-6.72c2.32-5.17 6.29-30.96 6.29-30.96s-14.26 8.64-20.92 19.65c-6.66 11.01-19.4 22.5-26.68 59.6-7.26 37.1-6.67 39.4-6.67 39.4z" fill="#C2C2C2"/><path d="M114.94 224.859c.01 0 .05.13.11.38.07.28.15.65.26 1.13.23 1.02.55 2.48.97 4.35.42 1.89.92 4.21 1.45 6.9.54 2.7 1.18 5.76 1.8 9.17 1.31 6.8 2.69 14.93 4.12 23.97 1.38 9.05 2.76 19.02 3.98 29.51 1.2 10.5 2.13 20.52 2.85 29.65.68 9.13 1.19 17.36 1.46 24.28.17 3.46.26 6.59.34 9.34.1 2.75.14 5.12.16 7.05.02 1.91.04 3.41.05 4.46v1.16c0 .26-.01.4-.02.4s-.02-.13-.04-.39c-.01-.29-.03-.67-.05-1.16-.04-1.05-.09-2.54-.15-4.45-.05-1.93-.13-4.3-.25-7.05-.11-2.75-.22-5.87-.42-9.33-.32-6.91-.87-15.13-1.57-24.26-.75-9.12-1.69-19.13-2.89-29.63a923.051 923.051 0 00-3.94-29.5c-1.4-9.04-2.74-17.17-4-23.97-.6-3.41-1.21-6.48-1.72-9.18-.51-2.7-.97-5.02-1.36-6.92-.37-1.88-.67-3.34-.87-4.37-.09-.48-.16-.86-.21-1.14-.05-.27-.07-.4-.06-.4z" fill="#263238"/><path d="M126.939 370.449s-28.03-31.81-36.74-51.03l6.57-2.81c-4.76.79-9.64-1.26-13.34-4.37-3.69-3.11-6.41-7.2-9.06-11.23l8.66-1.46c-7.87-2.21-14.81-7.58-18.91-14.65 10.21 1.68 19.46 7.29 27.07 14.3 6.17 5.68 11.39 12.27 16.4 19.01 2.45 3.29 4.59 6.79 6.37 10.47 4.71 9.74 13 30.09 12.98 41.77z" fill="#C2C2C2"/><path d="M187.72 251.319c.01 0-.04.11-.13.32-.11.23-.25.54-.43.92-.41.84-.98 2.02-1.71 3.53-.75 1.53-1.67 3.4-2.7 5.58-1.04 2.18-2.25 4.66-3.51 7.42-2.59 5.51-5.56 12.11-8.76 19.5-3.17 7.39-6.55 15.57-9.9 24.22-3.34 8.67-6.34 16.99-8.97 24.59-2.6 7.61-4.84 14.5-6.64 20.32-.92 2.9-1.69 5.54-2.39 7.86a317.7 317.7 0 00-1.76 5.95c-.47 1.61-.84 2.87-1.11 3.76-.13.41-.22.73-.3.97-.07.22-.11.33-.12.33-.01 0 .01-.12.07-.34.06-.25.15-.58.25-.99.24-.9.58-2.17 1.01-3.79.44-1.64.99-3.65 1.67-5.97.67-2.32 1.42-4.97 2.32-7.88 1.75-5.83 3.96-12.74 6.53-20.37 2.61-7.62 5.6-15.95 8.94-24.62 3.36-8.66 6.75-16.84 9.95-24.23 3.22-7.38 6.24-13.97 8.87-19.46 1.29-2.76 2.52-5.22 3.59-7.39 1.06-2.17 2-4.03 2.78-5.55.77-1.49 1.37-2.66 1.8-3.48.2-.38.36-.67.48-.9.1-.2.16-.3.17-.3zm-58.4 132.761c-.02 0-.06-.2-.13-.59l-.27-1.69c-.11-.73-.24-1.63-.43-2.67s-.37-2.22-.65-3.52c-.5-2.6-1.22-5.68-2.14-9.06-.95-3.37-2.11-7.05-3.53-10.84-1.44-3.78-3-7.31-4.52-10.47-1.55-3.14-3.04-5.93-4.39-8.21-.65-1.16-1.29-2.17-1.84-3.07-.54-.91-1.03-1.67-1.44-2.29-.37-.59-.67-1.07-.91-1.45-.2-.33-.3-.51-.29-.52.01-.01.14.15.38.46.26.36.59.83 1 1.39.43.6.95 1.35 1.51 2.25.57.89 1.24 1.89 1.91 3.04 1.39 2.27 2.92 5.04 4.5 8.19 1.55 3.16 3.13 6.7 4.57 10.49 1.42 3.8 2.58 7.5 3.5 10.9.9 3.4 1.58 6.5 2.04 9.12.26 1.3.41 2.5.58 3.54.17 1.04.27 1.95.35 2.69.07.69.13 1.26.17 1.7.04.4.05.61.03.61z" fill="#263238"/><path d="M166.309 376.6h-61.35v12.52h61.35V376.6z" fill="#CC2846"/><path d="M110.799 389.109l6.64 42.1h37.07l6.19-42.1h-49.9z" fill="#CC2846"/><path d="M162.549 389.11c0 .14-11.61.26-25.92.26-14.32 0-25.92-.12-25.92-.26s11.6-.26 25.92-.26c14.31 0 25.92.12 25.92.26z" fill="#263238"/><path d="M673.499 419.329c1.91.83 3.31 2.59 4.01 4.55.7 1.96.77 4.09.53 6.16-.45 4-2.72 8.03-5.17 11.23-3.37-2.94-4.14-8.06-4.37-10.69-.35-4.15 1.51-11.87 5-11.25zm3.29 28.53c-.54-2.26.4-4.74 2.14-6.28 1.73-1.55 4.16-2.2 6.47-2.02 1.07.08 2.23.39 2.84 1.28.57.82.51 1.97.04 2.86-.47.89-1.27 1.55-2.12 2.09-2.91 1.83-6.07 3.06-9.37 2.07z" fill="#C2C2C2"/><path d="M672.479 460.119c-.02 0 .03-.3.12-.82.11-.58.24-1.32.41-2.22.37-1.85.85-4.51 2.29-7.09 1.42-2.57 3.41-4.47 5.09-5.41.83-.48 1.56-.77 2.07-.92.25-.09.46-.12.6-.15.14-.03.21-.04.21-.03.02.07-1.17.28-2.78 1.28-1.62.97-3.54 2.84-4.94 5.37-1.41 2.53-1.92 5.15-2.34 6.99-.2.93-.37 1.68-.5 2.2-.13.52-.22.8-.23.8z" fill="#263238"/><path d="M672.598 425.329c.01 0 .02.12.04.36.02.27.04.61.06 1.03.05.89.1 2.19.15 3.79a365.347 365.347 0 01-.111 25.04c-.07 1.6-.13 2.9-.18 3.79-.03.42-.05.76-.07 1.03-.02.24-.029.36-.039.36-.01 0-.01-.12-.01-.36 0-.27.01-.61.02-1.03.02-.93.05-2.22.09-3.79.08-3.2.169-7.63.189-12.51.02-4.89-.029-9.31-.079-12.51-.02-1.57-.04-2.86-.06-3.79 0-.42 0-.77-.01-1.03 0-.25 0-.38.01-.38z" fill="#263238"/><path d="M670.968 450.299c-.77-4.84-4.03-9.21-8.44-11.32-1.12-.54-2.59-.89-3.52-.05-.93.84-.72 2.34-.27 3.51 1.89 4.84 6.95 8.26 12.14 8.2" fill="#C2C2C2"/><path d="M663.069 442.759c.01-.02.26.09.71.31.23.11.5.24.81.43.3.19.67.37 1.03.64.37.26.78.54 1.18.88.42.33.83.72 1.25 1.14.83.85 1.66 1.87 2.38 3.05.7 1.19 1.21 2.4 1.57 3.54.16.57.31 1.12.4 1.64.11.52.16 1.01.2 1.46.06.45.04.86.06 1.21.02.36-.01.66-.03.91-.04.5-.07.78-.09.77-.07 0 .05-1.11-.15-2.88-.06-.44-.11-.92-.23-1.43-.09-.51-.25-1.05-.41-1.61-.36-1.11-.87-2.31-1.56-3.47a17.54 17.54 0 00-2.32-3.02c-.41-.42-.81-.81-1.21-1.14-.39-.35-.78-.63-1.14-.9-1.46-1.01-2.48-1.47-2.45-1.53z" fill="#263238"/><path d="M257.66 400.2l26.99 59.6h13.03l1.87-4.54 2.31 4.54h8.55l-.99-34.79-.42-20.56-51.34-4.25z" fill="#CC2846"/><path opacity=".3" d="M257.66 400.2l26.99 59.6h13.03l1.87-4.54 2.31 4.54h8.55l-.99-34.79-.42-20.56-51.34-4.25z" fill="#2C3343"/><path d="M375.811 406.59l26.33 53.22h13.03l1.86-4.17 2.32 4.17h8.55l-1-31.86-.42-18.82-50.67-2.54z" fill="#CC2846"/><path opacity=".3" d="M375.811 406.59l26.33 53.22h13.03l1.86-4.17 2.32 4.17h8.55l-1-31.86-.42-18.82-50.67-2.54z" fill="#2C3343"/><path d="M525.56 249.73c0-.01.09.02.25.09.19.08.42.18.7.3.59.31 1.48.79 2.45 1.63.97.83 2.05 2.01 2.96 3.59.9 1.58 1.64 3.59 1.78 5.9.18 2.3-.41 4.89-1.83 7.21-1.41 2.32-3.67 4.36-6.5 5.55-2.8 1.18-6.3 1.45-9.37-.02-1.52-.73-2.84-2.03-3.47-3.68-.66-1.61-.62-3.64.48-5.15 1.07-1.51 2.85-2.32 4.59-2.44 1.78-.13 3.48.57 4.81 1.59 2.7 2.08 3.95 5.44 3.86 8.49-.07 3.08-1.27 5.9-2.97 8-.86 1.05-1.84 1.95-2.91 2.62-1.07.67-2.19 1.15-3.29 1.49-2.22.64-4.34.7-6.15.46-1.81-.23-3.32-.72-4.49-1.23-1.18-.5-2.02-1.05-2.57-1.42-.25-.19-.45-.34-.61-.46-.14-.11-.2-.16-.2-.17.04-.07 1.11.91 3.46 1.87 1.17.48 2.66.94 4.44 1.13 1.78.21 3.85.12 6.01-.52 1.07-.34 2.15-.82 3.18-1.48 1.03-.66 1.97-1.53 2.79-2.56 1.63-2.05 2.78-4.78 2.83-7.74.07-2.93-1.14-6.12-3.69-8.07-1.25-.96-2.85-1.59-4.47-1.48-1.6.11-3.24.88-4.2 2.23-.98 1.34-1.02 3.16-.42 4.66.58 1.53 1.79 2.72 3.22 3.41 2.89 1.39 6.26 1.16 8.96.03 2.73-1.14 4.93-3.1 6.31-5.34 1.39-2.24 1.98-4.73 1.83-6.96-.11-2.24-.8-4.22-1.67-5.77-.87-1.57-1.9-2.74-2.84-3.58-1.9-1.7-3.31-2.1-3.26-2.18z" fill="#CC2846"/><path d="M512.67 303.66c3.92 88.45-70.23 132.58-154.17 132.58-83.94 0-151.98-57.46-151.98-128.35 0-70.89 68.04-128.36 151.98-128.36 83.94 0 151.03 53.31 154.17 124.13z" fill="#CC2846"/><path opacity=".3" d="M347.91 211.231s10.08-3.2 19.51 7.46c9.43 10.66 22.55 28.82 22.55 28.82-1.18 5.91-4.63 10.52-11.32 13.26l-30.74-49.54z" fill="#2C3343"/><path d="M258.56 399.85c28.74 0 52.04-17.855 52.04-39.88 0-22.025-23.3-39.88-52.04-39.88-28.741 0-52.04 17.855-52.04 39.88 0 22.025 23.299 39.88 52.04 39.88zm48.54-146.5s30.5-47.32 44.47-42.19c13.97 5.13 27.08 49.6 27.08 49.6m-106.04-18.25l-1.43-12.81s-19.1-7.98-36.2-11.89-20.47 0-20.47 0l27.05 37.91 31.05-13.21z" fill="#CC2846"/><path opacity=".3" d="M313.32 197.12l10.12 6.01s49.02-12.97 86.66 0l-13.81-11.75s-45.65-9.81-82.97 5.74zm-54.76 202.73c28.74 0 52.04-17.855 52.04-39.88 0-22.025-23.3-39.88-52.04-39.88-28.741 0-52.04 17.855-52.04 39.88 0 22.025 23.299 39.88 52.04 39.88z" fill="#2C3343"/><path d="M245.34 399.85c26.924 0 48.75-17.855 48.75-39.88 0-22.025-21.826-39.88-48.75-39.88s-48.75 17.855-48.75 39.88c0 22.025 21.826 39.88 48.75 39.88z" fill="#CC2846"/><path opacity=".3" d="M228.491 378.68h-3.76a3.34 3.34 0 01-3.34-3.34v-30.75a3.34 3.34 0 013.34-3.34h3.76a3.34 3.34 0 013.34 3.34v30.75c-.01 1.84-1.5 3.34-3.34 3.34zm28.009 0h-3.76a3.34 3.34 0 01-3.34-3.34v-30.75a3.34 3.34 0 013.34-3.34h3.76a3.34 3.34 0 013.34 3.34v30.75c0 1.84-1.5 3.34-3.34 3.34zm13.15-134.92c4.39-2.48 6.74-6.18 5.09-12.28 0 0-22.65-9.77-39.76-13.68-17.1-3.91-20.47 0-20.47 0l27.05 37.91 28.09-11.95z" fill="#2C3343"/><path d="M271.18 244.801s-1.27-.87-3.41-2.3c-10.09-6.74-39.57-25.99-47.04-26.21-10.26-.3-10.28 8.55-10.26 15.39.01 4.85 3.99 47.03 3.99 47.03" fill="#CC2846"/><path d="M378.649 260.76c-.01 0-.05-.1-.12-.29-.08-.22-.17-.51-.29-.87-.27-.8-.64-1.92-1.12-3.35-.99-2.9-2.45-7.09-4.46-12.19-2.02-5.09-4.54-11.12-7.99-17.48-1.75-3.16-3.69-6.45-6.19-9.47-1.24-1.51-2.61-2.98-4.24-4.16-1.61-1.17-3.51-2.13-5.56-1.89-2.03.17-3.95 1.01-5.7 1.98-1.76.99-3.38 2.17-4.91 3.39-3.06 2.47-5.76 5.15-8.25 7.78-4.95 5.29-9.01 10.4-12.34 14.75-3.32 4.36-5.89 7.98-7.65 10.49-.86 1.24-1.53 2.21-2.01 2.9-.22.31-.39.56-.53.75-.12.17-.19.25-.19.25-.01 0 .04-.1.15-.28.12-.2.28-.46.48-.78.43-.68 1.08-1.68 1.93-2.96 1.71-2.55 4.23-6.2 7.52-10.6 3.3-4.38 7.34-9.54 12.29-14.86 2.48-2.65 5.2-5.35 8.28-7.85 1.55-1.24 3.18-2.43 4.98-3.44 1.79-1 3.75-1.87 5.92-2.05 1.07-.09 2.18.04 3.17.45.98.4 1.89.93 2.73 1.54 1.68 1.22 3.07 2.72 4.32 4.25 2.53 3.07 4.46 6.39 6.21 9.56 3.45 6.4 5.94 12.46 7.92 17.58 1.96 5.13 3.38 9.34 4.3 12.26.46 1.46.81 2.6 1.03 3.38.1.37.18.66.24.89.07.22.09.32.08.32zm17.642-69.38c.01-.01.09.05.25.18.18.15.41.33.7.57.64.53 1.53 1.28 2.66 2.22 2.32 1.97 5.64 4.78 9.72 8.25l.65.55-.82-.23c-5.03-1.41-11.08-2.84-17.89-3.9-6.8-1.06-14.35-1.74-22.27-1.82-18.88-.31-35.43 3.24-45.44 6.11l-.07.02-.06-.03c-3.28-1.92-5.88-3.45-7.69-4.51-.86-.52-1.54-.92-2.03-1.22-.21-.13-.38-.24-.52-.32-.11-.07-.17-.12-.17-.12 0-.01.07.02.19.08.14.08.32.17.54.28.5.28 1.19.66 2.07 1.14 1.83 1.04 4.46 2.52 7.77 4.39l-.12-.01c5.02-1.48 11.63-3.17 19.4-4.4 3.88-.64 8.05-1.11 12.43-1.49 4.38-.29 8.97-.53 13.7-.44 7.96.08 15.53.78 22.34 1.87 6.82 1.08 12.88 2.56 17.91 4.01l-.17.32c-4.04-3.52-7.31-6.37-9.61-8.37-1.11-.98-1.97-1.75-2.6-2.3-.28-.25-.49-.45-.67-.61-.13-.14-.21-.22-.2-.22zM274.42 327.95c-.01.01-.1-.05-.29-.17-.21-.14-.47-.31-.81-.54-.36-.24-.79-.54-1.3-.88-.53-.32-1.17-.66-1.87-1.05-2.83-1.53-7.2-3.34-12.88-4.37-2.84-.48-5.99-.81-9.38-.88-3.39-.02-7.02.2-10.78.79-7.51 1.16-15.66 3.88-22.89 8.91-1.79 1.27-3.49 2.63-5.04 4.1-1.53 1.49-2.98 3.02-4.24 4.67-2.53 3.27-4.49 6.81-5.84 10.35-2.58 7.18-2.53 14.31-1.28 19.9.63 2.81 1.63 5.23 2.62 7.29 1.08 2.02 2.18 3.66 3.19 4.91.52.61.98 1.16 1.38 1.64.44.43.81.8 1.12 1.1.28.29.51.51.68.69.15.16.23.24.22.25-.01.01-.09-.06-.26-.21-.18-.16-.42-.38-.72-.65-.32-.3-.71-.65-1.16-1.07-.42-.47-.89-1.01-1.43-1.62-1.05-1.24-2.18-2.88-3.29-4.91-1.02-2.07-2.06-4.5-2.72-7.34-1.31-5.64-1.41-12.85 1.18-20.14.7-1.8 1.49-3.61 2.5-5.35.96-1.77 2.12-3.48 3.39-5.14 1.27-1.67 2.73-3.23 4.28-4.73 1.57-1.49 3.29-2.86 5.1-4.15 7.31-5.08 15.55-7.81 23.12-8.95 3.8-.58 7.45-.79 10.86-.75 3.42.08 6.58.44 9.44.94 5.72 1.09 10.09 2.96 12.91 4.56.7.41 1.33.76 1.85 1.1.5.36.92.67 1.28.93.32.24.58.43.78.58.2.11.28.18.28.19z" fill="#263238"/><path d="M231.529 344.761c.04 0 .07.57.11 1.59.05 1.12.11 2.58.18 4.34.15 3.67.45 8.73.59 14.34.03 1.4.05 2.77.04 4.1-.01 1.32-.05 2.62-.29 3.84-.42 2.44-1.8 4.51-3.54 5.35-1.76.86-3.46.36-4.3-.22-.44-.3-.7-.62-.85-.85-.15-.23-.2-.37-.18-.38.05-.04.28.53 1.15 1.05.82.51 2.43.9 4.02.07 1.58-.82 2.86-2.76 3.24-5.11.21-1.17.25-2.44.25-3.75 0-1.32-.02-2.68-.05-4.08-.14-5.59-.38-10.66-.44-14.34-.04-1.84-.04-3.32-.02-4.35.02-1.03.06-1.6.09-1.6zm27.641 0c.04 0 .07.57.11 1.59.05 1.12.11 2.58.18 4.34.15 3.67.45 8.73.59 14.34.03 1.4.05 2.77.04 4.1-.01 1.32-.05 2.62-.29 3.84-.42 2.44-1.8 4.51-3.54 5.35-1.76.86-3.46.36-4.3-.22-.44-.3-.71-.62-.85-.85-.15-.23-.2-.37-.18-.38.05-.04.28.53 1.15 1.05.82.51 2.43.9 4.02.07 1.58-.82 2.86-2.76 3.24-5.11.21-1.17.25-2.44.25-3.75 0-1.32-.02-2.68-.05-4.08-.14-5.59-.38-10.66-.44-14.34-.04-1.84-.04-3.32-.02-4.35.02-1.03.06-1.6.09-1.6zm34.33 23.889c.02.01-.06.24-.21.69-.17.44-.36 1.11-.74 1.93-.67 1.66-1.86 3.99-3.65 6.66-1.78 2.67-4.28 5.61-7.41 8.48-1.59 1.41-3.32 2.82-5.22 4.14a52.844 52.844 0 01-6.16 3.64c-4.38 2.19-8.8 3.82-12.97 4.7-4.16.93-8.01 1.11-11.21 1.13-3.21-.02-5.79-.2-7.58-.32-.85-.07-1.53-.12-2.05-.16-.47-.04-.72-.07-.71-.09 0-.02.25-.02.72-.01.52.02 1.21.04 2.06.07 1.79.06 4.37.19 7.57.16 3.19-.06 7-.28 11.11-1.23 4.12-.89 8.48-2.52 12.84-4.7 2.17-1.09 4.21-2.3 6.11-3.59 1.88-1.3 3.61-2.69 5.19-4.08 3.12-2.83 5.62-5.71 7.43-8.34 1.81-2.62 3.05-4.9 3.77-6.53.41-.8.63-1.46.83-1.88.16-.45.27-.67.28-.67z" fill="#263238"/><path d="M230.931 343.65c-.05.02-.17-.41-.69-.99-.5-.57-1.49-1.24-2.86-1.29-1.34-.06-3.02.54-4.22 1.88-.6.66-1.05 1.51-1.28 2.46-.24.95-.3 1.99-.3 3.06.04 4.3.05 8.2.03 11.02-.02 1.33-.04 2.44-.05 3.34-.02.79-.05 1.23-.09 1.23-.04 0-.07-.44-.11-1.22-.03-.9-.07-2.01-.12-3.34-.07-2.82-.15-6.71-.19-11.03 0-1.08.06-2.16.32-3.18s.76-1.95 1.42-2.66c1.33-1.43 3.13-2.04 4.59-1.93 1.48.11 2.52.89 2.99 1.53.25.32.38.61.46.8.09.21.12.31.1.32zm18.319 2.31c.14 0 .26 5.27.26 11.77s-.12 11.77-.26 11.77-.26-5.27-.26-11.77.11-11.77.26-11.77zm-8.389-22.7c0 .02-.21.03-.62.04-.4.02-1-.01-1.76.04-1.52.04-3.73.21-6.41.7-5.33.93-12.66 3.48-19.13 8.75-6.47 5.27-10.46 11.93-12.45 16.96-1.02 2.53-1.63 4.65-1.98 6.14-.2.74-.29 1.32-.39 1.71-.09.39-.15.6-.16.59-.02 0 0-.21.06-.61.07-.4.13-.99.3-1.74.29-1.5.86-3.66 1.84-6.23 1.92-5.11 5.91-11.89 12.46-17.23 6.55-5.33 14-7.86 19.39-8.71 2.71-.44 4.94-.55 6.47-.54.77-.02 1.36.04 1.76.06.41.03.62.05.62.07zm-26.152-50.949c.02.01-.05.2-.18.57-.16.41-.37.94-.62 1.58-.28.68-.61 1.52-.96 2.51-.35.99-.79 2.1-1.17 3.36-.41 1.25-.85 2.62-1.25 4.12-.45 1.48-.81 3.1-1.22 4.79-.75 3.4-1.41 7.17-1.84 11.17-.4 4-.53 7.83-.5 11.31.05 1.74.08 3.39.21 4.94.08 1.55.23 2.98.38 4.29.11 1.31.31 2.49.45 3.53.13 1.04.29 1.93.42 2.65.11.68.21 1.24.28 1.68.06.38.08.59.06.59-.02 0-.07-.19-.17-.57-.1-.43-.22-.98-.37-1.66-.16-.72-.35-1.61-.51-2.64-.17-1.04-.39-2.21-.53-3.53-.17-1.31-.34-2.75-.44-4.3-.15-1.55-.19-3.21-.26-4.96-.06-3.5.06-7.35.46-11.37.43-4.02 1.11-7.81 1.89-11.22.43-1.7.81-3.32 1.27-4.8.42-1.5.88-2.87 1.32-4.12.41-1.26.87-2.36 1.25-3.34.37-.98.73-1.81 1.04-2.48.29-.63.52-1.14.71-1.55.17-.37.26-.55.28-.55zm1.491-52.001c.04.03-.41.54-1.01 1.59-.6 1.05-1.28 2.67-1.67 4.8-.42 2.12-.55 4.7-.62 7.57-.08 2.87-.09 6.03-.01 9.34.16 6.63.69 12.61 1.2 16.93.26 2.1.48 3.82.64 5.11.07.55.13 1.01.18 1.39.03.32.04.49.03.49-.02 0-.06-.16-.13-.47-.07-.37-.16-.83-.27-1.38-.22-1.2-.51-2.94-.8-5.09-.6-4.31-1.19-10.31-1.35-16.96-.08-3.32-.05-6.49.05-9.37.09-2.87.26-5.49.74-7.63.45-2.15 1.2-3.8 1.86-4.83.33-.52.62-.9.84-1.14.19-.24.31-.36.32-.35zm97.34-31.33c.01.02-.21.11-.64.26-.47.17-1.09.39-1.86.66-1.68.58-4 1.38-6.86 2.35-5.77 2.01-13.77 4.79-22.22 8.74-8.46 3.94-15.6 8.52-20.36 12.34a82.39 82.39 0 00-5.47 4.73c-.63.58-1.09 1.06-1.42 1.36-.33.31-.51.47-.52.45-.01-.01.14-.19.44-.53.31-.33.74-.83 1.36-1.43 1.2-1.23 3.01-2.93 5.38-4.87 4.72-3.91 11.89-8.57 20.37-12.52 8.48-3.96 16.51-6.7 22.32-8.62 2.91-.95 5.27-1.7 6.91-2.2.78-.23 1.41-.42 1.89-.56.45-.12.68-.18.68-.16zm34.809 24.8c.01.02-.14.14-.45.36-.35.25-.79.56-1.33.94-1.17.8-2.83 1.99-4.84 3.52-2.02 1.52-4.36 3.41-6.88 5.59-2.51 2.21-5.19 4.72-7.87 7.48-2.67 2.78-5.07 5.56-7.19 8.14-2.09 2.6-3.89 5.01-5.33 7.09-1.45 2.07-2.58 3.77-3.33 4.97-.36.55-.65 1-.89 1.36-.21.31-.33.47-.34.46-.02-.01.07-.18.25-.51l.81-1.42c.7-1.23 1.79-2.97 3.2-5.07 1.4-2.11 3.18-4.55 5.26-7.18 2.1-2.61 4.51-5.41 7.18-8.2 2.69-2.78 5.39-5.29 7.93-7.48 2.55-2.17 4.92-4.04 6.98-5.53 2.05-1.49 3.75-2.64 4.95-3.39.56-.35 1.02-.63 1.39-.86.31-.2.49-.29.5-.27zm154.121 69.57c.06-.03.54.92 1.18 2.52.64 1.6 1.42 3.85 2.06 6.4.65 2.55 1.04 4.9 1.24 6.61.2 1.71.23 2.78.16 2.78-.08.01-.23-1.04-.52-2.73-.29-1.69-.74-4.01-1.38-6.54-.64-2.53-1.36-4.78-1.9-6.4-.55-1.62-.91-2.61-.84-2.64z" fill="#fff"/><path d="M478.539 397.98s-.16.13-.49.37c-.35.25-.84.59-1.47 1.05-.65.46-1.46 1.02-2.4 1.69-.48.33-.99.69-1.54 1.07-.56.36-1.16.75-1.79 1.16-5.01 3.36-12.5 7.87-22.17 12.66-2.42 1.18-4.99 2.36-7.67 3.58-1.36.57-2.74 1.16-4.15 1.76-.7.3-1.42.6-2.13.9-.73.28-1.46.56-2.2.85-1.48.57-2.99 1.14-4.52 1.73-1.55.53-3.12 1.08-4.72 1.63-1.59.57-3.23 1.07-4.89 1.58-1.67.49-3.33 1.07-5.06 1.51-6.86 1.97-14.18 3.58-21.83 4.91-7.65 1.31-15.65 2.25-23.88 2.57-8.23.34-16.29.09-24.01-.75-.97-.09-1.93-.19-2.89-.28-.96-.1-1.9-.26-2.85-.38-1.89-.27-3.76-.53-5.6-.8-1.84-.34-3.65-.68-5.45-1.01-.9-.17-1.79-.34-2.68-.5-.88-.2-1.76-.4-2.62-.6-13.93-3.11-26.13-7.32-35.99-11.71-9.87-4.36-17.48-8.71-22.5-12.05-2.57-1.58-4.41-3.04-5.71-3.94-.63-.46-1.11-.81-1.46-1.06-.33-.24-.49-.38-.49-.38s.18.11.52.33c.35.24.85.58 1.49 1.02 1.32.88 3.18 2.31 5.76 3.86 5.04 3.28 12.66 7.58 22.53 11.88 9.85 4.33 22.04 8.5 35.94 11.58.87.2 1.74.39 2.62.59.89.16 1.78.33 2.67.5 1.79.33 3.61.66 5.44 1 1.84.26 3.71.52 5.59.79.94.12 1.88.28 2.84.38.95.09 1.91.18 2.88.28 7.7.84 15.74 1.08 23.94.74 8.2-.32 16.19-1.25 23.82-2.55 7.63-1.31 14.94-2.92 21.78-4.87 1.72-.44 3.39-1.01 5.05-1.5 1.66-.5 3.3-.99 4.89-1.56 1.59-.55 3.17-1.08 4.71-1.61 1.53-.58 3.03-1.15 4.51-1.71.74-.28 1.47-.56 2.2-.84.72-.3 1.43-.6 2.13-.89 1.41-.59 2.79-1.17 4.15-1.74 2.68-1.21 5.25-2.37 7.67-3.54 9.67-4.74 17.18-9.2 22.22-12.5.64-.4 1.24-.78 1.8-1.14.55-.37 1.07-.73 1.55-1.05.96-.65 1.77-1.2 2.43-1.65.65-.43 1.15-.77 1.5-1 .35-.26.53-.36.53-.36z" fill="#263238"/><path d="M435.471 408.68l20.1 51.4h13.74l2.99-4.48 3.52 4.48h4.86l1.8-81.45-47.01 30.05zm-126.25 7.241l16.99 44.16h15.62l3.19-5.12 3.08 5.12h3.88s1.7-49.82 0-51.24c-1.72-1.42-42.76 7.08-42.76 7.08z" fill="#CC2846"/><path d="M507.66 317.221c.01 0 .01.1-.01.29-.02.22-.04.51-.07.86-.07.79-.18 1.89-.31 3.3-.07.72-.15 1.51-.24 2.38-.11.87-.29 1.8-.45 2.81-.36 2.01-.65 4.33-1.3 6.82-.29 1.25-.6 2.57-.92 3.93-.33 1.37-.8 2.75-1.22 4.2-.8 2.92-1.98 5.94-3.15 9.13-2.56 6.31-5.84 13.05-9.99 19.73-4.23 6.63-8.89 12.51-13.47 17.54-2.37 2.44-4.58 4.81-6.87 6.79-1.13 1.01-2.17 2.03-3.26 2.92-1.09.88-2.14 1.72-3.15 2.53-1.97 1.66-3.93 2.93-5.59 4.12-.84.58-1.61 1.15-2.34 1.62-.75.45-1.43.87-2.05 1.24-1.21.72-2.16 1.3-2.84 1.7l-.74.43c-.17.09-.26.14-.26.13 0-.01.08-.07.24-.18.19-.12.42-.28.72-.48.67-.43 1.6-1.03 2.78-1.79.61-.39 1.28-.81 2.02-1.28.72-.49 1.48-1.06 2.31-1.65 1.64-1.21 3.58-2.49 5.52-4.17l3.12-2.55c1.08-.89 2.11-1.92 3.23-2.93 2.27-1.99 4.46-4.36 6.81-6.8 4.54-5.03 9.18-10.89 13.39-17.5 4.13-6.65 7.42-13.36 9.99-19.63 1.18-3.18 2.38-6.17 3.19-9.08.43-1.45.91-2.82 1.25-4.18.33-1.36.65-2.66.95-3.91.67-2.48.99-4.78 1.37-6.78.17-1 .37-1.93.49-2.8.1-.86.2-1.66.28-2.37.17-1.4.31-2.49.41-3.28.05-.35.09-.63.12-.85.01-.16.03-.26.04-.26z" fill="#fff"/><path opacity=".2" d="M485.92 273.86c-4.56-11.3-14.51-21.97-26.03-26.64-9.36-3.8-19.77 2.9-20.3 12.99 0 .07-.01.14-.01.22-.36 7.24 2.49 14.27 5.97 20.63 3.48 6.36 7.66 12.37 10.37 19.1 4.46 11.07 4.61 23.82.4 34.99-2.68 7.12-7.13 14.7-3.1 21.8 2.64 4.66 7.95 6.95 13.28 6.46 10.21-.93 15.51-10.15 20.35-18.52 3.89-6.74 7.1-17.22 7.28-25.13.39-16.37-2.09-30.72-8.21-45.9zm-38.25-29.15c.26 0 .51.03.77.04.02-.01.03-.01.05-.02l-.82-.02z" fill="#fff"/><path d="M255.06 298.29a7.2 7.2 0 01-8.46 8.46c-2.83-.54-5.11-2.82-5.65-5.65a7.2 7.2 0 018.46-8.46c2.83.54 5.11 2.82 5.65 5.65zm77.779 0a7.2 7.2 0 01-8.46 8.46c-2.83-.54-5.11-2.82-5.65-5.65a7.2 7.2 0 018.46-8.46c2.84.54 5.12 2.82 5.65 5.65z" fill="#263238"/><path d="M483.56 239.56c-.01.01-.18-.18-.5-.54-.34-.41-.79-.94-1.34-1.61a67.27 67.27 0 00-2.14-2.54c-.85-.97-1.79-2.11-2.91-3.29-1.1-1.2-2.3-2.51-3.65-3.87-1.32-1.39-2.81-2.79-4.35-4.28-3.15-2.93-6.72-6.03-10.64-9.07-3.94-3.02-7.84-5.69-11.47-7.99-1.84-1.12-3.57-2.2-5.24-3.13-1.65-.97-3.23-1.8-4.67-2.55-1.43-.78-2.76-1.4-3.92-1.98-1.15-.58-2.16-1.05-2.99-1.42-.79-.37-1.42-.66-1.9-.89-.43-.21-.66-.33-.65-.34.01-.02.24.07.69.25.49.2 1.14.47 1.94.8.84.35 1.87.79 3.04 1.35 1.17.55 2.52 1.15 3.96 1.91 1.46.74 3.05 1.55 4.71 2.5 1.69.91 3.44 1.98 5.29 3.09 3.66 2.29 7.59 4.95 11.54 7.99 3.93 3.05 7.51 6.18 10.65 9.14 1.54 1.51 3.03 2.92 4.33 4.33 1.34 1.37 2.54 2.7 3.62 3.92 1.1 1.2 2.02 2.36 2.86 3.35.84.99 1.52 1.87 2.07 2.6.53.69.95 1.25 1.27 1.67.27.38.41.59.4.6zm-75.6-32.31c-.01.02-.27-.06-.78-.23-.55-.19-1.28-.44-2.19-.76-.95-.34-2.11-.75-3.49-1.15-1.37-.41-2.91-.94-4.66-1.37l-2.73-.72c-.95-.25-1.96-.44-2.99-.68-2.06-.49-4.29-.85-6.63-1.27-4.7-.72-9.91-1.28-15.4-1.46-5.49-.14-10.72.12-15.46.57-2.36.28-4.61.51-6.7.89-1.04.18-2.06.31-3.02.5-.96.2-1.89.38-2.77.56-1.77.33-3.34.76-4.73 1.1-1.39.32-2.58.66-3.55.95-.93.26-1.68.47-2.23.63-.51.14-.78.2-.79.19-.01-.02.26-.11.76-.29l2.21-.72c.96-.32 2.14-.69 3.53-1.03 1.39-.36 2.96-.82 4.73-1.17.88-.19 1.81-.39 2.77-.6.96-.2 1.98-.35 3.03-.53 2.09-.4 4.35-.64 6.72-.94 4.75-.48 10.01-.75 15.53-.61 5.51.18 10.74.75 15.46 1.5 2.35.43 4.59.81 6.65 1.32 1.03.25 2.04.45 2.99.71.95.26 1.86.52 2.73.76 1.75.45 3.29 1.01 4.65 1.44 1.37.43 2.53.86 3.46 1.24.9.35 1.62.64 2.16.85.49.19.74.3.74.32z" fill="#fff"/><path d="M536.499 196.64c-4.96 12.12-18.82 17.91-30.97 12.94-12.15-4.97-17.97-18.82-13.02-30.94 4.96-12.12 18.82-17.91 30.97-12.94 12.15 4.97 17.97 18.83 13.02 30.94z" fill="#CC2846"/><path d="M531.259 194.5c-3.78 9.23-14.34 13.65-23.6 9.86-9.26-3.79-13.7-14.34-9.92-23.58 3.78-9.23 14.34-13.65 23.6-9.86 9.26 3.79 13.7 14.35 9.92 23.58z" fill="#CC2846"/><path d="M531.259 194.5c-.01 0 .02-.1.08-.28.07-.2.15-.47.27-.82.06-.18.13-.38.2-.6.06-.22.11-.47.18-.74.12-.54.29-1.15.35-1.87.23-1.41.24-3.18-.06-5.19-.31-2-1.01-4.24-2.32-6.44-1.31-2.18-3.19-4.34-5.73-5.95-2.53-1.58-5.63-2.75-9.01-2.84-.84-.07-1.69.01-2.55.06-.43.04-.85.13-1.28.19-.43.05-.86.16-1.28.28-.86.19-1.69.52-2.53.83-.81.39-1.64.75-2.41 1.25-1.55.96-3.03 2.13-4.24 3.59a19.24 19.24 0 00-3 4.87c-.71 1.81-1.14 3.69-1.28 5.58-.16 1.89.08 3.76.51 5.53.19.9.54 1.74.84 2.58.39.81.74 1.63 1.23 2.37.42.77.99 1.45 1.5 2.14.58.64 1.13 1.29 1.77 1.83 2.47 2.3 5.5 3.64 8.41 4.29 2.93.64 5.8.41 8.26-.22 2.47-.65 4.55-1.76 6.17-2.97 1.62-1.22 2.85-2.49 3.68-3.66.45-.56.77-1.11 1.06-1.58.14-.24.28-.45.39-.65.1-.21.19-.4.28-.57.16-.33.29-.58.38-.77.08-.15.13-.24.13-.24.01 0-.03.09-.11.27-.09.19-.2.46-.35.79-.08.17-.17.37-.26.58-.11.21-.24.42-.38.67-.28.48-.59 1.04-1.04 1.61-.82 1.19-2.04 2.49-3.67 3.74a18.138 18.138 0 01-6.23 3.06c-2.49.66-5.4.91-8.39.27-2.96-.65-6.06-2-8.58-4.34-.66-.55-1.22-1.21-1.81-1.87-.53-.7-1.1-1.39-1.54-2.17-.5-.75-.86-1.59-1.26-2.41-.31-.86-.66-1.72-.86-2.64-.44-1.81-.69-3.72-.52-5.65.14-1.92.58-3.85 1.31-5.7.77-1.83 1.81-3.51 3.06-4.98 1.23-1.49 2.75-2.68 4.33-3.66.78-.51 1.64-.88 2.46-1.27.86-.31 1.71-.65 2.59-.84.43-.12.87-.23 1.31-.28.44-.06.87-.15 1.31-.19.88-.05 1.74-.13 2.6-.06 3.44.1 6.6 1.3 9.16 2.92 2.58 1.64 4.48 3.86 5.79 6.07 1.31 2.23 2.01 4.52 2.3 6.54.28 2.03.24 3.82-.01 5.24-.08.72-.25 1.34-.39 1.88-.07.27-.13.52-.19.74-.08.22-.15.42-.22.6-.13.34-.23.61-.3.81-.06.18-.1.28-.11.27z" fill="#263238"/><path opacity=".3" d="M531.059 194.629c-.1-.04.13-.8.39-2.19.25-1.39.5-3.44.19-5.92-.16-1.24-.46-2.57-.95-3.94-.51-1.36-1.2-2.77-2.13-4.1-.47-.67-.98-1.32-1.57-1.94-.58-.62-1.21-1.22-1.91-1.76-.69-.54-1.43-1.06-2.23-1.5-.79-.44-1.63-.84-2.51-1.17-.88-.32-1.77-.57-2.66-.76-.89-.19-1.79-.28-2.67-.32-.88-.05-1.75 0-2.6.08-.85.08-1.67.24-2.46.44-1.58.39-3.02 1.01-4.3 1.71-1.27.71-2.37 1.53-3.3 2.36-1.86 1.67-3.01 3.38-3.74 4.6-.72 1.22-1.04 1.95-1.15 1.91-.08-.03.08-.82.67-2.16.6-1.32 1.67-3.2 3.55-5.06.94-.92 2.07-1.84 3.4-2.64 1.34-.79 2.86-1.49 4.55-1.94.84-.23 1.72-.42 2.63-.52a17.3 17.3 0 012.8-.12c.95.04 1.92.13 2.88.33.96.19 1.93.46 2.87.81.94.36 1.85.78 2.7 1.27.86.48 1.65 1.05 2.39 1.64.75.59 1.42 1.25 2.03 1.92.62.67 1.16 1.39 1.65 2.12.98 1.45 1.67 2.97 2.17 4.45.48 1.48.74 2.91.84 4.22.2 2.63-.22 4.76-.63 6.15-.42 1.35-.82 2.05-.9 2.03z" fill="#2C3343"/><path opacity=".3" d="M512.309 198.419l-1.15 2.94-2.62-1.03 1.12-2.86c-2.53-1.18-4.71-2.97-5.7-4.66l2.7-2.63c.93 1.48 2.54 2.93 4.36 3.86l1.72-4.38c-2.63-1.85-5.5-4.09-4.03-7.84 1.09-2.78 4.04-4.37 8.37-3.22l1.14-2.91 2.62 1.03-1.12 2.86c1.9.93 3.61 2.2 4.69 3.69l-2.58 2.71c-1.04-1.28-2.23-2.27-3.48-2.94l-1.75 4.46c2.64 1.82 5.46 4.05 4.01 7.74-1.07 2.72-3.99 4.3-8.3 3.18zm1.93-12.62l1.46-3.72c-1.51-.23-2.36.31-2.7 1.18-.37.92.23 1.72 1.24 2.54zm2.03 8.09c.36-.92-.2-1.71-1.18-2.55l-1.42 3.62c1.42.22 2.27-.23 2.6-1.07z" fill="#2C3343"/><path d="M479.249 149.069c-4.96 12.12-18.82 17.91-30.97 12.94-12.15-4.97-17.97-18.82-13.02-30.94 4.96-12.12 18.82-17.91 30.97-12.94 12.15 4.97 17.97 18.82 13.02 30.94z" fill="#CC2846"/><path d="M474.009 146.93c-3.78 9.23-14.34 13.65-23.6 9.86-9.26-3.79-13.7-14.34-9.92-23.58 3.78-9.23 14.34-13.65 23.6-9.86 9.26 3.79 13.7 14.35 9.92 23.58z" fill="#CC2846"/><path d="M474.009 146.929c-.01 0 .02-.1.08-.28.07-.2.15-.469.27-.819.06-.18.13-.381.2-.601.06-.22.11-.469.18-.739.12-.54.29-1.151.35-1.871.23-1.41.24-3.18-.06-5.19-.31-2-1.01-4.249-2.32-6.439-1.31-2.18-3.19-4.34-5.73-5.95-2.53-1.58-5.63-2.751-9.01-2.841-.84-.07-1.69.011-2.55.061-.43.04-.85.129-1.28.189-.43.05-.86.161-1.28.281-.86.19-1.69.52-2.53.83-.81.39-1.64.75-2.41 1.25-1.55.96-3.03 2.129-4.24 3.589a19.245 19.245 0 00-3 4.871c-.71 1.81-1.14 3.69-1.28 5.58-.16 1.89.08 3.76.51 5.53.19.9.54 1.74.84 2.58.39.81.74 1.63 1.23 2.37.42.77.99 1.45 1.5 2.14.58.64 1.13 1.29 1.77 1.83 2.47 2.3 5.5 3.639 8.41 4.29 2.94.639 5.8.41 8.26-.221 2.47-.65 4.55-1.76 6.17-2.97 1.62-1.22 2.85-2.489 3.68-3.659.45-.56.77-1.11 1.06-1.58.14-.24.28-.451.39-.651.1-.21.19-.399.28-.569.16-.33.29-.58.38-.77.08-.16.13-.241.13-.241.01 0-.03.09-.11.27-.09.19-.2.461-.35.791-.08.17-.17.37-.26.58-.11.21-.24.42-.38.67-.28.48-.59 1.04-1.04 1.61-.82 1.19-2.04 2.49-3.67 3.74a18.137 18.137 0 01-6.23 3.059c-2.49.66-5.4.911-8.39.271-2.96-.65-6.06-2-8.59-4.34-.66-.55-1.22-1.21-1.81-1.87-.53-.7-1.1-1.391-1.54-2.171-.5-.75-.86-1.589-1.26-2.409-.31-.86-.66-1.72-.86-2.64-.44-1.81-.69-3.721-.52-5.651.14-1.92.58-3.849 1.31-5.699.77-1.83 1.81-3.51 3.06-4.98 1.23-1.49 2.75-2.68 4.33-3.66.78-.51 1.64-.88 2.46-1.27.86-.31 1.71-.65 2.59-.84.43-.12.87-.23 1.31-.28.44-.06.87-.15 1.31-.19.88-.05 1.74-.13 2.6-.06 3.44.1 6.6 1.3 9.16 2.92 2.58 1.64 4.48 3.86 5.79 6.07 1.31 2.23 2.01 4.52 2.3 6.54.28 2.03.24 3.82-.01 5.24-.08.72-.25 1.339-.39 1.879-.07.27-.13.521-.19.741-.08.22-.15.42-.22.6-.13.34-.23.61-.3.81-.05.18-.09.269-.1.269z" fill="#263238"/><path opacity=".3" d="M473.809 147.049c-.1-.04.13-.8.39-2.19.25-1.39.5-3.44.19-5.92-.16-1.24-.46-2.57-.95-3.94-.51-1.37-1.2-2.77-2.13-4.1-.47-.67-.98-1.32-1.57-1.94-.58-.62-1.21-1.22-1.91-1.76-.69-.54-1.43-1.06-2.23-1.5-.79-.44-1.63-.84-2.51-1.17-.88-.32-1.77-.57-2.66-.76-.89-.19-1.79-.28-2.67-.32-.88-.05-1.75 0-2.6.08-.85.08-1.67.24-2.46.44-1.58.39-3.03 1.01-4.3 1.71-1.27.71-2.37 1.53-3.3 2.36-1.86 1.67-3.01 3.38-3.74 4.6-.72 1.22-1.04 1.95-1.15 1.91-.08-.03.08-.82.67-2.16.6-1.32 1.67-3.2 3.55-5.06.94-.92 2.07-1.84 3.4-2.64 1.34-.79 2.86-1.49 4.55-1.94.84-.23 1.72-.42 2.63-.52a17.3 17.3 0 012.8-.12c.95.04 1.92.13 2.88.33.96.19 1.93.46 2.87.81.94.36 1.85.78 2.7 1.27.86.48 1.65 1.05 2.39 1.64.75.59 1.42 1.25 2.03 1.92.62.67 1.16 1.39 1.65 2.12.98 1.45 1.67 2.97 2.17 4.45.48 1.48.74 2.91.84 4.22.2 2.63-.22 4.76-.63 6.15-.42 1.36-.82 2.06-.9 2.03z" fill="#2C3343"/><path opacity=".3" d="M455.059 150.849l-1.15 2.94-2.62-1.03 1.12-2.86c-2.53-1.18-4.71-2.97-5.7-4.66l2.7-2.63c.93 1.48 2.54 2.93 4.36 3.86l1.72-4.38c-2.63-1.85-5.5-4.09-4.03-7.84 1.09-2.78 4.04-4.37 8.37-3.22l1.14-2.91 2.62 1.03-1.12 2.86c1.9.93 3.61 2.2 4.69 3.69l-2.58 2.71c-1.04-1.28-2.23-2.27-3.48-2.94l-1.75 4.46c2.64 1.82 5.46 4.05 4.01 7.74-1.07 2.71-3.99 4.29-8.3 3.18zm1.93-12.62l1.46-3.72c-1.51-.23-2.36.31-2.7 1.18-.36.91.23 1.72 1.24 2.54zm2.03 8.09c.36-.92-.2-1.71-1.18-2.55l-1.42 3.62c1.42.22 2.27-.23 2.6-1.07z" fill="#2C3343"/><path d="M392.259 128.99c1.69 21.06-14.08 39.51-35.23 41.2-21.15 1.69-39.66-14.01-41.35-35.07-1.69-21.06 14.08-39.51 35.23-41.2 21.14-1.69 39.66 14.01 41.35 35.07z" fill="#CC2846"/><path d="M383.148 129.719c1.29 16.05-10.73 30.11-26.84 31.4-16.11 1.29-30.22-10.68-31.51-26.73-1.29-16.05 10.73-30.11 26.84-31.4 16.11-1.28 30.22 10.68 31.51 26.73z" fill="#CC2846"/><path d="M383.148 129.719c-.01 0-.04-.16-.09-.47-.05-.34-.12-.79-.21-1.37-.04-.3-.09-.64-.15-1.01-.07-.37-.19-.76-.29-1.2-.21-.86-.43-1.87-.86-2.95-.7-2.2-1.97-4.76-3.87-7.43-1.9-2.66-4.56-5.38-8.05-7.58-3.47-2.18-7.77-3.93-12.61-4.39-4.8-.43-10.13.15-15.06 2.48-1.26.52-2.43 1.25-3.63 1.95-.58.38-1.14.81-1.71 1.21-.59.39-1.12.86-1.65 1.33-1.11.9-2.06 1.98-3.05 3.04-.89 1.15-1.82 2.28-2.56 3.56-1.53 2.51-2.82 5.28-3.5 8.26-.71 2.96-.97 6.07-.76 9.2a30.9 30.9 0 002.22 8.97c1.14 2.84 2.86 5.36 4.77 7.6.94 1.15 2.04 2.12 3.1 3.11 1.15.88 2.26 1.8 3.5 2.51 1.18.81 2.48 1.36 3.72 1.98 1.3.5 2.57 1.04 3.9 1.35 5.24 1.52 10.6 1.24 15.27.05 4.7-1.22 8.67-3.63 11.75-6.34 3.09-2.73 5.28-5.84 6.73-8.76 1.44-2.94 2.29-5.67 2.63-7.95.25-1.13.31-2.16.38-3.04.03-.44.08-.85.09-1.23-.01-.37-.01-.71-.02-1.02 0-.59-.01-1.05-.01-1.39 0-.31.01-.47.02-.47s.03.16.05.47c.02.34.04.8.07 1.39.01.31.03.65.05 1.03 0 .38-.04.79-.06 1.24-.05.89-.09 1.93-.32 3.07-.31 2.31-1.13 5.08-2.56 8.06a29.156 29.156 0 01-6.75 8.94c-3.11 2.77-7.13 5.24-11.9 6.5-4.75 1.23-10.2 1.54-15.55 0-1.35-.31-2.65-.86-3.98-1.36-1.27-.63-2.6-1.19-3.8-2.01-1.26-.72-2.4-1.66-3.58-2.56-1.08-1.01-2.21-2-3.17-3.17-1.96-2.28-3.71-4.86-4.88-7.75-1.2-2.87-1.97-5.97-2.27-9.16-.21-3.19.05-6.37.78-9.4.69-3.04 2.01-5.86 3.58-8.43.76-1.31 1.72-2.46 2.62-3.63 1.02-1.07 1.99-2.18 3.12-3.09.54-.48 1.08-.96 1.68-1.36.59-.41 1.15-.85 1.75-1.23 1.23-.71 2.42-1.46 3.71-1.98 5.04-2.36 10.47-2.93 15.35-2.47 4.92.49 9.28 2.29 12.79 4.53 3.52 2.26 6.19 5.04 8.09 7.75 1.89 2.72 3.14 5.32 3.81 7.55.41 1.09.62 2.11.81 2.98.09.44.2.84.26 1.21.04.37.08.71.12 1.02.06.58.11 1.04.15 1.38.03.32.04.48.03.48z" fill="#263238"/><path opacity=".3" d="M382.938 130.049c-.17.02-.4-1.25-1.04-3.44-.65-2.18-1.79-5.32-4.05-8.66a30.183 30.183 0 00-4.25-4.99c-1.73-1.6-3.75-3.12-6.07-4.35-1.16-.62-2.39-1.19-3.68-1.65-1.29-.47-2.64-.87-4.04-1.15-1.4-.28-2.84-.48-4.31-.54-1.47-.06-2.97-.02-4.47.14-1.5.18-2.97.47-4.39.85-1.42.38-2.78.9-4.09 1.48s-2.53 1.27-3.69 2.01c-1.16.74-2.23 1.56-3.23 2.43-2 1.72-3.63 3.65-4.96 5.59a29.491 29.491 0 00-3.04 5.8c-1.47 3.76-1.88 7.07-2.04 9.34-.14 2.28-.08 3.57-.26 3.59-.13.02-.48-1.24-.61-3.6-.11-2.34.07-5.83 1.42-9.87.68-2.01 1.65-4.16 2.98-6.28 1.35-2.11 3.04-4.22 5.14-6.12a27.65 27.65 0 013.42-2.67c1.23-.82 2.54-1.58 3.95-2.22 1.4-.64 2.86-1.21 4.4-1.63 1.53-.42 3.12-.74 4.74-.93 1.62-.17 3.24-.22 4.82-.14 1.59.07 3.14.3 4.65.62 1.51.31 2.96.76 4.34 1.29 1.39.52 2.69 1.15 3.92 1.85 2.47 1.38 4.59 3.06 6.37 4.83 1.77 1.78 3.19 3.65 4.29 5.47 2.22 3.65 3.16 7.01 3.57 9.31.41 2.32.34 3.62.21 3.64z" fill="#2C3343"/><path opacity=".3" d="M358.658 149.17l.48 5.07-4.53.43-.47-4.93c-4.51.15-8.95-.84-11.63-2.55l1.97-5.76c2.43 1.46 5.8 2.37 9.1 2.38l-.72-7.56c-5.15-.74-10.92-1.89-11.54-8.36-.45-4.8 2.64-9.24 9.73-10.73l-.48-5.02 4.53-.43.47 4.93c3.42-.05 6.82.54 9.46 1.89l-1.74 5.78c-2.44-1.09-4.87-1.64-7.16-1.7l.73 7.69c5.14.7 10.83 1.85 11.44 8.23.46 4.71-2.6 9.11-9.64 10.64zm-6.42-19.57l-.61-6.42c-2.35.77-3.18 2.17-3.04 3.67.15 1.57 1.59 2.3 3.65 2.75zm8.83 10.17c-.15-1.58-1.55-2.32-3.56-2.82l.59 6.24c2.22-.71 3.1-1.98 2.97-3.42z" fill="#2C3343"/><path d="M237.739 430.79H82.189v28.56h155.55v-28.56z" fill="#C2C2C2"/><path d="M237.759 435.85c0 .14-34.82.26-77.77.26-42.96 0-77.78-.12-77.78-.26s34.82-.26 77.78-.26c42.94 0 77.77.12 77.77.26zm0 6.14c0 .14-34.82.26-77.77.26-42.96 0-77.78-.12-77.78-.26s34.82-.26 77.78-.26c42.94 0 77.77.12 77.77.26zm0 6.15c0 .14-34.82.26-77.77.26-42.96 0-77.78-.12-77.78-.26s34.82-.26 77.78-.26c42.94 0 77.77.12 77.77.26zm0 6.14c0 .14-34.82.26-77.77.26-42.96 0-77.78-.12-77.78-.26s34.82-.26 77.78-.26c42.94 0 77.77.12 77.77.26z" fill="#263238"/><path d="M173.1 430.79h-26.25v28.57h26.25v-28.57z" fill="#E0E0E0"/><path d="M631.95 350.13h-85.19v15.47h85.19v-15.47z" fill="#CC2846"/><path d="M555.11 365.71c-.2 0-.35-3.44-.35-7.67 0-4.24.16-7.67.35-7.67.19 0 .35 3.43.35 7.67 0 4.23-.15 7.67-.35 7.67zm-4.66 0c-.2 0-.35-3.44-.35-7.67 0-4.24.16-7.67.35-7.67.2 0 .35 3.43.35 7.67.01 4.23-.15 7.67-.35 7.67zm14.9 0c-.2 0-.35-3.44-.35-7.67 0-4.24.16-7.67.35-7.67.2 0 .35 3.43.35 7.67 0 4.23-.16 7.67-.35 7.67zm-4.66 0c-.2 0-.35-3.44-.35-7.67 0-4.24.16-7.67.35-7.67.2 0 .35 3.43.35 7.67 0 4.23-.16 7.67-.35 7.67zm14.89 0c-.2 0-.35-3.44-.35-7.67 0-4.24.16-7.67.35-7.67.2 0 .35 3.43.35 7.67.01 4.23-.15 7.67-.35 7.67zm-4.66 0c-.2 0-.35-3.44-.35-7.67 0-4.24.16-7.67.35-7.67.2 0 .35 3.43.35 7.67.01 4.23-.15 7.67-.35 7.67zm14.901 0c-.2 0-.35-3.44-.35-7.67 0-4.24.16-7.67.35-7.67.19 0 .35 3.43.35 7.67 0 4.23-.16 7.67-.35 7.67zm-4.66 0c-.2 0-.35-3.44-.35-7.67 0-4.24.16-7.67.35-7.67.2 0 .35 3.43.35 7.67 0 4.23-.16 7.67-.35 7.67zm14.888 0c-.2 0-.35-3.44-.35-7.67 0-4.24.16-7.67.35-7.67.2 0 .35 3.43.35 7.67.01 4.23-.15 7.67-.35 7.67zm-4.66 0c-.2 0-.35-3.44-.35-7.67 0-4.24.16-7.67.35-7.67.2 0 .35 3.43.35 7.67.01 4.23-.15 7.67-.35 7.67zm14.9 0c-.2 0-.35-3.44-.35-7.67 0-4.24.16-7.67.35-7.67.2 0 .35 3.43.35 7.67 0 4.23-.16 7.67-.35 7.67zm-4.66 0c-.2 0-.35-3.44-.35-7.67 0-4.24.16-7.67.35-7.67.2 0 .35 3.43.35 7.67 0 4.23-.16 7.67-.35 7.67zm14.891 0c-.2 0-.35-3.44-.35-7.67 0-4.24.16-7.67.35-7.67.2 0 .35 3.43.35 7.67.01 4.23-.15 7.67-.35 7.67zm-4.66 0c-.2 0-.35-3.44-.35-7.67 0-4.24.16-7.67.35-7.67.2 0 .35 3.43.35 7.67.01 4.23-.15 7.67-.35 7.67zm14.9 0c-.2 0-.35-3.44-.35-7.67 0-4.24.16-7.67.35-7.67.2 0 .35 3.43.35 7.67 0 4.23-.15 7.67-.35 7.67zm-4.66 0c-.2 0-.35-3.44-.35-7.67 0-4.24.16-7.67.35-7.67.2 0 .35 3.43.35 7.67 0 4.23-.15 7.67-.35 7.67z" fill="#263238"/><path d="M631.949 350.13c0 .2-19.16.35-42.79.35-23.64 0-42.79-.16-42.79-.35 0-.2 19.16-.35 42.79-.35s42.79.16 42.79.35z" fill="#263238"/><path d="M626.379 365.851h-85.19v15.47h85.19v-15.47z" fill="#CC2846"/><path d="M549.53 381.42c-.2 0-.35-3.44-.35-7.67 0-4.24.16-7.67.35-7.67.19 0 .35 3.43.35 7.67.01 4.24-.15 7.67-.35 7.67zm-4.66 0c-.2 0-.35-3.44-.35-7.67 0-4.24.16-7.67.35-7.67.19 0 .35 3.43.35 7.67.01 4.24-.15 7.67-.35 7.67zm14.9 0c-.2 0-.35-3.44-.35-7.67 0-4.24.16-7.67.35-7.67.2 0 .35 3.43.35 7.67s-.15 7.67-.35 7.67zm-4.66 0c-.2 0-.35-3.44-.35-7.67 0-4.24.16-7.67.35-7.67.19 0 .35 3.43.35 7.67s-.15 7.67-.35 7.67zm14.9 0c-.2 0-.35-3.44-.35-7.67 0-4.24.16-7.67.35-7.67.19 0 .35 3.43.35 7.67s-.16 7.67-.35 7.67zm-4.66 0c-.2 0-.35-3.44-.35-7.67 0-4.24.16-7.67.35-7.67.2 0 .35 3.43.35 7.67s-.16 7.67-.35 7.67zm14.889 0c-.2 0-.35-3.44-.35-7.67 0-4.24.16-7.67.35-7.67.19 0 .35 3.43.35 7.67.01 4.24-.15 7.67-.35 7.67zm-4.659 0c-.2 0-.35-3.44-.35-7.67 0-4.24.16-7.67.35-7.67.2 0 .35 3.43.35 7.67.01 4.24-.15 7.67-.35 7.67zm14.899 0c-.2 0-.35-3.44-.35-7.67 0-4.24.16-7.67.35-7.67.2 0 .35 3.43.35 7.67s-.16 7.67-.35 7.67zm-4.66 0c-.2 0-.35-3.44-.35-7.67 0-4.24.16-7.67.35-7.67.19 0 .35 3.43.35 7.67s-.16 7.67-.35 7.67zm14.89 0c-.2 0-.35-3.44-.35-7.67 0-4.24.16-7.67.35-7.67.2 0 .35 3.43.35 7.67.01 4.24-.15 7.67-.35 7.67zm-4.66 0c-.2 0-.35-3.44-.35-7.67 0-4.24.16-7.67.35-7.67.2 0 .35 3.43.35 7.67.01 4.24-.15 7.67-.35 7.67zm14.901 0c-.2 0-.35-3.44-.35-7.67 0-4.24.16-7.67.35-7.67.19 0 .35 3.43.35 7.67s-.16 7.67-.35 7.67zm-4.661 0c-.2 0-.35-3.44-.35-7.67 0-4.24.16-7.67.35-7.67.2 0 .35 3.43.35 7.67s-.16 7.67-.35 7.67zm14.891 0c-.2 0-.35-3.44-.35-7.67 0-4.24.16-7.67.35-7.67.19 0 .35 3.43.35 7.67.01 4.24-.15 7.67-.35 7.67zm-4.66 0c-.2 0-.35-3.44-.35-7.67 0-4.24.16-7.67.35-7.67.2 0 .35 3.43.35 7.67.01 4.24-.15 7.67-.35 7.67z" fill="#263238"/><path d="M626.369 365.85c0 .2-19.16.35-42.79.35-23.64 0-42.79-.16-42.79-.35 0-.2 19.16-.35 42.79-.35 23.63-.01 42.79.15 42.79.35z" fill="#263238"/><path d="M633.338 381.42h-85.19v15.47h85.19v-15.47z" fill="#CC2846"/><path d="M556.498 397c-.2 0-.35-3.44-.35-7.67 0-4.24.16-7.67.35-7.67.19 0 .35 3.43.35 7.67 0 4.23-.16 7.67-.35 7.67zm-4.66 0c-.2 0-.35-3.44-.35-7.67 0-4.24.16-7.67.35-7.67.2 0 .35 3.43.35 7.67 0 4.23-.16 7.67-.35 7.67zm14.891 0c-.2 0-.35-3.44-.35-7.67 0-4.24.16-7.67.35-7.67.2 0 .35 3.43.35 7.67.01 4.23-.15 7.67-.35 7.67zm-4.66 0c-.2 0-.35-3.44-.35-7.67 0-4.24.16-7.67.35-7.67.19 0 .35 3.43.35 7.67.01 4.23-.15 7.67-.35 7.67zm14.9 0c-.2 0-.35-3.44-.35-7.67 0-4.24.16-7.67.35-7.67.2 0 .35 3.43.35 7.67 0 4.23-.16 7.67-.35 7.67zm-4.66 0c-.2 0-.35-3.44-.35-7.67 0-4.24.16-7.67.35-7.67.19 0 .35 3.43.35 7.67 0 4.23-.16 7.67-.35 7.67zm14.889 0c-.2 0-.35-3.44-.35-7.67 0-4.24.16-7.67.35-7.67.19 0 .35 3.43.35 7.67.01 4.23-.15 7.67-.35 7.67zm-4.66 0c-.2 0-.35-3.44-.35-7.67 0-4.24.16-7.67.35-7.67.2 0 .35 3.43.35 7.67.01 4.23-.15 7.67-.35 7.67zm14.9 0c-.2 0-.35-3.44-.35-7.67 0-4.24.16-7.67.35-7.67.19 0 .35 3.43.35 7.67 0 4.23-.16 7.67-.35 7.67zm-4.66 0c-.2 0-.35-3.44-.35-7.67 0-4.24.16-7.67.35-7.67.19 0 .35 3.43.35 7.67 0 4.23-.16 7.67-.35 7.67zm14.89 0c-.2 0-.35-3.44-.35-7.67 0-4.24.16-7.67.35-7.67.2 0 .35 3.43.35 7.67.01 4.23-.15 7.67-.35 7.67zm-4.66 0c-.2 0-.35-3.44-.35-7.67 0-4.24.16-7.67.35-7.67.19 0 .35 3.43.35 7.67.01 4.23-.15 7.67-.35 7.67zm14.901 0c-.2 0-.35-3.44-.35-7.67 0-4.24.16-7.67.35-7.67.2 0 .35 3.43.35 7.67 0 4.23-.15 7.67-.35 7.67zm-4.661 0c-.2 0-.35-3.44-.35-7.67 0-4.24.16-7.67.35-7.67.2 0 .35 3.43.35 7.67 0 4.23-.15 7.67-.35 7.67zm14.891 0c-.2 0-.35-3.44-.35-7.67 0-4.24.16-7.67.35-7.67.2 0 .35 3.43.35 7.67.01 4.23-.15 7.67-.35 7.67zm-4.65 0c-.2 0-.35-3.44-.35-7.67 0-4.24.16-7.67.35-7.67.2 0 .35 3.43.35 7.67 0 4.23-.16 7.67-.35 7.67z" fill="#263238"/><path d="M633.329 381.42c0 .2-19.21.35-42.89.35-23.69 0-42.9-.16-42.9-.35 0-.2 19.2-.35 42.9-.35 23.69 0 42.89.16 42.89.35z" fill="#263238"/><path d="M626.661 396.771h-85.19v15.47h85.19v-15.47z" fill="#CC2846"/><path d="M549.821 412.351c-.2 0-.35-3.44-.35-7.67 0-4.24.16-7.67.35-7.67.19 0 .35 3.43.35 7.67 0 4.23-.16 7.67-.35 7.67zm-4.66 0c-.2 0-.35-3.44-.35-7.67 0-4.24.16-7.67.35-7.67.2 0 .35 3.43.35 7.67 0 4.23-.16 7.67-.35 7.67zm14.89 0c-.2 0-.35-3.44-.35-7.67 0-4.24.16-7.67.35-7.67.19 0 .35 3.43.35 7.67.01 4.23-.15 7.67-.35 7.67zm-4.66 0c-.2 0-.35-3.44-.35-7.67 0-4.24.16-7.67.35-7.67.2 0 .35 3.43.35 7.67.01 4.23-.15 7.67-.35 7.67zm14.9 0c-.2 0-.35-3.44-.35-7.67 0-4.24.16-7.67.35-7.67.2 0 .35 3.43.35 7.67 0 4.23-.16 7.67-.35 7.67zm-4.66 0c-.2 0-.35-3.44-.35-7.67 0-4.24.16-7.67.35-7.67.19 0 .35 3.43.35 7.67 0 4.23-.15 7.67-.35 7.67zm14.889 0c-.2 0-.35-3.44-.35-7.67 0-4.24.16-7.67.35-7.67.2 0 .35 3.43.35 7.67.01 4.23-.15 7.67-.35 7.67zm-4.649 0c-.2 0-.35-3.44-.35-7.67 0-4.24.16-7.67.35-7.67.19 0 .35 3.43.35 7.67 0 4.23-.16 7.67-.35 7.67zm14.889 0c-.2 0-.35-3.44-.35-7.67 0-4.24.16-7.67.35-7.67.19 0 .35 3.43.35 7.67 0 4.23-.15 7.67-.35 7.67zm-4.66 0c-.2 0-.35-3.44-.35-7.67 0-4.24.16-7.67.35-7.67.2 0 .35 3.43.35 7.67.01 4.23-.15 7.67-.35 7.67zm14.9 0c-.2 0-.35-3.44-.35-7.67 0-4.24.16-7.67.35-7.67.2 0 .35 3.43.35 7.67 0 4.23-.16 7.67-.35 7.67zm-4.66 0c-.2 0-.35-3.44-.35-7.67 0-4.24.16-7.67.35-7.67.19 0 .35 3.43.35 7.67 0 4.23-.16 7.67-.35 7.67zm14.891 0c-.2 0-.35-3.44-.35-7.67 0-4.24.16-7.67.35-7.67.2 0 .35 3.43.35 7.67.01 4.23-.15 7.67-.35 7.67zm-4.66 0c-.2 0-.35-3.44-.35-7.67 0-4.24.16-7.67.35-7.67.19 0 .35 3.43.35 7.67.01 4.23-.15 7.67-.35 7.67zm14.9 0c-.2 0-.35-3.44-.35-7.67 0-4.24.16-7.67.35-7.67.19 0 .35 3.43.35 7.67 0 4.23-.16 7.67-.35 7.67zm-4.66 0c-.2 0-.35-3.44-.35-7.67 0-4.24.16-7.67.35-7.67.2 0 .35 3.43.35 7.67 0 4.23-.16 7.67-.35 7.67z" fill="#263238"/><path d="M626.66 396.77c0 .2-19.16.35-42.79.35-23.64 0-42.79-.16-42.79-.35 0-.2 19.16-.35 42.79-.35 23.63-.01 42.79.15 42.79.35z" fill="#263238"/><path d="M635.2 412.46h-85.19v15.47h85.19v-15.47z" fill="#CC2846"/><path d="M558.35 428.04c-.2 0-.35-3.44-.35-7.67 0-4.24.16-7.67.35-7.67.2 0 .35 3.43.35 7.67.01 4.23-.15 7.67-.35 7.67zm-4.65 0c-.2 0-.35-3.44-.35-7.67 0-4.24.16-7.67.35-7.67.2 0 .35 3.43.35 7.67 0 4.23-.16 7.67-.35 7.67zm14.89 0c-.2 0-.35-3.44-.35-7.67 0-4.24.16-7.67.35-7.67.2 0 .35 3.43.35 7.67 0 4.23-.15 7.67-.35 7.67zm-4.66 0c-.2 0-.35-3.44-.35-7.67 0-4.24.16-7.67.35-7.67.2 0 .35 3.43.35 7.67.01 4.23-.15 7.67-.35 7.67zm14.9 0c-.2 0-.35-3.44-.35-7.67 0-4.24.16-7.67.35-7.67.2 0 .35 3.43.35 7.67 0 4.23-.16 7.67-.35 7.67zm-4.66 0c-.2 0-.35-3.44-.35-7.67 0-4.24.16-7.67.35-7.67.2 0 .35 3.43.35 7.67 0 4.23-.16 7.67-.35 7.67zm14.889 0c-.2 0-.35-3.44-.35-7.67 0-4.24.16-7.67.35-7.67.2 0 .35 3.43.35 7.67.01 4.23-.15 7.67-.35 7.67zm-4.658 0c-.2 0-.35-3.44-.35-7.67 0-4.24.16-7.67.35-7.67.19 0 .35 3.43.35 7.67.01 4.23-.15 7.67-.35 7.67zm14.898 0c-.2 0-.35-3.44-.35-7.67 0-4.24.16-7.67.35-7.67.2 0 .35 3.43.35 7.67 0 4.23-.16 7.67-.35 7.67zm-4.66 0c-.2 0-.35-3.44-.35-7.67 0-4.24.16-7.67.35-7.67.2 0 .35 3.43.35 7.67 0 4.23-.16 7.67-.35 7.67zm14.891 0c-.2 0-.35-3.44-.35-7.67 0-4.24.16-7.67.35-7.67.2 0 .35 3.43.35 7.67.01 4.23-.15 7.67-.35 7.67zm-4.66 0c-.2 0-.35-3.44-.35-7.67 0-4.24.16-7.67.35-7.67.2 0 .35 3.43.35 7.67.01 4.23-.15 7.67-.35 7.67zm14.9 0c-.2 0-.35-3.44-.35-7.67 0-4.24.16-7.67.35-7.67.2 0 .35 3.43.35 7.67 0 4.23-.16 7.67-.35 7.67zm-4.66 0c-.2 0-.35-3.44-.35-7.67 0-4.24.16-7.67.35-7.67.2 0 .35 3.43.35 7.67 0 4.23-.16 7.67-.35 7.67zm14.89 0c-.2 0-.35-3.44-.35-7.67 0-4.24.16-7.67.35-7.67.2 0 .35 3.43.35 7.67.01 4.23-.15 7.67-.35 7.67zm-4.66 0c-.2 0-.35-3.44-.35-7.67 0-4.24.16-7.67.35-7.67.2 0 .35 3.43.35 7.67.01 4.23-.15 7.67-.35 7.67z" fill="#263238"/><path d="M635.189 412.46c0 .2-19.16.35-42.79.35-23.64 0-42.79-.16-42.79-.35 0-.2 19.16-.35 42.79-.35s42.79.15 42.79.35z" fill="#263238"/><path d="M629.86 428.11h-85.19v15.47h85.19v-15.47z" fill="#CC2846"/><path d="M553.01 443.681c-.2 0-.35-3.44-.35-7.67 0-4.24.16-7.67.35-7.67.2 0 .35 3.43.35 7.67.01 4.24-.15 7.67-.35 7.67zm-4.66 0c-.2 0-.35-3.44-.35-7.67 0-4.24.16-7.67.35-7.67.19 0 .35 3.43.35 7.67.01 4.24-.15 7.67-.35 7.67zm14.9 0c-.2 0-.35-3.44-.35-7.67 0-4.24.16-7.67.35-7.67.19 0 .35 3.43.35 7.67s-.16 7.67-.35 7.67zm-4.66 0c-.2 0-.35-3.44-.35-7.67 0-4.24.16-7.67.35-7.67.2 0 .35 3.43.35 7.67s-.15 7.67-.35 7.67zm14.889 0c-.2 0-.35-3.44-.35-7.67 0-4.24.16-7.67.35-7.67.19 0 .35 3.43.35 7.67.01 4.24-.15 7.67-.35 7.67zm-4.649 0c-.2 0-.35-3.44-.35-7.67 0-4.24.16-7.67.35-7.67.19 0 .35 3.43.35 7.67s-.16 7.67-.35 7.67zm14.889 0c-.2 0-.35-3.44-.35-7.67 0-4.24.16-7.67.35-7.67.2 0 .35 3.43.35 7.67s-.15 7.67-.35 7.67zm-4.66 0c-.2 0-.35-3.44-.35-7.67 0-4.24.16-7.67.35-7.67.19 0 .35 3.43.35 7.67.01 4.24-.15 7.67-.35 7.67zm14.9 0c-.2 0-.35-3.44-.35-7.67 0-4.24.16-7.67.35-7.67.19 0 .35 3.43.35 7.67s-.16 7.67-.35 7.67zm-4.66 0c-.2 0-.35-3.44-.35-7.67 0-4.24.16-7.67.35-7.67.2 0 .35 3.43.35 7.67s-.16 7.67-.35 7.67zm14.891 0c-.2 0-.35-3.44-.35-7.67 0-4.24.16-7.67.35-7.67.19 0 .35 3.43.35 7.67.01 4.24-.15 7.67-.35 7.67zm-4.66 0c-.2 0-.35-3.44-.35-7.67 0-4.24.16-7.67.35-7.67.2 0 .35 3.43.35 7.67.01 4.24-.15 7.67-.35 7.67zm14.9 0c-.2 0-.35-3.44-.35-7.67 0-4.24.16-7.67.35-7.67.2 0 .35 3.43.35 7.67s-.16 7.67-.35 7.67zm-4.66 0c-.2 0-.35-3.44-.35-7.67 0-4.24.16-7.67.35-7.67.19 0 .35 3.43.35 7.67s-.16 7.67-.35 7.67zm14.891 0c-.2 0-.35-3.44-.35-7.67 0-4.24.16-7.67.35-7.67.2 0 .35 3.43.35 7.67.01 4.24-.15 7.67-.35 7.67zm-4.661 0c-.2 0-.35-3.44-.35-7.67 0-4.24.16-7.67.35-7.67.19 0 .35 3.43.35 7.67.01 4.24-.15 7.67-.35 7.67z" fill="#263238"/><path d="M629.851 428.11c0 .2-19.21.35-42.89.35-23.69 0-42.9-.16-42.9-.35 0-.2 19.2-.35 42.9-.35 23.69-.01 42.89.15 42.89.35z" fill="#263238"/><path d="M623.18 443.45h-85.19v15.47h85.19v-15.47z" fill="#CC2846"/><path d="M546.34 459.03c-.2 0-.35-3.44-.35-7.67 0-4.24.16-7.67.35-7.67.2 0 .35 3.43.35 7.67 0 4.23-.16 7.67-.35 7.67zm-4.66 0c-.2 0-.35-3.44-.35-7.67 0-4.24.16-7.67.35-7.67.19 0 .35 3.43.35 7.67 0 4.23-.16 7.67-.35 7.67zm14.891 0c-.2 0-.35-3.44-.35-7.67 0-4.24.16-7.67.35-7.67.2 0 .35 3.43.35 7.67.01 4.23-.15 7.67-.35 7.67zm-4.66 0c-.2 0-.35-3.44-.35-7.67 0-4.24.16-7.67.35-7.67.19 0 .35 3.43.35 7.67.01 4.23-.15 7.67-.35 7.67zm14.9 0c-.2 0-.35-3.44-.35-7.67 0-4.24.16-7.67.35-7.67.19 0 .35 3.43.35 7.67 0 4.23-.16 7.67-.35 7.67zm-4.66 0c-.2 0-.35-3.44-.35-7.67 0-4.24.16-7.67.35-7.67.2 0 .35 3.43.35 7.67 0 4.23-.16 7.67-.35 7.67zm14.888 0c-.2 0-.35-3.44-.35-7.67 0-4.24.16-7.67.35-7.67.19 0 .35 3.43.35 7.67.01 4.23-.15 7.67-.35 7.67zm-4.658 0c-.2 0-.35-3.44-.35-7.67 0-4.24.16-7.67.35-7.67.2 0 .35 3.43.35 7.67.01 4.23-.15 7.67-.35 7.67zm14.899 0c-.2 0-.35-3.44-.35-7.67 0-4.24.16-7.67.35-7.67.2 0 .35 3.43.35 7.67 0 4.23-.16 7.67-.35 7.67zm-4.66 0c-.2 0-.35-3.44-.35-7.67 0-4.24.16-7.67.35-7.67.19 0 .35 3.43.35 7.67 0 4.23-.16 7.67-.35 7.67zm14.89 0c-.2 0-.35-3.44-.35-7.67 0-4.24.16-7.67.35-7.67.19 0 .35 3.43.35 7.67.01 4.23-.15 7.67-.35 7.67zm-4.66 0c-.2 0-.35-3.44-.35-7.67 0-4.24.16-7.67.35-7.67.2 0 .35 3.43.35 7.67.01 4.23-.15 7.67-.35 7.67zm14.9 0c-.2 0-.35-3.44-.35-7.67 0-4.24.16-7.67.35-7.67.19 0 .35 3.43.35 7.67 0 4.23-.15 7.67-.35 7.67zm-4.66 0c-.2 0-.35-3.44-.35-7.67 0-4.24.16-7.67.35-7.67.19 0 .35 3.43.35 7.67 0 4.23-.15 7.67-.35 7.67zm14.901 0c-.2 0-.35-3.44-.35-7.67 0-4.24.16-7.67.35-7.67.2 0 .35 3.43.35 7.67 0 4.23-.16 7.67-.35 7.67zm-4.661 0c-.2 0-.35-3.44-.35-7.67 0-4.24.16-7.67.35-7.67.19 0 .35 3.43.35 7.67 0 4.23-.16 7.67-.35 7.67z" fill="#263238"/><path d="M623.17 443.451c0 .2-19.16.35-42.79.35-23.64 0-42.79-.16-42.79-.35 0-.2 19.16-.35 42.79-.35s42.79.16 42.79.35z" fill="#263238"/><path opacity=".3" d="M548.15 381.42c12.72 3.13 26.28 3.73 39.35 2.86 13.07-.87 26.27-2.79 39.37-2.63l-78.72-.23zm.77-15.399c12.72 3.13 26.28 3.73 39.35 2.86 13.07-.87 26.27-2.79 39.37-2.63l-78.72-.23zm4.119 30.899c12.72 3.13 26.28 3.73 39.35 2.86 13.07-.87 26.27-2.79 39.37-2.63l-78.72-.23zm-3.34 15.45c12.72 3.13 26.28 3.73 39.35 2.86 13.07-.87 26.27-2.79 39.37-2.63l-78.72-.23zm1.01 15.38c12.72 3.13 26.28 3.73 39.35 2.86 13.07-.87 26.27-2.79 39.37-2.63l-78.72-.23zm-4.158 15.681c12.72 3.13 26.28 3.73 39.35 2.86 13.07-.87 26.27-2.79 39.37-2.63l-78.72-.23z" fill="#2C3343"/><path d="M548.321 360.71c-.2 0-.35-1.9-.35-4.24 0-2.34.16-4.24.35-4.24.2 0 .35 1.9.35 4.24.01 2.35-.15 4.24-.35 4.24zm-5.371 16.531c-.2 0-.35-2.04-.35-4.55s.16-4.55.35-4.55c.19 0 .35 2.03.35 4.55.01 2.52-.15 4.55-.35 4.55zm7.65 15.909c-.2 0-.35-1.8-.35-4.03 0-2.23.16-4.03.35-4.03.2 0 .35 1.8.35 4.03 0 2.23-.16 4.03-.35 4.03zm-7.85 14.67c-.2 0-.35-1.62-.35-3.62s.16-3.62.35-3.62c.2 0 .35 1.62.35 3.62s-.16 3.62-.35 3.62zm31.19-40.7c0 .2-6.29.35-14.05.35-7.76 0-14.05-.16-14.05-.35 0-.19 6.29-.35 14.05-.35 7.76-.01 14.05.15 14.05.35zm9.1-14.879c0 .2-6.34.35-14.15.35-7.82 0-14.15-.16-14.15-.35 0-.2 6.34-.35 14.15-.35 7.81 0 14.15.16 14.15.35zm13.629.21c0 .2-2.08.35-4.65.35-2.57 0-4.65-.16-4.65-.35 0-.2 2.08-.35 4.65-.35 2.57 0 4.65.15 4.65.35zm-45.45 74.919c-.14 0-.26-2.65-.26-5.91 0-3.27.12-5.92.26-5.92s.26 2.65.26 5.92c0 3.26-.12 5.91-.26 5.91zm64.731-16.74c0 .14-15.49.26-34.6.26s-34.6-.12-34.6-.26 15.49-.26 34.6-.26 34.6.12 34.6.26zm-13.84 31.25c0 .14-12.24.26-27.34.26s-27.34-.12-27.34-.26 12.24-.26 27.34-.26 27.34.12 27.34.26zm-62.94 14.06c-.14 0-.26-1.5-.26-3.35s.12-3.35.26-3.35.26 1.5.26 3.35-.12 3.35-.26 3.35zm60.26 1.341c0 .14-12.69.26-28.35.26-15.66 0-28.35-.12-28.35-.26s12.69-.26 28.35-.26c15.66 0 28.35.12 28.35.26z" fill="#fff"/><path d="M537.989 458.92c-.01 0-.02-.09-.03-.28-.01-.22-.02-.49-.03-.82-.01-.77-.03-1.81-.06-3.13-.02-2.76-.05-6.65-.09-11.39v-.21h.21c1.86.01 3.91.03 6.08.04l-.23.23-.03-15.45v-.26h5.89l-.26.26c.01-5.61.02-10.91.02-15.69l.24.24-8.23-.03h-.2v-.2c.04-4.7.07-8.56.09-11.29.02-1.3.04-2.34.05-3.1.01-.32.02-.59.03-.81.01-.18.02-.28.03-.28.01 0 .02.09.03.28.01.22.02.48.03.81.01.76.03 1.79.05 3.1.02 2.73.05 6.59.09 11.29l-.2-.2 8.23-.03h.24v.24c.01 4.78.02 10.09.02 15.69v.26h-5.89l.26-.26-.03 15.45v.23h-.23c-2.17-.03-4.22-.06-6.08-.09l.21-.2c-.04 4.74-.07 8.63-.09 11.39-.02 1.32-.04 2.36-.05 3.13-.01.33-.02.6-.03.82-.02.17-.03.26-.04.26zm51.73-314.82c2.8-3.23 9.91-2.93 11.64-.88 2.43-1.34 5.88-.28 7.14 2.19l7.59 1.47c1.29.25 2.65.53 3.66 1.38 1.01.85 1.51 2.46.72 3.51 2.68.63 3.81 4.56 1.89 6.52 1.11 1.12.95 3.22-.33 4.15 2.14 2.45 3.86 5.27 5.06 8.29.5 1.27.91 2.68.47 3.97-.44 1.29-2.1 2.21-3.22 1.44.78 1.01.88 2.5.24 3.61 1.28 0 1.71 1.97.85 2.92s-2.28 1.08-3.56 1.08c-1.28 0-2.66-.03-3.7.72.06.38.21.63.44.8 2.24 1.73 2.93 4.79 1.34 7.13-.15.22-.28.42-.41.6-.72 1.07-2.52 2.07-3.65 2.69-2.85 1.57-4.58 1.33-7.79 1.87.93 2.06-4.2 6.79-10.3 2.41-11.88 3.5-20.47 4.92-32.85 5.25-1.77.05-3.9-.14-4.72-1.71-1.42.41-2.99-.21-4.07-1.23-1.08-1.01-1.78-2.36-2.46-3.68-3.08-.75-5.51-3.64-5.7-6.8-2.11-1.57-3.51-4.06-3.75-6.68-3-.84-4.73-4.66-3.38-7.46.55-3.66 1.72-7.23 3.43-10.51-2.04-.39-2.86-3.1-2.08-5.02.79-1.92 2.6-3.18 4.32-4.34-1.5.44-2.87-1.43-2.55-2.96.32-1.53 1.67-2.62 2.99-3.46 1.94-1.23 4.03-2.22 6.21-2.95.66-2.68 3.99-5.8 6.46-7.04 9.98-5 17.01-6.37 30.07 2.72z" fill="#263238"/><path d="M599.59 159.86c.1-2.12-1.43-3.96-3.54-4.25l-21.51-6.09c-6.92-.93-11.78 7.48-12.41 14.43-.71 7.72-1.27 17.18-.52 22.98 1.51 11.66 11.89 13.29 11.89 13.29l-.18 8.42 4.51 20.39c3.31-.47 19.76-21.21 19.76-21.21l2-47.96z" fill="#FFBF9D"/><path d="M573.63 181.4c.01-.09-.98-.29-2.59-.54-.41-.05-.79-.15-.85-.43-.09-.3.1-.73.31-1.2.41-.98.84-2 1.3-3.08 1.81-4.39 3.13-8 2.95-8.07-.18-.07-1.79 3.43-3.59 7.81-.44 1.08-.85 2.11-1.25 3.1-.17.46-.45.98-.26 1.6.1.31.4.54.66.62.26.09.49.1.69.12 1.62.13 2.63.16 2.63.07z" fill="#263238"/><path d="M573.51 200.23s6.28.82 14.14-3.61c0 0-2.12 8.59-14.23 7.62l.09-4.01z" fill="#D44763"/><path d="M578.85 163.45c.15.44 1.75.28 3.62.56 1.88.24 3.38.84 3.64.45.12-.18-.14-.6-.74-1.04-.6-.44-1.55-.87-2.68-1.02-1.12-.16-2.16-.01-2.85.25s-1.05.59-.99.8zm-14.081-.011c.27.37 1.39.03 2.71.05 1.33-.03 2.44.31 2.71-.06.12-.18-.05-.55-.53-.91-.47-.36-1.28-.66-2.19-.66-.91 0-1.71.31-2.18.67-.48.36-.64.73-.52.91z" fill="#263238"/><path d="M557.01 169.62c.08-1.82.62-3.68 1.84-5.03.67-.74 1.53-1.31 2.12-2.11 1.28-1.74 1.05-4.11 1.58-6.21.67-2.7 2.73-5.01 5.33-5.98 2.16-.81 4.63-.75 6.66-1.86 1.5-.83 2.62-2.23 4.17-2.97 3-1.43 6.54.06 9.43 1.72.6 2.26-.8 4.25-2.16 6.16-1.35 1.91-3.58 3.17-5.92 3.35-1.81.14-3.93-.24-5.19 1.08-1.32 1.38-.76 3.77-1.84 5.35-1.54 2.25-5.14 1.46-7.47 2.88-1.8 1.09-2.53 3.28-3.42 5.2-.89 1.91-2.44 3.92-4.54 3.85-.33-1.81-.67-3.62-.59-5.43z" fill="#263238"/><path d="M583.67 151.38c5.29-.17 10.62.71 15.58 2.55 1.48.55 3.01 1.26 3.87 2.58.76 1.16.87 2.62.87 4.01.02 4.35-1.65 9.69-3.24 13.74l-5.38 3.34c-4.2-.92-2.39-8.17-2.25-11.79-2.94-1.23-5.02-4.28-5.11-7.46-2.39-1.49-4.05-4.15-4.34-6.97z" fill="#263238"/><path d="M595.439 176.04c.12-2.49 3.17-3.02 5.33-1.77 1.18.68 2.09 2.06 1.98 4.7-.29 7.04-7.3 5.3-7.31 5.1 0-.13-.14-5.12 0-8.03z" fill="#FFBF9D"/><path d="M597.699 181.48c.03-.02.12.09.32.19s.54.18.92.06c.76-.24 1.43-1.4 1.52-2.67a4.05 4.05 0 00-.27-1.77c-.19-.52-.51-.9-.88-.98-.37-.1-.64.11-.74.31-.1.19-.06.34-.1.35-.02.02-.15-.12-.08-.41.03-.14.12-.3.3-.43.17-.13.43-.19.69-.15.54.06 1.01.58 1.24 1.14.26.57.39 1.26.34 1.98-.1 1.42-.88 2.72-1.92 2.97-.5.11-.91-.06-1.11-.23-.22-.19-.25-.35-.23-.36z" fill="#D44763"/><path d="M598.529 184.429s0 .03.02.09.03.16.1.27c.1.23.39.51.83.72.44.21 1.04.33 1.75.33.35.01.73-.02 1.13-.09.4-.07.82-.18 1.23-.39l-.09-.04c.17.96.82 1.98 1.9 2.52 1.07.55 2.58.48 3.71-.39l-.12-.02c.21.31.56.53.93.6.38.08.77.03 1.14-.11.36-.14.7-.41.91-.76.21-.35.32-.75.34-1.16.04-.83-.28-1.66-.8-2.33-.52-.68-1.2-1.23-1.88-1.78l-.01.16c.59-.36.97-1 1.09-1.69.13-.68.05-1.41-.23-2.07-.29-.66-.74-1.23-1.26-1.74s-1.1-.95-1.69-1.38l.01.16c.51-.53.72-1.31.66-2.05-.06-.75-.35-1.48-.83-2.08-.92-1.14-2.25-1.76-3.47-2.34l.06.12c.35-1.55-.13-3.2-1.18-4.29-1.05-1.09-2.59-1.59-3.99-1.4l.11.12c.26-1.27-.23-2.53-1.01-3.41-.78-.89-1.89-1.44-3-1.41l.09.09c-.02-1.29-.76-2.38-1.65-3.04-.89-.67-1.99-.94-2.95-.77l.08.07c-.03-.68-.3-1.29-.6-1.8-.31-.51-.68-.94-1.09-1.27-.79-.69-1.7-.96-2.42-1-.09 0-.18-.01-.26-.01-.09 0-.17.02-.25.02-.16.02-.31.02-.44.06-.27.08-.5.11-.67.2-.16.07-.29.13-.39.17-.09.04-.13.06-.13.06s.05-.01.14-.05c.1-.04.23-.09.39-.16.17-.08.4-.11.67-.18.13-.03.28-.03.44-.05.08-.01.16-.02.24-.02.08.01.17.01.26.02.7.05 1.59.32 2.36 1.01.39.33.75.75 1.05 1.26.29.5.54 1.09.57 1.73v.08l.08-.01c.92-.16 1.98.1 2.83.76.85.64 1.55 1.7 1.57 2.92v.09h.09c1.05-.02 2.11.51 2.85 1.36.74.84 1.2 2.05.95 3.24l-.03.14.14-.02c1.34-.18 2.82.31 3.81 1.35.99 1.03 1.46 2.62 1.12 4.1l-.02.08.08.04c1.22.58 2.51 1.2 3.39 2.28.45.56.73 1.26.78 1.96.06.7-.14 1.41-.6 1.89l-.08.09.1.07c1.16.86 2.33 1.77 2.88 3.03.27.62.34 1.31.22 1.95-.12.64-.46 1.23-.99 1.55l-.12.07.11.09c.68.54 1.35 1.08 1.85 1.74.51.65.8 1.43.77 2.21-.02.77-.43 1.52-1.13 1.77-.66.27-1.49.15-1.87-.42l-.05-.07-.07.06c-1.06.83-2.51.91-3.54.39a3.432 3.432 0 01-1.85-2.42l-.01-.08-.07.04c-.39.21-.8.32-1.19.39-.39.07-.76.11-1.11.1-.69 0-1.29-.11-1.72-.3-.44-.19-.72-.45-.83-.68-.1-.21-.12-.35-.14-.34zm26.691-7.969s.11-.13.26-.43c.14-.3.32-.76.35-1.4.03-.63-.09-1.44-.61-2.2a3.71 3.71 0 00-2.58-1.58l.06.08c.21-1.08.01-2.36-.69-3.46a4.68 4.68 0 00-1.4-1.44c-.58-.4-1.28-.59-1.94-.88a4.07 4.07 0 01-.93-.53c-.28-.23-.5-.52-.66-.86-.32-.67-.44-1.47-.84-2.19-.81-1.42-2.57-2.35-4.32-2.06l.12.12c.2-1.61-.34-3.38-1.55-4.63a5.716 5.716 0 00-4.8-1.66l.12.11c.17-2.07-1.02-4.04-2.71-4.87-1.7-.84-3.71-.58-5.07.37l.11.01c-.74-.71-1.62-1.16-2.48-1.46-.87-.3-1.72-.48-2.53-.54-1.62-.16-3.05.06-4.17.35-1.12.31-1.95.72-2.46 1.07-.27.16-.44.33-.57.43-.12.1-.18.16-.18.16.01.02.26-.21.78-.54.52-.33 1.34-.72 2.46-1.02 1.11-.28 2.53-.48 4.13-.31.8.06 1.64.25 2.49.55.84.3 1.71.75 2.41 1.43l.05.05.06-.04c1.31-.91 3.25-1.15 4.87-.34 1.62.8 2.76 2.71 2.59 4.68l-.01.13.13-.02c1.62-.22 3.41.35 4.62 1.6 1.16 1.2 1.69 2.91 1.49 4.45l-.02.14.14-.02c1.65-.28 3.34.61 4.11 1.95.39.67.5 1.46.84 2.17.17.35.41.68.71.92s.64.41.98.56c.67.28 1.36.48 1.92.85.56.37 1.02.85 1.36 1.38.69 1.06.89 2.3.69 3.35l-.01.07.07.01c1.12.14 2 .79 2.5 1.5.51.73.65 1.52.63 2.13-.02.62-.18 1.09-.31 1.39-.12.32-.22.46-.21.47zm-67.281 3.02c-.01.01.14-.19.02-.58-.06-.18-.2-.39-.42-.58-.22-.19-.53-.32-.88-.42-.35-.11-.75-.2-1.11-.44-.36-.24-.65-.64-.81-1.12-.17-.48-.23-1.03-.2-1.61.02-.58.1-1.2.09-1.86-.01-1.34-.6-2.68-.96-4.15-.18-.73-.26-1.52-.13-2.31.13-.78.52-1.57 1.24-2 .71-.45 1.59-.6 2.45-.88.43-.14.87-.32 1.25-.61.39-.28.67-.7.87-1.13.4-.88.49-1.85.69-2.78.1-.47.23-.93.47-1.34.23-.41.59-.74 1.02-.93.6-.24 1.28-.22 1.94-.3.33-.04.67-.11.98-.26.31-.15.58-.39.77-.67.38-.57.51-1.22.71-1.81.18-.6.47-1.14.86-1.6.78-.92 1.91-1.48 3.04-1.52 1.13-.05 2.22.35 3.01 1.03l.09.08.05-.12c.84-1.93 2.51-3.18 4.12-3.68.81-.25 1.62-.31 2.35-.24.73.06 1.39.24 1.94.51 1.11.53 1.74 1.31 2.09 1.86.18.27.29.5.36.66.04.07.06.13.09.17l.03.06s0-.02-.02-.06c-.02-.05-.04-.11-.07-.18-.06-.16-.16-.39-.34-.67-.33-.56-.96-1.37-2.09-1.92-.56-.27-1.23-.47-1.98-.54-.75-.07-1.57-.02-2.4.23-1.65.49-3.37 1.77-4.24 3.75l.14-.03a4.583 4.583 0 00-3.13-1.09c-1.18.04-2.38.62-3.19 1.58-.41.48-.72 1.06-.9 1.67-.2.6-.33 1.24-.68 1.75-.34.53-.96.78-1.6.84-.64.08-1.33.05-2 .31-.48.21-.88.57-1.13 1.02-.25.44-.39.93-.49 1.4-.21.95-.3 1.91-.68 2.74-.19.41-.45.79-.81 1.05-.35.27-.77.44-1.19.58-.84.28-1.74.42-2.5.91-.37.24-.7.56-.91.94-.22.38-.35.79-.42 1.2-.13.82-.04 1.64.15 2.39.38 1.49.97 2.81.99 4.11.02.64-.06 1.26-.07 1.85-.02.59.04 1.16.23 1.65.18.5.48.91.87 1.16.39.25.79.33 1.14.44.35.1.65.21.86.39.21.17.35.37.42.54.14.36 0 .57.02.56z" fill="#C2C2C2"/><path d="M544.1 168.81s.03-.04.07-.13c.05-.1.11-.23.19-.4.17-.36.4-.88.7-1.54.31-.67.65-1.5 1.15-2.41.5-.9 1.18-1.92 2.31-2.57.56-.32 1.22-.53 1.87-.84.33-.15.66-.33.95-.58.3-.24.55-.56.7-.93.32-.74.32-1.56.57-2.32.13-.38.34-.73.66-.97.32-.25.72-.4 1.12-.54.41-.14.84-.27 1.24-.5.41-.22.74-.59.95-1.01.41-.86.4-1.83.56-2.74.08-.46.19-.92.45-1.3.24-.39.65-.65 1.1-.75.92-.21 1.92.1 2.95-.08.51-.09.99-.37 1.34-.74.35-.37.61-.8.86-1.23.24-.42.47-.85.75-1.23.27-.38.61-.71 1.02-.9.83-.4 1.79-.21 2.66-.02.88.19 1.79.39 2.68.19.88-.19 1.62-.65 2.31-1.1.69-.44 1.34-.91 2.05-1.18 1.43-.54 2.92-.49 4.17-.2 1.27.29 2.32.89 3.12 1.54.81.65 1.33 1.39 1.74 1.99.37.63.63 1.14.76 1.5.07.17.13.3.17.4.04.09.06.14.06.14s-.01-.05-.04-.14c-.04-.1-.09-.24-.15-.41-.12-.37-.36-.89-.73-1.53-.4-.62-.92-1.37-1.74-2.04a7.85 7.85 0 00-3.16-1.6c-1.28-.3-2.79-.36-4.27.19-.74.28-1.4.75-2.09 1.19-.69.44-1.42.89-2.25 1.06-.83.19-1.71 0-2.59-.2-.44-.09-.9-.19-1.37-.22-.47-.03-.97.03-1.42.25-.45.21-.81.57-1.1.97-.29.4-.52.83-.77 1.25-.24.42-.5.84-.83 1.18-.33.35-.75.59-1.23.68-.96.17-1.96-.13-2.96.08-.5.11-.96.41-1.23.84-.28.43-.4.91-.48 1.38-.16.94-.15 1.89-.53 2.69-.19.39-.48.72-.86.93-.37.21-.79.34-1.2.49-.41.14-.83.3-1.18.58-.36.27-.59.67-.72 1.06-.26.8-.25 1.62-.56 2.31-.28.7-.93 1.13-1.56 1.43-.64.3-1.3.52-1.88.86-1.17.67-1.86 1.73-2.35 2.64-.49.93-.82 1.76-1.12 2.43-.28.67-.51 1.19-.66 1.55-.07.17-.13.31-.17.41-.01.09-.03.14-.03.14z" fill="#C2C2C2"/><path d="M551.47 161.32s-.04-.01-.13-.02c-.08 0-.22.01-.37.09-.3.15-.64.61-.68 1.26-.01.33.07.68.17 1.05.09.37.22.78.2 1.22-.01.44-.21.88-.47 1.31-.27.43-.61.85-.88 1.36-.28.5-.41 1.18-.15 1.77.23.6.68 1.09.9 1.7.23.61.11 1.3-.16 1.94-.26.65-.64 1.28-.9 2-.13.36-.22.75-.21 1.15.01.4.11.8.29 1.16.35.73.9 1.33 1.37 1.98.47.64.87 1.4.78 2.22-.08.81-.52 1.57-.81 2.39-.15.41-.25.85-.24 1.3.01.45.15.88.35 1.26.41.77 1.02 1.36 1.55 1.97.54.6 1.02 1.23 1.26 1.97.26.73.41 1.49.77 2.18.18.34.42.65.73.88.31.23.66.36 1 .46.34.11.68.19.98.33.3.14.58.32.82.54.48.44.85.97 1.18 1.49.33.52.64 1.03.99 1.49.68.93 1.61 1.51 2.48 1.76.87.27 1.67.28 2.3.18.63-.1 1.1-.28 1.4-.43.3-.16.44-.26.44-.26-.01-.04-.59.44-1.84.61-.62.08-1.41.06-2.25-.21-.85-.26-1.74-.83-2.4-1.74-.33-.45-.64-.96-.97-1.48-.33-.52-.7-1.07-1.2-1.53-.25-.23-.55-.42-.87-.57-.32-.15-.67-.24-1-.34-.33-.11-.67-.23-.94-.44-.28-.21-.5-.49-.67-.82-.34-.65-.48-1.41-.75-2.16-.25-.77-.76-1.44-1.3-2.04-.54-.61-1.13-1.2-1.52-1.93-.19-.36-.31-.76-.33-1.17-.01-.41.09-.82.23-1.22.28-.8.74-1.56.82-2.44.05-.44-.03-.88-.19-1.27-.16-.4-.39-.75-.63-1.09-.48-.66-1.02-1.26-1.36-1.95-.16-.34-.26-.71-.27-1.08-.01-.37.07-.73.19-1.08.24-.69.62-1.32.89-1.99.28-.65.41-1.41.15-2.07-.25-.65-.69-1.14-.91-1.7-.25-.55-.14-1.16.13-1.64.26-.49.59-.92.86-1.36.27-.44.47-.91.48-1.38.01-.47-.12-.88-.22-1.25s-.19-.71-.18-1.02c.02-.62.34-1.07.62-1.22.28-.17.48-.1.47-.12z" fill="#C2C2C2"/><path d="M625.039 176.229s.19.01.56-.06c.36-.08.9-.24 1.47-.66a3.76 3.76 0 001.45-2.1c.26-.98.15-2.25-.63-3.31-.39-.52-.91-.96-1.43-1.42-.51-.46-1.06-.97-1.34-1.65-.29-.68-.19-1.49.07-2.24.26-.76.66-1.5.9-2.34a7.03 7.03 0 00-.62-5.33 6.999 6.999 0 00-4.71-3.38l.07.16c.32-.45.52-.99.59-1.55.06-.56.02-1.13-.13-1.67s-.39-1.07-.73-1.54a6.08 6.08 0 00-1.21-1.22c-1.39-1.04-3.06-1.52-4.66-1.8-1.61-.28-3.22-.31-4.74-.13l.11.1c-.09-1.89-1.3-3.59-2.89-4.29-.79-.36-1.66-.5-2.48-.44-.84.05-1.59.39-2.3.64-.36.13-.72.23-1.08.27-.36.04-.72 0-1.06-.1-.68-.19-1.29-.55-1.88-.88-.59-.33-1.18-.63-1.79-.79a6.18 6.18 0 00-1.78-.21c-1.15.03-2.15.38-2.91.84-.77.46-1.31 1.02-1.69 1.51-.38.49-.59.93-.72 1.22-.13.3-.17.46-.17.46.01 0 .06-.16.2-.45a6.15 6.15 0 012.43-2.66c.75-.45 1.74-.78 2.86-.8.56-.01 1.15.05 1.74.22.59.16 1.17.45 1.75.78.59.33 1.19.7 1.91.9.36.1.74.15 1.12.11.38-.03.76-.14 1.12-.27.73-.26 1.45-.58 2.26-.63a5 5 0 012.39.43c1.53.67 2.69 2.31 2.77 4.12v.11l.11-.01c1.5-.17 3.09-.14 4.68.14 1.58.28 3.22.76 4.57 1.76.45.33.85.73 1.17 1.17.32.44.55.95.7 1.47.14.52.19 1.07.13 1.59-.07.52-.25 1.03-.55 1.45l-.09.13.16.03c1.97.38 3.66 1.66 4.58 3.28.93 1.63 1.08 3.55.62 5.18-.23.81-.63 1.56-.89 2.34-.27.76-.38 1.63-.06 2.36.3.73.88 1.24 1.39 1.7.53.46 1.04.89 1.42 1.39.76 1.01.87 2.25.63 3.21-.24.97-.84 1.65-1.39 2.06-.56.42-1.08.59-1.44.68-.37.1-.56.11-.56.12zM548.92 156.52s.01-.05.02-.13c.01-.1.02-.23.03-.4.03-.36.07-.87.12-1.52.06-.66.14-1.47.3-2.39.17-.92.41-1.97.88-3.05.47-1.08 1.17-2.19 2.19-3.12.51-.46 1.12-.85 1.79-1.14.68-.28 1.42-.45 2.18-.67.76-.2 1.54-.51 2.2-1.02.67-.5 1.23-1.14 1.77-1.81.54-.67 1.04-1.37 1.64-2.01.59-.64 1.29-1.2 2.09-1.59 1.6-.81 3.38-1.07 5.07-1.16 1.7-.08 3.34-.04 4.9.12 3.11.3 5.85 1.11 7.99 2.1 2.15.99 3.68 2.19 4.64 3.08.24.23.46.43.63.61.17.19.31.35.43.48.11.12.2.22.27.29.06.06.09.1.1.09 0 0-.02-.04-.08-.11-.06-.08-.15-.18-.25-.31-.12-.14-.26-.3-.42-.49-.17-.19-.39-.39-.62-.63-.95-.92-2.48-2.14-4.64-3.16-2.15-1.01-4.9-1.84-8.04-2.16-1.56-.17-3.22-.21-4.93-.14-1.7.09-3.51.35-5.15 1.18-.82.41-1.55.98-2.15 1.64-.61.65-1.12 1.36-1.65 2.02-.53.67-1.08 1.29-1.72 1.78-.64.49-1.38.79-2.14.99-.75.22-1.5.39-2.2.68-.69.3-1.31.71-1.83 1.18-1.05.95-1.75 2.1-2.21 3.19-.47 1.1-.71 2.16-.86 3.09-.15.93-.22 1.74-.27 2.41-.04.66-.06 1.18-.08 1.53 0 .17-.01.3-.01.4 0 .11 0 .15.01.15z" fill="#263238"/><path d="M602.669 183.21s.43.12 1.06.59c.62.46 1.44 1.38 1.75 2.78.16.69.18 1.49-.02 2.31-.21.81-.62 1.63-1.25 2.34-.62.71-1.45 1.31-2.42 1.65-.97.35-2.08.4-3.14.12-1.05-.28-2.01-.84-2.71-1.59a5.167 5.167 0 01-1.32-2.61c-.33-1.88.33-3.63 1.31-4.65.5-.52 1.07-.83 1.58-1.06.51-.23.99-.34 1.38-.38.39-.05.7-.02.91.02.2.04.3.08.3.09 0 .03-.43-.13-1.19 0-.38.06-.84.19-1.34.42-.49.23-1.04.55-1.51 1.05-.92 1-1.54 2.69-1.2 4.48.17.89.59 1.77 1.27 2.48.67.71 1.58 1.25 2.59 1.51 1.01.27 2.06.22 2.98-.11.93-.32 1.72-.89 2.32-1.56.61-.67 1.01-1.45 1.22-2.23.2-.78.19-1.55.05-2.21a4.724 4.724 0 00-1.63-2.74c-.59-.52-1-.67-.99-.7z" fill="#E0E0E0"/><path d="M579.69 173.49c-.05.81.59 1.51 1.43 1.58.84.07 1.56-.53 1.61-1.34.05-.81-.59-1.51-1.43-1.58-.84-.06-1.56.54-1.61 1.34zm-14.49 0c-.05.81.59 1.51 1.43 1.58.84.07 1.56-.53 1.61-1.34.05-.81-.59-1.51-1.43-1.58-.84-.06-1.56.54-1.61 1.34zm-1.24-4.421c.18.27 1.55-.7 3.34-.53 1.79.14 2.98 1.33 3.21 1.09.11-.1-.05-.58-.57-1.11a4.128 4.128 0 00-2.53-1.19c-1.11-.09-2.1.3-2.69.73-.62.45-.85.89-.76 1.01zm15.45.821c.22.25 1.57-.84 3.48-.85 1.91-.04 3.32 1 3.52.74.1-.11-.12-.56-.74-1.03-.6-.47-1.63-.92-2.82-.9-1.19.02-2.19.5-2.76.99-.59.49-.79.94-.68 1.05z" fill="#263238"/><path d="M580.398 184.51c-.08-.58-.4-1.09-.81-1.45-.82-.71-2.03-.77-2.91-.17-.88.61-1.39 1.85-1.22 3.01.49.68 1.25 1.14 2.09 1.21.13.01.26.02.39.01.64-.02 1.28-.23 1.77-.7.48-.45.78-1.19.69-1.91z" fill="#D44763"/><path d="M579.479 181.66c-.25 0-.16 1.66-1.52 2.92s-3.14 1.17-3.14 1.41c-.02.11.41.3 1.16.28.74-.02 1.8-.31 2.63-1.08.83-.77 1.15-1.76 1.17-2.45.02-.69-.19-1.1-.3-1.08z" fill="#263238"/><path d="M524.639 419.659l10.16 24.65 18.35-7.58-10.3-30.41-18.21 13.34z" fill="#FFBF9D"/><path d="M532.76 442.599l6 12.7s-17.4 16.56-16 20.49l40.01-17.18-9.74-25.38-20.27 9.37z" fill="#C2C2C2"/><path d="M550.389 448.26c.87-.12 1.77.52 1.93 1.38.16.86-.49 1.79-1.35 1.93-.86.14-1.98-.6-2.04-1.47-.06-.87.76-1.92 1.63-1.85" fill="#E0E0E0"/><path opacity=".6" d="M562.779 458.61l-1.5-3.19-37.8 17.67s-1.45 1.54-.71 2.71l40.01-17.19z" fill="#fff"/><path d="M538.029 455.38c.09.19 1.11-.14 2.34.08 1.24.18 2.1.82 2.24.66.16-.12-.63-1.16-2.12-1.39-1.5-.25-2.58.49-2.46.65zm-3.46 3.539c.04.21 1.03.18 2.04.72 1.03.51 1.59 1.33 1.78 1.24.2-.05-.16-1.25-1.44-1.9-1.27-.66-2.45-.25-2.38-.06zm-.22 6.05c.2-.03.05-1.13-.91-1.98-.96-.86-2.06-.89-2.07-.69-.04.21.8.53 1.58 1.24.78.69 1.19 1.49 1.4 1.43zm1.999-14.45c.16.14.94-.51 2.08-.91 1.13-.42 2.15-.42 2.18-.63.05-.19-1.1-.55-2.43-.06-1.34.47-1.99 1.48-1.83 1.6zm-13.139-17.759l-24.66-76.72s1.18-12.53 3.66-16.4c2.48-3.87 73.51-24.1 73.51-24.1s18.03-3.56 29.75 1.23c11.72 4.79 23.59 10.6 22.06 18.89-.22 1.18-.59 2.43-1.07 3.71-4.47 11.91-16.15 19.56-28.87 19.41l-9.3.65-47.61 7.06c-2.13.32-3.52 2.4-2.98 4.49l13.15 51.47c-.01-.01-17.01 7.43-27.64 10.31z" fill="#263238"/><path d="M500.84 379.49l-1.77 26.6 19.81 1.3 4.19-31.83-22.23 3.93z" fill="#FFBF9D"/><path d="M499.219 402.54l-1.45 15.17s-22.93 7.18-23.4 11.32l43.49 2.25 2.46-27.08-21.1-1.66z" fill="#C2C2C2"/><path d="M497.919 409.13c-.03 0-.05-.28.06-.78.11-.49.37-1.2.96-1.94.15-.18.3-.38.55-.55.23-.17.62-.3.99-.16.18.06.36.22.42.41.06.19.02.38-.04.53-.13.31-.33.52-.49.78-.36.5-.66 1-1.12 1.56-.23.29-.74.51-1.18.42-.44-.07-.79-.28-1.11-.49-.61-.43-1.14-.92-1.6-1.43-.23-.26-.43-.52-.62-.79-.18-.26-.39-.53-.45-.89-.07-.35.09-.79.54-.93.45-.12.8.09 1.04.26.48.39.77.79 1.06 1.17.55.76.84 1.45 1 1.93.16.48.19.76.16.77-.09.03-.34-1.08-1.46-2.51-.28-.34-.63-.75-1.02-1.05-.2-.14-.46-.24-.62-.17-.17.05-.27.26-.22.48.04.22.22.47.4.72.18.25.38.5.6.74.44.48.94.94 1.52 1.35.28.2.58.36.87.4.29.04.52-.05.72-.26.38-.46.75-1.02 1.11-1.49.17-.25.37-.48.47-.69.1-.22.05-.36-.12-.43-.39-.16-.79.22-1.08.55-1.2 1.34-1.24 2.52-1.34 2.49z" fill="#263238"/><path d="M511.32 416.52c.83.27 1.36 1.25 1.12 2.09-.24.84-1.23 1.39-2.06 1.13-.83-.26-1.51-1.41-1.18-2.22.33-.81 1.53-1.39 2.28-.94" fill="#E0E0E0"/><path opacity=".6" d="M517.859 431.27l.06-3.53-41.72-.83s-1.98.74-1.83 2.12l43.49 2.24z" fill="#fff"/><path d="M497.079 417.45c0 .21 1.05.36 2.06 1.1 1.03.71 1.52 1.66 1.72 1.58.2-.03-.05-1.32-1.29-2.19-1.23-.87-2.53-.69-2.49-.49zm-4.66 1.65c-.06.2.84.61 1.52 1.55.7.92.83 1.9 1.05 1.9.2.04.41-1.19-.45-2.34-.86-1.16-2.11-1.31-2.12-1.11zm-2.87 5.33c.19.06.54-.99.06-2.18-.48-1.19-1.45-1.71-1.55-1.53-.13.17.48.83.87 1.81.39.97.41 1.86.62 1.9zm8.18-12.09c.08.2 1.07-.04 2.26.1 1.2.12 2.11.57 2.23.39.13-.15-.74-.98-2.15-1.13-1.41-.15-2.44.47-2.34.64zm17.761-106.29s-11.84-1.44-13.7 11.39c-1.86 12.84-10.54 72.32-10.54 72.32l32.56 4.08 6.85-61.3 45.07-17s-52.24-10.82-60.24-9.49z" fill="#263238"/><path d="M565.179 290.68s-8.05 19.92-6.77 22.23c1.28 2.31 19.44 12.35 19.44 12.35l45.65 19.74s5.08-7.38 5.56-19.03c.48-11.64-14.79-33.26-14.79-33.26l-49.09-2.03z" fill="#263238"/><path d="M577.959 314.6c0 .01-.07.04-.22.11-.17.07-.39.16-.67.28-.62.25-1.5.59-2.62 1.04-2.32.9-5.65 2.19-9.82 3.8-8.42 3.22-20.23 7.73-33.89 12.95l.16-.21c-.67 6.05-1.4 12.59-2.15 19.36-1.79 15.81-3.43 30.4-4.74 41.93l-.02.21-.21-.03c-8.41-1.09-15.32-1.99-20.15-2.61-2.38-.32-4.24-.57-5.55-.75-.61-.09-1.09-.16-1.45-.21-.33-.05-.49-.08-.49-.09 0-.01.17 0 .5.03.36.04.84.09 1.46.15 1.31.15 3.18.37 5.56.64 4.84.58 11.75 1.42 20.17 2.44l-.23.18c1.27-11.54 2.89-26.13 4.63-41.94.76-6.76 1.49-13.3 2.17-19.36l.02-.15.14-.05c13.69-5.15 25.52-9.6 33.96-12.78 4.19-1.56 7.54-2.8 9.87-3.67 1.13-.41 2.02-.73 2.65-.96.28-.1.51-.18.69-.24.15-.05.23-.08.23-.07zm36.82 3.55c-.01.03-.47-.12-1.29-.41-.91-.34-2.07-.76-3.45-1.27-2.91-1.06-6.94-2.53-11.57-3.44-4.62-.91-8.94-.87-11.97-.34-3.05.5-4.82 1.29-4.85 1.19-.01-.03.42-.25 1.23-.56.81-.32 2.02-.69 3.56-.99 3.06-.63 7.46-.73 12.14.19 4.68.92 8.72 2.46 11.6 3.61 1.44.58 2.6 1.07 3.39 1.43.79.35 1.22.56 1.21.59z" fill="#C2C2C2"/><path d="M608.66 307.23c-.02.08-1.54-.28-4.06-.19-1.25.04-2.75.17-4.41.29-1.66.13-3.48.28-5.38.55-3.8.51-7.1 1.69-9.23 3-2.15 1.28-3.19 2.48-3.26 2.41-.02-.02.21-.34.71-.84.5-.5 1.28-1.19 2.36-1.88 2.13-1.41 5.5-2.68 9.35-3.2 1.92-.28 3.75-.41 5.42-.52 1.67-.1 3.17-.19 4.44-.18 1.27.01 2.3.12 3 .26.7.13 1.07.27 1.06.3z" fill="#C2C2C2"/><path d="M535.3 447.98c-.03.01-.18-.26-.33-.8-.14-.54-.26-1.37-.09-2.37.05-.25.09-.51.22-.79.12-.28.41-.57.81-.6.19-.02.43.06.57.22.15.16.2.37.22.55.03.37-.04.67-.06.99-.08.66-.11 1.3-.24 2.06-.07.39-.41.84-.85.95-.43.13-.84.08-1.23 0-.76-.16-1.47-.41-2.13-.73-.33-.16-.64-.33-.94-.51-.29-.19-.6-.36-.84-.69-.23-.32-.3-.84.03-1.17.34-.32.76-.27 1.05-.21.62.18 1.07.45 1.52.7a8.5 8.5 0 011.84 1.49c.38.41.54.68.51.7-.07.07-.83-.93-2.53-1.86-.42-.22-.93-.48-1.42-.6-.25-.05-.52-.03-.64.1-.13.12-.11.39.04.58.15.21.42.37.71.55.28.17.58.33.9.48.63.29 1.31.52 2.02.68.34.07.69.1.97.02s.44-.28.51-.58c.12-.63.17-1.36.26-1.99.03-.32.1-.65.08-.9-.02-.26-.13-.39-.31-.38-.43.01-.6.58-.69 1.03-.4 1.87.15 3.07.04 3.08z" fill="#263238"/><path d="M568.049 210.351s-12.1 3.27-14.37 12.4c-3.58 14.43-14.55 57.01-14.55 57.01l-11.57 9.36 7.38 12.23s12.89-4.24 18.28-11.17c5.39-6.93 10.88-32.81 10.88-32.81l3.95-47.02z" fill="#C2C2C2"/><path d="M615.87 222.16s.13-7.46-.6-8.34L600 208.49l-11 3.29c-2.58 1.13-7.53 8.49-10.32 8.11-3.12-.43-3.71-8.63-4.99-10.99l-5.63 1.45s-9.65 25.61-9.77 32.86c-.12 7.25 3.69 17.02 3.06 32.22-.33 7.95-1.1 15.04 3.84 15.25 4.94.21 49.1 2.04 49.1 2.04s11.22-2.61 11.97-9.25c.75-6.64-10.39-61.31-10.39-61.31z" fill="#C2C2C2"/><path d="M637.769 273l-7.69-24.34s-4.63-30.89-15.38-35.17c-4.6-1.83-14.66-1.51-17.72 4.73-3.05 6.25.71 10.8 1.45 13.89s11.15 24.73 11.15 24.73c3.86 8.16 5.11 12.18 5.11 12.18l-41.55 22 5.24 13.7 51.95-18.9c3.52-1.28 6.34-4.1 7.35-7.7.43-1.56.57-3.3.09-5.12z" fill="#C2C2C2"/><path d="M541.02 299.581l10.69-4.58 20.52-.77 1.72-1.09 4.43 11.58s-5.47 2.34-8.29 2.45l-17.18-1.24-9.03.57-2.86-6.92z" fill="#FFBF9D"/><path d="M483.729 256.76l58.94 2.93c1.91.08 3.7 1.07 3.91 2.98l4.66 43.24 30.37 1.26c.98.04 1.74.87 1.7 1.84-.04.98-.87 1.74-1.84 1.7l-29.84-1.24-5.66-.24-61.5-2.55-4.75-45.63c-.25-2.36 1.65-4.39 4.01-4.29z" fill="#E0E0E0"/><path d="M483.729 256.761s-.32-.05-.93.05c-.6.11-1.54.44-2.31 1.4-.39.47-.69 1.11-.81 1.85-.13.76.06 1.57.12 2.43.17 1.75.38 3.76.6 6.02.92 9.06 2.26 22.13 3.89 38.19l.02.16.16.01c25.1 1.06 58.09 2.44 94.11 3.96.85.04 1.69.07 2.53.11.39.03.93.03 1.35-.2.43-.21.77-.59.95-1.03.39-.89.01-2-.81-2.49-.39-.26-.93-.3-1.32-.3l-1.25-.05c-3.32-.14-6.61-.27-9.86-.41-6.49-.27-12.81-.53-18.91-.78l.22.2c-1.68-15.49-3.25-29.93-4.66-42.9-.03-.82-.37-1.72-1-2.29-.62-.59-1.41-.93-2.21-1.09-.82-.16-1.6-.12-2.37-.18-.78-.04-1.55-.07-2.31-.11-3.06-.15-6.02-.29-8.87-.43-5.71-.27-10.98-.53-15.77-.75-9.57-.45-17.2-.8-22.46-1.05-2.61-.11-4.63-.2-6.01-.26-.67-.02-1.19-.04-1.55-.06h-.54s.18.02.53.05c.36.02.88.05 1.55.1 1.38.08 3.4.19 6 .34 5.25.28 12.88.68 22.45 1.18 4.79.25 10.07.52 15.77.81 2.85.15 5.81.3 8.87.45l2.31.12c.77.06 1.58.03 2.32.18.74.15 1.48.46 2.02.99.56.53.84 1.25.88 2.05 1.39 12.96 2.93 27.41 4.59 42.9l.02.2.2.01c6.09.25 12.42.52 18.91.79 3.25.14 6.53.27 9.86.41l1.25.05c.44.01.77.04 1.09.24.63.37.92 1.22.62 1.9-.14.33-.4.62-.73.78-.34.17-.67.18-1.12.15-.84-.03-1.69-.07-2.53-.11-36.02-1.47-69.01-2.82-94.11-3.85l.17.16c-1.7-16.05-3.09-29.11-4.05-38.17-.24-2.26-.46-4.27-.65-6.02-.07-.87-.26-1.68-.14-2.4.11-.72.39-1.34.76-1.8.74-.95 1.66-1.28 2.24-1.41.6-.12.92-.08.92-.1z" fill="#263238"/><path d="M515.789 282.49a3.697 3.697 0 01-3.84 3.54 3.697 3.697 0 01-3.54-3.84 3.697 3.697 0 013.84-3.54c2.04.08 3.63 1.8 3.54 3.84z" fill="#fff"/><path d="M548.73 308.95c-.08.01-1.51-11.01-3.18-24.61-1.67-13.61-2.96-24.64-2.87-24.65.08-.01 1.51 11.01 3.18 24.62 1.67 13.59 2.95 24.63 2.87 24.64zm77.38-21.6c0 .01-.07.04-.22.1-.17.07-.39.16-.67.27-.62.24-1.5.57-2.62 1-2.32.86-5.67 2.1-9.87 3.66-8.47 3.11-20.39 7.48-34.26 12.56l-.22.08-.08-.22c-1.67-4.35-3.43-8.95-5.25-13.7l-.08-.21.19-.1c2.63-1.39 5.4-2.86 8.22-4.35 12.22-6.46 23.67-12.5 33.35-17.62l-.1.27c-4.18-10.28-7.67-18.86-10.12-24.88-1.2-2.99-2.15-5.35-2.8-6.98-.31-.79-.55-1.4-.72-1.85-.07-.2-.13-.35-.18-.48a.821.821 0 01-.05-.17c.01 0 .03.05.08.15.05.12.12.27.21.46.19.44.45 1.04.78 1.82.68 1.63 1.67 3.97 2.91 6.94 2.49 6.01 6.04 14.56 10.29 24.82l.07.18-.17.09c-9.67 5.13-21.11 11.2-33.32 17.68-2.81 1.49-5.59 2.96-8.22 4.35l.12-.31c1.81 4.75 3.57 9.35 5.23 13.71l-.3-.14c13.9-5.02 25.84-9.33 34.32-12.39 4.22-1.5 7.58-2.7 9.91-3.54 1.14-.4 2.02-.71 2.65-.92.29-.1.51-.17.69-.23.14-.04.22-.06.23-.05z" fill="#263238"/><path d="M598.44 202.66l-15.68 7.23-4.05 9.06-.61-9.25-4.74-3.77-2.52 3.61 4.57 13.08 7.2.3 17.37-13.95.58-.31-2.12-6z" fill="#C2C2C2"/><path d="M570.839 209.54c.06-.02.54 1.03 1.26 2.74.74 1.7 1.67 4.13 2.86 6.66.03.06.06.11.09.17l-.44.02c1.1-2.54 1.85-4.96 2.46-6.68.59-1.73.96-2.79 1.03-2.77.06.02-.19 1.12-.69 2.87-.52 1.75-1.21 4.18-2.34 6.78l-.2.47-.24-.44c-.03-.06-.07-.12-.1-.19-1.23-2.61-2.09-5.02-2.75-6.77-.65-1.73-1-2.83-.94-2.86zm29.719-.88c.02.03-.32.3-.95.77-.72.52-1.63 1.17-2.71 1.95-2.3 1.63-5.49 3.86-9.04 6.29-1.48 1.01-2.9 1.98-4.21 2.87l-.34.23-.03-.41c-.2-3.05-.36-5.67-.45-7.52-.03-.86-.06-1.57-.09-2.17-.01-.51-.01-.78.02-.78s.07.27.13.77c.06.59.14 1.31.22 2.16.17 1.85.4 4.46.63 7.51l-.37-.18c1.3-.9 2.72-1.87 4.19-2.89 3.55-2.43 6.77-4.61 9.12-6.17 1.12-.73 2.05-1.34 2.8-1.82.68-.42 1.06-.64 1.08-.61zm-38.499 80.06c-.01.01-.09-.13-.21-.42-.12-.28-.26-.72-.36-1.3-.23-1.16-.389-2.87-.439-5.02-.06-2.15-.011-4.73.129-7.64.11-2.91.231-6.15.371-9.62l.06.17c-1.81-1.94-3.371-4.39-4.421-7.13-.81-2.11-1.28-4.3-1.41-6.43-.12-2.13.061-4.19.391-6.12.67-3.85 1.809-7.18 2.619-9.99.84-2.81 1.4-5.11 1.69-6.72.31-1.61.37-2.52.43-2.51.02 0 .01.23-.02.66-.03.43-.08 1.07-.21 1.88-.23 1.63-.75 3.96-1.54 6.79-.77 2.83-1.87 6.16-2.51 9.97-.32 1.9-.48 3.92-.35 6.01.13 2.08.601 4.22 1.391 6.29 1.03 2.69 2.549 5.08 4.309 6.98l.071.07v.1c-.16 3.46-.301 6.7-.431 9.62-.16 2.9-.25 5.47-.24 7.61.01 2.14.12 3.84.3 4.99.13 1.17.42 1.74.38 1.76zm14.22-.21c-.02 0-.04-.24-.08-.71-.03-.51-.08-1.19-.13-2.03-.11-1.76-.22-4.32-.31-7.47-.18-6.31-.22-15.04.19-24.67.41-9.63 1.18-18.33 1.9-24.6.36-3.14.68-5.67.94-7.42.13-.83.23-1.5.3-2.01.07-.46.12-.7.14-.7.02 0 0 .25-.04.71-.05.51-.12 1.18-.21 2.02-.19 1.81-.45 4.33-.78 7.43-.62 6.28-1.34 14.97-1.75 24.58-.4 9.62-.43 18.33-.33 24.64.06 3.11.11 5.65.15 7.47.02.84.03 1.52.04 2.03-.01.49-.02.73-.03.73zm37.64-74.54c-.01.1-1.28-.08-3.3.23-2 .3-4.75 1.22-7.11 3.23-2.36 2.02-3.7 4.59-4.31 6.52-.63 1.94-.65 3.23-.75 3.22-.03 0-.05-.32-.02-.9.03-.58.15-1.42.43-2.42.53-2 1.87-4.7 4.32-6.8 2.45-2.09 5.33-2.99 7.39-3.2 1.04-.12 1.88-.1 2.46-.04.58.05.9.13.89.16zm9.05 58.75c-.11.11-1.5-1.59-3.93-2.56-2.41-1.02-4.59-.8-4.59-.95-.01-.06.53-.2 1.41-.2.88 0 2.12.18 3.37.69 1.26.52 2.26 1.26 2.88 1.89.63.62.91 1.1.86 1.13zm-18.81-10.37c.01.03-.23.16-.67.36-.44.21-1.11.45-1.95.7-1.68.51-4.1.93-6.79.82-2.69-.11-5.07-.73-6.7-1.37-.82-.32-1.46-.62-1.89-.86-.43-.24-.66-.38-.64-.41.04-.08 1.01.4 2.65.94 1.64.55 3.97 1.09 6.6 1.2 2.63.1 5-.25 6.67-.66 1.68-.4 2.69-.8 2.72-.72z" fill="#263238"/></svg>