<svg width="473" height="529" fill="none" xmlns="http://www.w3.org/2000/svg"><path d="M356.976 32.521C358.452 15.021 344.645 0 327.082 0H30C13.431 0 0 13.431 0 30v469c0 16.569 13.431 30 30 30h413c16.569 0 30-13.431 30-30V141.925c0-16.568-13.431-30-30-30h-38.327c-29.272 0-52.283-25.034-49.823-54.202l2.126-25.202z" fill="#fff"/><path d="M356.976 32.521C358.452 15.021 344.645 0 327.082 0H30C13.431 0 0 13.431 0 30v469c0 16.569 13.431 30 30 30h413c16.569 0 30-13.431 30-30V141.925c0-16.568-13.431-30-30-30h-38.327c-29.272 0-52.283-25.034-49.823-54.202l2.126-25.202z" fill="url(#paint0_linear)"/><path d="M356.976 32.521C358.452 15.021 344.645 0 327.082 0H30C13.431 0 0 13.431 0 30v469c0 16.569 13.431 30 30 30h413c16.569 0 30-13.431 30-30V141.925c0-16.568-13.431-30-30-30h-38.327c-29.272 0-52.283-25.034-49.823-54.202l2.126-25.202z" fill="url(#paint1_linear)"/><defs><linearGradient id="paint0_linear" x1="529.365" y1="-236.195" x2="-286.338" y2="298.786" gradientUnits="userSpaceOnUse"><stop stop-color="#CC283C"/><stop offset="1" stop-color="#CC284F"/></linearGradient><linearGradient id="paint1_linear" x1="529.365" y1="-236.195" x2="-286.338" y2="298.786" gradientUnits="userSpaceOnUse"><stop stop-color="#CC283C"/><stop offset="1" stop-color="#CC284F"/></linearGradient></defs></svg>