<svg width="25" height="26" fill="none" xmlns="http://www.w3.org/2000/svg"><path d="M4.594 11.279H6.99c2.395 0 3.593-1.198 3.593-3.594V5.289c0-2.396-1.198-3.594-3.593-3.594H4.594C2.198 1.695 1 2.893 1 5.29v2.396c0 2.396 1.198 3.594 3.594 3.594zm13.416 0h2.396c2.396 0 3.594-1.198 3.594-3.594V5.289c0-2.396-1.198-3.594-3.594-3.594H18.01c-2.396 0-3.594 1.198-3.594 3.594v2.396c0 2.396 1.198 3.594 3.594 3.594zm0 13.416h2.396c2.396 0 3.594-1.198 3.594-3.594v-2.396c0-2.396-1.198-3.594-3.594-3.594H18.01c-2.396 0-3.594 1.198-3.594 3.594v2.396c0 2.396 1.198 3.594 3.594 3.594zm-13.416 0H6.99c2.395 0 3.593-1.198 3.593-3.594v-2.396c0-2.396-1.198-3.594-3.593-3.594H4.594C2.198 15.111 1 16.31 1 18.705v2.396c0 2.396 1.198 3.594 3.594 3.594z" stroke="#BEBBC3" stroke-width="1.9" stroke-miterlimit="10" stroke-linecap="round" stroke-linejoin="round"/></svg>