<svg width="38" height="38" fill="none" xmlns="http://www.w3.org/2000/svg"><path d="M34.834 26.505V7.394c0-1.9-1.552-3.31-3.436-3.15h-.095c-3.325.284-8.376 1.978-11.194 3.752l-.27.174c-.459.285-1.219.285-1.678 0l-.396-.238C14.947 6.175 9.912 4.497 6.587 4.227c-1.884-.158-3.42 1.267-3.42 3.151v19.127c0 1.52 1.235 2.945 2.755 3.135l.46.063c3.435.46 8.74 2.201 11.78 3.863l.063.032c.427.238 1.108.238 1.52 0 3.04-1.678 8.36-3.436 11.811-3.895l.523-.063c1.52-.19 2.755-1.615 2.755-3.135zM19 8.692v23.75m-6.73-19H8.709m4.749 4.75h-4.75" stroke="#EB3A53" stroke-width="2.3" stroke-linecap="round" stroke-linejoin="round"/></svg>