<svg width="315" height="240" viewBox="0 0 315 240" fill="none" xmlns="http://www.w3.org/2000/svg">
<path d="M268.473 119.126C206.783 90.6296 107.105 90.6296 45.8165 119.126C-15.4719 147.622 -15.1409 193.82 46.5206 222.316C108.182 250.812 207.888 250.812 269.177 222.316C330.465 193.82 330.155 147.622 268.473 119.126Z" fill="#BF2343"/>
<path d="M273.168 155.38C273.323 172.527 273.507 189.037 273.507 189.037C273.516 189.147 273.555 189.253 273.62 189.343C273.684 189.433 273.772 189.503 273.874 189.548C274.148 189.686 274.451 189.758 274.758 189.758C275.065 189.758 275.367 189.686 275.641 189.548C275.741 189.502 275.828 189.431 275.891 189.341C275.955 189.251 275.993 189.146 276.003 189.037C276.003 189.037 276.187 172.532 276.341 155.385C275.297 155.425 274.235 155.425 273.168 155.38Z" fill="#E0E0E0"/>
<path d="M252.342 176.67C252.352 176.78 252.391 176.886 252.456 176.976C252.52 177.065 252.608 177.136 252.709 177.181C252.983 177.32 253.286 177.392 253.593 177.392C253.9 177.392 254.203 177.32 254.477 177.181C254.576 177.135 254.662 177.064 254.726 176.974C254.789 176.884 254.828 176.779 254.838 176.67C254.838 176.67 255.636 164.877 256.772 150.846C255.701 150.183 254.7 149.414 253.782 148.551C252.864 163.574 252.342 176.67 252.342 176.67Z" fill="#E0E0E0"/>
<path d="M294.694 176.67C294.704 176.779 294.743 176.884 294.806 176.974C294.87 177.063 294.956 177.135 295.056 177.181C295.33 177.319 295.632 177.392 295.939 177.392C296.247 177.392 296.549 177.319 296.823 177.181C296.923 177.135 297.01 177.063 297.074 176.974C297.139 176.884 297.179 176.78 297.191 176.67C297.191 176.67 296.697 163.626 295.75 148.654C294.831 149.507 293.83 150.266 292.76 150.92C293.902 164.911 294.694 176.67 294.694 176.67Z" fill="#E0E0E0"/>
<path d="M273.168 155.38C273.323 172.527 273.507 189.037 273.507 189.037C273.516 189.147 273.555 189.253 273.62 189.343C273.684 189.433 273.772 189.503 273.874 189.548C274.148 189.686 274.451 189.758 274.758 189.758C275.065 189.758 275.367 189.686 275.641 189.548C275.741 189.502 275.828 189.431 275.891 189.341C275.955 189.251 275.993 189.146 276.003 189.037C276.003 189.037 276.187 172.532 276.341 155.385C275.297 155.425 274.235 155.425 273.168 155.38Z" fill="#D75B73"/>
<path d="M252.342 176.67C252.352 176.78 252.391 176.886 252.456 176.976C252.52 177.065 252.608 177.136 252.709 177.181C252.983 177.32 253.286 177.392 253.593 177.392C253.9 177.392 254.203 177.32 254.477 177.181C254.576 177.135 254.662 177.064 254.726 176.974C254.789 176.884 254.828 176.779 254.838 176.67C254.838 176.67 255.636 164.877 256.772 150.846C255.701 150.183 254.7 149.414 253.782 148.551C252.864 163.574 252.342 176.67 252.342 176.67Z" fill="#D75B73"/>
<path d="M294.694 176.67C294.704 176.779 294.743 176.884 294.806 176.974C294.87 177.063 294.956 177.135 295.056 177.181C295.33 177.319 295.632 177.392 295.939 177.392C296.247 177.392 296.549 177.319 296.823 177.181C296.923 177.135 297.01 177.063 297.074 176.974C297.139 176.884 297.179 176.78 297.191 176.67C297.191 176.67 296.697 163.626 295.75 148.654C294.831 149.507 293.83 150.266 292.76 150.92C293.902 164.911 294.694 176.67 294.694 176.67Z" fill="#D75B73"/>
<path d="M299.388 138.381C299.388 142.031 297.029 145.681 292.238 148.464C282.648 154.037 267.056 154.037 257.41 148.464C252.583 145.681 250.162 142.031 250.139 138.381V141.153C250.139 143.73 251.372 146.318 253.783 148.579C254.7 149.442 255.702 150.211 256.773 150.875L257.41 151.259C261.805 153.796 267.441 155.173 273.179 155.397C274.235 155.442 275.297 155.442 276.353 155.397C282.143 155.196 287.83 153.813 292.238 151.253L292.76 150.932C293.829 150.277 294.831 149.518 295.75 148.665C298.189 146.37 299.405 143.77 299.388 141.165V138.381Z" fill="#D2536B"/>
<path d="M257.41 148.465C267.056 154.037 282.66 154.037 292.238 148.465C297.029 145.681 299.411 142.032 299.388 138.382C299.365 134.732 296.943 131.082 292.123 128.293C282.47 122.727 266.873 122.727 257.295 128.293C252.503 131.082 250.122 134.732 250.139 138.382C250.156 142.032 252.583 145.681 257.41 148.465Z" fill="#E76981"/>
<g opacity="0.3">
<path opacity="0.4" d="M273.169 155.38C273.169 156.527 273.169 157.675 273.198 158.823C274.236 158.863 275.275 158.863 276.314 158.823C276.314 157.675 276.314 156.527 276.342 155.38C275.298 155.426 274.236 155.426 273.169 155.38Z" fill="#171E2F"/>
<path opacity="0.4" d="M253.783 148.579C253.72 149.675 253.652 150.76 253.588 151.827C254.484 152.69 255.464 153.459 256.515 154.123C256.595 153.05 256.687 151.959 256.773 150.857C255.703 150.2 254.702 149.436 253.783 148.579Z" fill="#171E2F"/>
<path opacity="0.4" d="M295.752 148.654C294.833 149.507 293.832 150.266 292.762 150.921C292.854 152.023 292.942 153.111 293.026 154.186C294.075 153.522 295.054 152.753 295.947 151.891C295.884 150.835 295.821 149.75 295.752 148.654Z" fill="#171E2F"/>
</g>
<path d="M283.015 123.168L274.717 123.404L266.419 123.163C266.063 128.764 267.154 134.479 268.663 137.268C269.02 137.984 269.595 138.569 270.304 138.938C271.674 139.635 273.189 139.998 274.726 139.998C276.263 139.998 277.778 139.635 279.148 138.938C279.871 138.563 280.448 137.957 280.789 137.217C282.292 134.422 283.371 128.741 283.015 123.168Z" fill="#FBB5C1"/>
<path d="M280.566 119.765C283.819 121.642 283.837 124.689 280.606 126.565C277.375 128.442 272.118 128.442 268.87 126.565C265.622 124.689 265.599 121.647 268.83 119.765C272.061 117.883 277.317 117.889 280.566 119.765Z" fill="#CD7888"/>
<g opacity="0.15">
<path d="M279.279 120.534C281.816 121.997 281.833 124.373 279.308 125.836C276.783 127.3 272.691 127.3 270.155 125.836C267.618 124.373 267.601 121.997 270.126 120.534C272.651 119.071 276.743 119.048 279.279 120.534Z" fill="#171E2F"/>
</g>
<path d="M274.023 122.256C274.69 122.812 275.479 123.202 276.326 123.393C277.173 123.585 278.054 123.573 278.895 123.358C279.705 123.112 280.44 122.669 281.035 122.068C281.63 121.466 282.066 120.726 282.304 119.914C281.321 119.448 280.422 118.824 279.641 118.067C280.886 117.759 282.191 117.804 283.411 118.199C283.749 117.669 283.952 117.065 284.002 116.438C284.053 115.812 283.948 115.183 283.698 114.606C282.282 113.976 280.689 113.865 279.199 114.291C279.818 113.753 280.541 113.348 281.323 113.101C282.104 112.854 282.929 112.771 283.744 112.856C283.861 110.478 283.49 108.101 282.654 105.872C279.561 106.033 276.559 107.364 275.549 108.322C275.502 109.429 275.618 110.537 275.894 111.611C275.494 111.407 275.152 111.106 274.9 110.734C274.648 110.363 274.495 109.934 274.453 109.487C272.519 109.969 271.687 110.933 271.389 111.674C271.664 113.05 272.295 114.33 273.219 115.387C271.4 114.813 270.666 112.81 270.666 112.81C268.875 117.045 269.22 121.843 274.023 122.256Z" fill="#F995A6"/>
<path opacity="0.2" d="M274.023 122.256C274.69 122.812 275.479 123.202 276.326 123.393C277.173 123.585 278.054 123.573 278.895 123.358C279.705 123.112 280.44 122.669 281.035 122.068C281.63 121.466 282.066 120.726 282.304 119.914C281.321 119.448 280.422 118.824 279.641 118.067C280.886 117.759 282.191 117.804 283.411 118.199C283.749 117.669 283.952 117.065 284.002 116.438C284.053 115.812 283.948 115.183 283.698 114.606C282.282 113.976 280.689 113.865 279.199 114.291C279.818 113.753 280.541 113.348 281.323 113.101C282.104 112.854 282.929 112.771 283.744 112.856C283.861 110.478 283.49 108.101 282.654 105.872C279.561 106.033 276.559 107.364 275.549 108.322C275.502 109.429 275.618 110.537 275.894 111.611C275.494 111.407 275.152 111.106 274.9 110.734C274.648 110.363 274.495 109.934 274.453 109.487C272.519 109.969 271.687 110.933 271.389 111.674C271.664 113.05 272.295 114.33 273.219 115.387C271.4 114.813 270.666 112.81 270.666 112.81C268.875 117.045 269.22 121.843 274.023 122.256Z" fill="#171E2F"/>
<path opacity="0.3" d="M274.023 122.256C274.69 122.812 275.479 123.202 276.326 123.393C277.173 123.585 278.054 123.573 278.895 123.358C279.705 123.112 280.44 122.669 281.035 122.068C281.63 121.466 282.066 120.726 282.304 119.914C281.321 119.448 280.422 118.824 279.641 118.067C280.886 117.759 282.191 117.804 283.411 118.199C283.749 117.669 283.952 117.065 284.002 116.438C284.053 115.812 283.948 115.183 283.698 114.606C282.282 113.976 280.689 113.865 279.199 114.291C279.818 113.753 280.541 113.348 281.323 113.101C282.104 112.854 282.929 112.771 283.744 112.856C283.861 110.478 283.49 108.101 282.654 105.872C279.561 106.033 276.559 107.364 275.549 108.322C275.502 109.429 275.618 110.537 275.894 111.611C275.494 111.407 275.152 111.106 274.9 110.734C274.648 110.363 274.495 109.934 274.453 109.487C272.519 109.969 271.687 110.933 271.389 111.674C271.664 113.05 272.295 114.33 273.219 115.387C271.4 114.813 270.666 112.81 270.666 112.81C268.875 117.045 269.22 121.843 274.023 122.256Z" fill="white"/>
<path d="M273.919 122.715C273.895 122.714 273.873 122.707 273.852 122.697C273.83 122.687 273.812 122.672 273.796 122.655C273.781 122.637 273.769 122.617 273.761 122.595C273.754 122.572 273.751 122.549 273.752 122.526C274.051 118.618 276.283 112.167 281.614 106.848C281.631 106.831 281.651 106.818 281.672 106.809C281.694 106.8 281.717 106.795 281.741 106.795C281.764 106.795 281.787 106.8 281.809 106.809C281.831 106.818 281.85 106.831 281.867 106.848C281.883 106.864 281.897 106.884 281.906 106.906C281.915 106.927 281.919 106.95 281.919 106.974C281.919 106.997 281.915 107.02 281.906 107.042C281.897 107.064 281.883 107.084 281.867 107.1C276.61 112.351 274.407 118.704 274.114 122.554C274.108 122.601 274.085 122.644 274.048 122.674C274.012 122.703 273.966 122.718 273.919 122.715Z" fill="#F5F5F5"/>
<path d="M275.377 124.345C274.757 124.852 274.025 125.206 273.242 125.376C272.459 125.547 271.646 125.529 270.871 125.326C270.096 125.122 269.38 124.738 268.782 124.204C268.184 123.671 267.72 123.003 267.429 122.256C268.318 121.851 269.131 121.298 269.834 120.621C268.658 120.339 267.428 120.374 266.27 120.724C265.919 120.277 265.688 119.747 265.6 119.185C265.513 118.623 265.572 118.049 265.771 117.516C267.119 116.961 268.613 116.872 270.018 117.264C268.765 116.289 267.192 115.822 265.61 115.955C265.334 113.859 265.53 111.728 266.184 109.717C269.128 109.895 272.049 111.117 273.07 111.984C273.183 112.956 273.142 113.94 272.95 114.899C273.307 114.73 273.61 114.465 273.826 114.134C274.042 113.802 274.162 113.418 274.172 113.023C276.02 113.47 276.852 114.337 277.179 114.991C277.005 116.202 276.489 117.339 275.693 118.268C276.211 118.083 276.681 117.783 277.067 117.392C277.454 117.001 277.747 116.527 277.925 116.007C279.871 119.76 279.842 123.978 275.377 124.345Z" fill="#F995A6"/>
<path opacity="0.3" d="M275.377 124.345C274.757 124.852 274.025 125.206 273.242 125.376C272.459 125.547 271.646 125.529 270.871 125.326C270.096 125.122 269.38 124.738 268.782 124.204C268.184 123.671 267.72 123.003 267.429 122.256C268.318 121.851 269.131 121.298 269.834 120.621C268.658 120.339 267.428 120.374 266.27 120.724C265.919 120.277 265.688 119.747 265.6 119.185C265.513 118.623 265.572 118.049 265.771 117.516C267.119 116.961 268.613 116.872 270.018 117.264C268.765 116.289 267.192 115.822 265.61 115.955C265.334 113.859 265.53 111.728 266.184 109.717C269.128 109.895 272.049 111.117 273.07 111.984C273.183 112.956 273.142 113.94 272.95 114.899C273.307 114.73 273.61 114.465 273.826 114.134C274.042 113.802 274.162 113.418 274.172 113.023C276.02 113.47 276.852 114.337 277.179 114.991C277.005 116.202 276.489 117.339 275.693 118.268C276.211 118.083 276.681 117.783 277.067 117.392C277.454 117.001 277.747 116.527 277.925 116.007C279.871 119.76 279.842 123.978 275.377 124.345Z" fill="white"/>
<path d="M275.497 124.769C275.455 124.769 275.414 124.754 275.382 124.726C275.349 124.699 275.327 124.662 275.319 124.62C274.814 121.217 272.341 115.57 267.044 110.847C267.028 110.831 267.014 110.811 267.005 110.789C266.996 110.768 266.992 110.745 266.992 110.721C266.992 110.698 266.996 110.674 267.005 110.653C267.014 110.631 267.028 110.611 267.044 110.595C267.061 110.578 267.08 110.565 267.102 110.556C267.124 110.547 267.147 110.542 267.171 110.542C267.194 110.542 267.217 110.547 267.239 110.556C267.261 110.565 267.28 110.578 267.297 110.595C272.651 115.369 275.159 121.108 275.675 124.551C275.682 124.598 275.67 124.646 275.642 124.685C275.614 124.723 275.573 124.749 275.526 124.758L275.497 124.769Z" fill="white"/>
<path d="M32.6767 185.8C33.0219 184.416 32.1221 183.036 31.1157 182.04C30.1093 181.044 28.9119 180.153 28.3867 178.832C27.5309 176.691 28.6475 173.905 27.2004 172.119C26.3483 171.07 24.8313 170.724 24.0747 169.605C23.7253 168.985 23.4924 168.304 23.3879 167.598C22.5697 164.037 20.8242 160.765 18.334 158.124C18.1876 161.305 18.8879 164.467 20.3614 167.277C20.9491 168.396 21.6726 169.493 21.871 170.75C22.1942 172.786 21.085 174.894 21.5918 176.893C22.1685 179.183 24.7101 180.701 24.8424 183.058C24.9562 185.05 23.2557 186.81 23.3952 188.798C23.5007 189.646 23.8042 190.455 24.2804 191.159C25.812 193.711 28.0525 195.464 31.4316 195.389L35.5709 195.512L32.6767 185.8Z" fill="#DF4F6C"/>
<path d="M36.5179 195.478C36.8926 195.533 37.2737 195.522 37.6447 195.444C38.0962 195.376 38.5394 195.259 38.9671 195.096C39.5584 194.883 40.1106 194.57 40.6011 194.171C40.8955 193.925 41.1258 193.608 41.2713 193.249C41.3928 192.845 41.455 192.424 41.4561 192.001C41.4605 191.549 41.4896 191.098 41.5431 190.65C41.6222 190.174 41.7894 189.718 42.0358 189.306C42.5104 188.44 43.3075 187.618 43.5575 186.44C43.8075 185.263 43.6227 184.037 43.4271 182.786C43.2314 181.535 43.0394 180.172 43.4995 178.865C43.9596 177.558 44.8219 176.373 45.2603 174.9C45.6987 173.426 45.4813 171.816 45.5647 170.239C45.5899 169.438 45.7671 168.649 46.0864 167.917C46.4124 167.177 46.8653 166.477 47.2204 165.696C47.945 164.118 48.0537 162.338 48.2421 160.59C48.3339 159.709 48.4269 158.819 48.5211 157.921C48.5746 157.017 48.7215 156.123 48.9594 155.251C49.2291 154.369 49.5497 153.503 49.9196 152.66C50.1146 152.224 50.2711 151.772 50.3869 151.308C50.4546 150.832 50.4957 150.352 50.5101 149.872C50.5503 148.907 50.5091 147.941 50.3869 146.984C50.271 146.021 50.0935 145.07 49.9884 144.103C49.9884 144.048 49.9884 143.988 49.9884 143.937L49.9667 143.744L49.8 143.833C48.9411 144.289 48.1971 144.941 47.6262 145.74C47.0645 146.521 46.6143 147.38 46.2893 148.291C45.6154 150.09 45.3835 151.967 45.0466 153.763C44.7096 155.559 44.2893 157.325 43.3981 158.82C42.9561 159.561 42.4162 160.246 41.9489 160.975C41.445 161.683 41.1033 162.498 40.9489 163.359C40.717 165.126 41.6735 166.669 41.4851 168.232C41.3996 169 41.1524 169.74 40.7605 170.401C40.3982 171.072 39.9634 171.694 39.5504 172.316C39.1315 172.925 38.7677 173.572 38.4635 174.248C38.1802 174.912 38.0146 175.621 37.9744 176.344C37.8802 177.751 38.0831 179.084 37.9744 180.346C37.8674 181.545 37.5326 182.711 36.9889 183.778C36.4781 184.815 35.9201 185.748 35.4781 186.666C35.2498 187.118 35.0361 187.558 34.8658 187.999C34.7011 188.426 34.5797 188.869 34.5035 189.321C34.3914 190.11 34.3914 190.912 34.5035 191.701C34.6157 192.805 35.0259 193.855 35.6882 194.734C35.7888 194.865 35.899 194.989 36.0179 195.104C36.1003 195.19 36.1914 195.267 36.2897 195.333C36.4418 195.448 36.5215 195.5 36.5215 195.5C36.23 195.264 35.964 194.998 35.7281 194.704C35.0931 193.823 34.7037 192.783 34.6013 191.694C34.5069 190.913 34.5203 190.123 34.6412 189.347C34.7171 188.905 34.8386 188.473 35.0035 188.058C35.1857 187.609 35.3913 187.17 35.6194 186.744C36.0759 185.848 36.6266 184.919 37.1266 183.882C37.6874 182.792 38.031 181.599 38.1374 180.372C38.2389 179.084 38.0432 177.747 38.1374 176.373C38.1796 175.675 38.3428 174.989 38.6193 174.348C38.9239 173.685 39.2878 173.051 39.7062 172.456C40.1156 171.834 40.554 171.212 40.9308 170.531C41.341 169.843 41.6029 169.073 41.6989 168.273C41.8873 166.606 40.9308 165.051 41.1699 163.408C41.3175 162.583 41.6416 161.801 42.1191 161.12C42.5829 160.405 43.1227 159.724 43.5684 158.961C44.4886 157.421 44.927 155.629 45.2567 153.818C45.5864 152.008 45.8291 150.153 46.4885 148.394C46.8054 147.507 47.2446 146.671 47.7928 145.91C48.343 145.143 49.0598 144.517 49.8869 144.081L49.6985 143.974C49.6985 144.026 49.6985 144.085 49.6985 144.144C49.8072 145.118 49.9811 146.073 50.0971 147.024C50.2174 147.967 50.2587 148.918 50.2203 149.868C50.2063 150.334 50.1676 150.798 50.1043 151.26C49.9891 151.707 49.8376 152.142 49.6514 152.563C49.2795 153.416 48.9565 154.29 48.6841 155.181C48.4446 156.067 48.2953 156.977 48.2385 157.895C48.1479 158.794 48.0537 159.687 47.9631 160.568C47.7783 162.319 47.6588 164.074 46.9704 165.596C46.6298 166.355 46.1769 167.054 45.84 167.817C45.5137 168.577 45.3329 169.394 45.3074 170.224C45.2277 171.834 45.4415 173.408 45.0212 174.837C44.6009 176.266 43.7241 177.447 43.2785 178.798C42.8329 180.15 43.014 181.568 43.2169 182.816C43.4198 184.063 43.6227 185.292 43.3655 186.403C43.1082 187.514 42.3655 188.34 41.88 189.232C41.626 189.661 41.4561 190.136 41.38 190.631C41.3287 191.085 41.3033 191.541 41.304 191.998C41.3039 192.407 41.2465 192.815 41.1337 193.208C41.0001 193.552 40.7846 193.856 40.5069 194.093C40.0286 194.49 39.4901 194.803 38.9127 195.022C38.4898 195.19 38.0517 195.314 37.6048 195.393C37.331 195.445 37.0536 195.475 36.7751 195.482C36.6157 195.474 36.5179 195.478 36.5179 195.478Z" fill="#E0E0E0"/>
<path d="M49.3761 146.045C49.3567 146.085 49.3426 146.128 49.3343 146.171C49.3115 146.271 49.2811 146.395 49.2431 146.544C49.1595 146.875 49.0645 147.374 48.9049 147.999C48.7453 148.624 48.3578 149.324 48.0272 150.195C47.6966 151.066 47.3433 152.056 47.0279 153.173C46.7125 154.289 46.4276 155.54 46.1312 156.873C45.8348 158.205 45.5233 159.627 44.7823 160.967C44.4366 161.652 44.0452 162.344 43.7374 163.1C43.4331 163.876 43.2301 164.686 43.1333 165.512C42.9261 167.218 42.6281 168.913 42.2404 170.589C41.4007 174.032 40.6028 177.311 39.8733 180.296L37.8899 188.213C37.3427 190.446 36.8944 192.27 36.579 193.554C36.4308 194.172 36.3168 194.671 36.2332 195.01L36.1496 195.382C36.1454 195.425 36.1454 195.469 36.1496 195.512C36.1496 195.512 36.1724 195.471 36.199 195.386C36.2256 195.3 36.2636 195.166 36.3054 195.013C36.4042 194.663 36.5334 194.18 36.6854 193.569C37.0197 192.292 37.4985 190.48 38.0836 188.246C38.6688 186.013 39.3565 183.315 40.124 180.344C40.8915 177.374 41.6667 174.08 42.514 170.637C42.9038 168.953 43.2007 167.249 43.4031 165.534C43.4959 164.729 43.6912 163.939 43.9844 163.182C44.2808 162.437 44.6684 161.756 45.0141 161.067C45.774 159.694 46.0666 158.224 46.3592 156.899C46.6517 155.574 46.9139 154.323 47.2179 153.206C47.5219 152.09 47.8524 151.088 48.1754 150.229C48.4984 149.369 48.8593 148.65 49.0113 147.995C49.1633 147.34 49.2355 146.86 49.3001 146.525C49.3267 146.369 49.3495 146.242 49.3647 146.153C49.3723 146.117 49.3761 146.081 49.3761 146.045Z" fill="#E0E0E0"/>
<path d="M37.3099 195.512C40.0582 193.874 40.805 188.935 39.6475 185.975C38.4899 183.015 36.4623 180.311 36.1337 177.147C35.8835 174.714 36.6677 172.211 36.0852 169.838C35.2973 166.633 32.1345 164.163 32.1532 160.865C32.1532 159.008 33.2099 157.266 33.1166 155.417C33.0008 153.147 31.2495 151.357 30.1293 149.367C28.4826 146.317 28.337 142.7 27.7358 139.276C27.1346 135.852 25.8165 132.182 22.7508 130.515C22.3139 133.43 21.5559 135.428 21.821 139.372C21.9144 140.787 23.5872 143.491 23.8299 146.592C23.9718 148.449 24.0764 150.306 24.2034 152.163C24.3303 154.02 24.4498 155.807 25.1107 157.496C25.6186 158.789 26.4289 159.959 26.806 161.296C27.5155 163.806 26.6156 166.54 27.1794 169.095C27.6686 171.253 29.1809 173.102 29.502 175.294C29.9501 178.365 27.9673 181.574 29.0091 184.504C29.5244 185.96 30.738 187.122 31.0852 188.623C31.3578 189.789 31.0852 191.026 31.3242 192.196C31.72 194.082 35.3533 195.538 37.2987 195.401" fill="#DF4F6C"/>
<path d="M23.496 133.391C23.4903 133.445 23.4903 133.5 23.496 133.554C23.496 133.677 23.5335 133.837 23.5597 134.034C23.6233 134.455 23.6982 135.077 23.8479 135.873C23.9976 136.669 24.4281 137.581 24.7687 138.672C25.1094 139.762 25.4837 141.013 25.7981 142.416C26.1125 143.819 26.3933 145.375 26.6778 147.05C26.9622 148.725 27.2767 150.545 28.1226 152.283C28.4969 153.157 28.9536 154.032 29.283 154.962C29.6053 155.92 29.8065 156.914 29.8819 157.921C30.0473 160.06 30.3284 162.188 30.7241 164.297C31.5926 168.614 32.4198 172.731 33.1759 176.475C33.932 180.219 34.6732 183.546 35.2833 186.39C35.8935 189.233 36.3801 191.474 36.7245 193.07C36.9004 193.845 37.0351 194.451 37.1325 194.883C37.1774 195.08 37.2148 195.233 37.2448 195.356C37.2544 195.409 37.2694 195.462 37.2897 195.512C37.2988 195.458 37.2988 195.402 37.2897 195.348C37.2672 195.229 37.241 195.069 37.2036 194.872C37.1175 194.44 36.9977 193.826 36.8293 193.048C36.5036 191.451 36.0395 189.166 35.4705 186.349C34.9015 183.531 34.1903 180.152 33.4192 176.419C32.6481 172.686 31.8508 168.562 30.9936 164.245C30.5969 162.142 30.3133 160.02 30.1439 157.888C30.067 156.861 29.8595 155.848 29.5263 154.873C29.1857 153.92 28.7402 153.042 28.351 152.178C27.5087 150.463 27.2055 148.672 26.9023 147.005C26.5991 145.338 26.3221 143.778 25.9853 142.371C25.6908 141.104 25.3322 139.852 24.911 138.62C24.5367 137.525 24.1212 136.632 23.949 135.847C23.7768 135.062 23.6944 134.44 23.6121 134.023L23.5372 133.547C23.5282 133.494 23.5145 133.441 23.496 133.391Z" fill="#EBEBEB"/>
<path d="M158.329 10.0641C158.167 9.43682 157.918 8.83557 157.588 8.27824C156.847 7.16672 155.609 6.51463 152.616 6.57391C152.197 6.58798 151.784 6.67059 151.393 6.81845L38.8922 70.8198C37.6568 71.5364 36.6293 72.5624 35.9107 73.7968C35.1922 75.0311 34.8075 76.4313 34.7944 77.8594V260.934C34.7944 264.202 36.7137 265.432 38.8478 265.573C39.7654 265.622 40.6844 265.504 41.5599 265.225C41.6721 265.193 41.7812 265.15 41.8859 265.099L154.453 200.986C155.695 200.278 156.728 199.254 157.446 198.017C158.165 196.781 158.543 195.377 158.544 193.947V10.9163C158.535 10.62 158.462 10.3291 158.329 10.0641Z" fill="#F995A6"/>
<path opacity="0.2" d="M158.329 10.0641C158.167 9.43682 157.918 8.83557 157.588 8.27824C156.847 7.16672 155.609 6.51463 152.616 6.57391C152.197 6.58798 151.784 6.67059 151.393 6.81845L38.8922 70.8198C37.6568 71.5364 36.6293 72.5624 35.9107 73.7968C35.1922 75.0311 34.8075 76.4313 34.7944 77.8594V260.934C34.7944 264.202 36.7137 265.432 38.8478 265.573C39.7654 265.622 40.6844 265.504 41.5599 265.225C41.6721 265.193 41.7812 265.15 41.8859 265.099L154.453 200.986C155.695 200.278 156.728 199.254 157.446 198.017C158.165 196.781 158.543 195.377 158.544 193.947V10.9163C158.535 10.62 158.462 10.3291 158.329 10.0641Z" fill="#171E2F"/>
<path opacity="0.2" d="M35.6382 74.303C35.0887 75.4085 34.7998 76.6253 34.7935 77.8598V260.935C34.7935 264.203 36.7127 265.433 38.8468 265.573C38.2629 264.685 37.975 263.634 38.0243 262.572V79.4901C38.0289 78.2585 38.3153 77.0444 38.8616 75.9406C38.9505 75.7553 39.0691 75.5849 39.1728 75.4071L36.0458 73.599C35.905 73.8361 35.7568 74.0584 35.6382 74.303Z" fill="#171E2F"/>
<path opacity="0.2" d="M152.645 6.57403C152.227 6.58809 151.814 6.6707 151.422 6.81857L38.8919 70.8199C37.7245 71.4917 36.7457 72.4476 36.0464 73.5987L39.1735 75.4068C39.8814 74.1736 40.9044 73.1507 42.1375 72.4427L154.646 8.44879C155.038 8.30654 155.451 8.22653 155.868 8.21167C156.452 8.19746 157.036 8.21973 157.617 8.27836C156.913 7.14461 155.639 6.51475 152.645 6.57403Z" fill="white"/>
<path d="M153.407 15.785L43.3735 79.2899V251.924L153.407 188.419V15.785Z" fill="#C02A46"/>
<path d="M104.041 219.816C102.978 220.48 102.061 221.353 101.347 222.382C100.632 223.411 100.134 224.575 99.8836 225.803C99.6094 227.937 101.025 228.767 103.055 227.559C104.116 226.893 105.031 226.019 105.745 224.99C106.46 223.961 106.959 222.798 107.212 221.572C107.479 219.445 106.064 218.652 104.041 219.816Z" fill="#F995A6"/>
<g opacity="0.4">
<path opacity="0.4" d="M104.041 219.816C102.978 220.48 102.061 221.353 101.347 222.382C100.632 223.411 100.134 224.575 99.8836 225.803C99.6094 227.937 101.025 228.767 103.055 227.559C104.116 226.893 105.031 226.019 105.745 224.99C106.46 223.961 106.959 222.798 107.212 221.572C107.479 219.445 106.064 218.652 104.041 219.816Z" fill="#C02A46"/>
</g>
<path d="M163.98 9.45709V3.85502C163.973 3.59748 163.91 3.3446 163.795 3.11401C163.667 2.56366 163.454 2.03634 163.165 1.55047C162.55 0.564923 161.424 -0.00565732 158.786 0.0684441C158.419 0.0785002 158.056 0.148588 157.711 0.275927L58.5935 56.5856C57.5073 57.2169 56.6041 58.1201 55.9727 59.2062C55.3413 60.2924 55.0034 61.5241 54.9922 62.7804V69.1976L57.8303 70.8353L163.98 9.45709Z" fill="#F995A6"/>
<path d="M57.8308 70.8367L54.9927 69.199V229.636C54.9927 232.511 56.6822 233.6 58.5569 233.719C59.3666 233.764 60.1777 233.661 60.9504 233.415C61.0493 233.382 61.1458 233.342 61.2394 233.297L160.38 176.831C161.474 176.209 162.384 175.308 163.016 174.22C163.649 173.132 163.982 171.895 163.981 170.636V9.4585L57.8308 70.8367Z" fill="#F995A6"/>
<path opacity="0.2" d="M55.7337 59.655C55.2496 60.6265 54.9961 61.6966 54.9927 62.782V229.636C54.9927 232.511 56.6822 233.601 58.5569 233.719C58.0369 232.938 57.7775 232.012 57.8159 231.074V64.227C57.822 63.1419 58.0754 62.0724 58.5569 61.0999C58.6385 60.9369 58.7422 60.7813 58.8311 60.6257L56.0746 59.0399C55.9496 59.2384 55.8358 59.4438 55.7337 59.655Z" fill="#171E2F"/>
<path opacity="0.2" d="M158.787 0.00325711C158.42 0.0133132 158.057 0.0834007 157.712 0.21074L58.5945 56.5871C57.5659 57.1801 56.7043 58.0239 56.0898 59.0398L58.8464 60.6256C59.4719 59.5442 60.3716 58.647 61.4548 58.0246L160.551 1.65572C160.897 1.52527 161.263 1.4551 161.632 1.44823C162.144 1.4318 162.657 1.45161 163.166 1.50751C162.551 0.521966 161.425 -0.0486139 158.787 0.00325711Z" fill="white"/>
<path opacity="0.05" d="M163.98 9.45709V3.85502C163.973 3.59748 163.91 3.3446 163.795 3.11401C163.667 2.56366 163.454 2.03634 163.165 1.55047C162.55 0.564923 161.424 -0.00565732 158.786 0.0684441C158.419 0.0785002 158.056 0.148588 157.711 0.275927L58.5935 56.5856C57.5073 57.2169 56.6041 58.1201 55.9727 59.2062C55.3413 60.2924 55.0034 61.5241 54.9922 62.7804V69.1976L57.8303 70.8353L163.98 9.45709Z" fill="white"/>
<path opacity="0.35" d="M57.8308 70.8367L54.9927 69.199V229.636C54.9927 232.511 56.6822 233.6 58.5569 233.719C59.3666 233.764 60.1777 233.661 60.9504 233.415C61.0493 233.382 61.1458 233.342 61.2394 233.297L160.38 176.831C161.474 176.209 162.384 175.308 163.016 174.22C163.649 173.132 163.982 171.895 163.981 170.636V9.4585L57.8308 70.8367Z" fill="white"/>
<path d="M109.739 67.9761L66.1602 93.1187V165.879L109.739 140.729V67.9761Z" fill="white"/>
<path d="M68.582 94.5195L107.322 72.1631V139.336L68.582 161.685V94.5195Z" fill="#666C74"/>
<path opacity="0.3" d="M68.582 94.5195L107.322 72.1631V139.336L68.582 161.685V94.5195Z" fill="white"/>
<path d="M107.322 139.388L68.582 161.767V136.046L79.8529 127.191L94.3767 121.678L97.9706 120.781C99.5639 120.383 101.224 120.333 102.838 120.637C104.453 120.94 105.982 121.588 107.322 122.537V139.388Z" fill="#DDE5F0"/>
<path d="M77.3491 107.672C76.2227 103.901 76.4673 99.5732 78.7199 96.3424C80.2061 94.2813 82.2918 92.7288 84.6925 91.8963C87.0746 91.0886 89.5932 90.7612 92.1027 90.933C94.0927 90.971 96.0503 91.4439 97.8381 92.3187C98.9094 92.8899 99.8576 93.6668 100.628 94.605C101.399 95.5431 101.977 96.6241 102.329 97.7859C102.682 98.9478 102.802 100.168 102.682 101.376C102.562 102.584 102.206 103.757 101.632 104.827C100.656 106.475 99.3818 107.927 97.8751 109.11C94.9843 111.585 91.8074 113.704 88.4124 115.423C87.5677 115.853 86.7081 116.261 85.8337 116.639C85.2409 116.898 84.1219 117.624 83.455 117.491C82.7881 117.358 82.0916 116.12 81.6914 115.609C81.1134 114.868 80.5651 114.127 80.0538 113.341C78.8813 111.593 77.9701 109.684 77.3491 107.672Z" fill="#2F3646"/>
<path d="M77.3491 107.672C76.2227 103.901 76.4673 99.5732 78.7199 96.3424C80.2061 94.2813 82.2918 92.7288 84.6925 91.8963C87.0746 91.0886 89.5932 90.7612 92.1027 90.933C94.0927 90.971 96.0503 91.4439 97.8381 92.3187C98.9094 92.8899 99.8576 93.6668 100.628 94.605C101.399 95.5431 101.977 96.6241 102.329 97.7859C102.682 98.9478 102.802 100.168 102.682 101.376C102.562 102.584 102.206 103.757 101.632 104.827C100.656 106.475 99.3818 107.927 97.8751 109.11C94.9843 111.585 91.8074 113.704 88.4124 115.423C87.5677 115.853 86.7081 116.261 85.8337 116.639C85.2409 116.898 84.1219 117.624 83.455 117.491C82.7881 117.358 82.0916 116.12 81.6914 115.609C81.1134 114.868 80.5651 114.127 80.0538 113.341C78.8813 111.593 77.9701 109.684 77.3491 107.672Z" fill="url(#paint0_linear_652_63631)"/>
<path d="M97.5852 139.351C97.3041 138.216 96.9171 137.109 96.4292 136.046L94.5767 136.483C94.7175 137.521 94.7916 138.603 94.8286 139.677C94.8286 140.418 94.7693 143.16 94.6285 146.709L98.7856 144.316C98.4151 142.685 98.0224 141.018 97.5852 139.351Z" fill="#F995A6"/>
<path opacity="0.2" d="M94.6211 136.876C94.6211 136.75 94.6211 136.617 94.5767 136.483L96.4299 136.046L96.5411 136.32C96.2904 136.562 95.9845 136.739 95.6499 136.836C95.3154 136.933 94.9622 136.947 94.6211 136.876Z" fill="#171E2F"/>
<path d="M93.5839 131.629L92.1018 130.696L88.708 132.548C89.8701 133.441 91.2588 133.99 92.7169 134.134L93.5839 131.629Z" fill="#F995A6"/>
<path d="M95.8369 131.274L96.2815 130.273L97.9933 131.348C97.8104 131.998 97.4201 132.57 96.8817 132.978L95.8369 131.274Z" fill="#F995A6"/>
<path opacity="0.2" d="M93.5839 131.629L92.1018 130.696L88.708 132.548C89.8701 133.441 91.2588 133.99 92.7169 134.134L93.5839 131.629Z" fill="#171E2F"/>
<path opacity="0.2" d="M95.8369 131.274L96.2815 130.273L97.9933 131.348C97.8104 131.998 97.4201 132.57 96.8817 132.978L95.8369 131.274Z" fill="#171E2F"/>
<path d="M92.7397 134.134C92.8832 133.259 93.1685 132.413 93.5845 131.63L95.8075 131.274C96.2188 131.801 96.5693 132.373 96.8524 132.978C96.9011 134.021 96.7476 135.062 96.4004 136.046C95.8278 136.341 95.1918 136.491 94.5478 136.483C93.716 135.907 93.084 135.086 92.7397 134.134Z" fill="#F995A6"/>
<path d="M85.8555 126.568C84.7815 125.856 83.8977 125.133 83.399 124.466V115.081C83.9288 116.162 84.6748 117.126 85.5938 117.912C86.729 118.884 88.0913 119.552 89.5542 119.855C90.9886 120.158 92.5764 120.447 94.2025 120.694V124.709C94.2025 124.814 94.2288 125.128 94.2642 125.551C94.2725 125.652 94.2814 125.758 94.2906 125.869C94.3392 126.458 94.3974 127.198 94.4362 127.925C94.475 128.653 94.494 129.364 94.4654 129.897C94.451 130.165 94.4249 130.379 94.3869 130.525C94.3677 130.598 94.3481 130.644 94.3322 130.669C94.3319 130.669 94.3315 130.669 94.3311 130.669C94.3077 130.666 94.2752 130.659 94.2327 130.649C94.1479 130.628 94.0335 130.594 93.8919 130.547C93.6092 130.453 93.2275 130.31 92.7748 130.127C91.8697 129.76 90.6874 129.234 89.4568 128.617C88.2259 128.001 86.9497 127.295 85.8555 126.568ZM94.3217 130.683C94.3217 130.683 94.322 130.683 94.3224 130.682C94.3219 130.683 94.3217 130.683 94.3217 130.683Z" fill="white" stroke="#2F3646" stroke-width="0.348693"/>
<path d="M90.6362 122.122C91.8635 122.445 92.7964 122.742 94.0597 122.863V120.64C92.385 120.388 91.066 120.018 89.5913 119.706C88.2467 119.424 86.9883 118.827 85.9191 117.964C84.85 117.101 84.0007 115.996 83.4409 114.742C83.7121 116.472 84.4851 118.085 85.664 119.38C87.0422 120.728 88.7609 121.676 90.6362 122.122Z" fill="#C7C3C1"/>
<path d="M86.7231 102.213C87.4725 101.512 87.9929 100.603 88.219 99.6057C88.4647 99.674 88.7108 99.7439 88.9573 99.8139C90.772 100.329 92.6128 100.852 94.5403 100.852V100.852L94.5453 100.852C96.844 100.786 99.039 99.8947 100.731 98.3456C102.813 103.991 102.474 110.604 101.475 116.371C101.239 117.695 100.506 118.878 99.4256 119.678C98.3454 120.478 96.9999 120.835 95.6652 120.675C94.9266 120.586 94.1876 120.483 93.4479 120.372C91.9313 120.135 90.4377 119.869 89.0927 119.588C87.6554 119.28 86.3342 118.573 85.2815 117.547C84.2286 116.521 83.4871 115.219 83.1426 113.789L83.1426 113.789L83.1414 113.785L83.0896 113.592L82.9866 113.21L82.7741 113.544C82.5112 113.958 82.14 114.291 81.7009 114.508C81.2617 114.725 80.7714 114.818 80.2834 114.776L80.2804 114.775C79.7703 114.74 79.2727 114.6 78.8185 114.365C78.3644 114.13 77.9632 113.805 77.6397 113.409C76.9842 112.602 76.5708 111.626 76.4474 110.594L76.4476 110.594L76.4462 110.585C76.3431 109.979 76.3722 109.357 76.5316 108.763C76.6106 108.471 76.749 108.198 76.938 107.962C77.125 107.728 77.3576 107.535 77.6217 107.394C77.9551 107.265 78.3146 107.216 78.6704 107.253C79.0289 107.29 79.3733 107.412 79.6748 107.61C80.3008 108.039 80.815 108.613 81.1745 109.282L81.1743 109.282L81.1777 109.287C81.3494 109.58 81.5597 109.934 81.8285 110.186C82.1053 110.445 82.4623 110.611 82.9089 110.486L82.9091 110.486L82.9223 110.481C83.1481 110.398 83.347 110.255 83.4974 110.067C83.6474 109.879 83.7435 109.655 83.7755 109.417C84.08 107.472 84.0888 105.493 83.802 103.546C84.8774 103.384 85.8876 102.925 86.7171 102.218L86.7173 102.218L86.7231 102.213Z" fill="white" stroke="#2F3646" stroke-width="0.348693"/>
<path d="M96.4148 105.368H95.1106C93.799 104.478 92.2873 103.928 90.7108 103.767C89.1344 103.605 87.5425 103.837 86.0776 104.441V105.82L86.4407 106.012C86.6378 106.901 86.7495 107.807 86.7742 108.717C86.7987 109.612 87.1554 110.465 87.7746 111.111C88.5607 111.647 89.5091 111.894 90.457 111.807C91.2131 111.866 91.9728 111.755 92.6801 111.481C93.49 111.044 94.1004 110.311 94.3844 109.436C94.7105 108.576 94.6512 108.08 95.0513 107.05C95.1067 106.901 95.2087 106.773 95.3421 106.686C95.4756 106.6 95.6335 106.558 95.7923 106.568C95.9386 106.574 96.0801 106.622 96.1988 106.708C96.3175 106.794 96.4081 106.913 96.4592 107.05C96.8298 108.08 96.7853 108.576 97.0817 109.436C97.3385 110.293 97.9069 111.022 98.6749 111.481C99.3373 111.757 100.057 111.869 100.772 111.807C101.666 111.892 102.561 111.644 103.284 111.111C103.871 110.45 104.202 109.601 104.218 108.717C104.239 107.808 104.343 106.903 104.529 106.012L104.87 105.82V104.441C103.504 103.837 102.002 103.604 100.518 103.766C99.0327 103.929 97.6172 104.481 96.4148 105.368ZM94.4511 106.109L94.3992 106.598C94.2794 107.487 94.0581 108.36 93.7397 109.199C93.5092 109.895 93.0287 110.481 92.3911 110.844C91.8804 111.046 91.3316 111.135 90.7831 111.103H90.4867C89.7064 111.186 88.9214 110.998 88.2636 110.57C87.7808 110.048 87.5157 109.361 87.5226 108.65C87.5226 108.421 87.4782 108.184 87.4633 107.909C87.4189 107.25 87.4633 105.812 87.5152 104.768C88.2609 104.561 89.0311 104.456 89.8049 104.456C91.4342 104.463 93.0288 104.928 94.4066 105.798C94.4733 105.842 94.4511 106.072 94.4511 106.072V106.109ZM103.58 107.946C103.58 108.184 103.58 108.421 103.529 108.687C103.525 109.396 103.262 110.08 102.787 110.607C102.184 111.031 101.446 111.221 100.713 111.14H100.438C99.9311 111.169 99.424 111.08 98.9565 110.881C98.3477 110.507 97.8989 109.921 97.6967 109.236C97.398 108.394 97.1917 107.522 97.0817 106.635L97.0298 106.146C97.0298 106.146 97.0298 105.916 97.0817 105.872C98.3523 105.008 99.8507 104.541 101.387 104.53C102.112 104.53 102.834 104.635 103.529 104.842C103.588 105.812 103.617 107.25 103.58 107.909V107.946Z" fill="#2F3646"/>
<path d="M86.0784 104.442L78.7275 107.087C79.2579 107.188 79.7546 107.42 80.1725 107.761C80.2466 107.828 86.1006 105.82 86.1006 105.82L86.0784 104.442Z" fill="#2F3646"/>
<path d="M95.749 106.68L99.4615 111.17L96.0602 112.371L95.749 106.68Z" fill="white"/>
<path d="M95.749 106.68L99.4615 111.17L96.0602 112.371L95.749 106.68Z" fill="#C7C3C1"/>
<path d="M90.5152 107.243C90.5133 107.377 90.5379 107.51 90.5877 107.634C90.6375 107.758 90.7114 107.871 90.8052 107.966C90.899 108.061 91.0109 108.137 91.1341 108.188C91.2574 108.24 91.3898 108.266 91.5234 108.266C91.6646 108.278 91.8067 108.261 91.9408 108.215C92.0749 108.169 92.198 108.096 92.3023 108C92.4067 107.905 92.49 107.788 92.547 107.658C92.604 107.529 92.6334 107.389 92.6334 107.247C92.6334 107.105 92.604 106.965 92.547 106.835C92.49 106.706 92.4067 106.589 92.3023 106.493C92.198 106.398 92.0749 106.325 91.9408 106.279C91.8067 106.233 91.6646 106.216 91.5234 106.228C91.2554 106.23 90.9989 106.338 90.8101 106.528C90.6212 106.718 90.5152 106.975 90.5152 107.243Z" fill="#2F3646"/>
<path d="M99.0685 106.932C99.0665 107.066 99.0911 107.199 99.1408 107.324C99.1905 107.448 99.2643 107.561 99.358 107.657C99.4517 107.753 99.5635 107.829 99.6868 107.882C99.8102 107.934 99.9426 107.961 100.077 107.962C100.347 107.962 100.607 107.856 100.8 107.666C100.993 107.476 101.103 107.218 101.107 106.947C101.085 106.692 100.968 106.454 100.78 106.28C100.591 106.107 100.344 106.011 100.088 106.011C99.8315 106.011 99.5846 106.107 99.3958 106.28C99.2071 106.454 99.0903 106.692 99.0685 106.947V106.932Z" fill="#2F3646"/>
<path d="M98.5054 102.485L101.232 102.789C101.183 102.498 101.048 102.228 100.845 102.015C100.642 101.801 100.379 101.652 100.091 101.589C99.7695 101.575 99.4506 101.652 99.1704 101.811C98.8902 101.969 98.6598 102.203 98.5054 102.485Z" fill="#2F3646"/>
<path d="M92.5773 102.686H89.8281C89.9125 102.402 90.0797 102.151 90.3081 101.963C90.5366 101.776 90.8159 101.661 91.1101 101.633C91.4279 101.656 91.7332 101.767 91.9922 101.952C92.2512 102.138 92.4537 102.392 92.5773 102.686Z" fill="#2F3646"/>
<path d="M92.1411 114.171L96.061 115.379C95.8126 115.84 95.4209 116.208 94.9451 116.427C94.4692 116.647 93.935 116.705 93.423 116.594C92.4597 116.328 92.0225 115.164 92.1411 114.171Z" fill="white"/>
<path d="M92.1411 114.171L96.061 115.379C95.8126 115.84 95.4209 116.208 94.9451 116.427C94.4692 116.647 93.935 116.705 93.423 116.594C92.4597 116.328 92.0225 115.164 92.1411 114.171Z" fill="#5E2828"/>
<path d="M94.703 116.514C94.2928 116.667 93.8467 116.695 93.4205 116.595C93.0566 116.459 92.7413 116.218 92.5143 115.903C92.2873 115.587 92.159 115.212 92.1455 114.824C92.7072 114.723 93.286 114.843 93.762 115.158C94.238 115.472 94.5749 115.958 94.703 116.514Z" fill="white"/>
<path d="M94.703 116.514C94.2928 116.667 93.8467 116.695 93.4205 116.595C93.0566 116.459 92.7413 116.218 92.5143 115.903C92.2873 115.587 92.159 115.212 92.1455 114.824C92.7072 114.723 93.286 114.843 93.762 115.158C94.238 115.472 94.5749 115.958 94.703 116.514Z" fill="#C7C3C1"/>
<path d="M94.3769 130.844C90.8053 130.785 90.2865 136.557 87.0261 137.513L78.7119 127.398L81.2906 123.567C81.8066 122.804 82.4752 122.155 83.2543 121.663V123.049C83.2641 123.455 83.3775 123.852 83.5837 124.202C83.7898 124.552 84.082 124.844 84.4325 125.049L94.3769 130.844Z" fill="#A7ADB6"/>
<path d="M94.3765 130.844C96.355 130.229 99.319 132.704 99.319 132.704C98.2816 126.968 95.1397 121.678 94.3765 121.678V130.844Z" fill="#A7ADB6"/>
<path d="M91.5021 58.5654C92.5765 57.943 93.2434 58.1949 93.2509 59.2175C93.2175 59.7733 93.0401 60.3108 92.736 60.7772C92.432 61.2436 92.0119 61.6229 91.5169 61.8778L90.8352 62.2705V63.4487L89.7236 64.086V59.5954L91.5021 58.5654ZM91.4502 60.9144C91.6482 60.8188 91.8163 60.671 91.9364 60.4869C92.0565 60.3027 92.1241 60.0893 92.1319 59.8696C92.1319 59.4546 91.9022 59.3361 91.4428 59.6028L90.8277 59.9585V61.2701L91.4428 60.9144" fill="white"/>
<path d="M96.5479 58.7658L97.4001 59.692L96.2145 60.3738L95.4735 59.5883L94.8732 59.9366V61.1296L93.7617 61.7743V57.2763L95.5402 56.2167C96.6072 55.6016 97.2741 55.8536 97.2815 56.8762C97.2801 57.5753 97.0186 58.2488 96.5479 58.7658ZM95.5105 58.6027C95.7086 58.5052 95.8765 58.3559 95.9965 58.1707C96.1166 57.9854 96.1842 57.7711 96.1923 57.5505C96.1923 57.1355 95.9625 57.0244 95.5031 57.2837L94.8881 57.6394V58.9584L95.5031 58.6027" fill="white"/>
<path d="M99.883 53.6306C101.135 52.8896 102.062 53.3713 102.069 54.7125C102.031 55.4441 101.813 56.1549 101.434 56.7819C101.056 57.4089 100.528 57.9326 99.8978 58.3064C98.6529 59.0474 97.7266 58.5732 97.7192 57.2246C97.7595 56.4945 97.9777 55.7853 98.3548 55.1589C98.732 54.5325 99.2566 54.0078 99.883 53.6306ZM99.883 57.2542C100.202 57.0501 100.465 56.7699 100.649 56.4387C100.833 56.1075 100.931 55.7359 100.935 55.3572C100.935 54.6162 100.468 54.342 99.8756 54.6903C99.5646 54.891 99.3075 55.1647 99.1266 55.4876C98.9458 55.8105 98.8468 56.1728 98.8382 56.5428C98.8382 57.3283 99.305 57.5654 99.8978 57.2246" fill="white"/>
<path d="M105.708 50.3625L105.715 51.3407L103.752 52.4744L103.759 53.46L105.486 52.467V53.4526L103.759 54.4455L103.766 55.9868L102.655 56.6241L102.647 52.1336L105.708 50.3625Z" fill="white"/>
<path d="M107.337 49.4215L107.352 53.912L106.24 54.5567L106.233 50.0588L107.337 49.4215Z" fill="white"/>
<path d="M109.227 48.3323L109.241 51.815L111.101 50.7406L111.109 51.7483L108.137 53.4601L108.123 48.9695L109.227 48.3323Z" fill="white"/>
<path d="M114.601 45.2274V46.213L112.63 47.3467L112.637 48.1026L114.371 47.1022V48.0507L112.637 49.051V49.8736L114.683 48.7028V49.6809L111.548 51.4964L111.533 46.9984L114.601 45.2274Z" fill="white"/>
<path d="M118.763 42.8261C120.06 42.0851 120.942 42.4334 120.949 43.8117C120.919 44.5341 120.703 45.2365 120.321 45.8506C119.939 46.4648 119.405 46.9698 118.771 47.3167L116.926 48.3911V43.9006L118.763 42.8261ZM118.726 46.3311C119.057 46.1403 119.333 45.8676 119.528 45.5393C119.722 45.2109 119.829 44.838 119.838 44.4563C119.838 43.7153 119.386 43.4856 118.719 43.8709L118.022 44.2711V46.7313L118.719 46.3311" fill="white"/>
<path d="M123.818 39.9069L125.559 43.397L124.411 44.0639L124.1 43.3674L122.447 44.3233L122.143 45.3755L121.017 46.0276L122.729 40.5367L123.818 39.9069ZM122.773 43.2044L123.774 42.6264L123.27 41.4778L122.773 43.2044Z" fill="white"/>
<path d="M131.369 35.5497L133.11 39.0399L131.962 39.7068L131.65 39.0102L129.998 39.9661L129.694 41.0184L128.568 41.663L130.28 36.1795L131.369 35.5497ZM130.317 38.8398L131.324 38.2618L130.813 37.1132L130.317 38.8398Z" fill="white"/>
<path d="M128.797 37.032L128.805 38.0398L127.612 38.7289L127.619 42.2117L126.515 42.8489L126.5 39.3662L125.307 40.0553L125.3 39.0475L128.797 37.032Z" fill="white"/>
<path d="M96.3491 63.0712V66.1686L127.687 48.0805V44.9905L96.3491 63.0712Z" fill="#F995A6"/>
<g opacity="0.6">
<path opacity="0.7" d="M96.3491 63.0712V66.1686L127.687 48.0805V44.9905L96.3491 63.0712Z" fill="white"/>
</g>
<path d="M104.181 64.0859V67.176L122.41 56.5943V53.5043L104.181 64.0859Z" fill="#F995A6"/>
<g opacity="0.6">
<path opacity="0.7" d="M104.181 64.0859V67.176L122.41 56.5943V53.5043L104.181 64.0859Z" fill="white"/>
</g>
<path d="M113.784 83.9375V87.0275L156.718 62.2776V59.1876L113.784 83.9375Z" fill="#F995A6"/>
<path d="M113.784 89.236V92.326L147.174 73.0893V69.9993L113.784 89.236Z" fill="#F995A6"/>
<path d="M113.784 98.6321V101.722L156.718 76.9797V73.8896L113.784 98.6321Z" fill="#F995A6"/>
<path d="M113.784 103.938V107.028L156.718 82.3078V79.2178L113.784 103.938Z" fill="#F995A6"/>
<path d="M113.784 109.058V112.148L146.166 93.5486V90.4586L113.784 109.058Z" fill="#F995A6"/>
<path d="M113.784 66.183V71.4739L145.121 53.3931V48.1023L113.784 66.183Z" fill="#F995A6"/>
<path d="M113.784 74.1863V77.5134L134.606 65.5535V62.2263L113.784 74.1863Z" fill="#F995A6"/>
<g opacity="0.6">
<path opacity="0.7" d="M113.785 83.938V87.028L156.719 62.2781V59.1881L113.785 83.938Z" fill="white"/>
<path opacity="0.7" d="M113.785 89.236V92.326L147.175 73.0893V69.9993L113.785 89.236Z" fill="white"/>
<path opacity="0.7" d="M113.785 98.6316V101.722L156.719 76.9792V73.8892L113.785 98.6316Z" fill="white"/>
<path opacity="0.7" d="M113.785 103.938V107.028L156.719 82.3078V79.2178L113.785 103.938Z" fill="white"/>
<path opacity="0.7" d="M113.785 109.058V112.148L146.167 93.5486V90.4586L113.785 109.058Z" fill="white"/>
<path opacity="0.7" d="M113.784 66.1836V71.4745L145.121 53.3937V48.1029L113.784 66.1836Z" fill="white"/>
<path opacity="0.7" d="M113.785 74.1863V77.5134L134.607 65.5535V62.2263L113.785 74.1863Z" fill="white"/>
</g>
<path d="M116.734 115.431L117.704 117.128L119.868 116.239L118.312 118.899L118.682 121.159L116.748 121.107L114.814 123.397L115.177 120.707L113.606 119.855L115.77 118.247L116.734 115.431Z" fill="#F995A6"/>
<path d="M126.123 110.014L127.094 111.711L129.258 110.821L127.694 113.482L128.072 115.742L126.138 115.69L124.204 117.972L124.567 115.282L122.996 114.438L125.152 112.83L126.123 110.014Z" fill="#F995A6"/>
<path d="M135.503 104.59L136.481 106.287L138.638 105.397L137.081 108.058L137.459 110.318L135.525 110.266L133.584 112.555L133.954 109.866L132.376 109.013L134.54 107.405L135.503 104.59Z" fill="#F995A6"/>
<path d="M144.893 99.1733L145.863 100.87L148.027 99.981L146.471 102.641L146.849 104.901L144.908 104.85L142.973 107.139L143.337 104.449L141.766 103.597L143.937 101.989L144.893 99.1733Z" fill="#CD2945"/>
<path d="M154.282 93.7565L155.253 95.4534L157.416 94.5642L155.86 97.2244L156.238 99.4771L154.297 99.4326L152.363 101.715L152.726 99.0251L151.155 98.1803L153.319 96.5649L154.282 93.7565Z" fill="#CD2945"/>
<path d="M116.734 123.62L117.704 125.317L119.868 124.42L118.312 127.08L118.682 129.348L116.748 129.296L114.814 131.578L115.177 128.896L113.606 128.043L115.77 126.435L116.734 123.62Z" fill="#F995A6"/>
<path d="M126.123 118.195L127.094 119.892L129.258 119.002L127.694 121.663L128.072 123.93L126.138 123.871L124.204 126.16L124.567 123.471L122.996 122.618L125.152 121.01L126.123 118.195Z" fill="#F995A6"/>
<path d="M135.503 112.778L136.481 114.475L138.638 113.586L137.081 116.246L137.459 118.506L135.525 118.454L133.584 120.737L133.954 118.054L132.376 117.202L134.54 115.594L135.503 112.778Z" fill="#F995A6"/>
<path d="M144.893 107.361L145.863 109.058L148.027 108.169L146.471 110.829L146.849 113.082L144.908 113.038L142.973 115.32L143.337 112.63L141.766 111.778L143.937 110.17L144.893 107.361Z" fill="#F995A6"/>
<path d="M154.282 101.937L155.253 103.634L157.416 102.745L155.86 105.405L156.238 107.665L154.297 107.613L152.363 109.903L152.726 107.213L151.155 106.361L153.319 104.753L154.282 101.937Z" fill="#CD2945"/>
<path d="M116.734 131.8L117.704 133.497L119.868 132.608L118.312 135.268L118.682 137.528L116.748 137.476L114.814 139.766L115.177 137.076L113.606 136.224L115.77 134.616L116.734 131.8Z" fill="#F995A6"/>
<path d="M126.123 126.383L127.094 128.08L129.258 127.191L127.694 129.851L128.072 132.111L126.138 132.059L124.204 134.342L124.567 131.659L122.996 130.807L125.152 129.199L126.123 126.383Z" fill="#F995A6"/>
<path d="M135.503 120.966L136.481 122.663L138.638 121.774L137.081 124.434L137.459 126.687L135.525 126.643L133.584 128.925L133.954 126.235L132.376 125.383L134.54 123.782L135.503 120.966Z" fill="#F995A6"/>
<path d="M144.893 115.542L145.863 117.239L148.027 116.35L146.471 119.01L146.849 121.27L144.908 121.218L142.973 123.508L143.337 120.818L141.766 119.966L143.937 118.358L144.893 115.542Z" fill="#CD2945"/>
<path d="M154.282 110.125L155.253 111.822L157.416 110.933L155.86 113.593L156.238 115.853L154.297 115.801L152.363 118.091L152.726 115.401L151.155 114.549L153.319 112.934L154.282 110.125Z" fill="#CD2945"/>
<g opacity="0.8">
<path d="M116.733 115.431L117.703 117.128L119.867 116.239L118.311 118.899L118.681 121.159L116.747 121.107L114.813 123.397L115.176 120.707L113.605 119.855L115.769 118.247L116.733 115.431Z" fill="white"/>
<path d="M126.122 110.014L127.093 111.711L129.257 110.822L127.693 113.482L128.071 115.742L126.137 115.69L124.203 117.973L124.566 115.283L122.995 114.438L125.151 112.83L126.122 110.014Z" fill="white"/>
<path d="M135.502 104.59L136.48 106.287L138.637 105.398L137.08 108.058L137.458 110.318L135.524 110.266L133.583 112.556L133.953 109.866L132.375 109.014L134.539 107.406L135.502 104.59Z" fill="white"/>
</g>
<g opacity="0.8">
<path d="M116.733 123.62L117.703 125.317L119.867 124.42L118.311 127.08L118.681 129.348L116.747 129.296L114.813 131.578L115.176 128.896L113.605 128.044L115.769 126.436L116.733 123.62Z" fill="white"/>
<path d="M126.122 118.195L127.093 119.892L129.257 119.003L127.693 121.663L128.071 123.931L126.137 123.871L124.203 126.161L124.566 123.471L122.995 122.619L125.151 121.011L126.122 118.195Z" fill="white"/>
<path d="M135.502 112.778L136.48 114.475L138.637 113.586L137.08 116.246L137.458 118.506L135.524 118.455L133.583 120.737L133.953 118.054L132.375 117.202L134.539 115.594L135.502 112.778Z" fill="white"/>
<path d="M144.892 107.362L145.862 109.058L148.026 108.169L146.47 110.83L146.848 113.082L144.907 113.038L142.972 115.32L143.336 112.63L141.765 111.778L143.936 110.17L144.892 107.362Z" fill="white"/>
</g>
<g opacity="0.8">
<path d="M116.733 131.8L117.703 133.497L119.867 132.608L118.311 135.268L118.681 137.528L116.747 137.476L114.813 139.766L115.176 137.076L113.605 136.224L115.769 134.616L116.733 131.8Z" fill="white"/>
<path d="M126.123 126.383L127.093 128.08L129.257 127.191L127.694 129.851L128.072 132.111L126.137 132.059L124.203 134.342L124.567 131.659L122.996 130.807L125.152 129.199L126.123 126.383Z" fill="white"/>
<path d="M135.502 120.966L136.48 122.663L138.637 121.774L137.08 124.434L137.458 126.687L135.524 126.643L133.583 128.925L133.953 126.235L132.375 125.383L134.539 123.782L135.502 120.966Z" fill="white"/>
</g>
<path d="M77.2602 166.042L66.1895 172.467V185.279L75.3336 179.988L77.2602 176.009V166.042Z" fill="#F995A6"/>
<path opacity="0.1" d="M77.2602 166.042L66.1895 172.467V185.279L75.3336 179.988L77.2602 176.009V166.042Z" fill="#690113"/>
<path d="M75.3335 179.988L77.2601 176.009L75.3335 177.12V179.988Z" fill="#F995A6"/>
<path opacity="0.3" d="M75.3335 179.988L77.2601 176.009L75.3335 177.12V179.988Z" fill="#171E2F"/>
<path d="M79.5186 164.752V167.457L109.737 150.029V147.324L79.5186 164.752Z" fill="#F995A6"/>
<path d="M79.5186 169.392V172.096L109.737 154.69V151.985L79.5186 169.392Z" fill="#F995A6"/>
<path d="M79.5186 173.867V176.572L100.511 164.523V161.818L79.5186 173.867Z" fill="#F995A6"/>
<g opacity="0.6">
<path opacity="0.7" d="M79.5186 164.753V167.458L109.737 150.029V147.324L79.5186 164.753Z" fill="white"/>
<path opacity="0.7" d="M79.5186 169.391V172.096L109.737 154.689V151.984L79.5186 169.391Z" fill="white"/>
<path opacity="0.7" d="M79.5186 173.867V176.572L100.511 164.523V161.818L79.5186 173.867Z" fill="white"/>
</g>
<path d="M77.2602 183.241L66.1895 189.659V202.478L75.3336 197.18L77.2602 193.201V183.241Z" fill="#F995A6"/>
<path opacity="0.1" d="M77.2602 183.241L66.1895 189.659V202.478L75.3336 197.18L77.2602 193.201V183.241Z" fill="#690113"/>
<path d="M75.3335 197.179L77.2601 193.2L75.3335 194.319V197.179Z" fill="#F995A6"/>
<path opacity="0.3" d="M75.3335 197.179L77.2601 193.2L75.3335 194.319V197.179Z" fill="#171E2F"/>
<path d="M79.5186 181.952V184.657L110.071 167.043V164.338L79.5186 181.952Z" fill="#F995A6"/>
<path d="M79.5186 186.591V189.288L110.071 171.704V168.999L79.5186 186.591Z" fill="#F995A6"/>
<path d="M79.5186 191.066V193.771L86.1358 190.044V187.339L79.5186 191.066Z" fill="#F995A6"/>
<g opacity="0.6">
<path opacity="0.7" d="M79.5186 181.952V184.657L110.071 167.043V164.338L79.5186 181.952Z" fill="white"/>
<path opacity="0.7" d="M79.5186 186.59V189.287L110.071 171.703V168.998L79.5186 186.59Z" fill="white"/>
<path opacity="0.7" d="M79.5186 191.066V193.771L86.1358 190.043V187.339L79.5186 191.066Z" fill="white"/>
</g>
<path d="M77.2602 200.44L66.1895 206.857V219.669L75.3336 214.379L77.2602 210.399V200.44Z" fill="#F995A6"/>
<path opacity="0.1" d="M77.2602 200.44L66.1895 206.857V219.669L75.3336 214.379L77.2602 210.399V200.44Z" fill="#690113"/>
<path d="M75.3335 214.379L77.2601 210.399L75.3335 211.511V214.379Z" fill="#F995A6"/>
<path opacity="0.3" d="M75.3335 214.379L77.2601 210.399L75.3335 211.511V214.379Z" fill="#171E2F"/>
<path d="M79.5186 199.151V201.848L110.36 183.945V181.24L79.5186 199.151Z" fill="#F995A6"/>
<path d="M79.5186 203.782V206.487L110.36 188.606V185.901L79.5186 203.782Z" fill="#F995A6"/>
<path d="M79.5186 208.258V210.962L110.36 193.119V190.414L79.5186 208.258Z" fill="#F995A6"/>
<g opacity="0.6">
<path opacity="0.7" d="M79.5186 199.151V201.848L110.36 183.945V181.241L79.5186 199.151Z" fill="white"/>
<path opacity="0.7" d="M79.5186 203.782V206.486L110.36 188.606V185.901L79.5186 203.782Z" fill="white"/>
<path opacity="0.7" d="M79.5186 208.258V210.962L110.36 193.119V190.414L79.5186 208.258Z" fill="white"/>
</g>
<path d="M156.208 170.659L115.045 194.371C114.923 194.444 114.784 194.482 114.642 194.483C114.5 194.484 114.36 194.447 114.237 194.376C114.114 194.305 114.013 194.203 113.942 194.08C113.872 193.956 113.836 193.817 113.837 193.675V147.25C113.836 146.825 113.947 146.408 114.159 146.04C114.371 145.671 114.677 145.366 115.045 145.153L156.208 121.396C156.331 121.326 156.47 121.29 156.612 121.29C156.754 121.291 156.893 121.329 157.015 121.4C157.137 121.471 157.239 121.574 157.309 121.697C157.38 121.819 157.416 121.959 157.416 122.1V168.54C157.421 168.968 157.311 169.391 157.099 169.763C156.887 170.135 156.579 170.445 156.208 170.659Z" fill="#F995A6"/>
<path d="M128.441 141.374L117.371 147.798V160.611L126.522 155.32L128.441 151.341V141.374Z" fill="#F995A6"/>
<path opacity="0.3" d="M128.441 141.374L117.371 147.798V160.611L126.522 155.32L128.441 151.341V141.374Z" fill="#690113"/>
<path d="M126.522 155.32L128.442 151.34L126.522 152.452V155.32Z" fill="#F995A6"/>
<path opacity="0.5" d="M126.522 155.32L128.442 151.34L126.522 152.452V155.32Z" fill="#171E2F"/>
<path d="M131.059 141.648V143.448L155.008 129.629V127.828L131.059 141.648Z" fill="#F995A6"/>
<path d="M131.059 146.531L155.008 132.726V130.926L131.059 144.731V146.531Z" fill="#F995A6"/>
<path d="M131.059 149.71L155.008 135.89V134.097L131.059 147.917V149.71Z" fill="#F995A6"/>
<path d="M144.13 143.449L131.059 151V152.8L144.13 145.242V143.449Z" fill="#F995A6"/>
<path d="M117.371 165.175L155.007 143.538V141.744L117.371 163.375V165.175Z" fill="#F995A6"/>
<path d="M145.292 150.436L117.371 166.464V168.258L145.292 152.237V150.436Z" fill="#F995A6"/>
<path d="M117.371 179.736L155.007 158.099V156.305L117.371 177.936V179.736Z" fill="#F995A6"/>
<path d="M138.282 169.021L117.371 181.018V182.819L138.282 170.814V169.021Z" fill="#F995A6"/>
<path d="M117.371 185.998L155.007 164.368V162.567L117.371 184.205V185.998Z" fill="#F995A6"/>
<path d="M117.371 189.088L136.192 178.276V176.476L117.371 187.287V189.088Z" fill="#F995A6"/>
<path d="M138.787 176.779L144.685 173.393V171.592L138.787 174.986V176.779Z" fill="#F995A6"/>
<path d="M117.371 171.444L155.007 149.807V148.013L117.371 169.644V171.444Z" fill="#F995A6"/>
<path d="M130.501 165.183L117.371 172.726V174.527L130.501 166.983V165.183Z" fill="#F995A6"/>
<g opacity="0.3">
<path opacity="0.3" d="M131.059 141.648V143.449L155.008 129.629V127.828L131.059 141.648Z" fill="white"/>
<path opacity="0.3" d="M131.059 146.531L155.008 132.726V130.925L131.059 144.73V146.531Z" fill="white"/>
<path opacity="0.3" d="M131.059 149.71L155.008 135.89V134.097L131.059 147.917V149.71Z" fill="white"/>
<path opacity="0.3" d="M144.13 143.449L131.059 151V152.8L144.13 145.242V143.449Z" fill="white"/>
<path opacity="0.3" d="M117.371 165.175L155.007 143.537V141.744L117.371 163.374V165.175Z" fill="white"/>
<path opacity="0.3" d="M145.292 150.436L117.371 166.464V168.258L145.292 152.237V150.436Z" fill="white"/>
<path opacity="0.3" d="M117.371 179.736L155.007 158.098V156.305L117.371 177.935V179.736Z" fill="white"/>
<path opacity="0.3" d="M138.282 169.021L117.371 181.018V182.819L138.282 170.814V169.021Z" fill="white"/>
<path opacity="0.3" d="M117.371 185.997L155.007 164.367V162.567L117.371 184.204V185.997Z" fill="white"/>
<path opacity="0.3" d="M117.371 189.088L136.193 178.276V176.476L117.371 187.287V189.088Z" fill="white"/>
<path opacity="0.3" d="M138.787 176.779L144.685 173.393V171.592L138.787 174.986V176.779Z" fill="white"/>
<path opacity="0.3" d="M117.371 171.444L155.007 149.806V148.013L117.371 169.643V171.444Z" fill="white"/>
<path opacity="0.3" d="M130.502 165.182L117.371 172.726V174.527L130.502 166.983V165.182Z" fill="white"/>
</g>
<path d="M170.362 251.893C171.2 252.698 172.195 253.321 173.286 253.722C174.376 254.124 175.537 254.296 176.697 254.228C179.017 254.077 181.29 253.504 183.404 252.538C185.545 251.656 188.235 249.189 190.554 249.233C192.831 249.229 195.105 249.085 197.364 248.803C197.443 245.714 197.119 242.628 196.401 239.622L185.582 239.333C182.663 243.335 176.979 246.662 172.681 247.914C172.02 248.101 171.422 248.465 170.952 248.966C170.482 249.468 170.157 250.088 170.013 250.76C170.01 250.782 170.01 250.804 170.013 250.826C170.084 251.195 170.201 251.554 170.362 251.893Z" fill="#40495E"/>
<path d="M184.138 144.454C184.138 144.454 181.263 180.393 181.515 190.397C181.767 200.4 182.819 239.896 182.819 239.896C188.696 243.172 197.188 240.734 197.188 240.734C197.877 209.196 200.996 202.416 198.877 190.871C200.359 182.305 202.441 162.334 202.441 162.334C205.368 186.351 207.495 198.726 207.495 198.726L214.49 246.803C220.233 249.656 227.48 246.803 227.48 246.803C227.48 219.385 228.103 207.803 225.102 189.745C225.078 173.768 224.088 157.807 222.138 141.949L184.138 144.454Z" fill="#2F3646"/>
<path d="M184.138 144.454C184.138 144.454 181.263 180.393 181.515 190.397C181.767 200.4 182.819 239.896 182.819 239.896C188.696 243.172 197.188 240.734 197.188 240.734C197.877 209.196 200.996 202.416 198.877 190.871C200.359 182.305 202.441 162.334 202.441 162.334C205.368 186.351 207.495 198.726 207.495 198.726L214.49 246.803C220.233 249.656 227.48 246.803 227.48 246.803C227.48 219.385 228.103 207.803 225.102 189.745C225.078 173.768 224.088 157.807 222.138 141.949L184.138 144.454Z" fill="url(#paint1_linear_652_63631)"/>
<path opacity="0.2" d="M191.082 153.739C193.09 158.415 199.374 158.415 199.374 158.415L200.5 163.743L200.078 182.668C201.286 173.465 202.442 162.327 202.442 162.327L201.664 156.636C197.915 156.85 194.199 155.832 191.082 153.739Z" fill="#171E2F"/>
<path d="M193.726 88.7448C183.908 88.7448 182.3 92.561 179.817 98.8892C177.335 105.217 175.416 116.518 175.416 116.518L184.908 114.473L188.613 93.0945L193.726 88.7448Z" fill="#2F3646"/>
<path d="M193.726 88.7448C183.908 88.7448 182.3 92.561 179.817 98.8892C177.335 105.217 175.416 116.518 175.416 116.518L184.908 114.473L188.613 93.0945L193.726 88.7448Z" fill="url(#paint2_linear_652_63631)"/>
<path d="M193.726 88.7448C183.908 88.7448 182.3 92.561 179.817 98.8892C177.335 105.217 175.416 116.518 175.416 116.518L184.908 114.473L188.613 93.0945L193.726 88.7448Z" fill="url(#paint3_linear_652_63631)"/>
<path d="M193.726 88.7448C183.908 88.7448 182.3 92.561 179.817 98.8892C177.335 105.217 175.416 116.518 175.416 116.518L184.908 114.473L188.613 93.0945L193.726 88.7448Z" fill="url(#paint4_linear_652_63631)"/>
<path d="M184.908 112.924C182.426 112.754 179.941 113.205 177.676 114.235C176.779 114.594 175.982 115.166 175.357 115.903C175.052 116.277 174.854 116.726 174.784 117.204C174.714 117.681 174.773 118.168 174.957 118.615C174.053 120.275 174.134 122.742 174.319 124.773C174.338 125.164 174.423 125.55 174.571 125.914C174.649 126.092 174.765 126.251 174.911 126.379C175.057 126.507 175.229 126.601 175.416 126.655L184.908 118.118V112.924Z" fill="#1D253A"/>
<path opacity="0.2" d="M181.656 115.029C178.285 114.762 175.847 116.703 174.75 117.696C174.753 118.014 174.823 118.327 174.957 118.615C175.736 117.437 179.048 115.295 181.656 115.029Z" fill="#171E2F"/>
<path opacity="0.2" d="M177.973 118.244C180.081 117.03 182.476 116.4 184.909 116.421V115.636C182.367 115.687 179.919 116.607 177.973 118.244Z" fill="#171E2F"/>
<path d="M220.938 89.367L216.329 88.8779L193.728 88.7223C185.807 88.7223 184.791 98.4666 184.339 107.092C183.887 115.717 185.34 133.065 183.376 144.654L192.809 150.745L195.455 147.892L199.678 151.827C214.017 151.827 222.464 143.869 223.539 142.498L220.938 89.367Z" fill="#F995A6"/>
<path opacity="0.2" d="M220.938 89.367L216.329 88.8779L193.728 88.7223C185.807 88.7223 184.791 98.4666 184.339 107.092C183.887 115.717 185.34 133.065 183.376 144.654L192.809 150.745L195.455 147.892L199.678 151.827C214.017 151.827 222.464 143.869 223.539 142.498L220.938 89.367Z" fill="white"/>
<path d="M197.416 91.7087C195.304 98.4371 196.631 107.818 197.416 112.035C202.774 104.676 207.791 97.2885 209.354 94.3986L201.885 90.775L197.416 91.7087Z" fill="#2F3646"/>
<path d="M197.416 91.7087C195.304 98.4371 196.631 107.818 197.416 112.035C202.774 104.676 207.791 97.2885 209.354 94.3986L201.885 90.775L197.416 91.7087Z" fill="url(#paint5_linear_652_63631)"/>
<path d="M197.416 91.7087C195.304 98.4371 196.631 107.818 197.416 112.035C202.774 104.676 207.791 97.2885 209.354 94.3986L201.885 90.775L197.416 91.7087Z" fill="url(#paint6_linear_652_63631)"/>
<path d="M197.416 91.7087C195.304 98.4371 196.631 107.818 197.416 112.035C202.774 104.676 207.791 97.2885 209.354 94.3986L201.885 90.775L197.416 91.7087Z" fill="url(#paint7_linear_652_63631)"/>
<path opacity="0.2" d="M196.707 112.553L194.277 115.814C193.611 116.707 193.283 117.807 193.35 118.919L194.981 146.032L192.18 119.126C192.099 118.37 192.204 117.605 192.484 116.898C192.764 116.191 193.211 115.562 193.788 115.065L196.707 112.553Z" fill="#171E2F"/>
<path d="M220.937 89.3672L224.005 89.8563C225.815 90.1475 227.495 90.9836 228.818 92.2531C230.142 93.5227 231.048 95.1654 231.415 96.9626C233.131 105.522 233.8 114.259 233.408 122.98L219.418 116.533C217.921 105.595 215.046 96.5624 220.937 89.3672Z" fill="url(#paint8_linear_652_63631)"/>
<path d="M220.937 89.3672L224.005 89.8563C225.815 90.1475 227.495 90.9836 228.818 92.2531C230.142 93.5227 231.048 95.1654 231.415 96.9626C233.131 105.522 233.8 114.259 233.408 122.98L219.418 116.533C217.921 105.595 215.046 96.5624 220.937 89.3672Z" fill="url(#paint9_linear_652_63631)"/>
<path d="M220.937 89.3672L224.005 89.8563C225.815 90.1475 227.495 90.9836 228.818 92.2531C230.142 93.5227 231.048 95.1654 231.415 96.9626C233.131 105.522 233.8 114.259 233.408 122.98L219.418 116.533C217.921 105.595 215.046 96.5624 220.937 89.3672Z" fill="url(#paint10_linear_652_63631)"/>
<path d="M218.928 116.955C218.928 116.824 218.954 116.695 219.005 116.574C219.055 116.454 219.129 116.345 219.222 116.253C219.315 116.161 219.426 116.089 219.547 116.04C219.668 115.992 219.798 115.968 219.929 115.969C226.264 116.051 232.415 119.067 234.097 122.639C234.48 123.748 234.48 124.953 234.097 126.062C235.223 127.544 234.638 128.285 234.045 129.345C233.452 130.404 234.341 132.805 232.429 132.694L232.874 131.783C229.088 124.439 219.536 121.409 219.536 121.409L219.484 120.193C219.478 120.083 219.45 119.975 219.401 119.876C219.353 119.777 219.285 119.688 219.202 119.615C219.116 119.536 219.046 119.44 218.999 119.333C218.952 119.226 218.928 119.11 218.928 118.993V116.955Z" fill="#1D253A"/>
<path opacity="0.2" d="M226.095 119.978C229.201 121.339 231.943 123.413 234.098 126.032C234.22 125.659 234.307 125.274 234.357 124.884C233.305 123.572 231.03 121.157 226.095 119.978Z" fill="#171E2F"/>
<path opacity="0.2" d="M218.965 119.222C219.011 119.367 219.092 119.497 219.202 119.6C219.285 119.673 219.353 119.762 219.401 119.861C219.45 119.96 219.478 120.068 219.484 120.178V120.275C223.913 120.958 228.008 123.035 231.177 126.203C228.25 121.957 221.818 119.778 218.965 119.222Z" fill="#171E2F"/>
<path d="M219.3 121.575L219.292 121.405L219.248 120.452C213.932 118.651 206.63 117.922 199.937 117.638C195.125 117.433 190.65 117.459 187.465 117.478C186.178 117.485 185.102 117.491 184.299 117.48C183.342 117.481 182.266 117.865 181.185 118.505C180.107 119.142 179.043 120.022 178.114 120.985C177.185 121.948 176.399 122.987 175.873 123.938C175.339 124.902 175.099 125.73 175.19 126.289C175.215 126.443 175.239 126.594 175.262 126.742C175.338 127.226 175.41 127.682 175.515 128.114C175.653 128.673 175.843 129.17 176.16 129.597C176.785 130.439 177.954 131.078 180.413 131.272C182.145 131.381 184.696 131.104 186.831 130.794C187.895 130.64 188.85 130.479 189.539 130.356C189.883 130.295 190.161 130.243 190.352 130.207C190.448 130.189 190.522 130.175 190.572 130.165L190.629 130.154L190.644 130.151L190.647 130.15L190.648 130.15L190.648 130.15L190.696 130.389L190.648 130.15L190.709 130.138L190.768 130.156C200.092 133.02 209.254 134.2 216.436 134.599C223.623 134.999 228.808 134.616 230.178 134.366L230.187 134.364L230.187 134.364C230.761 134.281 231.267 133.848 231.646 133.392C231.831 133.169 231.977 132.951 232.077 132.788C232.127 132.707 232.165 132.64 232.19 132.594C232.203 132.571 232.212 132.553 232.218 132.542L232.225 132.529L232.225 132.528L232.226 132.526L232.226 132.525L219.3 121.575ZM219.3 121.575L219.463 121.626L219.463 121.626L219.464 121.627L219.469 121.628L219.488 121.634C219.506 121.64 219.532 121.649 219.567 121.66C219.636 121.684 219.739 121.719 219.871 121.767C220.137 121.863 220.521 122.008 220.994 122.204C221.942 122.598 223.244 123.199 224.664 124.027C227.481 125.668 230.736 128.186 232.616 131.727L219.3 121.575Z" fill="white" stroke="#C7C3C1" stroke-width="0.48817"/>
<path d="M227.005 125.795C226.721 124.863 225.901 124.909 225.309 124.135C223.492 123.009 221.556 122.09 219.536 121.393L219.484 120.275L218.788 120.045L218.928 121.43C215.875 121.638 197.98 128.411 190.696 129.871C192.126 130.308 192.993 130.619 194.401 130.982C202.552 128.159 214.416 122.52 219.595 121.719C223.204 122.646 225.316 123.394 227.005 125.795Z" fill="#C7C3C1"/>
<path d="M217.691 69.2559C218.81 65.5064 218.565 61.1937 216.32 57.9851C214.842 55.9479 212.772 54.416 210.392 53.5983C208.01 52.7876 205.491 52.4626 202.982 52.6424C201.003 52.6798 199.056 53.1476 197.276 54.0132C196.21 54.5821 195.266 55.3555 194.5 56.2894C193.733 57.2232 193.158 58.2991 192.808 59.4555C192.458 60.6118 192.339 61.8259 192.458 63.0282C192.578 64.2305 192.933 65.3975 193.504 66.4623C194.464 68.1001 195.72 69.5449 197.209 70.7231C200.086 73.1837 203.245 75.2932 206.62 77.0069C207.465 77.4367 208.324 77.8368 209.191 78.2147C209.777 78.4741 210.896 79.2003 211.555 79.0669C212.215 78.9335 212.911 77.696 213.311 77.1921C213.882 76.4511 214.438 75.7101 214.941 74.9691C216.131 73.2089 217.058 71.2841 217.691 69.2559Z" fill="#2F3646"/>
<path d="M217.691 69.2559C218.81 65.5064 218.565 61.1937 216.32 57.9851C214.842 55.9479 212.772 54.416 210.392 53.5983C208.01 52.7876 205.491 52.4626 202.982 52.6424C201.003 52.6798 199.056 53.1476 197.276 54.0132C196.21 54.5821 195.266 55.3555 194.5 56.2894C193.733 57.2232 193.158 58.2991 192.808 59.4555C192.458 60.6118 192.339 61.8259 192.458 63.0282C192.578 64.2305 192.933 65.3975 193.504 66.4623C194.464 68.1001 195.72 69.5449 197.209 70.7231C200.086 73.1837 203.245 75.2932 206.62 77.0069C207.465 77.4367 208.324 77.8368 209.191 78.2147C209.777 78.4741 210.896 79.2003 211.555 79.0669C212.215 78.9335 212.911 77.696 213.311 77.1921C213.882 76.4511 214.438 75.7101 214.941 74.9691C216.131 73.2089 217.058 71.2841 217.691 69.2559Z" fill="url(#paint11_linear_652_63631)"/>
<path d="M217.691 69.2559C218.81 65.5064 218.565 61.1937 216.32 57.9851C214.842 55.9479 212.772 54.416 210.392 53.5983C208.01 52.7876 205.491 52.4626 202.982 52.6424C201.003 52.6798 199.056 53.1476 197.276 54.0132C196.21 54.5821 195.266 55.3555 194.5 56.2894C193.733 57.2232 193.158 58.2991 192.808 59.4555C192.458 60.6118 192.339 61.8259 192.458 63.0282C192.578 64.2305 192.933 65.3975 193.504 66.4623C194.464 68.1001 195.72 69.5449 197.209 70.7231C200.086 73.1837 203.245 75.2932 206.62 77.0069C207.465 77.4367 208.324 77.8368 209.191 78.2147C209.777 78.4741 210.896 79.2003 211.555 79.0669C212.215 78.9335 212.911 77.696 213.311 77.1921C213.882 76.4511 214.438 75.7101 214.941 74.9691C216.131 73.2089 217.058 71.2841 217.691 69.2559Z" fill="url(#paint12_linear_652_63631)"/>
<path d="M200.537 97.9034L198.7 97.4662C197.81 99.8186 197.067 102.224 196.477 104.669C196.67 107.154 196.994 109.628 197.447 112.079C198.5 110.634 199.537 109.196 200.537 107.781C200.205 104.497 200.205 101.188 200.537 97.9034Z" fill="#F995A6"/>
<path opacity="0.2" d="M200.5 98.2964C200.5 98.163 200.5 98.0296 200.5 97.9036L198.662 97.4662C198.662 97.4662 198.617 97.57 198.558 97.7405C198.854 98.0098 199.214 98.1987 199.603 98.289C199.899 98.348 200.204 98.3505 200.5 98.2964Z" fill="#171E2F"/>
<path d="M201.529 93.0794L203.011 92.1458L206.39 93.9835C205.237 94.8756 203.855 95.4251 202.404 95.5692L201.529 93.0794Z" fill="#F995A6"/>
<path d="M199.291 92.7164L198.846 91.7086L197.142 92.7757C197.326 93.423 197.717 93.9927 198.254 94.3985L199.291 92.7164Z" fill="#F995A6"/>
<path opacity="0.2" d="M201.529 93.0794L203.011 92.1458L206.39 93.9835C205.237 94.8756 203.855 95.4251 202.404 95.5692L201.529 93.0794Z" fill="#171E2F"/>
<path opacity="0.2" d="M199.291 92.7164L198.846 91.7086L197.142 92.7757C197.326 93.423 197.717 93.9927 198.254 94.3985L199.291 92.7164Z" fill="#171E2F"/>
<path d="M202.375 95.5692C202.23 94.699 201.945 93.8582 201.531 93.0794L199.308 92.7163C198.898 93.2403 198.55 93.8097 198.27 94.4132C198.22 95.45 198.371 96.4868 198.715 97.4662C199.282 97.7604 199.913 97.9106 200.552 97.9034C201.389 97.335 202.027 96.5187 202.375 95.5692Z" fill="#F995A6"/>
<path d="M211.838 75.7695V86.0029C209.8 88.8114 201.242 92.3756 200.723 92.2867C200.1 92.183 200.723 86.6698 200.723 86.1882V82.0756C202.383 81.8236 204.02 81.5346 205.488 81.2234C206.921 80.9263 208.256 80.27 209.367 79.3161C210.478 78.3622 211.328 77.1419 211.838 75.7695Z" fill="white"/>
<path d="M204.604 83.6285C203.444 83.9487 202.263 84.1729 201.07 84.299V82.039C202.653 81.7828 204.215 81.489 205.614 81.1726C206.89 80.888 208.084 80.2839 209.098 79.4102C210.112 78.5365 210.916 77.4183 211.444 76.1478C211.185 77.9001 210.448 79.5324 209.324 80.8412C208.014 82.2056 206.384 83.1685 204.604 83.6285Z" fill="#C7C3C1"/>
<path d="M194.349 59.6523C196.026 61.2687 198.245 62.2036 200.573 62.2755C202.796 62.2755 204.886 61.5716 206.998 60.9936C207.197 62.0216 207.715 62.9605 208.48 63.676C209.32 64.3894 210.35 64.8425 211.444 64.9802C211.137 66.9443 211.137 68.9443 211.444 70.9083C211.47 71.1153 211.553 71.3111 211.684 71.4734C211.814 71.6358 211.988 71.7583 212.185 71.8272C212.926 72.0347 213.371 71.3085 213.712 70.7157C214.08 70.0251 214.612 69.435 215.26 68.9965C215.583 68.7779 215.955 68.6424 216.343 68.6024C216.731 68.5623 217.123 68.6188 217.483 68.7668C217.767 68.9114 218.019 69.1131 218.221 69.3591C218.424 69.6052 218.574 69.8904 218.661 70.197C218.834 70.8143 218.867 71.4623 218.758 72.094C218.624 73.1529 218.198 74.1536 217.528 74.9839C217.189 75.3939 216.771 75.7308 216.299 75.9741C215.826 76.2174 215.309 76.3621 214.779 76.3993C214.262 76.4446 213.742 76.3469 213.277 76.1169C212.812 75.8869 212.418 75.5334 212.141 75.0951L212.089 75.2877C212.016 75.6009 211.919 75.9081 211.8 76.2066C211.333 77.4492 210.559 78.5536 209.551 79.4177C208.544 80.2817 207.334 80.8773 206.035 81.1492C204.693 81.4307 203.204 81.6975 201.692 81.8902C200.951 82.0013 200.21 82.1125 199.469 82.2014C198.095 82.3658 196.709 81.9963 195.599 81.1689C194.489 80.3416 193.739 79.1196 193.504 77.7553C192.496 72.0866 192.178 65.3656 194.349 59.6523Z" fill="white"/>
<path d="M190.31 66.0252V67.3887L190.644 67.5813C190.83 68.4665 190.934 69.367 190.955 70.2712C190.977 71.1514 191.307 71.9959 191.888 72.6573C192.607 73.1882 193.497 73.4337 194.386 73.3464C195.095 73.4103 195.81 73.301 196.468 73.0278C197.234 72.5723 197.8 71.8446 198.054 70.99C198.357 70.1378 198.306 69.6414 198.676 68.6114C198.723 68.472 198.813 68.3511 198.933 68.266C199.052 68.1808 199.196 68.1357 199.343 68.1371C199.501 68.1266 199.658 68.167 199.792 68.2524C199.925 68.3377 200.027 68.4635 200.084 68.6114C200.477 69.6414 200.425 70.1378 200.744 70.99C201.029 71.8604 201.636 72.5891 202.44 73.0278C203.148 73.2996 203.908 73.4086 204.663 73.3464C205.606 73.4359 206.55 73.192 207.331 72.6573C207.948 72.0134 208.302 71.1625 208.324 70.2712C208.349 69.366 208.46 68.4652 208.658 67.5813L209.021 67.3887V66.0252C207.565 65.4216 205.983 65.1889 204.415 65.348C202.848 65.5071 201.344 66.053 200.04 66.9367H198.735C197.537 66.0533 196.126 65.5035 194.646 65.3434C193.166 65.1833 191.67 65.4185 190.31 66.0252ZM200.684 67.3664C202.059 66.5036 203.648 66.0417 205.271 66.0326C206.04 66.0331 206.805 66.1378 207.546 66.3439C207.605 67.3813 207.642 68.8188 207.598 69.4709C207.598 69.7081 207.598 69.9452 207.546 70.1749C207.545 70.8798 207.281 71.5589 206.805 72.0793C206.147 72.5055 205.362 72.6938 204.582 72.6128H204.286C203.742 72.6445 203.198 72.556 202.692 72.3535C202.053 71.996 201.572 71.4115 201.344 70.7158C201.028 69.8815 200.81 69.0138 200.692 68.1297L200.64 67.6406C200.64 67.6406 200.647 67.4109 200.721 67.3664H200.684ZM191.592 66.3439C192.285 66.138 193.003 66.0332 193.726 66.0326C195.254 66.0445 196.745 66.5086 198.009 67.3664C198.083 67.4109 198.061 67.6406 198.061 67.6406L198.017 68.1297C197.906 69.0114 197.699 69.8785 197.402 70.7158C197.199 71.3989 196.75 71.9825 196.142 72.3535C195.675 72.5548 195.167 72.6436 194.66 72.6128H194.4C193.67 72.6889 192.936 72.4996 192.333 72.0793C191.863 71.5552 191.6 70.8785 191.592 70.1749C191.592 69.9452 191.592 69.7081 191.54 69.4709C191.54 68.8188 191.577 67.3813 191.629 66.3439H191.592Z" fill="#2F3646"/>
<path d="M208.999 66.0249L216.313 68.6555C215.787 68.7506 215.294 68.9804 214.883 69.3224C214.801 69.3891 208.999 67.3884 208.999 67.3884V66.0249Z" fill="#2F3646"/>
<path d="M199.373 68.2479L195.683 72.7162L199.07 73.9093L199.373 68.2479Z" fill="white"/>
<path d="M199.373 68.2479L195.683 72.7162L199.07 73.9093L199.373 68.2479Z" fill="#C7C3C1"/>
<path d="M204.584 68.8042C204.585 69.0054 204.527 69.2025 204.416 69.3704C204.306 69.5384 204.148 69.6698 203.962 69.7478C203.777 69.8258 203.572 69.8469 203.375 69.8086C203.177 69.7702 202.996 69.6741 202.853 69.5324C202.71 69.3906 202.613 69.2097 202.573 69.0125C202.533 68.8153 202.553 68.6107 202.629 68.4247C202.706 68.2387 202.836 68.0797 203.003 67.9677C203.17 67.8558 203.367 67.7961 203.568 67.796C203.701 67.7951 203.833 67.8204 203.956 67.8707C204.08 67.9209 204.192 67.995 204.286 68.0887C204.38 68.1824 204.455 68.2939 204.506 68.4167C204.558 68.5395 204.584 68.6712 204.584 68.8042Z" fill="#2F3646"/>
<path d="M196.077 68.5299C196.078 68.7308 196.02 68.9276 195.91 69.0954C195.799 69.2632 195.641 69.3945 195.456 69.4727C195.271 69.5509 195.067 69.5725 194.87 69.5348C194.673 69.497 194.491 69.4017 194.348 69.2607C194.205 69.1197 194.107 68.9394 194.066 68.7427C194.026 68.546 194.044 68.3417 194.12 68.1555C194.195 67.9694 194.324 67.8098 194.491 67.697C194.657 67.5842 194.853 67.5232 195.054 67.5218C195.187 67.5208 195.319 67.5461 195.443 67.5962C195.566 67.6464 195.679 67.7203 195.774 67.814C195.869 67.9076 195.944 68.019 195.996 68.1418C196.048 68.2647 196.076 68.3966 196.077 68.5299Z" fill="#2F3646"/>
<path d="M196.625 64.0319L193.913 64.3431C193.962 64.0522 194.097 63.7825 194.3 63.5686C194.504 63.3548 194.766 63.2064 195.054 63.1427C195.373 63.129 195.689 63.205 195.967 63.3622C196.245 63.5194 196.473 63.7515 196.625 64.0319Z" fill="#2F3646"/>
<path d="M202.553 64.2911H205.28C205.201 64.0067 205.036 63.7536 204.808 63.5666C204.58 63.3795 204.299 63.2676 204.005 63.2462C203.69 63.2686 203.387 63.3782 203.131 63.5627C202.874 63.7472 202.674 63.9994 202.553 64.2911Z" fill="#2F3646"/>
<path d="M202.968 75.7028L199.07 76.8884C199.317 77.347 199.706 77.7129 200.18 77.9308C200.653 78.1487 201.184 78.2068 201.693 78.0962C202.649 77.8517 203.086 76.6883 202.968 75.7028Z" fill="white"/>
<path d="M202.968 75.7028L199.07 76.8884C199.317 77.347 199.706 77.7129 200.18 77.9308C200.653 78.1487 201.184 78.2068 201.693 78.0962C202.649 77.8517 203.086 76.6883 202.968 75.7028Z" fill="#86807C"/>
<path d="M200.418 78.0375C200.827 78.1864 201.27 78.2122 201.693 78.1117C202.055 77.9757 202.369 77.7356 202.595 77.4216C202.82 77.1076 202.948 76.7338 202.961 76.3474C202.45 76.2746 201.93 76.3709 201.478 76.6217C200.952 76.9345 200.57 77.4438 200.418 78.0375Z" fill="white"/>
<path d="M200.418 78.0375C200.827 78.1864 201.27 78.2122 201.693 78.1117C202.055 77.9757 202.369 77.7356 202.595 77.4216C202.82 77.1076 202.948 76.7338 202.961 76.3474C202.45 76.2746 201.93 76.3709 201.478 76.6217C200.952 76.9345 200.57 77.4438 200.418 78.0375Z" fill="#C7C3C1"/>
<path d="M200.743 92.2866C204.293 92.2273 206.464 95.058 209.709 95.9917L216.327 88.8483L213.763 85.0395C213.249 84.2808 212.583 83.6373 211.806 83.1499V84.5282C211.798 84.9319 211.687 85.3268 211.481 85.6747C211.276 86.0225 210.985 86.3116 210.636 86.5141L200.743 92.2866Z" fill="#2F3646"/>
<path d="M200.744 92.2869C198.772 91.6793 195.823 94.1468 195.823 94.1468C196.853 88.4336 199.973 86.1884 200.736 86.1884L200.744 92.2869Z" fill="#2F3646"/>
<defs>
<linearGradient id="paint0_linear_652_63631" x1="89.7104" y1="90.8885" x2="89.7104" y2="117.507" gradientUnits="userSpaceOnUse">
<stop stop-color="#3B455B"/>
<stop offset="1" stop-color="#202A40"/>
</linearGradient>
<linearGradient id="paint1_linear_652_63631" x1="204.517" y1="141.949" x2="204.517" y2="248.071" gradientUnits="userSpaceOnUse">
<stop stop-color="#2F3646"/>
<stop offset="1" stop-color="#252C3D"/>
</linearGradient>
<linearGradient id="paint2_linear_652_63631" x1="184.571" y1="88.7448" x2="184.571" y2="116.518" gradientUnits="userSpaceOnUse">
<stop stop-color="#3B455B"/>
<stop offset="1" stop-color="#202A40"/>
</linearGradient>
<linearGradient id="paint3_linear_652_63631" x1="184.571" y1="88.7448" x2="184.571" y2="116.518" gradientUnits="userSpaceOnUse">
<stop stop-color="#3B455B"/>
<stop offset="1" stop-color="#2A3143"/>
</linearGradient>
<linearGradient id="paint4_linear_652_63631" x1="184.571" y1="88.7448" x2="184.571" y2="116.518" gradientUnits="userSpaceOnUse">
<stop stop-color="#2F3646"/>
<stop offset="1" stop-color="#252C3D"/>
</linearGradient>
<linearGradient id="paint5_linear_652_63631" x1="202.816" y1="90.775" x2="202.816" y2="112.035" gradientUnits="userSpaceOnUse">
<stop stop-color="#3B455B"/>
<stop offset="1" stop-color="#202A40"/>
</linearGradient>
<linearGradient id="paint6_linear_652_63631" x1="202.816" y1="90.775" x2="202.816" y2="112.035" gradientUnits="userSpaceOnUse">
<stop stop-color="#3B455B"/>
<stop offset="1" stop-color="#2A3143"/>
</linearGradient>
<linearGradient id="paint7_linear_652_63631" x1="202.816" y1="90.775" x2="202.816" y2="112.035" gradientUnits="userSpaceOnUse">
<stop stop-color="#2F3646"/>
<stop offset="1" stop-color="#252C3D"/>
</linearGradient>
<linearGradient id="paint8_linear_652_63631" x1="225.45" y1="89.3672" x2="225.45" y2="122.98" gradientUnits="userSpaceOnUse">
<stop stop-color="#3B455B"/>
<stop offset="1" stop-color="#202A40"/>
</linearGradient>
<linearGradient id="paint9_linear_652_63631" x1="225.45" y1="89.3672" x2="225.45" y2="122.98" gradientUnits="userSpaceOnUse">
<stop stop-color="#3B455B"/>
<stop offset="1" stop-color="#2A3143"/>
</linearGradient>
<linearGradient id="paint10_linear_652_63631" x1="225.45" y1="89.3672" x2="225.45" y2="122.98" gradientUnits="userSpaceOnUse">
<stop stop-color="#2F3646"/>
<stop offset="1" stop-color="#252C3D"/>
</linearGradient>
<linearGradient id="paint11_linear_652_63631" x1="205.377" y1="52.5942" x2="205.377" y2="79.0831" gradientUnits="userSpaceOnUse">
<stop stop-color="#3B455B"/>
<stop offset="1" stop-color="#202A40"/>
</linearGradient>
<linearGradient id="paint12_linear_652_63631" x1="205.377" y1="52.5942" x2="205.377" y2="79.0831" gradientUnits="userSpaceOnUse">
<stop stop-color="#3B455B"/>
<stop offset="1" stop-color="#2A3143"/>
</linearGradient>
</defs>
</svg>
