<svg width="514" height="482" fill="none" xmlns="http://www.w3.org/2000/svg"><path d="M438.148 295.073c-100.701-42.764-263.413-42.764-363.459 0-100.045 42.763-99.505 112.091 1.15 154.854 100.655 42.764 263.413 42.764 363.459 0 100.046-42.763 99.54-112.091-1.15-154.854z" fill="#BF2343"/><path d="M433.822 318.207c.295 32.629.645 64.046.645 64.046a1.167 1.167 0 00.698.971 3.727 3.727 0 003.364 0 1.18 1.18 0 00.688-.971s.349-31.406.644-64.035a74.645 74.645 0 01-6.039-.011zm-39.629 40.513a1.185 1.185 0 00.699.972 3.726 3.726 0 003.364 0 1.185 1.185 0 00.688-.972s1.517-22.44 3.68-49.14a35.821 35.821 0 01-5.69-4.368c-1.747 28.589-2.741 53.508-2.741 53.508zm80.591 0a1.192 1.192 0 00.688.972 3.719 3.719 0 003.363 0 1.212 1.212 0 00.699-.972s-.939-24.821-2.741-53.311a35.93 35.93 0 01-5.689 4.313 3878.924 3878.924 0 013.68 48.998z" fill="#E0E0E0"/><path d="M433.822 318.207c.295 32.629.645 64.046.645 64.046a1.167 1.167 0 00.698.971 3.727 3.727 0 003.364 0 1.18 1.18 0 00.688-.971s.349-31.406.644-64.035a74.645 74.645 0 01-6.039-.011zm-39.629 40.513a1.185 1.185 0 00.699.972 3.726 3.726 0 003.364 0 1.185 1.185 0 00.688-.972s1.517-22.44 3.68-49.14a35.821 35.821 0 01-5.69-4.368c-1.747 28.589-2.741 53.508-2.741 53.508zm80.591 0a1.192 1.192 0 00.688.972 3.719 3.719 0 003.363 0 1.212 1.212 0 00.699-.972s-.939-24.821-2.741-53.311a35.93 35.93 0 01-5.689 4.313 3878.924 3878.924 0 013.68 48.998z" fill="#D75B73"/><path d="M483.715 285.862c0 6.945-4.488 13.89-13.606 19.186-18.247 10.604-47.917 10.604-66.273 0-9.184-5.296-13.792-12.241-13.836-19.186v5.274c0 4.903 2.348 9.828 6.934 14.131a35.88 35.88 0 005.69 4.368l1.212.731c8.364 4.827 19.088 7.448 30.008 7.874 2.009.087 4.029.087 6.039 0 11.018-.383 21.84-3.014 30.226-7.885l.994-.611a35.83 35.83 0 005.689-4.314c4.641-4.368 6.956-9.314 6.923-14.272v-5.296z" fill="#D2536B"/><path d="M403.836 305.048c18.356 10.604 48.048 10.604 66.273 0 9.119-5.296 13.65-12.241 13.607-19.186-.044-6.945-4.652-13.89-13.825-19.197-18.368-10.593-48.048-10.593-66.274 0-9.118 5.307-13.65 12.252-13.617 19.197.033 6.945 4.652 13.89 13.836 19.186z" fill="#E76981"/><g opacity=".3"><path opacity=".4" d="M433.822 318.207c0 2.184 0 4.368.055 6.552 1.976.076 3.953.076 5.929 0 0-2.184 0-4.368.055-6.552a69.896 69.896 0 01-6.039 0zm-36.888-12.94c-.12 2.085-.251 4.149-.372 6.18a34.877 34.877 0 005.57 4.368c.153-2.042.327-4.117.491-6.213a35.867 35.867 0 01-5.689-4.335zm79.859.142a35.93 35.93 0 01-5.689 4.313c.174 2.097.342 4.168.502 6.214a34.74 34.74 0 005.558-4.368c-.12-2.01-.24-4.074-.371-6.159z" fill="#171E2F"/></g><path d="M452.561 256.913l-15.79.447-15.791-.458c-.677 10.658 1.398 21.534 4.27 26.841a7.218 7.218 0 003.123 3.178 18.571 18.571 0 0016.828 0 6.978 6.978 0 003.123-3.276c2.861-5.318 4.914-16.129 4.237-26.732z" fill="#FBB5C1"/><path d="M447.897 250.437c6.192 3.571 6.224 9.369.076 12.94-6.148 3.571-16.15 3.571-22.331 0-6.181-3.571-6.224-9.358-.076-12.94 6.148-3.582 16.15-3.571 22.331 0z" fill="#CD7888"/><path d="M445.451 251.901c4.827 2.784 4.86 7.305.055 10.09-4.805 2.784-12.591 2.784-17.418 0-4.826-2.785-4.859-7.306-.054-10.09 4.805-2.785 12.591-2.829 17.417 0z" fill="#171E2F" opacity=".15"/><path d="M435.449 255.177a10.433 10.433 0 009.271 2.096 9.686 9.686 0 006.487-6.552 18.92 18.92 0 01-5.067-3.516 13.1 13.1 0 017.174.251 7.298 7.298 0 00.546-6.836 12.568 12.568 0 00-8.561-.6 11.36 11.36 0 014.041-2.264 11.356 11.356 0 014.608-.466 33.176 33.176 0 00-2.075-13.29c-5.886.306-11.597 2.839-13.519 4.663-.09 2.106.13 4.215.655 6.257a5.052 5.052 0 01-2.741-4.04c-3.68.917-5.263 2.751-5.831 4.16a15.287 15.287 0 003.483 7.065c-3.461-1.092-4.859-4.903-4.859-4.903-3.407 8.059-2.752 17.188 6.388 17.975z" fill="#F995A6"/><path opacity=".2" d="M435.449 255.177a10.433 10.433 0 009.271 2.096 9.686 9.686 0 006.487-6.552 18.92 18.92 0 01-5.067-3.516 13.1 13.1 0 017.174.251 7.298 7.298 0 00.546-6.836 12.568 12.568 0 00-8.561-.6 11.36 11.36 0 014.041-2.264 11.356 11.356 0 014.608-.466 33.176 33.176 0 00-2.075-13.29c-5.886.306-11.597 2.839-13.519 4.663-.09 2.106.13 4.215.655 6.257a5.052 5.052 0 01-2.741-4.04c-3.68.917-5.263 2.751-5.831 4.16a15.287 15.287 0 003.483 7.065c-3.461-1.092-4.859-4.903-4.859-4.903-3.407 8.059-2.752 17.188 6.388 17.975z" fill="#171E2F"/><path opacity=".3" d="M435.449 255.177a10.433 10.433 0 009.271 2.096 9.686 9.686 0 006.487-6.552 18.92 18.92 0 01-5.067-3.516 13.1 13.1 0 017.174.251 7.298 7.298 0 00.546-6.836 12.568 12.568 0 00-8.561-.6 11.36 11.36 0 014.041-2.264 11.356 11.356 0 014.608-.466 33.176 33.176 0 00-2.075-13.29c-5.886.306-11.597 2.839-13.519 4.663-.09 2.106.13 4.215.655 6.257a5.052 5.052 0 01-2.741-4.04c-3.68.917-5.263 2.751-5.831 4.16a15.287 15.287 0 003.483 7.065c-3.461-1.092-4.859-4.903-4.859-4.903-3.407 8.059-2.752 17.188 6.388 17.975z" fill="#fff"/><path d="M435.253 256.05a.333.333 0 01-.233-.114.331.331 0 01-.066-.115.325.325 0 01-.018-.131c.568-7.437 4.816-19.711 14.961-29.834a.341.341 0 01.58.241.347.347 0 01-.1.24c-10.003 9.992-14.196 22.08-14.753 29.407a.35.35 0 01-.371.306z" fill="#F5F5F5"/><path d="M438.026 259.151a9.66 9.66 0 01-12.551-.268 9.662 9.662 0 01-2.573-3.706 16.38 16.38 0 004.575-3.113 12.993 12.993 0 00-6.781.197 6.304 6.304 0 01-.95-6.104 12.44 12.44 0 018.081-.481 12.02 12.02 0 00-8.387-2.49 26.995 26.995 0 011.092-11.87c5.602.339 11.16 2.665 13.104 4.314.214 1.85.136 3.721-.229 5.547a4.079 4.079 0 002.326-3.571c3.516.852 5.099 2.501 5.722 3.746a12.27 12.27 0 01-2.828 6.235 6.968 6.968 0 004.247-4.302c3.702 7.141 3.648 15.168-4.848 15.866z" fill="#F995A6"/><path opacity=".3" d="M438.026 259.151a9.66 9.66 0 01-12.551-.268 9.662 9.662 0 01-2.573-3.706 16.38 16.38 0 004.575-3.113 12.993 12.993 0 00-6.781.197 6.304 6.304 0 01-.95-6.104 12.44 12.44 0 018.081-.481 12.02 12.02 0 00-8.387-2.49 26.995 26.995 0 011.092-11.87c5.602.339 11.16 2.665 13.104 4.314.214 1.85.136 3.721-.229 5.547a4.079 4.079 0 002.326-3.571c3.516.852 5.099 2.501 5.722 3.746a12.27 12.27 0 01-2.828 6.235 6.968 6.968 0 004.247-4.302c3.702 7.141 3.648 15.168-4.848 15.866z" fill="#fff"/><path d="M438.255 259.96a.348.348 0 01-.338-.284c-.961-6.476-5.668-17.221-15.747-26.208a.348.348 0 01-.074-.371.355.355 0 01.184-.184.348.348 0 01.261 0 .355.355 0 01.11.074c10.188 9.086 14.96 20.006 15.943 26.558a.346.346 0 01-.063.253.347.347 0 01-.221.14l-.055.022z" fill="#fff"/><path d="M60.968 363.115c.6-2.406-.964-4.805-2.714-6.537-1.75-1.731-3.83-3.281-4.744-5.576-1.488-3.722.453-8.566-2.062-11.672-1.482-1.823-4.12-2.426-5.434-4.371a10.128 10.128 0 01-1.195-3.489A35.637 35.637 0 0036.033 315a31.194 31.194 0 003.525 15.913c1.022 1.945 2.28 3.852 2.624 6.037.562 3.54-1.366 7.204-.485 10.68 1.002 3.981 5.421 6.62 5.651 10.718.198 3.463-2.758 6.524-2.516 9.98a9.402 9.402 0 001.54 4.105c2.662 4.435 6.557 7.483 12.432 7.353L66 380l-5.032-16.885z" fill="#DF4F6C"/><path d="M67.648 379.94a5.607 5.607 0 001.96-.058 11.044 11.044 0 002.298-.605 9.738 9.738 0 002.841-1.609 4.09 4.09 0 001.165-1.602c.211-.703.32-1.434.322-2.17a21.63 21.63 0 01.15-2.349 6.694 6.694 0 01.857-2.337c.825-1.506 2.211-2.935 2.646-4.982.434-2.046.113-4.177-.227-6.353-.34-2.175-.674-4.544.126-6.816.8-2.272 2.299-4.332 3.061-6.894.762-2.562.384-5.362.53-8.104a10.95 10.95 0 01.906-4.036c.567-1.287 1.355-2.503 1.972-3.862 1.26-2.742 1.449-5.838 1.776-8.876l.485-4.641a22.77 22.77 0 01.762-4.641 41.302 41.302 0 011.67-4.505c.339-.757.61-1.543.812-2.35.118-.827.19-1.661.214-2.497a29.833 29.833 0 00-.214-5.021c-.202-1.673-.51-3.328-.693-5.008v-.289L91.03 290l-.29.154a10.982 10.982 0 00-3.779 3.315 17.928 17.928 0 00-2.324 4.435c-1.171 3.129-1.575 6.392-2.16 9.514-.586 3.122-1.317 6.192-2.866 8.792-.769 1.288-1.707 2.478-2.52 3.747a10.273 10.273 0 00-1.738 4.145c-.404 3.07 1.26 5.754.932 8.471a9.447 9.447 0 01-1.26 3.771c-.63 1.166-1.386 2.247-2.104 3.328a21.464 21.464 0 00-1.89 3.36 10.81 10.81 0 00-.85 3.643c-.163 2.446.19 4.764 0 6.959a16.357 16.357 0 01-1.713 5.966c-.888 1.803-1.858 3.425-2.626 5.021-.397.785-.769 1.551-1.065 2.317a11.847 11.847 0 00-.63 2.298 14.73 14.73 0 000 4.139 10.534 10.534 0 002.06 5.272c.175.229.366.444.573.643.143.15.302.284.472.399.265.2.404.29.404.29a9.178 9.178 0 01-1.38-1.384 10.655 10.655 0 01-1.959-5.233 14.904 14.904 0 01.07-4.081 11.24 11.24 0 01.63-2.24c.316-.78.674-1.543 1.07-2.285.794-1.558 1.751-3.173 2.62-4.975a16.457 16.457 0 001.758-6.102c.176-2.24-.164-4.564 0-6.952.073-1.215.357-2.407.838-3.521a20.87 20.87 0 011.89-3.289c.71-1.082 1.473-2.163 2.128-3.347a10.002 10.002 0 001.336-3.927c.327-2.896-1.336-5.6-.92-8.458a10.01 10.01 0 011.65-3.977c.806-1.243 1.745-2.427 2.52-3.753 1.6-2.678 2.362-5.793 2.935-8.941.573-3.147.995-6.372 2.142-9.429a17.397 17.397 0 012.267-4.32 10.527 10.527 0 013.64-3.179l-.327-.187v.296c.19 1.693.492 3.354.693 5.008.21 1.638.28 3.292.214 4.943-.024.81-.091 1.618-.201 2.421-.2.776-.464 1.534-.788 2.265a42.393 42.393 0 00-1.681 4.551 23.709 23.709 0 00-.775 4.718c-.158 1.564-.322 3.116-.479 4.648-.321 3.044-.529 6.095-1.726 8.741-.592 1.319-1.38 2.536-1.965 3.862a11.498 11.498 0 00-.926 4.183c-.139 2.8.233 5.536-.498 8.021-.73 2.484-2.254 4.538-3.03 6.887-.774 2.349-.46 4.815-.106 6.984.352 2.169.705 4.306.258 6.237-.447 1.931-1.739 3.366-2.583 4.918a6.796 6.796 0 00-.869 2.433 20.928 20.928 0 00-.132 2.375c0 .712-.1 1.421-.296 2.105a3.861 3.861 0 01-1.09 1.538 9.79 9.79 0 01-2.771 1.616c-.736.291-1.497.506-2.274.643a8.849 8.849 0 01-1.442.155c-.278-.013-.448-.007-.448-.007z" fill="#E0E0E0"/><path d="M90 294a.898.898 0 00-.073.22c-.04.173-.092.388-.158.647-.145.576-.31 1.443-.588 2.53-.278 1.087-.951 2.304-1.526 3.818a61.597 61.597 0 00-1.737 5.177c-.549 1.941-1.044 4.116-1.56 6.432-.514 2.317-1.056 4.789-2.344 7.118-.601 1.191-1.282 2.395-1.817 3.708a16.862 16.862 0 00-1.05 4.193 84.222 84.222 0 01-1.553 8.827c-1.46 5.986-2.847 11.687-4.115 16.876l-3.448 13.764c-.951 3.883-1.73 7.054-2.28 9.286-.257 1.074-.455 1.942-.6 2.53l-.145.648a1.169 1.169 0 000 .226s.04-.071.085-.22a85.242 85.242 0 00.846-3.158c.581-2.219 1.413-5.371 2.43-9.253 1.018-3.883 2.214-8.575 3.548-13.738 1.334-5.164 2.682-10.891 4.155-16.877a81.858 81.858 0 001.546-8.872 16.58 16.58 0 011.01-4.089c.516-1.295 1.19-2.479 1.79-3.676 1.322-2.388 1.83-4.944 2.34-7.247.508-2.304.963-4.478 1.492-6.42a58.535 58.535 0 011.665-5.177c.561-1.494 1.189-2.743 1.453-3.882.264-1.139.39-1.974.502-2.556.046-.272.086-.492.112-.647A.903.903 0 0090 294z" fill="#E0E0E0"/><path d="M69.023 380c4.778-2.847 6.077-11.435 4.064-16.581-2.012-5.146-5.537-9.847-6.109-15.348-.434-4.229.929-8.581-.084-12.707-1.37-5.572-6.868-9.866-6.836-15.599 0-3.229 1.837-6.257 1.675-9.472-.201-3.945-3.246-7.058-5.193-10.518-2.863-5.301-3.116-11.59-4.162-17.543-1.045-5.954-3.336-12.333-8.666-15.232-.76 5.069-2.078 8.542-1.617 15.399.163 2.46 3.071 7.161 3.493 12.552.247 3.229.428 6.457.65 9.686.22 3.228.428 6.334 1.577 9.271.883 2.247 2.291 4.281 2.947 6.606 1.233 4.365-.331 9.117.65 13.559.85 3.751 3.479 6.967 4.037 10.776.78 5.34-2.668 10.919-.857 16.013.896 2.531 3.006 4.552 3.61 7.161.474 2.027 0 4.177.415 6.211.688 3.28 7.005 5.811 10.387 5.572" fill="#DF4F6C"/><path d="M45.008 272c-.01.095-.01.19 0 .285 0 .213.065.491.11.834.11.732.241 1.812.501 3.197s1.009 2.97 1.601 4.866c.592 1.896 1.243 4.07 1.79 6.509.546 2.439 1.035 5.144 1.529 8.056.495 2.912 1.041 6.076 2.512 9.098.65 1.52 1.445 3.041 2.017 4.658.56 1.665.91 3.393 1.042 5.144.287 3.719.776 7.419 1.464 11.084 1.51 7.506 2.948 14.663 4.262 21.172 1.315 6.509 2.603 12.294 3.664 17.238 1.06 4.943 1.907 8.838 2.505 11.614.306 1.346.54 2.401.71 3.151.078.343.143.609.195.822.017.093.043.184.078.272a.868.868 0 000-.285c-.039-.207-.084-.485-.15-.828-.15-.751-.357-1.818-.65-3.171-.566-2.775-1.373-6.748-2.362-11.647-.99-4.898-2.226-10.773-3.567-17.263-1.34-6.49-2.726-13.659-4.217-21.165a103.984 103.984 0 01-1.477-11.052 21.08 21.08 0 00-1.074-5.241c-.592-1.656-1.366-3.183-2.043-4.685-1.464-2.983-1.991-6.095-2.519-8.994-.527-2.899-1.008-5.61-1.594-8.056a67.131 67.131 0 00-1.868-6.522c-.65-1.902-1.373-3.455-1.672-4.82-.3-1.366-.443-2.446-.586-3.171l-.13-.828a1.542 1.542 0 00-.071-.272z" fill="#EBEBEB"/><path d="M258.889 15.615a10.092 10.092 0 00-1.092-2.632c-1.092-1.638-2.915-2.6-7.327-2.512a5.638 5.638 0 00-1.802.36L82.881 105.149a12.12 12.12 0 00-6.04 10.374v269.789c0 4.816 2.83 6.629 5.974 6.836a11.206 11.206 0 003.997-.513c.165-.048.326-.11.48-.186l165.886-94.48a11.952 11.952 0 006.028-10.374V16.87a2.999 2.999 0 00-.317-1.255z" fill="#F995A6"/><path opacity=".2" d="M258.889 15.615a10.092 10.092 0 00-1.092-2.632c-1.092-1.638-2.915-2.6-7.327-2.512a5.638 5.638 0 00-1.802.36L82.881 105.149a12.12 12.12 0 00-6.04 10.374v269.789c0 4.816 2.83 6.629 5.974 6.836a11.206 11.206 0 003.997-.513c.165-.048.326-.11.48-.186l165.886-94.48a11.952 11.952 0 006.028-10.374V16.87a2.999 2.999 0 00-.317-1.255z" fill="#171E2F"/><path opacity=".2" d="M78.087 110.28a11.912 11.912 0 00-1.245 5.242v269.789c0 4.816 2.828 6.629 5.973 6.836a7.423 7.423 0 01-1.212-4.422V117.924a11.894 11.894 0 011.234-5.231c.13-.273.306-.524.459-.786l-4.609-2.664c-.207.349-.426.677-.6 1.037z" fill="#171E2F"/><path opacity=".2" d="M250.514 10.472a5.632 5.632 0 00-1.802.36L82.881 105.148a11.777 11.777 0 00-4.194 4.095l4.609 2.664a11.834 11.834 0 014.368-4.368l165.798-94.305a5.912 5.912 0 011.802-.35c.86-.02 1.721.013 2.577.1-1.037-1.672-2.916-2.6-7.327-2.512z" fill="#fff"/><path d="M251.637 24.045l-162.15 93.584v254.404l162.15-93.585V24.045z" fill="#C02A46"/><path d="M178.889 324.716a13.61 13.61 0 00-6.126 8.824c-.404 3.145 1.682 4.368 4.674 2.588a13.702 13.702 0 006.126-8.824c.393-3.134-1.693-4.302-4.674-2.588z" fill="#F995A6"/><path opacity=".4" d="M178.889 324.716a13.61 13.61 0 00-6.126 8.824c-.404 3.145 1.682 4.368 4.674 2.588a13.702 13.702 0 006.126-8.824c.393-3.134-1.693-4.302-4.674-2.588z" fill="#C02A46"/><path d="M267.221 14.723V6.467a2.623 2.623 0 00-.273-1.092 8.161 8.161 0 00-.928-2.304c-.907-1.452-2.567-2.293-6.454-2.184a4.963 4.963 0 00-1.584.306l-146.066 82.98a10.677 10.677 0 00-5.307 9.13v9.457l4.183 2.413 156.429-90.45z" fill="#F995A6"/><path d="M110.792 105.173l-4.183-2.413v236.429c0 4.237 2.49 5.842 5.253 6.017a9.848 9.848 0 003.527-.448c.146-.049.288-.107.426-.175l146.099-83.21a10.495 10.495 0 005.307-9.129V14.723l-156.429 90.45z" fill="#F995A6"/><path opacity=".2" d="M107.701 88.694a10.412 10.412 0 00-1.092 4.609v245.885c0 4.237 2.49 5.843 5.253 6.017a6.543 6.543 0 01-1.092-3.898V95.432a10.512 10.512 0 011.092-4.608c.12-.24.273-.47.404-.699l-4.062-2.337a9.45 9.45 0 00-.503.906z" fill="#171E2F"/><path opacity=".2" d="M259.567.788a4.963 4.963 0 00-1.584.306l-146.065 83.08a10.358 10.358 0 00-3.691 3.614l4.062 2.337a10.458 10.458 0 013.844-3.833L262.166 3.224a4.77 4.77 0 011.594-.306c.755-.024 1.51.005 2.261.087-.907-1.452-2.567-2.293-6.454-2.217z" fill="#fff"/><path opacity=".05" d="M267.221 14.723V6.467a2.623 2.623 0 00-.273-1.092 8.161 8.161 0 00-.928-2.304c-.907-1.452-2.567-2.293-6.454-2.184a4.963 4.963 0 00-1.584.306l-146.066 82.98a10.677 10.677 0 00-5.307 9.13v9.457l4.183 2.413 156.429-90.45z" fill="#fff"/><path opacity=".35" d="M110.792 105.173l-4.183-2.413v236.429c0 4.237 2.49 5.842 5.253 6.017a9.848 9.848 0 003.527-.448c.146-.049.288-.107.426-.175l146.099-83.21a10.495 10.495 0 005.307-9.129V14.723l-156.429 90.45z" fill="#fff"/><path d="M187.287 100.958l-64.221 37.051v107.224l64.221-37.063V100.958z" fill="#fff"/><path d="M126.637 140.073l57.089-32.946v98.99l-57.089 32.935v-98.979z" fill="#666C74"/><path opacity=".3" d="M126.637 140.073l57.089-32.946v98.99l-57.089 32.935v-98.979z" fill="#fff"/><path d="M183.726 206.194l-57.089 32.978v-37.903l16.609-13.05 21.403-8.124 5.296-1.321a16.777 16.777 0 017.174-.213 16.772 16.772 0 016.607 2.801v24.832z" fill="#DDE5F0"/><path d="M139.555 159.456c-1.659-5.558-1.299-11.936 2.021-16.697a18.204 18.204 0 018.801-6.552 28.033 28.033 0 0110.92-1.419c2.933.056 5.818.753 8.452 2.042a13.602 13.602 0 015.591 18.433 22.808 22.808 0 01-5.536 6.311 70.208 70.208 0 01-13.945 9.304 66.876 66.876 0 01-3.8 1.791c-.874.382-2.523 1.452-3.505 1.256-.983-.197-2.01-2.02-2.599-2.774a48.219 48.219 0 01-2.414-3.341 31.903 31.903 0 01-3.986-8.354z" fill="#2F3646"/><path d="M139.555 159.456c-1.659-5.558-1.299-11.936 2.021-16.697a18.204 18.204 0 018.801-6.552 28.033 28.033 0 0110.92-1.419c2.933.056 5.818.753 8.452 2.042a13.602 13.602 0 015.591 18.433 22.808 22.808 0 01-5.536 6.311 70.208 70.208 0 01-13.945 9.304 66.876 66.876 0 01-3.8 1.791c-.874.382-2.523 1.452-3.505 1.256-.983-.197-2.01-2.02-2.599-2.774a48.219 48.219 0 01-2.414-3.341 31.903 31.903 0 01-3.986-8.354z" fill="url(#paint0_linear)"/><path d="M169.377 206.139a27.514 27.514 0 00-1.704-4.87l-2.73.644c.208 1.529.317 3.123.372 4.706 0 1.092-.088 5.133-.295 10.363l6.126-3.527a229.38 229.38 0 00-1.769-7.316z" fill="#F995A6"/><path opacity=".2" d="M165.009 202.492c0-.186 0-.383-.066-.579l2.73-.644.164.404a3.157 3.157 0 01-2.828.819z" fill="#171E2F"/><path d="M163.48 194.761l-2.184-1.376-5.001 2.73a11.572 11.572 0 005.908 2.337l1.277-3.691zm3.321-.525l.655-1.474 2.523 1.584a4.568 4.568 0 01-1.638 2.402l-1.54-2.512z" fill="#F995A6"/><path opacity=".2" d="M163.48 194.761l-2.184-1.376-5.001 2.73a11.572 11.572 0 005.908 2.337l1.277-3.691zm3.321-.525l.655-1.474 2.523 1.584a4.568 4.568 0 01-1.638 2.402l-1.54-2.512z" fill="#171E2F"/><path d="M162.236 198.451a12.042 12.042 0 011.245-3.691l3.276-.524c.606.777 1.123 1.62 1.54 2.512a11.923 11.923 0 01-.666 4.521 5.81 5.81 0 01-2.73.644 7.186 7.186 0 01-2.665-3.462z" fill="#F995A6"/><path d="M164.649 178.424a124.376 124.376 0 01-7.054-1.266l-.052.253h-.001a13.05 13.05 0 01-9.068-7.029v13.821l15.916.358c0 .155.039.618.091 1.242l.039.469c.072.867.158 1.957.215 3.029.057 1.073.085 2.121.043 2.906a4.97 4.97 0 01-.116.924.813.813 0 01-.079.211.26.26 0 00.035.004l-.01.001.041.256m0-15.179h-.259v.223l.221.033.038-.256zm0 0v6.137c0 .143.038.589.09 1.211.206 2.466.643 7.7-.09 7.831m0 0l-.045-.255a.077.077 0 00-.036.015l-16.353-9.075c3.014 4.161 15.692 9.435 16.434 9.315z" fill="#fff" stroke="#2F3646" stroke-width=".518"/><path d="M159.135 180.75c1.808.475 3.183.913 5.045 1.092v-3.276c-2.468-.371-4.412-.917-6.585-1.376a12.815 12.815 0 01-9.064-7.316c.4 2.55 1.539 4.926 3.276 6.835a15.665 15.665 0 007.328 4.041z" fill="#C7C3C1"/><path d="M153.371 151.412a7.538 7.538 0 002.204-3.841l1.086.306c2.675.76 5.388 1.53 8.228 1.53v0h.008a14.096 14.096 0 009.114-3.692c3.068 8.319 2.568 18.061 1.096 26.56a7.753 7.753 0 01-3.02 4.871 7.753 7.753 0 01-5.54 1.469 111.785 111.785 0 01-3.267-.447 130.228 130.228 0 01-6.418-1.155 11.497 11.497 0 01-5.616-3.006 11.497 11.497 0 01-3.151-5.537h0l-.002-.007-.076-.283-.153-.569-.316.497a3.949 3.949 0 01-3.668 1.814h0l-.005-.001a5.51 5.51 0 01-3.89-2.013 8.108 8.108 0 01-1.756-4.147h0l-.002-.013a6.29 6.29 0 01.126-2.685 3.242 3.242 0 011.605-2.015 3.32 3.32 0 013.024.318 7.021 7.021 0 012.209 2.462h0l.005.009c.253.431.563.953.959 1.325.408.382.935.627 1.594.442l.01-.003.01-.003a1.959 1.959 0 001.259-1.571c.448-2.865.462-5.782.039-8.65a8.592 8.592 0 004.295-1.957h0l.009-.008z" fill="#fff" stroke="#2F3646" stroke-width=".518"/><path d="M167.651 156.06h-1.922a14.117 14.117 0 00-13.311-1.365v2.031l.535.284c.29 1.31.455 2.645.491 3.986a5.31 5.31 0 001.475 3.527 6.04 6.04 0 003.953 1.027 7.474 7.474 0 003.276-.481 5.274 5.274 0 002.511-3.014c.481-1.266.393-1.998.983-3.516a1.094 1.094 0 011.092-.71 1.094 1.094 0 01.983.71c.546 1.518.48 2.25.917 3.516a5.275 5.275 0 002.348 3.014 6.563 6.563 0 003.09.481 5.386 5.386 0 003.702-1.027 5.457 5.457 0 001.376-3.527c.031-1.34.185-2.674.459-3.986l.502-.284v-2.031a12.484 12.484 0 00-12.46 1.365zm-2.893 1.092l-.077.721a17.318 17.318 0 01-.972 3.833 4.366 4.366 0 01-1.987 2.424 5.564 5.564 0 01-2.37.382h-.437a5.032 5.032 0 01-3.276-.786 4.11 4.11 0 01-1.092-2.828c0-.339-.065-.688-.087-1.092-.066-.972 0-3.091.076-4.63a12.618 12.618 0 013.375-.459 12.8 12.8 0 016.781 1.977c.098.065.066.404.066.404v.054zm13.453 2.708c0 .35 0 .699-.076 1.092a4.265 4.265 0 01-1.092 2.829 4.47 4.47 0 01-3.058.786h-.404a4.881 4.881 0 01-2.184-.382 4.256 4.256 0 01-1.856-2.425 18.092 18.092 0 01-.907-3.833l-.076-.72s0-.339.076-.404a11.43 11.43 0 016.345-1.977 11.03 11.03 0 013.156.459c.087 1.43.131 3.549.076 4.521v.054z" fill="#2F3646"/><path d="M152.419 154.695l-10.833 3.898c.781.149 1.513.49 2.129.994.11.098 8.736-2.861 8.736-2.861l-.032-2.031z" fill="#2F3646"/><path d="M166.67 157.993l5.471 6.617-5.012 1.769-.459-8.386z" fill="#fff"/><path d="M166.67 157.993l5.471 6.617-5.012 1.769-.459-8.386z" fill="#C7C3C1"/><path d="M158.959 158.823a1.49 1.49 0 00.912 1.392c.181.076.376.115.573.115a1.51 1.51 0 001.508-2.108 1.517 1.517 0 00-.893-.82 1.509 1.509 0 00-.615-.075 1.5 1.5 0 00-1.485 1.496zm12.602-.459a1.496 1.496 0 001.485 1.518 1.516 1.516 0 001.518-1.496 1.505 1.505 0 00-1.502-1.379 1.509 1.509 0 00-1.501 1.379v-.022zm-.829-6.552l4.019.448a2.177 2.177 0 00-.571-1.141 2.175 2.175 0 00-1.111-.628 2.544 2.544 0 00-2.337 1.321zm-8.735.295h-4.052a2.189 2.189 0 011.889-1.551 2.549 2.549 0 012.163 1.551z" fill="#2F3646"/><path d="M161.352 169.033l5.777 1.78a3.56 3.56 0 01-3.888 1.791c-1.419-.394-2.063-2.108-1.889-3.571z" fill="#fff"/><path d="M161.352 169.033l5.777 1.78a3.56 3.56 0 01-3.888 1.791c-1.419-.394-2.063-2.108-1.889-3.571z" fill="#5E2828"/><path d="M165.129 172.484a3.283 3.283 0 01-1.889.12 2.894 2.894 0 01-1.879-2.61 3.273 3.273 0 013.768 2.49z" fill="#fff"/><path d="M165.129 172.484a3.283 3.283 0 01-1.889.12 2.894 2.894 0 01-1.879-2.61 3.273 3.273 0 013.768 2.49z" fill="#C7C3C1"/><path d="M164.649 193.603c-5.263-.087-6.028 8.419-10.832 9.828l-12.253-14.906 3.801-5.645a9.824 9.824 0 012.893-2.807v2.042a3.522 3.522 0 001.737 2.949l14.654 8.539z" fill="#A7ADB6"/><path d="M164.648 193.603c2.916-.907 7.284 2.741 7.284 2.741-1.529-8.452-6.159-16.249-7.284-16.249v13.508z" fill="#A7ADB6"/><path d="M160.412 87.09c1.583-.918 2.566-.547 2.577.96a4.727 4.727 0 01-2.555 3.92l-1.005.58v1.735l-1.638.94v-6.618l2.621-1.518zm-.077 3.46a1.78 1.78 0 001.005-1.539c0-.611-.339-.786-1.016-.393l-.906.524v1.933l.906-.524m7.524-3.167l1.256 1.365-1.747 1.005-1.092-1.158-.885.513v1.758l-1.638.95V85.19l2.621-1.562c1.572-.906 2.555-.535 2.566.972a4.146 4.146 0 01-1.081 2.785zm-1.529-.24a1.804 1.804 0 001.005-1.551c0-.612-.339-.775-1.016-.393l-.906.524v1.944l.906-.524m6.455-7.327c1.845-1.092 3.21-.383 3.221 1.594a6.557 6.557 0 01-3.199 5.296c-1.835 1.092-3.2.393-3.211-1.594a6.613 6.613 0 013.189-5.296zm0 5.34a3.367 3.367 0 001.55-2.796c0-1.092-.687-1.496-1.561-.983a3.35 3.35 0 00-1.529 2.73c0 1.158.688 1.507 1.562 1.005m8.561-10.112l.011 1.441-2.894 1.671.011 1.453 2.544-1.464v1.453l-2.544 1.463.011 2.271-1.638.94-.011-6.618 4.51-2.61zm2.402-1.387l.022 6.617-1.638.95-.011-6.628 1.627-.94zm2.785-1.605l.022 5.132 2.741-1.583.011 1.485-4.379 2.522-.022-6.617 1.627-.94zm7.918-4.576v1.452l-2.905 1.671.011 1.114 2.555-1.474v1.398l-2.555 1.474v1.212l3.014-1.725v1.441l-4.619 2.675-.022-6.628 4.521-2.61zm6.136-3.538c1.911-1.092 3.211-.579 3.221 1.452a6.175 6.175 0 01-3.21 5.165l-2.719 1.584v-6.618l2.708-1.583zm-.055 5.165a3.272 3.272 0 001.638-2.763c0-1.091-.666-1.43-1.648-.862l-1.027.59v3.625l1.027-.59m7.512-9.467l2.566 5.143-1.692.983-.459-1.027-2.435 1.41-.448 1.55-1.66.96 2.523-8.091 1.605-.928zm-1.54 4.86l1.474-.853-.742-1.692-.732 2.544zm12.669-11.281l2.566 5.143-1.692.983-.459-1.026-2.435 1.408-.448 1.55-1.66.95 2.523-8.08 1.605-.928zm-1.551 4.848l1.485-.851-.753-1.693-.732 2.544zm-2.239-2.664l.011 1.485-1.758 1.016.011 5.132-1.627.94-.022-5.133-1.758 1.015-.011-1.485 5.154-2.97z" fill="#fff"/><path d="M167.555 93.729v4.564l46.18-26.655v-4.554l-46.18 26.645z" fill="#F995A6"/><g opacity=".6"><path opacity=".7" d="M167.555 93.729v4.564l46.18-26.655v-4.554l-46.18 26.645z" fill="#fff"/></g><path d="M179.096 95.225v4.553l26.863-15.594v-4.553l-26.863 15.594z" fill="#F995A6"/><g opacity=".6"><path opacity=".7" d="M179.096 95.225v4.553l26.863-15.594v-4.553l-26.863 15.594z" fill="#fff"/></g><path d="M193.248 124.479v4.554l63.271-36.473v-4.554l-63.271 36.473zm0 7.808v4.554l49.206-28.348v-4.554l-49.206 28.348zm0 13.847v4.553l63.271-36.461v-4.554l-63.271 36.462zm0 7.819v4.553l63.271-36.429v-4.554l-63.271 36.43zm0 7.545v4.554l47.72-27.409v-4.554l-47.72 27.409zm0-63.183v7.797l46.181-26.645V71.67l-46.181 26.645zm0 11.794v4.903l30.685-17.625v-4.903l-30.685 17.625z" fill="#F995A6"/><g opacity=".6"><path opacity=".7" d="M193.248 124.48v4.553l63.271-36.472v-4.554l-63.271 36.473zm0 7.807v4.554l49.206-28.348v-4.554l-49.206 28.348zm0 13.847v4.553l63.271-36.461v-4.554l-63.271 36.462zm0 7.819v4.553l63.271-36.429v-4.554l-63.271 36.43zm0 7.546v4.553l47.72-27.409v-4.554l-47.72 27.41zm0-63.184v7.797l46.181-26.645V71.67l-46.181 26.645zm0 11.794v4.903l30.685-17.625v-4.903l-30.685 17.625z" fill="#fff"/></g><path d="M197.595 170.889l1.43 2.501 3.189-1.311-2.293 3.921.546 3.33-2.851-.076-2.85 3.374.535-3.964-2.315-1.256 3.189-2.369 1.42-4.15zm13.836-7.982l1.43 2.5 3.189-1.31-2.304 3.92.556 3.331-2.85-.077-2.85 3.364.535-3.964-2.315-1.245 3.178-2.37 1.431-4.149zm13.824-7.993l1.441 2.5 3.178-1.31-2.293 3.92.557 3.331-2.851-.077-2.861 3.375.546-3.964-2.326-1.256 3.189-2.37 1.42-4.149z" fill="#F995A6"/><path d="M239.091 146.931l1.43 2.5 3.189-1.31-2.293 3.92.557 3.331-2.861-.077-2.851 3.375.535-3.964-2.315-1.256 3.2-2.37 1.409-4.149zm13.836-7.983l1.43 2.501 3.189-1.31-2.293 3.92.556 3.319-2.861-.065-2.85 3.363.535-3.964-2.315-1.245 3.189-2.38 1.42-4.139z" fill="#CD2945"/><path d="M197.595 182.956l1.43 2.501 3.189-1.322-2.293 3.921.546 3.341-2.851-.076-2.85 3.363.535-3.953-2.315-1.256 3.189-2.369 1.42-4.15zm13.836-7.994l1.43 2.501 3.189-1.31-2.304 3.92.556 3.341-2.85-.087-2.85 3.374.535-3.964-2.315-1.255 3.178-2.37 1.431-4.15zm13.824-7.982l1.441 2.501 3.178-1.311-2.293 3.921.557 3.33-2.851-.076-2.861 3.363.546-3.953-2.326-1.256 3.189-2.369 1.42-4.15zm13.836-7.982l1.43 2.5 3.189-1.31-2.293 3.92.557 3.32-2.861-.066-2.851 3.364.535-3.964-2.315-1.256 3.2-2.37 1.409-4.138z" fill="#F995A6"/><path d="M252.927 151.004l1.43 2.501 3.189-1.311-2.293 3.92.556 3.331-2.861-.076-2.85 3.374.535-3.964-2.315-1.256 3.189-2.369 1.42-4.15z" fill="#CD2945"/><path d="M197.595 195.012l1.43 2.5 3.189-1.31-2.293 3.92.546 3.331-2.851-.077-2.85 3.375.535-3.964-2.315-1.256 3.189-2.37 1.42-4.149zm13.836-7.983l1.43 2.501 3.189-1.31-2.304 3.92.556 3.33-2.85-.076-2.85 3.363.535-3.953-2.315-1.255 3.178-2.37 1.431-4.15zm13.824-7.983l1.441 2.501 3.178-1.31-2.293 3.92.557 3.32-2.851-.066-2.861 3.363.546-3.964-2.326-1.255 3.189-2.359 1.42-4.15z" fill="#F995A6"/><path d="M239.091 171.053l1.43 2.501 3.189-1.31-2.293 3.92.557 3.33-2.861-.076-2.851 3.374.535-3.964-2.315-1.256 3.2-2.369 1.409-4.15zm13.836-7.982l1.43 2.5 3.189-1.31-2.293 3.92.556 3.331-2.861-.076-2.85 3.374.535-3.964-2.315-1.256 3.189-2.381 1.42-4.138z" fill="#CD2945"/><path d="M197.595 170.89l1.43 2.5 3.189-1.31-2.293 3.92.546 3.331-2.851-.077-2.85 3.375.535-3.964-2.315-1.256 3.189-2.37 1.42-4.149zm13.836-7.983l1.43 2.501 3.189-1.31-2.304 3.92.556 3.33-2.85-.076-2.85 3.363.535-3.964-2.315-1.245 3.178-2.369 1.431-4.15zm13.824-7.993l1.441 2.5 3.178-1.31-2.293 3.92.557 3.331-2.851-.077-2.861 3.375.546-3.964-2.326-1.256 3.189-2.37 1.42-4.149zm-27.66 28.042l1.43 2.501 3.189-1.322-2.293 3.921.546 3.341-2.851-.076-2.85 3.363.535-3.953-2.315-1.256 3.189-2.369 1.42-4.15zm13.836-7.994l1.43 2.501 3.189-1.31-2.304 3.92.556 3.341-2.85-.087-2.85 3.374.535-3.964-2.315-1.255 3.178-2.37 1.431-4.15zm13.824-7.982l1.441 2.501 3.178-1.311-2.293 3.921.557 3.33-2.851-.076-2.861 3.363.546-3.953-2.326-1.256 3.189-2.369 1.42-4.15zm13.836-7.982l1.43 2.5 3.189-1.31-2.293 3.92.557 3.32-2.861-.066-2.851 3.364.535-3.964-2.315-1.256 3.2-2.37 1.409-4.138zm-41.496 36.013l1.43 2.501 3.189-1.31-2.293 3.92.546 3.33-2.851-.076-2.85 3.374.535-3.964-2.315-1.256 3.189-2.369 1.42-4.15zm13.836-7.982l1.43 2.5 3.189-1.31-2.304 3.92.556 3.331-2.85-.076-2.85 3.363.535-3.953-2.315-1.256 3.178-2.37 1.431-4.149zm13.824-7.983l1.441 2.501 3.178-1.31-2.293 3.92.557 3.32-2.851-.066-2.861 3.363.546-3.963-2.326-1.256 3.189-2.359 1.42-4.15z" opacity=".8" fill="#fff"/><path d="M139.424 245.473l-16.315 9.468v18.88l13.476-7.796 2.839-5.864v-14.688z" fill="#F995A6"/><path opacity=".1" d="M139.424 245.473l-16.315 9.468v18.88l13.476-7.796 2.839-5.864v-14.688z" fill="#690113"/><path d="M136.584 266.024l2.839-5.864-2.839 1.638v4.226z" fill="#F995A6"/><path opacity=".3" d="M136.584 266.024l2.839-5.864-2.839 1.638v4.226z" fill="#171E2F"/><path d="M142.754 243.573v3.986l44.532-25.684v-3.986l-44.532 25.684zm0 6.836v3.986l44.532-25.651v-3.986l-44.532 25.651zm0 6.595v3.986l30.936-17.756v-3.985l-30.936 17.755z" fill="#F995A6"/><g opacity=".6"><path opacity=".7" d="M142.754 243.573v3.986l44.532-25.684v-3.986l-44.532 25.684zm0 6.836v3.986l44.532-25.651v-3.986l-44.532 25.651zm0 6.595v3.986l30.936-17.756v-3.985l-30.936 17.755z" fill="#fff"/></g><path d="M139.424 270.818l-16.315 9.457v18.892l13.476-7.808 2.839-5.864v-14.677z" fill="#F995A6"/><path opacity=".1" d="M139.424 270.818l-16.315 9.457v18.892l13.476-7.808 2.839-5.864v-14.677z" fill="#690113"/><path d="M136.584 291.359l2.839-5.864-2.839 1.649v4.215z" fill="#F995A6"/><path opacity=".3" d="M136.584 291.359l2.839-5.864-2.839 1.649v4.215z" fill="#171E2F"/><path d="M142.754 268.918v3.986l45.023-25.957v-3.986l-45.023 25.957zm0 6.836v3.975l45.023-25.913v-3.986l-45.023 25.924zm0 6.596v3.985l9.751-5.492v-3.986l-9.751 5.493z" fill="#F995A6"/><g opacity=".6"><path opacity=".7" d="M142.754 268.918v3.986l45.023-25.957v-3.986l-45.023 25.957zm0 6.836v3.975l45.023-25.913v-3.986l-45.023 25.924zm0 6.596v3.986l9.751-5.493v-3.986l-9.751 5.493z" fill="#fff"/></g><path d="M139.424 296.164l-16.315 9.456v18.881l13.476-7.797 2.839-5.864v-14.676z" fill="#F995A6"/><path opacity=".1" d="M139.424 296.164l-16.315 9.456v18.881l13.476-7.797 2.839-5.864v-14.676z" fill="#690113"/><path d="M136.584 316.704l2.839-5.864-2.839 1.638v4.226z" fill="#F995A6"/><path opacity=".3" d="M136.584 316.704l2.839-5.864-2.839 1.638v4.226z" fill="#171E2F"/><path d="M142.754 294.264v3.975l45.449-26.383v-3.986l-45.449 26.394zm0 6.825v3.985l45.449-26.349v-3.986l-45.449 26.35zm0 6.595v3.986l45.449-26.296v-3.985l-45.449 26.295z" fill="#F995A6"/><g opacity=".6"><path opacity=".7" d="M142.754 294.264v3.975l45.449-26.383v-3.986l-45.449 26.394zm0 6.825v3.985l45.449-26.349v-3.986l-45.449 26.35zm0 6.595v3.986l45.449-26.295v-3.986l-45.449 26.295z" fill="#fff"/></g><path d="M255.765 252.276l-60.661 34.944a1.182 1.182 0 01-1.625-.43 1.187 1.187 0 01-.155-.597V217.78a3.566 3.566 0 011.78-3.091l60.661-35.009a1.182 1.182 0 011.189.005 1.186 1.186 0 01.591 1.032v68.436a3.562 3.562 0 01-1.78 3.123z" fill="#F995A6"/><path d="M214.848 209.12l-16.315 9.468v18.88l13.486-7.796 2.829-5.864V209.12z" fill="#F995A6"/><path opacity=".3" d="M214.848 209.12l-16.315 9.468v18.88l13.486-7.796 2.829-5.864V209.12z" fill="#690113"/><path d="M212.02 229.672l2.828-5.864-2.828 1.638v4.226z" fill="#F995A6"/><path opacity=".5" d="M212.02 229.672l2.828-5.864-2.828 1.638v4.226z" fill="#171E2F"/><path d="M218.703 209.525v2.653l35.294-20.366v-2.653l-35.294 20.366zm0 7.196l35.294-20.344v-2.654l-35.294 20.344v2.654zm0 4.684l35.294-20.365v-2.643l-35.294 20.366v2.642zm19.263-9.227l-19.263 11.127v2.654l19.263-11.139v-2.642zm-39.433 32.017l55.463-31.886v-2.643l-55.463 31.875v2.654zm41.147-21.719l-41.147 23.62v2.642l41.147-23.609v-2.653zm-41.147 43.177l55.463-31.886v-2.643l-55.463 31.875v2.654zm30.816-15.79l-30.816 17.679v2.654l30.816-17.691v-2.642zm-30.816 25.018l55.463-31.876v-2.653l-55.463 31.886v2.643zm0 4.553l27.737-15.932v-2.654l-27.737 15.932v2.654zm31.561-18.138l8.692-4.991v-2.653l-8.692 5.001v2.643zm-31.561-7.862l55.463-31.887v-2.642l-55.463 31.875v2.654zm19.35-9.228l-19.35 11.117v2.653l19.35-11.116v-2.654z" fill="#F995A6"/><path opacity=".3" d="M218.703 209.525v2.653l35.294-20.366v-2.653l-35.294 20.366zm0 7.196l35.294-20.344v-2.654l-35.294 20.344v2.654zm0 4.684l35.294-20.365v-2.643l-35.294 20.366v2.642zm19.263-9.227l-19.263 11.128v2.653l19.263-11.138v-2.643zm-39.433 32.018l55.463-31.887v-2.642l-55.463 31.875v2.654zm41.147-21.72l-41.147 23.62v2.642l41.147-23.609v-2.653zm-41.147 43.177l55.463-31.886v-2.643l-55.463 31.875v2.654zm30.816-15.79l-30.816 17.679v2.654l30.816-17.691v-2.642zm-30.816 25.018l55.463-31.876v-2.653l-55.463 31.886v2.643zm0 4.553l27.737-15.932v-2.653l-27.737 15.932v2.653zm31.559-18.138l8.692-4.99v-2.654l-8.692 5.002v2.642zm-31.559-7.862l55.463-31.887v-2.642l-55.463 31.875v2.654zm19.35-9.227l-19.35 11.116v2.654l19.35-11.117v-2.653z" fill="#fff"/><path d="M276.623 425.328a12.431 12.431 0 009.336 3.44 28.164 28.164 0 009.883-2.49c3.156-1.3 7.12-4.936 10.538-4.871a82.309 82.309 0 0010.035-.633c.116-4.552-.361-9.1-1.419-13.53l-15.944-.426c-4.302 5.897-12.678 10.8-19.011 12.646a5.565 5.565 0 00-3.932 4.193.322.322 0 000 .098c.104.544.277 1.072.514 1.573z" fill="#40495E"/><path d="M306.38 421.407c-3.418-.065-7.382 3.571-10.537 4.871a28.192 28.192 0 01-9.883 2.49 12.443 12.443 0 01-9.337-3.44 6.595 6.595 0 01-.546-1.616.329.329 0 010-.099 4.98 4.98 0 000 2.119c.11.564.294 1.111.546 1.627a12.463 12.463 0 009.337 3.429 28.17 28.17 0 009.883-2.49c3.155-1.3 7.119-4.936 10.537-4.87a72.07 72.07 0 009.828-.568c.088-.71.131-1.42.164-2.184-3.313.446-6.649.69-9.992.731zm49.118 12.81a24.237 24.237 0 01-.513 5.187 12.01 12.01 0 01-4.717 7.578 15.276 15.276 0 01-7.546 1.998 16.672 16.672 0 01-6.891-.709 7.844 7.844 0 01-4.04-3.276v.087a7.199 7.199 0 001.724 2.991 7.199 7.199 0 002.917 1.847 16.72 16.72 0 006.901.709c2.643.001 5.24-.688 7.535-1.998a12.013 12.013 0 004.74-7.568c.356-1.705.528-3.444.513-5.187a8.784 8.784 0 012.784-6.344c.426-.397.831-.816 1.213-1.256a3.053 3.053 0 00.742-2.26c0-.313-.033-.63-.098-.95-.634.742-2.108 2.489-2.479 2.839a8.793 8.793 0 00-2.785 6.312z" fill="#2F3646"/><path d="M342.417 416.133a19.01 19.01 0 01-1.332 10.516 40.192 40.192 0 01-5.569 9.162 27.283 27.283 0 00-2.916 4.248 7.65 7.65 0 00-.83 4.903 7.844 7.844 0 004.04 3.276c2.222.716 4.57.958 6.891.71 2.65.011 5.258-.666 7.568-1.966a12.016 12.016 0 004.739-7.567c.356-1.706.528-3.445.513-5.187a8.785 8.785 0 012.785-6.345c.371-.349 1.845-2.097 2.479-2.839a19.286 19.286 0 00-2.567-7.338l-15.801-1.573z" fill="#40495E"/><path d="M296.924 266.999s-4.237 52.962-3.866 67.704a99517.11 99517.11 0 001.922 72.945c8.66 4.827 21.174 1.234 21.174 1.234 1.016-46.475 5.613-56.467 2.49-73.481 2.184-12.623 5.252-42.052 5.252-42.052 4.314 35.391 7.448 53.628 7.448 53.628l10.308 70.849c8.463 4.204 19.143 0 19.143 0 0-40.404.917-57.472-3.505-84.084a584.321 584.321 0 00-4.368-70.434l-55.998 3.691z" fill="#2F3646"/><path d="M296.924 266.999s-4.237 52.962-3.866 67.704a99517.11 99517.11 0 001.922 72.945c8.66 4.827 21.174 1.234 21.174 1.234 1.016-46.475 5.613-56.467 2.49-73.481 2.184-12.623 5.252-42.052 5.252-42.052 4.314 35.391 7.448 53.628 7.448 53.628l10.308 70.849c8.463 4.204 19.143 0 19.143 0 0-40.404.917-57.472-3.505-84.084a584.321 584.321 0 00-4.368-70.434l-55.998 3.691z" fill="url(#paint1_linear)"/><path opacity=".2" d="M307.156 280.682c2.96 6.89 12.22 6.89 12.22 6.89l1.66 7.852-.623 27.889c1.78-13.562 3.484-29.975 3.484-29.975l-1.147-8.387a25.38 25.38 0 01-15.594-4.269z" fill="#171E2F"/><path d="M311.054 184.902c-14.469 0-16.839 5.624-20.497 14.949-3.658 9.326-6.487 25.979-6.487 25.979l13.989-3.014 5.46-31.504 7.535-6.41z" fill="#2F3646"/><path d="M311.054 184.902c-14.469 0-16.839 5.624-20.497 14.949-3.658 9.326-6.487 25.979-6.487 25.979l13.989-3.014 5.46-31.504 7.535-6.41z" fill="url(#paint2_linear)"/><path d="M311.054 184.902c-14.469 0-16.839 5.624-20.497 14.949-3.658 9.326-6.487 25.979-6.487 25.979l13.989-3.014 5.46-31.504 7.535-6.41z" fill="url(#paint3_linear)"/><path d="M311.054 184.902c-14.469 0-16.839 5.624-20.497 14.949-3.658 9.326-6.487 25.979-6.487 25.979l13.989-3.014 5.46-31.504 7.535-6.41z" fill="url(#paint4_linear)"/><path d="M298.059 220.534a22.114 22.114 0 00-10.658 1.933 8.735 8.735 0 00-3.418 2.457 3.954 3.954 0 00-.59 3.997c-1.332 2.446-1.212 6.082-.939 9.074.028.578.153 1.147.371 1.682a1.962 1.962 0 001.245 1.092l13.989-12.58v-7.655z" fill="#1D253A"/><path opacity=".2" d="M293.265 223.635c-4.968-.393-8.561 2.468-10.177 3.932.004.468.108.929.306 1.354 1.146-1.737 6.027-4.893 9.871-5.286zm-5.427 4.74a20.128 20.128 0 0110.221-2.687v-1.157a16.376 16.376 0 00-10.221 3.844z" fill="#171E2F"/><path d="M351.152 185.819l-6.792-.721-33.306-.229c-11.673 0-13.169 14.36-13.836 27.071-.666 12.711 1.475 38.274-1.419 55.353l13.901 8.977 3.898-4.205 6.225 5.799c21.13 0 33.579-11.728 35.162-13.748l-3.833-78.297z" fill="#F995A6"/><path opacity=".2" d="M351.152 185.819l-6.792-.721-33.306-.229c-11.673 0-13.169 14.36-13.836 27.071-.666 12.711 1.475 38.274-1.419 55.353l13.901 8.977 3.898-4.205 6.225 5.799c21.13 0 33.579-11.728 35.162-13.748l-3.833-78.297z" fill="#fff"/><path d="M316.492 189.27c-3.112 9.915-1.157 23.74 0 29.954 7.895-10.844 15.288-21.731 17.592-25.99l-11.007-5.34-6.585 1.376z" fill="#2F3646"/><path d="M316.492 189.27c-3.112 9.915-1.157 23.74 0 29.954 7.895-10.844 15.288-21.731 17.592-25.99l-11.007-5.34-6.585 1.376z" fill="url(#paint5_linear)"/><path d="M316.492 189.27c-3.112 9.915-1.157 23.74 0 29.954 7.895-10.844 15.288-21.731 17.592-25.99l-11.007-5.34-6.585 1.376z" fill="url(#paint6_linear)"/><path d="M316.492 189.27c-3.112 9.915-1.157 23.74 0 29.954 7.895-10.844 15.288-21.731 17.592-25.99l-11.007-5.34-6.585 1.376z" fill="url(#paint7_linear)"/><path opacity=".2" d="M315.445 219.988l-3.582 4.805a6.96 6.96 0 00-1.365 4.576l2.403 39.956-4.128-39.651a6.93 6.93 0 012.37-5.984l4.302-3.702z" fill="#171E2F"/><path d="M351.153 185.819l4.521.721a13.297 13.297 0 0110.92 10.472 158.754 158.754 0 012.937 38.34l-20.617-9.5c-2.205-16.118-6.442-29.429 2.239-40.033z" fill="url(#paint8_linear)"/><path d="M351.153 185.819l4.521.721a13.297 13.297 0 0110.92 10.472 158.754 158.754 0 012.937 38.34l-20.617-9.5c-2.205-16.118-6.442-29.429 2.239-40.033z" fill="url(#paint9_linear)"/><path d="M351.153 185.819l4.521.721a13.297 13.297 0 0110.92 10.472 158.754 158.754 0 012.937 38.34l-20.617-9.5c-2.205-16.118-6.442-29.429 2.239-40.033z" fill="url(#paint10_linear)"/><path d="M348.193 226.474a1.455 1.455 0 011.475-1.452c9.336.12 18.4 4.565 20.879 9.828a7.72 7.72 0 010 5.045c1.659 2.184.797 3.276-.077 4.838-.873 1.561.437 5.099-2.38 4.936l.655-1.344c-5.58-10.821-19.656-15.288-19.656-15.288l-.077-1.79a1.224 1.224 0 00-.415-.852 1.249 1.249 0 01-.404-.918v-3.003z" fill="#1D253A"/><path opacity=".2" d="M358.754 230.93a31.796 31.796 0 0111.794 8.921 9.417 9.417 0 00.382-1.692c-1.551-1.933-4.903-5.493-12.176-7.229zm-10.506-1.114c.067.212.187.404.349.557a1.212 1.212 0 01.415.852v.142a31.072 31.072 0 0117.232 8.736c-4.313-6.258-13.792-9.468-17.996-10.287z" fill="#171E2F"/><path d="M348.738 233.285l-.012-.253-.065-1.402c-7.834-2.654-18.593-3.727-28.455-4.146-7.092-.301-13.687-.263-18.379-.236-1.897.011-3.483.02-4.666.004-1.41.001-2.995.567-4.588 1.509-1.588.939-3.156 2.236-4.525 3.654-1.368 1.42-2.527 2.951-3.302 4.352-.786 1.421-1.141 2.64-1.006 3.463.037.226.072.449.106.667.112.714.217 1.385.373 2.021.202.824.483 1.556.949 2.184.92 1.241 2.643 2.182 6.266 2.469 2.552.16 6.311-.249 9.457-.705 1.568-.227 2.975-.464 3.99-.645.508-.09.917-.167 1.199-.22l.325-.062.084-.017.021-.004.005-.001h.002l.07.355-.07-.355.089-.018.088.027c13.74 4.22 27.242 5.959 37.825 6.547 10.591.589 18.233.025 20.25-.344l.014-.002h0c.845-.122 1.59-.76 2.148-1.432.273-.328.488-.65.635-.89.074-.119.129-.218.167-.285l.041-.077.01-.019.001-.002.001-.003h0l-19.048-16.134zm0 0l.241.076h0l.002.001.006.002.029.009.116.039a37.406 37.406 0 012.104.801 46.007 46.007 0 015.408 2.685c4.15 2.418 8.946 6.129 11.715 11.346l-19.621-14.959z" fill="#fff" stroke="#C7C3C1" stroke-width=".725"/><path d="M360.096 239.502c-.419-1.373-1.627-1.306-2.501-2.446a42.301 42.301 0 00-8.506-4.04l-.077-1.649-1.026-.339.207 2.042c-4.499.306-30.871 10.287-41.605 12.438 2.107.645 3.385 1.103 5.46 1.638 12.012-4.16 29.495-12.47 37.128-13.65 5.318 1.365 8.43 2.468 10.92 6.006z" fill="#C7C3C1"/><path d="M346.37 156.182c1.648-5.525 1.288-11.88-2.021-16.609a18.032 18.032 0 00-8.736-6.465 27.743 27.743 0 00-10.92-1.408 20.085 20.085 0 00-8.408 2.02 13.54 13.54 0 00-5.558 18.346 22.553 22.553 0 005.46 6.279 70.31 70.31 0 0013.868 9.26 70.914 70.914 0 003.789 1.78c.863.382 2.512 1.452 3.484 1.256.972-.197 1.998-2.021 2.588-2.763a68.903 68.903 0 002.402-3.276 32.116 32.116 0 004.052-8.42z" fill="#2F3646"/><path d="M346.37 156.182c1.648-5.525 1.288-11.88-2.021-16.609a18.032 18.032 0 00-8.736-6.465 27.743 27.743 0 00-10.92-1.408 20.085 20.085 0 00-8.408 2.02 13.54 13.54 0 00-5.558 18.346 22.553 22.553 0 005.46 6.279 70.31 70.31 0 0013.868 9.26 70.914 70.914 0 003.789 1.78c.863.382 2.512 1.452 3.484 1.256.972-.197 1.998-2.021 2.588-2.763a68.903 68.903 0 002.402-3.276 32.116 32.116 0 004.052-8.42z" fill="url(#paint11_linear)"/><path d="M346.37 156.182c1.648-5.525 1.288-11.88-2.021-16.609a18.032 18.032 0 00-8.736-6.465 27.743 27.743 0 00-10.92-1.408 20.085 20.085 0 00-8.408 2.02 13.54 13.54 0 00-5.558 18.346 22.553 22.553 0 005.46 6.279 70.31 70.31 0 0013.868 9.26 70.914 70.914 0 003.789 1.78c.863.382 2.512 1.452 3.484 1.256.972-.197 1.998-2.021 2.588-2.763a68.903 68.903 0 002.402-3.276 32.116 32.116 0 004.052-8.42z" fill="url(#paint12_linear)"/><path d="M321.09 198.399l-2.709-.644a89.337 89.337 0 00-3.276 10.614c.286 3.663.763 7.308 1.431 10.92a563.123 563.123 0 004.554-6.333 72.26 72.26 0 010-14.557z" fill="#F995A6"/><path opacity=".2" d="M321.035 198.978v-.579l-2.708-.644s-.066.153-.153.404c.435.397.966.675 1.54.808.435.087.884.091 1.321.011z" fill="#171E2F"/><path d="M322.553 191.29l2.184-1.375 4.979 2.708a11.465 11.465 0 01-5.875 2.337l-1.288-3.67zm-3.298-.535l-.656-1.485-2.511 1.573a4.57 4.57 0 001.638 2.391l1.529-2.479z" fill="#F995A6"/><path opacity=".2" d="M322.553 191.29l2.184-1.375 4.979 2.708a11.465 11.465 0 01-5.875 2.337l-1.288-3.67zm-3.298-.535l-.656-1.485-2.511 1.573a4.57 4.57 0 001.638 2.391l1.529-2.479z" fill="#171E2F"/><path d="M323.798 194.96a12.018 12.018 0 00-1.245-3.67l-3.276-.535a12.81 12.81 0 00-1.529 2.501 11.864 11.864 0 00.655 4.499 5.738 5.738 0 002.709.644 7.132 7.132 0 002.686-3.439z" fill="#F995A6"/><path d="M337.743 165.781v15.081c-3.003 4.138-15.616 9.391-16.38 9.26-.918-.153 0-8.277 0-8.987v-6.061c2.446-.371 4.859-.797 7.021-1.256a12.742 12.742 0 009.359-8.037z" fill="#fff"/><path d="M327.084 177.362c-1.709.472-3.45.802-5.207.988v-3.331c2.333-.377 4.634-.81 6.696-1.276 1.881-.42 3.64-1.31 5.134-2.598a12.849 12.849 0 003.458-4.807c-.382 2.582-1.469 4.988-3.124 6.916-1.931 2.011-4.334 3.43-6.957 4.108z" fill="#C7C3C1"/><path d="M311.971 142.03a13.839 13.839 0 009.173 3.866c3.276 0 6.356-1.037 9.468-1.889a7.317 7.317 0 002.184 3.953 8.364 8.364 0 004.368 1.922 28.248 28.248 0 000 8.736 1.655 1.655 0 001.092 1.354c1.092.306 1.747-.765 2.249-1.638a7.098 7.098 0 012.283-2.534 3.482 3.482 0 013.276-.338 3.413 3.413 0 011.736 2.107c.254.91.303 1.865.142 2.796a8.472 8.472 0 01-1.813 4.259 5.782 5.782 0 01-4.051 2.085 4.167 4.167 0 01-3.888-1.921l-.076.283a9.3 9.3 0 01-.426 1.355 11.621 11.621 0 01-8.496 7.283 81.869 81.869 0 01-6.399 1.092 111.62 111.62 0 01-3.276.459 7.959 7.959 0 01-8.79-6.552c-1.485-8.354-1.955-18.258 1.244-26.678z" fill="#fff"/><path d="M306.02 151.421v2.01l.491.284c.274 1.304.428 2.631.459 3.964a5.536 5.536 0 001.375 3.516 5.319 5.319 0 003.681 1.015 6.482 6.482 0 003.068-.469 5.219 5.219 0 002.337-3.003c.448-1.256.371-1.988.917-3.505a1.024 1.024 0 01.983-.699 1.087 1.087 0 011.092.699c.579 1.517.502 2.249.972 3.505a5.307 5.307 0 002.501 3.003c1.042.4 2.162.561 3.276.469a5.961 5.961 0 003.931-1.015 5.279 5.279 0 001.463-3.516c.036-1.334.201-2.662.491-3.964l.536-.284v-2.01a14.02 14.02 0 00-13.236 1.344h-1.921a12.406 12.406 0 00-12.416-1.344zm15.288 1.977a12.852 12.852 0 016.759-1.966 12.53 12.53 0 013.352.459c.088 1.529.142 3.647.077 4.608 0 .35 0 .699-.077 1.038a4.167 4.167 0 01-1.092 2.806 5.062 5.062 0 01-3.276.786h-.436a5.445 5.445 0 01-2.348-.382 4.305 4.305 0 01-1.988-2.413 17.274 17.274 0 01-.961-3.811l-.076-.721s.011-.339.12-.404h-.054zm-13.399-1.507c1.02-.303 2.08-.458 3.145-.459 2.252.018 4.448.702 6.311 1.966.11.065.077.404.077.404l-.066.721a18.092 18.092 0 01-.906 3.811 4.236 4.236 0 01-1.856 2.413 4.773 4.773 0 01-2.184.382h-.383a4.505 4.505 0 01-3.046-.786 4.278 4.278 0 01-1.092-2.806c0-.339 0-.688-.077-1.038 0-.961.055-3.079.131-4.608h-.054z" fill="#2F3646"/><path d="M333.561 151.421l10.778 3.877a4.564 4.564 0 00-2.108.983c-.12.098-8.67-2.85-8.67-2.85v-2.01z" fill="#2F3646"/><path d="M319.376 154.697l-5.438 6.585 4.99 1.758.448-8.343z" fill="#fff"/><path d="M319.376 154.697l-5.438 6.585 4.99 1.758.448-8.343z" fill="#C7C3C1"/><path d="M327.053 155.516a1.5 1.5 0 01-.916 1.39 1.498 1.498 0 01-1.413-2.622c.247-.165.536-.253.833-.253a1.488 1.488 0 011.496 1.485zm-12.537-.404a1.494 1.494 0 01-.914 1.389 1.495 1.495 0 01-2.048-1.075 1.505 1.505 0 01.625-1.541 1.498 1.498 0 012.337 1.227zm.809-6.628l-3.997.458a2.182 2.182 0 011.682-1.769 2.51 2.51 0 012.315 1.311zm8.736.382h4.018a2.112 2.112 0 00-1.878-1.54 2.511 2.511 0 00-2.14 1.54z" fill="#2F3646"/><path d="M324.672 165.683l-5.744 1.747a3.538 3.538 0 003.865 1.78c1.409-.36 2.053-2.075 1.879-3.527z" fill="#fff"/><path d="M324.672 165.683l-5.744 1.747a3.538 3.538 0 003.865 1.78c1.409-.36 2.053-2.075 1.879-3.527z" fill="#86807C"/><path d="M320.914 169.123a3.278 3.278 0 001.878.109 2.885 2.885 0 001.868-2.599 3.486 3.486 0 00-2.184.404 3.407 3.407 0 00-1.562 2.086z" fill="#fff"/><path d="M320.914 169.123a3.278 3.278 0 001.878.109 2.885 2.885 0 001.868-2.599 3.486 3.486 0 00-2.184.404 3.407 3.407 0 00-1.562 2.086z" fill="#C7C3C1"/><path d="M321.395 190.122c5.23-.088 8.43 4.084 13.213 5.46l9.751-10.527-3.778-5.613a9.752 9.752 0 00-2.883-2.785v2.031a3.47 3.47 0 01-1.725 2.927l-14.578 8.507zm0 0c-2.904-.896-7.25 2.741-7.25 2.741 1.517-8.419 6.115-11.728 7.239-11.728l.011 8.987z" fill="#2F3646"/><path d="M213.562 395.552l-12.797.37-12.798-.37c-.552 8.635 1.131 17.432 3.455 21.729a5.813 5.813 0 002.533 2.573c3.772 2.176 9.868 2.176 13.619 0a5.614 5.614 0 002.526-2.64c2.337-4.345 4.008-13.101 3.462-21.662z" fill="#FBB5C1"/><path d="M209.784 390.318c5.012 2.89 5.039 7.578.061 10.468-4.978 2.889-13.067 2.896-18.079 0-5.011-2.897-5.038-7.578-.06-10.468 4.977-2.889 13.074-2.896 18.078 0z" fill="#CD7887"/><path d="M207.804 391.463c3.906 2.257 3.926 5.921.047 8.171-3.88 2.25-10.198 2.256-14.105 0-3.906-2.257-3.927-5.914-.047-8.171 3.88-2.256 10.198-2.249 14.105 0z" fill="#E0E0E0"/><path d="M207.804 391.463c3.906 2.257 3.926 5.921.047 8.171-3.88 2.25-10.198 2.256-14.105 0-3.906-2.257-3.927-5.914-.047-8.171 3.88-2.256 10.198-2.249 14.105 0z" fill="#AE6673"/><path d="M221.794 341c-28.809 9.43-29.071 28.707-22.578 42.435 1.643 2.775 6.601 4.27 10.911-12.798l-7.564.97 8.817-4.466 2.29-6.85-7.355.545 9.336-3.926a137.162 137.162 0 016.143-15.91z" fill="#F995A6"/><path opacity=".2" d="M221.794 341c-28.809 9.43-29.071 28.707-22.578 42.435 1.643 2.775 6.601 4.27 10.911-12.798l-7.564.97 8.817-4.466 2.29-6.85-7.355.545 9.336-3.926a137.162 137.162 0 016.143-15.91z" fill="#171E2F"/><path d="M213.643 345.816c-15.202 11.531-16.549 24.753-12.272 38.555-1.516-12.151-3.159-24.437 12.272-38.555z" fill="#fff"/><path d="M173 360.581c28.397 3.994 31.839 21.904 28.074 35.766-1.064 2.856-5.436 5.072-12.286-10.104l7.207-.357-8.958-2.694-3.267-6.022 6.938-.673-9.342-2.108A130.324 130.324 0 00173 360.581z" fill="#F995A6"/><path opacity=".2" d="M173 360.581c28.397 3.994 31.839 21.904 28.074 35.766-1.064 2.856-5.436 5.072-12.286-10.104l7.207-.357-8.958-2.694-3.267-6.022 6.938-.673-9.342-2.108A130.324 130.324 0 00173 360.581z" fill="#fff"/><path d="M181.387 363.699c16.064 8.217 19.533 20.301 17.836 33.867-.607-11.559-1.118-23.272-17.836-33.867z" fill="#fff"/><path d="M230.098 367.289c-26.04.424-31.153 16.166-29.307 29.091.673 2.695 4.331 5.18 12.205-7.732l-6.473-1.125 8.379-1.428 3.617-5.038-6.176-1.422 8.662-.848a118.747 118.747 0 019.093-11.498z" fill="#F995A6"/><path d="M222.19 369.175c-15.398 5.604-19.877 16.078-19.864 28.526 1.839-10.36 3.617-20.861 19.864-28.526z" fill="#fff"/><defs><linearGradient id="paint0_linear" x1="157.772" y1="134.722" x2="157.772" y2="173.949" gradientUnits="userSpaceOnUse"><stop stop-color="#3B455B"/><stop offset="1" stop-color="#202A40"/></linearGradient><linearGradient id="paint1_linear" x1="326.955" y1="263.308" x2="326.955" y2="419.694" gradientUnits="userSpaceOnUse"><stop stop-color="#2F3646"/><stop offset="1" stop-color="#252C3D"/></linearGradient><linearGradient id="paint2_linear" x1="297.562" y1="184.902" x2="297.562" y2="225.83" gradientUnits="userSpaceOnUse"><stop stop-color="#3B455B"/><stop offset="1" stop-color="#202A40"/></linearGradient><linearGradient id="paint3_linear" x1="297.562" y1="184.902" x2="297.562" y2="225.83" gradientUnits="userSpaceOnUse"><stop stop-color="#3B455B"/><stop offset="1" stop-color="#2A3143"/></linearGradient><linearGradient id="paint4_linear" x1="297.562" y1="184.902" x2="297.562" y2="225.83" gradientUnits="userSpaceOnUse"><stop stop-color="#2F3646"/><stop offset="1" stop-color="#252C3D"/></linearGradient><linearGradient id="paint5_linear" x1="324.449" y1="187.894" x2="324.449" y2="219.224" gradientUnits="userSpaceOnUse"><stop stop-color="#3B455B"/><stop offset="1" stop-color="#202A40"/></linearGradient><linearGradient id="paint6_linear" x1="324.449" y1="187.894" x2="324.449" y2="219.224" gradientUnits="userSpaceOnUse"><stop stop-color="#3B455B"/><stop offset="1" stop-color="#2A3143"/></linearGradient><linearGradient id="paint7_linear" x1="324.449" y1="187.894" x2="324.449" y2="219.224" gradientUnits="userSpaceOnUse"><stop stop-color="#2F3646"/><stop offset="1" stop-color="#252C3D"/></linearGradient><linearGradient id="paint8_linear" x1="357.805" y1="185.819" x2="357.805" y2="235.352" gradientUnits="userSpaceOnUse"><stop stop-color="#3B455B"/><stop offset="1" stop-color="#202A40"/></linearGradient><linearGradient id="paint9_linear" x1="357.805" y1="185.819" x2="357.805" y2="235.352" gradientUnits="userSpaceOnUse"><stop stop-color="#3B455B"/><stop offset="1" stop-color="#2A3143"/></linearGradient><linearGradient id="paint10_linear" x1="357.805" y1="185.819" x2="357.805" y2="235.352" gradientUnits="userSpaceOnUse"><stop stop-color="#2F3646"/><stop offset="1" stop-color="#252C3D"/></linearGradient><linearGradient id="paint11_linear" x1="328.223" y1="131.629" x2="328.223" y2="170.664" gradientUnits="userSpaceOnUse"><stop stop-color="#3B455B"/><stop offset="1" stop-color="#202A40"/></linearGradient><linearGradient id="paint12_linear" x1="328.223" y1="131.629" x2="328.223" y2="170.664" gradientUnits="userSpaceOnUse"><stop stop-color="#3B455B"/><stop offset="1" stop-color="#2A3143"/></linearGradient></defs></svg>