<svg width="666" height="389" fill="none" xmlns="http://www.w3.org/2000/svg"><g clip-path="url(#clip0)"><path d="M70.516 219.175h53.741a6.723 6.723 0 006.722-6.722v-74.379a6.723 6.723 0 00-6.722-6.722H90.176l-26.383 27.19v53.911a6.723 6.723 0 006.723 6.722z" fill="#EBEBEB"/><path d="M90.176 131.352v20.93a6.25 6.25 0 01-6.252 6.251h-20.13l26.382-27.181z" fill="#F5F5F5"/><path d="M89.9 154.12s.267 5.079-5.514 6.749c-.213.062-.444.106-.666.151-2.629.471-19.927 3.543-19.927 3.152v-5.621h20.131c0-.009 5.026-.177 5.976-4.431z" fill="#E0E0E0"/><path d="M70.516 219.174c0-.035-.4.009-1.164-.133a6.798 6.798 0 01-3.046-1.421c-1.127-.932-2.29-2.566-2.406-4.741-.035-2.167.009-4.689 0-7.495.018-11.26.044-27.377.08-46.842l-.053.133c7.983-8.223 16.898-17.387 26.4-27.173l-.16.071c6.323 0 12.894.009 19.669.009h12.894c.87.009 1.758-.044 2.584.098a6.508 6.508 0 014.218 2.628 6.377 6.377 0 011.19 3.304c.045 1.19.009 2.442.027 3.649v21.437c.009 9.297.009 18.266.018 26.817 0 4.272.008 8.436.008 12.486 0 2.024 0 4.022.009 5.985v2.921c-.017.968.062 1.927-.124 2.833-.346 1.82-1.518 3.41-3.046 4.324a6.646 6.646 0 01-2.477.88c-.862.106-1.767.053-2.647.071-3.525.009-6.908.009-10.141.017-12.911.027-23.372.054-30.609.071-3.605.018-6.402.036-8.32.045-.942.009-1.661.018-2.167.026-.489-.008-.737 0-.737 0s.248.018.737.027c.497.009 1.225.009 2.166.027 1.919.009 4.716.026 8.321.044 7.237.018 17.698.045 30.609.071 3.233.009 6.616.009 10.141.018.88-.018 1.767.044 2.691-.062a7 7 0 002.62-.915c1.616-.959 2.85-2.637 3.223-4.564.195-.968.116-1.945.133-2.904v-2.921c0-1.963 0-3.961.009-5.986 0-4.049.009-8.214.009-12.485 0-8.542.009-17.511.018-26.817V141.27c-.009-1.225.026-2.424-.027-3.676a6.94 6.94 0 00-1.27-3.543 6.942 6.942 0 00-4.52-2.815c-.905-.151-1.784-.089-2.655-.098h-12.894c-6.766 0-13.346.009-19.669.009h-.097l-.063.071c-9.492 9.795-18.381 18.977-26.364 27.208l-.054.054v.08c.036 19.465.063 35.582.08 46.842.018 2.815-.009 5.319.045 7.503.133 2.238 1.35 3.89 2.504 4.822 1.199.95 2.353 1.27 3.108 1.385.382.062.675.08.879.08.222-.009.32-.018.32-.018z" fill="#E0E0E0"/><path d="M63.794 158.542c0 .018.177.036.514.045.391.008.88.026 1.483.044 1.35.018 3.197.044 5.453.071 2.317.018 5.061.027 8.09.044h4.777a6.462 6.462 0 004.67-2.193 6.486 6.486 0 001.324-2.326c.284-.835.32-1.759.293-2.567-.009-1.651-.009-3.25-.018-4.777a3884.75 3884.75 0 00-.053-8.09c-.027-2.255-.053-4.102-.071-5.452-.018-.604-.036-1.092-.044-1.483-.018-.338-.027-.515-.045-.515s-.035.177-.044.515c-.01.391-.027.879-.045 1.483-.017 1.35-.044 3.197-.07 5.452-.018 2.318-.027 5.062-.054 8.09 0 1.527-.009 3.117-.018 4.777.107 1.634-.364 3.312-1.51 4.591a6.025 6.025 0 01-4.342 2.043 4387.589 4387.589 0 00-12.858.08c-2.255.026-4.102.053-5.452.071-.604.017-1.093.035-1.483.044-.32.018-.497.035-.497.053zm27.394-8.516c0 .124 6.35.231 14.173.231 7.832 0 14.172-.107 14.172-.231 0-.125-6.349-.231-14.172-.231-7.824 0-14.173.106-14.173.231zm-13.453 10.443c0 .124 9.36.231 20.903.231 11.544 0 20.904-.107 20.904-.231 0-.124-9.36-.231-20.904-.231s-20.903.107-20.903.231zm0 10.443c0 .124 9.36.23 20.903.23 11.544 0 20.904-.106 20.904-.23 0-.125-9.36-.231-20.904-.231s-20.903.106-20.903.231zm0 10.443c0 .124 9.36.231 20.903.231 11.544 0 20.904-.107 20.904-.231 0-.124-9.36-.231-20.904-.231s-20.903.107-20.903.231zm0 10.442c0 .125 9.36.231 20.903.231 11.544 0 20.904-.106 20.904-.231 0-.124-9.36-.231-20.904-.231s-20.903.107-20.903.231zm0 12.885c0 .124 9.36.231 20.903.231 11.544 0 20.904-.107 20.904-.231 0-.124-9.36-.231-20.904-.231s-20.903.098-20.903.231z" fill="#E0E0E0"/><path d="M134.301 315.221l40.688 71.164 80.506 1.163a4.877 4.877 0 014.795 4.609l-81.874.231-3.081-.107-102.51.204-20.718-35.724-26.462-37.926c-1.732-2.487.053-5.897 3.081-5.888l102.333.391c1.341 0 2.576.719 3.242 1.883z" fill="#EBEBEB"/><path d="M25.636 315.638c0 .018.169.035.489.053.381.018.86.027 1.438.053 1.35.027 3.197.054 5.532.098 4.893.036 11.828.098 20.362.16 17.263.035 40.972.089 67.16.151h4.892c1.537-.116 2.931.559 3.73 1.758 1.545 2.78 3.064 5.523 4.555 8.214 2.993 5.408 5.888 10.629 8.641 15.602 5.514 9.919 10.487 18.852 14.687 26.383 4.183 7.432 7.575 13.48 9.972 17.742 1.164 2.025 2.087 3.632 2.753 4.795.302.497.542.906.737 1.234.169.276.267.409.284.4.018-.009-.053-.16-.195-.453a75.8 75.8 0 01-.648-1.287c-.631-1.19-1.492-2.824-2.593-4.893-2.327-4.307-5.63-10.399-9.697-17.902-4.138-7.566-9.049-16.535-14.492-26.489-2.735-4.982-5.612-10.212-8.587-15.629a9035.068 9035.068 0 00-4.582-8.285c-.95-1.51-2.869-2.362-4.573-2.22h-4.893c-26.188.062-49.897.106-67.16.151-8.533.071-15.46.124-20.362.16-2.335.044-4.19.071-5.532.097a89.13 89.13 0 00-1.438.054c-.311.017-.48.035-.48.053z" fill="#E0E0E0"/><path d="M97.777 351.416c1.811 2.007 1.856 4.919.098 6.509-1.758 1.589-4.653 1.243-6.465-.764-1.811-2.007-1.856-4.919-.098-6.509 1.759-1.589 4.654-1.243 6.465.764z" fill="#fff"/><path d="M615.881 316.562v42.561h7.104v4.618h-7.104v28.487H483.054v-25.921h9.839v-5.647h-9.839v-8.472h-4.369v-3.845h5.195v-31.781h132.001z" fill="#F5F5F5"/><path d="M518.326 316.677v75.071h-35.271v-25.92h9.839v-5.168l-9.839.168v-8.462h-4.458l.08-4.369 5.195-.133v-31.302l34.454.115z" fill="#E0E0E0"/><path d="M515.813 363.128c0 .257 24.038.471 53.679.471 29.651 0 53.68-.214 53.68-.471 0-.258-24.029-.471-53.68-.471-29.641 0-53.679.204-53.679.471zm0-4.324c0 .257 24.038.47 53.679.47 29.651 0 53.68-.213 53.68-.47 0-.258-24.029-.471-53.68-.471-29.641 0-53.679.213-53.679.471zm-6.891-11.633c0 .258 24.038.471 53.68.471 29.65 0 53.679-.213 53.679-.471 0-.257-24.029-.471-53.679-.471-29.651-.008-53.68.205-53.68.471zm-.666 31.701c0 .258 24.038.471 53.68.471 29.65 0 53.679-.213 53.679-.471 0-.257-24.029-.471-53.679-.471-29.642 0-53.68.214-53.68.471z" fill="#E0E0E0"/><path d="M172.644 135.392h52.499a6.567 6.567 0 006.571-6.571V56.165a6.567 6.567 0 00-6.571-6.571h-33.291l-25.77 26.56v52.667a6.554 6.554 0 006.562 6.571z" fill="#EBEBEB"/><path d="M191.843 49.602v20.451a6.11 6.11 0 01-6.11 6.11h-19.66l25.77-26.56z" fill="#F5F5F5"/><path d="M191.576 71.838s.258 4.964-5.39 6.589a5.261 5.261 0 01-.648.142c-2.566.462-19.465 3.463-19.465 3.081v-5.496h19.66c0 .008 4.911-.16 5.843-4.316z" fill="#E0E0E0"/><path d="M172.644 135.392c0-.036-.391.009-1.136-.133a6.524 6.524 0 01-2.975-1.386c-1.101-.914-2.238-2.504-2.353-4.635-.036-2.122.008-4.573.008-7.317.018-11.002.045-26.747.08-45.759l-.053.133c7.806-8.027 16.508-16.987 25.788-26.542l-.16.071c6.171 0 12.6.01 19.207.01h12.601c.852.008 1.714-.045 2.522.088 1.634.258 3.152 1.208 4.12 2.566a6.26 6.26 0 011.163 3.224c.045 1.163.009 2.38.027 3.56v20.941c.009 9.084.009 17.848.018 26.196 0 4.173.009 8.24.009 12.201 0 1.98 0 3.925.009 5.843v2.85c-.018.95.062 1.883-.125 2.762-.337 1.776-1.483 3.33-2.966 4.218a6.276 6.276 0 01-2.424.852c-.835.107-1.723.054-2.584.071-3.445.009-6.749.009-9.91.018-12.619.027-22.831.054-29.899.071-3.516.018-6.26.036-8.134.045-.924.009-1.625.017-2.114.026l-.719.027s.24.018.719.027c.489.008 1.19.008 2.114.026 1.874.009 4.609.027 8.134.045 7.077.017 17.289.044 29.899.071 3.152.009 6.465.009 9.91.017.861-.017 1.723.045 2.629-.062a6.708 6.708 0 002.566-.897c1.58-.941 2.788-2.575 3.152-4.457.196-.951.116-1.901.133-2.833v-2.851c0-1.918 0-3.862.009-5.843 0-3.951.009-8.027.009-12.201 0-8.347.009-17.111.018-26.196V59.3c-.009-1.199.027-2.37-.027-3.596a6.799 6.799 0 00-1.243-3.463c-1.039-1.457-2.664-2.478-4.413-2.753-.888-.151-1.75-.089-2.593-.098h-12.601c-6.616 0-13.036.009-19.207.009h-.098l-.062.071c-9.271 9.573-17.964 18.541-25.752 26.578l-.053.053v.08c.035 19.012.062 34.756.079 45.759.018 2.753-.008 5.195.045 7.335.133 2.184 1.314 3.8 2.451 4.715a6.631 6.631 0 003.037 1.359c.373.062.666.079.852.079.196-.026.293-.035.293-.035z" fill="#E0E0E0"/><path d="M166.073 76.162c0 .018.178.035.506.044.382.01.862.027 1.448.045 1.323.017 3.125.044 5.328.07 2.264.019 4.937.027 7.903.045h4.671a6.336 6.336 0 004.573-2.149 6.28 6.28 0 001.288-2.282c.275-.817.31-1.714.284-2.513-.009-1.616-.009-3.179-.018-4.662-.018-2.957-.036-5.63-.053-7.903-.027-2.202-.054-4.005-.071-5.328-.018-.586-.036-1.066-.045-1.448-.017-.328-.026-.506-.044-.506s-.036.178-.045.506c-.008.382-.026.862-.044 1.448-.018 1.323-.044 3.126-.071 5.328-.018 2.264-.036 4.946-.053 7.903 0 1.492-.009 3.046-.018 4.662.107 1.598-.355 3.232-1.474 4.484-1.092 1.244-2.682 1.963-4.236 1.998l-4.662.027c-2.957.018-5.63.036-7.903.053-2.202.027-4.005.054-5.328.071-.586.018-1.066.036-1.447.045-.311.026-.489.044-.489.062zm26.764-8.32c0 .124 6.199.231 13.844.231 7.646 0 13.853-.106 13.853-.23 0-.125-6.198-.232-13.853-.232-7.645 0-13.844.107-13.844.231zm-13.142 10.203c0 .125 9.147.231 20.415.231 11.278 0 20.415-.106 20.415-.23 0-.125-9.137-.232-20.415-.232-11.268 0-20.415.107-20.415.231zm0 10.204c0 .124 9.147.23 20.415.23 11.278 0 20.415-.106 20.415-.23 0-.125-9.137-.231-20.415-.231-11.268 0-20.415.106-20.415.23zm0 10.203c0 .124 9.147.23 20.415.23 11.278 0 20.415-.106 20.415-.23 0-.125-9.137-.231-20.415-.231-11.268 0-20.415.097-20.415.23zm0 10.203c0 .124 9.147.231 20.415.231 11.278 0 20.415-.107 20.415-.231 0-.125-9.137-.231-20.415-.231-11.268 0-20.415.098-20.415.231zm0 12.573c0 .124 9.146.231 20.415.231 11.278 0 20.424-.107 20.424-.231 0-.124-9.137-.231-20.424-.231-11.269 0-20.415.107-20.415.231z" fill="#E0E0E0"/><path d="M491.729 140.651h-28.363V91.776h28.363v48.875zm79.112.785h-22.396V80.421h22.396v61.015z" fill="#EBEBEB"/><path d="M571.095 84.827c0-.187-5.124-.338-11.438-.338-6.313 0-11.437.151-11.437.338 0 .186 5.124.337 11.437.337 6.323 0 11.438-.15 11.438-.337zm-1.235 2.894c0-.186-4.839-.337-10.815-.337-5.977 0-10.816.15-10.816.337 0 .187 4.839.338 10.816.338 5.967 0 10.815-.151 10.815-.338zm-9.581 41.683c.186 0 .337-8.081.337-18.053 0-9.972-.151-18.053-.337-18.053-.187 0-.338 8.081-.338 18.053 0 9.963.151 18.053.338 18.053zm10.558 5.577c0-.186-4.911-.337-10.967-.337-6.056 0-10.967.151-10.967.337 0 .186 4.911.337 10.967.337 6.056 0 10.967-.151 10.967-.337zm0 2.619c0-.186-5.035-.337-11.242-.337-6.207 0-11.242.151-11.242.337 0 .187 5.035.338 11.242.338 6.216 0 11.242-.151 11.242-.338z" fill="#FAFAFA"/><path d="M548.458 141.435h-17.991V73.822h17.991v67.613z" fill="#E0E0E0"/><path d="M548.576 104.869c-.062-.071-1.11.675-2.779 1.927-1.856 1.403-4.059 3.081-6.492 4.928-2.433 1.856-4.635 3.526-6.482 4.938-1.652 1.278-2.655 2.086-2.602 2.166.053.071 1.154-.604 2.886-1.776a165.586 165.586 0 006.616-4.786 155.851 155.851 0 006.375-5.088c1.59-1.35 2.531-2.238 2.478-2.309zm.071-10.585c-.125-.142-4.245 3.188-9.209 7.441-4.964 4.254-8.889 7.815-8.765 7.957.125.142 4.245-3.188 9.209-7.442 4.964-4.253 8.889-7.814 8.765-7.956z" fill="#FAFAFA"/><path d="M626.641 141.483h-8.605V77.077h8.605v64.406z" fill="#EBEBEB"/><path d="M626.284 85.848c0 .222-1.802.408-4.031.408-2.229 0-4.032-.177-4.032-.408 0-.222 1.803-.409 4.032-.409s4.031.178 4.031.409zm.178-1.403c0 .222-1.803.408-4.032.408-2.228 0-4.031-.177-4.031-.408 0-.222 1.803-.409 4.031-.409 2.229 0 4.032.178 4.032.409zm-.178 52.054c0 .222-1.802.409-4.031.409-2.229 0-4.032-.178-4.032-.409 0-.222 1.803-.408 4.032-.408s4.031.186 4.031.408zm.178-1.402c0 .222-1.803.408-4.032.408-2.228 0-4.031-.177-4.031-.408 0-.222 1.803-.409 4.031-.409 2.229 0 4.032.187 4.032.409zm-4.378-8.41c-.222 0-.409-7.379-.409-16.472 0-9.102.178-16.482.409-16.482.231 0 .408 7.38.408 16.482-.009 9.093-.186 16.472-.408 16.472z" fill="#FAFAFA"/><path d="M588.085 141.065h-17.209V76.659h17.209v64.406z" fill="#E0E0E0"/><path d="M575.713 141.889c-.009.009-.08-.115-.204-.346a17.18 17.18 0 01-.488-1.075c-.391-.959-.942-2.406-1.253-4.369-.275-1.927-.355-4.52 1.004-7.086a9.364 9.364 0 013.055-3.365c1.349-.888 3.116-1.466 4.955-1.173.914.151 1.82.533 2.566 1.181.746.631 1.296 1.643 1.234 2.718-.044 1.074-.666 2.051-1.474 2.726a5.313 5.313 0 01-2.939 1.243c-2.185.258-4.449-.666-6.101-2.22-1.713-1.536-2.761-3.818-3.028-6.189-.284-2.38.098-4.849.888-7.184.808-2.336 2.114-4.644 4.218-6.278 1.048-.8 2.345-1.377 3.712-1.466 1.368-.115 2.842.32 3.863 1.368.506.524.852 1.252.888 2.016.035.763-.213 1.492-.595 2.104-.773 1.244-2.087 2.034-3.472 2.371-2.815.604-5.745-.506-7.584-2.539-1.856-2.034-2.672-4.707-2.948-7.255-.257-2.567-.062-5.142.737-7.522.791-2.362 2.345-4.493 4.449-5.719 2.051-1.243 4.653-1.651 6.838-.719 1.083.444 2.042 1.439 2.22 2.629a4.167 4.167 0 01-.782 3.24c-1.438 1.821-3.916 2.123-5.798 1.537-1.936-.595-3.419-1.9-4.574-3.25a14.578 14.578 0 01-3.427-8.835 14.167 14.167 0 011.589-6.998 13.842 13.842 0 012.709-3.65c.382-.355.683-.612.897-.772.213-.16.328-.24.337-.231.115.08-1.883 1.287-3.65 4.786-.843 1.74-1.563 4.085-1.42 6.838a14.254 14.254 0 003.409 8.48c1.119 1.288 2.549 2.495 4.316 3.02 1.705.523 3.916.186 5.088-1.341.56-.746.826-1.767.64-2.709-.16-.959-.888-1.714-1.83-2.104-1.909-.809-4.28-.453-6.171.701-1.927 1.137-3.357 3.09-4.094 5.328-.755 2.238-.932 4.724-.684 7.184.267 2.442 1.066 4.937 2.762 6.793 1.643 1.83 4.342 2.833 6.802 2.291 1.208-.293 2.336-.985 2.966-2.007.666-1.003.648-2.317-.186-3.143-.8-.835-2.052-1.234-3.224-1.128-1.199.071-2.335.568-3.294 1.297-1.918 1.474-3.197 3.667-3.97 5.896-.772 2.247-1.136 4.609-.879 6.846.249 2.238 1.19 4.334 2.771 5.755 1.527 1.447 3.587 2.291 5.541 2.078 1.891-.16 3.738-1.599 3.854-3.339.053-.862-.364-1.679-1.004-2.238-.639-.568-1.447-.924-2.264-1.066-1.661-.284-3.295.213-4.582 1.039a8.898 8.898 0 00-2.93 3.153c-1.324 2.406-1.315 4.928-1.093 6.828.249 1.936.746 3.384 1.093 4.352.355 1.012.577 1.509.541 1.518zm42.46-.798h-29.855V82.429h29.855v58.662z" fill="#FAFAFA"/><path d="M617.155 92.179c0 .222-6.473.409-14.447.409-7.984 0-14.448-.178-14.448-.409 0-.222 6.473-.409 14.448-.409 7.974.01 14.447.187 14.447.409zm.365 4.448c0 .222-6.385.409-14.262.409-7.876 0-14.27-.178-14.27-.409 0-.222 6.385-.408 14.27-.408 7.877 0 14.262.186 14.262.408zm.959 37.838c0 .222-6.732.409-15.025.409-8.303 0-15.025-.178-15.025-.409 0-.222 6.722-.408 15.025-.408 8.302 0 15.025.186 15.025.408zm-.4-5.23c0 .222-6.553.408-14.634.408s-14.634-.177-14.634-.408c0-.231 6.553-.409 14.634-.409s14.634.187 14.634.409z" fill="#E0E0E0"/><path d="M530.487 140.657h-17.21V76.251h17.21v64.406z" fill="#EBEBEB"/><path d="M518.117 141.481c-.009.009-.08-.116-.205-.346a17.18 17.18 0 01-.488-1.075c-.391-.959-.941-2.406-1.252-4.369-.276-1.927-.355-4.52 1.003-7.086a9.374 9.374 0 013.055-3.366c1.35-.888 3.117-1.465 4.955-1.172a5.19 5.19 0 012.566 1.181c.746.631 1.297 1.643 1.235 2.718-.045 1.074-.666 2.051-1.474 2.726a5.327 5.327 0 01-2.94 1.243c-2.184.257-4.449-.666-6.1-2.22-1.714-1.536-2.762-3.818-3.028-6.189-.285-2.38.097-4.849.888-7.184.808-2.336 2.113-4.645 4.218-6.279 1.047-.799 2.344-1.376 3.711-1.465 1.368-.115 2.842.32 3.863 1.368.506.524.853 1.252.888 2.016.036.763-.213 1.491-.595 2.104-.772 1.243-2.087 2.034-3.472 2.371-2.815.604-5.745-.506-7.583-2.54-1.856-2.033-2.673-4.706-2.948-7.255-.258-2.566-.063-5.141.737-7.52.79-2.363 2.344-4.494 4.448-5.72 2.052-1.243 4.654-1.651 6.838-.719 1.083.444 2.042 1.439 2.22 2.629a4.17 4.17 0 01-.781 3.24c-1.439 1.821-3.916 2.123-5.799 1.537-1.936-.595-3.419-1.9-4.573-3.25a14.58 14.58 0 01-3.428-8.836 14.156 14.156 0 011.59-6.997 13.821 13.821 0 012.708-3.65c.382-.355.684-.613.897-.772.213-.16.328-.24.337-.231.116.08-1.882 1.287-3.649 4.786-.844 1.74-1.563 4.085-1.421 6.838a14.25 14.25 0 003.41 8.48c1.119 1.288 2.548 2.495 4.315 3.02 1.705.523 3.917.186 5.089-1.342.559-.746.826-1.767.639-2.708-.16-.96-.888-1.714-1.829-2.105-1.909-.808-4.28-.453-6.172.702-1.927 1.137-3.356 3.09-4.093 5.328-.755 2.238-.933 4.724-.684 7.184.266 2.442 1.065 4.937 2.761 6.793 1.643 1.829 4.343 2.833 6.802 2.291 1.208-.293 2.336-.986 2.966-2.007.666-1.003.649-2.317-.186-3.143-.799-.835-2.051-1.235-3.224-1.128-1.198.071-2.335.568-3.294 1.296-1.918 1.475-3.197 3.668-3.969 5.897-.773 2.246-1.137 4.608-.879 6.846.248 2.238 1.189 4.334 2.77 5.754 1.527 1.448 3.588 2.292 5.541 2.078 1.892-.159 3.739-1.598 3.854-3.338.053-.862-.364-1.679-1.003-2.238-.64-.569-1.448-.924-2.265-1.066-1.66-.284-3.294.213-4.582 1.039a8.907 8.907 0 00-2.93 3.153c-1.323 2.406-1.314 4.928-1.092 6.828.248 1.936.746 3.383 1.092 4.351.355 1.004.568 1.501.542 1.519z" fill="#FAFAFA"/><path d="M650.554 140.656h-23.913V72.999h23.913v67.657zm-137.275.001H490.91V80.424h22.369v60.233z" fill="#E0E0E0"/><path d="M490.349 110.455c-.106-.107-1.136 1.323-3.552 2.53a12.595 12.595 0 01-4.502 1.252 11.63 11.63 0 01-5.585-.968c-1.883-.808-3.614-1.838-5.373-2.45-1.731-.631-3.49-.817-4.875-.444-1.394.346-2.344 1.101-2.824 1.713-.497.622-.577 1.066-.55 1.075.053.027.222-.373.755-.897.515-.524 1.438-1.163 2.735-1.421 1.287-.284 2.903-.071 4.555.569 1.67.612 3.366 1.642 5.319 2.486 1.945.87 4.067 1.154 5.905.968a12.116 12.116 0 004.671-1.448 10.524 10.524 0 002.611-1.998c.515-.568.737-.941.71-.967zm.498 5.966c-.107-.106-1.137 1.323-3.561 2.531a12.419 12.419 0 01-4.503 1.252 11.644 11.644 0 01-5.585-.968c-1.883-.808-3.614-1.838-5.372-2.451-1.732-.63-3.49-.817-4.876-.444-1.385.347-2.344 1.093-2.823 1.714-.498.622-.578 1.066-.551 1.075.053.026.222-.373.755-.897.515-.524 1.438-1.163 2.735-1.421 1.287-.284 2.904-.071 4.555.568 1.67.613 3.366 1.643 5.319 2.487a11.827 11.827 0 005.906.968 12.111 12.111 0 004.67-1.448 10.548 10.548 0 002.611-1.998c.524-.577.746-.95.72-.968zm-.365-19.295c0-.187-6.153-.338-13.755-.338-7.601 0-13.755.151-13.755.338 0 .186 6.154.337 13.755.337 7.593 0 13.755-.151 13.755-.337zm10.124-7.007c.053.106.746-.506 1.945-.16.559.169 1.225.569 1.509 1.252.311.666.063 1.572-.568 2.185-.639.612-1.545.826-2.202.488-.675-.31-1.057-.995-1.199-1.563-.293-1.207.346-1.882.24-1.936-.027-.026-.222.08-.426.418-.213.328-.382.906-.284 1.616.106.684.488 1.554 1.394 2.033.905.507 2.166.222 2.957-.559.808-.755 1.136-2.007.675-2.93-.444-.915-1.297-1.332-1.972-1.466-.701-.124-1.287.027-1.625.222-.346.187-.462.382-.444.4zm1.447 44.507c.187 0 .338-8.445.338-18.862 0-10.416-.151-18.86-.338-18.86-.186 0-.337 8.444-.337 18.86 0 10.417.151 18.862.337 18.862z" fill="#FAFAFA"/><path d="M440 140.309h231.483v13.213H440v-13.213z" fill="#EBEBEB"/><path d="M439.999 140.309h20.211v13.213h-20.211v-13.213z" fill="#E0E0E0"/><path d="M374.416 102.198l1.128 90.94c.195 15.469-2.682 38.219-27.146 37.411-21.17-2.309-26.791-22.351-26.951-36.781-.08-6.846-.16-12.556-.213-13.258 0 0-23.177-1.891-25.131-24.784-.941-11.064-1.038-34.01-.879-54.763.169-22.297 17.458-40.715 39.694-42.33l2.211-.16c23.932-.356 37.598 19.784 37.287 43.725z" fill="#FFBE9D"/><path d="M321.225 180.51s14.502-.204 29.189-11.002c0 0-6.056 17.271-29.073 16.872l-.116-5.87z" fill="#EB996E"/><path d="M334.35 110.35c.453.461 3.099-1.661 6.935-1.768 3.827-.159 6.696 1.776 7.104 1.288.195-.222-.275-1.066-1.527-1.945-1.235-.879-3.313-1.696-5.701-1.616-2.389.089-4.369 1.048-5.506 1.998-1.154.959-1.527 1.829-1.305 2.043zm.808 7.93c.062 1.643 1.501 2.939 3.215 2.904 1.705-.036 3.045-1.386 2.983-3.029-.062-1.642-1.5-2.939-3.205-2.903-1.714.035-3.055 1.385-2.993 3.028zm-10.417 18.746c0-.205-2.211-.418-5.798-.613-.906-.027-1.768-.142-1.963-.746-.257-.631.044-1.634.409-2.709.683-2.237 1.403-4.582 2.157-7.041 2.984-10.017 5.071-18.231 4.662-18.346-.408-.116-3.152 7.912-6.127 17.928-.71 2.469-1.394 4.822-2.042 7.078-.267 1.047-.764 2.246-.204 3.561.293.657.985 1.092 1.571 1.207.586.133 1.093.107 1.545.098 3.579-.071 5.79-.213 5.79-.417zm11.242-41.098c.373.853 3.446.213 7.122.4 3.677.115 6.696 1.003 7.122.177.187-.39-.382-1.172-1.634-1.935-1.243-.755-3.179-1.421-5.381-1.519-2.202-.089-4.183.418-5.47 1.075-1.297.657-1.918 1.394-1.759 1.802zm-36.425 7.104c.399.693 3.392-.08 7.024-.186 3.623-.178 6.633.355 7.024-.373.168-.346-.427-.968-1.696-1.519-1.252-.55-3.188-.967-5.364-.888-2.175.089-4.094.666-5.337 1.315-1.252.648-1.829 1.323-1.651 1.651z" fill="#2B3242"/><path d="M373.786 119.301c.381-.196 15.406-5.808 16.046 9.892.639 15.7-15.256 13.107-15.3 12.663-.045-.444-.746-22.555-.746-22.555z" fill="#FFBE9D"/><path d="M379.087 135.711c.071-.053.285.178.755.373a2.711 2.711 0 002.043-.044c1.634-.675 2.921-3.366 2.886-6.199a9.02 9.02 0 00-.924-3.88c-.524-1.128-1.305-1.901-2.14-2.016-.835-.16-1.412.364-1.581.817-.195.444-.08.755-.159.79-.045.045-.347-.248-.249-.905.053-.311.222-.693.577-1.013.364-.319.915-.497 1.492-.462 1.216.036 2.353 1.102 2.957 2.318a9.26 9.26 0 011.128 4.334c.026 3.17-1.474 6.198-3.712 6.944-1.092.337-2.025.035-2.522-.311-.515-.364-.604-.71-.551-.746z" fill="#EB996E"/><path d="M328.453 147.894c-.168-.399 2.904-1.314 5.071-4.2 1.083-1.421 1.705-2.966 2.175-4.102.462-1.137.808-1.856.977-1.803.16.053.124.826-.133 2.06-.266 1.226-.799 2.984-2.025 4.591-1.207 1.634-2.824 2.602-4.013 3.072-1.199.489-2.016.524-2.052.382zm-63.642-67.479c.248-.923.923-1.678 1.74-2.166 1.794-1.057 3.854-.915 5.852-.95 6.074-.098 12.104-1.954 17.218-5.23a77.074 77.074 0 018.01-9.707c6.935-7.157 12.645-12.023 18.559-14.403 7.637-3.073 20.415-4.325 28.381-2.229 7.965 2.087 15.122 8.551 16.224 16.712 4.466-3.774 11.171-3.747 16.614-1.554l.133-.062c6.056 2.158 9.502 8.56 11.287 14.74 1.785 6.181 2.548 12.788 5.825 18.33.684 1.153 1.501 2.548.897 3.746-.462.933-1.643 1.315-2.673 1.164-1.03-.151-1.945-.72-2.824-1.279.675 1.616 1.35 3.232 2.025 4.857-2.194.382-4.467.205-6.589-.444-1.288 5.781-2.824 12.379-4.307 16.295-2.531-.009-4.848.178-6.411 1.581-2.123 1.909-3.073 5.497-6.598 4.138-1.794-.693-3.437-4.458-4.032-6.287-3.987-12.13-5.31-25.13-3.871-37.82a28.91 28.91 0 00-8.871-6.402l.275.24c-6.403-2.22-13.64-4.405-19.705-1.404-4.706 2.327-7.477 7.22-10.993 11.118-6.669 7.388-15.674 11.402-25.619 11.837-.338 6.447.204 15.558-.133 22.005l-5.426-10.328-.009.053c-.444-.754-.808-1.518-1.163-2.282l-.124-.231v-.026c-.569-1.226-1.102-2.451-1.812-3.668-.018.018-.044.036-.062.054-3.49 3.081-8.64-1.634-5.888-5.39a9.023 9.023 0 011.945-1.954c-1.598 1.5-3.978 2.22-6.074 1.572-2.095-.64-3.721-2.762-3.534-4.947.124-1.491 1.19-2.823 2.531-3.41-2.824.214-5.71-.4-8.17-1.802-1.589-.924-3.17-2.442-2.628-4.467z" fill="#2B3242"/><path d="M353.593 65.061c-.045.063.959.604 2.3 2.105 1.323 1.492 2.815 4.076 3.516 7.601.364 1.75.586 3.712.586 5.817.009 2.113-.16 4.369-.319 6.749-.151 2.38-.329 4.892-.169 7.512.08 1.305.231 2.637.515 3.96.284 1.306.63 2.718 1.616 3.846.781.914 2.096 1.323 3.232 1.083a5.084 5.084 0 002.904-1.643c1.474-1.723 1.838-3.898 2.211-5.825l-.479.062c.781 1.732 1.589 3.437 2.788 4.795 1.172 1.368 2.797 2.282 4.458 2.424.826.071 1.651-.062 2.362-.417.719-.355 1.243-.95 1.607-1.581.346-.639.524-1.349.489-2.033-.036-.684-.302-1.323-.738-1.785l-.239.213a14.958 14.958 0 004.919 3.694c.648.302 1.172.48 1.528.595.355.107.541.151.55.133.009-.017-.169-.088-.515-.222-.337-.142-.844-.346-1.474-.666a15.227 15.227 0 01-4.751-3.747l-.24.213c.773.817.817 2.247.151 3.401-.337.569-.817 1.101-1.447 1.394-.63.311-1.385.427-2.14.347-1.519-.151-3.037-1.004-4.138-2.309-1.128-1.305-1.909-2.966-2.682-4.698l-.328-.737-.151.79c-.365 1.919-.755 4.014-2.105 5.568-.666.746-1.598 1.297-2.602 1.466-1.003.195-2.06-.134-2.744-.924-.861-.968-1.216-2.309-1.492-3.596a26.62 26.62 0 01-.515-3.88c-.16-2.576 0-5.071.142-7.451.151-2.38.302-4.644.276-6.784a28.715 28.715 0 00-.657-5.897c-.764-3.57-2.336-6.19-3.73-7.663-1.456-1.421-2.495-1.91-2.495-1.91zM282.748 87.35c-.009.009.053.062.186.16.151.115.347.249.569.417.248.187.568.409.968.622.399.23.843.506 1.394.737 2.131 1.012 5.541 2.016 9.803 1.767 4.227-.24 9.298-1.731 13.818-5.106 4.573-3.285 8.587-8.134 11.872-13.684 1.67-2.77 3.019-5.612 4.52-8.24 1.483-2.63 3.126-5.053 5.115-6.971 1.962-1.927 4.245-3.348 6.598-4.005 1.172-.347 2.353-.426 3.481-.4 1.127.062 2.202.284 3.188.613a13.242 13.242 0 014.777 2.877 12.945 12.945 0 012.584 3.357c1.039 2.104 1.101 3.454 1.181 3.436.009 0 0-.08-.018-.24-.026-.186-.062-.417-.106-.701-.116-.613-.373-1.5-.87-2.584a12.906 12.906 0 00-2.567-3.472 13.418 13.418 0 00-4.857-3.02 12.47 12.47 0 00-3.286-.665c-1.163-.045-2.406.035-3.623.381-2.442.657-4.804 2.114-6.82 4.076-2.042 1.954-3.729 4.422-5.23 7.069-1.518 2.646-2.877 5.479-4.529 8.223-3.259 5.505-7.219 10.3-11.703 13.56-4.44 3.338-9.396 4.839-13.551 5.123-4.192.293-7.566-.63-9.688-1.572-2.149-.976-3.171-1.829-3.206-1.758z" fill="#767A85"/><path d="M280.661 77.28c-.018.036.275.232.817.569.542.346 1.376.781 2.433 1.234 1.057.462 2.362.897 3.854 1.261a27.4 27.4 0 004.92.657 27.337 27.337 0 004.955-.337c1.5-.266 2.841-.622 3.924-1.012 1.084-.391 1.945-.764 2.505-1.075.568-.302.87-.488.852-.515-.044-.089-1.305.56-3.481 1.234-1.083.347-2.406.649-3.88.888a28.266 28.266 0 01-4.867.285 29.195 29.195 0 01-4.83-.595c-1.466-.329-2.762-.72-3.819-1.137-2.113-.808-3.33-1.545-3.383-1.456z" fill="#767A85"/><path d="M299.39 111.788c.453.462 3.099-1.669 6.935-1.767 3.827-.16 6.696 1.776 7.104 1.287.195-.222-.275-1.065-1.527-1.944-1.235-.879-3.313-1.696-5.701-1.616-2.389.088-4.369 1.047-5.506 1.998-1.154.968-1.536 1.838-1.305 2.042zm3.907 7.601c.062 1.643 1.5 2.939 3.214 2.904 1.705-.036 3.046-1.385 2.984-3.028-.062-1.634-1.501-2.939-3.206-2.904-1.714.036-3.054 1.394-2.992 3.028z" fill="#2B3242"/><path d="M160.231 203.119c0-6.651 6.358-6.651 6.358-6.651 2.424-3.179 5.15-2.024 5.15-2.024l10.292 6.944c1.51 2.602 11.5 12.441 11.5 12.441 2.726-2.025 2.726-6.074 5.985-10.994 3.268-4.919 10.656-4.342 10.656-4.342s-5.754 13.018-6.358 21.117c-.604 8.098 4.422 30.689 4.422 30.689l-29.1 8.178s-1.838-12.396-5.097-13.391c-3.925-1.207-6.109-6.997-6.109-6.997-4.245-8.596-12.858-21.081-14.066-27.448-1.199-6.367 6.367-7.522 6.367-7.522z" fill="#FFBE9D"/><path d="M376.618 188.733c-18.532 11.651-37.207 16.029-56.13 8.49l-28.434 7.264-27.981 186.915 164.031 1.42-8.08-43.414-20.336-155.986-23.07-4.689z" fill="#767A85"/><path d="M292.054 204.486s-22.12 9.182-30.556 25.273c-8.445 16.09-22.005 61.245-22.005 61.245l-24.988-45.892-46.381 11.855s34.526 95.229 43.193 103.896c9.492 9.493 35.351 19.065 48.005 11.677 12.663-7.388 15.238-35.422 15.238-35.422l17.494-132.632z" fill="#767A85"/><path d="M290.527 282.666c.124 0 .231-8.303.231-18.542 0-10.238-.107-18.541-.231-18.541-.124 0-.231 8.303-.231 18.541 0 10.239.098 18.542.231 18.542zm-8.658-67.497c-.063.026.381 1.181 1.083 3.063a142.062 142.062 0 012.522 7.397 144.274 144.274 0 012.096 7.531c.488 1.944.772 3.152.843 3.134.036-.009 0-.319-.089-.87a40.539 40.539 0 00-.435-2.335 85.056 85.056 0 00-1.971-7.593c-.906-2.93-1.883-5.532-2.664-7.379a60.8 60.8 0 00-.959-2.176c-.249-.515-.4-.79-.426-.772z" fill="#2B3242"/><path d="M402.69 263.423l-5.133-70.427s38.611 3.579 51.389 30.823c10.771 22.954 40.484 92.014 43.672 101.462 9.333 27.724-5.248 65.837-65.366 63.635l-6.855-37.687-17.707-87.806z" fill="#767A85"/><path d="M445.927 359.078c.018-.008-.098-.239-.311-.675-.24-.47-.568-1.101-.977-1.891-.888-1.678-2.14-4.031-3.685-6.926-.391-.729-.799-1.492-1.234-2.291-.435-.791-.941-1.652-1.767-2.274-.826-.621-1.91-.87-2.966-.852-1.066.009-2.14.24-3.197.515a32.978 32.978 0 00-6.465 2.442c-1.074.542-2.131 1.181-3.099 1.98l-.355.311a1.07 1.07 0 00-.302.479 3.826 3.826 0 00-.195.968c-.062.64-.062 1.279-.045 1.91.098 2.548.409 4.999.729 7.361.328 2.362.683 4.635 1.047 6.802a525.176 525.176 0 002.078 11.455c.631 3.215 1.146 5.835 1.51 7.699.169.879.311 1.572.408 2.096.098.48.142.728.151.728.018 0 0-.257-.062-.746a65.872 65.872 0 00-.328-2.113 2285.1 2285.1 0 00-1.368-7.726c-.577-3.259-1.279-7.139-1.98-11.464a271.03 271.03 0 01-1.021-6.793c-.311-2.362-.622-4.813-.711-7.317a15.893 15.893 0 01.036-1.856c.026-.302.08-.595.168-.853a.803.803 0 01.187-.302l.337-.293c.933-.763 1.963-1.385 3.011-1.927a33.027 33.027 0 016.358-2.433c1.048-.275 2.087-.506 3.099-.524 1.003-.026 1.989.205 2.735.755.755.551 1.243 1.359 1.678 2.131.435.791.853 1.554 1.252 2.274 1.59 2.868 2.886 5.203 3.81 6.855.444.773.79 1.394 1.057 1.856.266.435.399.648.417.639z" fill="#2B3242"/><path d="M473.846 325.628c0-.018-.16-.018-.453-.018-.346.018-.782.027-1.297.054-1.127.053-2.752.151-4.759.337-2.007.187-4.396.471-7.016 1.021-2.61.542-5.452 1.386-8.249 2.735-2.78 1.359-5.248 3.002-7.255 4.787-1.98 1.802-3.516 3.729-4.404 5.567-.897 1.83-1.27 3.464-1.332 4.591-.08.56-.018 1.004-.027 1.306.009.293.018.453.035.453.054 0 .036-.631.169-1.732.116-1.11.533-2.7 1.448-4.467.905-1.776 2.433-3.64 4.395-5.399 1.989-1.74 4.431-3.347 7.175-4.688 2.744-1.323 5.55-2.167 8.134-2.735 2.584-.569 4.964-.888 6.953-1.11 1.998-.231 3.614-.373 4.742-.48l1.288-.133c.293-.044.453-.071.453-.089z" fill="#2B3242"/><path d="M432.527 322.067c-.053.026.293 1.083.959 2.77.657 1.687 1.643 3.987 2.78 6.5 1.101 2.451 2.104 4.671 2.894 6.438.737 1.652 1.199 2.673 1.261 2.647.054-.027-.293-1.084-.959-2.771-.657-1.687-1.642-3.987-2.779-6.5-1.101-2.451-2.105-4.671-2.895-6.438-.737-1.652-1.199-2.664-1.261-2.646zm-21.365-55.429c.124 0 .231-4.467.231-9.972 0-5.506-.107-9.973-.231-9.973-.125 0-.231 4.467-.231 9.973 0 5.505.106 9.972.231 9.972z" fill="#2B3242"/><path opacity=".3" d="M439.098 346.451c10.158 3.543 17.023 12.761 19.793 23.15.293 1.093.489 2.38-.249 3.242-.754.888-2.193.861-3.187.257-.995-.595-1.643-1.616-2.265-2.602-4.884-7.832-9.661-15.087-14.092-24.047zm12.592-20.095c5.31-2.948 11.42-4.218 17.485-4.582 2.38-.142 4.742.133 7.068.621 3.171.666 6.811 2.265 7.513 4.547-7.291-2.282-18.018-.782-25.486.852-7.53 1.643-13.648 5.914-17.84 12.645 1.794-5.683 6.057-11.188 11.26-14.083z" fill="#000"/><path d="M416.845 236.65c.036.009.16-.39.355-1.11.187-.719.498-1.758.915-3.028a50.217 50.217 0 014.289-9.475 50.255 50.255 0 016.198-8.356 49.835 49.835 0 012.203-2.273c.532-.524.816-.826.799-.852-.018-.027-.347.23-.924.719-.577.479-1.376 1.225-2.317 2.184-1.883 1.918-4.272 4.804-6.359 8.348-2.077 3.552-3.445 7.032-4.209 9.608-.382 1.287-.648 2.344-.781 3.081-.133.737-.204 1.146-.169 1.154z" fill="#2B3242"/><path d="M402.663 392.796l43.024-103.798c1.962-4.734-.497-8.579-5.497-8.579h-8.658c-3.534 0-5.94-1.944-6.162-4.981l-.285-3.819c-.231-3.037-2.637-4.981-6.18-4.981h-41.132c-3.206 0-6.829 1.598-9.529 4.218l-3.338 3.232c-2.691 2.611-6.314 4.218-9.52 4.218h-52.383c-4.999 0-10.603 3.836-12.512 8.578l-42.65 105.921h154.822v-.009z" fill="#CC2844"/><path opacity=".3" d="M402.663 392.796l43.024-103.798c1.962-4.734-.497-8.579-5.497-8.579h-8.658c-3.534 0-5.94-1.944-6.162-4.981l-.285-3.819c-.231-3.037-2.637-4.981-6.18-4.981h-41.132c-3.206 0-6.829 1.598-9.529 4.218l-3.338 3.232c-2.691 2.611-6.314 4.218-9.52 4.218h-52.383c-4.999 0-10.603 3.836-12.512 8.578l-42.65 105.921h154.822v-.009z" fill="#000"/><path d="M409.776 357.543L426 294.805c1.065-4.129-1.634-8.276-5.399-8.276H293.413c-2.513 0-4.725 1.91-5.417 4.671l-23.621 94.43c-1.039 4.147.622 6.633 4.387 6.589l127.969.036c2.478-.036 4.654-1.91 5.346-4.636l7.699-30.076z" fill="#E0E0E0"/><path d="M400.985 389.963l6.909-98.799c.248-3.508-2.531-6.482-6.048-6.482H270.067v105.281h130.918z" fill="#EBEBEB"/><path d="M402.459 392.219l-15.673-101.854c-.719-3.321-3.712-5.692-7.166-5.692H246.313c-5.266 0-8.809 5.292-6.731 10.034l28.789 93.205 134.088 4.307z" fill="#FAFAFA"/><path d="M402.663 392.752l-32.332-95.389c-1.35-3.978-4.946-6.634-8.995-6.634H223.909c-4.431 0-7.548 4.538-6.136 8.916l30.067 93.151 154.823-.044z" fill="#CC2844"/><path opacity=".3" d="M336.214 376.785s5.186.24 7.584.4c11.393.781 22.964-1.279 33.389-5.923 3.232-1.439 6.651-3.472 7.628-6.873 1.092-3.81-1.377-7.779-4.378-10.363-3.01-2.585-6.669-4.423-9.28-7.406-2.611-2.984-3.845-7.815-1.279-10.825l.711.524c1.856 4.706 7.033 6.98 11.322 9.679 7.965 5.008 14.03 12.938 16.783 21.934 1.51 4.937 1.909 10.7-1.083 14.909-2.123 2.984-5.604 4.68-9.04 5.959-10.399 3.854-21.507 3.996-32.599 4.013-3.507 0-14.252-.142-14.252-.142-3.383-.923-4.493-2.681-6.527-5.532-1.865-2.637-1.456-8.303 1.021-10.354z" fill="#000"/><path d="M336.214 376.785l35.84-5.39 13.915-8.01c1.838-1.057 3.09-2.939 3.196-5.053 0-.035 0-.08.009-.115.107-2.638-1.5-5.044-3.942-6.065-4.414-1.856-11.411-4.334-14.395-9.564-4.289-7.513 0-9.067 0-9.067l29.935 11.962 21.187 14.421 4.263 24.047-29.562 9.653s-32.945 1.855-42.038.834c-9.093-1.021-9.093-5.257-9.093-5.257-1.687-.524-5.097-3.525-5.097-6.313-4.396-4.13-4.218-6.083-4.218-6.083z" fill="#FFBE9D"/><path d="M382.061 387.13c-.008-.044-.541.062-1.474.284-.932.231-2.3.533-3.987.862a86.604 86.604 0 01-13.329 1.589 86.663 86.663 0 01-13.417-.551 110.285 110.285 0 01-4.041-.55c-.95-.142-1.483-.204-1.492-.169-.008.045.507.178 1.448.4.941.222 2.318.488 4.031.746 3.419.524 8.214.932 13.498.728 5.284-.213 10.034-.986 13.4-1.776a53.666 53.666 0 003.96-1.057c.915-.284 1.412-.462 1.403-.506zm-3.276-5.541c-.009-.044-.542.062-1.501.284-.95.231-2.335.533-4.049.862-3.428.666-8.223 1.332-13.551 1.5a91.65 91.65 0 01-13.622-.621 106.972 106.972 0 01-4.103-.569c-.968-.151-1.509-.213-1.518-.168-.009.044.515.186 1.474.408.959.231 2.353.497 4.094.764 3.472.541 8.329.968 13.701.808 5.373-.169 10.195-.906 13.622-1.687 1.714-.382 3.091-.755 4.023-1.057.932-.302 1.447-.48 1.43-.524z" fill="#EB996E"/><path d="M167.388 249.011l63.687 12.583a8.127 8.127 0 009.546-6.394l17.405-88.16a8.127 8.127 0 00-6.394-9.546l-40.386-7.974-37.633 26.053-12.619 63.892a8.12 8.12 0 006.394 9.546z" fill="#EBEBEB"/><path d="M211.237 149.52l-4.901 24.81a7.553 7.553 0 01-8.872 5.95l-23.851-4.707 37.624-26.053z" fill="#F5F5F5"/><path d="M205.59 176.444s-.87 6.082-8.116 6.704a6.23 6.23 0 01-.817.018c-3.224-.062-24.447-.462-24.358-.933.097-.506 1.314-6.669 1.314-6.669l23.852 4.716s5.994.977 8.125-3.836z" fill="#E0E0E0"/><path d="M167.388 249.011s-.116-.035-.347-.097a6.671 6.671 0 01-1.003-.329 8.077 8.077 0 01-3.286-2.398c-1.119-1.367-2.122-3.578-1.749-6.198.462-2.584 1.101-5.55 1.758-8.88l11.047-55.5-.08.125 37.642-26.028-.169.036c7.486 1.483 15.283 3.019 23.302 4.608 4.013.791 8.08 1.599 12.192 2.407l3.09.613c1.03.222 2.087.355 3.046.719a7.866 7.866 0 014.413 4.129c.595 1.314.835 2.797.64 4.218-.222 1.43-.56 2.895-.826 4.334-.569 2.886-1.137 5.754-1.696 8.595a8944.653 8944.653 0 01-3.322 16.81c-2.175 11.02-4.271 21.65-6.26 31.782-.994 5.061-1.971 9.999-2.913 14.803-.47 2.397-.941 4.759-1.394 7.086-.231 1.163-.453 2.318-.683 3.463-.249 1.146-.382 2.3-.809 3.33-.843 2.087-2.61 3.703-4.644 4.431a7.845 7.845 0 01-3.161.462c-1.048-.071-2.113-.346-3.152-.533-4.183-.817-8.197-1.607-12.024-2.362-15.318-2.992-27.714-5.417-36.293-7.095-4.28-.826-7.601-1.465-9.874-1.909-1.119-.213-1.98-.373-2.566-.489l-.879-.133s.293.071.87.196c.586.124 1.438.302 2.557.532 2.265.453 5.586 1.128 9.857 1.99 8.569 1.713 20.957 4.182 36.266 7.237 3.827.763 7.841 1.554 12.015 2.388 1.047.187 2.086.471 3.205.551a8.25 8.25 0 003.304-.471c2.131-.754 3.978-2.451 4.866-4.635.462-1.101.595-2.273.843-3.401.231-1.146.453-2.3.684-3.463.462-2.327.933-4.689 1.403-7.086.95-4.796 1.927-9.733 2.931-14.795 2.006-10.123 4.111-20.752 6.287-31.772 1.092-5.515 2.202-11.118 3.321-16.81.559-2.842 1.128-5.71 1.696-8.596.275-1.456.595-2.868.835-4.36a8.227 8.227 0 00-.675-4.467c-.906-2.006-2.62-3.614-4.671-4.369-1.03-.39-2.096-.515-3.117-.737-1.03-.204-2.069-.408-3.09-.612-4.112-.808-8.179-1.616-12.193-2.407-8.018-1.58-15.815-3.117-23.31-4.6l-.088-.017-.08.053c-13.542 9.386-26.232 18.186-37.616 26.072l-.062.044-.018.08c-4.52 23.079-8.267 42.18-10.887 55.527-.639 3.338-1.252 6.295-1.705 8.906-.364 2.673.684 4.911 1.83 6.287a8.076 8.076 0 003.356 2.38c.435.169.782.258 1.021.302.24.036.365.053.365.053z" fill="#2B3242"/><path d="M173.612 175.573c0 .018.204.071.604.169.444.098 1.03.231 1.749.391 1.572.328 3.766.79 6.447 1.35 2.744.559 5.985 1.216 9.573 1.935 1.803.356 3.703.729 5.665 1.119 2.025.364 4.281-.159 6.012-1.5a7.667 7.667 0 002.096-2.442c.524-.924.781-1.989.95-2.957.382-1.963.755-3.854 1.101-5.666.693-3.596 1.314-6.846 1.847-9.59.497-2.691.906-4.893 1.208-6.474.124-.728.231-1.314.302-1.767.062-.408.089-.621.071-.621-.018 0-.071.204-.169.603-.098.444-.231 1.022-.391 1.75-.328 1.571-.79 3.765-1.349 6.447-.56 2.744-1.217 5.985-1.945 9.572-.364 1.803-.737 3.694-1.128 5.657-.177.994-.408 1.945-.906 2.824a7.262 7.262 0 01-1.971 2.291c-1.634 1.261-3.747 1.749-5.657 1.42-1.962-.381-3.854-.745-5.656-1.092-3.597-.692-6.847-1.314-9.591-1.847-2.69-.497-4.892-.906-6.473-1.199-.728-.124-1.314-.23-1.767-.302-.409-.062-.622-.088-.622-.071zm34.455-3.676c-.027.125 7.477 1.714 16.757 3.544 9.279 1.829 16.818 3.214 16.845 3.09.027-.125-7.477-1.714-16.757-3.543-9.27-1.83-16.818-3.215-16.845-3.091zm-18.382 9.226c-.027.125 11.047 2.416 24.722 5.115 13.684 2.7 24.793 4.796 24.82 4.662.026-.124-11.047-2.415-24.731-5.123-13.676-2.691-24.784-4.778-24.811-4.654zm-2.441 12.379c-.027.125 11.046 2.416 24.722 5.115 13.684 2.7 24.792 4.795 24.819 4.662.027-.124-11.047-2.415-24.731-5.124-13.675-2.69-24.793-4.777-24.81-4.653zm47.099 22.165c.026-.125-11.047-2.416-24.722-5.124-13.684-2.7-24.793-4.795-24.82-4.662-.027.124 11.047 2.415 24.731 5.124 13.675 2.69 24.784 4.786 24.811 4.662zm-51.993 2.584c-.027.125 11.047 2.416 24.722 5.115 13.684 2.7 24.793 4.795 24.82 4.662.026-.124-11.047-2.415-24.731-5.124-13.676-2.69-24.784-4.777-24.811-4.653zm-2.441 12.378c-.027.125 11.046 2.416 24.722 5.115 13.684 2.7 24.793 4.795 24.819 4.662.027-.124-11.047-2.415-24.731-5.124-13.675-2.69-24.784-4.777-24.81-4.653z" fill="#2B3242"/><path d="M177.404 183.415s-4.706-5.958-8.329-2.628-2.575 5.044.87 10.31c0 0-7.69-.4-5.221 7.494 0 0-7.664-.843-6.927 5.612 0 0-5.781 5.657-2.779 9.307 3.01 3.649 13.924 10.238 16.676 9.102 2.753-1.137 2.78-5.035 2.78-5.035s3.277-1.474 4.182-3.206c.906-1.732-.648-4.147-.648-4.147s2.762-2.824 3.446-3.614c.683-.79-.373-4.449-.373-4.449l-4.414-4.28s6.074 2.637 7.344 1.634c1.27-1.004 2.691-1.874 1.341-3.712-1.359-1.838-6.172-5.95-6.172-5.95l-1.776-6.438z" fill="#FFBE9D"/><path d="M173.861 218.029c.071-.08-.746-.941-1.989-2.415-1.252-1.448-3.019-3.588-5.612-5.142-2.54-1.554-4.875-2.806-6.305-4.058-1.465-1.217-2.043-2.273-2.149-2.211-.071.018.364 1.225 1.803 2.602 1.403 1.403 3.774 2.761 6.26 4.289 2.504 1.5 4.253 3.498 5.621 4.875 1.35 1.385 2.309 2.14 2.371 2.06zm4.254-6.66c.142-.142-2.682-3.196-6.305-6.811-1.82-1.784-3.383-3.516-4.724-4.573-1.323-1.083-2.327-1.483-2.362-1.394-.053.098.826.631 2.025 1.785 1.216 1.119 2.708 2.895 4.546 4.697 3.623 3.624 6.678 6.438 6.82 6.296zm-1.447-13.488c.142-.187-1.599-1.563-3.535-3.41-1.971-1.83-2.93-3.792-3.116-3.721-.214.044.541 2.318 2.601 4.245 2.016 1.918 3.952 3.028 4.05 2.886z" fill="#EB996E"/><path d="M177.404 183.388c-.008.009.018.16.08.444.08.329.178.746.302 1.253.302 1.154.711 2.752 1.235 4.786l.008.044.036.036c.888.781 1.882 1.678 2.966 2.69 1.048 1.022 2.309 2.132 3.277 3.508.213.346.373.737.337 1.11-.035.373-.275.728-.595 1.039-.311.311-.693.595-1.083.897-.32.275-.737.266-1.226.24-1.918-.222-3.934-1.013-5.958-1.847l-1.421-.586 1.101 1.074c1.385 1.359 2.868 2.797 4.396 4.298l-.071-.098c.559 1.368.914 3.091.231 4.467-.764 1.367-2.123 2.522-3.481 3.543l-.302.222.239.284c.959 1.137 1.643 2.931.382 4.032-1.119 1.163-2.646 2.051-4.164 2.85l.515.284-.009-.088v-.027.009c-.089.106.204-.258-.213.311-.995-.471-.285-.196-.507-.267v.009l.009.169v.355c-.009.24-.035.48-.071.728a5.76 5.76 0 01-.382 1.394 3.609 3.609 0 01-.781 1.172c-.337.32-.746.613-1.137.658-.897.097-1.944-.231-2.903-.578-.977-.355-1.936-.808-2.886-1.296a47.237 47.237 0 01-5.133-3.108c-1.616-1.137-3.188-2.318-4.493-3.685-.666-.675-1.101-1.421-1.164-2.309-.08-.87.134-1.758.471-2.584.693-1.661 1.82-3.135 3.019-4.396l.107-.115-.009-.169c-.044-.87-.08-1.758.257-2.522a3.76 3.76 0 011.546-1.829c1.411-.853 3.179-1.004 4.741-.906l.444.027-.106-.435c-.116-.48-.258-.951-.355-1.43-.027-.48-.169-.95-.107-1.412a3.994 3.994 0 01.79-2.504c1.084-1.377 2.984-1.794 4.574-1.794h.515l-.276-.417c-.914-1.394-1.811-2.718-2.477-4.041-.32-.666-.568-1.332-.631-1.998a3.342 3.342 0 01.391-1.864c.631-1.084 1.536-2.034 2.416-2.629.941-.568 2.015-.551 2.877-.293 1.749.551 2.85 1.607 3.578 2.238.364.328.622.604.799.781.196.196.285.284.302.275.009-.008-.062-.124-.222-.319a10.33 10.33 0 00-.754-.844c-.347-.355-.8-.781-1.377-1.216-.577-.435-1.296-.906-2.22-1.199-.897-.293-2.095-.355-3.143.266-.24.178-.489.355-.737.542-.222.204-.444.417-.666.639-.427.462-.879.942-1.208 1.563-.337.604-.542 1.35-.471 2.105.062.755.32 1.483.649 2.175.674 1.377 1.562 2.718 2.459 4.121l.24-.418a8.027 8.027 0 00-2.682.382c-.879.284-1.767.79-2.388 1.581a4.496 4.496 0 00-.942 2.85c-.062.515.08 1.013.107 1.537.098.506.24 1.003.364 1.509l.337-.408c-1.705-.116-3.516.017-5.159.968a4.432 4.432 0 00-1.829 2.149c-.4.905-.364 1.9-.311 2.85l.098-.284c-1.279 1.332-2.433 2.815-3.197 4.617-.364.897-.622 1.892-.533 2.922.044.524.213 1.021.426 1.501.285.453.578.888.924 1.234 1.376 1.439 2.957 2.637 4.6 3.792a47.86 47.86 0 005.212 3.161c.968.497 1.954.959 2.966 1.332 1.021.355 2.06.728 3.268.604 1.279-.267 2.025-1.261 2.478-2.256a6.267 6.267 0 00.426-1.571c.035-.267.062-.533.071-.8v-.399l-.009-.213-.009-.045v-.009c-.213-.08.488.196-.506-.275-.417.568-.124.204-.213.311v.098l.009.106.044.533.471-.249c1.58-.843 3.108-1.714 4.369-3.019.302-.337.595-.719.746-1.199.151-.47.151-.968.062-1.42-.196-.915-.64-1.67-1.199-2.354l-.062.506c1.421-1.092 2.788-2.22 3.676-3.809.417-.826.497-1.758.409-2.611a8.077 8.077 0 00-.649-2.433l-.017-.053-.045-.045c-1.545-1.483-3.028-2.921-4.431-4.262l-.328.488c2.086.835 4.075 1.608 6.153 1.839.498.035 1.146.017 1.59-.364.373-.302.764-.595 1.119-.951.346-.346.666-.799.719-1.349.044-.542-.178-1.022-.417-1.412-1.084-1.483-2.327-2.513-3.41-3.543a93.3 93.3 0 00-3.028-2.647l.053.08c-.595-2.024-1.057-3.623-1.394-4.768a49.66 49.66 0 00-.382-1.226c-.044-.257-.098-.391-.107-.391z" fill="#EB996E"/><path d="M95.957 366.787h54.719a6.844 6.844 0 006.846-6.847v-75.737a6.844 6.844 0 00-6.846-6.847h-34.703l-26.862 27.688v54.896a6.85 6.85 0 006.846 6.847z" fill="#EBEBEB"/><path d="M115.981 277.356v21.312a6.366 6.366 0 01-6.366 6.367H89.119l26.862-27.679z" fill="#F5F5F5"/><path d="M115.697 300.542s.267 5.168-5.612 6.873a5.638 5.638 0 01-.675.151c-2.672.48-20.29 3.614-20.29 3.206v-5.728h20.495s5.114-.177 6.082-4.502z" fill="#E0E0E0"/><path d="M95.957 366.786c0-.035-.408.009-1.18-.142a6.918 6.918 0 01-3.109-1.447c-1.145-.95-2.335-2.611-2.45-4.831-.036-2.211.008-4.768 0-7.628.017-11.464.044-27.874.08-47.694l-.054.133 26.88-27.67-.16.071c6.438 0 13.134.009 20.024.009h13.134c.888.009 1.785-.045 2.628.098a6.638 6.638 0 014.298 2.681 6.527 6.527 0 011.208 3.366c.044 1.216.018 2.486.027 3.712v21.836c.009 9.466.009 18.603.017 27.306 0 4.351.009 8.595.009 12.716 0 2.06 0 4.093.009 6.091v2.975c-.018.986.062 1.963-.124 2.877-.355 1.856-1.545 3.472-3.099 4.405a6.525 6.525 0 01-2.522.888c-.879.106-1.803.053-2.691.071-3.587.009-7.042.009-10.327.018-13.151.026-23.799.053-31.169.071-3.667.017-6.527.035-8.471.044-.96.009-1.697.018-2.203.027-.497 0-.755.017-.755.017s.258.018.755.027c.506.009 1.243.009 2.203.027 1.953.009 4.804.026 8.471.044 7.37.018 18.018.045 31.169.071 3.294.009 6.74.009 10.327.018.897-.018 1.794.044 2.744-.071a7.009 7.009 0 002.664-.933c1.643-.976 2.904-2.681 3.286-4.644.204-.985.124-1.98.142-2.957v-2.975c0-1.998 0-4.031.009-6.091 0-4.121.009-8.365.009-12.716 0-8.703.008-17.84.017-27.306v-21.836c-.009-1.244.027-2.469-.026-3.748a6.996 6.996 0 00-1.297-3.605c-1.083-1.518-2.77-2.575-4.6-2.868-.923-.151-1.82-.089-2.699-.107h-13.134c-6.89 0-13.595.009-20.024.009h-.098l-.062.071c-9.661 9.981-18.719 19.323-26.844 27.706l-.053.053v.08c.035 19.82.062 36.23.08 47.694.017 2.869-.01 5.417.044 7.646.133 2.273 1.367 3.961 2.548 4.911a6.75 6.75 0 003.17 1.412c.391.062.693.08.889.08.213.017.31.008.31.008z" fill="#2B3242"/><path d="M89.111 305.044c0 .018.178.036.524.045.4.009.897.026 1.51.044 1.376.018 3.25.044 5.55.071 2.362.018 5.15.027 8.232.045h4.866c1.749-.036 3.534-.835 4.76-2.229a6.53 6.53 0 001.341-2.371c.284-.853.319-1.785.301-2.611-.008-1.687-.008-3.312-.017-4.866-.018-3.082-.036-5.87-.054-8.232-.026-2.3-.053-4.183-.071-5.55-.017-.613-.035-1.11-.044-1.51-.018-.346-.027-.524-.044-.524-.018 0-.036.178-.045.524-.009.4-.026.897-.044 1.51-.018 1.376-.045 3.25-.071 5.55-.018 2.362-.027 5.15-.054 8.232 0 1.554-.008 3.179-.017 4.866.017.852-.018 1.661-.284 2.477a6.27 6.27 0 01-1.253 2.203 6.13 6.13 0 01-4.422 2.087 4724.735 4724.735 0 00-13.089.079c-2.3.027-4.182.054-5.55.071-.613.018-1.11.036-1.51.045-.328.009-.515.027-.515.044zm27.901-8.667c0 .125 6.465.231 14.439.231s14.439-.106 14.439-.231c0-.124-6.465-.231-14.439-.231s-14.439.098-14.439.231zm-13.702 10.629c0 .125 9.528.231 21.285.231 11.758 0 21.286-.106 21.286-.231 0-.124-9.528-.231-21.286-.231-11.748 0-21.285.107-21.285.231zm0 10.639c0 .124 9.528.231 21.285.231 11.758 0 21.286-.107 21.286-.231 0-.124-9.528-.231-21.286-.231-11.748 0-21.285.098-21.285.231zm0 10.629c0 .124 9.528.231 21.285.231 11.758 0 21.286-.107 21.286-.231 0-.124-9.528-.231-21.286-.231-11.748 0-21.285.107-21.285.231zm0 10.639c0 .124 9.528.23 21.285.23 11.758 0 21.286-.106 21.286-.23 0-.125-9.528-.231-21.286-.231-11.748 0-21.285.097-21.285.231zm0 13.106c0 .124 9.528.231 21.285.231 11.758 0 21.286-.107 21.286-.231 0-.124-9.528-.231-21.286-.231-11.748 0-21.285.107-21.285.231z" fill="#2B3242"/></g><defs><clipPath id="clip0"><path fill="#fff" transform="matrix(-1 0 0 1 666 -15)" d="M0 0h666v444H0z"/></clipPath></defs></svg>