<svg width="38" height="38" fill="none" xmlns="http://www.w3.org/2000/svg"><path d="M12.666 34.833h12.667c6.365 0 7.505-2.549 7.838-5.652l1.187-12.667c.428-3.863-.68-7.014-7.441-7.014H11.082c-6.76 0-7.869 3.15-7.442 7.014l1.19 12.667c.332 3.103 1.472 5.652 7.837 5.652z" stroke="#EB3A53" stroke-width="2.3" stroke-miterlimit="10" stroke-linecap="round" stroke-linejoin="round"/><path d="M12.666 9.5V8.233c0-2.802 0-5.067 5.067-5.067h2.534c5.066 0 5.066 2.265 5.066 5.067V9.5m-3.166 11.083v1.615c0 1.726-.016 3.135-3.167 3.135-3.135 0-3.166-1.393-3.166-3.119v-1.63c0-1.584 0-1.584 1.583-1.584h3.166c1.584 0 1.584 0 1.584 1.583zm12.112-3.167a26.101 26.101 0 01-12.113 4.782M4.148 17.844a25.78 25.78 0 0011.685 4.37" stroke="#EB3A53" stroke-width="2.3" stroke-miterlimit="10" stroke-linecap="round" stroke-linejoin="round"/></svg>