<svg width="32" height="31" fill="none" xmlns="http://www.w3.org/2000/svg"><path d="M6.337 12.922h3.007c3.006 0 4.51-1.503 4.51-4.51V5.406c0-3.007-1.504-4.51-4.51-4.51H6.337c-3.006 0-4.51 1.503-4.51 4.51v3.006c0 3.007 1.504 4.51 4.51 4.51zm16.836 0h3.006c3.007 0 4.51-1.504 4.51-4.51V5.405c0-3.006-1.503-4.51-4.51-4.51h-3.006c-3.007 0-4.51 1.504-4.51 4.51v3.007c0 3.006 1.503 4.51 4.51 4.51zm0 16.836h3.006c3.007 0 4.51-1.504 4.51-4.51V22.24c0-3.006-1.503-4.51-4.51-4.51h-3.006c-3.007 0-4.51 1.504-4.51 4.51v3.007c0 3.006 1.503 4.51 4.51 4.51zm-16.835 0h3.006c3.007 0 4.51-1.504 4.51-4.51V22.24c0-3.006-1.503-4.51-4.51-4.51H6.338c-3.007 0-4.51 1.504-4.51 4.51v3.007c0 3.006 1.503 4.51 4.51 4.51z" stroke="#DC2B40" stroke-width="1.769" stroke-miterlimit="10" stroke-linecap="round" stroke-linejoin="round"/></svg>