<svg width="194" height="193" fill="none" xmlns="http://www.w3.org/2000/svg"><path d="M41.974 57.5l.725-1.127L44.1 62.1l6.364-.976-.767 1.192-6.22.897-1.503-5.713zm5.373 8.466l-.598.93-7.652-4.925.598-.93 7.652 4.925zm4.236-6.191l-.757.822-4.083-9.077.643-.698 9.384 3.32-.802.87-2.82-1.006-2.809 3.05 1.244 2.719zm.51-6.158l-3.97-1.427 1.75 3.837 2.22-2.41zm6.185-12.325l1.063-.814-.62 5.862 6.318 1.236-1.125.861-6.157-1.26.52-5.885zm2.19 9.786l-.878.671-5.533-7.224.877-.672 5.533 7.225zm10.951-7.038l-1.024.415-3.42-8.433 1.036-.42 4.922 3.04 1.282-5.556.976-.396 3.42 8.433-1.024.416-2.765-6.819-1.288 5.404-.157.063-4.709-2.93 2.75 6.783zm19.352-5.545l-1.087.196-1.612-8.957 1.088-.195 1.611 8.956zm-6.764-3.604c-.298.053-.665.146-1.1.277l.64 3.556c.696-.098 1.057-.15 1.082-.154 1.519-.274 2.163-1.046 1.935-2.317-.103-.571-.373-.972-.81-1.201-.44-.238-1.022-.292-1.747-.161zM81.035 31l1.088-.196.598 3.326c.59-.15.983-.242 1.179-.278 1.083-.195 1.95-.1 2.6.285.65.377 1.053 1.004 1.21 1.883.17.938-.01 1.723-.54 2.355-.53.624-1.359 1.038-2.484 1.24-.427.077-.799.14-1.116.188-.308.046-.616.097-.923.152L81.035 31zm20.118 3.981l-.317 3.483-1.1-.1.825-9.063c.362.033.746.064 1.153.092.406.028.812.06 1.218.098 1.191.108 2.021.454 2.49 1.036.479.574.681 1.267.607 2.078-.071.786-.417 1.433-1.038 1.942-.602.502-1.43.705-2.483.61a14.537 14.537 0 01-1.355-.176zm1.788-4.445a96.34 96.34 0 00-1.374-.1l-.319 3.496c.54.093.979.155 1.315.185.665.06 1.201-.051 1.61-.336.41-.294.641-.725.692-1.295.052-.56-.086-1.008-.412-1.343-.317-.342-.821-.544-1.512-.607zm5.391 8.842l-1.08-.292 6.168-7.813.916.248 1.387 9.856-1.142-.309-.41-2.966-4.003-1.083-1.836 2.359zm5.697-2.392l-.566-4.18-2.597 3.325 3.163.855zm4.864 5.69l3.818-8.26 4.673 2.16-.436.944-3.67-1.697-1.097 2.372c.439.146.871.317 1.296.513.912.422 1.52.965 1.824 1.63.311.67.293 1.382-.056 2.137-.39.842-.969 1.362-1.738 1.56-.762.202-1.646.07-2.653-.395a62.763 62.763 0 01-1.11-.542 7.673 7.673 0 01-.372-.186 3.736 3.736 0 01-.314-.16l-.165-.076zm4.089-3.051c-.362-.167-.774-.33-1.237-.486l-1.412 3.057c.418.231.788.421 1.111.57.66.306 1.224.4 1.689.28.477-.123.836-.444 1.076-.964.225-.487.232-.947.021-1.379-.203-.428-.619-.787-1.248-1.078zm6.673 3.37c.759-1.077 1.756-1.732 2.99-1.964 1.235-.232 2.402.039 3.499.813 1.091.77 1.742 1.764 1.953 2.983.218 1.225-.067 2.397-.856 3.516-.77 1.091-1.775 1.75-3.017 1.977-1.232.213-2.39-.062-3.473-.826-1.084-.764-1.738-1.761-1.964-2.991-.211-1.22.078-2.39.868-3.508zm.956.674c-.59.836-.816 1.736-.68 2.701.145.952.619 1.71 1.419 2.274.836.589 1.716.785 2.639.588.931-.192 1.696-.713 2.295-1.563.6-.85.826-1.75.68-2.702-.145-.95-.619-1.709-1.419-2.273-.814-.574-1.688-.772-2.621-.592-.933.18-1.704.703-2.313 1.567zm13.058 6.128l-2.225-2.278.744-.727 5.223 5.347-.744.727-2.226-2.278-5.765 5.632-.773-.79 5.766-5.633zm-1.257 10.557l-.637-.92 9.753-1.99.54.78-5.299 8.426-.674-.973 1.601-2.53-2.36-3.41-2.924.617zm5.895 1.849l2.264-3.56-4.128.865 1.864 2.694zm1.956 11.592l-2.243-4.764 8.234-3.876 2.187 4.647-.941.442-1.717-3.646-2.658 1.252 1.55 3.293-.94.443-1.551-3.294-2.752 1.296 1.772 3.764-.941.443zm1.547 3.876l-.286-1.067 8.791-2.354.289 1.08-3.624 4.51 5.356 1.957.272 1.017-8.79 2.354-.286-1.067 7.108-1.904-5.204-1.944-.044-.163 3.488-4.312-7.07 1.893zm9.283 38.056l-.33 1.297-3.145-4.984-5.725 2.943.349-1.373 5.614-2.824 3.237 4.941zm-7.781-6.325l.272-1.071 8.819 2.243-.272 1.071-8.819-2.243zm-2.047 7.176l.458-1.02 6.751 7.314-.388.866-9.952-.173.484-1.079 2.993.059 1.696-3.784-2.042-2.183zm1.471 6.001l4.216.095-2.877-3.084-1.339 2.989zm-2.075 13.868l-.751 1.109-1.269-5.756-6.384.829.794-1.174 6.239-.754 1.371 5.746zm-5.177-8.588l.62-.915 7.536 5.1-.619.915-7.537-5.1zm-7.939 9.947l.839-.72 5.929 6.903-.848.729-5.635-1.313.556 5.675-.798.686-5.93-6.903.838-.72 4.795 5.582-.502-5.533.128-.11 5.397 1.276-4.769-5.552zm-16.79 11.513l.972-.525 4.322 8.009-.973.525-4.321-8.009zm7.55 1.318c.267-.144.586-.346.958-.606l-1.716-3.18c-.63.31-.956.471-.979.484-1.358.732-1.73 1.667-1.117 2.803.276.511.657.808 1.145.889.491.09 1.061-.04 1.709-.39zm4.036 2.771l-.973.524-1.605-2.974a21.31 21.31 0 01-1.033.631c-.968.523-1.822.703-2.56.539-.734-.155-1.312-.626-1.736-1.411-.453-.839-.526-1.642-.221-2.407.31-.758.968-1.409 1.975-1.952.382-.206.715-.381 1.002-.526.278-.14.555-.285.83-.433l4.321 8.009zm-20.178 2.499l-.794-3.406 1.076-.251 2.066 8.863c-.355.083-.729.174-1.124.275-.395.101-.791.198-1.187.29-1.165.272-2.062.205-2.69-.201-.635-.394-1.045-.989-1.23-1.782-.179-.768-.054-1.491.376-2.17.414-.666 1.136-1.119 2.166-1.359.54-.126.987-.212 1.341-.259zm-.301 4.782c.152-.035.598-.148 1.337-.338l-.797-3.419c-.542.082-.977.161-1.306.238-.65.152-1.124.427-1.423.826-.297.407-.38.889-.25 1.446.128.549.399.93.814 1.145.408.225.95.259 1.625.102zm-8.041-6.641l1.116-.064-3.382 9.361-.947.055-4.431-8.913 1.18-.068 1.327 2.685 4.14-.238.997-2.818zm-4.65 4.069l1.859 3.787 1.412-3.974-3.27.187zm-6.305-3.822l-1.028 9.042-5.115-.582.117-1.033 4.017.457.296-2.597a12.5 12.5 0 01-1.391-.079c-1-.114-1.747-.439-2.245-.975-.505-.537-.711-1.219-.617-2.046.104-.921.49-1.597 1.159-2.027.66-.431 1.54-.584 2.643-.458.18.02.588.075 1.224.165.12.014.258.034.412.06.146.016.262.034.347.052l.18.021zm-2.922 4.182c.396.045.838.069 1.326.072l.38-3.346c-.47-.088-.88-.152-1.234-.192-.723-.082-1.287.006-1.692.265-.414.267-.653.685-.718 1.253-.06.534.077.973.413 1.316.328.343.836.553 1.525.632zm-6.876-.923c-.377 1.262-1.115 2.199-2.212 2.811-1.097.613-2.29.726-3.576.341-1.279-.383-2.212-1.119-2.8-2.209-.595-1.092-.696-2.294-.304-3.606.383-1.278 1.127-2.223 2.233-2.832 1.1-.594 2.285-.7 3.556-.32 1.27.38 2.207 1.118 2.811 2.212.588 1.09.685 2.291.292 3.603zm-1.12-.336c.293-.98.222-1.906-.214-2.778-.44-.856-1.13-1.424-2.068-1.705-.98-.293-1.876-.2-2.689.281-.822.478-1.382 1.215-1.68 2.211-.298.996-.227 1.922.213 2.778.44.855 1.13 1.424 2.068 1.704.955.286 1.846.196 2.674-.271.827-.467 1.392-1.207 1.696-2.22zm-14.593-1.716l2.837 1.447-.472.926-6.66-3.395.473-.926L66.37 155l3.661-7.18.984.502-3.66 7.18zm-2.451-10.536l.894.672-8.629 4.962-.758-.571 2.373-9.666.946.711-.721 2.906 3.314 2.493 2.581-1.507zm-6.178.103L57.7 149.16l3.645-2.122-2.618-1.969zm-5.536-10.351l3.636 3.808-6.582 6.284-3.546-3.713.752-.719 2.783 2.915 2.125-2.029-2.514-2.633.753-.718 2.514 2.633 2.2-2.101-2.873-3.009.752-.718zm-2.659-3.112l.609.923-7.596 5.01-.616-.933 2.013-5.424-5.7-.164-.58-.879 7.597-5.011.608.922-6.142 4.052 5.552.2.093.141-1.947 5.193 6.11-4.03z" fill="#D7728B"/></svg>