<svg width="26" height="24" fill="none" xmlns="http://www.w3.org/2000/svg"><path d="M11.283 3.014c.758-1.331 2.676-1.331 3.434 0a1.977 1.977 0 002.537.82l.317-.145c1.317-.599 2.771.506 2.547 1.935-.156.99.52 1.918 1.51 2.075l.233.037c1.431.227 1.98 1.998.928 2.995a1.748 1.748 0 000 2.538c1.052.997.503 2.768-.928 2.995l-.234.037a1.816 1.816 0 00-1.51 2.075c.225 1.429-1.23 2.534-2.546 1.935l-.317-.145a1.977 1.977 0 00-2.537.82c-.758 1.331-2.676 1.331-3.434 0a1.977 1.977 0 00-2.537-.82l-.317.145c-1.317.599-2.771-.506-2.547-1.935a1.816 1.816 0 00-1.51-2.075l-.233-.037c-1.431-.227-1.98-1.998-.928-2.995a1.748 1.748 0 000-2.538c-1.052-.997-.503-2.768.928-2.995l.234-.037a1.816 1.816 0 001.51-2.075c-.225-1.429 1.23-2.534 2.546-1.935l.317.145c.93.423 2.03.068 2.537-.82z" fill="#3AB292"/><path d="M9 12.75L11.182 15 17 9" stroke="#fff" stroke-width="2" stroke-linecap="round" stroke-linejoin="round"/></svg>