<svg width="33" height="33" fill="none" xmlns="http://www.w3.org/2000/svg"><path d="M16.08 19.075a3.706 3.706 0 100-7.413 3.706 3.706 0 000 7.413zm6.847 8.534c0-3.074-3.06-5.58-6.846-5.58-3.785 0-6.845 2.493-6.845 5.58" stroke="#DC2B40" stroke-width="1.862" stroke-linecap="round" stroke-linejoin="round"/><path d="M28.663 17.452c0 6.925-5.605 12.53-12.53 12.53-6.925 0-12.53-5.605-12.53-12.53 0-6.924 5.605-12.53 12.53-12.53 1.728 0 3.377.343 4.88.976a5.346 5.346 0 00-.264 1.662c0 .99.277 1.926.765 2.717.264.449.607.857 1.003 1.2a5.171 5.171 0 003.508 1.359 4.86 4.86 0 001.649-.277c.633 1.504.99 3.165.99 4.893z" stroke="#DC2B40" stroke-width="1.862" stroke-linecap="round" stroke-linejoin="round"/><path d="M31.301 7.56c0 .422-.052.831-.158 1.227a4.925 4.925 0 01-.607 1.49 5.141 5.141 0 01-2.862 2.282 4.86 4.86 0 01-1.648.277 5.172 5.172 0 01-3.509-1.358 4.86 4.86 0 01-1.002-1.2 5.172 5.172 0 01-.765-2.718c0-.58.092-1.134.264-1.662A5.2 5.2 0 0122.24 3.88a5.27 5.27 0 013.786-1.596c1.556 0 2.967.673 3.917 1.755A5.255 5.255 0 0131.3 7.56zm-3.311-.027h-3.93m1.965-1.926v3.944" stroke="#DC2B40" stroke-width="1.862" stroke-miterlimit="10" stroke-linecap="round" stroke-linejoin="round"/></svg>