<svg width="21" height="20" fill="none" xmlns="http://www.w3.org/2000/svg"><path d="M12.141 2.3l1.672 3.194c.228.444.836.87 1.349.952l3.03.481c1.938.309 2.394 1.652.997 2.976l-2.355 2.25c-.4.381-.618 1.117-.494 1.643l.674 2.785c.532 2.205-.693 3.058-2.736 1.906l-2.84-1.606c-.513-.29-1.358-.29-1.88 0l-2.84 1.606c-2.033 1.152-3.268.29-2.736-1.906l.674-2.785c.124-.526-.095-1.261-.494-1.643l-2.356-2.25C.42 8.58.866 7.236 2.804 6.927l3.03-.48c.503-.082 1.111-.509 1.34-.953L8.844 2.3c.912-1.733 2.394-1.733 3.296 0z" stroke="#3AB292" stroke-linecap="round" stroke-linejoin="round"/></svg>