<svg width="81" height="60" fill="none" xmlns="http://www.w3.org/2000/svg"><path d="M75.168 0H44.765c-3.02 0-5.475 2.423-5.475 5.4v9.063H8.026c-4.07 0-7.383 3.267-7.383 7.282v26.53c0 4.015 3.312 7.282 7.383 7.282h15.493l4.238 4.014a1.57 1.57 0 001.082.429c.39 0 .78-.143 1.083-.43l4.239-4.013h15.492c4.071 0 7.383-3.267 7.383-7.282V32.908h8.175l4.592 3.173a1.579 1.579 0 001.358.21c.462-.14.831-.483 1.001-.93l.937-2.453h2.068c3.02 0 5.476-2.423 5.476-5.4V5.4c0-2.977-2.456-5.4-5.475-5.4zM53.91 48.275c0 2.316-1.91 4.201-4.258 4.201h-16.12c-.404 0-.792.154-1.083.43l-3.61 3.418-3.609-3.418a1.575 1.575 0 00-1.082-.43H8.026c-2.348 0-4.258-1.884-4.258-4.201v-26.53c0-2.317 1.91-4.202 4.258-4.202h41.628c2.347 0 4.258 1.885 4.258 4.202v26.53zm23.607-20.768c0 1.28-1.055 2.32-2.35 2.32h-3.15c-.651 0-1.234.398-1.463.998l-.608 1.593-3.346-2.312a1.578 1.578 0 00-.897-.279h-8.667v-8.082c0-4.016-3.312-7.282-7.383-7.282h-7.24V5.4c0-1.28 1.055-2.32 2.351-2.32h30.403c1.296 0 2.35 1.04 2.35 2.32v22.107z" fill="#C6CCD3"/></svg>