<svg width="33" height="33" fill="none" xmlns="http://www.w3.org/2000/svg"><path d="M21.514 16.793a4.717 4.717 0 01-4.722 4.722 4.717 4.717 0 01-4.722-4.722 4.717 4.717 0 014.722-4.722 4.717 4.717 0 014.722 4.722z" stroke="#DC2B40" stroke-width="1.862" stroke-linecap="round" stroke-linejoin="round"/><path d="M16.793 27.7c4.655 0 8.995-2.744 12.015-7.492 1.187-1.86 1.187-4.986 0-6.845-3.02-4.749-7.36-7.492-12.015-7.492-4.656 0-8.996 2.743-12.016 7.492-1.187 1.86-1.187 4.985 0 6.845 3.02 4.748 7.36 7.492 12.016 7.492z" stroke="#DC2B40" stroke-width="1.862" stroke-linecap="round" stroke-linejoin="round"/></svg>