<svg width="92" height="92" fill="none" xmlns="http://www.w3.org/2000/svg"><path d="M0 14C0 6.268 6.268 0 14 0h64c7.732 0 14 6.268 14 14v64c0 7.732-6.268 14-14 14H14C6.268 92 0 85.732 0 78V14z" fill="#fff"/><g clip-path="url(#clip0)"><path d="M43.085 62V46.985H39v-5.407h4.084v-4.617c0-3.629 2.413-6.961 7.972-6.961 2.25 0 3.915.21 3.915.21l-.131 5.048s-1.697-.016-3.55-.016c-2.005 0-2.326.898-2.326 2.389v3.947H55l-.262 5.407h-5.773V62h-5.88z" fill="#1465C5"/></g><defs><clipPath id="clip0"><path fill="#fff" transform="translate(39 30)" d="M0 0h16v32H0z"/></clipPath></defs></svg>