<svg width="67" height="67" fill="none" xmlns="http://www.w3.org/2000/svg"><rect x="1" y="1" width="65" height="65" rx="19.5" stroke="#C5C5CD" stroke-width="1.3"/><path fill-rule="evenodd" clip-rule="evenodd" d="M40.325 19.85h-13.65a2.277 2.277 0 00-2.275 2.275v21.613a2.277 2.277 0 002.275 2.275v.568c0 .315.255.57.57.57h1.137a.568.568 0 00.568-.57v-.568h9.1v.568c0 .315.255.57.57.57h1.137a.568.568 0 00.569-.57v-.568a2.277 2.277 0 002.274-2.275V22.125a2.277 2.277 0 00-2.275-2.275zm1.138 23.888c0 .627-.51 1.137-1.138 1.137h-13.65a1.14 1.14 0 01-1.137-1.137V28.95h15.925v14.788zm0-15.925H25.538v-5.688c0-.627.51-1.137 1.137-1.137h13.65c.627 0 1.138.51 1.138 1.137v5.688zM30.657 24.4h-2.275a.568.568 0 00-.97-.402l-.57.569a.568.568 0 00.402.97h3.413a.568.568 0 100-1.137zm0 7.963h-3.413a.568.568 0 01-.402-.971l.569-.57a.568.568 0 01.97.403h2.276a.568.568 0 110 1.138z" fill="#C5C5CD"/><path d="M26.675 46.013h.13v-.13h-.13v.13zm2.275 0v-.13h-.13v.13h.13zm9.1 0h.13v-.13h-.13v.13zm2.276 0v-.13h-.13v.13h.13zM42.6 22.125h.13-.13zm-1.137 21.613v-.13h-.13v.13h.13zM25.538 28.95v-.13h-.13v.13h.13zm15.925 0h.13v-.13h-.13v.13zm0 14.788v.13h.13v-.13h-.13zM25.538 27.813h-.13v.13h.13v-.13zm15.925 0v.13h.13v-.13h-.13zM28.382 24.4h-.13v.13h.13v-.13zm-.167-.402l.092-.092-.092.092zm-.804 0l.092.092-.092-.092zm-.569.569l-.092-.092.092.092zm-.123.62l.12-.05-.12.05zm0 6.825l.12-.05-.12.05zm.123-.62l-.092-.092.092.092zm.569-.57l.092.093-.092-.092zm.804 0l.092-.091-.092.092zm.167.403h-.13v.13h.13v-.13zM26.675 19.98h13.65v-.26h-13.65v.26zm-2.145 2.145c0-1.183.962-2.145 2.145-2.145v-.26a2.407 2.407 0 00-2.405 2.405h.26zm0 21.613V22.125h-.26v21.613h.26zm2.145 2.145a2.147 2.147 0 01-2.145-2.145h-.26a2.407 2.407 0 002.405 2.405v-.26zm.13.698v-.568h-.26v.568h.26zm.44.44a.438.438 0 01-.44-.44h-.26a.7.7 0 00.7.7v-.26zm1.137 0h-1.138v.26h1.138v-.26zm.438-.44a.438.438 0 01-.438.44v.26a.698.698 0 00.698-.7h-.26zm0-.568v.568h.26v-.568h-.26zm9.23-.13h-9.1v.26h9.1v-.26zm.13.698v-.568h-.26v.568h.26zm.44.44a.438.438 0 01-.44-.44h-.26a.7.7 0 00.7.7v-.26zm1.137 0h-1.138v.26h1.138v-.26zm.439-.44a.438.438 0 01-.44.44v.26a.698.698 0 00.7-.7h-.26zm0-.568v.568h.26v-.568h-.26zm2.275-2.275a2.147 2.147 0 01-2.145 2.145v.26a2.407 2.407 0 002.404-2.405h-.26zm0-21.613v21.613h.26V22.125h-.26zm-2.146-2.145c1.183 0 2.145.962 2.145 2.145h.26a2.407 2.407 0 00-2.405-2.405v.26zm0 25.025c.7 0 1.268-.569 1.268-1.267h-.26c0 .555-.452 1.007-1.008 1.007v.26zm-13.65 0h13.65v-.26h-13.65v.26zm-1.267-1.267a1.27 1.27 0 001.267 1.267v-.26a1.01 1.01 0 01-1.007-1.007h-.26zm0-14.788v14.788h.26V28.95h-.26zm16.055-.13H25.538v.26h15.925v-.26zm.13 14.918V28.95h-.26v14.788h.26zm-.13.13v-.26.26zM25.538 27.943h15.925v-.26H25.538v.26zm-.13-5.818v5.688h.26v-5.688h-.26zm1.267-1.267a1.27 1.27 0 00-1.267 1.267h.26a1.01 1.01 0 011.007-1.007v-.26zm13.65 0h-13.65v.26h13.65v-.26zm1.268 1.267c0-.699-.569-1.267-1.268-1.267v.26c.556 0 1.008.452 1.008 1.007h.26zm0 5.688v-5.688h-.26v5.688h.26zM28.382 24.53h2.275v-.26h-2.275v.26zm-.259-.44a.437.437 0 01.129.31h.26a.697.697 0 00-.205-.494l-.184.184zm-.62 0a.439.439 0 01.62 0l.184-.184a.699.699 0 00-.988 0l.184.184zm-.569.569l.569-.57-.184-.183-.569.569.184.184zm-.095.478a.438.438 0 01.095-.478l-.184-.184c-.2.2-.26.5-.151.761l.24-.1zm.405.27a.438.438 0 01-.405-.27l-.24.1a.698.698 0 00.645.43v-.26zm3.413 0h-3.413v.26h3.413v-.26zm.439-.438a.438.438 0 01-.44.439v.26a.698.698 0 00.7-.7h-.26zm-.44-.439a.44.44 0 01.44.439h.26a.698.698 0 00-.7-.699v.26zm-3.412 7.963h3.413v-.26h-3.413v.26zm-.645-.432a.698.698 0 00.645.432v-.26a.438.438 0 01-.405-.271l-.24.1zm.151-.761c-.2.2-.26.5-.151.761l.24-.1a.438.438 0 01.095-.477l-.184-.184zm.569-.569l-.569.569.184.184.569-.57-.184-.183zm.988 0a.699.699 0 00-.988 0l.184.184a.438.438 0 01.62 0l.184-.184zm.205.494a.698.698 0 00-.205-.494l-.184.184a.438.438 0 01.129.31h.26zm2.145-.13h-2.275v.26h2.275v-.26zm.698.699a.698.698 0 00-.698-.699v.26c.242 0 .439.196.439.439h.26zm-.698.699a.698.698 0 00.698-.7h-.26a.438.438 0 01-.438.44v.26z" fill="#C5C5CD"/></svg>