<svg width="67" height="67" fill="none" xmlns="http://www.w3.org/2000/svg"><rect x="1" y="1" width="65" height="65" rx="19.5" stroke="#C5C5CD" stroke-width="1.3"/><path d="M47.656 32.008l-.115.096.115-.096-3.842-4.548c1.129-2.576.925-5.624-.565-8.069a.71.71 0 00-.974-.236h0a.706.706 0 00-.333.51 13.832 13.832 0 01-10.268 10.201l.035.146-.035-.146a15.321 15.321 0 00-11.256 11.011c-.358.198-.708.41-1.051.636h0a.708.708 0 00-.2.98h0a.708.708 0 00.982.2h0a13.868 13.868 0 014.432-1.921 15.267 15.267 0 005.179-2.318l-.086-.123.086.123a.707.707 0 10-.809-1.162h0a13.851 13.851 0 01-4.7 2.103 15.34 15.34 0 00-2.1.664c1.57-4.395 5.232-7.71 9.853-8.816a15.324 15.324 0 002.098-.664 13.796 13.796 0 01-1.758 3.361.707.707 0 101.154.821h0a15.213 15.213 0 002.338-5 15.314 15.314 0 006.94-8.007c.568 1.81.432 3.8-.429 5.495l.134.068-.134-.068a.707.707 0 00.09.777l.115-.097-.114.097 4.01 4.746-1.456.956a.708.708 0 00-.218.957h0l.615 1.02a.83.83 0 01.078.688h0a.832.832 0 01-.47.509h-.001a.708.708 0 00-.198 1.182c.192.17.283.412.252.667h0a.754.754 0 01-.408.585h0l-.035.017h0a.708.708 0 00-.382.628v1.87c0 .9-.734 1.634-1.637 1.634h-3.279a7.603 7.603 0 00-4.117 1.209l-2.984 1.916a.707.707 0 10.767 1.191s0 0 0 0l2.984-1.917-.081-.126.08.126a6.186 6.186 0 013.352-.983h3.278a3.056 3.056 0 003.055-3.05v-1.484a2.18 2.18 0 00.621-2.642 2.247 2.247 0 00.339-2.751l-.264-.437 1.05-.69-.083-.125.083.125c.297-.195.496-.508.547-.86h0a1.243 1.243 0 00-.28-.98zM28.564 19.593a.709.709 0 00-.854-.523l.035.146-.035-.146a10.363 10.363 0 00-7.665 7.655 8.925 8.925 0 01-.904 2.302.707.707 0 00.27.965h0a.707.707 0 00.964-.27l-.13-.074.13.074c.471-.835.824-1.733 1.048-2.667h0a8.9 8.9 0 016.617-6.608.708.708 0 00.524-.854zm0 0l-.145.035.145-.035s0 0 0 0z" fill="#C5C5CD" stroke="#C5C5CD" stroke-width=".3"/></svg>