<svg width="65" height="65" fill="none" xmlns="http://www.w3.org/2000/svg"><rect width="65" height="65" rx="19.5" fill="#CD2946"/><rect width="65" height="65" rx="19.5" fill="url(#paint0_linear_80:73072)"/><path d="M46.541 31.104l-3.902-4.619c1.151-2.548.963-5.585-.518-8.015a.56.56 0 00-1.031.222 13.982 13.982 0 01-10.381 10.32 15.17 15.17 0 00-11.162 10.966c-.374.204-.74.424-1.097.66a.557.557 0 10.616.93 14.016 14.016 0 014.48-1.942 15.117 15.117 0 005.128-2.295.558.558 0 10-.637-.916 14.002 14.002 0 01-4.751 2.126c-.82.196-1.615.458-2.384.783 1.522-4.6 5.287-8.084 10.067-9.227a15.186 15.186 0 002.383-.783 13.95 13.95 0 01-1.886 3.713.557.557 0 10.91.647 15.06 15.06 0 002.331-5.014 15.167 15.167 0 007.071-8.356c.737 1.95.647 4.153-.297 6.013-.102.2-.074.44.071.612l4.119 4.875-1.597 1.05a.558.558 0 00-.171.753l.614 1.02a.98.98 0 01-.463 1.413.558.558 0 00-.156.932.903.903 0 01.3.797.904.904 0 01-.487.7l-.035.018a.558.558 0 00-.3.494v1.87c0 .984-.802 1.784-1.788 1.784h-3.279c-1.434 0-2.83.41-4.035 1.185l-2.985 1.916a.557.557 0 10.605.939l2.984-1.917a6.337 6.337 0 013.431-1.007h3.279a2.906 2.906 0 002.905-2.9v-1.558a2.031 2.031 0 00.587-2.6 2.095 2.095 0 00.394-2.642l-.338-.56 1.17-.769a1.094 1.094 0 00.235-1.618zM18.484 28.86a.557.557 0 00.76-.212c.465-.823.812-1.707 1.033-2.628a9.05 9.05 0 016.729-6.72.558.558 0 10-.26-1.084 10.213 10.213 0 00-7.555 7.544 9.075 9.075 0 01-.92 2.341.557.557 0 00.213.76z" fill="#fff" stroke="#fff" stroke-width=".455"/><defs><linearGradient id="paint0_linear_80:73072" x1="7.268" y1="-11.669" x2="89.17" y2="33.649" gradientUnits="userSpaceOnUse"><stop stop-color="#CC283C"/><stop offset="1" stop-color="#CC284F"/></linearGradient></defs></svg>