<svg width="92" height="92" fill="none" xmlns="http://www.w3.org/2000/svg"><path d="M0 14C0 6.268 6.268 0 14 0h64c7.732 0 14 6.268 14 14v64c0 7.732-6.268 14-14 14H14C6.268 92 0 85.732 0 78V14z" fill="#fff"/><path d="M62.343 42.736H61v-.07H46v6.667h9.42C54.044 53.214 50.352 56 46 56c-5.522 0-10-4.478-10-10 0-5.523 4.478-10 10-10 2.55 0 4.868.962 6.634 2.532l4.715-4.714C54.372 31.044 50.39 29.333 46 29.333c-9.204 0-16.666 7.463-16.666 16.667S36.796 62.667 46 62.667 62.667 55.204 62.667 46c0-1.118-.115-2.208-.324-3.264z" fill="#FFC107"/><path d="M31.255 38.242l5.476 4.016C38.213 38.59 41.801 36 46.001 36a9.95 9.95 0 016.634 2.532l4.714-4.714C54.372 31.044 50.39 29.333 46 29.333c-6.401 0-11.953 3.614-14.745 8.91z" fill="#FF3D00"/><path d="M46 62.667c4.305 0 8.217-1.648 11.174-4.327l-5.158-4.365A9.925 9.925 0 0146 56c-4.335 0-8.016-2.764-9.402-6.622l-5.435 4.188c2.758 5.397 8.36 9.1 14.837 9.1z" fill="#4CAF50"/><path d="M62.343 42.736H61v-.07H46v6.667h9.42a10.034 10.034 0 01-3.407 4.643l.003-.002 5.158 4.365c-.365.332 5.493-4.006 5.493-12.339a16.72 16.72 0 00-.325-3.264z" fill="#1976D2"/></svg>