<svg width="92" height="92" viewBox="0 0 92 92" fill="none" xmlns="http://www.w3.org/2000/svg">
<path d="M62.3422 42.7355H60.9997V42.6663H45.9997V49.333H55.4188C54.0447 53.2138 50.3522 55.9997 45.9997 55.9997C40.4772 55.9997 35.9997 51.5222 35.9997 45.9997C35.9997 40.4772 40.4772 35.9997 45.9997 35.9997C48.5488 35.9997 50.868 36.9613 52.6338 38.5322L57.348 33.818C54.3713 31.0438 50.3897 29.333 45.9997 29.333C36.7955 29.333 29.333 36.7955 29.333 45.9997C29.333 55.2038 36.7955 62.6663 45.9997 62.6663C55.2038 62.6663 62.6663 55.2038 62.6663 45.9997C62.6663 44.8822 62.5513 43.7913 62.3422 42.7355Z" fill="#FFC107"/>
<path d="M31.2549 38.2422L36.7307 42.258C38.2124 38.5897 41.8007 35.9997 45.9999 35.9997C48.5491 35.9997 50.8682 36.9613 52.6341 38.5322L57.3482 33.818C54.3716 31.0438 50.3899 29.333 45.9999 29.333C39.5982 29.333 34.0465 32.9472 31.2549 38.2422Z" fill="#FF3D00"/>
<path d="M46.0006 62.6663C50.3056 62.6663 54.2173 61.0188 57.1748 58.3396L52.0164 53.9746C50.2869 55.2899 48.1735 56.0013 46.0006 55.9996C41.6656 55.9996 37.9848 53.2354 36.5981 49.3779L31.1631 53.5654C33.9214 58.9629 39.5231 62.6663 46.0006 62.6663Z" fill="#4CAF50"/>
<path d="M62.3425 42.7362H61V42.667H46V49.3337H55.4192C54.7618 51.1807 53.5778 52.7946 52.0133 53.9762L52.0158 53.9745L57.1742 58.3395C56.8092 58.6712 62.6667 54.3337 62.6667 46.0003C62.6667 44.8828 62.5517 43.792 62.3425 42.7362Z" fill="#1976D2"/>
</svg>
