<svg width="50" height="50" fill="none" xmlns="http://www.w3.org/2000/svg"><circle cx="25" cy="25" r="25" fill="url(#paint0_linear)"/><path fill-rule="evenodd" clip-rule="evenodd" d="M29.526 20.003a6.167 6.167 0 00-4.304-1.65c-2.928 0-5.414 1.937-6.3 4.544a6.465 6.465 0 000 4.211h.003c.89 2.603 3.373 4.539 6.3 4.539 1.512 0 2.81-.379 3.815-1.048v-.003a5.086 5.086 0 002.243-3.342h-6.061v-4.236h10.584c.132.735.194 1.487.194 2.235 0 3.346-1.22 6.174-3.342 8.09l.002.002C30.8 35.025 28.248 36 25.222 36c-4.243 0-8.123-2.344-10.028-6.059a10.815 10.815 0 010-9.878c1.905-3.718 5.785-6.062 10.028-6.062 2.787-.033 5.48.994 7.508 2.861l-3.204 3.14z" fill="#fff"/><defs><linearGradient id="paint0_linear" x1="-5.958" y1="-22.325" x2="74.22" y2="36.486" gradientUnits="userSpaceOnUse"><stop stop-color="#CC283C"/><stop offset="1" stop-color="#CC284F"/></linearGradient></defs></svg>