<svg width="30" height="29" fill="none" xmlns="http://www.w3.org/2000/svg"><path d="M17.246 3.805l2.288 4.436c.312.618 1.143 1.21 1.846 1.323l4.146.668c2.652.429 3.276 2.294 1.365 4.134l-3.224 3.125c-.546.53-.845 1.55-.676 2.28l.923 3.87c.728 3.062-.949 4.247-3.743 2.646l-3.887-2.23c-.702-.404-1.859-.404-2.574 0l-3.886 2.23c-2.782 1.6-4.472.403-3.744-2.646l.923-3.87c.169-.73-.13-1.75-.676-2.28l-3.224-3.125c-1.897-1.84-1.286-3.705 1.365-4.134l4.147-.668c.689-.113 1.52-.705 1.833-1.323l2.287-4.436c1.248-2.407 3.276-2.407 4.51 0z" stroke="#3AB292" stroke-width="3" stroke-linecap="round" stroke-linejoin="round"/></svg>