<svg width="658" height="635" fill="none" xmlns="http://www.w3.org/2000/svg"><rect y="336.147" width="313" height="298" rx="35" fill="#ECEBEF"/><rect y="336.147" width="313" height="298" rx="35" fill="url(#paint0_linear)"/><path d="M424 117.147c0-16.568 13.431-30 30-30h100c16.569 0 30 13.432 30 30v90c0 16.569-13.431 30-30 30H454c-16.569 0-30-13.431-30-30v-90z" fill="#E0DFE4"/><g filter="url(#filter0_d)"><path d="M150.862 30.148h193.826c16.568 0 30 13.43 30 30v192.665c0 18.701 15.161 33.862 33.862 33.862H578c16.569 0 30 13.431 30 30v170.61c0 18.702-15.161 33.862-33.862 33.862H393.08c-16.568 0-30-13.431-30-30v-170.61c0-18.702-15.16-33.862-33.862-33.862H147c-16.569 0-30-13.432-30-30V64.009c0-18.701 15.161-33.861 33.862-33.861z" fill="#F3F0F3"/><path d="M150.862 30.148h193.826c16.568 0 30 13.43 30 30v192.665c0 18.701 15.161 33.862 33.862 33.862H578c16.569 0 30 13.431 30 30v170.61c0 18.702-15.161 33.862-33.862 33.862H393.08c-16.568 0-30-13.431-30-30v-170.61c0-18.702-15.16-33.862-33.862-33.862H147c-16.569 0-30-13.432-30-30V64.009c0-18.701 15.161-33.861 33.862-33.861z" fill="url(#paint1_linear)"/></g><defs><linearGradient id="paint0_linear" x1="35" y1="282.647" x2="420.071" y2="506.443" gradientUnits="userSpaceOnUse"><stop stop-color="#CC283C"/><stop offset="1" stop-color="#CC284F"/></linearGradient><linearGradient id="paint1_linear" x1="150" y1="-87.353" x2="768.677" y2="234.469" gradientUnits="userSpaceOnUse"><stop stop-color="#CC283C"/><stop offset="1" stop-color="#CC284F"/></linearGradient><linearGradient id="paint2_linear" x1="150" y1="-87.353" x2="768.677" y2="234.469" gradientUnits="userSpaceOnUse"><stop stop-color="#CC283C"/><stop offset="1" stop-color="#CC284F"/></linearGradient><filter id="filter0_d" x="87" y=".147" width="571" height="571" filterUnits="userSpaceOnUse" color-interpolation-filters="sRGB"><feFlood flood-opacity="0" result="BackgroundImageFix"/><feColorMatrix in="SourceAlpha" values="0 0 0 0 0 0 0 0 0 0 0 0 0 0 0 0 0 0 127 0" result="hardAlpha"/><feOffset dx="10" dy="10"/><feGaussianBlur stdDeviation="20"/><feColorMatrix values="0 0 0 0 0.898039 0 0 0 0 0.152941 0 0 0 0 0.152941 0 0 0 0.1 0"/><feBlend in2="BackgroundImageFix" result="effect1_dropShadow"/><feBlend in="SourceGraphic" in2="effect1_dropShadow" result="shape"/></filter></defs></svg>