<svg width="29" height="27" fill="none" xmlns="http://www.w3.org/2000/svg"><path d="M25.111 8.432c0 .567-.04 1.12-.108 1.647a5.014 5.014 0 00-2.011-.419 4.991 4.991 0 00-4.01 2.012A5.037 5.037 0 0014.96 9.66c-2.767 0-5.008 2.255-5.008 5.05 0 3.618 1.917 6.385 4.05 8.262-.068.04-.135.054-.203.08-.405.15-1.08.15-1.485 0C8.817 21.853 1 16.884 1 8.433c0-3.726 2.997-6.737 6.696-6.737 2.2 0 4.145 1.053 5.36 2.687a6.692 6.692 0 015.36-2.687c3.698 0 6.695 3.01 6.695 6.737z" stroke="#CC2849" stroke-width="1.9" stroke-linecap="round" stroke-linejoin="round"/><path d="M28 14.71c0 6.317-5.845 10.043-8.464 10.934-.31.108-.81.108-1.12 0-1.122-.378-2.836-1.282-4.415-2.673-2.133-1.876-4.05-4.644-4.05-8.262 0-2.794 2.24-5.049 5.008-5.049 1.647 0 3.105.797 4.023 2.012a4.992 4.992 0 014.01-2.012c.715 0 1.39.149 2.011.419A5.042 5.042 0 0128 14.709z" stroke="#CC2849" stroke-width="1.9" stroke-linecap="round" stroke-linejoin="round"/></svg>