<svg width="50" height="50" fill="none" xmlns="http://www.w3.org/2000/svg"><path d="M0 20C0 8.954 8.954 0 20 0h30v30c0 11.046-8.954 20-20 20H0V20z" fill="#AF0F2D"/><path d="M25.446 23.514a.952.952 0 00-.239 0 3.251 3.251 0 01-3.143-3.252c0-1.8 1.453-3.262 3.262-3.262 1.8 0 3.263 1.462 3.263 3.262a3.258 3.258 0 01-3.143 3.252zm6.582 6.564c-.252 2.015-4.118 2.606-6.703 2.606-2.586 0-6.129-.591-6.703-2.606-.276-.965.696-1.85 1.76-2.566 2.725-1.81 7.18-1.81 9.885 0 1.065.716 1.831 1.678 1.76 2.566z" fill="#fff" stroke="#fff" stroke-width="1.5" stroke-linecap="round" stroke-linejoin="round"/></svg>