<svg width="268" height="267" viewBox="0 0 268 267" fill="none" xmlns="http://www.w3.org/2000/svg">
<ellipse cx="130.935" cy="131.235" rx="130.935" ry="131.235" fill="#D0CFD3"/>
<mask id="mask0_1000_36896" style="mask-type:alpha" maskUnits="userSpaceOnUse" x="0" y="0" width="262" height="263">
<ellipse cx="130.935" cy="131.235" rx="130.935" ry="131.235" fill="#C4C4CA"/>
</mask>
<g mask="url(#mask0_1000_36896)">
<g opacity="0.2">
<path d="M249.059 62.4336V70.673H282.634" stroke="#263238" stroke-width="0.630669" stroke-linecap="round" stroke-linejoin="round"/>
<path d="M265.529 72.5742V82.0776H244.621" stroke="#263238" stroke-width="0.630669" stroke-linecap="round" stroke-linejoin="round"/>
<path d="M249.695 85.2422V92.8449H276.932" stroke="#263238" stroke-width="0.630669" stroke-linecap="round" stroke-linejoin="round"/>
<path d="M228.852 0.304688V8.53463H262.427" stroke="#263238" stroke-width="0.630669" stroke-linecap="round" stroke-linejoin="round"/>
<path d="M245.318 10.4375V19.9409H224.41" stroke="#263238" stroke-width="0.630669" stroke-linecap="round" stroke-linejoin="round"/>
<path d="M229.477 23.1133V30.716H256.723" stroke="#263238" stroke-width="0.630669" stroke-linecap="round" stroke-linejoin="round"/>
<path d="M254.188 20.5781H269.393" stroke="#263238" stroke-width="0.630669" stroke-linecap="round" stroke-linejoin="round"/>
<path d="M245.32 34.5195V45.2869" stroke="#263238" stroke-width="0.630669" stroke-linecap="round" stroke-linejoin="round"/>
<path d="M130.016 208.746V216.986H163.591" stroke="#263238" stroke-width="0.630669" stroke-linecap="round" stroke-linejoin="round"/>
<path d="M146.486 218.887V228.39H125.578" stroke="#263238" stroke-width="0.630669" stroke-linecap="round" stroke-linejoin="round"/>
<path d="M130.641 231.551V239.154H157.887" stroke="#263238" stroke-width="0.630669" stroke-linecap="round" stroke-linejoin="round"/>
<path d="M155.352 229.016H170.557" stroke="#263238" stroke-width="0.630669" stroke-linecap="round" stroke-linejoin="round"/>
<path d="M146.484 242.957V253.724" stroke="#263238" stroke-width="0.630669" stroke-linecap="round" stroke-linejoin="round"/>
<path d="M167.391 215.71V207.48" stroke="#263238" stroke-width="0.630669" stroke-linecap="round" stroke-linejoin="round"/>
<path d="M147.746 204.945V196.078" stroke="#263238" stroke-width="0.630669" stroke-linecap="round" stroke-linejoin="round"/>
<path d="M159.152 206.207H178.796" stroke="#263238" stroke-width="0.630669" stroke-linecap="round" stroke-linejoin="round"/>
<path d="M-17.6094 196.078V203.681H9.63688" stroke="#263238" stroke-width="0.630669" stroke-linecap="round" stroke-linejoin="round"/>
<path d="M7.09766 193.539H22.3031" stroke="#263238" stroke-width="0.630669" stroke-linecap="round" stroke-linejoin="round"/>
<path d="M19.1406 180.236V171.996" stroke="#263238" stroke-width="0.630669" stroke-linecap="round" stroke-linejoin="round"/>
<path d="M10.8984 170.73H30.542" stroke="#263238" stroke-width="0.630669" stroke-linecap="round" stroke-linejoin="round"/>
<path d="M169.293 231.551V239.79H202.868" stroke="#263238" stroke-width="0.630669" stroke-linecap="round" stroke-linejoin="round"/>
<path d="M185.763 241.691V251.195H164.855" stroke="#263238" stroke-width="0.630669" stroke-linecap="round" stroke-linejoin="round"/>
<path d="M169.93 254.359V261.962H197.166" stroke="#263238" stroke-width="0.630669" stroke-linecap="round" stroke-linejoin="round"/>
<path d="M194.641 251.824H209.846" stroke="#263238" stroke-width="0.630669" stroke-linecap="round" stroke-linejoin="round"/>
<path d="M206.668 238.519V230.289" stroke="#263238" stroke-width="0.630669" stroke-linecap="round" stroke-linejoin="round"/>
<path d="M187.035 227.753V218.887" stroke="#263238" stroke-width="0.630669" stroke-linecap="round" stroke-linejoin="round"/>
<path d="M198.438 229.016H218.072" stroke="#263238" stroke-width="0.630669" stroke-linecap="round" stroke-linejoin="round"/>
<path d="M46.3828 231.551V239.79H79.9583" stroke="#263238" stroke-width="0.630669" stroke-linecap="round" stroke-linejoin="round"/>
<path d="M62.8528 241.691V251.195H41.9453" stroke="#263238" stroke-width="0.630669" stroke-linecap="round" stroke-linejoin="round"/>
<path d="M47.0117 254.359V261.962H74.2579" stroke="#263238" stroke-width="0.630669" stroke-linecap="round" stroke-linejoin="round"/>
<path d="M71.7227 251.824H86.9281" stroke="#263238" stroke-width="0.630669" stroke-linecap="round" stroke-linejoin="round"/>
<path d="M83.7617 238.519V230.289" stroke="#263238" stroke-width="0.630669" stroke-linecap="round" stroke-linejoin="round"/>
<path d="M64.1172 227.753V218.887" stroke="#263238" stroke-width="0.630669" stroke-linecap="round" stroke-linejoin="round"/>
<path d="M75.5234 229.016H95.167" stroke="#263238" stroke-width="0.630669" stroke-linecap="round" stroke-linejoin="round"/>
<path d="M-11.9102 87.7383H7.73337" stroke="#263238" stroke-width="0.630669" stroke-linecap="round" stroke-linejoin="round"/>
<path d="M14.0742 14.875V23.1144H47.6497" stroke="#263238" stroke-width="0.630669" stroke-linecap="round" stroke-linejoin="round"/>
<path d="M30.5442 25.0156V34.519H9.63672" stroke="#263238" stroke-width="0.630669" stroke-linecap="round" stroke-linejoin="round"/>
<path d="M14.6992 37.6836V45.2863H41.9455" stroke="#263238" stroke-width="0.630669" stroke-linecap="round" stroke-linejoin="round"/>
<path d="M39.4102 35.1445H54.6156" stroke="#263238" stroke-width="0.630669" stroke-linecap="round" stroke-linejoin="round"/>
<path d="M30.543 49.0859V59.8533" stroke="#263238" stroke-width="0.630669" stroke-linecap="round" stroke-linejoin="round"/>
<path d="M51.4492 21.8432V13.6133" stroke="#263238" stroke-width="0.630669" stroke-linecap="round" stroke-linejoin="round"/>
<path d="M31.8086 11.0737V2.20703" stroke="#263238" stroke-width="0.630669" stroke-linecap="round" stroke-linejoin="round"/>
<path d="M43.2109 12.3359H62.8545" stroke="#263238" stroke-width="0.630669" stroke-linecap="round" stroke-linejoin="round"/>
<path d="M224.41 154.262V162.492H257.986" stroke="#263238" stroke-width="0.630669" stroke-linecap="round" stroke-linejoin="round"/>
<path d="M240.88 164.395V173.898H219.973" stroke="#263238" stroke-width="0.630669" stroke-linecap="round" stroke-linejoin="round"/>
<path d="M225.047 177.07V184.673H252.284" stroke="#263238" stroke-width="0.630669" stroke-linecap="round" stroke-linejoin="round"/>
<path d="M249.758 174.531H264.963" stroke="#263238" stroke-width="0.630669" stroke-linecap="round" stroke-linejoin="round"/>
<path d="M240.883 188.473V199.24" stroke="#263238" stroke-width="0.630669" stroke-linecap="round" stroke-linejoin="round"/>
<path d="M261.789 161.228V152.988" stroke="#263238" stroke-width="0.630669" stroke-linecap="round" stroke-linejoin="round"/>
<path d="M242.156 150.462V141.586" stroke="#263238" stroke-width="0.630669" stroke-linecap="round" stroke-linejoin="round"/>
<path d="M253.559 151.723H273.193" stroke="#263238" stroke-width="0.630669" stroke-linecap="round" stroke-linejoin="round"/>
</g>
</g>
<path d="M160.961 208.672C170.095 208.672 177.5 201.267 177.5 192.133C177.5 182.999 170.095 175.594 160.961 175.594C151.827 175.594 144.422 182.999 144.422 192.133C144.422 201.267 151.827 208.672 160.961 208.672Z" fill="#FBBAC5"/>
<path d="M234.034 205.518L233.613 204.819C230.051 198.83 223.509 195.209 216.616 195.554C215.717 195.575 214.84 195.701 213.953 195.873C207.667 197.162 202.176 201.815 199.862 207.859C198.519 211.428 198.098 215.476 195.551 218.297C192.244 221.966 186.672 221.999 181.753 221.802C176.835 221.605 171.251 221.685 167.956 225.307C165.888 227.606 165.21 230.897 165.327 233.992C165.7 242.195 171.389 249.607 178.655 253.312C185.921 257.017 194.508 257.444 202.487 255.938C213.702 253.811 224.369 247.739 230.865 238.296C237.326 228.794 239.045 215.825 234.034 205.518Z" fill="#FBBAC5"/>
<path d="M265.71 3.60938H106.012V163.308H265.71V3.60938Z" fill="white"/>
<path d="M265.709 163.308C265.709 162.17 265.649 99.3687 265.589 3.60946L265.709 3.72931C219.268 3.72931 164.497 3.72931 106.01 3.72931L106.19 3.54954C106.19 62.0358 106.19 116.807 106.19 163.248L106.07 163.128C201.77 163.248 264.511 163.308 265.709 163.308C264.571 163.308 201.77 163.368 106.01 163.428H105.891V163.308C105.891 116.927 105.891 62.0957 105.891 3.60946V3.42969H106.07C164.557 3.42969 219.328 3.42969 265.769 3.42969H265.889V3.54954C265.769 99.3687 265.709 162.17 265.709 163.308Z" fill="#263238"/>
<path d="M153.409 23.9225H155.147V27.2783C154.248 27.9375 152.99 28.3569 151.791 28.3569C149.214 28.3569 147.297 26.5592 147.297 24.1023C147.297 21.6454 149.214 19.8477 151.851 19.8477C153.289 19.8477 154.488 20.3271 155.327 21.2858L154.068 22.4244C153.469 21.7652 152.75 21.4656 151.911 21.4656C150.293 21.4656 149.214 22.5443 149.214 24.1023C149.214 25.6603 150.293 26.739 151.911 26.739C152.45 26.739 152.93 26.6191 153.409 26.3794V23.9225Z" fill="#BF2343"/>
<path d="M162.997 25.5422H158.203C158.383 26.3212 159.042 26.8006 160 26.8006C160.66 26.8006 161.139 26.6208 161.618 26.2014L162.577 27.28C161.978 27.9392 161.079 28.2987 159.941 28.2987C157.723 28.2987 156.285 26.9205 156.285 25.0029C156.285 23.0853 157.723 21.707 159.701 21.707C161.559 21.707 162.997 22.9654 162.997 25.0029C162.997 25.1826 162.997 25.3624 162.997 25.5422ZM158.143 24.4636H161.259C161.139 23.6845 160.54 23.1452 159.701 23.1452C158.862 23.1452 158.263 23.6246 158.143 24.4636Z" fill="#BF2343"/>
<path d="M168.33 27.8812C167.971 28.1808 167.372 28.3007 166.832 28.3007C165.334 28.3007 164.435 27.5216 164.435 26.0235V23.3868H163.477V21.9487H164.435V20.3906H166.293V21.9487H167.851V23.3868H166.293V25.9636C166.293 26.5029 166.593 26.8025 167.072 26.8025C167.372 26.8025 167.611 26.7426 167.791 26.5628L168.33 27.8812Z" fill="#BF2343"/>
<path d="M172.523 19.9093C172.523 19.3101 173.003 18.8906 173.662 18.8906C174.321 18.8906 174.801 19.3101 174.801 19.9093C174.801 20.5086 174.321 20.988 173.662 20.988C172.943 20.9281 172.523 20.5086 172.523 19.9093ZM172.763 21.8269H174.621V28.1789H172.763V21.8269Z" fill="#BF2343"/>
<path d="M182.833 24.5235V28.1789H180.975V24.8231C180.975 23.8044 180.495 23.325 179.657 23.325C178.758 23.325 178.158 23.8643 178.158 25.0628V28.2388H176.301V21.8269H178.039V22.546C178.518 22.0066 179.297 21.707 180.136 21.707C181.694 21.707 182.833 22.6059 182.833 24.5235Z" fill="#BF2343"/>
<path d="M191.94 27.8812C191.58 28.1808 190.981 28.3007 190.442 28.3007C188.944 28.3007 188.045 27.5216 188.045 26.0235V23.3868H187.086V21.9487H188.045V20.3906H189.902V21.9487H191.46V23.3868H189.902V25.9636C189.902 26.5029 190.202 26.8025 190.681 26.8025C190.981 26.8025 191.221 26.7426 191.401 26.5628L191.94 27.8812Z" fill="#BF2343"/>
<path d="M192.301 25.0029C192.301 23.0853 193.799 21.707 195.776 21.707C197.814 21.707 199.252 23.0853 199.252 25.0029C199.252 26.9205 197.814 28.2987 195.776 28.2987C193.799 28.2987 192.301 26.9205 192.301 25.0029ZM197.394 25.0029C197.394 23.9242 196.675 23.2651 195.776 23.2651C194.878 23.2651 194.158 23.9242 194.158 25.0029C194.158 26.0815 194.878 26.7407 195.776 26.7407C196.735 26.8006 197.394 26.0815 197.394 25.0029Z" fill="#BF2343"/>
<path d="M206.92 21.8255V28.1775H205.182V27.3985C204.703 27.9378 203.983 28.2375 203.204 28.2375C201.586 28.2375 200.508 27.3386 200.508 25.3611V21.7656H202.365V25.0615C202.365 26.1401 202.845 26.6195 203.684 26.6195C204.523 26.6195 205.122 26.0802 205.122 24.8817V21.8255H206.92Z" fill="#BF2343"/>
<path d="M208.18 25.0029C208.18 23.0853 209.678 21.707 211.715 21.707C213.034 21.707 214.112 22.3063 214.592 23.325L213.153 24.104C212.794 23.5048 212.314 23.2051 211.715 23.2051C210.756 23.2051 210.037 23.8643 210.037 24.9429C210.037 26.0815 210.756 26.6808 211.715 26.6808C212.314 26.6808 212.794 26.4411 213.153 25.7819L214.592 26.5609C214.112 27.5796 213.093 28.1789 211.715 28.1789C209.618 28.2987 208.18 26.9205 208.18 25.0029Z" fill="#BF2343"/>
<path d="M222.083 24.5233V28.1787H220.225V24.8229C220.225 23.8042 219.745 23.3248 218.907 23.3248C218.008 23.3248 217.408 23.8641 217.408 25.0626V28.2386H215.551V19.4297H217.408V22.4858C217.888 22.0064 218.607 21.7068 219.446 21.7068C220.944 21.7068 222.083 22.6057 222.083 24.5233Z" fill="#BF2343"/>
<path d="M228.195 34.6524C228.195 34.7124 208.66 34.8322 184.57 34.8322C160.481 34.8322 140.945 34.7723 140.945 34.6524C140.945 34.5925 160.481 34.4727 184.57 34.4727C208.72 34.4727 228.195 34.5925 228.195 34.6524Z" fill="#263238"/>
<path d="M242.338 62.1528C242.338 62.1528 242.338 61.973 242.338 61.5536C242.338 61.1341 242.338 60.5948 242.338 59.8158C242.338 58.3176 242.338 56.0405 242.278 53.1042L242.338 53.1642C224.181 53.1642 179.237 53.2241 126.744 53.284L126.923 53.1042C126.923 56.2203 126.923 59.2764 126.923 62.1528L126.744 61.973C159.043 61.973 187.926 62.033 208.72 62.033C219.147 62.033 227.536 62.0929 233.289 62.0929C236.166 62.0929 238.443 62.0929 239.941 62.0929C240.72 62.0929 241.259 62.0929 241.679 62.0929C242.098 62.1528 242.338 62.1528 242.338 62.1528C242.338 62.1528 242.158 62.1528 241.739 62.1528C241.319 62.1528 240.78 62.1528 240.001 62.1528C238.503 62.1528 236.226 62.1528 233.349 62.1528C227.537 62.1528 219.207 62.1528 208.78 62.2127C187.926 62.2127 159.043 62.2727 126.684 62.2727H126.504V62.0929C126.504 59.2165 126.504 56.1604 126.504 53.0443V52.9844H126.684C179.177 53.0443 224.061 53.0443 242.278 53.1042H242.338V53.1642C242.338 56.1004 242.338 58.3776 242.278 59.9356C242.278 60.7146 242.278 61.2539 242.278 61.6734C242.338 61.973 242.338 62.1528 242.338 62.1528Z" fill="#263238"/>
<path d="M129.44 46.7539V49.3906H128.961L127.642 47.7726V49.3906H127.043V46.7539H127.522L128.841 48.3719V46.7539H129.44Z" fill="#263238"/>
<path d="M131.836 48.2504V49.389H131.296V49.1493C131.176 49.3291 130.997 49.4489 130.697 49.4489C130.218 49.4489 129.918 49.2092 129.918 48.8497C129.918 48.4901 130.158 48.2504 130.757 48.2504H131.236C131.236 48.0107 131.057 47.831 130.757 47.831C130.517 47.831 130.337 47.8909 130.158 48.0107L129.918 47.5913C130.158 47.4115 130.457 47.3516 130.817 47.3516C131.476 47.3516 131.836 47.6512 131.836 48.2504ZM131.236 48.7298V48.5501H130.817C130.517 48.5501 130.457 48.6699 130.457 48.7897C130.457 48.9096 130.577 49.0294 130.817 49.0294C130.997 49.0294 131.176 48.9096 131.236 48.7298Z" fill="#263238"/>
<path d="M135.731 48.2504V49.389H135.132V48.3104C135.132 48.0107 135.012 47.831 134.772 47.831C134.532 47.831 134.352 48.0107 134.352 48.3703V49.389H133.753V48.3104C133.753 48.0107 133.633 47.831 133.394 47.831C133.154 47.831 132.974 48.0107 132.974 48.3703V49.389H132.375V47.3516H132.914V47.5913C133.094 47.4115 133.274 47.3516 133.573 47.3516C133.873 47.3516 134.113 47.4714 134.233 47.7111C134.412 47.5313 134.652 47.3516 134.952 47.3516C135.431 47.3516 135.731 47.5913 135.731 48.2504Z" fill="#263238"/>
<path d="M138.25 48.5526H136.752C136.812 48.7923 137.051 48.9721 137.351 48.9721C137.591 48.9721 137.71 48.9122 137.83 48.7923L138.13 49.1519C137.95 49.3916 137.65 49.4515 137.291 49.4515C136.572 49.4515 136.152 49.032 136.152 48.4328C136.152 47.8335 136.632 47.4141 137.231 47.4141C137.83 47.4141 138.31 47.8335 138.31 48.4328C138.31 48.4328 138.25 48.4927 138.25 48.5526ZM136.752 48.1931H137.77C137.71 47.9534 137.531 47.7736 137.291 47.7736C136.991 47.7736 136.752 47.9534 136.752 48.1931Z" fill="#263238"/>
<path d="M242.338 84.7479C242.338 84.7479 242.338 84.5681 242.338 84.1486C242.338 83.7292 242.338 83.1899 242.338 82.4108C242.338 80.9127 242.338 78.6356 242.278 75.6993L242.338 75.7592C224.181 75.7592 179.237 75.8191 126.744 75.8791L126.923 75.6993C126.923 78.8154 126.923 81.8715 126.923 84.7479L126.744 84.5681C159.043 84.5681 187.926 84.628 208.72 84.628C219.147 84.628 227.536 84.688 233.289 84.688C236.166 84.688 238.443 84.688 239.941 84.688C240.72 84.688 241.259 84.688 241.679 84.688C242.098 84.7479 242.338 84.7479 242.338 84.7479C242.338 84.7479 242.158 84.7479 241.739 84.7479C241.319 84.7479 240.78 84.7479 240.001 84.7479C238.503 84.7479 236.226 84.7479 233.349 84.7479C227.537 84.7479 219.207 84.7479 208.78 84.8078C187.926 84.8078 159.043 84.8677 126.684 84.8677H126.504V84.7479C126.504 81.8715 126.504 78.8154 126.504 75.6993V75.5195H126.684C179.177 75.5795 224.061 75.5795 242.278 75.6394H242.338V75.6993C242.338 78.6356 242.338 80.9127 242.278 82.4708C242.278 83.2498 242.278 83.7891 242.278 84.2086C242.338 84.5681 242.338 84.7479 242.338 84.7479Z" fill="#263238"/>
<path d="M242.337 130.048C242.337 130.048 242.337 129.809 242.337 129.449C242.337 129.03 242.337 128.43 242.337 127.651C242.337 126.033 242.337 123.696 242.337 120.7C242.337 114.648 242.277 105.779 242.277 94.5731L242.396 94.6929C215.191 94.6929 173.483 94.7528 126.802 94.7528L126.982 94.5731C126.982 106.858 126.982 118.842 126.982 130.108L126.802 129.928C160 129.928 188.884 129.988 209.438 129.988C219.745 129.988 227.955 130.048 233.647 130.048C236.464 130.048 238.681 130.048 240.119 130.048C240.838 130.048 241.438 130.048 241.797 130.048C242.097 130.048 242.337 130.048 242.337 130.048C242.337 130.048 242.157 130.048 241.797 130.048C241.438 130.048 240.838 130.048 240.119 130.048C238.621 130.048 236.464 130.048 233.647 130.048C228.015 130.048 219.805 130.048 209.498 130.108C188.884 130.108 160 130.168 126.742 130.168H126.562V129.988C126.562 118.723 126.562 106.738 126.562 94.4532V94.2734H126.742C173.423 94.2734 215.131 94.3334 242.337 94.3334H242.456V94.4532C242.456 105.659 242.396 114.528 242.396 120.64C242.396 123.696 242.396 126.033 242.396 127.591C242.396 128.37 242.396 128.97 242.396 129.389C242.337 129.869 242.337 130.048 242.337 130.048Z" fill="#263238"/>
<path d="M129.08 71.4424V71.9218H127.043V69.2852H129.02V69.7646H127.642V70.3638H128.841V70.8432H127.642V71.4424H129.08Z" fill="#263238"/>
<path d="M132.914 70.7856V71.9242H132.315V70.8455C132.315 70.5459 132.195 70.3661 131.956 70.3661C131.716 70.3661 131.536 70.5459 131.536 70.9054V71.9242H130.937V70.8455C130.937 70.5459 130.817 70.3661 130.577 70.3661C130.338 70.3661 130.158 70.5459 130.158 70.9054V71.9242H129.559V69.8867H130.098V70.1264C130.278 69.9466 130.457 69.8867 130.757 69.8867C131.057 69.8867 131.296 70.0066 131.416 70.2463C131.596 70.0665 131.836 69.8867 132.135 69.8867C132.615 69.8867 132.914 70.1863 132.914 70.7856Z" fill="#263238"/>
<path d="M135.254 70.7856V71.9242H134.714V71.6845C134.594 71.8642 134.415 71.9841 134.115 71.9841C133.636 71.9841 133.336 71.7444 133.336 71.3848C133.336 71.0253 133.576 70.7856 134.175 70.7856H134.654C134.654 70.5459 134.475 70.3661 134.175 70.3661C133.935 70.3661 133.755 70.426 133.576 70.5459L133.336 70.1264C133.576 69.9466 133.875 69.8867 134.235 69.8867C134.894 69.8867 135.254 70.1863 135.254 70.7856ZM134.654 71.3249V71.1451H134.235C133.935 71.1451 133.875 71.265 133.875 71.3848C133.875 71.5047 133.995 71.6245 134.235 71.6245C134.415 71.5646 134.594 71.5047 134.654 71.3249Z" fill="#263238"/>
<path d="M135.672 69.3465C135.672 69.1667 135.792 69.0469 136.031 69.0469C136.271 69.0469 136.391 69.1667 136.391 69.3465C136.391 69.5263 136.271 69.706 136.031 69.706C135.852 69.6461 135.672 69.5263 135.672 69.3465ZM135.792 69.9457H136.391V71.9832H135.792V69.9457Z" fill="#263238"/>
<path d="M136.871 69.168H137.47V71.9245H136.871V69.168Z" fill="#263238"/>
<path d="M140.886 70.7856V71.9242H140.347V71.6845C140.227 71.8642 140.047 71.9841 139.748 71.9841C139.268 71.9841 138.969 71.7444 138.969 71.3848C138.969 71.0253 139.208 70.7856 139.808 70.7856H140.287C140.287 70.5459 140.107 70.3661 139.808 70.3661C139.568 70.3661 139.388 70.426 139.208 70.5459L138.969 70.1264C139.208 69.9466 139.508 69.8867 139.868 69.8867C140.527 69.8867 140.886 70.1863 140.886 70.7856ZM140.287 71.3249V71.1451H139.868C139.568 71.1451 139.508 71.265 139.508 71.3848C139.508 71.5047 139.628 71.6245 139.868 71.6245C140.047 71.5646 140.227 71.5047 140.287 71.3249Z" fill="#263238"/>
<path d="M143.463 69.168V71.9245H142.924V71.6848C142.804 71.8646 142.564 71.9245 142.265 71.9245C141.666 71.9245 141.246 71.505 141.246 70.9058C141.246 70.2466 141.666 69.8871 142.265 69.8871C142.505 69.8871 142.744 69.947 142.864 70.1268V69.168H143.463ZM142.924 70.9657C142.924 70.6062 142.684 70.4264 142.385 70.4264C142.085 70.4264 141.845 70.6661 141.845 70.9657C141.845 71.3252 142.085 71.505 142.385 71.505C142.684 71.505 142.924 71.2653 142.924 70.9657Z" fill="#263238"/>
<path d="M146.038 69.168V71.9245H145.498V71.6848C145.378 71.8646 145.139 71.9245 144.839 71.9245C144.24 71.9245 143.82 71.505 143.82 70.9058C143.82 70.2466 144.24 69.8871 144.839 69.8871C145.079 69.8871 145.318 69.947 145.438 70.1268V69.168H146.038ZM145.498 70.9657C145.498 70.6062 145.259 70.4264 144.959 70.4264C144.659 70.4264 144.42 70.6661 144.42 70.9657C144.42 71.3252 144.659 71.505 144.959 71.505C145.259 71.505 145.498 71.2653 145.498 70.9657Z" fill="#263238"/>
<path d="M147.837 69.8867V70.426C147.777 70.426 147.777 70.426 147.717 70.426C147.417 70.426 147.177 70.6058 147.177 70.9654V71.9242H146.578V69.8867H147.117V70.1264C147.297 70.0066 147.537 69.8867 147.837 69.8867Z" fill="#263238"/>
<path d="M150.175 71.0839H148.677C148.737 71.3236 148.977 71.5033 149.277 71.5033C149.516 71.5033 149.636 71.4434 149.756 71.3236L150.056 71.6831C149.876 71.9228 149.576 71.9827 149.217 71.9827C148.498 71.9827 148.078 71.5633 148.078 70.964C148.078 70.3648 148.558 69.9453 149.157 69.9453C149.756 69.9453 150.235 70.3648 150.235 70.964C150.175 70.964 150.175 71.0239 150.175 71.0839ZM148.617 70.7843H149.636C149.576 70.5446 149.396 70.3648 149.157 70.3648C148.857 70.3648 148.677 70.4846 148.617 70.7843Z" fill="#263238"/>
<path d="M150.352 71.7444L150.531 71.3249C150.711 71.4448 151.011 71.5047 151.25 71.5047C151.55 71.5047 151.61 71.4448 151.61 71.3249C151.61 70.9654 150.411 71.3249 150.411 70.5459C150.411 70.1863 150.771 69.8867 151.37 69.8867C151.67 69.8867 151.97 69.9466 152.149 70.0665L151.97 70.486C151.79 70.3661 151.55 70.3062 151.37 70.3062C151.131 70.3062 151.011 70.3661 151.011 70.486C151.011 70.8455 152.209 70.486 152.209 71.265C152.209 71.6245 151.85 71.9242 151.25 71.9242C150.891 71.9841 150.531 71.8642 150.352 71.7444Z" fill="#263238"/>
<path d="M152.332 71.7444L152.512 71.3249C152.692 71.4448 152.991 71.5047 153.231 71.5047C153.531 71.5047 153.59 71.4448 153.59 71.3249C153.59 70.9654 152.392 71.3249 152.392 70.5459C152.392 70.1863 152.752 69.8867 153.351 69.8867C153.65 69.8867 153.95 69.9466 154.13 70.0665L153.95 70.486C153.77 70.3661 153.531 70.3062 153.351 70.3062C153.111 70.3062 152.991 70.3661 152.991 70.486C152.991 70.8455 154.19 70.486 154.19 71.265C154.19 71.6245 153.83 71.9242 153.231 71.9242C152.871 71.9841 152.512 71.8642 152.332 71.7444Z" fill="#263238"/>
<path d="M129.441 91.5781V90.02L128.662 91.3384H128.363L127.584 90.08V91.638H126.984V88.9414H127.464L128.423 90.5594L129.381 88.9414H129.861V91.5781H129.441Z" fill="#263238"/>
<path d="M132.558 90.7401H131.06C131.12 90.9798 131.36 91.1596 131.659 91.1596C131.899 91.1596 132.019 91.0997 132.139 90.9798L132.438 91.3394C132.259 91.5791 131.959 91.639 131.6 91.639C130.88 91.639 130.461 91.2195 130.461 90.6203C130.461 90.021 130.94 89.6016 131.54 89.6016C132.139 89.6016 132.618 90.021 132.618 90.6203C132.558 90.6203 132.558 90.6802 132.558 90.7401ZM131 90.3806H132.019C131.959 90.1409 131.779 89.9611 131.54 89.9611C131.24 89.9611 131.06 90.1409 131 90.3806Z" fill="#263238"/>
<path d="M132.738 91.3967L132.918 90.9772C133.098 91.0971 133.397 91.157 133.637 91.157C133.937 91.157 133.997 91.0971 133.997 90.9772C133.997 90.6177 132.798 90.9773 132.798 90.1982C132.798 89.8387 133.158 89.5391 133.757 89.5391C134.057 89.5391 134.356 89.599 134.536 89.7188L134.356 90.1383C134.176 90.0185 133.937 89.9585 133.757 89.9585C133.517 89.9585 133.397 90.0185 133.397 90.1383C133.397 90.4979 134.596 90.1383 134.596 90.9173C134.596 91.2769 134.236 91.5765 133.637 91.5765C133.278 91.5765 132.978 91.5166 132.738 91.3967Z" fill="#263238"/>
<path d="M134.773 91.3967L134.953 90.9772C135.133 91.0971 135.433 91.157 135.672 91.157C135.972 91.157 136.032 91.0971 136.032 90.9772C136.032 90.6177 134.833 90.9773 134.833 90.1982C134.833 89.8387 135.193 89.5391 135.792 89.5391C136.092 89.5391 136.391 89.599 136.571 89.7188L136.391 90.1383C136.212 90.0185 135.972 89.9585 135.792 89.9585C135.552 89.9585 135.433 90.0185 135.433 90.1383C135.433 90.4979 136.631 90.1383 136.631 90.9173C136.631 91.2769 136.272 91.5765 135.672 91.5765C135.253 91.5765 134.953 91.5166 134.773 91.3967Z" fill="#263238"/>
<path d="M138.73 90.4379V91.5765H138.191V91.3368C138.071 91.5166 137.891 91.6364 137.592 91.6364C137.112 91.6364 136.812 91.3967 136.812 91.0372C136.812 90.6776 137.052 90.4379 137.651 90.4379H138.131C138.131 90.1982 137.951 90.0185 137.651 90.0185C137.412 90.0185 137.232 90.0784 137.052 90.1982L136.812 89.7788C137.052 89.599 137.352 89.5391 137.711 89.5391C138.371 89.5391 138.73 89.7788 138.73 90.4379ZM138.131 90.9173V90.7376H137.711C137.412 90.7376 137.352 90.8574 137.352 90.9772C137.352 91.0971 137.472 91.2169 137.711 91.2169C137.891 91.2169 138.071 91.0971 138.131 90.9173Z" fill="#263238"/>
<path d="M141.367 89.5391V91.2169C141.367 91.996 140.947 92.2956 140.228 92.2956C139.869 92.2956 139.449 92.1757 139.21 91.996L139.449 91.5765C139.629 91.6963 139.929 91.8162 140.168 91.8162C140.588 91.8162 140.768 91.6364 140.768 91.2769V91.2169C140.588 91.3967 140.408 91.4566 140.109 91.4566C139.569 91.4566 139.09 91.0971 139.09 90.4979C139.09 89.8986 139.569 89.5391 140.109 89.5391C140.408 89.5391 140.648 89.6589 140.768 89.8387V89.5391H141.367ZM140.768 90.4979C140.768 90.1982 140.528 90.0185 140.228 90.0185C139.929 90.0185 139.689 90.1982 139.689 90.4979C139.689 90.7975 139.929 90.9772 140.228 90.9772C140.528 90.9772 140.768 90.7975 140.768 90.4979Z" fill="#263238"/>
<path d="M143.883 90.7401H142.384C142.444 90.9798 142.684 91.1596 142.984 91.1596C143.223 91.1596 143.343 91.0997 143.463 90.9798L143.763 91.3394C143.583 91.5791 143.283 91.639 142.924 91.639C142.205 91.639 141.785 91.2195 141.785 90.6203C141.785 90.021 142.265 89.6016 142.864 89.6016C143.463 89.6016 143.942 90.021 143.942 90.6203C143.883 90.6203 143.883 90.6802 143.883 90.7401ZM142.324 90.3806H143.343C143.283 90.1409 143.103 89.9611 142.864 89.9611C142.564 89.9611 142.384 90.1409 142.324 90.3806Z" fill="#263238"/>
<path d="M235.748 151.864H205.666C201.651 151.864 198.355 148.568 198.355 144.553C198.355 140.538 201.651 137.242 205.666 137.242H235.748C239.763 137.242 243.059 140.538 243.059 144.553C243.059 148.568 239.823 151.864 235.748 151.864Z" fill="#BF2343"/>
<path d="M214.113 145.692L214.413 145.092C214.713 145.332 215.132 145.452 215.611 145.452C216.091 145.452 216.271 145.272 216.271 145.092C216.271 144.433 214.233 144.913 214.233 143.594C214.233 142.995 214.713 142.516 215.731 142.516C216.151 142.516 216.63 142.635 216.99 142.815L216.75 143.414C216.39 143.235 216.091 143.115 215.791 143.115C215.312 143.115 215.132 143.295 215.132 143.534C215.132 144.194 217.169 143.714 217.169 145.032C217.169 145.632 216.69 146.111 215.671 146.111C215.012 146.111 214.413 145.931 214.113 145.692Z" fill="white"/>
<path d="M220.224 144.914H218.187C218.247 145.273 218.546 145.453 218.966 145.453C219.265 145.453 219.445 145.393 219.625 145.213L220.044 145.693C219.805 145.992 219.385 146.112 218.906 146.112C217.947 146.112 217.348 145.513 217.348 144.734C217.348 143.895 217.947 143.355 218.786 143.355C219.565 143.355 220.224 143.895 220.224 144.794C220.224 144.734 220.224 144.854 220.224 144.914ZM218.187 144.434H219.505C219.445 144.075 219.205 143.895 218.846 143.895C218.486 143.895 218.247 144.075 218.187 144.434Z" fill="white"/>
<path d="M223.581 144.493V146.051H222.802V144.613C222.802 144.193 222.622 143.953 222.262 143.953C221.903 143.953 221.603 144.193 221.603 144.673V146.051H220.824V143.294H221.603V143.594C221.843 143.354 222.143 143.234 222.502 143.234C223.101 143.294 223.581 143.654 223.581 144.493Z" fill="white"/>
<path d="M227.117 142.277V146.053H226.338V145.753C226.159 145.993 225.859 146.113 225.499 146.113C224.72 146.113 224.121 145.573 224.121 144.734C224.121 143.895 224.72 143.356 225.499 143.356C225.859 143.356 226.099 143.476 226.338 143.716V142.277H227.117ZM226.338 144.674C226.338 144.195 226.039 143.895 225.619 143.895C225.2 143.895 224.9 144.195 224.9 144.674C224.9 145.154 225.2 145.453 225.619 145.453C226.039 145.453 226.338 145.154 226.338 144.674Z" fill="white"/>
<path d="M125.906 16.1946C125.906 16.2545 125.426 16.0747 124.527 16.1347C123.629 16.1946 122.31 16.4343 121.112 17.5129C120.512 18.0522 119.973 18.7114 119.614 19.5503C119.254 20.3893 119.074 21.408 119.254 22.4267C119.314 22.966 119.494 23.4454 119.674 23.9248C119.913 24.4042 120.213 24.8836 120.572 25.3031C121.291 26.142 122.37 26.7413 123.509 27.0409C124.647 27.2806 125.906 27.1607 126.924 26.6814C127.464 26.4417 127.883 26.142 128.303 25.7825C128.722 25.4229 129.082 25.0035 129.321 24.584C129.861 23.7451 130.16 22.7263 130.16 21.8275C130.22 20.9286 129.981 20.0297 129.681 19.3106C129.022 17.8725 127.943 17.0335 127.164 16.674C126.385 16.3144 125.906 16.1946 125.906 16.1946C125.906 16.1946 126.385 16.2545 127.224 16.6141C128.003 16.9736 129.201 17.8125 129.861 19.3106C130.22 20.0297 130.46 20.9286 130.4 21.8874C130.34 22.8462 130.1 23.8649 129.501 24.8237C129.202 25.3031 128.842 25.7226 128.422 26.0821C128.003 26.4417 127.524 26.8012 126.984 27.0409C125.906 27.5203 124.647 27.7001 123.389 27.4004C122.19 27.1008 121.052 26.4417 120.273 25.5428C119.853 25.1233 119.554 24.584 119.314 24.1046C119.074 23.5653 118.954 23.026 118.835 22.4866C118.655 21.408 118.894 20.3893 119.254 19.4904C119.614 18.5916 120.213 17.8725 120.812 17.3931C122.07 16.3144 123.449 16.0747 124.348 16.0747C125.426 16.0148 125.906 16.1946 125.906 16.1946Z" fill="#BF2343"/>
<path d="M122.79 16.4348C122.85 16.3749 124.108 18.5921 125.487 21.2887C126.925 23.9853 128.003 26.2624 127.943 26.2624C127.883 26.3223 126.685 24.1051 125.247 21.4085C123.809 18.7119 122.67 16.4947 122.79 16.4348Z" fill="#BF2343"/>
<path d="M123.927 16.1341C123.987 16.0741 125.185 18.1715 126.564 20.8082C127.942 23.4448 128.961 25.6021 128.901 25.6621C128.841 25.722 127.642 23.6246 126.264 20.9879C124.886 18.2913 123.807 16.1341 123.927 16.1341Z" fill="#BF2343"/>
<path d="M125.248 16.1342C125.308 16.0743 126.387 17.932 127.585 20.269C128.784 22.6061 129.683 24.4637 129.623 24.5236C129.563 24.5836 128.484 22.7259 127.286 20.3889C126.087 18.0518 125.129 16.1941 125.248 16.1342Z" fill="#BF2343"/>
<path d="M126.685 16.3728C126.745 16.3129 127.584 17.811 128.602 19.6687C129.561 21.5263 130.28 23.0844 130.22 23.0844C130.161 23.1443 129.322 21.6462 128.303 19.7885C127.284 17.9309 126.565 16.3728 126.685 16.3728Z" fill="#BF2343"/>
<path d="M121.713 17.0949C121.773 17.035 123.032 19.2522 124.41 21.9488C125.848 24.6454 126.927 26.9225 126.867 26.9225C126.807 26.9825 125.608 24.7653 124.17 22.0687C122.732 19.3721 121.653 17.1549 121.713 17.0949Z" fill="#BF2343"/>
<path d="M120.69 17.7512C120.75 17.6913 122.008 19.9085 123.386 22.6051C124.825 25.3017 125.903 27.5788 125.843 27.5788C125.783 27.6387 124.585 25.4215 123.147 22.7249C121.709 20.0283 120.63 17.8111 120.69 17.7512Z" fill="#BF2343"/>
<path d="M119.912 18.8295C119.972 18.7696 121.051 20.6872 122.25 23.0242C123.448 25.3613 124.407 27.2788 124.347 27.3388C124.287 27.3987 123.208 25.4811 122.01 23.1441C120.751 20.807 119.793 18.8295 119.912 18.8295Z" fill="#BF2343"/>
<path d="M119.253 20.2713C119.313 20.2113 120.152 21.7095 121.111 23.5671C122.07 25.4248 122.789 26.9229 122.729 26.9828C122.669 27.0427 121.83 25.5446 120.871 23.687C119.913 21.8293 119.194 20.3312 119.253 20.2713Z" fill="#BF2343"/>
<path d="M170.011 144.551C169.951 144.551 169.771 144.132 169.172 143.473C168.573 142.813 167.554 141.974 165.936 141.735C165.157 141.615 164.258 141.615 163.419 141.914C162.52 142.214 161.681 142.694 160.962 143.473C160.603 143.832 160.303 144.311 160.063 144.791C159.824 145.27 159.644 145.81 159.584 146.349C159.404 147.428 159.584 148.626 160.123 149.705C160.663 150.783 161.561 151.622 162.52 152.102C163 152.341 163.539 152.521 164.078 152.641C164.618 152.761 165.157 152.761 165.636 152.701C166.655 152.581 167.614 152.162 168.333 151.622C169.052 151.083 169.591 150.364 169.951 149.645C170.67 148.207 170.61 146.888 170.43 145.989C170.25 144.971 170.011 144.551 170.011 144.551C170.011 144.551 170.31 144.971 170.55 145.87C170.79 146.708 170.85 148.147 170.191 149.645C169.831 150.364 169.292 151.143 168.573 151.742C167.794 152.341 166.835 152.761 165.756 152.941C165.217 153.001 164.678 153.001 164.078 152.941C163.539 152.881 162.94 152.701 162.4 152.401C161.322 151.862 160.423 150.963 159.824 149.884C159.284 148.746 159.045 147.487 159.284 146.349C159.344 145.75 159.584 145.21 159.824 144.731C160.063 144.252 160.423 143.772 160.782 143.353C161.502 142.574 162.46 142.034 163.359 141.735C164.258 141.435 165.217 141.435 165.996 141.615C167.614 141.914 168.692 142.813 169.232 143.532C169.891 144.072 170.011 144.551 170.011 144.551Z" fill="#BF2343"/>
<path d="M167.854 142.275C167.914 142.335 167.015 144.612 165.816 147.428C164.618 150.245 163.599 152.522 163.479 152.462C163.419 152.402 164.318 150.125 165.517 147.308C166.715 144.492 167.734 142.215 167.854 142.275Z" fill="#BF2343"/>
<path d="M168.812 142.935C168.872 142.995 168.033 145.212 166.835 147.968C165.696 150.725 164.678 152.882 164.558 152.882C164.498 152.822 165.337 150.605 166.535 147.849C167.734 145.092 168.752 142.875 168.812 142.935Z" fill="#BF2343"/>
<path d="M169.651 143.953C169.711 144.013 168.992 145.931 167.973 148.328C166.954 150.725 166.056 152.642 165.996 152.582C165.936 152.522 166.655 150.605 167.674 148.208C168.692 145.871 169.591 143.953 169.651 143.953Z" fill="#BF2343"/>
<path d="M170.37 145.213C170.43 145.273 169.831 146.831 169.052 148.748C168.213 150.666 167.494 152.224 167.434 152.164C167.374 152.104 167.973 150.546 168.752 148.628C169.591 146.711 170.31 145.153 170.37 145.213Z" fill="#BF2343"/>
<path d="M166.655 141.855C166.715 141.915 165.816 144.193 164.617 147.009C163.419 149.825 162.4 152.103 162.28 152.043C162.22 151.983 163.119 149.706 164.318 146.889C165.576 144.133 166.595 141.855 166.655 141.855Z" fill="#BF2343"/>
<path d="M165.518 141.496C165.578 141.556 164.679 143.833 163.481 146.65C162.282 149.466 161.263 151.743 161.143 151.683C161.084 151.623 161.982 149.346 163.181 146.53C164.379 143.713 165.458 141.496 165.518 141.496Z" fill="#BF2343"/>
<path d="M164.196 141.556C164.256 141.616 163.477 143.593 162.459 146.05C161.44 148.507 160.541 150.425 160.421 150.425C160.361 150.365 161.14 148.387 162.159 145.931C163.178 143.474 164.077 141.496 164.196 141.556Z" fill="#BF2343"/>
<path d="M162.64 141.977C162.7 142.036 162.1 143.595 161.321 145.512C160.482 147.43 159.763 148.988 159.703 148.928C159.643 148.868 160.243 147.31 161.022 145.392C161.861 143.475 162.58 141.977 162.64 141.977Z" fill="#BF2343"/>
<path d="M253.124 30.4556C253.065 30.4556 253.124 29.5567 252.765 27.9387C252.585 27.1597 252.226 26.2009 251.626 25.2421C251.027 24.2834 250.188 23.2047 249.05 22.3658C247.911 21.5268 246.413 20.7478 244.735 20.4482C243.057 20.1486 241.2 20.2085 239.402 20.9276C238.503 21.2272 237.604 21.7066 236.825 22.3059C236.406 22.6055 236.046 22.965 235.686 23.2646C235.327 23.6242 234.967 23.9837 234.668 24.4631C233.409 26.141 232.69 28.2384 232.69 30.4556C232.69 32.6728 233.409 34.7701 234.668 36.448C234.967 36.8675 235.327 37.227 235.686 37.6465C236.046 38.0061 236.406 38.3656 236.825 38.6053C237.604 39.2045 238.503 39.6839 239.402 39.9836C241.2 40.6427 243.057 40.7027 244.735 40.463C246.413 40.1633 247.851 39.4442 249.05 38.5454C250.188 37.6465 251.087 36.6278 251.626 35.669C252.226 34.7102 252.585 33.7514 252.765 32.9724C253.124 31.3544 253.065 30.4556 253.124 30.4556C253.124 30.4556 253.124 30.5155 253.124 30.6353C253.124 30.7552 253.124 30.935 253.124 31.1147C253.124 31.3544 253.124 31.5941 253.065 31.8938C253.005 32.1934 253.005 32.5529 252.885 32.9724C252.705 33.7514 252.345 34.7102 251.746 35.7289C251.147 36.7476 250.308 37.8263 249.11 38.7251C247.911 39.624 246.473 40.403 244.735 40.7027C243.057 41.0023 241.08 40.9424 239.282 40.2832C238.383 39.9836 237.484 39.5042 236.645 38.845C236.226 38.5454 235.866 38.1858 235.447 37.8263C235.087 37.4667 234.728 37.0473 234.428 36.6278C233.17 34.9499 232.391 32.7327 232.391 30.4556C232.391 28.1784 233.11 25.9612 234.428 24.2834C234.728 23.8639 235.087 23.4444 235.447 23.0849C235.806 22.7253 236.226 22.3658 236.645 22.0662C237.484 21.4669 238.383 20.9875 239.282 20.628C241.14 19.9089 243.057 19.9089 244.735 20.2085C246.473 20.5081 247.911 21.2871 249.11 22.186C250.308 23.0849 251.147 24.1635 251.746 25.1822C252.345 26.2009 252.705 27.1597 252.885 27.9387C253.005 28.3582 253.065 28.7178 253.065 29.0174C253.124 29.317 253.124 29.6166 253.124 29.7964C253.124 29.9762 253.124 30.156 253.124 30.2758C253.124 30.3956 253.124 30.4556 253.124 30.4556Z" fill="#BF2343"/>
<path d="M251.448 24.8837C251.508 24.9437 248.033 27.9399 243.778 31.5353C239.463 35.1308 235.928 38.0072 235.868 37.9473C235.808 37.8873 239.284 34.8911 243.538 31.2956C247.853 27.7002 251.388 24.8238 251.448 24.8837Z" fill="#BF2343"/>
<path d="M252.465 26.8017C252.525 26.8617 249.169 29.738 245.034 33.2137C240.84 36.6893 237.424 39.4458 237.364 39.3859C237.304 39.3259 240.66 36.4496 244.795 32.974C248.989 29.4983 252.405 26.7418 252.465 26.8017Z" fill="#BF2343"/>
<path d="M252.943 29.1964C253.003 29.2563 250.067 31.7732 246.412 34.8293C242.756 37.8855 239.76 40.2824 239.7 40.2225C239.64 40.1626 242.576 37.6458 246.232 34.5896C249.887 31.5335 252.883 29.1365 252.943 29.1964Z" fill="#BF2343"/>
<path d="M253.125 31.8334C253.185 31.8933 250.848 33.9308 247.911 36.3877C244.975 38.8446 242.518 40.8221 242.458 40.7022C242.398 40.6423 244.735 38.6049 247.672 36.148C250.608 33.6911 253.065 31.7735 253.125 31.8334Z" fill="#BF2343"/>
<path d="M249.827 23.3251C249.887 23.3851 246.412 26.3813 242.157 29.9767C237.842 33.5722 234.307 36.4486 234.247 36.3887C234.187 36.3287 237.663 33.3325 241.917 29.7371C246.232 26.1416 249.767 23.2652 249.827 23.3251Z" fill="#BF2343"/>
<path d="M248.269 21.7666C248.329 21.8265 244.853 24.8227 240.598 28.4182C236.284 32.0136 232.748 34.89 232.688 34.8301C232.628 34.7702 236.104 31.7739 240.359 28.1785C244.673 24.5231 248.209 21.7066 248.269 21.7666Z" fill="#BF2343"/>
<path d="M246.054 20.6886C246.114 20.7485 243.118 23.3252 239.403 26.4413C235.687 29.5574 232.631 32.0143 232.571 31.9544C232.511 31.8944 235.507 29.3177 239.223 26.2016C242.938 23.0856 245.994 20.6286 246.054 20.6886Z" fill="#BF2343"/>
<path d="M243.237 20.1498C243.297 20.2097 240.96 22.2472 238.023 24.7041C235.087 27.161 232.69 29.0785 232.63 29.0186C232.57 28.9587 234.907 26.9213 237.843 24.4644C240.78 22.0075 243.177 20.0899 243.237 20.1498Z" fill="#BF2343"/>
<path d="M231.851 17.0344C232.91 17.0344 233.769 16.1759 233.769 15.1168C233.769 14.0578 232.91 13.1992 231.851 13.1992C230.792 13.1992 229.934 14.0578 229.934 15.1168C229.934 16.1759 230.792 17.0344 231.851 17.0344Z" fill="#BF2343"/>
<path d="M178.46 141.195C178.46 142.274 177.621 143.113 176.543 143.113C175.464 143.113 174.625 142.274 174.625 141.195C174.625 140.116 175.464 139.277 176.543 139.277C177.621 139.277 178.46 140.176 178.46 141.195Z" fill="#BF2343"/>
<path d="M87.7935 39.8038C87.374 36.7476 84.6774 34.2308 81.6812 33.9911C80.9022 33.9312 80.0632 33.9911 79.2842 33.7514C78.685 33.5117 78.1457 33.0922 77.6063 32.7926C75.7487 31.7739 73.2318 32.3132 71.9135 33.9911C70.715 35.5491 70.1757 33.3919 67.2993 35.0698C64.9024 36.5079 66.1608 38.4854 66.1608 38.4854C63.7039 38.3656 61.3069 40.2832 60.8874 42.7401C60.5878 44.2981 60.9473 46.1558 59.6889 47.1745C59.0897 47.6539 58.3107 47.7737 57.7114 48.2531C56.5729 49.0921 56.5729 50.77 56.8126 52.1482C57.0523 53.5265 57.4717 55.0246 56.9923 56.3429C56.1534 58.5002 53.0972 59.3391 52.6778 61.6163C52.498 62.6949 52.9774 64.0133 52.1984 64.7923C51.8988 65.0919 51.4793 65.2717 51.0598 65.4514C49.4419 66.2305 48.3632 67.9683 48.3033 69.7061C48.2434 71.5038 49.2621 73.2416 50.8201 74.0806C51.2396 74.3203 51.7789 74.56 51.9587 74.9794C52.1385 75.5187 51.7789 76.0581 51.5392 76.5375C50.6403 78.3352 51.0598 80.7322 52.5579 82.1104C54.056 83.4887 56.453 83.6685 58.1908 82.6498C59.0897 84.2677 60.7076 85.5261 62.5054 86.0654C63.3443 86.3051 64.2432 86.3651 65.0821 86.1254C65.7413 85.9456 66.3405 85.5261 66.8199 85.0467C69.3368 82.8895 72.8124 79.5337 73.0521 76.2378" fill="#263238"/>
<path d="M64.8437 51.847C64.8437 51.9069 64.4243 51.9069 63.7052 51.847C62.9861 51.7271 62.0273 51.4275 61.1284 50.8283C60.2295 50.229 59.5105 49.45 59.1509 48.8507C58.7914 48.2515 58.6116 47.832 58.6715 47.832C58.7314 47.832 58.9112 48.1916 59.3307 48.7309C59.7502 49.2702 60.4093 49.9893 61.3082 50.5886C62.2071 51.1878 63.1059 51.4874 63.7651 51.6073C64.4243 51.7271 64.8437 51.787 64.8437 51.847Z" fill="#455A64"/>
<path d="M66.5188 44.2367C66.5188 44.2367 66.2791 44.5962 65.7997 44.9557C65.2604 45.3752 64.4814 45.7947 63.4627 46.0344C62.5039 46.2741 61.5451 46.2741 60.8859 46.1542C60.2267 46.0344 59.8672 45.9145 59.8672 45.8546C59.8672 45.7348 61.4851 46.2142 63.3428 45.7348C65.2604 45.3153 66.4589 44.1767 66.5188 44.2367Z" fill="#455A64"/>
<path d="M54.2346 81.7513C54.2346 81.7513 54.1747 81.7513 54.1147 81.7513C54.0548 81.7513 53.935 81.6914 53.8151 81.6914C53.5754 81.5715 53.2159 81.4517 52.7964 81.0921C52.3769 80.7925 51.9575 80.3131 51.5979 79.6539C51.2983 78.9948 51.1185 78.0959 51.2983 77.197C51.4181 76.7176 51.538 76.2982 51.8376 75.8188C52.0773 75.3993 52.4968 74.9798 52.9162 74.6203C53.3357 74.2607 53.7552 73.9012 53.9949 73.4218C54.2945 72.9424 54.2945 72.4031 54.0548 71.8637C53.8151 71.3244 53.3956 70.905 52.9762 70.4256C52.7964 70.1859 52.5567 69.9462 52.4368 69.6465C52.2571 69.3469 52.1972 68.9874 52.1372 68.6878C51.9575 67.3095 52.6166 65.8114 53.9949 65.1522C54.6541 64.8526 55.3731 64.8526 56.0323 64.6728C56.3319 64.6129 56.6316 64.493 56.8713 64.3133C57.111 64.1335 57.2907 63.8938 57.3507 63.5942C57.5304 62.9949 57.3507 62.3957 57.1709 61.7964C56.9312 61.2571 56.6316 60.7178 56.3919 60.1186C56.1522 59.5193 56.0922 58.9201 56.272 58.3208C56.4518 57.7216 56.8713 57.3021 57.2907 56.9426C58.1896 56.2834 59.2083 56.0437 60.0473 55.804C60.8862 55.5643 61.6652 55.2647 62.2045 54.7853C62.7439 54.3059 63.0435 53.7666 63.1034 53.2872C63.2233 52.8078 63.1034 52.3883 62.9836 52.1486C62.8637 51.9089 62.7439 51.7891 62.8038 51.7891C62.8038 51.7891 62.9236 51.849 63.0435 52.0887C63.1633 52.3284 63.2832 52.7478 63.2232 53.2272C63.1633 53.7666 62.8637 54.3658 62.3244 54.8452C61.7851 55.3246 60.9461 55.6242 60.1072 55.9238C59.2682 56.1635 58.2495 56.4632 57.4106 57.0624C56.9911 57.362 56.6316 57.7815 56.5117 58.3208C56.3319 58.8601 56.4518 59.3995 56.6316 59.9388C56.8113 60.4781 57.1709 61.0174 57.4106 61.6167C57.6503 62.2159 57.8301 62.8751 57.6503 63.5942C57.5304 63.9537 57.3507 64.2533 57.051 64.493C56.7514 64.7327 56.3919 64.8526 56.0922 64.9125C55.4331 65.0923 54.714 65.0923 54.1147 65.3919C52.9162 65.9312 52.2571 67.3694 52.4368 68.5679C52.4968 68.8675 52.5567 69.1671 52.7365 69.4068C52.8563 69.6465 53.096 69.9462 53.2758 70.1859C53.6353 70.6653 54.1147 71.1447 54.3544 71.684C54.6541 72.2832 54.5941 73.0023 54.2945 73.4817C53.9949 74.021 53.5155 74.3806 53.1559 74.7401C52.7365 75.0997 52.3769 75.4592 52.1372 75.8188C51.8975 76.2382 51.7178 76.6577 51.5979 77.0772C51.4181 77.9161 51.538 78.7551 51.8376 79.4142C52.1372 80.0734 52.5567 80.5528 52.9162 80.8524C53.6953 81.6314 54.2945 81.7513 54.2346 81.7513Z" fill="#455A64"/>
<path d="M116.437 231.738H51.8984V235.154H116.437V231.738Z" fill="#E0E0E0"/>
<path d="M116.437 235.154C116.437 235.154 116.437 235.094 116.437 234.914C116.437 234.735 116.437 234.555 116.437 234.255C116.437 233.656 116.437 232.817 116.437 231.678L116.497 231.738C108.108 231.798 82.4001 231.858 51.9584 231.858L52.1382 231.678C52.1382 232.877 52.1382 234.015 52.1382 235.094L51.9584 234.914C69.9358 234.914 86.0555 234.974 97.6808 234.974C103.493 234.974 108.168 235.034 111.463 235.034C113.081 235.034 114.34 235.034 115.179 235.034C115.598 235.034 115.898 235.034 116.138 235.034C116.317 235.154 116.437 235.154 116.437 235.154C116.437 235.154 116.317 235.154 116.138 235.154C115.898 235.154 115.598 235.154 115.179 235.154C114.34 235.154 113.081 235.154 111.463 235.154C108.227 235.154 103.553 235.154 97.7407 235.214C86.0555 235.214 69.9358 235.274 51.8985 235.274H51.7188V235.154C51.7188 234.075 51.7188 232.877 51.7188 231.738V231.559H51.8985C82.3401 231.559 108.048 231.619 116.437 231.678H116.497V231.738C116.497 232.877 116.497 233.776 116.497 234.315C116.497 234.615 116.497 234.795 116.497 234.914C116.437 235.094 116.437 235.154 116.437 235.154Z" fill="#263238"/>
<path d="M58.6693 172.355L45.0664 264.399H49.5607L61.9052 173.554V172.355H58.6693Z" fill="#E0E0E0"/>
<path d="M58.6693 172.357C58.6693 172.357 58.909 172.357 59.4484 172.357C59.9877 172.357 60.8266 172.357 61.9053 172.357H61.9652V172.417C61.9652 172.776 61.9652 173.196 61.9652 173.615C60.4671 184.941 55.6132 221.315 49.7406 264.461V264.581H49.6208C49.3811 264.581 49.1414 264.581 48.9017 264.581C47.5833 264.581 46.265 264.581 45.0665 264.581H44.8867V264.401C48.7219 238.753 52.1376 215.742 54.5945 199.143C55.8529 190.873 56.8716 184.162 57.5308 179.548C57.8903 177.271 58.13 175.473 58.3098 174.214C58.4296 173.615 58.4896 173.136 58.5495 172.836C58.6094 172.477 58.6693 172.357 58.6693 172.357C58.6693 172.357 58.6693 172.537 58.6094 172.836C58.5495 173.136 58.4896 173.615 58.4296 174.214C58.2499 175.473 58.0102 177.271 57.6506 179.548C56.9915 184.162 55.9727 190.873 54.7743 199.203C52.3173 215.802 48.9616 238.813 45.1863 264.401L45.0066 264.221C46.2051 264.221 47.5234 264.221 48.8417 264.221C49.0814 264.221 49.3211 264.221 49.5608 264.221L49.3811 264.341C55.2536 221.195 60.2274 184.821 61.8453 173.495C61.8453 173.076 61.8453 172.656 61.8453 172.297L61.9053 172.357C60.8266 172.357 59.9877 172.357 59.4484 172.357C58.909 172.357 58.6693 172.357 58.6693 172.357Z" fill="#263238"/>
<path d="M109.666 172.359L123.568 264.403H119.074L106.43 173.558V172.359H109.666Z" fill="#E0E0E0"/>
<path d="M109.667 172.357C109.667 172.357 109.427 172.357 108.888 172.357C108.349 172.357 107.51 172.357 106.431 172.357L106.491 172.297C106.491 172.656 106.491 173.076 106.491 173.495C108.109 184.821 113.202 221.195 119.195 264.341L119.015 264.221C119.255 264.221 119.495 264.221 119.734 264.221C121.053 264.221 122.371 264.221 123.569 264.221L123.39 264.401C119.554 238.813 116.079 215.802 113.622 199.203C112.364 190.873 111.405 184.162 110.686 179.548C110.326 177.211 110.086 175.413 109.907 174.214C109.847 173.615 109.727 173.136 109.727 172.836C109.667 172.477 109.667 172.357 109.667 172.357C109.667 172.357 109.727 172.537 109.727 172.836C109.787 173.136 109.847 173.615 109.967 174.214C110.146 175.413 110.446 177.211 110.806 179.548C111.525 184.162 112.543 190.873 113.802 199.143C116.319 215.742 119.854 238.813 123.749 264.401V264.581H123.569C122.371 264.581 121.053 264.581 119.734 264.581C119.495 264.581 119.255 264.581 119.015 264.581H118.895V264.461C112.903 221.315 107.869 184.941 106.371 173.615C106.371 173.196 106.371 172.776 106.371 172.417V172.357H106.431C107.51 172.357 108.349 172.357 108.888 172.357C109.427 172.297 109.667 172.357 109.667 172.357Z" fill="#263238"/>
<path d="M84.6763 172.355H80.7812V264.399H84.6763V172.355Z" fill="#E0E0E0"/>
<path d="M84.6178 264.401C84.6178 264.401 84.6178 264.221 84.6178 263.921C84.6178 263.622 84.6178 263.142 84.6178 262.543C84.6178 261.285 84.6178 259.487 84.6178 257.21C84.6178 252.596 84.6178 245.884 84.5579 237.555C84.5579 220.956 84.498 197.945 84.498 172.357L84.6778 172.537C83.4793 172.537 82.101 172.537 80.7827 172.537L80.9624 172.357C80.9624 216.461 80.9025 253.555 80.8426 264.401L80.7827 264.341C82.101 264.341 83.0598 264.341 83.719 264.341C84.0186 264.341 84.2583 264.341 84.4381 264.341C84.5579 264.401 84.6178 264.401 84.6178 264.401C84.6178 264.401 84.5579 264.401 84.3781 264.401C84.1984 264.401 83.9587 264.401 83.659 264.401C82.9999 264.401 82.0411 264.401 80.7227 264.401H80.6628V264.341C80.6029 253.495 80.543 216.341 80.543 172.297V172.117H80.7227C82.0411 172.117 83.3594 172.117 84.6178 172.117H84.7976V172.297C84.7976 197.945 84.7377 220.956 84.7377 237.615C84.7377 245.884 84.6778 252.596 84.6778 257.21C84.6778 259.487 84.6778 261.285 84.6778 262.543C84.6778 263.142 84.6778 263.622 84.6778 263.921C84.6778 264.221 84.6178 264.401 84.6178 264.401Z" fill="#263238"/>
<path d="M110.445 166.184H57.1719V173.135H110.445V166.184Z" fill="#455A64"/>
<path d="M73.4126 166.363C73.4126 166.363 72.7534 167.082 71.495 167.981C70.8358 168.461 70.0568 168.94 69.1579 169.419C68.2591 169.899 67.1804 170.378 66.0419 170.798C64.9033 171.157 63.7647 171.457 62.746 171.637C61.7273 171.816 60.7685 171.876 59.9895 171.936C58.4315 171.996 57.4727 171.876 57.4727 171.876C57.4727 171.876 57.5326 171.876 57.6524 171.876C57.8322 171.876 57.9521 171.876 58.1318 171.876C58.5513 171.876 59.2105 171.876 59.9895 171.876C60.7685 171.816 61.6674 171.756 62.6861 171.577C63.7048 171.397 64.7834 171.097 65.922 170.738C67.0606 170.318 68.0793 169.899 68.9782 169.419C69.877 168.94 70.656 168.461 71.3152 167.981C71.9744 167.502 72.4538 167.142 72.7534 166.843C72.8732 166.723 73.053 166.603 73.1129 166.543C73.4126 166.423 73.4126 166.363 73.4126 166.363Z" fill="#263238"/>
<path d="M81.0828 170.916C81.0828 170.916 81.0228 170.916 80.9629 170.856C80.903 170.796 80.7232 170.736 80.6034 170.676C80.2438 170.556 79.7644 170.376 79.0453 170.256C78.3862 170.196 77.4873 170.136 76.5884 170.376C75.6296 170.556 74.6109 171.035 73.6521 171.814V171.754C75.33 172.174 77.3674 172.474 79.5247 172.414C80.6034 172.414 81.7419 172.294 82.8805 172.054C83.4797 171.934 84.079 171.874 84.5584 171.575C84.7981 171.395 85.0378 171.215 85.0977 170.916C85.2175 170.616 85.1576 170.316 85.0378 170.077C84.7981 169.417 84.1389 168.998 83.4797 168.818C82.8206 168.638 82.1015 168.578 81.4423 168.519C80.064 168.399 78.7457 168.459 77.5472 168.578C75.0903 168.818 72.8731 169.537 71.1353 170.256C69.3975 170.975 68.0792 171.814 67.2402 172.414C66.8207 172.713 66.4612 172.953 66.2814 173.133C66.0417 173.312 65.9219 173.372 65.9219 173.372C65.9219 173.372 66.0417 173.253 66.2215 173.073C66.4612 172.893 66.7608 172.653 67.1803 172.354C68.0192 171.754 69.3376 170.916 71.0754 170.136C72.8132 169.357 74.9705 168.698 77.4873 168.399C78.7457 168.279 80.064 168.219 81.4423 168.339C82.1015 168.399 82.8206 168.459 83.4797 168.638C83.8393 168.758 84.1389 168.878 84.4385 169.118C84.7382 169.357 84.9778 169.657 85.0977 170.017C85.2175 170.316 85.2175 170.676 85.1576 170.975C85.0378 171.275 84.7981 171.515 84.5584 171.695C84.0191 171.994 83.4198 172.114 82.8206 172.174C81.682 172.354 80.5434 172.474 79.4049 172.533C77.1877 172.593 75.2102 172.294 73.4724 171.874H73.3525L73.4124 171.814C74.3712 171.035 75.4499 170.616 76.3487 170.376C77.3075 170.196 78.1465 170.196 78.8656 170.316C79.5247 170.436 80.064 170.616 80.4236 170.736C80.903 170.856 81.0828 170.916 81.0828 170.916Z" fill="#263238"/>
<path d="M87.9709 166.363C87.9709 166.363 88.0908 166.363 88.3305 166.483C88.5702 166.543 88.8698 166.723 89.1694 167.082C89.4691 167.382 89.7687 167.861 89.8885 168.401C90.0084 168.94 89.9484 169.599 89.7087 170.258C89.2294 171.517 88.1507 172.296 87.4316 172.595C87.0122 172.775 86.7125 172.895 86.4728 172.955C86.353 173.015 86.2931 173.015 86.2331 173.015C86.1732 173.015 86.1133 173.015 86.1133 173.015C86.1133 173.015 86.2331 172.955 86.4728 172.895C86.7125 172.835 87.0122 172.715 87.4316 172.535C88.1507 172.176 89.1694 171.457 89.6488 170.198C89.8885 169.599 89.9485 168.94 89.8286 168.401C89.7088 167.861 89.4691 167.442 89.1694 167.082C88.5103 166.483 87.9709 166.363 87.9709 166.363Z" fill="#263238"/>
<path d="M96.3008 166.305C96.3008 166.305 95.8214 166.484 95.1622 166.904C94.503 167.323 93.6042 168.102 92.945 169.121C92.2259 170.14 91.7465 171.159 91.4469 171.878C91.3271 172.177 91.1473 172.477 91.0274 172.777C90.9076 172.956 90.8477 173.076 90.8477 173.076C90.8477 173.076 90.9076 172.956 90.9675 172.717C91.0274 172.477 91.1473 172.177 91.3271 171.818C91.6267 171.099 92.1061 170.02 92.8252 169.001C93.5443 167.983 94.3832 167.204 95.1023 166.784C95.4618 166.604 95.7615 166.425 96.0012 166.365C96.121 166.305 96.1809 166.305 96.2409 166.305C96.3008 166.305 96.3008 166.305 96.3008 166.305Z" fill="#263238"/>
<path d="M105.531 170.437C105.531 170.437 105.411 170.377 105.231 170.317C105.052 170.257 104.752 170.137 104.333 170.017C103.553 169.838 102.235 169.718 100.857 170.377C100.677 170.437 100.497 170.557 100.437 170.736C100.318 170.916 100.377 171.096 100.497 171.216C100.797 171.515 101.216 171.575 101.636 171.755C102.475 172.055 103.374 172.235 104.392 172.354C105.351 172.414 106.43 172.414 107.509 172.175C108.048 172.055 108.587 171.935 109.007 171.575C109.426 171.216 109.546 170.617 109.366 170.077C109.186 169.538 108.707 169.178 108.228 168.939C107.748 168.699 107.209 168.579 106.67 168.399C105.591 168.16 104.572 168.1 103.613 168.16C101.636 168.28 99.8981 168.939 98.6397 169.718C97.3813 170.497 96.4824 171.396 95.9431 172.055C95.7034 172.354 95.4637 172.654 95.3438 172.834C95.224 173.014 95.1641 173.133 95.1641 173.133C95.1641 173.133 95.4038 172.714 95.8832 172.055C96.4225 171.396 97.2614 170.497 98.5198 169.718C99.7782 168.939 101.516 168.22 103.494 168.1C104.512 168.04 105.531 168.1 106.61 168.339C107.149 168.459 107.688 168.579 108.168 168.879C108.647 169.118 109.126 169.538 109.366 170.077C109.486 170.377 109.486 170.676 109.426 170.976C109.366 171.276 109.186 171.515 109.007 171.695C108.587 172.055 107.988 172.235 107.449 172.354C106.37 172.534 105.291 172.594 104.333 172.474C103.314 172.414 102.415 172.175 101.576 171.875C101.336 171.815 101.157 171.695 100.977 171.635C100.797 171.575 100.557 171.456 100.437 171.276C100.258 171.096 100.258 170.856 100.377 170.676C100.497 170.497 100.677 170.377 100.857 170.317C102.235 169.658 103.553 169.778 104.333 169.957C105.112 170.137 105.531 170.437 105.531 170.437Z" fill="#263238"/>
<path d="M70.9539 78.1562C70.9539 78.1562 68.0775 79.0551 66.3397 82.1712C64.6019 85.2873 65.0813 86.7854 65.5008 88.5831C65.9802 90.3808 66.7592 94.0362 66.8191 93.7965C66.879 93.6168 70.9539 78.1562 70.9539 78.1562Z" fill="#F1D9CC"/>
<path d="M71.1944 78.1538L74.8498 75.9965L91.8683 69.6445L88.5125 98.2884L75.9284 106.198L68.4978 102.483L67.7188 94.1536L71.1944 78.1538Z" fill="#F1D9CC"/>
<path d="M70.716 121.781L64.0644 130.41L55.7948 128.493L49.2031 132.148L50.9409 135.264L68.4988 136.463L74.671 123.699L70.716 121.781Z" fill="#DEB39C"/>
<path d="M50.5234 204.719L57.235 219.281L68.0813 214.307L61.1301 196.27L50.5234 204.719Z" fill="#F1D9CC"/>
<path d="M55.9757 218.319L59.9307 225.81C59.9307 225.81 49.8634 236.177 50.8222 238.514L74.4324 227.188L67.9007 212.207L55.9757 218.319Z" fill="#BF2343"/>
<path d="M66.6995 221.316C67.2388 221.196 67.7781 221.556 67.898 222.095C68.0178 222.634 67.6583 223.174 67.119 223.294C66.5796 223.413 65.9205 222.994 65.8605 222.455C65.8006 221.915 66.28 221.256 66.8193 221.316" fill="#E0E0E0"/>
<g opacity="0.6">
<g opacity="0.6">
<g opacity="0.6">
<g opacity="0.6">
<g opacity="0.6">
<g opacity="0.6">
<g opacity="0.6">
<g opacity="0.6">
<g opacity="0.6">
<g opacity="0.6">
<path opacity="0.6" d="M74.4314 227.19L73.4726 225.332L51.1208 236.897C51.1208 236.897 50.2818 237.856 50.7612 238.515L74.4314 227.19Z" fill="white"/>
</g>
</g>
</g>
</g>
</g>
</g>
</g>
</g>
</g>
</g>
<path d="M59.4494 225.868C59.5094 225.988 60.1086 225.748 60.8277 225.868C61.5468 225.928 62.0861 226.288 62.206 226.228C62.3258 226.168 61.7865 225.569 60.8876 225.449C59.9888 225.329 59.3895 225.808 59.4494 225.868Z" fill="#263238"/>
<path d="M57.4722 228.088C57.4722 228.208 58.0715 228.148 58.7307 228.448C59.3898 228.747 59.6895 229.227 59.8093 229.167C59.9292 229.107 59.6895 228.448 58.9104 228.088C58.1314 227.729 57.4123 227.968 57.4722 228.088Z" fill="#263238"/>
<path d="M57.4748 231.742C57.5947 231.742 57.4748 231.083 56.8756 230.543C56.2764 230.064 55.6172 230.064 55.6172 230.184C55.6172 230.304 56.0966 230.483 56.576 230.903C57.0554 231.322 57.355 231.802 57.4748 231.742Z" fill="#263238"/>
<path d="M58.3115 222.995C58.4314 223.055 58.8509 222.636 59.51 222.396C60.1692 222.096 60.7684 222.096 60.8284 221.976C60.8284 221.857 60.1692 221.677 59.3902 221.976C58.5512 222.276 58.1917 222.935 58.3115 222.995Z" fill="#263238"/>
<path d="M57.5915 221.495C57.5915 221.495 57.4716 221.315 57.3518 221.015C57.2319 220.716 57.172 220.176 57.2319 219.577C57.2319 219.397 57.2919 219.278 57.3518 219.098C57.4117 218.918 57.5915 218.738 57.8312 218.738C57.951 218.738 58.0709 218.738 58.1907 218.858C58.3106 218.978 58.3106 219.098 58.3106 219.158C58.3106 219.397 58.3106 219.577 58.3106 219.757C58.2507 220.176 58.2507 220.536 58.1907 221.015C58.1308 221.255 57.951 221.555 57.7113 221.615C57.4716 221.675 57.2319 221.675 56.9922 221.615C56.5128 221.555 56.0934 221.375 55.6739 221.255C55.4941 221.195 55.2544 221.075 55.0747 220.955C54.8949 220.836 54.7151 220.776 54.5353 220.536C54.4155 220.356 54.3556 220.057 54.5353 219.817C54.7151 219.637 54.9548 219.637 55.1346 219.637C55.4941 219.757 55.7938 219.877 56.0934 219.997C56.6327 220.296 56.9922 220.596 57.2319 220.836C57.4716 221.075 57.5915 221.255 57.5316 221.255C57.4716 221.315 56.9922 220.716 55.9735 220.176C55.7338 220.057 55.3743 219.937 55.0747 219.877C54.8949 219.877 54.775 219.877 54.7151 219.937C54.6552 219.997 54.6552 220.176 54.775 220.296C54.8949 220.416 55.0147 220.536 55.1945 220.596C55.3743 220.716 55.5541 220.776 55.7338 220.836C56.0934 221.015 56.5128 221.135 56.9922 221.195C57.172 221.255 57.4117 221.255 57.5915 221.195C57.7713 221.135 57.8312 221.015 57.8911 220.836C57.951 220.476 57.951 219.997 58.011 219.637C58.011 219.457 58.0709 219.218 58.011 219.098C58.011 218.918 57.951 218.858 57.8312 218.858C57.5915 218.858 57.4716 219.218 57.4117 219.517C57.3518 220.776 57.7113 221.495 57.5915 221.495Z" fill="#263238"/>
<path d="M50.3415 209.752L33.2031 167.146C33.2031 167.146 33.6226 159.596 35.0009 157.199C36.3791 154.802 78.6258 140.899 78.6258 140.899C78.6258 140.899 89.3523 138.322 96.5433 140.899C103.734 143.476 109.067 152.465 108.109 157.438C107.09 162.412 102.895 166.067 102.895 166.067L71.8544 166.966L54.9557 173.138L66.3413 205.797C66.3413 205.737 60.5287 212.149 50.3415 209.752Z" fill="#263238"/>
<path d="M35.1812 181.167L34.7617 197.227L46.7466 197.526L48.4245 178.23L35.1812 181.167Z" fill="#F1D9CC"/>
<path d="M34.1015 195.788L34.3412 204.237C34.3412 204.237 20.7384 209.151 20.5586 211.608L46.7456 211.848L47.5246 195.488L34.1015 195.788Z" fill="#BF2343"/>
<path d="M42.4299 203.158C42.9093 203.278 43.2688 203.877 43.149 204.416C43.0291 204.956 42.4299 205.255 41.9505 205.135C41.4711 205.016 40.9917 204.296 41.1715 203.817C41.3512 203.338 42.0703 202.918 42.4898 203.218" fill="#E0E0E0"/>
<g opacity="0.6">
<g opacity="0.6">
<g opacity="0.6">
<g opacity="0.6">
<g opacity="0.6">
<g opacity="0.6">
<g opacity="0.6">
<g opacity="0.6">
<g opacity="0.6">
<g opacity="0.6">
<path opacity="0.6" d="M46.6858 211.906L46.6259 209.809L21.5176 210.348C21.5176 210.348 20.3191 210.827 20.4988 211.666L46.6858 211.906Z" fill="white"/>
</g>
</g>
</g>
</g>
</g>
</g>
</g>
</g>
</g>
</g>
<path d="M33.8594 204.116C33.8594 204.236 34.5185 204.296 35.1178 204.715C35.777 205.135 36.0766 205.674 36.1964 205.614C36.3163 205.614 36.1365 204.835 35.3575 204.356C34.6384 203.817 33.8594 203.996 33.8594 204.116Z" fill="#263238"/>
<path d="M31.1057 205.197C31.0458 205.317 31.645 205.557 32.0645 206.096C32.484 206.635 32.6038 207.235 32.7237 207.235C32.8435 207.235 32.9634 206.515 32.3641 205.856C31.8847 205.137 31.1057 205.077 31.1057 205.197Z" fill="#263238"/>
<path d="M29.4889 208.493C29.6087 208.493 29.7885 207.894 29.4889 207.175C29.1892 206.455 28.59 206.156 28.5301 206.276C28.4701 206.396 28.8297 206.755 29.0694 207.354C29.369 207.894 29.369 208.433 29.4889 208.493Z" fill="#263238"/>
<path d="M34.1014 201C34.1614 201.12 34.7606 200.94 35.4797 201C36.1988 201.06 36.7381 201.3 36.858 201.18C36.9179 201.06 36.3786 200.581 35.5396 200.581C34.7007 200.521 34.0415 200.881 34.1014 201Z" fill="#263238"/>
<path d="M34.1622 199.322C34.1622 199.322 34.1023 199.142 34.1622 198.782C34.2222 198.423 34.342 197.943 34.7016 197.464C34.7615 197.344 34.8813 197.224 35.0012 197.104C35.121 196.985 35.3607 196.865 35.6004 196.985C35.7203 197.044 35.8401 197.104 35.8401 197.224C35.9001 197.344 35.8401 197.464 35.8401 197.584C35.7802 197.823 35.6604 197.943 35.5405 198.123C35.3607 198.483 35.181 198.782 34.8813 199.202C34.7615 199.382 34.4619 199.561 34.1622 199.501C33.9226 199.441 33.6829 199.322 33.5031 199.202C33.1435 198.902 32.784 198.603 32.4844 198.303C32.3645 198.123 32.1847 197.943 32.0649 197.764C31.945 197.584 31.8252 197.404 31.7653 197.164C31.7053 196.925 31.8252 196.625 32.0649 196.505C32.3046 196.385 32.5443 196.565 32.7241 196.625C33.0237 196.865 33.2035 197.104 33.3832 197.404C33.7428 197.883 33.9226 198.363 34.0424 198.662C34.1623 198.962 34.1622 199.142 34.1622 199.142C34.1023 199.142 33.9226 198.423 33.2035 197.524C33.0237 197.284 32.784 197.044 32.5443 196.865C32.4244 196.805 32.2447 196.745 32.1847 196.745C32.0649 196.805 32.005 196.925 32.0649 197.044C32.1248 197.164 32.1847 197.344 32.3046 197.524C32.4244 197.704 32.5443 197.823 32.6641 198.003C32.9638 198.303 33.2634 198.603 33.6229 198.842C33.8027 198.962 33.9825 199.082 34.1622 199.082C34.342 199.082 34.4619 199.022 34.5817 198.902C34.8214 198.603 35.0012 198.183 35.181 197.883C35.3008 197.704 35.4207 197.524 35.4207 197.404C35.4806 197.284 35.4207 197.164 35.3607 197.104C35.121 196.985 34.8813 197.284 34.7016 197.524C34.2222 198.603 34.2222 199.382 34.1622 199.322Z" fill="#263238"/>
<path d="M42.1335 136.644C42.1335 136.644 35.0024 136.044 34.1635 143.835C33.3845 151.625 32.6055 187.819 32.6055 187.819L49.3244 189.197L51.9011 152.164L78.5675 140.838C78.6274 140.838 46.9274 135.625 42.1335 136.644Z" fill="#263238"/>
<path d="M71.6726 126.156C71.6726 126.156 67.358 138.321 68.1371 139.699C68.976 141.077 80.1219 146.65 80.1219 146.65L108.047 157.377C108.047 157.377 110.923 152.823 110.923 145.811C110.923 138.8 101.215 126.156 101.215 126.156H71.6726Z" fill="#263238"/>
<path d="M79.9419 140.237C79.9419 140.237 79.8819 140.237 79.822 140.297C79.7022 140.357 79.5823 140.417 79.4025 140.477C79.043 140.657 78.5037 140.896 77.8445 141.136C76.4663 141.735 74.4887 142.574 72.0318 143.653C67.0581 145.81 60.047 148.806 51.9572 152.282L52.077 152.162C51.8373 155.817 51.5377 159.772 51.2381 163.847C50.5789 173.375 49.9197 182.184 49.4403 189.195V189.315H49.3205C44.2269 188.896 40.0322 188.476 37.1558 188.237C35.7176 188.117 34.5791 187.997 33.8001 187.937C33.4405 187.877 33.1409 187.877 32.9012 187.817C32.7214 187.817 32.6016 187.757 32.6016 187.757C32.6016 187.757 32.7214 187.757 32.9012 187.757C33.1409 187.757 33.3806 187.817 33.8001 187.817C34.5791 187.877 35.7176 187.937 37.1558 188.057C40.0921 188.296 44.2868 188.596 49.3205 189.016L49.2006 189.135C49.68 182.184 50.2793 173.375 50.9384 163.787C51.2381 159.712 51.4778 155.757 51.7774 152.102V151.982L51.8373 151.922C59.9271 148.507 66.9383 145.51 71.912 143.413C74.3689 142.394 76.3464 141.555 77.7846 140.956C78.4438 140.657 78.9831 140.477 79.3426 140.297C79.5224 140.237 79.6422 140.177 79.7621 140.117C79.8819 140.237 79.9419 140.237 79.9419 140.237Z" fill="#455A64"/>
<path d="M102.175 141.439C102.175 141.439 101.875 141.379 101.396 141.199C100.857 141.019 100.137 140.78 99.2985 140.54C97.5008 140.001 95.0439 139.162 92.2275 138.742C89.411 138.323 86.8343 138.443 85.0365 138.862C83.2388 139.222 82.1602 139.761 82.1602 139.701C82.1602 139.701 82.3999 139.521 82.8792 139.341C83.3586 139.102 84.0777 138.862 84.9766 138.682C86.7743 138.203 89.4709 138.083 92.2874 138.503C95.1038 138.922 97.6207 139.761 99.3585 140.36C100.257 140.66 100.976 140.959 101.456 141.139C101.935 141.319 102.175 141.439 102.175 141.439Z" fill="#455A64"/>
<path d="M98.2197 135.024C98.2197 135.083 97.2609 134.904 95.7628 135.024C94.9838 135.083 94.085 135.203 93.1262 135.323C92.1074 135.443 91.0288 135.563 89.8902 135.803C87.6131 136.222 85.6955 137.001 84.4371 137.84C83.1787 138.679 82.5795 139.398 82.5195 139.398C82.5195 139.398 82.6394 139.158 82.939 138.859C83.2386 138.559 83.6581 138.14 84.3173 137.66C85.5757 136.761 87.5532 135.922 89.8303 135.503C90.9689 135.263 92.1074 135.143 93.0662 135.083C94.0849 134.964 94.9838 134.904 95.7029 134.844C96.4819 134.844 97.0812 134.844 97.5006 134.904C97.98 134.904 98.2197 135.024 98.2197 135.024Z" fill="#455A64"/>
<path d="M70.9563 78.1543C70.9563 78.1543 66.2222 93.3752 66.3421 97.7496C66.4619 102.124 68.2597 114.528 68.0799 116.925C67.9001 119.382 68.7391 126.094 71.6754 126.094C74.6716 126.094 101.278 126.094 101.278 126.094C101.278 126.094 107.93 124.236 108.229 120.221C108.529 116.206 99.2406 77.2555 99.2406 77.2555C99.2406 77.2555 97.5028 70.1245 95.0459 69.5852C92.589 69.0458 89.8924 69.5852 88.2145 74.6188C86.5965 79.6525 86.0572 86.7835 82.5217 90.319C79.0461 93.7946 74.0723 97.7496 74.0723 97.7496C74.0723 97.7496 70.0574 94.3939 69.8776 89.8396C69.6979 85.2854 71.3757 77.9147 71.3757 77.9147L70.9563 78.1543Z" fill="#BF2343"/>
<path d="M102.116 80.8511C101.397 79.6526 100.199 78.8136 98.8806 78.3342C97.5622 77.8549 96.184 77.6751 94.8057 77.5552C93.5473 77.4354 92.2889 77.3755 91.0904 77.6751C89.8919 77.9747 89.4125 79.4728 88.8732 80.6114C88.0942 85.705 88.3339 90.9783 89.6522 95.952C89.832 96.6711 90.0717 97.4501 90.5511 98.0494C90.9705 98.6486 91.6297 99.0681 92.229 99.4876C93.2477 100.147 94.3862 100.806 95.6446 100.866C97.8618 101.046 99.8993 99.4276 100.918 97.4501C101.937 95.4726 102.176 93.1955 102.416 90.9783C102.536 89.6 102.656 88.2218 102.836 86.8435C103.015 84.866 103.195 82.5889 102.116 80.8511Z" fill="#F1D9CC"/>
<path d="M75.3305 126.454C75.3305 126.514 74.7912 126.334 74.1321 125.855C73.4729 125.375 72.6939 124.477 72.1546 123.338C71.6152 122.199 71.3156 121.121 71.1358 120.342C70.9561 119.563 70.8961 119.023 70.9561 119.023C71.016 119.023 71.1358 119.503 71.3755 120.282C71.6152 121.061 71.9149 122.14 72.4542 123.218C72.9935 124.297 73.7126 125.196 74.3118 125.675C74.9111 126.214 75.3905 126.454 75.3305 126.454Z" fill="#263238"/>
<path d="M91.029 107.578C91.029 107.578 90.8492 107.757 90.5496 107.997C90.19 108.237 89.7106 108.596 88.9915 108.896C88.3324 109.195 87.4335 109.495 86.4747 109.675C85.5159 109.795 84.3774 109.795 83.2388 109.555C80.9617 109.016 79.2838 107.697 78.2051 106.619C77.6658 106.079 77.3063 105.6 77.0666 105.3C76.8269 104.941 76.707 104.761 76.707 104.761C76.767 104.701 77.3063 105.48 78.3849 106.499C79.4636 107.518 81.1414 108.776 83.2987 109.255C85.456 109.795 87.5534 109.315 88.8717 108.716C90.25 108.117 90.9691 107.518 91.029 107.578Z" fill="#263238"/>
<path d="M74.9677 125.913C74.9078 125.973 74.4883 125.493 74.3684 124.774C74.2486 124.055 74.4284 123.456 74.4883 123.516C74.5482 123.516 74.5482 124.115 74.6681 124.714C74.7879 125.374 75.0875 125.913 74.9677 125.913Z" fill="#263238"/>
<path d="M87.2564 80.7305C87.2564 80.7904 86.9568 80.7305 86.5373 81.09C86.3575 81.2698 86.1778 81.5694 86.0579 81.929C85.998 82.2885 85.998 82.7679 86.3575 83.1274L86.4774 83.2473L86.3575 83.3072C85.6984 83.487 85.0392 84.0263 84.6796 84.8053C84.3201 85.5843 84.2003 86.663 84.7396 87.5019L84.9193 87.8016L84.5598 87.7416C83.8407 87.5619 83.0018 87.8015 82.5224 88.4607C82.043 89.06 81.983 90.0787 82.4025 90.7378L82.1029 90.8577C81.9231 90.3783 81.2639 90.1985 80.7246 90.3184C80.1254 90.4382 79.7658 90.9775 79.5861 91.5169C79.4063 92.0562 79.3464 92.7154 79.3464 93.3146L79.2864 94.1535L79.0468 93.3146C78.9269 92.8951 78.3876 92.6554 77.9082 92.7154C77.4288 92.7753 77.0692 93.1348 76.8895 93.5543C76.47 94.3932 76.7097 95.352 76.8895 96.131H76.6498C76.6498 95.7116 76.4101 95.352 76.1704 95.1123C75.8708 94.8726 75.5112 94.7528 75.1517 94.7528C74.4326 94.7528 74.0131 95.352 73.9532 95.8314C73.8333 96.3108 73.9532 96.7303 74.073 96.97C74.1929 97.2097 74.3127 97.2696 74.3127 97.3295C74.3127 97.3295 74.1929 97.2696 74.0131 97.0299C73.8333 96.7902 73.7135 96.3707 73.7734 95.8314C73.8333 95.5917 73.9532 95.2921 74.1329 95.0524C74.3726 94.8127 74.6723 94.6329 75.0917 94.573C75.5112 94.573 75.8708 94.6929 76.2303 94.9925C76.5898 95.2921 76.8295 95.7116 76.8295 96.191V97.1498L76.5898 96.191C76.47 95.7715 76.4101 95.352 76.3502 94.8726C76.2902 94.3932 76.3501 93.9138 76.5898 93.4344C76.8295 92.9551 77.1891 92.5356 77.7883 92.4157C78.3277 92.2959 79.0467 92.5955 79.2265 93.1948L78.9269 93.2547C78.9269 92.6554 78.9868 91.9963 79.1666 91.397C79.2864 91.0974 79.4063 90.7978 79.646 90.4982C79.8857 90.1985 80.1853 90.0188 80.5449 89.9588C80.9044 89.8989 81.204 89.8989 81.5636 90.0188C81.9231 90.1386 82.1628 90.3783 82.2827 90.7378L82.7021 91.9363L81.983 90.8577C81.4437 90.0188 81.5036 88.9401 82.1029 88.221C82.7021 87.5019 83.6609 87.2023 84.44 87.442L84.2602 87.6218C83.6609 86.663 83.8407 85.4645 84.2002 84.6855C84.6197 83.8465 85.3388 83.3072 86.0579 83.1274L85.998 83.3072C85.6384 82.8878 85.6384 82.3484 85.6984 81.9889C85.8182 81.5694 85.998 81.2698 86.2377 81.09C86.4774 80.9102 86.6572 80.8503 86.8369 80.7904C87.1965 80.7305 87.2564 80.7305 87.2564 80.7305Z" fill="#BF2343"/>
<path d="M71.1351 78.2734C71.1351 78.2734 71.195 78.3334 71.195 78.3933C71.2549 78.4532 71.3149 78.633 71.3149 78.8128C71.3149 78.9925 71.3149 79.2322 71.195 79.4719C71.0752 79.7116 70.8355 79.9513 70.5358 80.0712V79.9513C71.0152 80.3109 71.3748 80.97 71.3748 81.7491C71.3748 82.5281 71.0752 83.4869 70.1763 83.9663V83.7266C70.8954 84.2659 71.195 85.2846 71.0152 86.2434C70.8355 87.2022 70.1763 88.0411 69.5771 88.8201L69.3374 88.6404C69.8168 88.0411 70.7156 88.161 71.1351 88.7602C71.4946 89.2995 71.4347 89.9587 71.195 90.498C70.9553 91.0373 70.5358 91.3969 70.1763 91.7564L69.9965 91.5167C70.9553 91.2171 72.034 91.8164 72.2137 92.7751C72.3935 93.674 71.7943 94.5729 71.0152 94.7527L70.6557 94.8725L70.8355 94.5729C71.1351 94.1534 71.6744 94.0336 72.0339 94.0935C72.4534 94.1534 72.813 94.3332 73.1126 94.5729C73.6519 95.1122 73.7118 95.7714 73.7718 96.3107C73.7718 96.7901 73.7118 97.2096 73.6519 97.4493C73.592 97.689 73.592 97.8687 73.5321 97.8687C73.4721 97.8687 73.592 97.3294 73.592 96.3107C73.5321 95.8313 73.4721 95.1721 72.9328 94.7527C72.6931 94.513 72.3336 94.3931 71.974 94.3332C71.6145 94.2733 71.195 94.3931 70.9553 94.6927L70.8355 94.513C71.4946 94.3332 71.974 93.5542 71.7943 92.8351C71.6744 92.116 70.7156 91.5767 69.9366 91.8164L69.2175 92.0561L69.7568 91.5767C70.1164 91.2171 70.4759 90.8576 70.7156 90.3782C70.9553 89.9587 70.9553 89.3595 70.6557 88.94C70.3561 88.5205 69.637 88.4606 69.3374 88.8201L69.0977 88.6404C69.7568 87.8613 70.2961 87.0823 70.5358 86.1835C70.7156 85.3445 70.4759 84.3857 69.8767 83.9663L69.6969 83.8464L69.8767 83.7266C70.6557 83.3071 70.9553 82.4681 70.9553 81.7491C70.9553 81.03 70.6557 80.4307 70.2362 80.0712L70.2961 79.9513L70.416 79.8914C70.7156 79.8315 70.8954 79.5918 71.0152 79.3521C71.1351 79.1124 71.195 78.9326 71.195 78.7528C71.195 78.4532 71.0752 78.2734 71.1351 78.2734Z" fill="#BF2343"/>
<g opacity="0.3">
<g opacity="0.3">
<g opacity="0.3">
<g opacity="0.3">
<g opacity="0.3">
<path opacity="0.3" d="M77.1863 105.418C77.426 107.635 78.5046 109.793 80.2424 111.231C81.9802 112.669 84.4371 113.208 86.5944 112.609C88.7517 112.01 90.5494 110.152 90.9089 107.935C89.4108 108.654 87.8528 109.313 86.1749 109.553C82.6394 110.092 78.8641 108.294 77.0664 105.238C77.1263 105.298 77.2462 105.418 77.3061 105.478" fill="black"/>
</g>
</g>
</g>
</g>
</g>
<g opacity="0.3">
<g opacity="0.3">
<g opacity="0.3">
<g opacity="0.3">
<g opacity="0.3">
<path opacity="0.3" d="M71.0138 119.503C70.5943 121.72 71.3733 124.177 73.1111 125.675C73.4707 125.975 73.9501 126.274 74.4295 126.154C72.7516 124.237 71.613 121.9 71.0138 119.383" fill="black"/>
</g>
</g>
</g>
</g>
</g>
<path d="M94.1462 75.8181C94.1462 75.8181 87.4347 76.8368 89.0526 86.3648C90.6706 95.8928 102.296 112.012 102.296 112.012L77.0078 127.413L79.9441 134.244L112.783 120.701C112.783 120.701 116.019 117.346 114.88 113.63C113.741 109.915 105.292 86.5445 105.292 86.5445C105.292 86.5445 102.176 74.2001 94.1462 75.8181Z" fill="#F1D9CC"/>
<path d="M54.9565 133.285L64.0051 127.592L75.9899 128.131L77.0087 127.412L79.945 134.244C79.945 134.244 76.709 135.802 75.0312 135.921L64.5444 135.142L53.3984 134.303L54.9565 133.285Z" fill="#F1D9CC"/>
<path d="M102.236 112.191C102.236 112.191 101.997 111.952 101.637 111.412C101.278 110.933 100.738 110.154 100.139 109.195C98.8805 107.337 97.2626 104.701 95.5847 101.764C93.9068 98.7682 92.4686 96.0716 91.5098 94.0341C91.0304 93.0154 90.6709 92.2364 90.3713 91.6371C90.1316 91.0379 90.0117 90.7383 90.0117 90.7383C90.0117 90.7383 90.1915 91.0379 90.4911 91.5772C90.7907 92.1765 91.2102 92.9555 91.6896 93.9143C92.7083 95.8918 94.1465 98.6483 95.8244 101.585C97.5023 104.521 99.1202 107.158 100.259 109.075C100.858 109.974 101.278 110.753 101.637 111.292C102.116 111.892 102.296 112.191 102.236 112.191Z" fill="#C7C3C1"/>
<path d="M108.467 114.351C108.407 114.411 107.208 113.452 105.411 112.793C103.673 112.134 102.055 112.134 102.115 112.014C102.115 111.954 103.733 111.834 105.531 112.493C107.388 113.152 108.527 114.291 108.467 114.351Z" fill="#C7C3C1"/>
<path d="M18.4609 104.703C18.7006 105.422 27.7492 135.923 27.7492 135.923L79.8835 139.639L81.8011 136.403L52.6778 134.186L44.5281 102.845C44.1685 101.527 42.9101 100.688 41.5918 100.928L18.4609 104.703Z" fill="#455A64"/>
<path d="M34.939 117.527C35.3585 118.426 35.1787 119.445 34.5196 119.744C33.8604 120.044 32.9615 119.565 32.5421 118.666C32.1226 117.767 32.3024 116.748 32.9615 116.449C33.6207 116.149 34.5196 116.628 34.939 117.527Z" fill="#FAFAFA"/>
<path d="M80.8432 138.143C80.8432 138.143 80.7833 138.143 80.6634 138.143C80.5436 138.143 80.4237 138.143 80.2439 138.143C79.8245 138.143 79.2851 138.083 78.5661 138.023C77.0679 137.903 74.9107 137.783 72.274 137.603C66.8808 137.244 59.4502 136.704 51.1207 136.105H51.0008V135.985C50.7012 135.027 50.4016 133.948 50.1019 132.929C47.5851 124.18 45.3679 116.21 43.69 110.458C42.911 107.581 42.2518 105.244 41.7724 103.626C41.5328 102.847 41.4129 102.188 41.2931 101.769C41.2331 101.589 41.1732 101.409 41.1732 101.289C41.1732 101.169 41.1133 101.109 41.1133 101.109C41.1133 101.109 41.1133 101.169 41.1732 101.289C41.2331 101.409 41.2931 101.589 41.353 101.769C41.4728 102.188 41.6526 102.847 41.8923 103.626C42.3717 105.244 43.0309 107.581 43.8698 110.398C45.5477 116.15 47.8248 124.12 50.3416 132.869C50.6413 133.948 50.9409 134.967 51.2405 135.925L51.1207 135.806C59.4502 136.465 66.8808 137.004 72.274 137.424C74.9107 137.663 77.0679 137.843 78.5661 137.963C79.2851 138.023 79.8844 138.083 80.2439 138.143C80.4237 138.143 80.5436 138.203 80.6634 138.203C80.7833 138.143 80.8432 138.143 80.8432 138.143Z" fill="#263238"/>
<path d="M88.2134 44.8352L88.1535 42.4981L73.9514 40.4007C69.5769 40.1011 65.0826 44.6554 64.9628 49.0299C64.8429 53.8837 64.9028 59.8163 65.6219 63.4117C67.0601 70.6027 72.693 71.3218 72.693 71.3218L72.9926 78.5127L89.0524 78.0333L88.2134 44.8352Z" fill="#F1D9CC"/>
<path d="M67.9609 54.1254C67.9609 54.6048 68.3804 55.0243 68.9197 55.0243C69.459 55.0243 69.8186 54.6647 69.8186 54.1254C69.8186 53.646 69.3991 53.2266 68.8598 53.2266C68.3804 53.2266 67.9609 53.646 67.9609 54.1254Z" fill="#263238"/>
<path d="M66.6403 52.0279C66.7601 52.1477 67.4193 51.6084 68.438 51.5485C69.4567 51.4885 70.1758 51.9679 70.2957 51.8481C70.3556 51.7882 70.2357 51.5485 69.8762 51.3687C69.5766 51.129 68.9773 50.9492 68.3781 50.9492C67.7788 50.9492 67.2395 51.2488 66.9399 51.4885C66.7002 51.7882 66.5803 52.0279 66.6403 52.0279Z" fill="#263238"/>
<path d="M77.3672 53.8832C77.3672 54.3626 77.7867 54.7821 78.326 54.7821C78.8653 54.7821 79.2248 54.4226 79.2248 53.8832C79.2248 53.4038 78.8054 52.9844 78.2661 52.9844C77.7867 53.0443 77.3672 53.4038 77.3672 53.8832Z" fill="#263238"/>
<path d="M76.5287 51.8482C76.6485 51.968 77.3077 51.4287 78.3264 51.3688C79.3451 51.3089 80.0642 51.7882 80.1841 51.6684C80.244 51.6085 80.1242 51.3688 79.7646 51.189C79.465 50.9493 78.8658 50.7695 78.2665 50.7695C77.6673 50.7695 77.1279 51.0691 76.8283 51.3088C76.5287 51.5485 76.4688 51.7882 76.5287 51.8482Z" fill="#263238"/>
<path d="M73.1718 59.3984C73.1718 59.3385 72.5725 59.2785 71.5538 59.1587C71.3141 59.1587 71.0744 59.0988 71.0145 58.919C70.9545 58.7392 71.0145 58.4396 71.1343 58.14C71.374 57.5407 71.5538 56.8816 71.7935 56.1625C72.7523 53.346 73.4115 51.009 73.2916 51.009C73.1718 50.949 72.3328 53.2262 71.374 56.0426C71.1343 56.7617 70.9545 57.4209 70.7149 58.0201C70.6549 58.3197 70.4752 58.6793 70.595 59.0388C70.6549 59.2186 70.8946 59.3385 71.0145 59.3984C71.1942 59.4583 71.3141 59.4583 71.4339 59.4583C72.5126 59.5182 73.1718 59.4583 73.1718 59.3984Z" fill="#263238"/>
<path d="M72.6953 71.3243C72.6953 71.3243 77.8488 71.4442 82.5828 68.3281C82.5828 68.3281 80.3656 73.5415 72.8152 73.182L72.6953 71.3243Z" fill="#DEB39C"/>
<path d="M73.7126 61.7931C74.0721 61.3137 74.6714 61.0141 75.3305 61.074C75.75 61.074 76.2294 61.3137 76.4691 61.6133C76.7687 61.9729 76.8286 62.4523 76.5889 62.8118C76.3492 63.2313 75.75 63.2912 75.2706 63.1714C74.7912 63.0515 74.3717 62.7519 73.9523 62.4523C73.8324 62.3923 73.7126 62.2725 73.6526 62.1526C73.5927 62.0927 73.5927 61.9729 73.7126 61.7931Z" fill="#DEB39C"/>
<path d="M76.1694 59.9961C75.9897 59.9961 76.0496 61.0747 75.1507 61.9137C74.2519 62.7526 73.1133 62.6328 73.1133 62.8125C73.1133 62.8725 73.353 62.9923 73.8923 62.9923C74.3717 62.9923 75.0908 62.8125 75.6301 62.3332C76.1694 61.8538 76.4091 61.1946 76.4091 60.7751C76.3492 60.2358 76.2294 59.9961 76.1694 59.9961Z" fill="#263238"/>
<path d="M76.1089 47.9523C76.2287 48.192 77.1875 48.0721 78.386 48.132C79.5845 48.192 80.5433 48.4916 80.6632 48.2519C80.7231 48.132 80.5433 47.8923 80.1838 47.6526C79.7643 47.4129 79.165 47.1732 78.446 47.1133C77.7269 47.0534 77.0677 47.2332 76.6482 47.4129C76.2287 47.5927 76.049 47.7725 76.1089 47.9523Z" fill="#263238"/>
<path d="M66.8803 49.149C67.06 49.3887 67.7192 49.0891 68.5581 49.0891C69.3971 49.0291 70.1162 49.2089 70.236 48.9093C70.2959 48.7894 70.1761 48.5497 69.8765 48.37C69.5769 48.1902 69.0375 48.0104 68.4982 48.0703C67.899 48.1303 67.4196 48.31 67.1799 48.6097C66.8803 48.7894 66.8203 49.0291 66.8803 49.149Z" fill="#263238"/>
<path d="M63.1055 40.2224C64.244 42.7393 66.8807 46.5744 69.6972 46.8141C72.4537 47.1137 75.39 45.7954 77.0079 43.5183C77.4873 45.5557 79.8244 46.6344 81.8618 46.934C83.3599 47.1138 84.918 47.1137 86.2962 46.5145C87.6745 45.9153 88.813 44.7168 88.9928 43.2187C89.1726 41.7205 87.0153 38.185 85.5172 37.9453" fill="#263238"/>
<path d="M85.7552 77.3747C85.8751 79.7118 87.6728 81.8691 89.9499 82.4683C89.89 84.3859 91.3282 86.2435 93.1859 86.6031C95.0435 86.9626 97.1409 85.8241 97.8 84.0263C97.9798 83.547 98.0997 83.0676 98.3993 82.6481C99.1184 81.7492 100.497 81.929 101.575 81.5694C103.553 80.9103 104.392 78.5133 104.152 76.4759C104.092 76.0564 104.032 75.6369 104.092 75.2774C104.212 74.4384 104.871 73.8392 105.351 73.1201C107.328 70.3037 106.489 66.2288 104.332 63.5921C103.613 62.6932 102.654 61.7944 102.774 60.6558C102.834 59.9966 103.133 59.4573 103.373 58.8581C104.152 56.9405 103.553 54.5435 101.995 53.2252C101.755 53.0454 101.455 52.8057 101.396 52.5061C101.336 52.3263 101.396 52.0866 101.396 51.9068C101.755 48.8507 99.2982 45.7946 96.242 45.435C96.0622 45.435 95.8825 45.3751 95.7027 45.3152C95.2233 45.0755 95.2233 44.4163 95.1634 43.877C94.9836 42.4987 93.905 39.922 92.8862 39.0231C89.9499 36.5063 87.1335 38.5437 86.1148 39.5025C86.1148 39.5025 84.1373 49.4499 84.4968 51.3076C84.8564 53.1653 86.2346 57.7794 85.6953 59.8768C85.156 61.9742 84.2571 66.2887 85.0961 68.1464C85.935 70.004 85.7552 77.3747 85.7552 77.3747Z" fill="#263238"/>
<path d="M96.7245 45.3737C96.7245 45.3737 96.6046 45.4936 96.365 45.6734C96.1253 45.8531 95.7058 46.0928 95.2264 46.3925C94.2077 46.9318 92.7096 47.531 90.9718 47.7707C89.2339 48.0703 87.616 47.9505 86.4774 47.7707C85.9381 47.6509 85.4587 47.5909 85.1591 47.4711C84.8595 47.3513 84.6797 47.2913 84.6797 47.2913C84.6797 47.2314 85.3988 47.4112 86.4774 47.531C87.616 47.6509 89.174 47.7108 90.8519 47.4112C92.5298 47.1116 94.0279 46.5722 95.0466 46.0928C96.1253 45.6734 96.7245 45.3138 96.7245 45.3737Z" fill="#455A64"/>
<path d="M97.683 46.0352C97.683 46.0352 97.6231 46.2749 97.4433 46.6344C97.3834 46.8142 97.2636 47.0539 97.1437 47.2936C97.0239 47.5333 96.8441 47.8329 96.6643 48.1325C96.3048 48.7318 95.7655 49.4508 95.1063 50.11C94.4471 50.7692 93.6082 51.4883 92.7093 52.0875C91.7505 52.6868 90.8517 53.1662 89.9528 53.5257C89.0539 53.8253 88.215 54.065 87.4959 54.1849C87.1363 54.2448 86.8367 54.2448 86.5371 54.3047C86.2375 54.3646 85.9978 54.3646 85.818 54.3047C85.3985 54.3047 85.2188 54.3047 85.2188 54.2448C85.2188 54.1849 86.1176 54.1849 87.4959 53.9452C88.215 53.8253 88.994 53.5856 89.8929 53.2261C90.7917 52.8665 91.6906 52.3871 92.5895 51.8478C93.4883 51.2486 94.2673 50.5894 94.9265 49.9302C95.5857 49.2711 96.125 48.6119 96.5445 48.0127C97.3235 46.8741 97.6231 46.0352 97.683 46.0352Z" fill="#455A64"/>
<path d="M92.4676 83.0073C92.4676 83.0073 92.5875 83.0073 92.8272 82.9474C93.0669 82.8875 93.3665 82.7676 93.6661 82.468C93.9657 82.1684 94.2054 81.689 94.2054 81.0298C94.2054 80.4306 94.0257 79.7115 93.8459 78.9924C93.6661 78.2134 93.3665 77.3145 93.6661 76.3557C93.9657 75.3969 94.7448 74.6778 95.4039 73.8988C95.7635 73.4793 96.0631 73.1198 96.2429 72.6404C96.4226 72.161 96.4226 71.6217 96.1829 71.1423C95.9432 70.6629 95.5238 70.3034 95.0444 69.9438C94.565 69.5843 94.0856 69.2846 93.5463 68.9251C93.0669 68.5656 92.5875 68.0862 92.3478 67.4869C92.1081 66.8877 92.2279 66.2285 92.5276 65.6892C93.0669 64.6705 93.9657 63.8914 94.1455 62.9327C94.3852 61.9739 93.9058 61.0151 93.4264 60.2361C92.8871 59.517 92.2879 58.9177 91.6886 58.3784C91.0894 57.8391 90.61 57.2997 90.2504 56.8204C89.8909 56.281 89.5913 55.8016 89.4714 55.3822C89.3516 54.9627 89.3516 54.6032 89.3516 54.3635C89.3516 54.1238 89.4115 54.0039 89.4115 54.0039C89.4714 54.0039 89.2916 54.4833 89.5913 55.3222C89.831 56.1612 90.6699 57.1799 91.8684 58.1986C92.4676 58.7379 93.1268 59.3372 93.6661 60.0563C93.9657 60.4158 94.2054 60.8952 94.3852 61.3746C94.565 61.854 94.6249 62.3933 94.5051 62.9327C94.2654 64.0712 93.3665 64.8502 92.8272 65.809C92.5875 66.2884 92.4676 66.8277 92.6474 67.3671C92.8272 67.9064 93.2467 68.2659 93.726 68.6255C94.2054 68.985 94.7448 69.2846 95.2242 69.6442C95.7036 70.0037 96.183 70.4232 96.4226 70.9625C96.6623 71.5018 96.7223 72.161 96.4826 72.7003C96.2429 73.2397 95.8833 73.6591 95.5837 74.0786C94.8646 74.8576 94.1455 75.5767 93.8459 76.4157C93.5463 77.2546 93.786 78.1535 93.9657 78.8725C94.1455 79.6516 94.3253 80.3707 94.3253 81.0298C94.3253 81.689 94.0257 82.2283 93.6661 82.5279C93.3665 82.8276 93.007 83.0073 92.7673 83.0073C92.5875 83.0673 92.4676 83.0073 92.4676 83.0073Z" fill="#455A64"/>
<path d="M267.687 264.399C267.687 264.458 211.777 264.578 142.804 264.578C73.8314 264.578 17.9219 264.518 17.9219 264.399C17.9219 264.279 73.8314 264.219 142.804 264.219C211.777 264.219 267.687 264.279 267.687 264.399Z" fill="#263238"/>
</svg>
