<svg width="435" height="430" fill="none" xmlns="http://www.w3.org/2000/svg"><ellipse cx="207.742" cy="216.088" rx="207.613" ry="208.088" fill="#D0CFD3"/><mask id="a" style="mask-type:alpha" maskUnits="userSpaceOnUse" x="0" y="8" width="416" height="417"><ellipse cx="207.742" cy="216.088" rx="207.613" ry="208.088" fill="#C4C4CA"/></mask><g opacity=".2" stroke="#263238" stroke-linecap="round" stroke-linejoin="round" mask="url(#a)"><path d="M395.039 107v13.065h53.237m-27.124 3.013v15.069H388m8.048 5.018v12.055h43.187M362.997 8.488v13.05h53.237m-27.125 3.014V39.62h-33.151m8.033 5.033v12.055h43.202m-4.024-16.078h24.11m-38.17 22.106v17.073M206.28 338.991v13.065h53.238m-27.123 3.014v15.069h-33.151m8.031 5.017v12.055h43.202m-4.024-16.078h24.11m-38.168 22.106v17.073m33.151-60.275v-13.05m-31.148-4.023v-14.059m18.084 16.063h31.147m-311.427-16.063v12.055h43.202m-4.023-16.079h24.11m-5.017-21.096v-13.064m-13.064-2.005h31.146m220.003 96.44v13.065h53.238m-27.123 3.014v15.069h-33.151m8.047 5.017v12.055h43.187m-4.008-16.078h24.11m-5.035-21.096v-13.05m-31.131-4.023V355.07m18.081 16.063h31.132m-272.231 4.023v13.065h53.238m-27.123 3.014v15.069H66.639m8.031 5.017v12.055h43.202m-4.023-16.078h24.11m-5.019-21.096v-13.05m-31.146-4.023V355.07m18.082 16.063h31.147M-18.756 147.121h31.147m10.05-115.532v13.065H75.68m-27.124 3.013v15.069H15.404m8.032 5.018v12.055h43.202M62.615 63.73h24.11M48.556 85.836v17.073m33.151-60.275v-13.05M50.56 25.561V11.502m18.083 16.063H99.79m256.168 225.037v13.05h53.238m-27.124 3.014v15.068H348.92m8.047 5.033v12.055h43.187m-4.008-16.078h24.11m-38.184 22.106v17.072m33.153-60.274v-13.065m-31.133-4.008V232.5m18.082 16.079h31.132"/></g><path d="M255.355 338.869c14.484 0 26.225-11.741 26.225-26.225 0-14.483-11.741-26.225-26.225-26.225-14.483 0-26.225 11.742-26.225 26.225 0 14.484 11.742 26.225 26.225 26.225zm115.868-5.001l-.667-1.109c-5.649-9.495-16.022-15.237-26.951-14.69-1.427.033-2.816.233-4.224.506-9.966 2.044-18.673 9.421-22.341 19.005-2.131 5.659-2.798 12.077-6.837 16.55-5.243 5.818-14.079 5.871-21.877 5.558-7.799-.313-16.653-.185-21.877 5.558-3.28 3.645-4.354 8.863-4.17 13.771.592 13.007 9.612 24.76 21.134 30.634 11.521 5.874 25.136 6.551 37.788 4.164 17.783-3.372 34.697-13 44.997-27.974 10.245-15.067 12.97-35.629 5.025-51.973z" fill="#FBBAC5"/><path d="M126.987.798H31.589v138.345h95.398V.798z" fill="#E0E0E0"/><path d="M122.237.798H26.839v138.345h95.398V.798z" fill="#F5F5F5"/><path d="M110.359 15.715H38.621v108.32h71.738V15.715z" fill="#fff"/><path d="M110.359 124.035v-8.077c0-5.226 0-12.732-.095-22.329 0-19.098-.095-46.178-.095-78.009l.285.285H38.716L39 15.62c0 40.858 0 78.58-.095 108.32l-.19-.19c21.854 0 39.717.095 52.164.095 6.271 0 11.117 0 14.443.095h3.8a11.06 11.06 0 001.236.095h-4.941c-3.326 0-8.172 0-14.348.095-12.447 0-30.405.095-52.354.095h-.19v-.19c0-29.74 0-67.462-.095-108.32v-.285h72.309v.285c-.095 31.926-.095 59.006-.095 78.2 0 9.501-.095 17.102-.095 22.233v7.412c-.19.38-.19.475-.19.475z" fill="#E0E0E0"/><path d="M122.521.798c.095 0-.57.95-1.71 2.47a153.915 153.915 0 01-4.466 5.701c-1.805 2.186-3.516 4.086-4.751 5.511a90.574 90.574 0 01-2.09 2.186c-.095-.096.665-.95 1.805-2.376 1.235-1.52 2.85-3.42 4.561-5.606 1.71-2.09 3.325-3.99 4.561-5.606 1.235-1.52 1.995-2.375 2.09-2.28z" fill="#E0E0E0"/><path d="M110.739 123.75c3.515 5.702 7.791 10.927 12.542 15.678l-12.542-15.678z" fill="#fff"/><path d="M123.281 139.333c0 .095-.855-.666-2.185-1.996-1.236-1.33-2.946-3.135-4.751-5.321-1.71-2.185-3.136-4.275-4.181-5.796-.95-1.52-1.52-2.565-1.425-2.565.095 0 .665.855 1.805 2.375 1.045 1.52 2.566 3.516 4.276 5.701 1.71 2.186 3.326 4.086 4.561 5.416 1.14 1.33 1.9 2.186 1.9 2.186z" fill="#E0E0E0"/><path d="M26.84 138.953c4.18-5.131 8.36-10.262 12.542-15.393l-12.543 15.393z" fill="#fff"/><path d="M39.286 123.56c.095.095-2.566 3.611-6.081 7.887-3.42 4.275-6.366 7.601-6.461 7.506-.095-.095 2.565-3.611 6.08-7.887 3.516-4.275 6.367-7.601 6.462-7.506zM26.84.798c.095-.095 2.85 3.136 6.08 7.221 3.231 4.086 5.797 7.507 5.702 7.602-.095.095-2.85-3.136-6.081-7.222C29.215 4.22 26.745.893 26.84.798zM88.03 37.76H63.99v68.127h24.04V37.759z" fill="#E0E0E0"/><path d="M371.656 298.771H201.385v78.485h170.271v-78.485z" fill="#F5F5F5"/><path d="M367.665 373.645H205.281v-70.693H367.57v70.693h.095zm-161.244-1.14H366.62v-68.603H206.421v68.603zm206.853-73.734h-41.618v78.485h41.618v-78.485z" fill="#E0E0E0"/><path d="M205.851 324.806h161.244c.285 0 .285-.38 0-.38H205.851c-.285-.095-.285.38 0 .38z" fill="#E0E0E0"/><path d="M286.996 324.616c.475-6.936.475-14.347.095-21.284 0-.285-.381-.285-.476 0-.38 6.937-.475 14.348.095 21.284 0 .19.286.19.286 0zm43.423-10.737a2.151 2.151 0 01-2.186 2.186 2.15 2.15 0 01-2.185-2.186 2.15 2.15 0 012.185-2.185c1.235 0 2.186 1.045 2.186 2.185zm-84.661 0a2.15 2.15 0 01-2.185 2.186 2.15 2.15 0 01-2.186-2.186c0-1.235.95-2.185 2.186-2.185 1.235 0 2.185 1.045 2.185 2.185zm42.948 24.42c0 1.235-.95 2.185-2.186 2.185a2.15 2.15 0 01-2.185-2.185c0-1.236.95-2.186 2.185-2.186a2.15 2.15 0 012.186 2.186zm-66.892 38.957l-8.837 49.314h4.941l16.153-49.314h-12.257zm137.87 0L367 426.665h-4.941l-14.727-49.409h12.352zm32.876 0l8.266 49.409h-4.941l-15.677-49.409h12.352zm-104.044-16.818c0 1.235-.95 2.185-2.186 2.185a2.15 2.15 0 01-2.185-2.185 2.15 2.15 0 012.185-2.186c1.236 0 2.186 1.046 2.186 2.186zm-82.665-11.308h161.244c.285 0 .285-.38 0-.38H205.851c-.285-.095-.285.38 0 .38zm99.778 53.25l-.052-9.787-47.889.253.052 9.787 47.889-.253z" fill="#E0E0E0"/><path d="M311.331 426.867l-.08-15.108-53.304.282.08 15.108 53.304-.282z" fill="#F5F5F5"/><path d="M301.058 426.855c-.19 0-.285-3.421-.285-7.601 0-4.181.095-7.602.285-7.602.191 0 .286 3.421.286 7.602 0 4.18-.095 7.601-.286 7.601zm2.281 0c-.19 0-.285-3.421-.285-7.601 0-4.181.095-7.602.285-7.602.19 0 .285 3.421.285 7.602-.095 4.18-.19 7.601-.285 7.601zm-37.342 0c-.19 0-.285-3.421-.285-7.601 0-4.181.095-7.602.285-7.602.19 0 .285 3.421.285 7.602 0 4.18-.095 7.601-.285 7.601zm2.281 0c-.19 0-.285-3.421-.285-7.601 0-4.181.095-7.602.285-7.602.19 0 .285 3.421.285 7.602 0 4.18-.19 7.601-.285 7.601zm4.846-7.316c0-.19 5.416-.285 11.972-.285 6.651 0 11.972.095 11.972.285 0 .19-5.416.285-11.972.285-6.556-.095-11.972-.19-11.972-.285z" fill="#E0E0E0"/><path d="M331.347 411.748l-.052-9.787-65.847.347.052 9.787 65.847-.347z" fill="#EBEBEB"/><path d="M321.962 410.512c-1.71 0-3.135-1.425-3.135-3.135 0-1.711 1.425-3.136 3.135-3.136 1.711 0 3.136 1.425 3.136 3.136 0 1.71-1.425 3.135-3.136 3.135zm-8.582-2.206v-1.9h-44.088v1.9h44.088z" fill="#E0E0E0"/><path d="M421.445 13.72H168.224v253.221h253.221V13.721z" fill="#fff"/><path d="M421.445 266.941c0-1.805-.095-101.383-.19-253.22l.19.19H168.224l.285-.286v253.221l-.19-.19c151.743.19 251.226.285 253.126.285-1.805 0-101.383.095-253.221.19h-.19V13.435H421.73v.19c-.19 151.933-.285 251.511-.285 253.316z" fill="#263238"/><path d="M243.383 45.93h2.755v5.322c-1.425 1.045-3.42 1.71-5.321 1.71-4.086 0-7.126-2.85-7.126-6.746 0-3.896 3.04-6.746 7.221-6.746 2.281 0 4.181.76 5.511 2.28l-1.995 1.806c-.95-1.046-2.091-1.52-3.421-1.52-2.565 0-4.276 1.71-4.276 4.18 0 2.47 1.711 4.18 4.276 4.18.855 0 1.616-.19 2.376-.57v-3.895zm15.202 2.567h-7.601c.285 1.235 1.33 1.995 2.85 1.995 1.046 0 1.806-.285 2.566-.95l1.52 1.71c-.95 1.045-2.375 1.615-4.181 1.615-3.515 0-5.796-2.185-5.796-5.225 0-3.041 2.281-5.227 5.416-5.227 2.946 0 5.226 1.996 5.226 5.227v.855zm-7.696-1.71h4.941c-.19-1.236-1.14-2.091-2.471-2.091-1.33 0-2.28.76-2.47 2.09zm16.153 5.415c-.57.475-1.52.666-2.375.666-2.376 0-3.801-1.236-3.801-3.611v-4.18h-1.52v-2.281h1.52v-2.47h2.946v2.47h2.47v2.28h-2.47v4.086c0 .855.475 1.33 1.235 1.33.475 0 .855-.095 1.14-.38l.855 2.09zm6.651-12.637c0-.95.76-1.615 1.806-1.615 1.045 0 1.805.665 1.805 1.615s-.76 1.71-1.805 1.71c-1.141-.095-1.806-.76-1.806-1.71zm.38 3.04h2.946v10.072h-2.946V42.606zm15.963 4.276v5.796h-2.945v-5.32c0-1.616-.761-2.376-2.091-2.376-1.425 0-2.375.855-2.375 2.755v5.036h-2.946V42.606h2.756v1.14c.76-.855 1.995-1.33 3.325-1.33 2.471 0 4.276 1.425 4.276 4.465zm14.443 5.321c-.57.475-1.521.666-2.376.666-2.375 0-3.8-1.236-3.8-3.611v-4.18h-1.521v-2.281h1.521v-2.47h2.945v2.47h2.471v2.28h-2.471v4.086c0 .855.475 1.33 1.235 1.33.475 0 .855-.095 1.14-.38l.856 2.09zm.57-4.56c0-3.041 2.375-5.227 5.511-5.227 3.23 0 5.511 2.186 5.511 5.227 0 3.04-2.281 5.225-5.511 5.225-3.136 0-5.511-2.185-5.511-5.225zm8.076 0c0-1.71-1.14-2.756-2.565-2.756s-2.566 1.045-2.566 2.755 1.141 2.756 2.566 2.756c1.52.095 2.565-1.045 2.565-2.755zm15.108-5.036v10.072h-2.756v-1.236c-.76.855-1.9 1.33-3.135 1.33-2.566 0-4.276-1.425-4.276-4.56V42.51h2.945v5.226c0 1.71.761 2.47 2.091 2.47s2.28-.855 2.28-2.755v-4.846h2.851zm1.996 5.036c0-3.041 2.375-5.227 5.606-5.227 2.09 0 3.8.95 4.56 2.566l-2.28 1.235c-.57-.95-1.33-1.425-2.28-1.425-1.521 0-2.661 1.045-2.661 2.756 0 1.805 1.14 2.755 2.661 2.755.95 0 1.71-.38 2.28-1.425l2.28 1.235c-.76 1.615-2.375 2.565-4.56 2.565-3.326.19-5.606-1.995-5.606-5.035zm22.043-.761v5.796h-2.945v-5.32c0-1.616-.76-2.376-2.091-2.376-1.425 0-2.375.855-2.375 2.755v5.036h-2.945V38.805h2.945v4.846c.76-.76 1.9-1.236 3.231-1.236 2.375 0 4.18 1.426 4.18 4.466z" fill="#BF2343"/><path d="M361.964 62.939c0 .095-30.975.285-69.172.285-38.197 0-69.173-.095-69.173-.285 0-.095 30.976-.285 69.173-.285 38.292 0 69.172.19 69.172.285zm22.424 43.613v-3.705c0-2.376 0-5.986-.095-10.642l.095.095c-28.79 0-100.053.095-183.288.19l.285-.285v14.347l-.285-.285c51.215 0 97.013.095 129.984.095 16.533 0 29.835.095 38.957.095h13.302c.665.095 1.045.095 1.045.095h-14.252c-9.217 0-22.424 0-38.957.095-33.066 0-78.864.095-130.174.095h-.285V92.015h.285c83.235.095 154.403.095 183.288.19h.095v.095c0 4.656 0 8.266-.095 10.737v2.755c.095.475.095.76.095.76zM205.376 82.133v4.18h-.76l-2.091-2.565v2.566h-.95v-4.181h.76l2.091 2.565v-2.565h.95zm3.801 2.375v1.806h-.855v-.38c-.19.285-.475.475-.951.475-.76 0-1.235-.38-1.235-.95s.38-.95 1.33-.95h.761c0-.38-.285-.666-.761-.666-.38 0-.665.095-.95.285l-.38-.665c.38-.285.855-.38 1.425-.38 1.046 0 1.616.475 1.616 1.425zm-.95.76v-.285h-.666c-.475 0-.57.19-.57.38s.19.38.57.38c.286 0 .571-.19.666-.475zm7.126-.76v1.806h-.95v-1.71c0-.476-.191-.76-.571-.76-.38 0-.665.284-.665.854v1.616h-.95v-1.71c0-.476-.19-.76-.57-.76-.38 0-.665.284-.665.854v1.616h-.95v-3.231h.855v.38c.285-.285.57-.38 1.045-.38s.855.19 1.045.57c.285-.285.665-.57 1.14-.57.761 0 1.236.38 1.236 1.425zm3.99.476h-2.375c.095.38.475.665.95.665.38 0 .57-.095.76-.285l.475.57c-.285.38-.76.475-1.33.475-1.14 0-1.805-.665-1.805-1.616 0-.95.76-1.615 1.71-1.615s1.71.665 1.71 1.615c0 0-.095.095-.095.19zm-2.375-.57h1.615c-.095-.38-.38-.666-.76-.666-.475 0-.855.285-.855.665zm167.42 57.96v-3.706c0-2.375 0-5.986-.095-10.642l.095.095c-28.79 0-100.053.095-183.288.19l.285-.285v14.348l-.285-.285c51.215 0 97.013.095 129.984.095 16.533 0 29.835.095 38.957.095h13.302a8.225 8.225 0 001.045.095h-14.252c-9.217 0-22.424 0-38.957.095-33.066 0-78.864.095-130.174.095h-.285v-14.823h.285c83.235.095 154.403.095 183.288.19h.095v.095c0 4.656 0 8.267-.095 10.737v2.756c.095.57.095.855.095.855zm.001 71.833v-14.823c0-9.597-.095-23.659-.095-41.427l.19.19c-43.138 0-109.27.095-183.288.095l.285-.285v56.345l-.285-.285c52.639 0 98.437.095 131.028.095 16.343 0 29.361.095 38.387.095h12.923-12.923c-8.931 0-21.949 0-38.292.095-32.686 0-78.484.095-131.219.095h-.285v-56.916h.285c74.019 0 140.151.095 183.289.095h.19v.19c0 17.769-.095 31.831-.095 41.523v13.873c-.095.76-.095 1.045-.095 1.045zM204.806 121.28v.76h-3.231v-4.181h3.136v.761h-2.186v.95h1.901v.76h-1.901v.95h2.281zm6.081-1.046v1.806h-.95v-1.711c0-.475-.19-.76-.57-.76-.38 0-.666.285-.666.855v1.616h-.95v-1.711c0-.475-.19-.76-.57-.76-.38 0-.665.285-.665.855v1.616h-.95v-3.231h.855v.38c.285-.285.57-.38 1.045-.38s.855.19 1.045.57c.286-.285.666-.57 1.141-.57.76 0 1.235.475 1.235 1.425zm3.705 0v1.806h-.855v-.38c-.19.285-.475.475-.95.475-.76 0-1.235-.38-1.235-.95 0-.571.38-.951 1.33-.951h.76c0-.38-.285-.665-.76-.665-.38 0-.665.095-.95.285l-.38-.665c.38-.285.855-.38 1.425-.38 1.045 0 1.615.475 1.615 1.425zm-.95.856v-.286h-.665c-.475 0-.57.19-.57.381 0 .19.19.38.57.38.285-.095.57-.19.665-.475zm1.616-3.136c0-.285.19-.475.57-.475.38 0 .57.19.57.475s-.19.57-.57.57c-.285-.095-.57-.285-.57-.57zm.19.95h.95v3.231h-.95v-3.231zm1.71-1.235h.95v4.371h-.95v-4.371zm6.366 2.565v1.806h-.855v-.38c-.19.285-.475.475-.95.475-.761 0-1.236-.38-1.236-.95 0-.571.38-.951 1.331-.951h.76c0-.38-.285-.665-.76-.665-.38 0-.665.095-.951.285l-.38-.665c.38-.285.856-.38 1.426-.38 1.045 0 1.615.475 1.615 1.425zm-.95.856v-.286h-.665c-.475 0-.57.19-.57.381 0 .19.19.38.57.38.285-.095.57-.19.665-.475zm5.036-3.421v4.371h-.855v-.38c-.19.285-.57.38-1.045.38-.951 0-1.616-.665-1.616-1.616 0-1.045.665-1.615 1.616-1.615.38 0 .76.095.95.38v-1.52h.95zm-.855 2.85c0-.57-.38-.855-.855-.855a.852.852 0 00-.856.855c0 .571.38.856.856.856.475 0 .855-.38.855-.856zm4.941-2.85v4.371h-.855v-.38c-.19.285-.57.38-1.046.38-.95 0-1.615-.665-1.615-1.616 0-1.045.665-1.615 1.615-1.615.381 0 .761.095.951.38v-1.52h.95zm-.855 2.85c0-.57-.38-.855-.855-.855a.852.852 0 00-.856.855c0 .571.38.856.856.856.475 0 .855-.38.855-.856zm3.705-1.71v.855h-.19c-.475 0-.855.285-.855.855v1.521h-.95v-3.231h.855v.38c.285-.19.665-.38 1.14-.38zm3.706 1.901h-2.376c.095.38.476.665.951.665.38 0 .57-.095.76-.285l.475.57c-.285.38-.76.475-1.33.475-1.141 0-1.806-.665-1.806-1.615 0-.951.76-1.616 1.711-1.616.95 0 1.71.665 1.71 1.616-.095 0-.095.095-.095.19zm-2.471-.475h1.616c-.095-.381-.38-.666-.76-.666-.475 0-.761.19-.856.666zm2.756 1.52l.285-.665c.285.19.76.285 1.14.285.475 0 .57-.095.57-.285 0-.571-1.9 0-1.9-1.236 0-.57.57-1.045 1.52-1.045.475 0 .951.095 1.236.285l-.285.665a1.836 1.836 0 00-.951-.285c-.38 0-.57.095-.57.285 0 .57 1.901 0 1.901 1.235 0 .571-.57 1.046-1.521 1.046-.57.095-1.14-.095-1.425-.285zm3.135 0l.285-.665c.285.19.761.285 1.141.285.475 0 .57-.095.57-.285 0-.571-1.901 0-1.901-1.236 0-.57.57-1.045 1.521-1.045.475 0 .95.095 1.235.285l-.285.665a1.833 1.833 0 00-.95-.285c-.38 0-.57.095-.57.285 0 .57 1.9 0 1.9 1.235 0 .571-.57 1.046-1.52 1.046-.57.095-1.141-.095-1.426-.285zm-36.296 31.451v-2.471l-1.235 2.091h-.475l-1.235-1.996v2.471h-.951v-4.276h.761l1.52 2.565 1.52-2.565h.76v4.181h-.665zm4.941-1.33h-2.376c.095.38.475.665.951.665.38 0 .57-.095.76-.285l.475.57c-.285.38-.76.475-1.33.475-1.141 0-1.806-.665-1.806-1.615 0-.951.76-1.616 1.711-1.616.95 0 1.71.665 1.71 1.616-.095 0-.095.095-.095.19zm-2.471-.57h1.616c-.095-.381-.38-.666-.76-.666-.476 0-.761.285-.856.666zm2.756 1.615l.285-.665c.285.19.76.285 1.14.285.475 0 .57-.095.57-.285 0-.571-1.9 0-1.9-1.236 0-.57.57-1.045 1.52-1.045.475 0 .951.095 1.236.285l-.285.665a1.839 1.839 0 00-.951-.285c-.38 0-.57.095-.57.285 0 .57 1.901 0 1.901 1.235 0 .571-.571 1.046-1.521 1.046-.57 0-1.045-.095-1.425-.285zm3.231 0l.285-.665c.285.19.76.285 1.14.285.475 0 .57-.095.57-.285 0-.571-1.9 0-1.9-1.236 0-.57.57-1.045 1.52-1.045.475 0 .95.095 1.235.285l-.285.665a1.833 1.833 0 00-.95-.285c-.38 0-.57.095-.57.285 0 .57 1.9 0 1.9 1.235 0 .571-.57 1.046-1.52 1.046-.665 0-1.14-.095-1.425-.285zm6.271-1.521v1.806h-.855v-.38c-.19.285-.475.475-.95.475-.76 0-1.236-.38-1.236-.95 0-.571.381-.951 1.331-.951h.76c0-.38-.285-.665-.76-.665-.38 0-.665.095-.95.285l-.381-.665c.381-.285.856-.38 1.426-.38 1.045 0 1.615.38 1.615 1.425zm-.95.76v-.285h-.665c-.475 0-.57.19-.57.381 0 .19.19.38.57.38.285 0 .57-.19.665-.476zm5.13-2.185v2.661c0 1.235-.665 1.71-1.805 1.71-.57 0-1.235-.19-1.615-.475l.38-.665c.285.19.76.38 1.14.38.665 0 .95-.285.95-.855v-.095c-.285.285-.57.38-1.045.38-.855 0-1.615-.57-1.615-1.521 0-.95.76-1.52 1.615-1.52.475 0 .855.19 1.045.475v-.475h.95zm-.95 1.52c0-.475-.38-.76-.855-.76s-.855.285-.855.76c0 .475.38.761.855.761s.855-.286.855-.761zm4.941.381H225.9c.095.38.475.665.95.665.38 0 .57-.095.76-.285l.475.57c-.285.38-.76.475-1.33.475-1.14 0-1.805-.665-1.805-1.615 0-.951.76-1.616 1.71-1.616s1.71.665 1.71 1.616c-.095 0-.095.095-.095.19zm-2.47-.57h1.615c-.095-.381-.38-.666-.76-.666-.475 0-.76.285-.855.666z" fill="#263238"/><path d="M373.937 248.793h-47.699c-6.366 0-11.592-5.226-11.592-11.593 0-6.366 5.226-11.592 11.592-11.592h47.699c6.366 0 11.592 5.226 11.592 11.592 0 6.367-5.131 11.593-11.592 11.593z" fill="#BF2343"/><path d="M339.635 239.006l.475-.951c.475.381 1.141.571 1.901.571s1.045-.285 1.045-.571c0-1.045-3.231-.285-3.231-2.375 0-.95.76-1.71 2.376-1.71.665 0 1.425.19 1.995.475l-.38.95c-.57-.285-1.045-.475-1.52-.475-.76 0-1.045.285-1.045.665 0 1.045 3.23.285 3.23 2.375 0 .951-.76 1.711-2.375 1.711-1.045 0-1.996-.285-2.471-.665zm9.692-1.235h-3.231c.095.57.57.855 1.236.855.475 0 .76-.095 1.045-.38l.665.76c-.38.475-1.045.665-1.805.665-1.521 0-2.471-.95-2.471-2.185 0-1.331.95-2.186 2.281-2.186 1.235 0 2.28.855 2.28 2.281v.19zm-3.231-.76h2.091c-.095-.57-.475-.856-1.045-.856-.571 0-.951.286-1.046.856zm8.552.094v2.471h-1.235v-2.281c0-.665-.285-1.045-.855-1.045-.57 0-1.045.38-1.045 1.14v2.186h-1.236v-4.371h1.236v.475c.38-.38.855-.57 1.425-.57.95.095 1.71.665 1.71 1.995zm5.606-3.515v5.986h-1.235v-.475c-.285.38-.76.57-1.33.57-1.235 0-2.186-.855-2.186-2.185 0-1.331.951-2.186 2.186-2.186.57 0 .95.19 1.33.57v-2.28h1.235zm-1.235 3.801c0-.761-.475-1.236-1.14-1.236-.665 0-1.14.475-1.14 1.236 0 .76.475 1.235 1.14 1.235.665 0 1.14-.475 1.14-1.235z" fill="#fff"/><path d="M199.77 33.674c0 .095-.76-.19-2.185-.095-1.426.095-3.516.475-5.416 2.185-.951.855-1.806 1.9-2.376 3.23-.57 1.331-.855 2.946-.57 4.562.095.855.38 1.615.665 2.375.38.76.855 1.52 1.425 2.185 1.141 1.33 2.851 2.28 4.656 2.756 1.806.38 3.801.19 5.416-.57.855-.38 1.52-.855 2.186-1.425.665-.57 1.235-1.236 1.615-1.9.855-1.331 1.33-2.946 1.33-4.372.095-1.425-.285-2.85-.76-3.99-1.045-2.28-2.756-3.611-3.991-4.181-1.235-.57-1.995-.76-1.995-.76s.76.095 2.09.665c1.236.57 3.136 1.9 4.181 4.276.57 1.14.95 2.565.855 4.085-.095 1.52-.475 3.136-1.425 4.656a8.642 8.642 0 01-1.71 1.996c-.665.57-1.426 1.14-2.281 1.52-1.71.76-3.705 1.045-5.701.57-1.9-.475-3.705-1.52-4.941-2.946-.665-.665-1.14-1.52-1.52-2.28-.38-.855-.57-1.71-.76-2.565-.285-1.71.095-3.326.665-4.751a8.26 8.26 0 012.47-3.326 8.607 8.607 0 015.606-2.09c1.711-.095 2.471.19 2.471.19z" fill="#BF2343"/><path d="M194.829 34.054c.095-.095 2.091 3.42 4.276 7.696 2.28 4.276 3.991 7.886 3.896 7.886-.095.095-1.996-3.42-4.276-7.696-2.281-4.276-4.086-7.791-3.896-7.886zm1.805-.475c.095-.095 1.995 3.23 4.181 7.411 2.185 4.18 3.801 7.601 3.705 7.696-.095.095-1.995-3.23-4.18-7.411-2.186-4.276-3.896-7.696-3.706-7.696zm2.091 0c.095-.095 1.805 2.85 3.705 6.556 1.901 3.706 3.326 6.651 3.231 6.746-.095.095-1.805-2.85-3.706-6.556-1.9-3.706-3.42-6.651-3.23-6.746zm2.28.38c.095-.095 1.425 2.28 3.041 5.226 1.52 2.945 2.66 5.416 2.565 5.416-.095.095-1.425-2.28-3.04-5.226-1.616-2.946-2.756-5.416-2.566-5.416zm-7.886 1.14c.095-.095 2.09 3.42 4.275 7.696 2.281 4.276 3.991 7.887 3.896 7.887-.095.095-1.995-3.42-4.276-7.697-2.28-4.275-3.99-7.79-3.895-7.886zm-1.616 1.045c.095-.095 2.091 3.42 4.276 7.696 2.28 4.276 3.991 7.887 3.896 7.887-.095.095-1.996-3.42-4.276-7.697-2.28-4.275-3.991-7.791-3.896-7.886zm-1.235 1.711c.095-.095 1.805 2.945 3.706 6.65 1.9 3.707 3.42 6.747 3.325 6.842-.095.095-1.805-2.945-3.705-6.651-1.996-3.706-3.516-6.841-3.326-6.841zm-1.045 2.28c.095-.095 1.425 2.28 2.945 5.226 1.521 2.946 2.661 5.321 2.566 5.416-.095.095-1.425-2.28-2.946-5.226-1.52-2.946-2.66-5.32-2.565-5.416zm80.48 197.065c-.095 0-.38-.665-1.33-1.71-.951-1.045-2.566-2.375-5.131-2.755-1.236-.19-2.661-.19-3.991.285-1.425.475-2.756 1.235-3.896 2.47-.57.57-1.045 1.33-1.425 2.091-.38.76-.665 1.615-.76 2.47-.285 1.71 0 3.611.855 5.321a8.637 8.637 0 003.801 3.801c.76.38 1.615.665 2.47.855.855.19 1.71.19 2.471.095a9.042 9.042 0 004.275-1.71c1.141-.856 1.996-1.996 2.566-3.136 1.14-2.28 1.045-4.371.76-5.796-.285-1.615-.665-2.281-.665-2.281s.475.666.855 2.091c.38 1.33.475 3.61-.57 5.986-.57 1.14-1.425 2.375-2.566 3.326-1.235.95-2.755 1.615-4.465 1.9a12.45 12.45 0 01-2.661 0 7.254 7.254 0 01-2.66-.855c-1.711-.855-3.136-2.281-4.086-3.991-.855-1.805-1.235-3.801-.855-5.606.095-.95.475-1.805.855-2.565.38-.761.95-1.521 1.52-2.186 1.14-1.235 2.661-2.09 4.086-2.565a7.907 7.907 0 014.181-.19c2.565.475 4.275 1.9 5.131 3.04 1.045.855 1.235 1.615 1.235 1.615z" fill="#BF2343"/><path d="M266.282 233.59c.095.095-1.33 3.705-3.231 8.171-1.9 4.466-3.515 8.077-3.705 7.982-.095-.095 1.33-3.706 3.23-8.172 1.901-4.466 3.516-8.076 3.706-7.981zm1.52 1.045c.095.095-1.235 3.611-3.135 7.982-1.806 4.37-3.421 7.791-3.611 7.791-.095-.095 1.235-3.611 3.136-7.981 1.9-4.371 3.515-7.887 3.61-7.792zm1.331 1.615c.095.096-1.046 3.136-2.661 6.937-1.615 3.8-3.04 6.841-3.135 6.746-.095-.095 1.045-3.136 2.66-6.936 1.615-3.706 3.041-6.747 3.136-6.747zm1.14 1.996c.095.095-.855 2.565-2.091 5.606-1.33 3.04-2.47 5.511-2.565 5.416-.095-.095.855-2.566 2.09-5.606 1.331-3.041 2.471-5.511 2.566-5.416zm-5.891-5.321c.095.095-1.331 3.705-3.231 8.171-1.9 4.466-3.516 8.077-3.706 7.982-.095-.095 1.331-3.706 3.231-8.172 1.995-4.371 3.611-7.981 3.706-7.981zm-1.806-.571c.095.096-1.33 3.706-3.23 8.172-1.9 4.466-3.516 8.076-3.706 7.981-.095-.095 1.33-3.705 3.231-8.171 1.9-4.466 3.61-7.982 3.705-7.982zm-2.09.096c.095.095-1.14 3.23-2.756 7.126-1.615 3.896-3.04 6.936-3.23 6.936-.095-.095 1.14-3.23 2.755-7.126 1.616-3.896 3.041-7.031 3.231-6.936zm-2.471.665c.095.095-.855 2.565-2.09 5.606-1.33 3.04-2.47 5.511-2.565 5.416-.095-.095.855-2.566 2.09-5.606 1.33-3.041 2.47-5.416 2.565-5.416zM401.492 56.288c-.095 0 0-1.425-.57-3.99-.285-1.236-.856-2.756-1.806-4.277-.95-1.52-2.28-3.23-4.086-4.56-1.805-1.33-4.18-2.566-6.841-3.041-2.66-.475-5.606-.38-8.456.76a14.155 14.155 0 00-4.086 2.185c-.665.475-1.235 1.046-1.805 1.52-.57.57-1.141 1.14-1.616 1.901-1.995 2.66-3.135 5.986-3.135 9.502 0 3.515 1.14 6.841 3.135 9.502.475.665 1.046 1.235 1.616 1.9.57.57 1.14 1.14 1.805 1.52 1.235.95 2.66 1.71 4.086 2.186 2.85 1.045 5.796 1.14 8.456.76 2.661-.475 4.941-1.616 6.841-3.04 1.806-1.426 3.231-3.041 4.086-4.562.95-1.52 1.521-3.04 1.806-4.276.57-2.565.475-3.99.57-3.99v1.045c0 .38 0 .76-.095 1.235-.095.475-.095 1.045-.285 1.71-.285 1.236-.856 2.756-1.806 4.371-.95 1.616-2.28 3.326-4.18 4.751-1.901 1.425-4.181 2.66-6.937 3.136-2.66.475-5.796.38-8.646-.665a13.925 13.925 0 01-4.181-2.28c-.665-.476-1.235-1.046-1.9-1.616a15.514 15.514 0 01-1.616-1.9c-1.995-2.66-3.23-6.177-3.23-9.787 0-3.61 1.14-7.127 3.23-9.787a15.514 15.514 0 013.516-3.516 19.98 19.98 0 014.181-2.28c2.945-1.14 5.986-1.14 8.646-.665 2.756.475 5.036 1.71 6.937 3.135 1.9 1.426 3.23 3.136 4.18 4.751.95 1.616 1.521 3.136 1.806 4.371.19.665.285 1.235.285 1.71.095.476.095.95.095 1.236v1.045z" fill="#BF2343"/><path d="M398.831 47.451c.095.095-5.416 4.846-12.162 10.547-6.841 5.701-12.447 10.262-12.542 10.167-.095-.095 5.416-4.846 12.162-10.547 6.841-5.701 12.447-10.262 12.542-10.167zm1.616 3.041c.095.095-5.226 4.656-11.783 10.167-6.651 5.51-12.067 9.881-12.162 9.786-.095-.095 5.226-4.655 11.782-10.166 6.652-5.512 12.068-9.882 12.163-9.787zm.76 3.8c.095.095-4.561 4.086-10.357 8.932-5.796 4.846-10.547 8.646-10.642 8.551-.095-.095 4.561-4.085 10.357-8.931 5.796-4.846 10.547-8.647 10.642-8.552zm.285 4.181c.095.095-3.611 3.325-8.267 7.221-4.656 3.896-8.552 7.031-8.647 6.841-.095-.095 3.611-3.325 8.267-7.22 4.656-3.897 8.552-6.937 8.647-6.842zm-5.226-13.493c.095.096-5.416 4.846-12.162 10.547-6.842 5.701-12.448 10.262-12.543 10.167-.095-.095 5.416-4.846 12.162-10.547 6.842-5.7 12.448-10.262 12.543-10.166zm-2.471-2.47c.095.095-5.416 4.846-12.162 10.547-6.841 5.701-12.447 10.262-12.542 10.167-.095-.095 5.416-4.846 12.162-10.547 6.841-5.796 12.447-10.262 12.542-10.167zm-3.515-1.71c.095.095-4.656 4.18-10.547 9.122-5.891 4.94-10.737 8.836-10.832 8.741-.095-.095 4.656-4.18 10.547-9.121 5.891-4.941 10.737-8.837 10.832-8.742zm-4.466-.855c.095.095-3.611 3.325-8.267 7.22-4.655 3.897-8.456 6.937-8.551 6.842-.095-.095 3.611-3.325 8.266-7.221 4.656-3.896 8.457-6.937 8.552-6.841zm-18.054-4.941a3.04 3.04 0 10.001-6.08 3.04 3.04 0 00-.001 6.08zM283.1 231.879c0 1.711-1.33 3.041-3.04 3.041-1.711 0-3.041-1.33-3.041-3.041 0-1.71 1.33-3.04 3.041-3.04 1.71 0 3.04 1.425 3.04 3.04z" fill="#BF2343"/><path d="M139.339 71.11c-.665-4.846-4.941-8.836-9.692-9.216-1.235-.095-2.565 0-3.8-.38-.951-.38-1.806-1.046-2.661-1.52-2.945-1.616-6.936-.76-9.026 1.9-1.901 2.47-2.756-.95-7.317 1.71-3.801 2.28-1.805 5.416-1.805 5.416-3.896-.19-7.697 2.85-8.362 6.746-.475 2.47.095 5.416-1.9 7.031-.95.76-2.185.95-3.136 1.71-1.805 1.331-1.805 3.992-1.425 6.177.38 2.185 1.045 4.56.285 6.651-1.33 3.421-6.176 4.751-6.841 8.362-.285 1.71.475 3.8-.76 5.035-.475.476-1.14.761-1.805 1.046-2.566 1.235-4.276 3.99-4.371 6.746-.095 2.85 1.52 5.606 3.99 6.936.666.38 1.52.76 1.806 1.425.285.856-.285 1.711-.665 2.471-1.426 2.85-.76 6.651 1.615 8.836 2.375 2.186 6.176 2.471 8.932.856 1.425 2.565 3.99 4.56 6.84 5.416 1.331.38 2.756.475 4.087.095 1.045-.285 1.995-.951 2.755-1.711 3.991-3.42 9.502-8.741 9.882-13.967" fill="#263238"/><path d="M102.947 90.209c0 .095-.665.095-1.805 0-1.14-.19-2.66-.665-4.086-1.615-1.425-.95-2.565-2.186-3.135-3.136-.57-.95-.855-1.615-.76-1.615.095 0 .38.57 1.045 1.425.665.855 1.71 1.995 3.135 2.946 1.426.95 2.851 1.425 3.896 1.615 1.045.19 1.71.285 1.71.38zm2.661-12.068s-.38.57-1.14 1.14c-.855.666-2.091 1.33-3.706 1.71-1.52.38-3.04.38-4.086.19-1.045-.19-1.615-.38-1.615-.474 0-.19 2.565.57 5.511-.19 3.041-.665 4.941-2.47 5.036-2.376zM86.13 137.622h-.19c-.096 0-.286-.095-.476-.095-.38-.19-.95-.38-1.615-.95-.665-.475-1.33-1.235-1.9-2.28-.475-1.045-.76-2.471-.475-3.896.19-.76.38-1.425.855-2.185.38-.665 1.045-1.331 1.71-1.901.665-.57 1.33-1.14 1.71-1.9.476-.76.476-1.615.095-2.47-.38-.856-1.045-1.521-1.71-2.281-.285-.38-.665-.76-.855-1.235-.285-.475-.38-1.045-.475-1.52-.285-2.186.76-4.561 2.945-5.606 1.046-.475 2.186-.475 3.23-.761.476-.095.951-.285 1.331-.57s.665-.665.76-1.14c.285-.95 0-1.9-.285-2.85-.38-.856-.855-1.711-1.235-2.661-.38-.95-.475-1.9-.19-2.85.285-.95.95-1.616 1.615-2.186 1.426-1.045 3.04-1.425 4.371-1.805 1.33-.38 2.566-.855 3.42-1.615.856-.76 1.331-1.616 1.426-2.376.19-.76 0-1.425-.19-1.805-.19-.38-.38-.57-.285-.57 0 0 .19.095.38.475s.38 1.045.285 1.805c-.095.855-.57 1.805-1.425 2.566-.855.76-2.186 1.235-3.516 1.71-1.33.38-2.945.855-4.276 1.805-.665.475-1.235 1.14-1.425 1.996-.285.855-.095 1.71.19 2.565.285.855.855 1.71 1.235 2.661.38.95.665 1.995.38 3.135-.19.57-.475 1.045-.95 1.425-.475.38-1.045.571-1.52.666-1.045.285-2.185.285-3.136.76-1.9.855-2.945 3.135-2.66 5.036.095.475.19.95.475 1.33.19.38.57.855.855 1.235.57.76 1.33 1.52 1.71 2.375.476.951.38 2.091-.094 2.851-.476.855-1.236 1.425-1.806 1.995-.665.57-1.235 1.141-1.615 1.711a9.02 9.02 0 00-.855 1.995 6.03 6.03 0 00.38 3.706 6.486 6.486 0 001.71 2.28c1.235 1.235 2.185 1.425 2.09 1.425z" fill="#455A64"/><path d="M184.757 375.45H82.424v5.416h102.333v-5.416z" fill="#E0E0E0"/><path d="M184.757 380.866v-5.511l.095.095c-13.302.095-54.065.19-102.333.19l.285-.285v5.416l-.285-.285c28.505 0 54.065.095 72.498.095 9.217 0 16.628.095 21.854.095h7.411c.285.19.475.19.475.19h-7.886c-5.131 0-12.542 0-21.759.095-18.528 0-44.088.095-72.688.095h-.285v-5.891h.285c48.268 0 89.031.095 102.333.19h.095v5.131c-.095.285-.095.38-.095.38z" fill="#263238"/><path d="M93.16 281.289L71.593 427.235h7.126l19.574-144.046v-1.9H93.16z" fill="#E0E0E0"/><path d="M93.16 281.288h5.227v1.996c-2.376 17.958-10.072 75.633-19.384 144.046v.19h-7.696v-.285a71545.75 71545.75 0 0015.392-103.474c1.996-13.112 3.611-23.754 4.656-31.071.57-3.61.95-6.461 1.236-8.456.19-.95.285-1.71.38-2.185.095-.571.19-.761.19-.761s0 .285-.095.761c-.095.475-.19 1.235-.285 2.185-.285 1.995-.666 4.846-1.236 8.456-1.045 7.317-2.66 17.959-4.56 31.166-3.896 26.32-9.217 62.806-15.203 103.379l-.285-.285h7.221l-.285.19c9.312-68.413 17.198-126.088 19.763-144.046v-1.901l.096.095H93.16z" fill="#263238"/><path d="M174.02 281.288l22.044 145.946h-7.126l-20.049-144.046v-1.9h5.131z" fill="#E0E0E0"/><path d="M174.02 281.288h-5.131l.095-.095v1.901c2.566 17.958 10.642 75.633 20.144 144.046l-.285-.19h7.221l-.285.285c-6.081-40.573-11.592-77.059-15.487-103.379-1.996-13.207-3.516-23.849-4.656-31.166-.57-3.705-.95-6.556-1.236-8.456-.095-.95-.285-1.71-.285-2.185-.095-.571-.095-.761-.095-.761s.095.285.095.761c.095.475.19 1.235.38 2.185.286 1.9.761 4.751 1.331 8.456 1.14 7.317 2.755 17.959 4.751 31.071 3.99 26.32 9.596 62.901 15.772 103.474v.285h-7.696v-.19c-9.502-68.413-17.483-126.088-19.859-144.046v-1.996h3.991c.855-.095 1.235 0 1.235 0z" fill="#263238"/><path d="M134.398 281.288h-6.176v145.946h6.176V281.288z" fill="#E0E0E0"/><path d="M134.303 427.235v-11.402c0-7.317 0-17.959-.095-31.166 0-26.32-.095-62.806-.095-103.379l.285.285h-6.176l.285-.285c0 69.933-.095 128.749-.19 145.947l-.095-.095h5.796c.19.095.285.095.285.095h-6.271v-.095c-.095-17.198-.19-76.109-.19-145.947v-.285h6.746v.285c0 40.668-.095 77.154-.095 103.569 0 13.112-.095 23.754-.095 31.071v10.642c0 .475-.095.76-.095.76z" fill="#263238"/><path d="M175.255 271.501h-84.47v11.022h84.47v-11.022z" fill="#455A64"/><path d="M116.535 271.787s-1.045 1.14-3.041 2.565c-1.045.76-2.28 1.52-3.705 2.28-1.426.761-3.136 1.521-4.941 2.186-1.806.57-3.611 1.045-5.226 1.33-1.615.285-3.136.38-4.371.475-2.47.095-3.99-.095-3.99-.095h3.99c1.235-.095 2.66-.19 4.276-.475 1.615-.285 3.325-.76 5.131-1.33 1.805-.665 3.42-1.33 4.846-2.091 1.425-.76 2.66-1.52 3.705-2.28 1.045-.76 1.806-1.33 2.281-1.805.19-.19.475-.38.57-.475.475-.19.475-.285.475-.285zm12.162 7.221s-.095 0-.19-.095-.38-.19-.57-.285c-.57-.19-1.33-.475-2.471-.665-1.045-.096-2.47-.191-3.895.19-1.52.285-3.136 1.045-4.656 2.28v-.095c2.66.665 5.891 1.14 9.312 1.045 1.71 0 3.515-.19 5.321-.57.95-.19 1.9-.285 2.66-.76.38-.285.76-.57.855-1.045.19-.475.095-.95-.095-1.331-.38-1.045-1.425-1.71-2.47-1.995-1.045-.285-2.186-.38-3.231-.475-2.185-.19-4.276-.095-6.176.095-3.896.38-7.411 1.52-10.167 2.661a31.159 31.159 0 00-6.176 3.42c-.665.475-1.235.855-1.52 1.14-.38.285-.57.38-.57.38l.475-.475c.38-.285.855-.665 1.52-1.14 1.33-.95 3.421-2.28 6.176-3.516 2.756-1.235 6.176-2.28 10.167-2.755 1.995-.19 4.086-.285 6.271-.095 1.045.095 2.186.19 3.231.475.57.19 1.045.38 1.52.76.475.38.855.855 1.045 1.425.19.475.19 1.046.095 1.521-.19.475-.57.855-.95 1.14-.855.475-1.805.665-2.755.76a52.383 52.383 0 01-5.416.57c-3.516.095-6.652-.38-9.407-1.045h-.19l.095-.095c1.52-1.235 3.23-1.9 4.656-2.28 1.52-.286 2.85-.286 3.99-.096 1.046.191 1.901.476 2.471.666.76.19 1.045.285 1.045.285zm10.927-7.221s.19 0 .57.19c.38.095.856.38 1.331.95.475.475.95 1.235 1.14 2.09.19.855.095 1.901-.285 2.946-.76 1.995-2.471 3.23-3.611 3.705-.665.285-1.14.475-1.52.571-.19.095-.285.095-.38.095h-.19s.19-.095.57-.191c.38-.095.855-.285 1.52-.57 1.14-.57 2.756-1.71 3.516-3.705.38-.95.475-1.996.285-2.851a4.824 4.824 0 00-1.045-2.09c-1.046-.95-1.901-1.14-1.901-1.14zm13.207-.096s-.76.285-1.805.951c-1.045.665-2.471 1.9-3.516 3.515-1.14 1.615-1.9 3.231-2.375 4.371-.19.475-.475.95-.665 1.425-.19.285-.285.475-.285.475s.095-.19.19-.57c.095-.38.285-.855.57-1.425.475-1.14 1.235-2.851 2.375-4.466 1.14-1.615 2.471-2.85 3.611-3.515.57-.286 1.045-.571 1.425-.666.19-.095.285-.095.38-.095h.095zm14.633 6.557s-.19-.095-.475-.19-.76-.285-1.425-.475c-1.236-.285-3.326-.475-5.511.57-.286.095-.571.285-.666.57-.19.285-.095.57.095.76.475.475 1.141.57 1.806.855 1.33.475 2.755.76 4.371.95 1.52.095 3.23.095 4.94-.285.856-.19 1.711-.38 2.376-.95.665-.57.855-1.52.57-2.375-.285-.856-1.045-1.426-1.805-1.806-.761-.38-1.616-.57-2.471-.855a17.233 17.233 0 00-4.846-.38c-3.135.19-5.891 1.235-7.886 2.471-1.995 1.235-3.421 2.66-4.276 3.705-.38.475-.76.95-.95 1.235-.19.285-.285.476-.285.476s.38-.666 1.14-1.711c.855-1.045 2.185-2.47 4.181-3.705 1.995-1.236 4.751-2.376 7.886-2.566 1.616-.095 3.231 0 4.941.38.855.19 1.71.38 2.471.855.76.38 1.52 1.045 1.9 1.901.19.475.19.95.095 1.425-.095.475-.38.855-.665 1.14-.665.57-1.615.855-2.471 1.045-1.71.285-3.42.38-4.94.19-1.616-.095-3.041-.475-4.371-.95-.38-.095-.665-.285-.95-.38-.286-.095-.666-.285-.856-.57a.73.73 0 01-.095-.95c.19-.285.475-.475.761-.57 2.185-1.045 4.275-.855 5.511-.57 1.235.285 1.9.76 1.9.76z" fill="#263238"/><path d="M112.64 131.921s-4.561 1.426-7.317 6.367c-2.755 4.94-1.995 7.316-1.33 10.166.76 2.851 1.995 8.647 2.09 8.267.095-.285 6.557-24.8 6.557-24.8zm.379 0l5.796-3.42 26.985-10.072-5.321 45.418-19.953 12.542-11.782-5.891-1.236-13.207 5.511-25.37z" fill="#F1D9CC"/><path d="M112.259 201.094l-10.547 13.682-13.112-3.04-10.452 5.796 2.755 4.941 27.84 1.9 9.787-20.239-6.271-3.04z" fill="#DEB39C"/><path d="M80.239 332.598l10.642 23.089 17.198-7.887-11.022-28.6-16.818 13.398z" fill="#F1D9CC"/><path d="M88.885 354.167l6.271 11.877s-15.962 16.438-14.442 20.144l37.437-17.959-10.357-23.754-18.909 9.692z" fill="#BF2343"/><path d="M105.893 358.918c.856-.19 1.711.38 1.901 1.235.19.855-.38 1.711-1.235 1.901-.856.19-1.901-.476-1.996-1.331-.095-.855.665-1.9 1.521-1.805" fill="#E0E0E0"/><path opacity=".6" d="M118.151 368.229l-1.521-2.945-35.441 18.338s-1.33 1.52-.57 2.565l37.532-17.958z" fill="#fff"/><path d="M94.396 366.139c.095.19 1.045-.19 2.186 0 1.14.095 1.995.665 2.185.57.19-.095-.665-1.045-2.09-1.235-1.426-.19-2.376.57-2.28.665zm-3.136 3.516c0 .19.951.095 1.996.57 1.046.475 1.52 1.235 1.71 1.14.19-.095-.19-1.14-1.425-1.71-1.235-.57-2.375-.19-2.28 0zm.001 5.796c.19 0 0-1.046-.95-1.901-.95-.76-1.996-.76-1.996-.57 0 .19.76.475 1.52 1.14.76.665 1.236 1.426 1.426 1.331zm1.33-13.873c.19.095.856-.57 1.9-.95 1.046-.475 1.996-.475 2.091-.665 0-.19-1.045-.475-2.28 0-1.33.475-1.9 1.52-1.71 1.615zm-1.14-2.375s-.19-.285-.38-.76c-.19-.475-.285-1.331-.19-2.281 0-.285.095-.475.19-.76.095-.285.38-.57.76-.57.19 0 .38 0 .57.19.19.19.19.38.19.475v.95c-.095.665-.095 1.236-.19 1.996-.095.38-.38.855-.76.95-.38.095-.76.095-1.14 0-.76-.095-1.425-.38-2.09-.57a4.438 4.438 0 01-.95-.475c-.286-.19-.57-.285-.856-.665-.19-.286-.285-.761 0-1.141.285-.285.665-.285.95-.285.57.19 1.046.38 1.52.57.856.475 1.426.951 1.806 1.331.38.38.57.665.475.665-.095.095-.855-.855-2.47-1.711-.38-.19-.95-.38-1.426-.475-.285 0-.475 0-.57.095-.095.095-.095.38.095.57.19.191.38.381.665.476.285.19.57.285.855.38.57.285 1.236.475 1.996.57.285.095.665.095.95 0 .285-.095.38-.285.475-.57.095-.57.095-1.331.19-1.901 0-.285.095-.665 0-.855 0-.285-.095-.38-.285-.38-.38 0-.57.57-.665 1.045-.095 1.996.475 3.136.285 3.136zM79.954 340.58l-27.175-67.558s.665-11.972 2.85-15.773c2.186-3.8 69.173-25.844 69.173-25.844s17.008-4.086 28.41 0c11.402 4.085 19.859 18.338 18.338 26.224-1.615 7.887-8.266 13.683-8.266 13.683l-49.219 1.425-26.795 9.787 18.053 51.784c0-.095-9.216 10.072-25.37 6.272z" fill="#263238"/><path d="M55.914 295.256l-.665 25.465 19.003.475 2.661-30.596-20.999 4.656z" fill="#F1D9CC"/><path d="M54.204 318.44l.38 13.398s-21.569 7.791-21.854 11.687l41.523.38 1.235-25.94-21.284.475z" fill="#BF2343"/><path d="M67.411 330.128c.76.19 1.33 1.14 1.14 1.995-.19.855-1.14 1.33-1.9 1.14-.76-.19-1.52-1.33-1.235-2.09.285-.76 1.425-1.425 2.09-.95" fill="#E0E0E0"/><path opacity=".6" d="M74.158 344l-.095-3.326-39.813.855s-1.9.761-1.615 2.091l41.523.38z" fill="#fff"/><path d="M53.824 331.648c0 .19 1.045.285 1.995.95 1.045.665 1.52 1.52 1.71 1.425.19 0-.095-1.235-1.33-1.995-1.14-.855-2.375-.57-2.375-.38zm-4.371 1.71c-.095.19.855.57 1.52 1.425.665.855.855 1.806 1.045 1.806.19 0 .38-1.141-.57-2.186-.76-1.14-1.995-1.235-1.995-1.045zm-2.565 5.226c.19 0 .475-.95 0-2.09s-1.425-1.615-1.52-1.425c-.096.19.474.76.855 1.71.475.855.475 1.71.665 1.805zm7.316-11.877c.095.19 1.045-.095 2.185 0 1.14.095 1.995.475 2.185.285.096-.19-.76-.95-2.09-.95-1.33-.095-2.375.475-2.28.665zm.095-2.661s-.095-.285 0-.855c.095-.57.285-1.33.855-2.09.095-.19.285-.38.475-.57.19-.19.57-.38.95-.19.19.095.38.19.38.38.095.19 0 .38 0 .57-.095.38-.285.57-.475.855-.285.57-.57 1.045-1.045 1.71-.19.285-.665.57-1.14.475a3.514 3.514 0 01-1.045-.475c-.57-.475-1.14-.95-1.615-1.425-.19-.285-.476-.57-.666-.855-.19-.285-.38-.57-.475-.95-.095-.38.095-.855.475-1.045.38-.191.76.095 1.046.19.475.38.76.76 1.045 1.235.57.76.855 1.52 1.045 1.995.19.475.19.76.19.76-.095 0-.38-1.14-1.52-2.565a5.445 5.445 0 00-1.045-1.045c-.19-.095-.476-.19-.57-.19-.19.095-.286.285-.19.475.094.19.19.475.38.76.19.285.38.475.57.76.475.475.95.95 1.52 1.33.285.19.57.38.855.38.285 0 .475-.095.665-.285.38-.475.665-1.14.95-1.615.19-.285.38-.57.38-.76.095-.19 0-.38-.095-.475-.38-.19-.76.285-1.045.665-.76 1.71-.76 2.945-.855 2.85zm12.637-99.388s-11.307-.95-12.637 11.403c-1.235 12.352-2.47 69.742-2.47 69.742l26.51 2.186 4.085-58.721 42.283-17.958c.095 0-50.17-8.267-57.77-6.652z" fill="#263238"/><path d="M113.78 208.03s-6.842 19.289-5.606 21.474c1.33 2.186 19.003 11.022 19.003 11.022l44.278 17.008s4.561-7.221 4.561-18.338-15.393-31.166-15.393-31.166H113.78z" fill="#263238"/><path d="M126.892 230.359s-.095 0-.19.096c-.19.095-.38.19-.665.285-.57.285-1.425.665-2.47 1.045-2.186.95-5.321 2.28-9.217 3.99-7.886 3.421-19.003 8.172-31.83 13.683l.19-.19c-.38 5.796-.856 12.067-1.331 18.528-1.045 15.108-2.09 29.076-2.85 40.193v.19h-.19c-8.077-.666-14.728-1.331-19.29-1.711-2.28-.19-4.085-.38-5.32-.475-.57-.095-1.045-.095-1.425-.19-.285 0-.475-.095-.475-.095h.475c.38 0 .76.095 1.425.095 1.235.095 3.04.19 5.32.38 4.657.38 11.308.855 19.29 1.52l-.19.191c.76-11.022 1.71-24.99 2.755-40.193.475-6.461.855-12.732 1.33-18.528v-.19l.095-.095c12.828-5.416 23.944-10.167 31.831-13.493 3.896-1.615 7.031-2.945 9.312-3.895 1.045-.475 1.9-.76 2.47-1.045.285-.096.475-.191.665-.286.19.19.285.19.285.19zm35.251 1.901s-.475-.095-1.235-.38a78.618 78.618 0 00-3.325-1.046c-2.851-.855-6.747-2.185-11.212-2.85-4.466-.665-8.552-.475-11.402.19-2.851.57-4.561 1.425-4.561 1.33 0 0 .38-.285 1.14-.57.76-.38 1.9-.76 3.326-1.045 2.85-.76 7.126-.95 11.592-.285 4.465.665 8.456 1.995 11.212 2.945 1.425.475 2.565.951 3.325 1.236.76.285 1.14.475 1.14.475z" fill="#455A64"/><path d="M155.873 222.093c0 .095-1.521-.19-3.896 0-1.235.095-2.661.285-4.181.475-1.615.19-3.326.38-5.131.76-3.611.665-6.651 1.9-8.646 3.23-1.996 1.331-2.946 2.471-3.041 2.471 0 0 .19-.38.665-.855.475-.475 1.14-1.14 2.186-1.901 1.995-1.425 5.13-2.755 8.741-3.42 1.805-.38 3.611-.57 5.131-.665 1.615-.19 3.041-.285 4.181-.38 1.235 0 2.185 0 2.85.095.76 0 1.141.19 1.141.19z" fill="#455A64"/><path d="M112.639 131.921s-7.506 24.135-7.316 31.071c.19 6.936 3.04 26.605 2.755 30.406-.285 3.895 1.046 14.537 5.701 14.537h46.939s10.547-2.945 11.022-9.312c.475-6.366-14.253-68.127-14.253-68.127s-2.755-11.307-6.651-12.162c-3.896-.855-8.171 0-10.832 7.981-2.565 7.982-3.42 19.289-9.026 24.895-5.511 5.511-13.398 11.782-13.398 11.782s-6.366-5.321-6.651-12.542c-.285-7.222 2.375-18.909 2.375-18.909l-.665.38z" fill="#BF2343"/><path d="M162.048 136.197c-1.14-1.9-3.04-3.231-5.131-3.991-2.09-.76-4.276-1.045-6.461-1.235-1.995-.19-3.991-.285-5.891.19s-2.66 2.851-3.516 4.656c-1.235 8.076-.855 16.438 1.236 24.324.285 1.141.665 2.376 1.425 3.326.665.95 1.71 1.615 2.66 2.28 1.616 1.046 3.421 2.091 5.416 2.186 3.516.285 6.747-2.281 8.362-5.416 1.615-3.136 1.995-6.746 2.375-10.262.19-2.185.38-4.371.665-6.556.285-3.136.571-6.746-1.14-9.502z" fill="#F1D9CC"/><path d="M119.575 208.505c0 .095-.855-.19-1.9-.95s-2.28-2.185-3.136-3.991c-.855-1.805-1.33-3.515-1.615-4.75-.285-1.236-.38-2.091-.285-2.091.095 0 .285.76.665 1.996.38 1.235.855 2.945 1.711 4.655.855 1.711 1.995 3.136 2.945 3.896.95.855 1.71 1.235 1.615 1.235zm24.895-29.93s-.285.285-.76.665c-.57.38-1.331.95-2.471 1.425-1.045.475-2.47.951-3.99 1.236-1.521.19-3.326.19-5.131-.19-3.611-.856-6.272-2.946-7.982-4.656-.855-.855-1.425-1.616-1.805-2.091l-.57-.855c.095-.095.95 1.14 2.66 2.756 1.711 1.615 4.371 3.61 7.792 4.37 3.42.856 6.746.095 8.836-.855 2.186-.95 3.326-1.9 3.421-1.805z" fill="#263238"/><path d="M119.006 207.65c-.095.095-.76-.665-.95-1.805-.19-1.141.095-2.091.19-1.996.095 0 .095.951.285 1.901.19 1.045.665 1.9.475 1.9z" fill="#263238"/><path d="M138.484 136.007c0 .095-.475 0-1.14.57-.285.285-.57.761-.76 1.331-.095.57-.095 1.33.475 1.9l.19.19-.19.095c-1.045.285-2.09 1.14-2.661 2.375-.57 1.236-.76 2.946.095 4.276l.285.475-.57-.095c-1.14-.285-2.47.095-3.23 1.141-.76.95-.855 2.565-.19 3.61l-.475.19c-.285-.76-1.331-1.045-2.186-.855-.95.19-1.52 1.045-1.805 1.9-.285.856-.38 1.901-.38 2.851l-.095 1.33-.38-1.33c-.19-.665-1.045-1.045-1.806-.95-.76.095-1.33.665-1.615 1.33-.665 1.33-.285 2.851 0 4.086h-.38c0-.665-.38-1.235-.76-1.616a2.58 2.58 0 00-1.615-.57c-1.141 0-1.806.951-1.901 1.711-.19.76 0 1.425.19 1.805.19.38.38.475.38.57 0 0-.19-.095-.475-.475s-.475-1.045-.38-1.9c.095-.38.285-.855.57-1.236.38-.38.856-.665 1.521-.76.665 0 1.235.19 1.805.665.57.476.95 1.141.95 1.901v1.52l-.38-1.52c-.19-.665-.285-1.33-.38-2.091-.095-.76 0-1.52.38-2.28.38-.76.95-1.425 1.9-1.615.856-.19 1.996.285 2.281 1.235l-.475.095c0-.95.095-1.995.38-2.946.19-.475.38-.95.76-1.425.38-.475.855-.76 1.425-.855.57-.095 1.045-.095 1.616.095.57.19.95.57 1.14 1.14l.665 1.901-1.14-1.711c-.856-1.33-.761-3.04.19-4.181.95-1.14 2.47-1.615 3.705-1.235l-.285.285c-.95-1.52-.665-3.42-.095-4.656.665-1.33 1.806-2.185 2.946-2.47l-.095.285c-.57-.665-.57-1.52-.475-2.09.19-.665.475-1.141.855-1.426.38-.285.665-.38.95-.475.57-.095.665-.095.665-.095z" fill="#BF2343"/><path d="M112.924 132.111s.095.095.095.19c.095.095.19.38.19.665 0 .286 0 .666-.19 1.046s-.57.76-1.045.95v-.19c.76.57 1.331 1.615 1.331 2.85 0 1.236-.476 2.756-1.901 3.516v-.38c1.14.855 1.615 2.47 1.33 3.991-.285 1.52-1.33 2.85-2.28 4.085l-.38-.285c.76-.95 2.185-.76 2.85.19.571.855.476 1.901.095 2.756-.38.855-1.045 1.425-1.615 1.995l-.285-.38c1.52-.475 3.231.475 3.516 1.995.285 1.426-.665 2.851-1.901 3.136l-.57.19.285-.475c.475-.665 1.331-.855 1.901-.76.665.095 1.235.38 1.71.76.855.855.95 1.9 1.045 2.756 0 .76-.095 1.425-.19 1.805-.095.38-.095.665-.19.665s.095-.855.095-2.47c-.095-.761-.19-1.806-1.045-2.471-.38-.38-.95-.57-1.52-.665-.57-.095-1.236.095-1.616.57l-.19-.285c1.046-.285 1.806-1.52 1.521-2.66-.19-1.141-1.711-1.996-2.946-1.616l-1.14.38.855-.76c.57-.57 1.14-1.14 1.52-1.9.38-.665.38-1.615-.095-2.281-.475-.665-1.615-.76-2.09-.19l-.38-.285c1.045-1.235 1.9-2.47 2.28-3.895.285-1.331-.095-2.851-1.045-3.516l-.285-.19.285-.19c1.235-.665 1.71-1.995 1.71-3.136 0-1.14-.475-2.09-1.14-2.66l.095-.19.19-.095c.475-.095.76-.475.95-.855.19-.38.285-.665.285-.951 0-.475-.19-.76-.095-.76z" fill="#BF2343"/><path opacity=".3" d="M122.521 175.154c.38 3.516 2.09 6.936 4.846 9.217 2.755 2.28 6.651 3.135 10.072 2.185 3.42-.95 6.271-3.895 6.841-7.411-2.375 1.14-4.846 2.185-7.506 2.565-5.606.856-11.592-1.995-14.443-6.841l.38.38m-9.977 22.234c-.665 3.516.57 7.412 3.326 9.787.57.475 1.33.95 2.09.76-2.66-3.04-4.466-6.746-5.416-10.737" fill="#000"/><path d="M149.411 128.216s-10.642 1.615-8.077 16.723c2.566 15.107 20.999 40.667 20.999 40.667l-40.097 24.42 4.656 10.831 52.069-21.473s5.131-5.321 3.326-11.212c-1.806-5.892-15.203-42.948-15.203-42.948s-4.941-19.574-17.673-17.008z" fill="#F1D9CC"/><path d="M87.27 219.337l14.347-9.027 19.004.856 1.615-1.141 4.656 10.832s-5.131 2.471-7.791 2.661l-16.628-1.235-17.674-1.331 2.47-1.615z" fill="#F1D9CC"/><path d="M162.239 185.891s-.381-.38-.951-1.235a52.847 52.847 0 01-2.375-3.516c-1.995-2.945-4.561-7.126-7.221-11.782-2.661-4.751-4.941-9.026-6.462-12.257-.76-1.615-1.33-2.851-1.805-3.801l-.57-1.425s.285.475.76 1.33c.475.95 1.14 2.186 1.9 3.706 1.616 3.135 3.896 7.506 6.557 12.162 2.66 4.656 5.226 8.837 7.031 11.877.95 1.426 1.615 2.661 2.185 3.516.76.95 1.046 1.425.951 1.425z" fill="#C7C3C1"/><path d="M172.12 189.312c-.095.095-1.995-1.426-4.846-2.471-2.755-1.045-5.321-1.045-5.226-1.235 0-.095 2.566-.285 5.416.76 2.946 1.045 4.751 2.851 4.656 2.946z" fill="#C7C3C1"/><path d="M29.404 174.014c.38 1.14 14.728 49.504 14.728 49.504l82.665 5.891 3.04-5.131-46.178-3.515-12.922-49.694c-.57-2.091-2.566-3.421-4.656-3.041l-36.677 5.986z" fill="#455A64"/><path d="M55.534 194.348c.665 1.425.38 3.04-.665 3.515-1.045.476-2.47-.285-3.136-1.71-.665-1.425-.38-3.04.665-3.516 1.046-.475 2.47.286 3.136 1.711z" fill="#FAFAFA"/><path d="M128.317 227.034h-.95c-.665 0-1.52-.095-2.66-.19-2.376-.19-5.796-.38-9.977-.666-8.552-.57-20.334-1.425-33.541-2.375h-.19v-.19c-.475-1.52-.95-3.231-1.426-4.846-3.99-13.872-7.506-26.51-10.166-35.631-1.236-4.561-2.28-8.267-3.041-10.832-.38-1.236-.57-2.281-.76-2.946-.095-.285-.19-.57-.19-.76 0-.19-.095-.285-.095-.285s0 .095.095.285c.095.19.19.475.285.76.19.665.475 1.71.855 2.946.76 2.565 1.805 6.271 3.136 10.737 2.66 9.121 6.27 21.759 10.261 35.631.475 1.71.95 3.326 1.426 4.846l-.19-.19c13.207 1.045 24.989 1.9 33.541 2.565 4.181.38 7.601.666 9.977.856 1.14.095 2.09.19 2.66.285.285 0 .475.095.665.095.19-.095.285-.095.285-.095z" fill="#263238"/><path d="M140.004 79.092l-.095-3.706-22.519-3.326c-6.936-.475-14.063 6.746-14.253 13.683-.19 7.696-.095 17.103 1.045 22.804 2.281 11.402 11.212 12.542 11.212 12.542l.476 11.402 25.464-.76-1.33-52.64z" fill="#F1D9CC"/><path d="M107.888 93.82c0 .76.665 1.425 1.52 1.425.856 0 1.426-.57 1.426-1.426 0-.76-.665-1.425-1.521-1.425-.76 0-1.425.665-1.425 1.425zm-2.09-3.326c.19.19 1.235-.665 2.85-.76 1.615-.095 2.756.665 2.946.475.095-.095-.095-.475-.665-.76-.476-.38-1.426-.665-2.376-.665s-1.805.475-2.28.855c-.38.475-.57.855-.475.855zm17.008 2.946c0 .76.665 1.425 1.52 1.425.856 0 1.426-.57 1.426-1.426 0-.76-.665-1.425-1.521-1.425-.76.095-1.425.665-1.425 1.425zm-1.331-3.231c.191.19 1.236-.665 2.851-.76 1.615-.095 2.756.665 2.946.475.095-.095-.095-.475-.666-.76-.475-.38-1.425-.665-2.375-.665s-1.805.475-2.28.855c-.476.38-.571.76-.476.855zm-5.32 11.972c0-.095-.951-.19-2.566-.38-.38 0-.76-.095-.855-.38-.095-.285 0-.76.19-1.235.38-.95.665-1.996 1.045-3.136 1.52-4.465 2.566-8.171 2.376-8.171-.19-.095-1.521 3.515-3.041 7.981-.38 1.14-.665 2.186-1.045 3.136-.095.475-.38 1.045-.19 1.615.095.285.475.475.665.57.285.095.475.095.665.095 1.71.095 2.756 0 2.756-.095z" fill="#263238"/><path d="M115.395 121.089s8.171.19 15.677-4.751c0 0-3.515 8.267-15.487 7.697l-.19-2.946zm1.615-15.107a2.877 2.877 0 012.565-1.14c.666 0 1.426.38 1.806.855.475.57.57 1.33.19 1.9-.38.665-1.33.76-2.091.57-.76-.19-1.425-.665-2.09-1.14a1.145 1.145 0 01-.475-.475c-.095-.095-.095-.285.095-.57z" fill="#DEB39C"/><path d="M120.905 103.131c-.285 0-.19 1.711-1.615 3.041-1.425 1.33-3.23 1.14-3.23 1.425 0 .095.38.285 1.235.285.76 0 1.9-.285 2.755-1.045s1.236-1.805 1.236-2.47c-.095-.856-.286-1.236-.381-1.236zm-.094-19.098c.19.38 1.71.19 3.61.285 1.901.095 3.421.57 3.611.19.095-.19-.19-.57-.76-.95a6.732 6.732 0 00-2.756-.855c-1.14-.095-2.185.19-2.85.475s-.95.57-.855.855zm-14.633 1.9c.285.38 1.33-.095 2.661-.095 1.33-.095 2.47.19 2.66-.285.095-.19-.095-.57-.57-.855-.475-.285-1.33-.57-2.185-.475-.951.095-1.711.38-2.091.855-.475.285-.57.665-.475.855zm-5.986-14.157c1.805 3.99 5.986 10.072 10.452 10.452 4.371.475 9.026-1.616 11.592-5.226.76 3.23 4.466 4.94 7.696 5.416 2.376.285 4.846.285 7.032-.666 2.185-.95 3.99-2.85 4.275-5.225.285-2.376-3.135-7.982-5.511-8.362" fill="#263238"/><path d="M136.109 130.686c.19 3.706 3.04 7.126 6.651 8.077-.095 3.04 2.185 5.986 5.131 6.556 2.945.57 6.271-1.235 7.316-4.086.285-.76.475-1.52.95-2.185 1.14-1.426 3.326-1.141 5.036-1.711 3.136-1.045 4.466-4.846 4.086-8.076-.095-.665-.19-1.33-.095-1.9.19-1.331 1.235-2.281 1.995-3.421 3.136-4.466 1.806-10.927-1.615-15.108-1.14-1.425-2.661-2.85-2.471-4.656.095-1.045.571-1.9.951-2.85 1.235-3.04.285-6.841-2.186-8.932-.38-.285-.855-.665-.95-1.14-.095-.285 0-.665 0-.95.57-4.846-3.326-9.692-8.171-10.262-.285 0-.571-.095-.856-.19-.76-.38-.76-1.425-.855-2.28-.285-2.186-1.995-6.272-3.61-7.697-4.656-3.99-9.122-.76-10.737.76 0 0-3.136 15.773-2.566 18.719.57 2.945 2.756 10.261 1.901 13.587-.856 3.326-2.281 10.167-.951 13.112 1.331 2.946 1.046 14.633 1.046 14.633z" fill="#263238"/><path d="M153.496 79.947s-.19.19-.57.475c-.38.285-1.045.665-1.805 1.14-1.615.855-3.991 1.806-6.746 2.186-2.756.475-5.321.285-7.127 0-.855-.19-1.615-.285-2.09-.476-.475-.19-.76-.285-.76-.285 0-.094 1.14.19 2.85.38 1.806.19 4.276.286 6.937-.19 2.66-.475 5.036-1.33 6.651-2.09 1.71-.665 2.66-1.235 2.66-1.14zm1.521 1.045s-.095.38-.38.95c-.095.285-.285.666-.475 1.046s-.475.855-.76 1.33a16.88 16.88 0 01-2.471 3.135 25.7 25.7 0 01-3.8 3.136c-1.521.95-2.946 1.71-4.371 2.28-1.425.475-2.756.856-3.896 1.046-.57.094-1.045.094-1.52.19-.475.095-.855.095-1.14 0-.666 0-.951 0-.951-.095 0-.096 1.426-.096 3.611-.476 1.14-.19 2.376-.57 3.801-1.14 1.425-.57 2.85-1.33 4.276-2.185a24.374 24.374 0 003.705-3.04 22.994 22.994 0 002.566-3.041c1.235-1.806 1.71-3.136 1.805-3.136zm-8.267 58.626s.191 0 .571-.095c.38-.095.855-.285 1.33-.76.475-.476.855-1.236.855-2.281 0-.95-.285-2.09-.57-3.23-.285-1.236-.76-2.661-.285-4.181.475-1.52 1.71-2.661 2.755-3.896.57-.665 1.045-1.235 1.331-1.995.285-.76.285-1.616-.095-2.376-.381-.76-1.046-1.33-1.806-1.9-.76-.57-1.52-1.045-2.375-1.615-.76-.57-1.521-1.331-1.901-2.281-.38-.95-.19-1.995.285-2.85.856-1.616 2.281-2.851 2.566-4.371.38-1.52-.38-3.041-1.14-4.276-.855-1.14-1.806-2.09-2.756-2.945-.95-.856-1.71-1.71-2.28-2.47-.57-.856-1.045-1.616-1.235-2.281-.19-.665-.19-1.235-.19-1.615 0-.38.095-.57.095-.57.095 0-.19.76.285 2.09.38 1.33 1.71 2.945 3.61 4.561.95.855 1.996 1.805 2.851 2.945.475.57.855 1.33 1.14 2.091.285.76.38 1.615.19 2.47-.38 1.805-1.805 3.041-2.66 4.561-.38.76-.571 1.615-.285 2.47.285.855.95 1.425 1.71 1.996.76.57 1.615 1.045 2.375 1.615.76.57 1.521 1.235 1.901 2.09.38.855.475 1.901.095 2.756-.38.855-.951 1.52-1.426 2.185-1.14 1.235-2.28 2.376-2.755 3.706-.475 1.33-.095 2.755.19 3.896.285 1.235.57 2.375.57 3.42s-.475 1.901-1.045 2.376c-.475.475-1.045.76-1.425.76-.286.095-.476 0-.476 0z" fill="#455A64"/><path d="M424.581 427.235c0 .095-88.651.285-198.016.285s-198.016-.095-198.016-.285c0-.19 88.651-.285 198.016-.285s198.016.095 198.016.285z" fill="#263238"/><circle r="18" transform="matrix(1 0 0 -1 417 267.212)" fill="#CD2840"/><circle r="18" transform="matrix(1 0 0 -1 417 267.212)" fill="url(#paint0_linear)"/><circle cx="22.408" cy="129.603" r="18" fill="#CD2840"/><circle cx="22.408" cy="129.603" r="18" fill="url(#paint1_linear)"/><defs><linearGradient id="paint0_linear" x1="4.026" y1="-6.463" x2="49.386" y2="18.636" gradientUnits="userSpaceOnUse"><stop stop-color="#CC283C"/><stop offset="1" stop-color="#CC284F"/></linearGradient><linearGradient id="paint1_linear" x1="8.434" y1="105.14" x2="53.795" y2="130.239" gradientUnits="userSpaceOnUse"><stop stop-color="#CC283C"/><stop offset="1" stop-color="#CC284F"/></linearGradient></defs></svg>