<svg width="34" height="34" fill="none" xmlns="http://www.w3.org/2000/svg"><path d="M32 16.814c0 8.464-6.87 15.334-15.334 15.334-8.464 0-15.333-6.87-15.333-15.334 0-8.464 6.87-15.333 15.333-15.333C25.13 1.48 32 8.35 32 16.814z" stroke="#fff" stroke-width="2.116" stroke-linecap="round" stroke-linejoin="round"/><path d="M17.415 15.408v7.103c.024.282-.092.478-.35.588a.857.857 0 01-.773 0c-.257-.11-.374-.306-.35-.588v-7.103c-.024-.282.093-.478.35-.589a.858.858 0 01.773 0c.258.11.374.307.35.59zm-1.656-3.717c0-.257.092-.466.276-.625a.96.96 0 01.68-.258c.258 0 .473.086.645.258.171.16.257.368.257.625a.984.984 0 01-.257.7.873.873 0 01-.644.257.96.96 0 01-.681-.257.947.947 0 01-.276-.7z" fill="#fff" stroke="#fff" stroke-width=".92"/></svg>