<svg width="67" height="67" fill="none" xmlns="http://www.w3.org/2000/svg"><rect x="1" y="1" width="65" height="65" rx="19.5" stroke="#C5C5CD" stroke-width="1.3"/><g clip-path="url(#clip0_80:72505)"><path d="M22.209 44.882c-1.115-1.185-1.081-3.12.072-4.315l11.287-10.918a6.52 6.52 0 011.73-6.493 6.535 6.535 0 016.9-1.387l1.07.417-2.58 2.415.45 1.928 1.894.575 2.593-2.455.368 1.078a6.526 6.526 0 01.184 3.585 6.516 6.516 0 01-8.365 4.724L26.524 44.954c-.605.585-1.39.829-2.172.816-.781-.013-1.566-.275-2.143-.888zm15.262-12.53l.437.179a5.072 5.072 0 005.445-1.048 5.094 5.094 0 001.52-4.121l-1.462 1.37-3.493-1.06-.829-3.556 1.391-1.303a5.086 5.086 0 00-4.175 1.383 5.072 5.072 0 00-1.23 5.406l.165.444-11.953 11.56a1.606 1.606 0 00-.038 2.27 1.606 1.606 0 002.269.038l11.953-11.562z" fill="#C5C5CD"/></g><defs><clipPath id="clip0_80:72505"><path fill="#fff" transform="rotate(.954 -1251.3 1316.722)" d="M0 0h24.7v24.7H0z"/></clipPath></defs></svg>