<svg width="39" height="40" fill="none" xmlns="http://www.w3.org/2000/svg"><g clip-path="url(#clip0)"><path d="M1.63 37.51c-1.715-1.822-1.663-4.799.111-6.639l17.366-16.796a10.03 10.03 0 012.662-9.99 10.054 10.054 0 0110.613-2.134l1.647.642-3.969 3.716.692 2.966 2.914.884 3.989-3.776.567 1.658c.608 1.776.705 3.683.282 5.516a10.026 10.026 0 01-12.869 7.268L8.269 37.62c-.93.9-2.139 1.276-3.34 1.255-1.203-.02-2.411-.423-3.298-1.366zm23.48-19.276l.674.275a7.802 7.802 0 008.376-1.613 7.838 7.838 0 002.34-6.34l-2.25 2.108-5.375-1.632-1.275-5.47 2.14-2.003a7.82 7.82 0 00-6.423 2.127 7.803 7.803 0 00-1.891 8.318l.252.681L3.29 32.472a2.471 2.471 0 00-.058 3.49 2.471 2.471 0 003.49.058l18.39-17.786z" fill="#C5C5CD"/></g><defs><clipPath id="clip0"><path fill="#fff" transform="rotate(.954 -47.802 56.454)" d="M0 0h38v38H0z"/></clipPath></defs></svg>