<svg width="375" height="306" viewBox="0 0 375 306" fill="none" xmlns="http://www.w3.org/2000/svg">
<path opacity="0.7" d="M67.7968 275.049C67.7968 278.823 124.112 281.882 193.584 281.882C263.056 281.882 319.371 278.823 319.371 275.049C319.371 271.276 263.056 268.176 193.584 268.176C124.112 268.176 67.7968 271.276 67.7968 275.049Z" fill="#AA2338"/>
<path d="M269.609 248.791V252.883H238.978V248.791H269.609Z" fill="#FFEEF2"/>
<path d="M305.385 230.002C305.385 230.002 344.697 206.737 342.601 147.025C340.505 87.313 287.794 51.0718 248.957 51.8733C210.12 52.6749 198.869 69.3916 166.845 71.9905C134.821 74.5894 78.4491 51.3935 44.0095 80.0819C9.56999 108.77 36.9492 179.301 77.8744 230.032C118.8 280.763 241.931 289.592 305.385 230.002Z" fill="#CD2942"/>
<path opacity="0.08" d="M305.385 230.002C305.385 230.002 344.697 206.737 342.601 147.025C340.505 87.313 287.794 51.0718 248.957 51.8733C210.12 52.6749 198.869 69.3916 166.845 71.9905C134.821 74.5894 78.4491 51.3935 44.0095 80.0819C9.56999 108.77 36.9492 179.301 77.8744 230.032C118.8 280.763 241.931 289.592 305.385 230.002Z" fill="#2F3646"/>
<path d="M265.433 248.957C265.33 248.957 265.243 249.817 265.243 250.878C265.243 251.939 265.33 252.793 265.433 252.793C265.536 252.793 265.629 251.933 265.629 250.878C265.629 249.822 265.542 248.957 265.433 248.957Z" fill="#FAFAFA"/>
<path d="M266.099 248.875C265.99 248.875 265.908 249.735 265.908 250.79C265.908 251.846 265.99 252.711 266.099 252.711C266.207 252.711 266.289 251.851 266.289 250.79C266.289 249.729 266.207 248.875 266.099 248.875Z" fill="#FAFAFA"/>
<path d="M241.345 248.957C241.236 248.957 241.149 249.817 241.149 250.878C241.149 251.939 241.236 252.793 241.345 252.793C241.454 252.793 241.535 251.933 241.535 250.878C241.535 249.822 241.448 248.957 241.345 248.957Z" fill="#FAFAFA"/>
<path d="M242.011 248.875C241.908 248.875 241.821 249.735 241.821 250.79C241.821 251.846 241.908 252.711 242.011 252.711C242.115 252.711 242.207 251.851 242.207 250.79C242.207 249.729 242.12 248.875 242.011 248.875Z" fill="#FAFAFA"/>
<path d="M246.014 250.956C246.014 251.065 249.524 251.146 253.849 251.146C258.174 251.146 261.684 251.065 261.684 250.956C261.684 250.847 258.174 250.766 253.849 250.766C249.524 250.766 246.014 250.847 246.014 250.956Z" fill="#FAFAFA"/>
<path d="M269.738 267.216V275.398H239.107V267.216H269.738Z" fill="#DF889A"/>
<path d="M238.72 273.093C238.72 273.093 238.769 273.131 238.883 273.186C238.997 273.24 239.166 273.322 239.394 273.42C240.06 273.702 240.758 273.901 241.473 274.013C242.618 274.22 243.799 274.053 244.841 273.534C245.485 273.191 246.034 272.694 246.44 272.087C246.906 271.396 247.1 270.557 246.984 269.731C246.917 269.283 246.729 268.861 246.44 268.512C246.285 268.321 246.088 268.169 245.865 268.067C245.641 267.965 245.396 267.916 245.151 267.925C244.898 267.945 244.652 268.018 244.428 268.138C244.204 268.258 244.008 268.422 243.85 268.621C243.515 269.016 243.308 269.504 243.257 270.019C243.216 270.55 243.288 271.084 243.47 271.584C243.652 272.084 243.94 272.54 244.313 272.919C245.088 273.739 246.133 274.251 247.256 274.361C248.412 274.472 249.579 274.327 250.673 273.937C251.842 273.571 252.88 272.874 253.66 271.929C254.062 271.422 254.305 270.806 254.356 270.161C254.389 269.825 254.347 269.487 254.234 269.169C254.122 268.851 253.94 268.562 253.703 268.322C253.444 268.073 253.105 267.924 252.746 267.903C252.391 267.893 252.042 267.992 251.745 268.186C251.171 268.562 250.766 269.148 250.619 269.818C250.49 270.472 250.534 271.149 250.746 271.781C250.958 272.413 251.33 272.98 251.826 273.425C252.799 274.246 254.007 274.738 255.276 274.829C256.479 274.967 257.698 274.847 258.85 274.475C259.982 274.119 260.947 273.368 261.571 272.359C261.881 271.88 262.073 271.335 262.131 270.767C262.19 270.2 262.113 269.627 261.908 269.094C261.806 268.828 261.639 268.591 261.421 268.407C261.203 268.222 260.942 268.096 260.662 268.039C260.393 267.991 260.117 267.999 259.851 268.062C259.585 268.126 259.335 268.244 259.117 268.409C258.735 268.744 258.462 269.186 258.332 269.677C258.202 270.168 258.222 270.687 258.388 271.167C258.686 272.025 259.222 272.78 259.933 273.344C261.111 274.342 262.59 274.916 264.133 274.976C265.073 275.009 266.008 274.845 266.88 274.493C267.752 274.142 268.54 273.611 269.193 272.936C269.324 272.801 269.447 272.659 269.563 272.511C269.604 272.462 269.64 272.409 269.672 272.353C269.025 273.067 268.252 273.656 267.392 274.089C266.379 274.587 265.256 274.819 264.128 274.764C262.639 274.679 261.22 274.105 260.091 273.131C259.428 272.595 258.93 271.882 258.654 271.075C258.51 270.654 258.494 270.201 258.607 269.771C258.72 269.341 258.958 268.954 259.291 268.659C259.474 268.523 259.683 268.426 259.904 268.374C260.126 268.321 260.356 268.315 260.58 268.355C260.808 268.402 261.02 268.506 261.195 268.659C261.37 268.811 261.503 269.006 261.582 269.225C261.76 269.706 261.824 270.221 261.766 270.731C261.708 271.24 261.531 271.729 261.25 272.158C260.666 273.09 259.766 273.781 258.714 274.105C257.611 274.455 256.447 274.566 255.298 274.432C254.11 274.343 252.979 273.885 252.066 273.121C251.618 272.717 251.282 272.204 251.091 271.632C250.9 271.06 250.861 270.448 250.978 269.856C251.1 269.281 251.442 268.776 251.93 268.447C252.15 268.284 252.42 268.204 252.694 268.219C252.967 268.235 253.226 268.347 253.426 268.534C253.624 268.734 253.775 268.975 253.869 269.241C253.963 269.506 253.998 269.788 253.97 270.068C253.924 270.64 253.71 271.185 253.355 271.635C252.622 272.521 251.649 273.176 250.553 273.523C249.509 273.899 248.395 274.042 247.289 273.942C246.254 273.842 245.289 273.375 244.569 272.625C244.225 272.282 243.959 271.868 243.79 271.413C243.62 270.958 243.55 270.471 243.584 269.987C243.602 269.546 243.769 269.125 244.058 268.792C244.346 268.459 244.739 268.234 245.172 268.153C245.374 268.147 245.575 268.187 245.758 268.27C245.942 268.353 246.105 268.477 246.233 268.632C246.499 268.941 246.674 269.318 246.739 269.72C246.851 270.482 246.674 271.258 246.244 271.896C245.867 272.478 245.353 272.958 244.748 273.295C243.743 273.811 242.599 273.992 241.484 273.812C240.778 273.715 240.084 273.542 239.416 273.295C238.959 273.18 238.725 273.077 238.72 273.093Z" fill="#FAFAFA"/>
<path d="M267.008 252.999V267.199H239.113V252.999H267.008Z" fill="#FFC1CF"/>
<path d="M262.367 253.488C262.263 253.488 262.176 256.562 262.176 260.36C262.176 264.157 262.263 267.231 262.367 267.231C262.47 267.231 262.562 264.157 262.562 260.36C262.562 256.562 262.475 253.488 262.367 253.488Z" fill="#FFEEF2"/>
<path d="M260.249 253.309C260.146 253.309 260.059 256.35 260.059 260.093C260.059 263.836 260.146 266.878 260.249 266.878C260.353 266.878 260.445 263.842 260.445 260.093C260.445 256.344 260.358 253.309 260.249 253.309Z" fill="#FFEEF2"/>
<path d="M242.257 252.871C242.154 252.871 242.067 256.07 242.067 260.02C242.067 263.97 242.154 267.164 242.257 267.164C242.361 267.164 242.453 263.965 242.453 260.02C242.453 256.076 242.366 252.871 242.257 252.871Z" fill="#FFEEF2"/>
<path d="M244.742 253.047C244.638 253.047 244.551 256.159 244.551 260.006C244.551 263.852 244.638 266.964 244.742 266.964C244.845 266.964 244.938 263.852 244.938 260.006C244.938 256.159 244.85 253.047 244.742 253.047Z" fill="#FFEEF2"/>
<path d="M94.5893 222.004C91.6949 220.508 88.2945 220.317 85.079 220.845C83.3543 221.133 81.5589 221.645 80.3837 222.945C79.2085 224.245 78.9909 226.52 80.3347 227.629C81.14 228.293 82.2553 228.397 83.2999 228.38C85.8135 228.353 88.5991 227.912 90.6068 229.425C91.7547 230.285 92.5164 231.721 93.8712 232.145C95.2259 232.57 96.7221 231.77 97.4294 230.562C98.0832 229.302 98.2274 227.839 97.832 226.476C97.6718 225.531 97.2959 224.637 96.7335 223.861C96.1711 223.085 95.4374 222.45 94.5893 222.004Z" fill="#EE95A8"/>
<path d="M101.213 209.21C99.4443 211.735 96.0058 210.897 94.4117 209.357C92.8175 207.817 92.1429 205.581 91.5335 203.448C90.1299 198.584 88.7207 193.476 89.7599 188.519C90.009 187.016 90.67 185.611 91.6696 184.46C92.175 183.893 92.8202 183.468 93.5408 183.228C94.2614 182.987 95.0325 182.94 95.7773 183.089C97.5074 183.552 98.5847 185.266 99.3627 186.86C101.655 191.628 102.858 196.847 102.883 202.137C102.883 204.596 102.6 207.175 101.213 209.21Z" fill="#EE95A8"/>
<path d="M106.051 212.834C104.131 210.554 103.766 207.23 104.62 204.379C105.475 201.528 107.406 199.091 109.631 197.111C112.249 194.78 115.297 192.982 118.603 191.817C119.882 191.302 121.257 191.068 122.635 191.131C123.323 191.171 123.992 191.379 124.581 191.736C125.171 192.094 125.665 192.59 126.019 193.182C126.965 194.983 126.057 197.165 125.077 198.95C123.352 202.087 121.383 205.085 119.191 207.916C117.422 210.195 115.382 212.442 112.711 213.471C110.039 214.499 107.221 214.374 105.796 212.508" fill="#EE95A8"/>
<path d="M101.337 247.307C101.243 246.931 101.189 246.546 101.174 246.159C101.092 245.326 100.994 244.276 100.869 243.03C100.713 241.487 100.479 239.953 100.167 238.433C99.7577 236.577 99.1991 234.758 98.4967 232.992C97.8074 231.239 96.8752 229.59 95.7274 228.096C94.792 226.878 93.5969 225.883 92.229 225.185C91.2994 224.728 90.3047 224.418 89.2802 224.265C88.8945 224.254 88.5113 224.199 88.1376 224.102C88.5246 224.06 88.915 224.06 89.3019 224.102C90.3661 224.183 91.4072 224.454 92.3759 224.902C93.8149 225.582 95.0773 226.586 96.0648 227.835C97.2648 229.352 98.2329 231.038 98.9374 232.84C99.6402 234.626 100.186 236.47 100.57 238.351C100.866 239.889 101.071 241.442 101.184 243.003C101.282 244.331 101.32 245.408 101.337 246.153C101.377 246.537 101.377 246.923 101.337 247.307Z" fill="#2F3646"/>
<path d="M101.115 244.897C101.083 244.718 101.072 244.535 101.083 244.353C101.083 243.956 101.083 243.45 101.083 242.829C101.083 241.513 101.083 239.598 101.017 237.236C100.898 232.514 100.473 227.443 99.7061 220.261C98.9607 213.526 97.9651 205.68 96.9096 200.583C96.6865 199.424 96.458 198.379 96.2404 197.465C96.0228 196.551 95.865 195.762 95.6963 195.125C95.5276 194.489 95.4352 194.037 95.3427 193.646C95.2937 193.468 95.2609 193.286 95.2447 193.102C95.3278 193.26 95.39 193.428 95.4297 193.602C95.5494 193.983 95.6963 194.467 95.8758 195.06C96.0554 195.653 96.273 196.475 96.5015 197.389C96.73 198.303 96.9912 199.342 97.236 200.501C98.543 206.53 99.5256 212.625 100.179 218.76C100.963 225.942 101.317 232.481 101.349 237.215C101.376 239.581 101.349 241.496 101.268 242.819C101.229 243.439 101.197 243.945 101.175 244.342C101.178 244.529 101.158 244.715 101.115 244.897Z" fill="#2F3646"/>
<path d="M101.083 232.284C101.041 231.755 101.041 231.224 101.083 230.695C101.142 229.672 101.284 228.192 101.572 226.386C101.919 224.268 102.386 222.172 102.97 220.107C103.657 217.567 104.535 215.082 105.598 212.675C107.419 208.238 110.031 204.17 113.308 200.668C113.879 200.07 114.486 199.506 115.125 198.981C115.402 198.747 115.669 198.513 115.897 198.328L116.599 197.844C117.023 197.521 117.472 197.233 117.943 196.984C118.019 197.088 116.044 198.247 113.553 200.902C110.383 204.434 107.84 208.482 106.034 212.871C104.994 215.262 104.116 217.719 103.406 220.227C102.715 222.534 102.258 224.656 101.91 226.44C101.561 228.225 101.393 229.705 101.278 230.711C101.255 231.24 101.19 231.766 101.083 232.284Z" fill="#2F3646"/>
<path d="M114.121 252.617L112.853 269.929H90.6173L89.3496 252.617H114.121Z" fill="#FFC1CF"/>
<path d="M86.6994 245.793H116.27V252.616H86.6994V245.793Z" fill="#EBEBEB"/>
<path d="M116.27 269.266V271.159H114.877H87.1836V269.266H116.27Z" fill="#FFEEF2"/>
<path d="M113.519 274.277L114.879 270.953H88.2467L89.8354 274.277H113.519Z" fill="#FFEEF2"/>
<path d="M89.7603 258.274C89.7876 258.331 89.8224 258.384 89.8637 258.432C89.9562 258.552 90.065 258.693 90.1956 258.873L91.4959 260.532L91.5503 260.608L91.6047 260.527C92.4208 259.401 93.509 257.899 94.7875 256.125H94.6243L97.7581 260.565L97.8561 260.701L97.9649 260.57L101.665 256.136H101.452L101.654 256.392L104.962 260.57L105.076 260.712L105.174 260.565C106.305 258.971 107.35 257.475 108.313 256.131H108.128L111.991 260.532L112.056 260.608L112.111 260.521L113.319 258.492C113.449 258.269 113.547 258.089 113.629 257.948C113.669 257.889 113.702 257.825 113.727 257.757C113.676 257.808 113.633 257.865 113.596 257.926L113.253 258.47L111.986 260.467H112.105L108.297 256.011L108.204 255.902L108.117 256.022L104.951 260.44H105.168L101.85 256.267L101.648 256.006L101.539 255.875L101.431 256.006L97.7255 260.434H97.9322L94.7658 256.016L94.6733 255.886L94.5862 256.016L91.4687 260.467H91.583C91.0117 259.781 90.5655 259.243 90.2337 258.835L89.8746 258.416C89.8093 258.312 89.7658 258.269 89.7603 258.274Z" fill="#FFD3DD"/>
<path d="M89.037 252.503C89.037 252.579 94.6137 252.639 101.485 252.639C108.357 252.639 113.934 252.579 113.934 252.503C113.934 252.427 108.362 252.367 101.485 252.367C94.6083 252.367 89.037 252.427 89.037 252.503Z" fill="#FFD3DD"/>
<path d="M207.352 95.2227H222.059V108.623H207.352V95.2227Z" fill="#FFD3DD"/>
<path d="M207.351 108.622C207.351 108.622 207.351 108.529 207.351 108.366V107.637C207.351 106.984 207.351 106.065 207.384 104.917C207.384 102.556 207.422 99.2313 207.449 95.2324L207.324 95.363H222.014L221.867 95.2161V98.8124C221.867 99.9876 221.867 101.141 221.867 102.267C221.867 104.514 221.867 106.62 221.867 108.611L222.003 108.481L211.394 108.546L208.385 108.584H207.58C207.486 108.576 207.391 108.576 207.297 108.584C207.382 108.592 207.468 108.592 207.553 108.584H208.331L211.307 108.617L222.003 108.682H222.134V108.546C222.134 106.582 222.134 104.449 222.134 102.202C222.134 101.076 222.134 99.9223 222.134 98.7471V95.1508C222.27 95.2814 221.954 94.9658 221.981 94.9985H207.292H207.161V95.1236C207.188 99.1552 207.21 102.512 207.226 104.917C207.226 106.059 207.254 106.968 207.259 107.637C207.259 107.924 207.259 108.158 207.259 108.339C207.277 108.437 207.308 108.532 207.351 108.622Z" fill="#FFEEF2"/>
<path d="M207.352 110.723H222.059V117.458H207.352V110.723Z" fill="#FFD3DD"/>
<path d="M207.356 117.461C207.356 117.461 207.356 117.287 207.356 116.971L207.383 115.622C207.383 114.43 207.416 112.771 207.443 110.725L207.334 110.834L222.024 110.878C222.16 111.014 221.845 110.693 221.877 110.731V114.196C221.877 115.323 221.877 116.416 221.877 117.461L222.024 117.319L211.507 117.385L208.439 117.428H207.612H207.318C207.405 117.436 207.492 117.436 207.579 117.428H208.379L211.409 117.472L222.024 117.537H222.166V117.396C222.166 116.351 222.166 115.257 222.166 114.131V110.665C222.198 110.665 221.883 110.377 222.013 110.513L207.323 110.551H207.253V110.66C207.253 112.733 207.296 114.419 207.307 115.622C207.307 116.166 207.307 116.617 207.307 116.949C207.307 117.121 207.323 117.292 207.356 117.461Z" fill="#FFEEF2"/>
<path d="M224.66 95.2617C230.133 102.819 236.423 109.903 241.891 117.46L224.66 95.2617Z" fill="white"/>
<path d="M241.883 117.46C241.883 117.46 241.845 117.368 241.741 117.21L241.279 116.535C240.876 115.947 240.272 115.115 239.511 114.098C237.993 112.052 235.822 109.288 233.384 106.269C230.947 103.249 228.754 100.507 227.198 98.4992L225.354 96.1216L224.848 95.4742C224.728 95.3327 224.663 95.2566 224.652 95.262C224.692 95.3507 224.741 95.4346 224.799 95.5123L225.261 96.1869C225.664 96.7745 226.268 97.6069 227.03 98.6298C228.548 100.67 230.719 103.434 233.156 106.453C235.593 109.473 237.781 112.215 239.342 114.223L241.186 116.606L241.692 117.248C241.747 117.326 241.811 117.397 241.883 117.46Z" fill="#FFEEF2"/>
<path d="M199.914 88.5646C199.914 89.1113 200.076 89.6457 200.379 90.1002C200.683 90.5547 201.115 90.9089 201.62 91.1181C202.125 91.3273 202.681 91.3821 203.217 91.2754C203.753 91.1688 204.245 90.9055 204.632 90.519C205.018 90.1325 205.282 89.64 205.388 89.1039C205.495 88.5677 205.44 88.012 205.231 87.507C205.022 87.0019 204.668 86.5703 204.213 86.2666C203.759 85.9629 203.224 85.8008 202.678 85.8008C201.945 85.8022 201.243 86.0939 200.725 86.6119C200.207 87.1299 199.915 87.8321 199.914 88.5646Z" fill="#FFEEF2"/>
<path d="M91.7947 107.812H123.645V153.982H91.7947V107.812Z" fill="#A32135"/>
<path d="M93.3925 107.812H125.242V153.982H93.3925V107.812Z" fill="#DF889A"/>
<path d="M97.3461 112.812H121.285V148.982H97.3461V112.812Z" fill="#DD344E"/>
<path d="M97.3472 148.984C97.3472 148.984 97.3472 148.918 97.3472 148.804C97.3472 148.69 97.3472 148.516 97.3472 148.293C97.3472 147.836 97.3472 147.172 97.3472 146.307C97.3472 144.577 97.3472 142.047 97.3472 138.859C97.3472 132.482 97.3472 123.451 97.3853 112.814L97.3037 112.896H121.286L121.199 112.809C121.199 126.454 121.199 139.033 121.199 148.978L121.27 148.908L103.86 148.946H99.0447H97.7825H97.3418H97.7662H99.0175H103.816L121.281 148.978H121.352V148.913C121.352 138.967 121.352 126.389 121.352 112.743V112.656H121.286H97.3472H97.2711V112.732C97.2711 123.391 97.2983 132.439 97.3092 138.848C97.3092 142.031 97.3092 144.55 97.3092 146.28C97.3092 147.134 97.3092 147.792 97.3092 148.244C97.3092 148.467 97.3092 148.63 97.3092 148.75L97.3472 148.984Z" fill="#A22135"/>
<path d="M93.3027 107.812C93.4562 108.105 93.6385 108.383 93.8468 108.639C94.2167 109.135 94.7445 109.804 95.343 110.533C95.9415 111.262 96.5018 111.904 96.9153 112.366C97.1265 112.625 97.3615 112.864 97.6172 113.079C97.4357 112.798 97.2319 112.533 97.0078 112.285L95.4735 110.424L93.9447 108.563C93.7493 108.298 93.5348 108.047 93.3027 107.812Z" fill="#A22135"/>
<path d="M97.2266 148.863C96.0382 150.757 94.6382 152.509 93.0535 154.086L97.2266 148.863Z" fill="white"/>
<path d="M93.0535 154.086C93.3185 153.892 93.5612 153.67 93.7771 153.423C94.3335 152.859 94.8601 152.267 95.355 151.649C95.8495 151.031 96.3126 150.388 96.7423 149.723C96.9339 149.454 97.0962 149.166 97.2266 148.863C97.0126 149.112 96.8163 149.376 96.639 149.652C96.2908 150.147 95.7957 150.816 95.2189 151.54C94.6422 152.264 94.0927 152.889 93.6901 153.341C93.4588 153.572 93.246 153.822 93.0535 154.086Z" fill="#A22135"/>
<path d="M125.25 153.944L121.077 148.797L125.25 153.944Z" fill="white"/>
<path d="M121.071 148.797C121.038 148.797 121.941 150.005 123.089 151.425C123.77 152.302 124.496 153.143 125.266 153.944C123.966 152.156 122.573 150.438 121.093 148.797H121.071Z" fill="#A22135"/>
<path d="M125.242 107.812C124.527 108.585 123.852 109.393 123.218 110.234C122.543 111.041 121.913 111.886 121.33 112.764C122.047 111.987 122.723 111.174 123.354 110.326C124.031 109.525 124.662 108.686 125.242 107.812Z" fill="#A22135"/>
<path d="M104.806 120.156H112.82V142.915H104.806V120.156Z" fill="#DF889A"/>
<path d="M237.075 88.15C245.807 101.882 245.236 120.925 235.693 134.107C229.333 142.9 219.795 148.797 212.222 156.556C204.648 164.314 198.892 175.767 202.891 185.854C206.961 196.12 218.881 200.293 227.804 206.8C237.649 213.971 244.332 224.677 246.45 236.67C248.568 248.664 245.957 261.012 239.164 271.12H146.444C146.444 271.12 130.154 240.081 151.096 216.42C172.037 192.758 183.283 192.377 182.51 176.86C181.738 161.344 170.878 156.311 164.67 150.489C158.462 144.668 128.218 131.104 146.058 88.1445L237.075 88.15Z" fill="#FFECF0"/>
<path d="M237.076 88.1505H235.482H230.781H212.685L146.058 88.1016H145.988V88.1668C144.622 91.4196 143.459 94.7539 142.506 98.1505C141.505 101.707 140.845 105.35 140.536 109.032C140.215 112.88 140.413 116.754 141.124 120.55C141.905 124.484 143.319 128.266 145.313 131.747C146.346 133.522 147.514 135.215 148.806 136.812C150.125 138.43 151.552 139.957 153.077 141.382C154.621 142.834 156.239 144.205 157.925 145.49C159.611 146.796 161.374 148.025 163.093 149.331C163.953 149.979 164.725 150.708 165.563 151.437C166.401 152.166 167.234 152.846 168.093 153.531C169.807 154.902 171.537 156.252 173.169 157.77C176.576 160.722 179.194 164.477 180.786 168.694C181.552 170.858 182.034 173.111 182.223 175.397C182.272 175.941 182.348 176.54 182.37 177.117C182.391 177.693 182.413 178.27 182.37 178.847C182.357 180.005 182.241 181.159 182.021 182.296C181.59 184.6 180.649 186.779 179.268 188.673C177.847 190.566 176.238 192.311 174.464 193.879C170.944 197.095 167.206 200.169 163.632 203.488C160.057 206.807 156.559 210.267 153.186 213.928C151.465 215.741 149.855 217.656 148.365 219.663C146.867 221.695 145.564 223.865 144.475 226.143C142.273 230.76 140.921 235.736 140.482 240.833C140.038 246 140.342 251.204 141.385 256.284C141.892 258.851 142.557 261.384 143.376 263.868C144.182 266.374 145.163 268.819 146.314 271.186L146.352 271.262H239.241L239.279 271.202C243.627 264.656 246.294 257.138 247.043 249.315C247.797 241.8 246.695 234.215 243.833 227.225C241.114 220.544 236.926 214.561 231.581 209.717C228.987 207.427 226.185 205.384 223.213 203.613C220.318 201.817 217.397 200.153 214.638 198.335C211.877 196.609 209.341 194.548 207.087 192.198C204.934 189.891 203.337 187.122 202.419 184.103C201.613 181.157 201.487 178.067 202.049 175.066C202.585 172.169 203.552 169.369 204.916 166.758C206.221 164.243 207.785 161.873 209.584 159.685C211.32 157.586 213.208 155.616 215.231 153.792C219.154 150.18 223.175 147.019 226.787 143.771C228.599 142.138 230.313 140.506 231.896 138.836C233.431 137.201 234.845 135.457 236.129 133.618C238.45 130.246 240.239 126.538 241.434 122.623C242.48 119.242 243.087 115.74 243.24 112.204C243.316 111.399 243.284 110.604 243.284 109.826C243.284 109.048 243.284 108.292 243.213 107.557C243.142 106.823 243.104 106.105 243.05 105.381C242.995 104.658 242.848 104.01 242.756 103.352C242.155 99.3442 240.928 95.4557 239.121 91.8284C238.877 91.2673 238.597 90.7222 238.284 90.1962L237.614 89.0591C237.261 88.4552 237.07 88.1505 237.07 88.1505L237.614 89.0754L238.262 90.1962C238.568 90.7245 238.844 91.2694 239.089 91.8284C240.879 95.4645 242.091 99.3581 242.68 103.368C242.772 104.021 242.881 104.696 242.963 105.387C243.044 106.078 243.071 106.801 243.126 107.536C243.18 108.27 243.18 109.026 243.186 109.799C243.191 110.572 243.213 111.366 243.137 112.171C242.979 115.696 242.367 119.185 241.314 122.552C240.121 126.453 238.333 130.147 236.015 133.504C234.734 135.335 233.321 137.07 231.787 138.695C230.21 140.37 228.496 142.002 226.684 143.591C223.071 146.856 219.067 149.984 215.117 153.602C213.078 155.439 211.176 157.423 209.426 159.538C207.617 161.742 206.044 164.129 204.731 166.66C203.354 169.287 202.378 172.106 201.836 175.022C201.267 178.056 201.393 181.179 202.206 184.157C203.129 187.211 204.741 190.012 206.918 192.345C209.183 194.709 211.73 196.784 214.502 198.526C217.272 200.348 220.193 202.013 223.082 203.809C226.042 205.575 228.832 207.611 231.417 209.891C236.73 214.71 240.893 220.66 243.599 227.302C246.443 234.255 247.536 241.801 246.782 249.277C246.033 257.055 243.379 264.529 239.056 271.039L239.165 270.979H146.445L146.57 271.056C145.421 268.695 144.443 266.255 143.643 263.754C142.828 261.28 142.166 258.758 141.662 256.203C140.624 251.147 140.322 245.969 140.765 240.827C141.195 235.758 142.539 230.809 144.731 226.219C145.812 223.957 147.104 221.802 148.588 219.783C150.075 217.786 151.677 215.878 153.387 214.07C156.742 210.417 160.219 206.943 163.817 203.645C167.386 200.332 171.113 197.264 174.644 194.032C176.431 192.45 178.055 190.693 179.491 188.787C180.899 186.87 181.864 184.664 182.315 182.329C182.533 181.175 182.651 180.005 182.669 178.83C182.696 178.248 182.669 177.666 182.669 177.084C182.669 176.502 182.571 175.925 182.527 175.348C182.328 173.048 181.834 170.782 181.058 168.607C179.452 164.353 176.81 160.566 173.371 157.59C171.739 156.078 169.992 154.706 168.278 153.341C167.419 152.655 166.575 151.964 165.754 151.257C164.932 150.55 164.122 149.788 163.273 149.135C161.543 147.829 159.785 146.6 158.104 145.3C156.424 144.02 154.81 142.656 153.267 141.214C151.752 139.795 150.333 138.277 149.018 136.671C147.736 135.08 146.574 133.396 145.542 131.633C143.559 128.176 142.152 124.42 141.374 120.512C140.666 116.747 140.467 112.904 140.781 109.086C141.085 105.405 141.739 101.762 142.734 98.2049C143.674 94.7989 144.823 91.4539 146.173 88.1886L146.08 88.2485L212.669 88.1995H230.775H235.487L237.076 88.1505Z" fill="#2F3646"/>
<path d="M149.759 113.335C136.103 115.582 157.632 139.772 169.825 149.315C176.897 154.837 184.46 160.833 187.811 169.146C191.62 178.58 188.796 189.179 190.635 198.667C190.694 198.994 190.875 199.287 191.141 199.486C191.408 199.686 191.739 199.777 192.07 199.742C192.401 199.707 192.706 199.548 192.924 199.297C193.142 199.046 193.258 198.722 193.247 198.39C193.16 192.16 193.323 185.936 194.335 179.804C195.798 171.099 199.139 162.508 205.216 156.137C210.194 150.931 216.718 147.476 222.023 142.612C229.77 135.512 237.73 126.355 238.508 115.876C238.508 115.876 223.633 103.907 215.374 105.403C205.722 107.171 196.223 122.062 181.272 120.359C170.869 119.168 165.597 110.735 149.759 113.335Z" fill="#DD2B50"/>
<path d="M148.546 242.797C148.889 239.381 149.803 235.518 152.833 233.907C154.667 232.928 156.903 233.037 158.916 233.565C160.929 234.092 162.817 235.012 164.808 235.605C168.767 236.769 172.994 236.634 176.87 235.219C180.575 233.858 183.753 231.41 187.207 229.462C190.662 227.515 194.672 226.089 198.502 227.041C205.107 228.673 208.546 236.639 215.075 238.559C217.98 239.408 221.098 238.929 224.046 238.265C226.995 237.602 229.96 236.737 232.98 236.851C235.352 236.938 237.817 237.759 239.476 239.381L239.52 239.43C239.796 239.7 240.047 239.995 240.271 240.311C242.294 243.031 242.621 246.639 241.995 249.936C241.299 253.63 239.574 257.041 237.724 260.311C235.548 264.163 233.067 267.993 229.465 270.561C225.015 273.733 219.427 271.546 213.981 271.976C201.288 272.977 187.632 273.657 174.933 272.678C168.225 272.134 161.941 272.884 156.62 268.766C152.877 265.871 150.439 261.508 149.264 256.927C148.089 252.346 148.073 247.504 148.546 242.797Z" fill="#DD2B50"/>
<g opacity="0.24">
<path opacity="0.24" d="M172.504 236.258C173.217 237.346 173.527 238.826 172.836 239.936C172.145 241.046 171.204 242.063 170.91 243.342C170.436 245.344 171.644 247.302 172.542 249.158C174.204 252.475 174.831 256.214 174.343 259.892C173.828 263.582 171.923 266.936 169.016 269.266C167.727 270.262 166.051 271.035 164.495 270.545C163.032 270.088 162.09 268.603 161.775 267.096C161.459 265.589 161.726 264.038 161.916 262.52C162.802 255.445 162.619 248.278 161.372 241.258C161.166 240.088 160.97 238.75 161.71 237.819C162.243 237.278 162.921 236.9 163.663 236.731C166.492 235.79 169.544 236.835 172.477 236.28" fill="#2F3646"/>
</g>
<path d="M245.971 275.33C245.971 275.33 246.227 271.075 240.677 268.703H143.153C143.153 268.703 138.066 271.282 137.44 275.232L245.971 275.33Z" fill="#2F3646"/>
<path d="M245.971 275.33C245.971 275.33 246.227 271.075 240.677 268.703H143.153C143.153 268.703 138.066 271.282 137.44 275.232L245.971 275.33Z" fill="url(#paint0_linear_1000_38359)"/>
<path d="M145.227 88.6671L145.384 88.7378L237.087 88.1502C237.087 88.1502 237.414 87.9435 237.898 87.5572C238.47 87.1093 238.887 86.4937 239.091 85.7968C239.294 85.0998 239.275 84.3565 239.035 83.6711C238.795 82.9857 238.346 82.3927 237.752 81.9753C237.158 81.558 236.448 81.3372 235.722 81.3439L146.712 82.0621C143.05 82.0947 141.897 87.1001 145.227 88.6671Z" fill="#2F3646"/>
<g opacity="0.24">
<path opacity="0.24" d="M159.917 123.653C159.732 124.006 160.423 124.741 161.735 125.938C163.046 127.135 164.999 128.707 167.426 130.682C170.339 133.089 173.431 135.272 176.675 137.211C178.69 138.378 180.81 139.352 183.008 140.122C184.199 140.533 185.414 140.869 186.647 141.128C187.943 141.403 189.258 141.574 190.581 141.64C193.262 141.785 195.945 141.416 198.486 140.551C200.733 139.734 202.868 138.638 204.841 137.287C206.669 136.079 208.242 134.882 209.738 133.734C211.234 132.586 212.567 131.482 213.775 130.437C218.59 126.264 221.125 123.196 220.635 122.603C220.146 122.01 216.718 123.941 211.386 127.205L207.034 129.871C205.472 130.818 203.802 131.868 202.094 132.837C200.398 133.832 198.602 134.643 196.735 135.258C194.824 135.83 192.828 136.065 190.837 135.954C186.658 135.736 182.605 134.267 179.096 132.57C175.587 130.872 172.409 128.892 169.656 127.347C167.478 126.061 165.2 124.951 162.844 124.028C161.12 123.424 160.075 123.31 159.917 123.653Z" fill="#2F3646"/>
</g>
<path d="M193.181 210.034C192.796 209.88 192.365 209.885 191.983 210.047C191.601 210.208 191.298 210.514 191.14 210.897C190.981 211.281 190.98 211.711 191.137 212.095C191.294 212.479 191.595 212.786 191.976 212.95C192.358 213.113 192.788 213.12 193.174 212.968C193.561 212.817 193.872 212.519 194.04 212.14C194.208 211.761 194.221 211.331 194.074 210.943C193.928 210.555 193.634 210.24 193.257 210.066" fill="#F995A6"/>
<path d="M225.977 138.824C226.097 138.726 226.206 138.616 226.304 138.497L227.191 137.529C227.566 137.099 228.061 136.598 228.567 135.962L230.297 133.786C230.89 132.948 231.56 132.045 232.234 131.065L233.23 129.482C233.399 129.21 233.578 128.938 233.741 128.65L234.22 127.768C235.668 125.202 236.802 122.471 237.599 119.634C238.399 116.8 238.831 113.874 238.883 110.929C238.883 110.249 238.845 109.591 238.834 108.943C238.834 108.622 238.834 108.307 238.79 107.997C238.747 107.687 238.725 107.382 238.692 107.083C238.622 106.484 238.578 105.902 238.497 105.347C238.415 104.792 238.301 104.259 238.208 103.764C238.056 102.746 237.784 101.86 237.593 101.044C237.49 100.652 237.408 100.282 237.305 99.9554L237.006 99.0468L236.587 97.8009C236.547 97.6526 236.492 97.5086 236.424 97.3711C236.446 97.5229 236.482 97.6722 236.532 97.8172C236.625 98.1328 236.745 98.5517 236.902 99.0795L237.174 99.9881C237.267 100.32 237.343 100.69 237.441 101.076C237.615 101.865 237.871 102.757 237.985 103.797C238.072 104.297 238.159 104.825 238.252 105.374C238.344 105.924 238.366 106.501 238.431 107.099C238.431 107.398 238.491 107.698 238.524 108.008C238.556 108.318 238.524 108.633 238.556 108.949C238.556 109.591 238.6 110.244 238.594 110.918C238.541 113.846 238.115 116.755 237.327 119.575C236.535 122.391 235.415 125.104 233.992 127.659C233.834 127.953 233.676 128.247 233.524 128.541C233.371 128.835 233.181 129.085 233.018 129.368L232.038 130.951C231.375 131.952 230.716 132.855 230.14 133.671L228.442 135.848C227.952 136.495 227.468 137.001 227.109 137.447L226.26 138.454C226.158 138.571 226.064 138.695 225.977 138.824Z" fill="#2F3646"/>
<path d="M231.141 219.652C231.114 219.589 231.081 219.529 231.043 219.473L230.716 218.961C230.569 218.733 230.39 218.461 230.172 218.134L229.829 217.59C229.693 217.411 229.536 217.231 229.378 217.046L228.29 215.74C227.871 215.289 227.392 214.821 226.886 214.309C225.713 213.18 224.466 212.129 223.154 211.165C220.265 208.988 216.538 206.812 212.501 204.26C210.378 202.952 208.338 201.515 206.391 199.957C204.303 198.293 202.458 196.345 200.912 194.168C198.082 189.82 196.545 184.758 196.478 179.571C196.409 175.343 197.117 171.138 198.567 167.166C199.528 164.485 200.733 161.899 202.169 159.44C202.675 158.564 203.088 157.9 203.371 157.449L203.692 156.937C203.763 156.823 203.796 156.758 203.796 156.758C203.747 156.807 203.705 156.862 203.671 156.921L203.322 157.422C203.023 157.857 202.593 158.51 202.076 159.386C200.596 161.831 199.357 164.415 198.377 167.101C196.888 171.089 196.15 175.319 196.201 179.576C196.224 180.803 196.324 182.028 196.5 183.243C196.676 184.514 196.943 185.77 197.3 187.003C198.043 189.612 199.198 192.086 200.722 194.331C202.284 196.532 204.148 198.501 206.26 200.18C208.219 201.74 210.27 203.179 212.403 204.489C216.456 207.019 220.189 209.173 223.078 211.333C224.389 212.285 225.64 213.319 226.821 214.429C227.327 214.935 227.811 215.392 228.235 215.838L229.323 217.117C229.487 217.313 229.644 217.492 229.78 217.661L230.134 218.178L230.678 218.988L231.026 219.484C231.06 219.543 231.098 219.599 231.141 219.652Z" fill="#2F3646"/>
<path d="M236.198 229.266C236.231 229.354 236.271 229.44 236.318 229.522L236.71 230.213C236.884 230.506 237.091 230.876 237.303 231.301C237.515 231.725 237.787 232.226 238.016 232.797C238.135 233.08 238.266 233.374 238.396 233.678C238.527 233.983 238.636 234.32 238.766 234.658C239.028 235.332 239.234 236.072 239.474 236.834C240.42 240.245 240.746 243.798 240.437 247.324C240.344 248.129 240.279 248.901 240.137 249.609C240.078 249.962 240.029 250.31 239.958 250.637C239.887 250.963 239.811 251.279 239.74 251.578C239.621 252.182 239.441 252.71 239.31 253.178C239.18 253.646 239.049 254.048 238.93 254.375L238.674 255.125C238.637 255.21 238.613 255.3 238.603 255.392C238.656 255.316 238.698 255.234 238.728 255.147C238.81 254.946 238.908 254.707 239.033 254.413C239.197 254.025 239.341 253.629 239.463 253.227C239.61 252.759 239.8 252.231 239.936 251.627C240.012 251.328 240.088 251.012 240.17 250.686C240.252 250.359 240.301 250.006 240.371 249.652C240.524 248.934 240.6 248.161 240.698 247.351C241.038 243.803 240.71 240.223 239.729 236.796C239.485 236.012 239.267 235.267 238.989 234.592C238.853 234.255 238.745 233.923 238.603 233.613L238.201 232.726C237.961 232.182 237.656 231.676 237.444 231.241C237.253 230.867 237.04 230.503 236.808 230.153L236.372 229.484C236.264 229.337 236.209 229.26 236.198 229.266Z" fill="#2F3646"/>
<path d="M168.934 242.345L169.043 242.421L169.38 242.633L170.702 243.427L171.66 243.972C172.019 244.173 172.416 244.358 172.841 244.57C173.7 244.983 174.647 245.511 175.768 245.936L177.509 246.648C178.113 246.888 178.771 247.078 179.435 247.307C180.757 247.791 182.226 248.139 183.755 248.536C190.467 250.108 197.43 250.294 204.217 249.08C205.773 248.765 207.253 248.493 208.602 248.079C209.277 247.883 209.941 247.731 210.561 247.535L212.335 246.888C213.472 246.523 214.451 246.05 215.327 245.68C215.762 245.489 216.17 245.321 216.535 245.136L217.525 244.619L218.885 243.895L219.233 243.699L219.348 243.629C219.348 243.629 219.299 243.629 219.217 243.678L218.858 243.846L217.476 244.521L216.48 245.011C216.11 245.185 215.697 245.343 215.262 245.528C214.386 245.876 213.406 246.338 212.264 246.686L210.512 247.323C209.892 247.53 209.228 247.677 208.553 247.867C207.209 248.27 205.735 248.525 204.201 248.835C197.445 250.005 190.525 249.82 183.842 248.291C182.318 247.9 180.855 247.568 179.533 247.094C178.869 246.871 178.216 246.692 177.612 246.452L175.871 245.761C174.75 245.348 173.798 244.837 172.939 244.439C172.514 244.233 172.112 244.053 171.752 243.895L170.784 243.351L169.44 242.6L169.087 242.415C168.978 242.356 168.934 242.339 168.934 242.345Z" fill="#2F3646"/>
<path d="M163.263 127.191C163.296 127.231 163.335 127.266 163.377 127.295L163.736 127.589C164.068 127.855 164.531 128.231 165.124 128.677C166.332 129.634 168.083 131.022 170.298 132.676C172.875 134.648 175.577 136.451 178.388 138.073C180.06 139.008 181.803 139.811 183.6 140.472C185.539 141.178 187.562 141.628 189.618 141.811C193.614 142.035 197.599 141.206 201.174 139.406C202.72 138.62 204.212 137.734 205.641 136.751C206.968 135.815 208.181 134.906 209.253 134.03C211.429 132.3 213.094 130.837 214.269 129.836L215.613 128.671L215.956 128.367L216.07 128.252C216.07 128.252 216.021 128.252 215.94 128.339L215.575 128.628L214.199 129.749C213.002 130.728 211.293 132.164 209.128 133.873C208.04 134.727 206.837 135.624 205.504 136.549C204.081 137.515 202.596 138.388 201.059 139.161C197.52 140.925 193.582 141.737 189.634 141.517C187.603 141.337 185.604 140.894 183.687 140.2C181.902 139.547 180.17 138.756 178.508 137.833C175.701 136.241 172.995 134.477 170.407 132.55C168.187 130.918 166.419 129.558 165.184 128.628L163.764 127.54L163.388 127.268C163.35 127.236 163.308 127.21 163.263 127.191Z" fill="#2F3646"/>
<g opacity="0.24">
<path opacity="0.24" d="M212.332 246.916C209.753 244.924 206.13 245.403 202.941 246.078C199.753 246.752 196.543 247.835 193.317 247.383C190.885 247.041 188.654 245.849 186.244 245.327C183.834 244.805 180.934 245.191 179.601 247.253C190.255 250.686 201.735 250.567 212.316 246.916" fill="#2F3646"/>
</g>
<path d="M122.371 232.15L134.069 219.033L134.188 234.98L130.663 245.208L165.712 251.285L167.197 223.63L169.722 202.412C169.872 201.147 169.599 199.867 168.945 198.774C168.291 197.68 167.294 196.834 166.109 196.367L156.463 192.559L142.861 195.05L137.393 197.129C135.1 198.002 133.057 199.423 131.441 201.269L114.988 220.083" fill="#E3D0D4"/>
<path d="M134.883 215.877C134.222 215.868 133.563 215.82 132.908 215.735C131.33 215.494 129.86 214.788 128.686 213.706C127.512 212.624 126.688 211.216 126.319 209.663C126.184 209.015 126.084 208.359 126.02 207.699C125.976 207.877 125.959 208.06 125.971 208.243C125.967 208.737 126.018 209.23 126.123 209.712C126.453 211.328 127.282 212.799 128.494 213.917C129.706 215.035 131.238 215.743 132.875 215.942C133.364 216.005 133.858 216.016 134.35 215.974C134.531 215.971 134.712 215.938 134.883 215.877Z" fill="#2F3646"/>
<path d="M133.868 234.299C133.787 234.299 133.765 228.771 133.819 221.959C133.874 215.147 133.988 209.625 134.07 209.625C134.151 209.625 134.173 215.147 134.119 221.964C134.064 228.782 133.95 234.299 133.868 234.299Z" fill="#2F3646"/>
<path d="M135.15 238.351L156.326 229.826C157.163 229.489 157.889 228.925 158.422 228.197C158.956 227.469 159.276 226.607 159.345 225.707L160.896 205.402C160.896 205.402 160.711 196.763 166.108 196.344L169.16 197.552C173.126 199.657 174.106 205.435 173.567 209.891C172.8 216.224 172.479 225.19 171.625 230.685C170.917 235.185 168.36 239.14 163.942 240.299L137.86 245.946L135.15 238.351Z" fill="#E3D0D4"/>
<path d="M160.589 208.5C160.554 208.652 160.532 208.807 160.524 208.962C160.491 209.294 160.442 209.74 160.388 210.301C160.279 211.492 160.127 213.168 159.942 215.225C159.757 217.281 159.55 219.789 159.311 222.532C159.256 223.223 159.197 223.924 159.137 224.643C159.095 225.373 159.004 226.1 158.865 226.819C158.717 227.545 158.348 228.209 157.809 228.718C157.229 229.228 156.569 229.639 155.856 229.936C150.018 232.461 144.637 234.55 140.731 236.014L136.09 237.722L134.828 238.184C134.68 238.233 134.536 238.293 134.398 238.364C134.552 238.336 134.703 238.294 134.849 238.239L136.128 237.825C137.216 237.455 138.848 236.906 140.796 236.193C144.73 234.779 150.116 232.722 155.976 230.208C156.717 229.897 157.402 229.467 158.005 228.935C158.584 228.386 158.979 227.672 159.137 226.89C159.277 226.16 159.366 225.422 159.403 224.681C159.463 223.957 159.518 223.255 159.572 222.564C159.784 219.844 159.98 217.341 160.116 215.252C160.252 213.163 160.388 211.514 160.475 210.323C160.513 209.779 160.54 209.311 160.557 208.979C160.581 208.82 160.592 208.66 160.589 208.5Z" fill="#2F3646"/>
<path d="M172.721 219.539C172.7 219.628 172.687 219.719 172.683 219.811L172.613 220.595C172.547 221.318 172.466 222.292 172.362 223.478C172.259 224.664 172.096 226.139 171.884 227.738C171.675 229.47 171.357 231.188 170.931 232.88C170.731 233.751 170.381 234.581 169.898 235.333C169.425 236.024 168.896 236.674 168.314 237.276C167.324 238.294 166.181 239.152 164.925 239.816C163.754 240.411 162.499 240.822 161.204 241.035C161.296 241.047 161.389 241.047 161.481 241.035C161.744 241.018 162.006 240.983 162.264 240.932C163.221 240.754 164.148 240.44 165.017 240.001C166.308 239.352 167.485 238.495 168.499 237.466C169.101 236.857 169.647 236.197 170.132 235.491C170.64 234.718 171.008 233.862 171.22 232.961C171.652 231.256 171.966 229.524 172.161 227.776C172.357 226.144 172.487 224.719 172.575 223.5C172.662 222.281 172.711 221.291 172.738 220.605C172.738 220.29 172.738 220.029 172.738 219.817C172.747 219.724 172.742 219.63 172.721 219.539Z" fill="#2F3646"/>
<path d="M163.672 233.743C163.616 233.347 163.485 232.964 163.286 232.617C162.849 231.75 162.244 230.978 161.506 230.348C160.768 229.717 159.912 229.24 158.987 228.944C158.613 228.801 158.213 228.733 157.812 228.743C158.168 228.892 158.531 229.022 158.9 229.135C159.775 229.473 160.586 229.957 161.3 230.566C162.011 231.176 162.616 231.9 163.09 232.709C163.471 233.335 163.628 233.759 163.672 233.743Z" fill="#2F3646"/>
<path d="M159.5 218.301C159.454 218.315 159.41 218.335 159.369 218.361L158.989 218.562C158.497 218.804 157.992 219.017 157.476 219.199C155.572 219.867 153.53 220.043 151.54 219.71C148.584 219.183 145.944 217.541 144.163 215.124C143.098 213.727 142.431 212.069 142.231 210.325C142.132 209.408 142.229 208.481 142.514 207.605C142.815 206.71 143.339 205.906 144.038 205.271C144.726 204.627 145.592 204.206 146.524 204.063C146.965 203.984 147.419 204.006 147.851 204.127C148.282 204.249 148.681 204.467 149.016 204.765C149.319 205.062 149.495 205.466 149.505 205.891C149.496 206.313 149.351 206.722 149.092 207.055C148.822 207.378 148.49 207.643 148.117 207.837C147.743 208.03 147.335 208.147 146.916 208.181C145.442 208.365 143.947 208.176 142.565 207.631C141.184 207.087 139.962 206.204 139.01 205.064C138.289 204.177 137.746 203.159 137.411 202.066C137.161 201.238 137.025 200.379 137.008 199.514C137.002 198.968 137.042 198.422 137.128 197.882C137.161 197.714 137.188 197.572 137.204 197.463C137.209 197.414 137.209 197.365 137.204 197.316C136.979 198.02 136.869 198.754 136.878 199.493C136.872 200.371 136.993 201.245 137.237 202.088C137.842 204.121 139.15 205.872 140.927 207.031C142.703 208.19 144.833 208.68 146.937 208.415C147.387 208.376 147.824 208.248 148.223 208.038C148.623 207.829 148.977 207.543 149.266 207.197C149.562 206.816 149.726 206.351 149.734 205.869C149.734 205.374 149.538 204.899 149.19 204.547C148.824 204.221 148.39 203.981 147.919 203.845C147.448 203.709 146.953 203.682 146.47 203.764C145.48 203.91 144.559 204.356 143.831 205.042C143.094 205.708 142.543 206.553 142.231 207.496C141.935 208.408 141.835 209.372 141.937 210.325C142.15 212.107 142.84 213.799 143.934 215.222C145.445 217.283 147.588 218.792 150.038 219.519C152.487 220.246 155.108 220.151 157.498 219.248C158.204 219.022 158.877 218.703 159.5 218.301Z" fill="#2F3646"/>
<path d="M173.379 212.889C173.287 212.726 173.169 212.579 173.031 212.454C172.683 212.086 172.3 211.753 171.888 211.458C170.499 210.504 168.884 209.932 167.204 209.799C166.282 209.695 165.35 209.734 164.44 209.913C163.7 210.067 162.985 210.319 162.313 210.664C161.861 210.891 161.428 211.153 161.018 211.447C160.859 211.545 160.716 211.666 160.593 211.807C160.626 211.85 161.257 211.371 162.4 210.844C163.889 210.153 165.541 209.889 167.171 210.082C168.808 210.211 170.389 210.74 171.774 211.622C172.824 212.323 173.341 212.927 173.379 212.889Z" fill="#2F3646"/>
<path d="M169.988 198.369C169.472 198.855 168.896 199.274 168.274 199.615C167.596 199.963 166.857 200.181 166.098 200.257C165.174 200.349 164.241 200.219 163.378 199.876C162.532 199.515 161.785 198.955 161.202 198.244C160.72 197.65 160.351 196.973 160.113 196.247C159.918 195.565 159.806 194.861 159.782 194.152C159.729 194.34 159.705 194.534 159.711 194.729C159.702 195.263 159.773 195.795 159.923 196.307C160.145 197.071 160.515 197.785 161.011 198.407C161.608 199.187 162.4 199.796 163.308 200.17C164.216 200.545 165.207 200.672 166.18 200.54C166.969 200.45 167.732 200.206 168.427 199.822C168.894 199.565 169.32 199.238 169.689 198.853C169.818 198.711 169.919 198.547 169.988 198.369Z" fill="#2F3646"/>
<path d="M151.531 231.76C151.53 231.624 151.516 231.489 151.488 231.357C151.412 230.979 151.285 230.613 151.112 230.269C150.421 229.002 149.297 228.025 147.946 227.516C145.957 226.725 143.756 226.646 141.716 227.293C140.595 227.625 139.311 228.038 138.452 229.132C138.236 229.411 138.099 229.744 138.057 230.094C138.015 230.445 138.069 230.801 138.212 231.123C138.541 231.752 139.072 232.253 139.72 232.543C140.345 232.853 141.03 233.023 141.727 233.044C142.42 233.077 143.102 232.865 143.653 232.445C143.908 232.228 144.115 231.961 144.263 231.661C144.411 231.36 144.496 231.033 144.513 230.699C144.548 230.074 144.45 229.449 144.224 228.865C143.404 226.882 141.843 225.297 139.872 224.447C138.564 223.865 137.132 223.618 135.704 223.729C135.185 223.769 134.672 223.877 134.181 224.05C134.181 224.088 134.725 223.909 135.715 223.838C136.898 223.774 138.081 223.952 139.192 224.36C140.303 224.769 141.32 225.4 142.179 226.216C142.976 226.98 143.598 227.908 144.001 228.936C144.212 229.485 144.303 230.073 144.268 230.661C144.252 230.958 144.175 231.249 144.043 231.516C143.91 231.783 143.723 232.019 143.495 232.211C142.998 232.593 142.381 232.786 141.754 232.755C141.1 232.738 140.458 232.579 139.872 232.287C139.28 232.024 138.794 231.57 138.49 230.998C138.367 230.72 138.322 230.414 138.358 230.113C138.395 229.811 138.512 229.525 138.697 229.284C139.076 228.805 139.562 228.421 140.117 228.163C140.654 227.906 141.213 227.697 141.787 227.538C143.773 226.895 145.919 226.951 147.87 227.695C149.191 228.174 150.304 229.1 151.014 230.312C151.25 230.77 151.424 231.257 151.531 231.76Z" fill="#2F3646"/>
<path d="M165.633 239.4C165.633 239.346 164.828 239.28 163.603 238.856C162.005 238.293 160.574 237.339 159.439 236.081C158.304 234.823 157.503 233.3 157.107 231.653C156.797 230.39 156.808 229.569 156.754 229.574C156.715 229.762 156.706 229.955 156.726 230.146C156.739 230.667 156.801 231.186 156.911 231.696C157.264 233.397 158.064 234.973 159.229 236.261C160.394 237.549 161.881 238.503 163.538 239.025C164.034 239.186 164.544 239.301 165.062 239.368C165.249 239.406 165.442 239.417 165.633 239.4Z" fill="#2F3646"/>
<path d="M172.5 223.619C172.419 223.574 172.334 223.539 172.244 223.516C172.07 223.462 171.82 223.385 171.488 223.298C170.546 223.05 169.571 222.951 168.599 223.005C167.924 223.056 167.262 223.219 166.64 223.489C165.917 223.801 165.287 224.296 164.812 224.925C164.291 225.639 164.039 226.514 164.1 227.395C164.135 227.864 164.278 228.319 164.519 228.723C164.762 229.149 165.147 229.476 165.607 229.648C165.849 229.73 166.109 229.748 166.36 229.698C166.611 229.648 166.845 229.533 167.038 229.365C167.364 229.005 167.541 228.534 167.533 228.048C167.561 227.181 167.389 226.319 167.032 225.529C166.536 224.403 165.677 223.475 164.593 222.892C163.508 222.309 162.261 222.106 161.047 222.314C160.786 222.354 160.53 222.418 160.28 222.504C160.112 222.569 160.024 222.607 160.03 222.618C160.035 222.629 160.394 222.504 161.064 222.422C162.009 222.308 162.969 222.431 163.855 222.781C165.167 223.308 166.218 224.333 166.776 225.632C167.109 226.387 167.267 227.207 167.239 228.032C167.25 228.448 167.102 228.853 166.825 229.163C166.669 229.296 166.481 229.386 166.28 229.424C166.079 229.462 165.871 229.447 165.677 229.381C165.274 229.232 164.936 228.947 164.72 228.576C164.503 228.209 164.373 227.798 164.339 227.373C164.282 226.556 164.511 225.744 164.986 225.077C165.428 224.479 166.019 224.006 166.7 223.706C167.296 223.436 167.932 223.267 168.583 223.206C169.534 223.135 170.491 223.203 171.423 223.407C172.125 223.543 172.489 223.641 172.5 223.619Z" fill="#2F3646"/>
<g opacity="0.3">
<path opacity="0.3" d="M141.237 235.932C143.5 234.653 145.715 233.669 148.081 232.597C150.448 231.525 152.771 230.138 154.322 228.048C157.243 224.109 156.912 218.424 159.898 214.539C159.703 217.151 159.509 219.764 159.316 222.379C159.137 224.773 159.501 227.145 157.962 228.772C156.661 230.143 154.126 231.193 152.33 231.786C148.723 232.978 144.839 234.746 141.237 235.932Z" fill="#2F3646"/>
</g>
<path d="M104.413 265.773C104.413 265.773 86.693 270.67 85.9803 270.931C84.8922 271.307 85.0935 275.218 86.7529 275.153C87.5418 275.126 100.355 275.632 101.987 275.534C103.619 275.436 108.516 273.505 108.516 273.505L104.413 265.773Z" fill="#F995A6"/>
<path d="M97.0535 272.536C96.8346 271.885 96.5729 271.249 96.2701 270.632C95.8887 270.062 95.4707 269.516 95.0187 269C95.6492 269.345 96.1726 269.857 96.5315 270.48C96.8904 271.103 97.071 271.812 97.0535 272.531V272.536Z" fill="#2F3646"/>
<path d="M98.9023 271.699C98.8153 271.699 98.6358 270.877 98.1624 269.953C97.6891 269.028 97.1341 268.38 97.194 268.32C97.7112 268.723 98.1326 269.235 98.428 269.821C98.7234 270.406 98.8854 271.049 98.9023 271.704V271.699Z" fill="#2F3646"/>
<path d="M100.608 271.234C100.521 270.6 100.383 269.974 100.194 269.363C99.9167 268.785 99.5947 268.231 99.2315 267.703C99.7933 268.081 100.226 268.622 100.472 269.253C100.718 269.884 100.766 270.575 100.608 271.234Z" fill="#2F3646"/>
<path d="M100.319 268.943C100.163 268.522 100.098 268.074 100.129 267.626C100.134 267.139 100.194 266.653 100.308 266.179C100.376 265.899 100.465 265.624 100.575 265.357C100.626 265.189 100.724 265.038 100.858 264.922C100.947 264.856 101.057 264.823 101.168 264.829C101.279 264.835 101.385 264.879 101.467 264.955C101.604 265.087 101.688 265.265 101.701 265.455C101.714 265.611 101.714 265.768 101.701 265.923C101.699 266.215 101.663 266.505 101.592 266.788C101.474 267.263 101.291 267.719 101.048 268.143C100.853 268.552 100.584 268.921 100.254 269.231C100.21 269.231 100.509 268.79 100.863 268.067C101.07 267.648 101.225 267.206 101.325 266.75C101.383 266.484 101.412 266.212 101.413 265.94C101.413 265.668 101.412 265.33 101.249 265.2C101.217 265.171 101.176 265.154 101.132 265.154C101.089 265.154 101.047 265.171 101.015 265.2C100.927 265.286 100.86 265.393 100.819 265.51C100.715 265.765 100.626 266.027 100.553 266.293C100.428 266.745 100.35 267.208 100.319 267.675C100.286 268.437 100.368 268.937 100.319 268.943Z" fill="#2F3646"/>
<path d="M100.34 268.766C100.701 268.615 101.092 268.552 101.482 268.581C101.906 268.581 102.328 268.632 102.739 268.733C102.993 268.791 103.238 268.881 103.468 269C103.613 269.074 103.731 269.193 103.802 269.339C103.874 269.485 103.896 269.651 103.865 269.811C103.825 269.963 103.745 270.103 103.633 270.215C103.521 270.326 103.382 270.407 103.229 270.447C102.968 270.513 102.695 270.513 102.435 270.447C102.015 270.352 101.622 270.166 101.281 269.903C100.959 269.687 100.68 269.412 100.46 269.093C100.787 269.284 101.101 269.497 101.401 269.729C101.73 269.955 102.099 270.116 102.489 270.202C102.705 270.257 102.931 270.257 103.147 270.202C103.25 270.177 103.343 270.124 103.419 270.051C103.494 269.977 103.549 269.885 103.577 269.783C103.594 269.684 103.577 269.581 103.53 269.492C103.483 269.403 103.408 269.331 103.316 269.288C103.114 269.177 102.898 269.093 102.674 269.038C102.283 268.927 101.882 268.857 101.477 268.831C100.786 268.744 100.351 268.815 100.34 268.766Z" fill="#2F3646"/>
<path d="M94.3337 272.725C94.2577 272.184 94.1395 271.649 93.98 271.126C93.7313 270.64 93.4419 270.176 93.115 269.738C93.631 270.02 94.0342 270.47 94.2562 271.015C94.4783 271.559 94.5056 272.163 94.3337 272.725Z" fill="#2F3646"/>
<path d="M106.695 273.549C106.481 273.684 106.251 273.794 106.01 273.875C105.367 274.119 104.709 274.323 104.04 274.484C101.818 274.969 99.5457 275.185 97.272 275.126C94.617 275.094 92.2231 274.974 90.4875 274.903L88.4364 274.794C88.1844 274.79 87.9332 274.765 87.6856 274.718C87.9356 274.679 88.1891 274.666 88.4418 274.68H90.4929L97.272 274.811C99.5248 274.869 101.777 274.686 103.991 274.267C105.689 273.924 106.674 273.489 106.695 273.549Z" fill="#2F3646"/>
<path d="M107.219 273.95C107.219 273.988 106.713 273.705 105.891 273.346C104.847 272.853 103.686 272.665 102.54 272.802C101.413 273.046 100.395 273.65 99.6399 274.521C99.3255 274.893 98.9856 275.242 98.6225 275.566C98.8559 275.133 99.1469 274.734 99.4876 274.38C99.8368 273.974 100.231 273.609 100.663 273.292C101.203 272.891 101.832 272.627 102.496 272.519C103.699 272.374 104.917 272.603 105.984 273.177C106.434 273.367 106.851 273.628 107.219 273.95Z" fill="#2F3646"/>
<path d="M123.242 260.883C123.242 260.883 140.01 271.862 140.609 272.308C141.512 272.988 140.478 276.236 138.911 275.676C138.172 275.409 124.102 271.492 122.589 270.905C121.077 270.317 117.002 267.02 117.002 267.02L123.242 260.883Z" fill="#F995A6"/>
<path d="M128.224 269.564C128.426 268.874 128.814 268.252 129.346 267.768C129.878 267.283 130.532 266.954 131.238 266.816C130.649 267.17 130.083 267.563 129.546 267.992C129.073 268.488 128.632 269.013 128.224 269.564Z" fill="#2F3646"/>
<path d="M126.724 268.205C126.937 267.584 127.285 267.018 127.743 266.547C128.201 266.077 128.758 265.714 129.373 265.484C129.417 265.561 128.682 266.028 127.959 266.747C127.235 267.465 126.8 268.248 126.724 268.205Z" fill="#2F3646"/>
<path d="M125.209 267.237C125.211 266.553 125.472 265.894 125.938 265.393C126.328 264.84 126.91 264.452 127.57 264.305C127.066 264.699 126.591 265.13 126.15 265.594C125.794 266.116 125.479 266.665 125.209 267.237Z" fill="#2F3646"/>
<path d="M126.179 265.152C126.136 265.152 126.364 264.679 126.555 263.896C126.669 263.441 126.737 262.976 126.756 262.508C126.775 262.233 126.775 261.957 126.756 261.681C126.758 261.557 126.726 261.435 126.663 261.328C126.64 261.291 126.603 261.264 126.56 261.254C126.518 261.244 126.473 261.251 126.435 261.273C126.245 261.349 126.147 261.676 126.054 261.937C125.974 262.196 125.92 262.462 125.891 262.731C125.849 263.198 125.863 263.667 125.934 264.13C126.049 264.924 126.206 265.408 126.163 265.425C125.939 265.035 125.791 264.607 125.728 264.162C125.623 263.686 125.587 263.197 125.619 262.71C125.641 262.418 125.694 262.13 125.777 261.85C125.821 261.7 125.876 261.553 125.94 261.409C126.012 261.231 126.148 261.086 126.321 261.001C126.422 260.954 126.536 260.944 126.643 260.973C126.751 261.002 126.845 261.068 126.908 261.159C126.998 261.31 127.045 261.483 127.044 261.66C127.104 262.435 127.016 263.214 126.783 263.956C126.669 264.393 126.463 264.801 126.179 265.152Z" fill="#2F3646"/>
<path d="M126.238 264.972C126.238 265.016 125.825 264.82 125.15 264.651C124.756 264.556 124.353 264.502 123.948 264.488C123.717 264.472 123.484 264.487 123.257 264.531C123.157 264.545 123.064 264.59 122.991 264.661C122.919 264.731 122.871 264.823 122.854 264.923C122.85 265.031 122.874 265.139 122.925 265.234C122.975 265.33 123.051 265.41 123.143 265.467C123.33 265.585 123.542 265.656 123.763 265.674C124.16 265.713 124.562 265.672 124.943 265.554C125.298 265.421 125.662 265.314 126.032 265.233C125.725 265.478 125.374 265.663 124.998 265.777C124.594 265.932 124.162 265.997 123.73 265.968C123.462 265.954 123.201 265.871 122.974 265.728C122.839 265.646 122.729 265.528 122.656 265.388C122.582 265.249 122.547 265.092 122.555 264.934C122.574 264.772 122.646 264.62 122.758 264.503C122.871 264.385 123.02 264.307 123.181 264.281C123.436 264.236 123.695 264.225 123.953 264.248C124.376 264.277 124.795 264.355 125.199 264.482C125.579 264.563 125.934 264.731 126.238 264.972Z" fill="#2F3646"/>
<path d="M136.785 275.07C136.785 275.097 136.502 274.901 136.371 274.423C136.241 273.797 136.354 273.145 136.687 272.6C136.848 272.308 137.03 272.028 137.231 271.762C137.395 271.535 137.587 271.331 137.802 271.153C137.957 271.025 138.147 270.947 138.346 270.93C138.488 270.93 138.559 270.957 138.559 270.973C138.559 270.99 138.259 271 137.949 271.316C137.766 271.501 137.604 271.705 137.465 271.925C137.27 272.188 137.088 272.46 136.921 272.741C136.62 273.23 136.49 273.804 136.551 274.374C136.615 274.61 136.693 274.843 136.785 275.07Z" fill="#2F3646"/>
<path d="M130.761 270.572C130.738 270.277 130.779 269.981 130.882 269.704C130.984 269.427 131.145 269.176 131.354 268.967C131.521 268.723 131.74 268.52 131.995 268.37C132.25 268.221 132.534 268.129 132.828 268.102C132.383 268.417 131.967 268.77 131.582 269.157C131.269 269.605 130.994 270.078 130.761 270.572Z" fill="#2F3646"/>
<path d="M118.73 267.602C118.99 267.747 119.238 267.914 119.47 268.102C120.134 268.564 120.824 268.987 121.537 269.37C122.592 269.929 123.682 270.418 124.801 270.833C126.075 271.307 127.522 271.753 129.002 272.188C132.021 273.059 134.752 273.853 136.722 274.446L139.067 275.18C139.356 275.257 139.638 275.359 139.91 275.485C139.614 275.445 139.321 275.381 139.034 275.295L136.678 274.636C134.693 274.092 131.956 273.331 128.936 272.46C127.429 272.019 125.998 271.562 124.725 271.073C123.592 270.642 122.492 270.129 121.434 269.538C120.723 269.136 120.043 268.681 119.399 268.178C119.16 268.005 118.936 267.812 118.73 267.602Z" fill="#2F3646"/>
<path d="M118.109 267.823C118.56 267.625 119.039 267.496 119.529 267.442C120.721 267.222 121.952 267.374 123.055 267.878C123.651 268.19 124.162 268.641 124.546 269.194C124.861 269.631 125.126 270.101 125.334 270.598C125.553 271.038 125.708 271.507 125.797 271.991C125.551 271.57 125.332 271.134 125.144 270.685C124.69 269.623 123.904 268.737 122.902 268.16C121.849 267.687 120.684 267.519 119.54 267.676C118.67 267.747 118.12 267.867 118.109 267.823Z" fill="#2F3646"/>
<path d="M88.396 234.106C88.396 234.106 83.3634 235.902 83.3471 241.544C83.3036 252.343 105.175 264.253 105.175 264.253L134.283 244.971L136.105 244.231C136.105 244.231 96.7965 229.476 88.396 234.106Z" fill="#2F3646"/>
<path d="M88.396 234.106C88.396 234.106 83.3634 235.902 83.3471 241.544C83.3036 252.343 105.175 264.253 105.175 264.253L134.283 244.971L136.105 244.231C136.105 244.231 96.7965 229.476 88.396 234.106Z" fill="url(#paint1_linear_1000_38359)"/>
<path d="M119.543 254.713C119.275 254.565 119.02 254.394 118.781 254.202C118.308 253.854 117.628 253.342 116.795 252.695C115.125 251.411 112.862 249.583 110.419 247.488C107.976 245.393 105.832 243.429 104.309 241.977C103.547 241.253 102.938 240.655 102.519 240.236C102.293 240.031 102.085 239.807 101.899 239.566C102.149 239.742 102.384 239.938 102.601 240.154L104.451 241.824C106.012 243.233 108.177 245.176 110.615 247.265C113.052 249.354 115.294 251.204 116.921 252.532L118.852 254.109C119.098 254.292 119.329 254.494 119.543 254.713Z" fill="#455A64"/>
<path d="M96.6148 238.146C98.5183 237.944 100.424 238.506 101.914 239.707C101.865 239.789 100.826 239.109 99.3352 238.684C97.8444 238.26 96.6148 238.238 96.6148 238.146Z" fill="#455A64"/>
<path d="M99.1206 236.441C99.7941 236.727 100.387 237.175 100.846 237.744C101.305 238.313 101.617 238.987 101.754 239.706C101.667 239.706 101.351 238.83 100.617 237.932C99.8823 237.034 99.0717 236.518 99.1206 236.441Z" fill="#455A64"/>
<path d="M86.7963 270.655C86.7963 270.622 87.1445 270.551 87.5472 270.883C88.0215 271.325 88.3192 271.925 88.385 272.57C88.4804 273.204 88.3897 273.852 88.1239 274.436C87.9171 274.877 87.6886 275.083 87.6614 275.061C87.7332 274.82 87.8223 274.583 87.928 274.354C88.1185 273.795 88.1744 273.198 88.0912 272.613C88.0266 272.03 87.7877 271.48 87.4057 271.035C87.0956 270.714 86.7909 270.704 86.7963 270.655Z" fill="#2F3646"/>
<path d="M95.0965 216.453L105.461 242.732L150.091 243.461L150.918 241.045L135.276 240.479L127.757 217.166L95.0965 216.453Z" fill="#455A64"/>
<path d="M115.94 227.845C115.597 227.672 115.212 227.603 114.831 227.645C114.449 227.686 114.088 227.837 113.791 228.078C113.538 228.316 113.363 228.624 113.288 228.963C113.213 229.302 113.242 229.655 113.372 229.977C113.511 230.299 113.738 230.575 114.027 230.774C114.315 230.973 114.654 231.087 115.004 231.104C115.372 231.127 115.739 231.03 116.047 230.827C116.355 230.624 116.589 230.325 116.712 229.977C116.829 229.588 116.819 229.172 116.684 228.789C116.549 228.406 116.296 228.075 115.961 227.845" fill="#EBEBEB"/>
<path d="M102.426 265.569C102.426 265.569 143.547 238.594 145.223 238.034C146.898 237.474 150.979 234.808 155.043 235.928C159.107 237.049 162.763 240.7 164.586 246.032C165.631 249.079 166.12 254.274 166.354 258.175C166.666 262.84 165.154 267.444 162.138 271.015C160.802 272.682 159.027 273.943 157.013 274.655C156.583 274.791 156.137 274.906 155.68 275.004C147.905 276.69 139.902 273.197 135.549 266.549L134.592 265.091C134.592 265.091 107.687 274.971 107.268 274.835L102.426 265.569Z" fill="#2F3646"/>
<path d="M102.426 265.569C102.426 265.569 143.547 238.594 145.223 238.034C146.898 237.474 150.979 234.808 155.043 235.928C159.107 237.049 162.763 240.7 164.586 246.032C165.631 249.079 166.12 254.274 166.354 258.175C166.666 262.84 165.154 267.444 162.138 271.015C160.802 272.682 159.027 273.943 157.013 274.655C156.583 274.791 156.137 274.906 155.68 275.004C147.905 276.69 139.902 273.197 135.549 266.549L134.592 265.091C134.592 265.091 107.687 274.971 107.268 274.835L102.426 265.569Z" fill="url(#paint2_linear_1000_38359)"/>
<path d="M153.293 258.144C153.22 258.181 153.146 258.213 153.07 258.242L152.395 258.509L149.789 259.515L140.099 263.166C135.986 264.7 131.057 266.528 125.524 268.541C119.991 270.554 113.864 272.758 107.314 274.972L107.199 275.016L107.14 274.901L103.924 268.764L102.292 265.636L102.232 265.516L102.346 265.445L133.712 245.533L143.135 239.591L145.692 237.992L146.362 237.584C146.514 237.491 146.595 237.453 146.595 237.453L146.378 237.611L145.725 238.041L143.195 239.673L133.794 245.707L102.477 265.696L102.531 265.5C103.048 266.496 103.62 267.556 104.164 268.628L107.374 274.765L107.194 274.695C113.723 272.486 119.871 270.288 125.409 268.291L140.007 262.981L149.751 259.401L152.373 258.443L153.059 258.204L153.293 258.144Z" fill="#455A64"/>
<path d="M149.028 162.362C148.326 160.463 146.776 159.641 144.812 159.168C143.824 158.938 142.795 158.95 141.813 159.203C140.83 159.456 139.924 159.942 139.17 160.621C138.174 161.529 137.445 162.797 136.215 163.341C134.186 164.26 131.591 162.917 129.687 164.043C129.115 164.38 128.677 164.904 128.448 165.528C128.219 166.151 128.213 166.834 128.431 167.461C128.649 168.088 129.078 168.621 129.644 168.967C130.21 169.314 130.879 169.454 131.536 169.364C130.214 169.984 129.969 171.975 130.878 173.118C131.787 174.26 133.468 174.57 134.877 174.173C136.266 173.695 137.498 172.846 138.441 171.72C139.431 170.631 140.301 169.462 141.379 168.455C142.413 167.405 143.785 166.753 145.252 166.616C147.227 166.54 149.061 167.873 150.089 169.554C151.117 171.235 151.515 173.232 151.803 175.191C152.091 177.149 152.309 179.141 153.065 180.969C153.152 181.186 153.283 181.42 153.506 181.469C153.838 181.54 154.077 181.175 154.208 180.865C155.696 177.371 156.484 173.619 156.525 169.821C156.553 167.644 156.302 165.561 154.937 163.836C153.571 162.111 150.421 161.039 149.044 162.334" fill="#2F3646"/>
<path d="M153.526 171.158L153.526 171.158L153.526 171.154C153.205 168.281 152.075 165.748 150.319 164.039C148.566 162.333 146.184 161.44 143.332 161.846L142.793 161.948C142.793 161.948 142.793 161.948 142.792 161.948C140.26 162.454 138.01 163.893 136.489 165.981C134.968 168.068 134.288 170.651 134.583 173.216C135.176 178.245 135.91 183.787 136.452 186.43C137.022 189.113 138.689 190.388 140.216 190.998C140.982 191.304 141.713 191.442 142.253 191.504C142.523 191.535 142.745 191.546 142.898 191.55C142.975 191.552 143.035 191.552 143.075 191.552C143.095 191.552 143.11 191.551 143.12 191.551L143.131 191.551L143.134 191.551L143.134 191.551L143.134 191.551L143.254 191.545L143.28 191.662C143.301 191.754 143.359 192.155 143.438 192.724C143.512 193.252 143.605 193.932 143.706 194.671L143.734 194.873C143.958 196.517 144.807 198.011 146.103 199.047C147.399 200.082 149.043 200.579 150.696 200.436L150.696 200.436C151.569 200.362 152.418 200.112 153.191 199.7C153.964 199.288 154.645 198.722 155.193 198.039C155.741 197.355 156.144 196.567 156.377 195.723C156.611 194.878 156.67 193.996 156.551 193.128C156.551 193.128 156.551 193.127 156.551 193.127L153.526 171.158Z" fill="white" stroke="#2F3646" stroke-width="0.286079"/>
<path d="M143.377 190.948C145.924 190.481 148.274 189.267 150.129 187.461C150.129 187.461 149.226 191.748 143.649 192.358L143.377 190.948Z" fill="#D4BFC4"/>
<path d="M136.804 176.593C136.843 176.797 136.96 176.979 137.131 177.098C137.302 177.217 137.513 177.264 137.718 177.229C137.819 177.218 137.917 177.186 138.006 177.136C138.095 177.086 138.172 177.019 138.234 176.938C138.296 176.857 138.341 176.765 138.367 176.666C138.392 176.567 138.397 176.465 138.382 176.364C138.345 176.158 138.228 175.975 138.057 175.855C137.886 175.735 137.674 175.687 137.468 175.722C137.367 175.734 137.269 175.766 137.18 175.817C137.091 175.867 137.014 175.935 136.952 176.017C136.89 176.098 136.845 176.191 136.819 176.29C136.794 176.389 136.789 176.492 136.804 176.593Z" fill="#2F3646"/>
<path d="M136.184 175.693C136.304 175.78 136.81 175.22 137.653 175.051C138.497 174.882 139.204 175.187 139.285 175.051C139.367 174.915 139.182 174.833 138.872 174.692C138.459 174.508 137.997 174.46 137.555 174.556C137.116 174.64 136.715 174.863 136.413 175.192C136.179 175.454 136.13 175.66 136.184 175.693Z" fill="#2F3646"/>
<path d="M145.14 175.223C145.177 175.429 145.294 175.612 145.465 175.732C145.636 175.852 145.848 175.9 146.054 175.865C146.156 175.852 146.253 175.82 146.342 175.769C146.43 175.718 146.508 175.65 146.57 175.569C146.633 175.488 146.678 175.396 146.704 175.297C146.731 175.199 146.737 175.096 146.723 174.995C146.682 174.791 146.565 174.611 146.395 174.491C146.225 174.372 146.015 174.322 145.809 174.353C145.708 174.365 145.61 174.397 145.521 174.447C145.432 174.498 145.354 174.566 145.291 174.647C145.229 174.728 145.184 174.821 145.158 174.92C145.132 175.019 145.126 175.122 145.14 175.223Z" fill="#2F3646"/>
<path d="M144.512 174.196C144.632 174.278 145.138 173.718 145.981 173.549C146.825 173.38 147.532 173.685 147.614 173.549C147.695 173.413 147.51 173.331 147.2 173.19C146.786 173.009 146.326 172.961 145.883 173.054C145.444 173.143 145.043 173.365 144.735 173.69C144.507 173.984 144.458 174.158 144.512 174.196Z" fill="#2F3646"/>
<path d="M142.699 181.056C142.227 181.004 141.749 181.013 141.279 181.084C141.056 181.084 140.844 181.084 140.779 180.958C140.71 180.743 140.71 180.511 140.779 180.295C140.877 179.751 140.98 179.141 141.089 178.521C141.508 176.007 141.763 173.962 141.665 173.945C141.568 173.929 141.121 175.953 140.724 178.467C140.626 179.087 140.528 179.674 140.441 180.24C140.356 180.528 140.377 180.837 140.501 181.111C140.547 181.18 140.609 181.237 140.68 181.278C140.752 181.32 140.832 181.344 140.915 181.35C141.039 181.368 141.166 181.368 141.29 181.35C141.77 181.311 142.244 181.213 142.699 181.056Z" fill="#2F3646"/>
<path d="M145.302 181.154C145.16 181.154 145.345 182.09 144.692 182.895C144.039 183.7 143.06 183.798 143.06 183.929C143.06 184.059 143.31 184.059 143.724 183.989C144.263 183.889 144.75 183.604 145.1 183.183C145.433 182.775 145.594 182.255 145.552 181.731C145.508 181.339 145.362 181.132 145.302 181.154Z" fill="#2F3646"/>
<path d="M143.639 170.924C143.764 171.142 144.585 170.865 145.603 170.783C146.62 170.701 147.469 170.816 147.562 170.582C147.6 170.473 147.415 170.288 147.05 170.13C146.566 169.939 146.045 169.865 145.527 169.912C145.006 169.952 144.502 170.116 144.058 170.391C143.726 170.609 143.59 170.827 143.639 170.924Z" fill="#2F3646"/>
<path d="M136.009 173.189C136.194 173.352 136.732 173.037 137.434 172.884C138.136 172.732 138.751 172.759 138.843 172.531C138.887 172.422 138.756 172.248 138.457 172.117C138.067 171.964 137.64 171.935 137.233 172.035C136.823 172.122 136.451 172.337 136.172 172.65C135.971 172.895 135.922 173.107 136.009 173.189Z" fill="#2F3646"/>
<path d="M154.029 175.294C154.116 175.235 157.581 173.423 158.213 177.204C158.844 180.985 154.916 180.838 154.894 180.73C154.872 180.621 154.029 175.294 154.029 175.294Z" fill="#D4BFC4"/>
<path d="M155.806 179.101C155.806 179.101 155.877 179.139 155.997 179.172C156.165 179.212 156.342 179.187 156.492 179.101C156.712 178.907 156.876 178.657 156.966 178.377C157.056 178.097 157.069 177.799 157.003 177.512C156.96 177.186 156.843 176.873 156.661 176.598C156.609 176.486 156.531 176.387 156.434 176.31C156.336 176.233 156.222 176.181 156.1 176.158C156.021 176.151 155.941 176.172 155.875 176.218C155.81 176.264 155.762 176.331 155.741 176.408C155.708 176.517 155.741 176.593 155.741 176.598C155.741 176.604 155.649 176.549 155.654 176.392C155.66 176.295 155.698 176.203 155.763 176.13C155.807 176.082 155.861 176.042 155.92 176.015C155.98 175.988 156.045 175.974 156.111 175.973C156.271 175.977 156.427 176.023 156.564 176.105C156.701 176.187 156.815 176.302 156.894 176.441C157.111 176.742 157.251 177.091 157.303 177.458C157.406 178.225 157.134 179.003 156.612 179.248C156.515 179.295 156.409 179.319 156.301 179.319C156.194 179.319 156.088 179.295 155.991 179.248C155.828 179.194 155.795 179.112 155.806 179.101Z" fill="#2F3646"/>
<path d="M133.075 172.351C134.353 172.42 135.63 172.185 136.8 171.665C137.97 171.145 139 170.354 139.805 169.359C140.893 167.955 141.617 166.122 143.189 165.273C143.73 165.007 144.319 164.85 144.922 164.813C145.524 164.775 146.128 164.858 146.698 165.055C147.833 165.461 148.874 166.094 149.756 166.916C149.255 169.919 150.588 172.901 151.889 175.621C152.001 175.942 152.217 176.216 152.503 176.399C153.015 176.655 153.624 176.252 153.934 175.768C154.369 174.956 154.558 174.036 154.478 173.119C154.467 171.028 154.041 168.961 153.227 167.036C152.4 165.105 151.025 163.459 149.272 162.302C147.023 160.93 144.329 160.483 141.758 161.057C139.201 161.651 136.896 163.035 135.169 165.012C134.328 165.888 133.717 166.959 133.39 168.129" fill="#2F3646"/>
<path d="M285.34 260.953C285.317 260.874 285.284 260.797 285.243 260.725L284.938 260.066C284.563 259.215 284.259 258.334 284.029 257.433C283.431 255.094 283.224 251.519 284.111 247.275C284.588 244.96 285.217 242.68 285.993 240.447C286.793 238.026 287.718 235.458 288.474 232.678C289.328 229.778 289.741 226.767 289.698 223.744C289.584 220.583 288.648 217.428 287.62 214.288C286.592 211.149 285.531 208.07 285.215 204.979C284.859 202.006 285.455 198.996 286.918 196.383C288.284 193.87 289.992 191.726 291.271 189.501C292.469 187.44 293.353 185.212 293.893 182.89C294.664 179.524 294.72 176.034 294.056 172.645C293.813 171.407 293.448 170.195 292.968 169.027C292.981 169.111 293.001 169.192 293.028 169.272L293.246 169.963C294.526 174.141 294.663 178.586 293.643 182.836C293.098 185.131 292.212 187.332 291.015 189.365C289.737 191.541 288.017 193.717 286.63 196.236C285.144 198.901 284.537 201.966 284.894 204.996C285.215 208.14 286.287 211.236 287.31 214.375C288.333 217.515 289.263 220.632 289.377 223.739C289.425 226.731 289.023 229.713 288.186 232.585C287.441 235.349 286.521 237.917 285.738 240.349C284.968 242.594 284.348 244.888 283.882 247.215C283.017 251.492 283.268 255.104 283.882 257.449C284.122 258.354 284.446 259.234 284.851 260.077C284.992 260.349 285.107 260.561 285.188 260.725C285.231 260.806 285.282 260.882 285.34 260.953Z" fill="#2F3646"/>
<path d="M289.537 191.694C289.537 191.694 292.143 183.37 287.47 178.495C287.434 178.456 287.387 178.427 287.336 178.413C287.284 178.399 287.23 178.399 287.179 178.413C287.127 178.428 287.081 178.457 287.045 178.496C287.009 178.536 286.985 178.584 286.975 178.637C286.724 180.013 286.414 184.202 289.537 191.694Z" fill="#F995A6"/>
<path d="M287.977 181.27C287.985 181.786 288.045 182.3 288.156 182.804C288.325 183.892 288.526 185.105 288.749 186.476C288.972 187.847 289.163 189.093 289.331 190.149C289.375 190.664 289.468 191.174 289.609 191.672C289.653 191.155 289.636 190.635 289.56 190.122C289.473 189.169 289.304 187.864 289.07 186.427C288.836 184.991 288.586 183.707 288.379 182.766C288.303 182.253 288.168 181.751 287.977 181.27Z" fill="#2F3646"/>
<path d="M286.477 211.336C286.477 211.336 284.882 202.756 278.473 200.645C278.423 200.627 278.368 200.624 278.316 200.636C278.264 200.647 278.216 200.673 278.177 200.71C278.139 200.748 278.112 200.795 278.099 200.847C278.086 200.899 278.087 200.953 278.103 201.004C278.517 202.321 280.209 206.173 286.477 211.336Z" fill="#F995A6"/>
<path d="M280.219 202.848C280.468 203.3 280.762 203.727 281.095 204.121C281.737 204.98 282.499 205.982 283.337 207.091L285.589 210.067C285.871 210.5 286.191 210.907 286.547 211.281C286.345 210.803 286.087 210.35 285.78 209.931C285.236 209.132 284.501 208.054 283.603 206.896C282.706 205.737 281.895 204.719 281.28 203.979C280.971 203.562 280.615 203.183 280.219 202.848Z" fill="#2F3646"/>
<path d="M288.208 232.853C288.208 232.853 289.176 224.181 283.66 220.285C283.616 220.254 283.565 220.235 283.511 220.231C283.458 220.227 283.405 220.239 283.357 220.263C283.31 220.288 283.27 220.326 283.243 220.372C283.215 220.418 283.202 220.471 283.203 220.524C283.219 221.917 283.714 226.09 288.208 232.853Z" fill="#F995A6"/>
<path d="M284.69 222.91C284.794 223.417 284.951 223.911 285.158 224.385C285.528 225.391 285.958 226.561 286.442 227.878L287.71 231.37C287.845 231.867 288.027 232.35 288.254 232.812C288.196 232.297 288.081 231.79 287.911 231.3C287.645 230.38 287.231 229.123 286.725 227.763C286.219 226.403 285.724 225.179 285.349 224.303C285.183 223.815 284.962 223.348 284.69 222.91Z" fill="#2F3646"/>
<path d="M283.383 254.507C283.383 254.507 284.041 245.802 278.388 242.113C278.344 242.083 278.292 242.065 278.239 242.063C278.185 242.06 278.132 242.073 278.085 242.099C278.038 242.125 277.999 242.163 277.973 242.21C277.947 242.257 277.934 242.31 277.937 242.364C278.007 243.751 278.649 247.902 283.383 254.507Z" fill="#F995A6"/>
<path d="M279.512 244.711C279.642 245.214 279.824 245.703 280.056 246.169C280.464 247.159 280.937 248.345 281.465 249.608L282.863 253.057C283.006 253.537 283.191 254.003 283.418 254.45C283.345 253.937 283.212 253.435 283.021 252.954C282.727 252.045 282.265 250.81 281.71 249.466C281.155 248.122 280.621 246.914 280.213 246.055C280.03 245.582 279.794 245.132 279.512 244.711Z" fill="#2F3646"/>
<path d="M293.28 184.379C293.28 184.379 301.011 180.342 301.164 173.59C301.166 173.537 301.154 173.483 301.127 173.437C301.101 173.39 301.062 173.351 301.015 173.325C300.969 173.299 300.915 173.287 300.862 173.289C300.808 173.292 300.756 173.309 300.712 173.34C299.564 174.134 296.381 176.871 293.28 184.379Z" fill="#F995A6"/>
<path d="M299.559 175.91C299.197 176.279 298.875 176.684 298.596 177.118L296.419 180.132L294.243 183.141C293.912 183.536 293.617 183.96 293.362 184.409C293.771 184.081 294.136 183.702 294.45 183.282C295.065 182.553 295.875 181.509 296.724 180.328C297.573 179.147 298.313 178.054 298.83 177.249C299.123 176.832 299.367 176.383 299.559 175.91Z" fill="#2F3646"/>
<path d="M284.973 202.277C284.973 202.277 292.933 198.719 293.499 191.989C293.503 191.936 293.493 191.883 293.47 191.835C293.446 191.788 293.409 191.748 293.364 191.72C293.319 191.691 293.268 191.676 293.215 191.676C293.161 191.675 293.109 191.689 293.064 191.717C291.867 192.418 288.521 194.959 284.973 202.277Z" fill="#F995A6"/>
<path d="M291.758 194.191C291.376 194.539 291.029 194.923 290.724 195.339L288.363 198.218L285.996 201.085C285.643 201.45 285.326 201.85 285.049 202.276C285.464 201.957 285.842 201.592 286.176 201.188C286.834 200.492 287.705 199.502 288.624 198.375C289.543 197.249 290.349 196.199 290.909 195.432C291.238 195.052 291.523 194.636 291.758 194.191Z" fill="#2F3646"/>
<path d="M289.555 222.209C289.555 222.209 295.023 215.408 292.455 209.151C292.435 209.102 292.402 209.059 292.36 209.027C292.317 208.995 292.267 208.975 292.214 208.97C292.161 208.965 292.108 208.975 292.06 208.998C292.012 209.021 291.972 209.057 291.943 209.102C291.209 210.305 289.397 214.086 289.555 222.209Z" fill="#F995A6"/>
<path d="M291.918 211.934C291.735 212.416 291.601 212.915 291.52 213.424C291.292 214.474 291.025 215.704 290.726 217.064C290.427 218.424 290.182 219.649 289.926 220.693C289.781 221.189 289.681 221.697 289.627 222.211C289.869 221.75 290.051 221.26 290.171 220.753C290.443 219.833 290.764 218.577 291.069 217.129C291.373 215.682 291.613 214.409 291.765 213.473C291.872 212.967 291.923 212.451 291.918 211.934Z" fill="#2F3646"/>
<path d="M284.14 245.68C284.14 245.68 292.045 241.991 292.492 235.245C292.495 235.192 292.484 235.14 292.46 235.093C292.436 235.047 292.399 235.007 292.354 234.98C292.31 234.953 292.258 234.938 292.206 234.938C292.153 234.937 292.101 234.951 292.056 234.978C290.87 235.723 287.568 238.319 284.14 245.68Z" fill="#F995A6"/>
<path d="M290.789 237.492C290.411 237.845 290.07 238.235 289.772 238.656C289.108 239.5 288.324 240.485 287.459 241.573L285.142 244.483C284.793 244.864 284.48 245.276 284.206 245.713C284.611 245.395 284.976 245.03 285.294 244.625C285.936 243.923 286.79 242.917 287.688 241.774C288.586 240.631 289.402 239.576 289.946 238.798C290.273 238.394 290.556 237.956 290.789 237.492Z" fill="#2F3646"/>
<path d="M268.4 211.379C268.392 211.444 268.392 211.51 268.4 211.575C268.4 211.727 268.4 211.907 268.4 212.119C268.4 212.663 268.454 213.354 268.492 214.235C268.596 216.096 268.737 218.686 268.906 221.792C269.45 224.948 271.082 228.446 273.258 231.841C274.841 234.344 276.523 236.624 277.932 238.74C279.235 240.588 280.407 242.524 281.441 244.534C282.117 245.898 282.664 247.323 283.073 248.789C283.215 249.306 283.318 249.714 283.378 249.992C283.402 250.135 283.44 250.275 283.492 250.41C283.49 250.266 283.474 250.122 283.443 249.981C283.405 249.698 283.318 249.284 283.198 248.756C282.829 247.256 282.308 245.798 281.642 244.404C280.631 242.369 279.473 240.411 278.177 238.544C276.757 236.412 275.103 234.132 273.525 231.645C271.349 228.261 269.782 224.817 269.172 221.711C268.955 218.615 268.775 216.025 268.628 214.165C268.557 213.283 268.498 212.576 268.46 212.054C268.46 211.836 268.416 211.651 268.4 211.509C268.404 211.466 268.404 211.422 268.4 211.379Z" fill="#2F3646"/>
<path d="M273.079 231.221C273.079 231.221 269.733 223.163 273.944 217.886C273.977 217.843 274.02 217.811 274.07 217.792C274.12 217.773 274.175 217.769 274.227 217.779C274.28 217.789 274.328 217.813 274.368 217.85C274.407 217.886 274.435 217.932 274.45 217.984C274.847 219.333 275.538 223.495 273.079 231.221Z" fill="#F995A6"/>
<path d="M273.717 220.699C273.573 221.196 273.483 221.707 273.45 222.223C273.331 223.169 273.2 224.481 273.097 225.933C272.993 227.386 272.944 228.702 272.944 229.655C272.911 230.171 272.942 230.691 273.037 231.2C273.131 230.694 273.177 230.18 273.173 229.665C273.244 228.577 273.331 227.342 273.423 225.955C273.516 224.568 273.608 223.311 273.679 222.244C273.742 221.732 273.755 221.214 273.717 220.699Z" fill="#2F3646"/>
<g opacity="0.3">
<path opacity="0.3" d="M273.079 231.221C273.079 231.221 269.733 223.163 273.944 217.886C273.977 217.843 274.02 217.811 274.07 217.792C274.12 217.773 274.175 217.769 274.227 217.779C274.28 217.789 274.328 217.813 274.368 217.85C274.407 217.886 274.435 217.932 274.45 217.984C274.847 219.333 275.538 223.495 273.079 231.221Z" fill="#2F3646"/>
</g>
<path d="M283.469 250.631C283.469 250.631 280.787 242.334 285.411 237.416C285.447 237.377 285.493 237.348 285.544 237.334C285.595 237.319 285.649 237.319 285.7 237.333C285.752 237.347 285.798 237.375 285.834 237.413C285.871 237.452 285.895 237.5 285.906 237.552C286.173 238.923 286.521 243.107 283.469 250.631Z" fill="#F995A6"/>
<path d="M284.934 240.191C284.749 240.676 284.619 241.18 284.547 241.693C284.351 242.623 284.112 243.918 283.889 245.36C283.666 246.802 283.514 248.108 283.437 249.06C283.363 249.573 283.353 250.094 283.405 250.61C283.537 250.111 283.625 249.602 283.666 249.087C283.824 247.999 284.009 246.786 284.21 245.409C284.411 244.033 284.607 242.792 284.754 241.731C284.864 241.225 284.925 240.709 284.934 240.191Z" fill="#2F3646"/>
<g opacity="0.3">
<path opacity="0.3" d="M283.469 250.631C283.469 250.631 280.787 242.334 285.411 237.416C285.447 237.377 285.493 237.348 285.544 237.334C285.595 237.319 285.649 237.319 285.7 237.333C285.752 237.347 285.798 237.375 285.834 237.413C285.871 237.452 285.895 237.5 285.906 237.552C286.173 238.923 286.521 243.107 283.469 250.631Z" fill="#2F3646"/>
</g>
<path d="M268.844 221.377C268.844 221.377 261.695 216.372 262.418 209.658C262.423 209.605 262.442 209.554 262.474 209.511C262.506 209.468 262.549 209.435 262.599 209.415C262.649 209.395 262.703 209.39 262.755 209.399C262.808 209.408 262.857 209.432 262.897 209.467C263.931 210.436 266.738 213.532 268.844 221.377Z" fill="#F995A6"/>
<g opacity="0.3">
<path opacity="0.3" d="M268.844 221.377C268.844 221.377 261.695 216.372 262.418 209.658C262.423 209.605 262.442 209.554 262.474 209.511C262.506 209.468 262.549 209.435 262.599 209.415C262.649 209.395 262.703 209.39 262.755 209.399C262.808 209.408 262.857 209.432 262.897 209.467C263.931 210.436 266.738 213.532 268.844 221.377Z" fill="#2F3646"/>
</g>
<path d="M263.708 212.168C263.853 212.664 264.051 213.142 264.301 213.593C264.709 214.458 265.302 215.634 265.993 216.918C266.684 218.202 267.348 219.339 267.865 220.144C268.112 220.599 268.417 221.02 268.773 221.395C268.577 220.918 268.339 220.459 268.061 220.024L266.282 216.76L264.508 213.495C264.288 213.027 264.02 212.582 263.708 212.168Z" fill="#2F3646"/>
<path d="M280.594 242.408C280.594 242.408 271.992 241.064 269.663 234.72C269.644 234.67 269.639 234.616 269.649 234.563C269.659 234.51 269.684 234.461 269.72 234.422C269.756 234.382 269.802 234.354 269.854 234.339C269.905 234.324 269.96 234.324 270.012 234.339C271.355 234.72 275.256 236.292 280.594 242.408Z" fill="#F995A6"/>
<g opacity="0.3">
<path opacity="0.3" d="M280.594 242.408C280.594 242.408 271.992 241.064 269.663 234.72C269.644 234.67 269.639 234.616 269.649 234.563C269.659 234.51 269.684 234.461 269.72 234.422C269.756 234.382 269.802 234.354 269.854 234.339C269.905 234.324 269.96 234.324 270.012 234.339C271.355 234.72 275.256 236.292 280.594 242.408Z" fill="#2F3646"/>
</g>
<path d="M271.926 236.398C272.273 236.777 272.66 237.118 273.079 237.416C273.824 238.014 274.874 238.809 276.061 239.652C277.247 240.495 278.346 241.23 279.156 241.73C279.582 242.026 280.043 242.269 280.527 242.454C280.143 242.11 279.727 241.803 279.287 241.534L276.246 239.391L273.215 237.215C272.815 236.899 272.383 236.625 271.926 236.398Z" fill="#2F3646"/>
<path d="M288.815 258.27L291.328 275.19H275.659L277.694 258.27H288.815Z" fill="#455A64"/>
<path d="M288.815 258.27L291.328 275.19H275.659L277.694 258.27H288.815Z" fill="url(#paint3_linear_1000_38359)"/>
<path d="M277.064 263.511C277.064 263.603 279.894 263.674 283.386 263.674C286.879 263.674 289.703 263.603 289.703 263.511C287.602 263.349 285.493 263.295 283.386 263.347C281.278 263.295 279.168 263.349 277.064 263.511Z" fill="#2F3646"/>
<path d="M276.751 264.843C276.751 264.93 279.673 265.006 283.28 265.006C286.887 265.006 289.809 264.93 289.809 264.843C289.809 264.756 286.887 264.68 283.28 264.68C279.673 264.68 276.751 264.767 276.751 264.843Z" fill="#2F3646"/>
<defs>
<linearGradient id="paint0_linear_1000_38359" x1="191.706" y1="268.703" x2="191.706" y2="275.33" gradientUnits="userSpaceOnUse">
<stop stop-color="#343C50"/>
<stop offset="1" stop-color="#252C3D"/>
</linearGradient>
<linearGradient id="paint1_linear_1000_38359" x1="109.726" y1="233.207" x2="109.726" y2="264.253" gradientUnits="userSpaceOnUse">
<stop stop-color="#343C50"/>
<stop offset="1" stop-color="#252C3D"/>
</linearGradient>
<linearGradient id="paint2_linear_1000_38359" x1="134.41" y1="235.656" x2="134.41" y2="275.425" gradientUnits="userSpaceOnUse">
<stop stop-color="#343C50"/>
<stop offset="1" stop-color="#252C3D"/>
</linearGradient>
<linearGradient id="paint3_linear_1000_38359" x1="283.494" y1="258.27" x2="283.494" y2="275.19" gradientUnits="userSpaceOnUse">
<stop stop-color="#343C50"/>
<stop offset="1" stop-color="#252C3D"/>
</linearGradient>
</defs>
</svg>
