<svg width="565" height="409" fill="none" xmlns="http://www.w3.org/2000/svg"><g clip-path="url(#clip0_786:10795)"><path opacity=".7" d="M78.725 390.721c0 6.595 98.427 11.941 219.847 11.941s219.846-5.346 219.846-11.941c0-6.596-98.426-12.014-219.846-12.014s-219.846 5.418-219.846 12.014z" fill="#AA2338"/><path d="M431.448 344.83v7.15h-53.536v-7.15h53.536z" fill="#FFEEF2"/><path d="M493.975 311.99s68.709-40.663 65.046-145.025C555.358 62.603 463.231-.739 395.352.662c-67.878 1.401-87.541 30.618-143.512 35.16C195.869 40.365 97.345-.175 37.152 49.965c-60.192 50.141-12.34 173.412 59.188 262.078 71.528 88.666 286.733 104.097 397.635-.052z" fill="#CD2942"/><path opacity=".08" d="M493.975 311.99s68.709-40.663 65.046-145.025C555.358 62.603 463.231-.739 395.352.662c-67.878 1.401-87.541 30.618-143.512 35.16C195.869 40.365 97.345-.175 37.152 49.965c-60.192 50.141-12.34 173.412 59.188 262.078 71.528 88.666 286.733 104.097 397.635-.052z" fill="#2F3646"/><path d="M424.15 345.115c-.181 0-.333 1.503-.333 3.357 0 1.854.152 3.347.333 3.347.181 0 .342-1.502.342-3.347s-.152-3.357-.342-3.357zm1.165-.142c-.191 0-.333 1.502-.333 3.347s.142 3.357.333 3.357c.19 0 .332-1.503.332-3.357 0-1.854-.142-3.347-.332-3.347zm-43.266.142c-.19 0-.342 1.503-.342 3.357 0 1.854.152 3.347.342 3.347.19 0 .333-1.502.333-3.347s-.152-3.357-.333-3.357zm1.164-.142c-.181 0-.333 1.502-.333 3.347s.152 3.357.333 3.357c.181 0 .342-1.503.342-3.357 0-1.854-.152-3.347-.342-3.347zm6.996 3.642c0 .19 6.133.332 13.693.332s13.693-.142 13.693-.332c0-.191-6.133-.333-13.693-.333s-13.693.142-13.693.333z" fill="#FAFAFA"/><path d="M431.673 377.028v14.301h-53.536v-14.301h53.536z" fill="#DF889A"/><path d="M377.458 387.307s.086.066.285.161c.2.095.495.238.894.409 1.164.494 2.384.842 3.633 1.037a9.44 9.44 0 005.886-.837 7.75 7.75 0 002.796-2.53 5.902 5.902 0 00.95-4.117 4.348 4.348 0 00-.95-2.13 2.783 2.783 0 00-2.254-1.027 3.238 3.238 0 00-2.273 1.217 4.462 4.462 0 00-1.036 2.444 6.503 6.503 0 001.844 5.068 8.176 8.176 0 005.145 2.52 13.84 13.84 0 005.972-.741 11.059 11.059 0 005.22-3.509 5.708 5.708 0 001.217-3.091 4.026 4.026 0 00-1.141-3.214 2.64 2.64 0 00-1.673-.732 3.055 3.055 0 00-1.75.494 4.598 4.598 0 00-1.969 2.853 6.742 6.742 0 002.111 6.305 10.526 10.526 0 006.029 2.453c2.103.242 4.233.031 6.248-.618a8.632 8.632 0 004.754-3.699 6.31 6.31 0 00.59-5.706 2.96 2.96 0 00-2.178-1.844 3.458 3.458 0 00-2.7.646 4.466 4.466 0 00-1.275 4.821 8.352 8.352 0 002.701 3.804 12.074 12.074 0 007.341 2.853 11.72 11.72 0 008.843-3.566c.229-.236.445-.483.647-.742.071-.086.135-.178.19-.276a13.69 13.69 0 01-3.984 3.034 11.656 11.656 0 01-5.706 1.179 11.832 11.832 0 01-7.055-2.853 7.918 7.918 0 01-2.511-3.594 3.937 3.937 0 011.113-4.222 2.918 2.918 0 012.254-.533 2.378 2.378 0 011.749 1.522 5.697 5.697 0 01-.58 5.125 8.01 8.01 0 01-4.431 3.404 14.26 14.26 0 01-5.972.571 9.956 9.956 0 01-5.648-2.292 6.101 6.101 0 01-1.902-5.705 3.963 3.963 0 011.664-2.463 2.042 2.042 0 012.615.152 3.353 3.353 0 01.951 2.682 5.082 5.082 0 01-1.074 2.738 10.46 10.46 0 01-4.898 3.3 13.303 13.303 0 01-5.705.732 7.614 7.614 0 01-4.755-2.301 5.944 5.944 0 01-1.721-4.612 3.408 3.408 0 012.777-3.205 2.315 2.315 0 011.854.837c.464.541.77 1.199.885 1.902a5.413 5.413 0 01-.866 3.804 7.423 7.423 0 01-2.615 2.443 9.258 9.258 0 01-5.705.904 17.111 17.111 0 01-3.614-.904c-.798-.199-1.207-.38-1.217-.351z" fill="#FAFAFA"/><path d="M426.898 352.18v24.819h-48.753V352.18h48.753z" fill="#FFC1CF"/><path d="M418.793 353.036c-.18 0-.332 5.373-.332 12.01s.152 12.01.332 12.01c.181 0 .343-5.373.343-12.01s-.152-12.01-.343-12.01zm-3.703-.314c-.18 0-.333 5.316-.333 11.858 0 6.542.153 11.858.333 11.858.181 0 .343-5.306.343-11.858 0-6.552-.153-11.858-.343-11.858zm-31.445-.761c-.181 0-.333 5.592-.333 12.495 0 6.904.152 12.486.333 12.486.181 0 .342-5.592.342-12.486 0-6.894-.152-12.495-.342-12.495zm4.343.305c-.18 0-.333 5.439-.333 12.162 0 6.723.153 12.162.333 12.162.181 0 .343-5.439.343-12.162 0-6.723-.153-12.162-.343-12.162z" fill="#FFEEF2"/><path d="M125.554 298.007c-5.059-2.615-11.002-2.947-16.622-2.025-3.014.504-6.152 1.398-8.206 3.67-2.054 2.273-2.435 6.248-.086 8.188 1.407 1.16 3.357 1.341 5.182 1.312 4.394-.048 9.262-.818 12.771 1.826 2.007 1.502 3.338 4.013 5.706 4.754 2.367.742 4.982-.656 6.218-2.767a9.66 9.66 0 00.704-7.141 10.89 10.89 0 00-5.667-7.817zm11.579-22.355c-3.09 4.412-9.1 2.947-11.886.256-2.786-2.691-3.965-6.599-5.03-10.327-2.453-8.501-4.916-17.43-3.1-26.092a14.4 14.4 0 013.338-7.094 7.615 7.615 0 013.27-2.155 7.61 7.61 0 013.909-.241c3.024.808 4.907 3.803 6.266 6.589a62.306 62.306 0 016.153 26.702c0 4.298-.495 8.805-2.92 12.362zm8.456 6.333c-3.356-3.984-3.993-9.794-2.5-14.777 1.492-4.983 4.868-9.243 8.757-12.704a47.137 47.137 0 0115.681-9.253 16.811 16.811 0 017.046-1.198 7.39 7.39 0 015.915 3.585c1.654 3.148.066 6.961-1.645 10.08a120.346 120.346 0 01-10.289 15.671c-3.091 3.984-6.657 7.911-11.325 9.709-4.669 1.797-9.595 1.578-12.086-1.684" fill="#EE95A8"/><path d="M137.345 342.234a9.92 9.92 0 01-.285-2.006c-.143-1.455-.314-3.291-.532-5.468a80.068 80.068 0 00-1.227-8.035 61.795 61.795 0 00-2.919-9.509 35.197 35.197 0 00-4.841-8.559 18.07 18.07 0 00-6.114-5.087 17.567 17.567 0 00-5.154-1.607 9.102 9.102 0 01-1.997-.285 9.23 9.23 0 012.035 0c1.86.141 3.68.615 5.373 1.398a18.065 18.065 0 016.447 5.125 34.168 34.168 0 015.021 8.748 57.958 57.958 0 012.853 9.633 69.731 69.731 0 011.074 8.13c.171 2.32.238 4.203.266 5.506.071.67.071 1.346 0 2.016z" fill="#2F3646"/><path d="M136.96 338.021c-.057-.313-.076-.633-.057-.951v-2.662c0-2.301 0-5.649-.114-9.775-.209-8.254-.951-17.117-2.292-29.669-1.303-11.772-3.043-25.484-4.887-34.394a129.24 129.24 0 00-1.17-5.449c-.38-1.597-.656-2.976-.951-4.089-.295-1.112-.456-1.901-.618-2.586a5.283 5.283 0 01-.171-.951c.145.276.254.571.323.875.209.666.466 1.512.78 2.548.314 1.037.694 2.473 1.093 4.07.4 1.598.856 3.414 1.284 5.439a301.325 301.325 0 015.144 31.913c1.37 12.552 1.988 23.982 2.045 32.255.047 4.136 0 7.483-.143 9.794-.066 1.084-.123 1.968-.161 2.662.005.327-.03.653-.105.97z" fill="#2F3646"/><path d="M136.906 315.979a17.865 17.865 0 010-2.776c.105-1.788.352-4.374.856-7.531a98.924 98.924 0 012.444-10.974 90.527 90.527 0 014.593-12.989 69.102 69.102 0 0113.474-20.987 36.127 36.127 0 013.176-2.947c.485-.409.951-.818 1.35-1.142l1.227-.846a16.83 16.83 0 012.349-1.502c.133.18-3.319 2.206-7.674 6.846a72.844 72.844 0 00-13.142 20.92 101.877 101.877 0 00-4.592 12.856c-1.208 4.032-2.007 7.741-2.615 10.86-.609 3.119-.904 5.705-1.103 7.464a17.16 17.16 0 01-.343 2.748z" fill="#2F3646"/><path d="M159.689 351.515l-2.216 30.257H118.61l-2.216-30.257h43.295z" fill="#FFC1CF"/><path d="M111.764 339.59h51.681v11.925h-51.681V339.59z" fill="#EBEBEB"/><path d="M163.445 380.612v3.309H112.61v-3.309h50.835z" fill="#FFEEF2"/><path d="M158.639 389.37l2.377-5.81h-46.547l2.777 5.81h41.393z" fill="#FFEEF2"/><path d="M117.114 361.404c.048.099.109.192.181.276.161.209.352.456.58.77l2.272 2.9.096.133.095-.142c1.426-1.969 3.328-4.593 5.562-7.693h-.285l5.477 7.759.172.238.19-.228 6.466-7.75h-.371l.352.447 5.781 7.303.2.247.171-.257c1.978-2.786 3.804-5.401 5.487-7.75h-.323l6.751 7.693.114.133.095-.152 2.111-3.547c.229-.39.4-.703.542-.951.071-.103.128-.215.171-.332a1.553 1.553 0 00-.228.294l-.599.951-2.215 3.49h.209l-6.657-7.788-.161-.19-.152.209-5.535 7.722h.381l-5.801-7.294-.352-.456-.19-.229-.19.229-6.476 7.74h.362l-5.535-7.721-.161-.229-.152.229-5.449 7.778h.2a309.91 309.91 0 01-2.359-2.853l-.627-.732c-.114-.18-.19-.257-.2-.247zm-1.264-10.089c0 .133 9.747.238 21.757.238 12.009 0 21.756-.105 21.756-.238s-9.737-.238-21.756-.238c-12.02 0-21.757.105-21.757.238zM322.638 76.427h25.703v23.421h-25.703v-23.42z" fill="#FFD3DD"/><path d="M322.635 99.848v-1.721c0-1.141 0-2.748.057-4.755 0-4.126.067-9.937.115-16.926l-.219.228h25.674l-.256-.256v23.411l.237-.228-18.542.114-5.259.066h-1.407a2.943 2.943 0 00-.495 0c.149.014.299.014.447 0h1.36l5.201.058 18.695.114h.228V76.304c.238.228-.313-.324-.266-.267h-25.902v.22c.047 7.045.085 12.912.114 17.115 0 1.997.047 3.585.057 4.755v1.227c.031.171.085.337.161.494z" fill="#FFEEF2"/><path d="M322.638 103.519h25.703v11.772h-25.703v-11.772z" fill="#FFD3DD"/><path d="M322.643 115.291v-.856l.048-2.358c0-2.083.057-4.983.105-8.558l-.191.19 25.675.076c.238.238-.314-.323-.257-.257v11.763l.257-.247-18.381.114-5.363.076h-1.959c.152.014.304.014.456 0h1.398l5.297.076 18.552.114h.247v-12.01c.057 0-.494-.504-.266-.266l-25.675.066h-.123v.19c0 3.623.076 6.571.095 8.673v2.32c-.001.3.028.599.085.894z" fill="#FFEEF2"/><path d="M352.889 76.494c9.566 13.208 20.558 25.589 30.115 38.797z" fill="#fff"/><path d="M382.992 115.291s-.066-.162-.247-.437l-.808-1.179c-.704-1.027-1.759-2.482-3.091-4.261-2.653-3.575-6.447-8.406-10.707-13.683-4.26-5.278-8.092-10.07-10.812-13.579l-3.223-4.155-.885-1.132c-.209-.247-.323-.38-.342-.37.069.154.155.3.257.436l.808 1.18c.704 1.027 1.759 2.481 3.09 4.27 2.653 3.565 6.448 8.396 10.708 13.673 4.26 5.278 8.082 10.07 10.811 13.579l3.224 4.165.884 1.122c.096.136.208.261.333.371zm-73.357-50.503a4.829 4.829 0 005.773 4.738 4.832 4.832 0 001.741-8.754 4.829 4.829 0 00-2.684-.814 4.842 4.842 0 00-4.83 4.83z" fill="#FFEEF2"/><path d="M120.673 98.432h55.666v80.693h-55.666V98.432z" fill="#A32135"/><path d="M123.464 98.432h55.665v80.693h-55.665V98.432z" fill="#DF889A"/><path d="M130.369 107.17h41.84v63.216h-41.84V107.17z" fill="#DD344E"/><path d="M130.374 170.386V152.69c0-11.145 0-26.93.066-45.52l-.142.142h41.916l-.153-.152v63.216l.124-.123-30.429.066h-11.392 11.316l30.524.057h.124v-63.482h-42.087v.133c0 18.628.047 34.442.066 45.644v17.306l.067.409z" fill="#A22135"/><path d="M123.305 98.432c.268.512.586.996.95 1.445a98.719 98.719 0 002.615 3.309 102.216 102.216 0 002.749 3.205c.369.452.779.869 1.226 1.245-.317-.49-.673-.954-1.065-1.388l-2.681-3.252-2.672-3.252a11.926 11.926 0 00-1.122-1.312z" fill="#A22135"/><path d="M130.164 170.177a51.465 51.465 0 01-7.294 9.129z" fill="#fff"/><path d="M122.87 179.306a7.817 7.817 0 001.265-1.16 39.913 39.913 0 002.757-3.1 41.05 41.05 0 002.425-3.366 8.11 8.11 0 00.847-1.503c-.374.435-.717.896-1.027 1.379a71.721 71.721 0 01-2.482 3.3 75.042 75.042 0 01-2.672 3.147c-.405.405-.777.84-1.113 1.303z" fill="#A22135"/><path d="M179.142 179.059l-7.294-8.996z" fill="#fff"/><path d="M171.839 170.063c-.057 0 1.522 2.111 3.528 4.593a55.119 55.119 0 003.804 4.403 110.015 110.015 0 00-7.294-8.996h-.038zm7.29-71.631a54.833 54.833 0 00-3.537 4.231 49.881 49.881 0 00-3.3 4.422 52.352 52.352 0 003.538-4.26 47.69 47.69 0 003.299-4.393z" fill="#A22135"/><path d="M143.407 120.007h14.007v39.777h-14.007v-39.777z" fill="#DF889A"/><path d="M374.584 64.066c15.262 24 14.263 57.282-2.416 80.323-11.116 15.366-27.785 25.674-41.022 39.234-13.236 13.56-23.297 33.576-16.308 51.206 7.113 17.944 27.947 25.237 43.542 36.61a82.291 82.291 0 0119.855 112.416H216.182s-28.47-54.249 8.13-95.604 56.256-42.02 54.905-69.14c-1.35-27.12-20.33-35.916-31.18-46.091-10.85-10.174-63.71-33.88-32.53-108.964l159.077.01z" fill="#FFECF0"/><path d="M374.584 64.066h-42.629l-116.448-.086h-.124v.114a149.407 149.407 0 00-6.085 17.45 101.49 101.49 0 00-3.443 19.017 75.4 75.4 0 001.027 20.131 64.747 64.747 0 007.322 19.57 70.363 70.363 0 006.105 8.853 80.875 80.875 0 007.465 7.987 107.943 107.943 0 008.472 7.179c2.948 2.283 6.029 4.432 9.034 6.714 1.502 1.131 2.853 2.406 4.317 3.68a131.72 131.72 0 004.422 3.661c2.995 2.396 6.019 4.754 8.872 7.407a47.446 47.446 0 0113.312 19.095 46.555 46.555 0 012.511 11.715c.085.951.218 1.997.257 3.005.038 1.008.076 2.015 0 3.023a33.797 33.797 0 01-.609 6.029 27.505 27.505 0 01-4.812 11.145 61.247 61.247 0 01-8.396 9.1c-6.152 5.62-12.685 10.992-18.933 16.793-6.247 5.8-12.361 11.848-18.257 18.248a108.157 108.157 0 00-8.425 10.022 69.803 69.803 0 00-6.799 11.326 74.499 74.499 0 00-6.98 25.674 94.223 94.223 0 001.579 27.006 110.97 110.97 0 003.48 13.255 97.571 97.571 0 005.135 12.79l.067.133h162.348l.066-.104a83.545 83.545 0 0013.57-38.255 80.661 80.661 0 00-5.611-38.607 84.06 84.06 0 00-21.414-30.6 97.545 97.545 0 00-14.625-10.669c-5.059-3.138-10.165-6.048-14.986-9.224a68.906 68.906 0 01-13.199-10.726 36.201 36.201 0 01-8.159-14.15 35.283 35.283 0 01-.646-15.794 51.707 51.707 0 015.011-14.521 70.837 70.837 0 018.159-12.361 97.59 97.59 0 019.87-10.299c6.856-6.314 13.883-11.839 20.197-17.515 3.167-2.853 6.162-5.706 8.929-8.625a81.516 81.516 0 007.398-9.119 69.873 69.873 0 009.272-19.218 72.116 72.116 0 003.157-18.21c.133-1.407.076-2.796.076-4.155 0-1.36 0-2.682-.124-3.966-.123-1.283-.19-2.539-.285-3.803-.095-1.265-.352-2.397-.514-3.547a67.643 67.643 0 00-6.352-20.14 25.274 25.274 0 00-1.464-2.853l-1.17-1.987c-.618-1.056-.95-1.588-.95-1.588l.95 1.616 1.132 1.959a28.473 28.473 0 011.445 2.853 68.004 68.004 0 016.276 20.168c.162 1.141.352 2.32.495 3.528.142 1.208.19 2.473.285 3.756.095 1.284.095 2.606.105 3.956.009 1.35.047 2.739-.086 4.146a71.522 71.522 0 01-3.185 18.143 69.415 69.415 0 01-9.262 19.142 80.048 80.048 0 01-7.389 9.072c-2.757 2.928-5.753 5.781-8.919 8.558-6.314 5.705-13.313 11.173-20.216 17.496a98.277 98.277 0 00-9.947 10.375 71.562 71.562 0 00-8.206 12.447 51.895 51.895 0 00-5.059 14.616 35.62 35.62 0 00.647 15.965 36.42 36.42 0 008.234 14.311 69.772 69.772 0 0013.256 10.803c4.84 3.185 9.946 6.095 14.996 9.233a97.748 97.748 0 0114.568 10.631 83.727 83.727 0 0121.29 30.429 80.191 80.191 0 015.563 38.407 83.158 83.158 0 01-13.503 38.036l.191-.104H216.182l.219.133a96.023 96.023 0 01-5.116-12.761 110.256 110.256 0 01-3.461-13.199 93.616 93.616 0 01-1.569-26.872 73.704 73.704 0 016.932-25.532 69.887 69.887 0 016.742-11.249 110.85 110.85 0 018.387-9.985 299.183 299.183 0 0118.229-18.219c6.238-5.791 12.751-11.154 18.923-16.803a62.25 62.25 0 008.472-9.167 28.042 28.042 0 004.935-11.287c.381-2.016.588-4.062.619-6.114.047-1.018 0-2.035 0-3.052 0-1.018-.172-2.026-.248-3.034a47.27 47.27 0 00-2.567-11.782 47.791 47.791 0 00-13.436-19.255c-2.853-2.644-5.906-5.04-8.901-7.427a152.981 152.981 0 01-4.412-3.642c-1.436-1.236-2.853-2.567-4.336-3.708-3.024-2.283-6.096-4.432-9.034-6.704a109.439 109.439 0 01-8.453-7.142 82.232 82.232 0 01-7.427-7.94 72.216 72.216 0 01-6.076-8.805 64.282 64.282 0 01-7.284-19.437 74.859 74.859 0 01-1.037-19.969 101.713 101.713 0 013.414-19.018 150.788 150.788 0 016.01-17.506l-.162.105 116.381-.086h39.881l2.777-.085z" fill="#2F3646"/><path d="M221.973 108.083c-23.867 3.927 13.76 46.205 35.07 62.883 12.361 9.652 25.579 20.131 31.437 34.661 6.656 16.489 1.721 35.012 4.935 51.596a2.297 2.297 0 002.507 1.878 2.3 2.3 0 002.057-2.363c-.152-10.888.133-21.766 1.902-32.483 2.558-15.214 8.396-30.229 19.018-41.364 8.701-9.1 20.102-15.139 29.374-23.64 13.54-12.409 27.452-28.413 28.812-46.727 0 0-25.998-20.92-40.433-18.305-16.869 3.09-33.471 29.117-59.602 26.14-18.182-2.082-27.396-16.821-55.077-12.276zm-2.12 226.268c.599-5.972 2.196-12.723 7.493-15.538 3.205-1.712 7.113-1.521 10.631-.599 3.518.922 6.818 2.529 10.298 3.566a33.733 33.733 0 0021.082-.675c6.476-2.377 12.029-6.657 18.067-10.061s13.047-5.895 19.741-4.231c11.544 2.852 17.554 16.774 28.964 20.13 5.078 1.484 10.527.647 15.681-.513 5.154-1.16 10.336-2.672 15.614-2.473 4.146.153 8.453 1.589 11.354 4.422l.076.086c.483.473.922.988 1.312 1.54 3.537 4.755 4.108 11.059 3.014 16.822-1.217 6.456-4.231 12.419-7.464 18.134-3.804 6.732-8.14 13.426-14.435 17.915-7.778 5.543-17.544 1.721-27.063 2.472-22.184 1.75-46.052 2.938-68.246 1.227-11.725-.951-22.708.361-32.008-6.837-6.542-5.059-10.802-12.685-12.856-20.692-2.054-8.007-2.082-16.47-1.255-24.695z" fill="#DD2B50"/><path opacity=".24" d="M261.727 322.921c1.246 1.902 1.788 4.488.58 6.428-1.207 1.94-2.853 3.718-3.366 5.953-.827 3.499 1.284 6.922 2.853 10.165a32.378 32.378 0 013.147 18.761 25.522 25.522 0 01-9.309 16.384c-2.254 1.74-5.183 3.091-7.902 2.235-2.558-.799-4.203-3.395-4.755-6.029-.551-2.634-.085-5.344.247-7.997a124.214 124.214 0 00-.95-37.161c-.362-2.045-.704-4.384.589-6.01a6.962 6.962 0 013.414-1.902c4.945-1.645 10.279.181 15.405-.789" fill="#2F3646"/><path d="M390.129 391.215s.447-7.436-9.253-11.582H210.427s-8.891 4.507-9.985 11.411l189.687.171z" fill="#2F3646"/><path d="M390.129 391.215s.447-7.436-9.253-11.582H210.427s-8.891 4.507-9.985 11.411l189.687.171z" fill="url(#paint0_linear_786:10795)"/><path d="M214.05 64.969l.276.124 160.275-1.028s.57-.36 1.417-1.036a6.073 6.073 0 001.987-6.792 6.076 6.076 0 00-5.791-4.067l-155.568 1.255c-6.4.057-8.416 8.805-2.596 11.544z" fill="#2F3646"/><path opacity=".24" d="M239.727 126.112c-.324.618.884 1.902 3.176 3.994 2.291 2.092 5.705 4.84 9.946 8.292a130.56 130.56 0 0016.165 11.411 64.907 64.907 0 0011.069 5.087 52.273 52.273 0 006.361 1.759c2.265.481 4.564.78 6.876.894a36.703 36.703 0 0013.816-1.902 49.792 49.792 0 0011.107-5.705c3.195-2.111 5.943-4.203 8.558-6.21a153.994 153.994 0 007.056-5.762c8.415-7.293 12.846-12.657 11.991-13.693-.856-1.037-6.847 2.339-16.166 8.045l-7.607 4.659c-2.729 1.655-5.648 3.49-8.634 5.182a48.322 48.322 0 01-9.367 4.232 30.068 30.068 0 01-10.308 1.217c-7.302-.38-14.387-2.948-20.52-5.914-6.133-2.967-11.687-6.429-16.498-9.129a83.137 83.137 0 00-11.906-5.801c-3.014-1.055-4.84-1.255-5.115-.656z" fill="#2F3646"/><path d="M297.869 277.087a2.756 2.756 0 00-3.568 1.51 2.756 2.756 0 003.556 3.62 2.755 2.755 0 001.572-3.541 2.757 2.757 0 00-1.427-1.532" fill="#F995A6"/><path d="M355.186 152.633c.209-.171.4-.362.571-.571l1.55-1.692c.656-.751 1.521-1.626 2.406-2.739l3.023-3.803c1.037-1.465 2.207-3.043 3.386-4.755l1.74-2.767c.295-.475.608-.951.894-1.455l.836-1.54a64.28 64.28 0 005.906-14.216 59.97 59.97 0 002.244-15.215c0-1.188-.067-2.339-.086-3.471 0-.56 0-1.112-.076-1.654-.076-.542-.114-1.075-.171-1.598-.124-1.046-.2-2.063-.342-3.033-.143-.97-.343-1.902-.504-2.767-.267-1.778-.742-3.328-1.075-4.755-.181-.684-.323-1.331-.504-1.902l-.523-1.588-.732-2.177a4.075 4.075 0 00-.285-.751c.039.265.102.526.19.78.161.55.371 1.283.646 2.205l.476 1.588c.162.58.295 1.227.466 1.902.304 1.38.751 2.939.951 4.755.152.875.304 1.797.466 2.757.161.96.199 1.969.313 3.015 0 .523.105 1.046.162 1.588.057.542 0 1.093.057 1.645 0 1.122.076 2.263.067 3.442a60.246 60.246 0 01-2.216 15.129 65.423 65.423 0 01-5.829 14.13c-.276.514-.551 1.027-.818 1.541-.266.513-.599.951-.884 1.445l-1.712 2.767c-1.16 1.75-2.31 3.329-3.318 4.755l-2.967 3.804c-.856 1.131-1.702 2.016-2.33 2.795l-1.483 1.759a6.327 6.327 0 00-.495.647zm9.023 141.266a1.871 1.871 0 00-.171-.314l-.571-.893c-.256-.4-.57-.875-.951-1.446l-.599-.951c-.237-.314-.513-.627-.789-.951l-1.902-2.282c-.732-.789-1.569-1.607-2.453-2.501a64.54 64.54 0 00-6.523-5.496c-5.05-3.804-11.563-7.607-18.619-12.067a106.431 106.431 0 01-10.679-7.522 49.802 49.802 0 01-9.575-10.117 47.895 47.895 0 01-7.75-25.513 60.356 60.356 0 013.651-21.681 80.914 80.914 0 016.295-13.502 109.42 109.42 0 012.102-3.481l.561-.894c.123-.199.18-.313.18-.313a1.408 1.408 0 00-.218.285l-.609.875a58.66 58.66 0 00-2.177 3.432 77.2 77.2 0 00-6.467 13.484 60.294 60.294 0 00-3.803 21.805c.04 2.145.215 4.285.523 6.409a46.761 46.761 0 001.398 6.57 44.532 44.532 0 005.981 12.809 50.139 50.139 0 009.68 10.222 108.012 108.012 0 0010.736 7.532c7.084 4.421 13.607 8.187 18.657 11.962a66.773 66.773 0 016.542 5.411c.884.884 1.73 1.683 2.472 2.462l1.902 2.235c.285.342.561.656.799.951l.618.903.951 1.417.608.865c.059.104.126.202.2.295zm8.843 16.803c.057.155.127.304.209.447l.685 1.208c.304.513.665 1.16 1.036 1.902.371.741.846 1.616 1.246 2.615.209.494.437 1.007.665 1.54.229.532.419 1.122.647 1.712.457 1.179.818 2.472 1.236 3.803a51.672 51.672 0 011.683 18.334c-.161 1.407-.275 2.757-.523 3.993-.104.619-.19 1.227-.313 1.798-.124.57-.257 1.122-.381 1.645-.209 1.055-.523 1.978-.751 2.795a27.485 27.485 0 01-.666 2.092l-.447 1.313a1.629 1.629 0 00-.123.466 1.88 1.88 0 00.219-.428c.142-.352.313-.771.532-1.284.287-.677.538-1.369.751-2.073.257-.818.59-1.74.828-2.796.133-.523.266-1.074.408-1.645.143-.57.229-1.188.352-1.806.267-1.256.4-2.606.571-4.023a49.766 49.766 0 00-1.693-18.447c-.428-1.37-.808-2.672-1.293-3.851-.238-.59-.428-1.17-.675-1.712l-.704-1.55c-.418-.951-.951-1.835-1.322-2.596a19.75 19.75 0 00-1.112-1.902l-.761-1.169c-.19-.257-.285-.39-.304-.381zm-117.561 22.859l.19.133.589.371 2.311 1.389 1.674.951c.627.351 1.321.675 2.063 1.045 1.503.723 3.157 1.646 5.116 2.387l3.043 1.246c1.055.418 2.206.751 3.366 1.151 2.311.846 4.878 1.454 7.55 2.149a88.527 88.527 0 0035.764.95c2.719-.551 5.306-1.026 7.664-1.749 1.179-.343 2.339-.609 3.423-.951l3.1-1.132c1.988-.637 3.699-1.464 5.23-2.111.761-.332 1.474-.627 2.111-.951l1.731-.903 2.377-1.265.609-.342.2-.124s-.086 0-.229.086l-.627.295-2.416 1.179-1.74.856c-.646.304-1.369.58-2.13.903-1.531.609-3.242 1.417-5.239 2.026l-3.062 1.112c-1.084.361-2.244.618-3.423.951-2.349.704-4.926 1.151-7.608 1.693a90.41 90.41 0 01-35.583-.951c-2.662-.685-5.22-1.265-7.531-2.092-1.16-.39-2.301-.704-3.356-1.122l-3.043-1.208c-1.959-.723-3.623-1.617-5.126-2.311a57.415 57.415 0 00-2.073-.951l-1.692-.951-2.349-1.312-.618-.323c-.19-.105-.266-.133-.266-.124zm-9.914-201.259c.058.069.125.13.199.181l.628.513c.58.466 1.388 1.122 2.425 1.902a376.058 376.058 0 009.043 6.989 130.68 130.68 0 0014.14 9.433 63.705 63.705 0 009.11 4.194 41.535 41.535 0 0010.517 2.339 39.934 39.934 0 0020.197-4.203 68.583 68.583 0 007.807-4.64c2.32-1.636 4.44-3.224 6.314-4.755 3.803-3.024 6.713-5.582 8.767-7.331l2.349-2.035.599-.533.2-.199s-.086 0-.229.152l-.637.504-2.406 1.958c-2.092 1.712-5.077 4.223-8.862 7.208a133.496 133.496 0 01-6.333 4.679 69.311 69.311 0 01-7.769 4.564 39.798 39.798 0 01-19.969 4.118 41.238 41.238 0 01-10.393-2.302 63.824 63.824 0 01-9.053-4.136 136.99 136.99 0 01-14.159-9.233c-3.88-2.853-6.97-5.23-9.129-6.856l-2.481-1.902-.657-.476a.839.839 0 00-.218-.133z" fill="#2F3646"/><path opacity=".24" d="M331.336 341.549c-4.507-3.48-10.84-2.643-16.412-1.464-5.573 1.179-11.183 3.071-16.822 2.282-4.25-.599-8.149-2.681-12.361-3.594-4.213-.913-9.281-.238-11.611 3.366a90.332 90.332 0 0057.178-.59" fill="#2F3646"/><path d="M174.112 315.741l20.444-22.926.209 27.871-6.162 17.877 61.258 10.622 2.596-48.335 4.412-37.085a10.076 10.076 0 00-6.314-10.565l-16.86-6.656-23.772 4.355-9.557 3.633a26.223 26.223 0 00-10.403 7.236l-28.755 32.882" fill="#E3D0D4"/><path d="M195.981 287.299a29.753 29.753 0 01-3.452-.247 14.003 14.003 0 01-11.515-10.612 31.57 31.57 0 01-.523-3.433 3.141 3.141 0 00-.086.951c-.007.863.082 1.724.266 2.568a13.739 13.739 0 0011.801 10.888 12.2 12.2 0 002.577.057 2.96 2.96 0 00.932-.172z" fill="#2F3646"/><path d="M194.205 319.498c-.143 0-.181-9.662-.085-21.567.095-11.905.294-21.557.437-21.557.143 0 .181 9.652.086 21.567-.096 11.914-.295 21.557-.438 21.557z" fill="#2F3646"/><path d="M196.449 326.581l37.009-14.9a8.466 8.466 0 005.278-7.199l2.71-35.487s-.324-15.101 9.109-15.833l5.335 2.111c6.932 3.68 8.644 13.779 7.702 21.567-1.34 11.068-1.902 26.739-3.394 36.343-1.237 7.864-5.706 14.777-13.427 16.803l-45.587 9.87-4.735-13.275z" fill="#E3D0D4"/><path d="M240.911 274.405c-.062.266-.1.536-.114.809-.057.58-.143 1.359-.238 2.339-.19 2.082-.456 5.011-.78 8.605-.323 3.595-.684 7.979-1.103 12.771-.095 1.208-.2 2.434-.304 3.69a28.618 28.618 0 01-.476 3.803 6.288 6.288 0 01-1.844 3.319 12.355 12.355 0 01-3.414 2.13c-10.203 4.412-19.608 8.064-26.435 10.622l-8.111 2.985-2.207.809a5.36 5.36 0 00-.751.313 4.59 4.59 0 00.789-.218l2.235-.723c1.902-.647 4.755-1.607 8.159-2.853a484.95 484.95 0 0026.53-10.46 12.928 12.928 0 003.547-2.225 6.78 6.78 0 001.978-3.575c.245-1.275.401-2.565.466-3.861.104-1.265.199-2.491.295-3.699.37-4.754.713-9.129.95-12.78.238-3.651.476-6.533.628-8.615.067-.951.114-1.769.143-2.349.043-.277.062-.557.057-.837zm21.208 19.294a2.314 2.314 0 00-.067.476l-.124 1.369c-.114 1.265-.256 2.967-.437 5.04s-.466 4.65-.837 7.445a72.087 72.087 0 01-1.664 8.986 13.506 13.506 0 01-1.807 4.289 26.19 26.19 0 01-2.767 3.395 23.743 23.743 0 01-5.924 4.44 22.321 22.321 0 01-6.504 2.13c.161.021.324.021.485 0 .46-.03.917-.09 1.369-.18a17.993 17.993 0 004.812-1.626 23.223 23.223 0 006.086-4.431 25.206 25.206 0 002.852-3.452 13.802 13.802 0 001.902-4.422 67.283 67.283 0 001.645-9.062 156.44 156.44 0 001.008-12.533v-1.379a1.55 1.55 0 00-.028-.485z" fill="#2F3646"/><path d="M246.296 318.528a5.467 5.467 0 00-.675-1.969 12.747 12.747 0 00-7.512-6.418 5.359 5.359 0 00-2.054-.352 20.7 20.7 0 001.901.685 14.534 14.534 0 014.194 2.5 14.74 14.74 0 013.128 3.747c.666 1.093.942 1.835 1.018 1.807zm-7.286-26.987a.859.859 0 00-.228.105l-.666.352c-.858.422-1.741.794-2.644 1.112a20.916 20.916 0 01-10.374.894 20.484 20.484 0 01-12.894-8.016 17.025 17.025 0 01-3.376-8.387 11.403 11.403 0 01.495-4.755 9.698 9.698 0 012.662-4.079 8.164 8.164 0 014.346-2.111 5.175 5.175 0 014.355 1.227c.53.519.838 1.225.856 1.968a3.446 3.446 0 01-.723 2.035 5.572 5.572 0 01-1.704 1.366 5.572 5.572 0 01-2.1.602 15.497 15.497 0 01-13.816-5.448 15.523 15.523 0 01-2.796-5.24 16.566 16.566 0 01-.704-4.46c-.01-.955.06-1.909.21-2.852.057-.295.104-.542.133-.733a1.368 1.368 0 000-.256 12.027 12.027 0 00-.571 3.803 15.96 15.96 0 00.628 4.536 15.645 15.645 0 006.449 8.639 15.646 15.646 0 0010.505 2.42 5.963 5.963 0 002.248-.659 5.966 5.966 0 001.822-1.471 3.883 3.883 0 00.818-2.32 3.29 3.29 0 00-.951-2.311 5.712 5.712 0 00-4.754-1.369 8.552 8.552 0 00-4.612 2.235 10.017 10.017 0 00-2.796 4.288 11.873 11.873 0 00-.513 4.945 17.408 17.408 0 003.489 8.558 20.439 20.439 0 0023.706 7.037 14.722 14.722 0 003.5-1.655zm24.251-9.461a3.024 3.024 0 00-.608-.761 13.66 13.66 0 00-1.997-1.74 16.795 16.795 0 00-8.188-2.901 15.817 15.817 0 00-4.83.2c-1.293.269-2.543.71-3.718 1.312a17.07 17.07 0 00-2.263 1.37c-.278.17-.528.381-.742.627.057.076 1.16-.761 3.157-1.683a15.497 15.497 0 018.339-1.331 17.555 17.555 0 018.045 2.691c1.835 1.227 2.739 2.282 2.805 2.216zm-5.925-25.38a14.666 14.666 0 01-2.995 2.177 10.66 10.66 0 01-3.804 1.122 10.145 10.145 0 01-4.755-.665 9.992 9.992 0 01-3.803-2.853 10.936 10.936 0 01-1.902-3.49 15.188 15.188 0 01-.58-3.661 3.335 3.335 0 00-.124 1.008 9.257 9.257 0 00.371 2.758 10.634 10.634 0 001.902 3.67 9.714 9.714 0 009.034 3.728 10.549 10.549 0 003.927-1.256 9.15 9.15 0 002.206-1.692c.225-.248.402-.535.523-.846zm-32.255 58.357a3.546 3.546 0 00-.077-.704 7.486 7.486 0 00-.656-1.901 10.532 10.532 0 00-5.534-4.812 16.212 16.212 0 00-10.888-.39c-1.959.58-4.203 1.303-5.705 3.214a3.408 3.408 0 00-.419 3.48 5.515 5.515 0 002.634 2.482c1.093.541 2.29.84 3.509.875a5.142 5.142 0 003.366-1.046 4.31 4.31 0 001.067-1.371 4.313 4.313 0 00.436-1.681 7.687 7.687 0 00-.504-3.205 14.399 14.399 0 00-7.607-7.721 15.016 15.016 0 00-7.284-1.255 10.32 10.32 0 00-2.663.561c0 .066.951-.248 2.682-.371a15.212 15.212 0 0111.297 4.155 13.33 13.33 0 013.185 4.755c.369.96.528 1.988.466 3.014a3.815 3.815 0 01-1.35 2.71 4.622 4.622 0 01-3.043.951 7.855 7.855 0 01-3.29-.818 5.082 5.082 0 01-2.416-2.253 2.964 2.964 0 01.362-2.996 6.858 6.858 0 012.482-1.959 17.77 17.77 0 012.919-1.093 15.995 15.995 0 0110.631.276 10.514 10.514 0 015.496 4.574c.412.799.716 1.65.904 2.529zm24.647 13.36c0-.095-1.407-.209-3.547-.951a17.737 17.737 0 01-11.354-12.59c-.542-2.206-.523-3.642-.618-3.632a3.31 3.31 0 00-.047.998c.022.912.13 1.819.323 2.71a17.05 17.05 0 004.051 7.978 17.05 17.05 0 007.531 4.831c.867.282 1.758.483 2.663.599.328.067.664.086.998.057zm12-27.586a1.902 1.902 0 00-.447-.18 27.242 27.242 0 00-1.322-.381 16.335 16.335 0 00-5.049-.513c-1.18.089-2.337.375-3.423.846a7.938 7.938 0 00-3.195 2.51 6.559 6.559 0 00-1.246 4.317c.061.82.312 1.614.732 2.321a3.674 3.674 0 001.902 1.616 2.542 2.542 0 002.501-.494c.571-.629.88-1.452.865-2.301a9.901 9.901 0 00-.875-4.403 9.653 9.653 0 00-10.46-5.62 7.745 7.745 0 00-1.34.333c-.295.114-.447.181-.438.2.01.019.637-.2 1.807-.343 1.653-.2 3.33.016 4.878.628a9.344 9.344 0 015.106 4.983 9.607 9.607 0 01.809 4.193 2.856 2.856 0 01-.723 1.978 2.068 2.068 0 01-2.006.38 3.232 3.232 0 01-1.674-1.407 4.92 4.92 0 01-.666-2.102 6.175 6.175 0 011.132-4.012 7.452 7.452 0 012.995-2.397 10.28 10.28 0 013.29-.874 17.174 17.174 0 014.964.351c1.227.238 1.864.409 1.883.371z" fill="#2F3646"/><path opacity=".3" d="M207.087 322.35c3.955-2.235 7.826-3.956 11.962-5.829 4.136-1.873 8.197-4.298 10.907-7.95 5.106-6.884 4.526-16.821 9.747-23.611-.343 4.565-.682 9.132-1.018 13.703-.314 4.184.323 8.33-2.368 11.173-2.272 2.396-6.703 4.232-9.841 5.268-6.305 2.083-13.094 5.173-19.389 7.246" fill="#2F3646"/><path d="M142.731 374.507s-30.971 8.558-32.217 9.015c-1.902.656-1.55 7.493 1.35 7.379 1.379-.048 23.773.837 26.626.666 2.852-.172 11.41-3.547 11.41-3.547l-7.169-13.513z" fill="#F995A6"/><path d="M129.867 386.327a27.223 27.223 0 00-1.37-3.328 27.713 27.713 0 00-2.187-2.853 6.85 6.85 0 013.557 6.171v.01zm3.23-1.464c-.152 0-.466-1.436-1.294-3.053-.827-1.616-1.797-2.748-1.692-2.852a7.746 7.746 0 012.986 5.914v-.009zm2.98-.809a20.67 20.67 0 00-.722-3.271 21.861 21.861 0 00-1.683-2.9 5.807 5.807 0 012.405 6.171z" fill="#2F3646"/><path d="M135.57 380.051a5.516 5.516 0 01-.333-2.301c.01-.853.115-1.701.314-2.53.119-.489.274-.969.465-1.436a1.64 1.64 0 01.495-.76.834.834 0 011.065.057c.24.23.386.542.409.875.023.272.023.545 0 .817a6.417 6.417 0 01-.19 1.512 9.227 9.227 0 01-.951 2.368 6.374 6.374 0 01-1.389 1.902c-.076 0 .447-.77 1.065-2.035.362-.732.633-1.504.809-2.301.1-.466.151-.941.152-1.417 0-.476 0-1.065-.285-1.293a.304.304 0 00-.409 0 1.392 1.392 0 00-.343.542 12.121 12.121 0 00-.874 3.784c-.058 1.332.085 2.206 0 2.216z" fill="#2F3646"/><path d="M135.61 379.737a4.346 4.346 0 011.996-.323c.741 0 1.478.089 2.197.266.443.101.871.257 1.274.466a1.31 1.31 0 01.694 1.417c-.071.267-.211.51-.406.706a1.574 1.574 0 01-.706.406 2.835 2.835 0 01-1.388 0 5.187 5.187 0 01-2.016-.95 5.392 5.392 0 01-1.436-1.417c.572.334 1.121.706 1.645 1.112a5.46 5.46 0 001.902.828c.377.095.773.095 1.15 0a1.05 1.05 0 00.751-.733.809.809 0 00-.456-.865 4.562 4.562 0 00-1.122-.437 9.973 9.973 0 00-2.092-.362c-1.208-.152-1.968-.028-1.987-.114zm-10.5 6.923a18.317 18.317 0 00-.619-2.796c-.434-.849-.94-1.66-1.511-2.425a4.46 4.46 0 012.13 5.221zm21.609 1.436a5.554 5.554 0 01-1.198.57 28.545 28.545 0 01-3.443 1.065 49.543 49.543 0 01-11.829 1.122c-4.64-.057-8.824-.266-11.858-.39l-3.585-.19a7.813 7.813 0 01-1.312-.133c.437-.069.88-.091 1.322-.066h3.585l11.848.228a55.465 55.465 0 0011.744-.951c2.967-.599 4.688-1.36 4.726-1.255z" fill="#2F3646"/><path d="M147.629 388.799c0 .067-.884-.427-2.32-1.055a10.722 10.722 0 00-5.857-.951 9.317 9.317 0 00-5.069 3.005 18.245 18.245 0 01-1.778 1.826 9.486 9.486 0 011.512-2.073c.611-.71 1.3-1.348 2.054-1.902a7.347 7.347 0 013.205-1.35c2.101-.255 4.23.147 6.095 1.15a7.946 7.946 0 012.158 1.35z" fill="#2F3646"/><path d="M175.64 365.959s29.307 19.189 30.353 19.969c1.579 1.189-.228 6.865-2.967 5.886-1.293-.466-25.883-7.312-28.527-8.339-2.643-1.027-9.766-6.79-9.766-6.79l10.907-10.726z" fill="#F995A6"/><path d="M184.343 381.135a6.858 6.858 0 015.268-4.802 26.98 26.98 0 00-2.957 2.054 28.862 28.862 0 00-2.311 2.748zm-2.624-2.377a7.773 7.773 0 014.631-4.755c.076.134-1.207.951-2.472 2.207-1.265 1.255-2.025 2.624-2.159 2.548zm-2.646-1.693a4.752 4.752 0 011.275-3.223 4.751 4.751 0 012.852-1.902 22.647 22.647 0 00-2.482 2.254 20.975 20.975 0 00-1.645 2.871z" fill="#2F3646"/><path d="M180.768 373.423c-.076 0 .323-.827.656-2.196.2-.794.318-1.607.352-2.425.032-.481.032-.964 0-1.445a1.195 1.195 0 00-.162-.618.295.295 0 00-.399-.095c-.333.133-.504.703-.666 1.16a7.371 7.371 0 00-.285 1.388c-.074.815-.048 1.635.076 2.444.2 1.388.475 2.234.399 2.263a6.16 6.16 0 01-.76-2.206 9.061 9.061 0 01-.191-2.539 7.227 7.227 0 01.276-1.502 6.42 6.42 0 01.285-.771c.127-.311.364-.565.666-.713a.83.83 0 011.027.276c.157.264.24.567.238.875a10.665 10.665 0 01-.457 4.012c-.2.765-.56 1.478-1.055 2.092z" fill="#2F3646"/><path d="M180.872 373.109c0 .077-.723-.266-1.902-.561a10.633 10.633 0 00-2.102-.285 4.653 4.653 0 00-1.207.076.832.832 0 00-.704.685 1.061 1.061 0 00.504.951c.327.206.699.33 1.084.361a5.255 5.255 0 002.063-.209c.62-.232 1.256-.42 1.902-.561a5.428 5.428 0 01-1.806.951 5.218 5.218 0 01-2.216.333 2.761 2.761 0 01-1.322-.419 1.535 1.535 0 01-.732-1.388 1.313 1.313 0 011.094-1.141 5.088 5.088 0 011.35-.057 9.33 9.33 0 012.177.409 4.4 4.4 0 011.817.855zm18.432 17.649c0 .048-.495-.294-.723-1.131a4.393 4.393 0 01.552-3.186c.281-.51.599-.999.951-1.464.285-.396.621-.754.998-1.065.27-.223.602-.359.951-.39.247 0 .371.048.371.076 0 .029-.523.048-1.065.599-.32.323-.604.681-.847 1.065-.341.459-.658.935-.95 1.426a4.525 4.525 0 00-.647 2.853c.112.414.248.82.409 1.217zm-10.527-7.864a3.59 3.59 0 011.036-2.805 3.523 3.523 0 012.577-1.512 16.67 16.67 0 00-2.177 1.845 16.874 16.874 0 00-1.436 2.472zm-21.028-5.192c.456.254.889.546 1.294.875a37.491 37.491 0 003.613 2.216 47.389 47.389 0 005.705 2.558c2.226.827 4.755 1.607 7.341 2.367 5.278 1.522 10.052 2.91 13.494 3.947l4.098 1.283c.506.134.999.313 1.474.533a10.02 10.02 0 01-1.531-.333l-4.117-1.151c-3.471-.951-8.254-2.282-13.532-3.803-2.634-.77-5.135-1.569-7.36-2.425a43.562 43.562 0 01-5.753-2.682 28.896 28.896 0 01-3.556-2.377 9.353 9.353 0 01-1.17-1.008z" fill="#2F3646"/><path d="M166.665 378.092a8.443 8.443 0 012.482-.666 10.305 10.305 0 016.162.761 7.281 7.281 0 012.605 2.301 12.376 12.376 0 011.379 2.453c.381.77.653 1.59.808 2.435a19.274 19.274 0 01-1.141-2.282 9.31 9.31 0 00-3.918-4.413 10.75 10.75 0 00-5.876-.846c-1.522.124-2.482.333-2.501.257zm-51.93-58.927s-8.796 3.137-8.825 12.998c-.076 18.876 38.151 39.691 38.151 39.691l50.873-33.7 3.186-1.293s-68.703-25.789-83.385-17.696z" fill="#2F3646"/><path d="M114.735 319.165s-8.796 3.137-8.825 12.998c-.076 18.876 38.151 39.691 38.151 39.691l50.873-33.7 3.186-1.293s-68.703-25.789-83.385-17.696z" fill="url(#paint1_linear_786:10795)"/><path d="M169.169 355.175a9.524 9.524 0 01-1.331-.894 167.712 167.712 0 01-3.471-2.634c-2.919-2.244-6.875-5.439-11.144-9.1a280.563 280.563 0 01-10.679-9.633 174.747 174.747 0 01-3.128-3.043 8.882 8.882 0 01-1.084-1.169c.437.306.848.65 1.226 1.027l3.233 2.919a560.128 560.128 0 0010.774 9.509 600.961 600.961 0 0011.021 9.205l3.376 2.757c.43.32.834.672 1.207 1.056zm-40.072-28.955a12.635 12.635 0 019.261 2.729c-.085.143-1.901-1.046-4.507-1.787-2.605-.742-4.754-.78-4.754-.942z" fill="#455A64"/><path d="M133.477 323.244a7.79 7.79 0 014.603 5.706c-.153 0-.704-1.531-1.988-3.1-1.283-1.569-2.7-2.473-2.615-2.606z" fill="#455A64"/><path d="M111.941 383.037c0-.057.609-.181 1.312.399a4.682 4.682 0 011.465 2.948 5.786 5.786 0 01-.457 3.262c-.361.77-.76 1.131-.808 1.093.126-.422.281-.836.466-1.236.333-.978.431-2.02.285-3.043a5.088 5.088 0 00-1.198-2.757c-.542-.561-1.074-.58-1.065-.666z" fill="#2F3646"/><path d="M126.443 288.308l18.115 45.929 78.003 1.274 1.445-4.222-27.338-.989-13.142-40.746-57.083-1.246z" fill="#455A64"/><path d="M162.873 308.22a3.482 3.482 0 00-3.756.409 3.013 3.013 0 00-.732 3.318 3.279 3.279 0 002.852 1.969 2.971 2.971 0 002.986-1.969 3.352 3.352 0 00-1.312-3.727" fill="#EBEBEB"/><path d="M139.254 374.155s71.869-47.146 74.798-48.125c2.929-.98 10.061-5.639 17.164-3.68 7.103 1.959 13.493 8.339 16.679 17.658 1.826 5.325 2.682 14.406 3.09 21.224a31.525 31.525 0 01-7.369 22.442 20.054 20.054 0 01-8.958 6.361c-.751.238-1.531.438-2.329.609-13.589 2.948-27.577-3.157-35.184-14.777l-1.673-2.549s-47.023 17.269-47.755 17.031l-8.463-16.194z" fill="#2F3646"/><path d="M139.254 374.155s71.869-47.146 74.798-48.125c2.929-.98 10.061-5.639 17.164-3.68 7.103 1.959 13.493 8.339 16.679 17.658 1.826 5.325 2.682 14.406 3.09 21.224a31.525 31.525 0 01-7.369 22.442 20.054 20.054 0 01-8.958 6.361c-.751.238-1.531.438-2.329.609-13.589 2.948-27.577-3.157-35.184-14.777l-1.673-2.549s-47.023 17.269-47.755 17.031l-8.463-16.194z" fill="url(#paint2_linear_786:10795)"/><path d="M228.161 361.176a3.972 3.972 0 01-.39.171l-1.179.466-4.555 1.759-16.935 6.38a3283.9 3283.9 0 01-25.475 9.395c-9.671 3.519-20.378 7.37-31.827 11.24l-.2.076-.104-.2-5.62-10.726-2.853-5.467-.104-.21.199-.123 54.82-34.803 16.47-10.384 4.469-2.796 1.17-.713c.266-.162.408-.228.408-.228l-.38.275-1.141.752-4.422 2.852-16.431 10.546-54.734 34.936.095-.342c.903 1.74 1.902 3.594 2.852 5.468l5.611 10.726-.314-.124c11.411-3.861 22.156-7.702 31.836-11.192l25.513-9.281 17.031-6.257 4.583-1.673 1.198-.419.409-.104z" fill="#455A64"/><path d="M220.707 193.769c-1.227-3.319-3.937-4.755-7.369-5.582a11.011 11.011 0 00-9.861 2.539c-1.74 1.588-3.015 3.804-5.164 4.754-3.547 1.607-8.082-.741-11.41 1.227a5.02 5.02 0 003.233 9.3c-2.311 1.084-2.739 4.564-1.151 6.561 1.588 1.997 4.526 2.539 6.989 1.845a14.11 14.11 0 006.229-4.289c1.73-1.901 3.252-3.946 5.134-5.705a10.932 10.932 0 016.771-3.214c3.452-.133 6.656 2.196 8.453 5.135 1.798 2.938 2.492 6.428 2.996 9.851.504 3.423.884 6.904 2.206 10.099.152.38.38.789.77.875.58.123.999-.514 1.227-1.056a50.668 50.668 0 004.051-19.303c.047-3.804-.39-7.446-2.777-10.46-2.387-3.015-7.893-4.888-10.298-2.625" fill="#2F3646"/><path d="M228.563 209.141h0l5.287 38.397-5.287-38.397zm0 0l-.001-.006m.001.006l-.001-.006m0 0c-.56-5.023-2.535-9.449-5.605-12.436-3.063-2.982-7.227-4.544-12.21-3.834l-.943.179h-.002a17.99 17.99 0 00-14.348 19.695c1.037 8.788 2.319 18.475 3.268 23.094.996 4.689 3.908 6.918 6.578 7.984a13.958 13.958 0 004.688.965c.134.003.238.003.308.003l.079-.002h.02l.004-.001h.001l.209-.009.046.204c.036.161.138.861.277 1.857.128.92.291 2.109.467 3.398l.049.358a11.294 11.294 0 0012.168 9.721l.022.249m4.924-51.425l-4.924 51.425m0 0l-.021-.249a11.273 11.273 0 007.859-4.189 11.272 11.272 0 002.374-8.583l-10.212 13.021z" fill="#fff" stroke="#2F3646" stroke-width=".5"/><path d="M210.827 243.735a22.827 22.827 0 0011.801-6.095s-1.579 7.493-11.325 8.558l-.476-2.463z" fill="#D4BFC4"/><path d="M199.341 218.644a1.39 1.39 0 001.597 1.113 1.317 1.317 0 00.902-.509 1.324 1.324 0 00.258-1.003 1.387 1.387 0 00-1.597-1.122 1.327 1.327 0 00-1.134.992 1.33 1.33 0 00-.026.529zm-1.088-1.578c.209.152 1.094-.827 2.568-1.122 1.474-.295 2.71.238 2.852 0 .143-.238-.18-.38-.722-.628a3.731 3.731 0 00-2.302-.237 3.64 3.64 0 00-1.996 1.112c-.409.457-.495.818-.4.875zm15.657-.818a1.39 1.39 0 001.598 1.122 1.356 1.356 0 001.136-.992c.046-.173.057-.353.033-.53a1.413 1.413 0 00-1.597-1.122 1.343 1.343 0 00-1.17 1.522zm-1.098-1.797c.209.143 1.093-.837 2.567-1.132 1.474-.294 2.71.238 2.853 0 .143-.237-.181-.38-.723-.627a3.795 3.795 0 00-2.301-.238 3.803 3.803 0 00-2.006 1.113c-.4.513-.485.817-.39.884zm-3.168 11.991a9.593 9.593 0 00-2.482.047c-.39 0-.761 0-.875-.218a1.917 1.917 0 010-1.161c.172-.95.352-2.016.542-3.1.733-4.393 1.179-7.968 1.008-7.997-.171-.028-.951 3.509-1.645 7.902-.171 1.084-.342 2.111-.494 3.1a2.189 2.189 0 00.104 1.522c.081.12.188.22.313.293a.96.96 0 00.41.125c.218.031.439.031.656 0 .839-.068 1.667-.24 2.463-.513zm4.546.171c-.247 0 .076 1.636-1.065 3.043-1.141 1.407-2.853 1.578-2.853 1.807 0 .228.438.228 1.161.104a4.094 4.094 0 002.405-1.407 3.566 3.566 0 00.79-2.539c-.077-.685-.333-1.046-.438-1.008zm-2.907-17.877c.219.381 1.654-.104 3.433-.247 1.778-.143 3.261.057 3.423-.352.066-.19-.257-.513-.894-.789a5.8 5.8 0 00-2.662-.381 5.718 5.718 0 00-2.568.837c-.58.381-.818.761-.732.932zm-13.332 3.956c.324.285 1.265-.267 2.492-.533 1.226-.266 2.301-.219 2.463-.618.076-.19-.152-.494-.675-.723a3.53 3.53 0 00-2.14-.142 3.427 3.427 0 00-1.854 1.074c-.352.428-.438.799-.286.942z" fill="#2F3646"/><path d="M229.445 216.372c.152-.105 6.209-3.272 7.312 3.337 1.104 6.609-5.762 6.352-5.8 6.162-.038-.19-1.512-9.499-1.512-9.499z" fill="#D4BFC4"/><path d="M232.553 223.028s.123.066.333.123c.293.071.603.026.865-.123a2.852 2.852 0 00.894-2.777 3.8 3.8 0 00-.599-1.597 1.357 1.357 0 00-.98-.771.599.599 0 00-.627.438c-.057.19 0 .323 0 .333 0 .009-.162-.086-.153-.362a.75.75 0 01.191-.456.828.828 0 01.608-.276 1.634 1.634 0 011.369.818c.378.526.623 1.136.714 1.778.18 1.341-.295 2.701-1.208 3.128a1.241 1.241 0 01-1.084 0c-.285-.095-.342-.237-.323-.256zm-39.729-11.801a14.146 14.146 0 0011.763-5.23c1.902-2.453 3.167-5.657 5.915-7.141a7.966 7.966 0 016.133-.38 15.482 15.482 0 015.344 3.252c-.875 5.249 1.455 10.46 3.728 15.214.196.561.574 1.04 1.074 1.36.894.447 1.959-.257 2.501-1.103a8.29 8.29 0 00.951-4.631 27.685 27.685 0 00-2.187-10.631 18.758 18.758 0 00-6.913-8.273 17.774 17.774 0 00-13.132-2.177 21.87 21.87 0 00-11.516 6.913 12.849 12.849 0 00-3.109 5.448m265.569 162.234a1.927 1.927 0 00-.171-.399l-.533-1.151a29.44 29.44 0 01-1.588-4.602c-1.046-4.089-1.407-10.336.143-17.753a94.222 94.222 0 013.29-11.934c1.398-4.232 3.014-8.72 4.336-13.579a52.678 52.678 0 002.14-15.614c-.2-5.525-1.836-11.04-3.633-16.527-1.797-5.486-3.651-10.869-4.203-16.27a24.721 24.721 0 012.977-15.024c2.386-4.393 5.372-8.14 7.607-12.029a41.855 41.855 0 004.583-11.553 43.123 43.123 0 00.285-17.906 33.864 33.864 0 00-1.901-6.324c.022.146.057.289.104.428l.381 1.208a42.745 42.745 0 01.694 22.498 41.301 41.301 0 01-4.593 11.411c-2.235 3.804-5.24 7.608-7.664 12.01a25.33 25.33 0 00-3.034 15.31c.561 5.496 2.435 10.907 4.222 16.393 1.788 5.487 3.414 10.936 3.614 16.365a52.334 52.334 0 01-2.083 15.462c-1.303 4.831-2.91 9.319-4.279 13.57a93.344 93.344 0 00-3.242 12c-1.512 7.474-1.075 13.788 0 17.887a26.07 26.07 0 001.692 4.592c.247.476.447.847.59 1.132.075.141.165.275.266.399z" fill="#2F3646"/><path d="M466.279 245.032s4.555-14.548-3.613-23.069a.508.508 0 00-.509-.142.51.51 0 00-.357.39c-.437 2.405-.979 9.727 4.479 22.821z" fill="#F995A6"/><path d="M463.549 226.813c.015.902.12 1.8.314 2.682.295 1.901.647 4.022 1.036 6.418.39 2.396.723 4.574 1.018 6.419.077.901.239 1.792.485 2.662.077-.903.048-1.813-.086-2.71-.152-1.664-.447-3.946-.856-6.456a122.502 122.502 0 00-1.207-6.4 11.84 11.84 0 00-.704-2.615z" fill="#2F3646"/><path d="M460.932 279.36s-2.786-14.996-13.988-18.685a.501.501 0 00-.646.627c.722 2.301 3.68 9.034 14.634 18.058z" fill="#F995A6"/><path d="M449.998 264.525c.435.791.947 1.537 1.531 2.226 1.122 1.502 2.453 3.252 3.917 5.191l3.937 5.202a14.641 14.641 0 001.674 2.12 11.692 11.692 0 00-1.341-2.358c-.951-1.398-2.235-3.28-3.804-5.306a205.227 205.227 0 00-4.06-5.097 11.817 11.817 0 00-1.854-1.978z" fill="#2F3646"/><path d="M463.958 316.968s1.693-15.157-7.949-21.966a.505.505 0 00-.799.419c.029 2.434.894 9.728 8.748 21.547z" fill="#F995A6"/><path d="M457.809 299.595c.181.885.455 1.749.817 2.577l2.245 6.104 2.215 6.105c.236.869.554 1.713.951 2.52a12.153 12.153 0 00-.599-2.643c-.466-1.607-1.189-3.804-2.073-6.181a138.624 138.624 0 00-2.406-6.048 11.907 11.907 0 00-1.15-2.434z" fill="#2F3646"/><path d="M455.524 354.814s1.15-15.215-8.729-21.662a.503.503 0 00-.79.438c.124 2.425 1.246 9.68 9.519 21.224z" fill="#F995A6"/><path d="M448.754 337.698c.228.88.547 1.734.951 2.548.713 1.731 1.54 3.804 2.463 6.01l2.444 6.029c.249.839.573 1.653.97 2.434a11.486 11.486 0 00-.695-2.615c-.513-1.588-1.321-3.747-2.291-6.095-.97-2.349-1.902-4.46-2.615-5.963a12.088 12.088 0 00-1.227-2.348z" fill="#2F3646"/><path d="M472.821 232.252s13.512-7.056 13.779-18.857a.504.504 0 00-.79-.437c-2.006 1.388-7.569 6.171-12.989 19.294z" fill="#F995A6"/><path d="M483.797 217.447a13.275 13.275 0 00-1.683 2.111l-3.803 5.268-3.804 5.258a14.913 14.913 0 00-1.54 2.216 10.769 10.769 0 001.901-1.968c1.075-1.275 2.492-3.1 3.975-5.164a128.318 128.318 0 003.68-5.382c.513-.729.94-1.513 1.274-2.339z" fill="#2F3646"/><path d="M458.306 263.527s13.912-6.218 14.901-17.981a.505.505 0 00-.761-.476c-2.092 1.227-7.94 5.668-14.14 18.457z" fill="#F995A6"/><path d="M470.158 249.397a13.598 13.598 0 00-1.807 2.006l-4.126 5.031-4.137 5.011a13.826 13.826 0 00-1.654 2.082 12.249 12.249 0 001.968-1.901c1.151-1.218 2.672-2.948 4.279-4.917a126.4 126.4 0 003.994-5.144 11.618 11.618 0 001.483-2.168z" fill="#2F3646"/><path d="M466.314 298.369s9.556-11.887 5.068-22.822a.504.504 0 00-.894-.086c-1.284 2.102-4.45 8.711-4.174 22.908z" fill="#F995A6"/><path d="M470.441 280.406c-.32.842-.552 1.715-.694 2.605-.399 1.835-.865 3.985-1.388 6.362-.523 2.377-.951 4.517-1.398 6.342-.255.867-.43 1.755-.523 2.653.422-.806.742-1.662.951-2.548.475-1.607 1.036-3.804 1.569-6.333.532-2.53.951-4.755 1.217-6.39.187-.885.276-1.787.266-2.691z" fill="#2F3646"/><path d="M456.846 339.39s13.817-6.447 14.596-18.238a.507.507 0 00-.239-.463.511.511 0 00-.521-.003c-2.073 1.303-7.845 5.839-13.836 18.704z" fill="#F995A6"/><path d="M468.469 325.08a13.297 13.297 0 00-1.778 2.035c-1.161 1.473-2.53 3.195-4.042 5.096l-4.051 5.088a14.85 14.85 0 00-1.635 2.149 11.334 11.334 0 001.902-1.902c1.122-1.227 2.615-2.986 4.184-4.983 1.569-1.997 2.995-3.841 3.946-5.201a12.724 12.724 0 001.474-2.282zm-39.135-45.644a1.504 1.504 0 000 .342v.951c0 .951.095 2.159.161 3.699.181 3.252.428 7.779.723 13.208.951 5.516 3.804 11.63 7.607 17.564 2.768 4.374 5.706 8.358 8.169 12.057a85.107 85.107 0 016.133 10.127 42.733 42.733 0 013.385 9.538c.042.25.109.495.2.732a3.719 3.719 0 00-.086-.751c-.066-.495-.218-1.217-.428-2.14a39.675 39.675 0 00-2.719-7.607 81.755 81.755 0 00-6.057-10.241c-2.482-3.728-5.373-7.712-8.131-12.058-3.803-5.914-6.542-11.934-7.607-17.363-.38-5.411-.694-9.937-.951-13.189-.123-1.541-.228-2.777-.295-3.69 0-.38-.076-.704-.104-.951a1.086 1.086 0 000-.228z" fill="#2F3646"/><path d="M437.517 314.115s-5.849-14.083 1.511-23.306a.512.512 0 01.495-.188.51.51 0 01.39.359c.694 2.358 1.902 9.632-2.396 23.135z" fill="#F995A6"/><path d="M438.628 295.725a12.284 12.284 0 00-.466 2.663 123.03 123.03 0 00-.618 6.485c-.181 2.539-.267 4.84-.267 6.504a10.92 10.92 0 00.162 2.701c.165-.885.245-1.783.238-2.682.123-1.902.275-4.06.437-6.485.162-2.425.323-4.622.447-6.485.111-.896.133-1.801.067-2.701z" fill="#2F3646"/><path opacity=".3" d="M437.517 314.115s-5.849-14.083 1.511-23.306a.512.512 0 01.495-.188.51.51 0 01.39.359c.694 2.358 1.902 9.632-2.396 23.135z" fill="#2F3646"/><path d="M455.673 348.044s-4.688-14.501 3.395-23.097a.506.506 0 01.506-.146.501.501 0 01.36.383c.465 2.397 1.074 9.709-4.261 22.86z" fill="#F995A6"/><path d="M458.236 329.796a12.078 12.078 0 00-.675 2.624c-.342 1.626-.761 3.89-1.15 6.409-.39 2.52-.657 4.803-.79 6.467a11.17 11.17 0 00-.057 2.71c.232-.872.385-1.763.457-2.663.275-1.902.599-4.022.951-6.428.351-2.406.694-4.574.951-6.428.192-.885.297-1.786.313-2.691z" fill="#2F3646"/><path opacity=".3" d="M455.673 348.044s-4.688-14.501 3.395-23.097a.506.506 0 01.506-.146.501.501 0 01.36.383c.465 2.397 1.074 9.709-4.261 22.86z" fill="#2F3646"/><path d="M430.115 296.914s-12.495-8.749-11.23-20.483a.502.502 0 01.589-.452.504.504 0 01.248.119c1.807 1.693 6.713 7.104 10.393 20.816z" fill="#F995A6"/><path opacity=".3" d="M430.115 296.914s-12.495-8.749-11.23-20.483a.502.502 0 01.589-.452.504.504 0 01.248.119c1.807 1.693 6.713 7.104 10.393 20.816z" fill="#2F3646"/><path d="M421.139 280.815c.253.866.6 1.702 1.037 2.491a128.517 128.517 0 002.957 5.81c1.208 2.244 2.368 4.232 3.271 5.639.432.795.966 1.53 1.588 2.187a15.207 15.207 0 00-1.245-2.396l-3.11-5.705-3.1-5.706a13.142 13.142 0 00-1.398-2.32z" fill="#2F3646"/><path d="M450.646 333.666s-15.034-2.349-19.104-13.436a.506.506 0 01.333-.666.504.504 0 01.275 0c2.349.666 9.167 3.414 18.496 14.102z" fill="#F995A6"/><path opacity=".3" d="M450.646 333.666s-15.034-2.349-19.104-13.436a.506.506 0 01.333-.666.504.504 0 01.275 0c2.349.666 9.167 3.414 18.496 14.102z" fill="#2F3646"/><path d="M435.499 323.168a12.811 12.811 0 002.016 1.778 117.102 117.102 0 005.211 3.908c2.073 1.474 3.994 2.758 5.411 3.633.745.516 1.549.941 2.396 1.265a14.803 14.803 0 00-2.168-1.608l-5.315-3.746-5.297-3.804a12.87 12.87 0 00-2.254-1.426z" fill="#2F3646"/><path d="M465.012 361.395l4.393 29.573h-27.386l3.557-29.573h19.436z" fill="#455A64"/><path d="M465.012 361.395l4.393 29.573h-27.386l3.557-29.573h19.436z" fill="url(#paint3_linear_786:10795)"/><path d="M444.477 370.551c0 .162 4.945.286 11.05.286s11.04-.124 11.04-.286a109.324 109.324 0 00-11.04-.285 109.22 109.22 0 00-11.05.285zm-.548 2.33c0 .153 5.106.286 11.411.286 6.304 0 11.41-.133 11.41-.286 0-.152-5.106-.285-11.41-.285-6.305 0-11.411.152-11.411.285z" fill="#2F3646"/></g><defs><linearGradient id="paint0_linear_786:10795" x1="295.287" y1="379.633" x2="295.287" y2="391.215" gradientUnits="userSpaceOnUse"><stop stop-color="#343C50"/><stop offset="1" stop-color="#252C3D"/></linearGradient><linearGradient id="paint1_linear_786:10795" x1="152.015" y1="317.593" x2="152.015" y2="371.854" gradientUnits="userSpaceOnUse"><stop stop-color="#343C50"/><stop offset="1" stop-color="#252C3D"/></linearGradient><linearGradient id="paint2_linear_786:10795" x1="195.155" y1="321.874" x2="195.155" y2="391.38" gradientUnits="userSpaceOnUse"><stop stop-color="#343C50"/><stop offset="1" stop-color="#252C3D"/></linearGradient><linearGradient id="paint3_linear_786:10795" x1="455.712" y1="361.395" x2="455.712" y2="390.968" gradientUnits="userSpaceOnUse"><stop stop-color="#343C50"/><stop offset="1" stop-color="#252C3D"/></linearGradient><clipPath id="clip0_786:10795"><path fill="#fff" d="M0 0h565v409H0z"/></clipPath></defs></svg>