<svg width="89" height="92" fill="none" xmlns="http://www.w3.org/2000/svg"><path d="M62.292 0a22.145 22.145 0 00-17.057 7.964c-.25.3-.717.3-.967 0A22.145 22.145 0 0027.211 0C15.007 0 5.113 9.787 5.113 21.86c0 24.354 32.124 39.996 38.534 42.875.714.32 1.496.323 2.212.005 6.415-2.843 38.53-18.307 38.53-42.88C84.39 9.788 74.497 0 62.293 0z" fill="#DC2B40"/><path d="M.924 68.21c33.65-4.245 52.506-4.2 86.157 0-31.44-10.302-57.1-9.637-86.157 0z" fill="#DC2B40"/><path fill-rule="evenodd" clip-rule="evenodd" d="M35.276 13.463c-1.137-1.42-1.16-3.237-.971-4.326.04-.234-.177-.446-.395-.353-2.53 1.077-3.105 4.252-.326 7.428 2.142 2.448 1.405 4.454 1.155 5.134-.095.26-.12.327.114.152 3.724-2.794 2.114-5.92.422-8.035zm3.388 25.89v4.687a.3.3 0 00.3.3h2.995a.3.3 0 00.3-.3v-4.687a.3.3 0 00-.3-.3h-2.996a.3.3 0 00-.299.3zm-12.69 4.894V39.77a.3.3 0 01.3-.3h3.207a.3.3 0 01.3.3v4.476a.3.3 0 01-.3.3h-3.207a.3.3 0 01-.3-.3zm-8.693-9.236l4.811-11.225a.307.307 0 01.27-.186l38.356-1.467a.306.306 0 00.23-.118l1.645-2.117a1.128 1.128 0 00-.052-.116c-.119-.227-.268-.37-.43-.526-.253-.242-.54-.517-.801-1.194-.174-.449-.248-.872-.31-1.233-.094-.533-.163-.93-.495-1.072-.333-.144-.43.545-.481.929-.004.03-.038.016-.045-.018-.086-.431.022-.74.102-.971.027-.076.05-.144.064-.206.005-.024-.02-.052-.037-.042-.342.211-.371.614-.406 1.152-.002.032-.038.02-.048-.016-.21-.814-.09-1.23.014-1.592l.027-.096c.007-.025-.02-.058-.037-.047-.224.142-.367.535-.462 1.122-.005.03-.044.013-.05-.023-.145-.845-.043-1.185.094-1.642l.05-.167c.007-.025-.022-.062-.04-.05-.255.15-.446.377-.739.745-.014.019-.048-.012-.046-.043.059-.705.245-1.643.89-2.14.703-.54 1.913-.006 2.58 1.264.27.51.15 1.047.036 1.556-.134.606-.26 1.172.284 1.61.557.445.98-.01 1.022-.134.071-.206.089-.388.106-.569.014-.144.028-.288.07-.442.098-.37.37-.742.981-.92.008-.002.013-.011.01-.024-.018-.056-.083-.112-.157-.175-.132-.113-.29-.25-.249-.452.036-.173.224-.056.299-.008.012.008.023.004.025-.01.003-.057-.032-.115-.069-.174-.044-.072-.09-.145-.067-.222.037-.13.153-.051.28.035.075.05.154.104.222.119.012.002.02-.008.018-.023a3.517 3.517 0 00-.01-.071c-.022-.157-.049-.345.072-.394.247-.1.793.69.76.981-.008.078-.048.108-.088.138-.038.03-.077.06-.089.133a.046.046 0 00.018.04c.054.04.132.078.218.12.119.059.25.124.35.208.014.012.02.035.011.045-.028.03-.078.051-.132.074-.115.047-.246.1-.224.272.013.097.068.157.13.226a1 1 0 01.111.137c.013.02.008.043-.01.038a.882.882 0 01-.145-.061c-.095-.046-.193-.094-.238-.06-.043.034 0 .181.05.35.079.271.175.6-.035.62-.159.015-.275-.183-.381-.363-.068-.115-.131-.223-.2-.264-.01-.006-.019-.002-.022.008-.117.368-.03.693.077 1.09.093.347.201.749.201 1.284 0 .862-.555 1.317-1.149 1.451-.256.058-.439.145-.576.269l5.925 15.523a.307.307 0 01-.286.416h-.207a.307.307 0 01-.277-.175L62.749 23.81a.307.307 0 00-.505-.074l-9.63 10.654 8.373-7.555a.307.307 0 01.478.088l4.646 9.09a.307.307 0 01.034.145l-.205 12.28a.307.307 0 01-.334.3l-4.033-.367a.307.307 0 01-.278-.318l.4-10a.307.307 0 00-.267-.316l-4.252-.555a.307.307 0 00-.346.293l-.398 10.35a.307.307 0 01-.32.294l-3.84-.183a.307.307 0 01-.292-.306V35.124c0-.171-.14-.31-.312-.306l-34.1.62a.307.307 0 01-.287-.428zm15.662-2.187l-.194-6.998a.307.307 0 01.306-.316h3.607c.17 0 .307.138.307.307v3.85a.307.307 0 01-.033.137l-1.574 3.148a.307.307 0 01-.274.17H33.25a.307.307 0 01-.307-.298z" fill="#fff"/><path d="M6.738 87.12L.643 76.048l2.567-.289 4.192 7.692 2.332-8.425 2.616-.294-3.503 12.15-2.109.236zm13.514-1.084c-1.324.099-2.418-.2-3.284-.894-.867-.705-1.36-1.565-1.48-2.579l2.38-.177c.126.507.39.89.795 1.145.403.245.878.347 1.425.306.492-.037.884-.17 1.174-.401.29-.242.422-.543.395-.904-.048-.645-.603-1.077-1.664-1.295l-1.258-.269c-.971-.202-1.747-.574-2.326-1.113-.58-.54-.907-1.242-.982-2.105-.08-1.061.214-1.924.879-2.59.664-.676 1.587-1.059 2.769-1.147 1.192-.089 2.187.2 2.985.866.797.656 1.252 1.447 1.365 2.373l-2.363.177c-.155-.45-.399-.773-.732-.969a1.84 1.84 0 00-1.091-.248c-.438.032-.791.158-1.061.376a.94.94 0 00-.368.82c.015.35.151.626.408.827.257.2.642.353 1.156.458l1.39.276c2.055.408 3.149 1.509 3.283 3.302.075 1.007-.24 1.866-.947 2.579-.695.7-1.645 1.096-2.848 1.186zm7.503-.685L27.28 73.68l7.267-.296.092 2.27-4.883.198.098 2.4 3.896-.158.092 2.268-3.896.159.1 2.466 4.883-.199.092 2.269-7.266.295zm20.075-.204c-1.328-.013-2.394-.401-3.198-1.166-.804-.775-1.224-1.673-1.258-2.694l2.386.023c.083.516.315.919.696 1.208.381.278.846.419 1.394.424.494.005.895-.095 1.204-.301.31-.217.466-.506.47-.868.005-.647-.511-1.123-1.55-1.43l-1.23-.373c-.953-.283-1.694-.718-2.226-1.305-.532-.586-.8-1.313-.802-2.18.01-1.063.374-1.899 1.093-2.506.719-.619 1.67-.922 2.855-.911 1.196.011 2.163.382 2.902 1.113.74.72 1.126 1.547 1.161 2.48l-2.369-.023c-.116-.462-.332-.804-.648-1.026a1.84 1.84 0 00-1.067-.34c-.438-.004-.801.092-1.088.286a.94.94 0 00-.436.786c-.014.351.099.637.338.859.239.221.61.406 1.113.553l1.362.392c2.013.578 3.011 1.767 2.994 3.566-.01 1.009-.396 1.839-1.159 2.49-.752.64-1.731.954-2.938.943zm11.099.106L54.66 73.357l2.58.122 2.924 8.257 3.634-7.95 2.63.124-5.38 11.442-2.12-.1zm12.818-2.398c.645.785 1.47 1.223 2.475 1.313a3.44 3.44 0 002.654-.851c.776-.668 1.21-1.516 1.303-2.543.092-1.026-.184-1.933-.83-2.717-.633-.795-1.452-1.238-2.457-1.329-1.005-.09-1.895.199-2.671.867-.764.658-1.193 1.5-1.285 2.527-.093 1.027.178 1.938.811 2.733zm6.671 2.236c-1.274 1.064-2.742 1.521-4.402 1.372-1.66-.15-3.028-.862-4.103-2.137-1.063-1.286-1.52-2.758-1.37-4.42.15-1.66.862-3.022 2.136-4.086 1.286-1.073 2.76-1.535 4.42-1.386 1.66.15 3.022.867 4.085 2.152 1.074 1.275 1.537 2.743 1.388 4.404-.15 1.66-.868 3.028-2.154 4.101zm4.752 2.226l1.425-11.595 2.368.291-1.425 11.595-2.368-.291z" fill="#fff"/></svg>