<svg width="46" height="57" fill="none" xmlns="http://www.w3.org/2000/svg"><path fill-rule="evenodd" clip-rule="evenodd" d="M26.889 50.242L38.556 38.57A22.01 22.01 0 0023 1 21.994 21.994 0 002.675 14.586 22.016 22.016 0 007.443 38.57l11.671 11.672C20.145 51.272 23.001 56 23.001 56s2.856-4.727 3.887-5.758zm4.36-27.235A8.251 8.251 0 0123 31.26a8.252 8.252 0 01-8.25-8.253A8.252 8.252 0 0123 14.754a8.251 8.251 0 018.25 8.253z" fill="url(#paint0_linear_80:103208)" stroke="#fff" stroke-width="2" stroke-linecap="round" stroke-linejoin="round"/><defs><linearGradient id="paint0_linear_80:103208" x1="-4.243" y1="-23.557" x2="76.479" y2="23.811" gradientUnits="userSpaceOnUse"><stop stop-color="#CC283C"/><stop offset="1" stop-color="#CC284F"/></linearGradient></defs></svg>