<svg width="89" height="92" fill="none" xmlns="http://www.w3.org/2000/svg"><path d="M62.291 0a22.146 22.146 0 00-17.057 7.964c-.25.3-.717.3-.967 0A22.145 22.145 0 0027.209 0C15.005 0 5.111 9.788 5.111 21.861c0 24.354 32.124 39.997 38.534 42.875a2.68 2.68 0 002.212.006c6.415-2.844 38.532-18.308 38.532-42.88C84.39 9.787 74.496 0 62.291 0z" fill="#D92B48"/><path d="M.923 68.21c33.651-4.245 52.508-4.2 86.159 0-31.44-10.303-57.102-9.637-86.159 0z" fill="#D92B48"/><path fill-rule="evenodd" clip-rule="evenodd" d="M35.278 13.483c-1.136-1.42-1.159-3.238-.97-4.327.04-.234-.177-.446-.395-.353-2.53 1.077-3.105 4.253-.326 7.429 2.142 2.448 1.405 4.453 1.155 5.134-.096.26-.12.327.114.151 3.724-2.793 2.114-5.92.422-8.034zm3.383 25.883v4.687a.3.3 0 00.3.3h2.995a.3.3 0 00.3-.3v-4.687a.3.3 0 00-.3-.3H38.96a.3.3 0 00-.299.3zm-12.685 4.898v-4.476a.3.3 0 01.3-.299h3.207a.3.3 0 01.299.3v4.475a.3.3 0 01-.3.3h-3.207a.3.3 0 01-.299-.3zm-8.694-9.228l4.811-11.226a.307.307 0 01.27-.186l38.356-1.467a.307.307 0 00.23-.118l1.646-2.117a1.131 1.131 0 00-.053-.119c-.119-.227-.267-.37-.43-.526-.253-.242-.54-.517-.801-1.194-.174-.449-.248-.872-.31-1.233-.094-.533-.163-.93-.495-1.073-.333-.143-.43.546-.481.93-.004.03-.038.016-.044-.018-.087-.431.02-.74.101-.972.027-.075.05-.143.064-.205.005-.024-.02-.052-.037-.042-.342.21-.371.614-.406 1.152-.002.031-.038.02-.047-.016-.21-.814-.09-1.23.013-1.592l.027-.096c.007-.025-.02-.058-.037-.047-.223.142-.367.535-.462 1.122-.005.03-.044.012-.05-.023-.145-.845-.043-1.185.094-1.642l.05-.167c.007-.025-.022-.062-.04-.05-.255.15-.446.377-.738.745-.015.019-.05-.012-.047-.043.059-.705.245-1.643.89-2.14.703-.54 1.913-.006 2.58 1.264.27.51.15 1.047.037 1.556-.135.606-.261 1.172.284 1.61.556.445.979-.01 1.022-.134.07-.206.088-.388.106-.569.014-.144.027-.288.068-.442.099-.37.372-.742.982-.92.008-.002.013-.011.01-.024-.018-.056-.083-.112-.156-.175-.133-.113-.291-.25-.25-.452.036-.173.224-.056.299-.008.012.008.024.004.025-.01.004-.057-.032-.115-.069-.174-.044-.072-.09-.146-.067-.222.038-.13.153-.051.28.035.075.05.154.104.223.119.011.002.019-.008.017-.023l-.01-.071c-.022-.157-.048-.345.073-.394.246-.1.793.69.76.981-.01.078-.049.108-.088.138-.04.03-.078.059-.09.133a.046.046 0 00.018.04c.055.04.133.078.218.12.119.059.251.124.35.207.015.013.02.036.012.046a.392.392 0 01-.133.074c-.114.047-.246.1-.223.272.012.097.067.157.13.226.037.04.076.083.11.137.014.02.008.043-.009.038a.882.882 0 01-.146-.061c-.095-.046-.193-.094-.238-.06-.043.034 0 .181.05.35.079.271.175.6-.035.62-.159.015-.275-.183-.38-.363-.069-.115-.132-.223-.2-.264-.01-.006-.02-.002-.023.008-.117.368-.03.693.077 1.09.093.347.201.749.201 1.284 0 .862-.555 1.318-1.149 1.451-.256.058-.439.145-.576.27l5.926 15.526a.307.307 0 01-.286.416h-.207a.307.307 0 01-.277-.175l-5.851-12.308a.307.307 0 00-.505-.074l-9.63 10.654 8.372-7.555a.307.307 0 01.479.088l4.646 9.09a.305.305 0 01.034.145l-.205 12.28a.307.307 0 01-.334.3l-4.033-.367a.307.307 0 01-.278-.318l.4-10a.307.307 0 00-.267-.316l-4.252-.555a.307.307 0 00-.346.292l-.398 10.35a.307.307 0 01-.321.295l-3.839-.183a.307.307 0 01-.292-.306V35.15c0-.171-.14-.31-.312-.306l-34.1.62a.307.307 0 01-.288-.428zm15.662-2.188l-.194-6.998a.307.307 0 01.307-.315h3.606c.17 0 .307.137.307.306v3.85a.307.307 0 01-.032.137l-1.575 3.149a.307.307 0 01-.274.17h-1.838a.307.307 0 01-.306-.299z" fill="#fff"/><path d="M6.738 87.124L.643 76.054l2.567-.29 4.192 7.693 2.332-8.425 2.616-.294-3.502 12.15-2.11.236zm13.509-1.084c-1.323.1-2.418-.198-3.284-.893-.866-.705-1.36-1.565-1.479-2.579l2.38-.177c.125.507.39.889.794 1.145.403.245.878.347 1.425.306.493-.037.884-.17 1.175-.401.29-.242.422-.543.395-.904-.048-.646-.603-1.077-1.665-1.295l-1.257-.27c-.972-.202-1.748-.573-2.327-1.112-.58-.54-.907-1.242-.982-2.105-.08-1.061.214-1.925.88-2.59.664-.677 1.587-1.06 2.768-1.147 1.192-.09 2.188.2 2.985.866.797.656 1.252 1.447 1.365 2.373l-2.363.176c-.154-.45-.398-.773-.732-.968a1.84 1.84 0 00-1.09-.249c-.438.033-.792.159-1.062.377a.94.94 0 00-.368.819c.016.35.152.627.409.828.257.2.642.353 1.156.458l1.39.276c2.054.407 3.148 1.508 3.282 3.302.075 1.007-.24 1.866-.946 2.579-.696.7-1.645 1.096-2.849 1.186zm7.508-.686L27.28 73.68l7.267-.295.092 2.269-4.883.198.098 2.4 3.896-.158.092 2.269-3.896.158.1 2.466 4.883-.198.092 2.268-7.266.296zm20.078-.2c-1.327-.013-2.393-.401-3.197-1.166-.805-.775-1.224-1.673-1.258-2.694l2.385.023c.083.516.315.919.697 1.208.38.277.846.419 1.394.424.494.005.895-.096 1.204-.301.31-.216.466-.506.47-.868.005-.647-.511-1.123-1.55-1.43l-1.231-.373c-.952-.283-1.694-.718-2.225-1.305-.532-.586-.8-1.313-.803-2.18.01-1.063.375-1.899 1.094-2.507.719-.618 1.67-.922 2.855-.91 1.196.011 2.163.382 2.902 1.113.739.72 1.126 1.547 1.161 2.48l-2.37-.023c-.115-.462-.331-.804-.648-1.026a1.84 1.84 0 00-1.066-.34c-.439-.004-.802.092-1.089.286a.94.94 0 00-.435.786c-.014.35.098.637.338.859.239.222.61.406 1.113.553l1.362.392c2.013.578 3.011 1.767 2.994 3.566-.01 1.009-.396 1.839-1.159 2.49-.752.64-1.731.954-2.938.943zm11.098.096l-4.267-11.895 2.58.121 2.923 8.258 3.635-7.95 2.63.124-5.38 11.442-2.12-.1zm12.818-2.401c.645.785 1.47 1.222 2.475 1.313a3.44 3.44 0 002.654-.852c.776-.668 1.21-1.515 1.303-2.542.092-1.027-.184-1.933-.83-2.718-.633-.795-1.452-1.238-2.457-1.328-1.005-.09-1.896.198-2.672.866-.764.658-1.192 1.5-1.284 2.528-.093 1.027.177 1.938.81 2.733zm6.671 2.236c-1.274 1.064-2.742 1.52-4.402 1.371-1.66-.15-3.029-.862-4.103-2.137-1.063-1.285-1.52-2.758-1.37-4.419.15-1.66.861-3.022 2.135-4.086 1.287-1.074 2.76-1.536 4.42-1.386 1.661.15 3.023.867 4.086 2.152 1.074 1.275 1.537 2.743 1.387 4.403-.149 1.661-.867 3.028-2.153 4.102zm4.748 2.25l1.425-11.595 2.368.29-1.424 11.596-2.369-.291z" fill="#171E2F"/></svg>