<svg width="89" height="92" fill="none" xmlns="http://www.w3.org/2000/svg"><path d="M62.291 0a22.146 22.146 0 00-17.057 7.964c-.25.3-.717.3-.967 0A22.146 22.146 0 0027.21 0C15.005 0 5.11 9.788 5.11 21.861c0 24.354 32.125 39.997 38.535 42.875a2.68 2.68 0 002.212.006c6.415-2.844 38.532-18.308 38.532-42.88C84.39 9.787 74.495 0 62.29 0z" fill="#D92B48"/><path d="M.924 68.21c33.651-4.245 52.507-4.2 86.159 0-31.44-10.303-57.102-9.637-86.16 0z" fill="#D92B48"/><path fill-rule="evenodd" clip-rule="evenodd" d="M35.277 13.483c-1.136-1.42-1.159-3.238-.97-4.326.04-.234-.177-.446-.395-.353-2.53 1.077-3.105 4.252-.326 7.428 2.142 2.448 1.405 4.454 1.155 5.134-.096.26-.12.327.114.152 3.725-2.794 2.114-5.92.422-8.035zm3.383 25.883v4.688a.3.3 0 00.3.299h2.995a.3.3 0 00.3-.3v-4.687a.3.3 0 00-.3-.3H38.96a.3.3 0 00-.299.3zm-12.685 4.899v-4.476a.3.3 0 01.3-.3h3.207a.3.3 0 01.299.3v4.476a.3.3 0 01-.3.299h-3.207a.3.3 0 01-.299-.3zm-8.694-9.229l4.811-11.226a.307.307 0 01.27-.185l38.357-1.468a.307.307 0 00.23-.118l1.645-2.117a1.124 1.124 0 00-.053-.118c-.119-.228-.267-.37-.43-.527-.253-.242-.54-.517-.801-1.194-.174-.449-.248-.872-.31-1.233-.094-.533-.163-.93-.495-1.072-.333-.144-.43.545-.481.93-.004.028-.038.015-.044-.019-.087-.431.02-.74.101-.971a1.93 1.93 0 00.064-.205c.005-.025-.02-.053-.037-.042-.342.21-.371.613-.406 1.151-.002.032-.038.02-.047-.016-.21-.813-.09-1.23.013-1.592l.027-.095c.007-.025-.02-.06-.037-.048-.223.142-.367.535-.462 1.122-.005.03-.044.013-.05-.023-.145-.844-.043-1.185.094-1.642l.05-.166c.007-.026-.022-.063-.04-.052-.255.152-.446.378-.738.746-.015.02-.05-.012-.047-.042.059-.706.245-1.644.89-2.14.703-.541 1.914-.007 2.58 1.263.27.51.15 1.047.037 1.556-.135.606-.261 1.173.283 1.61.557.445.98-.01 1.023-.134.07-.206.088-.388.106-.569.014-.144.027-.288.068-.442.099-.37.372-.742.982-.92.008-.002.014-.011.01-.024-.018-.056-.083-.112-.157-.175-.131-.113-.29-.25-.249-.452.036-.173.224-.056.299-.008.012.008.024.005.025-.01.004-.057-.032-.115-.069-.174-.044-.072-.089-.145-.067-.222.038-.13.153-.051.28.035a.73.73 0 00.223.12c.011.002.019-.009.017-.024a3.424 3.424 0 00-.01-.071c-.022-.157-.048-.345.072-.394.247-.1.794.691.76.981-.008.079-.048.108-.087.139-.039.029-.078.058-.09.133a.046.046 0 00.018.04c.054.04.133.078.218.12.119.058.251.123.35.207.014.012.02.035.012.045a.387.387 0 01-.133.074c-.114.047-.246.101-.223.272.012.097.068.157.13.226.037.04.076.083.11.137.013.021.008.043-.009.038a.82.82 0 01-.146-.061c-.095-.046-.193-.094-.238-.06-.043.034 0 .181.05.351.079.27.175.599-.035.619-.159.015-.275-.182-.38-.363-.069-.115-.132-.223-.2-.264-.01-.006-.02-.002-.023.009-.117.367-.03.692.077 1.09.093.346.201.748.201 1.283 0 .862-.555 1.318-1.149 1.452-.256.057-.439.144-.576.268l5.926 15.527a.307.307 0 01-.286.416h-.207a.307.307 0 01-.277-.175L62.75 23.835a.307.307 0 00-.505-.074l-9.63 10.654 8.372-7.555a.307.307 0 01.479.088l4.646 9.09a.307.307 0 01.034.145l-.205 12.28a.307.307 0 01-.334.3l-4.033-.367a.307.307 0 01-.278-.317l.4-10a.307.307 0 00-.267-.317l-4.252-.555a.307.307 0 00-.346.293l-.398 10.35a.307.307 0 01-.321.294l-3.839-.183a.307.307 0 01-.292-.306V35.15c0-.171-.14-.31-.312-.306l-34.1.62a.307.307 0 01-.288-.428zm15.663-2.187l-.195-6.999a.307.307 0 01.307-.315h3.606c.17 0 .307.137.307.307v3.85a.306.306 0 01-.032.136l-1.575 3.15a.307.307 0 01-.274.169H33.25a.307.307 0 01-.306-.298z" fill="#fff"/><path d="M6.738 87.124L.643 76.054l2.567-.29 4.192 7.693 2.332-8.425 2.616-.294-3.502 12.15-2.11.236zm13.51-1.083c-1.323.099-2.418-.199-3.284-.893-.866-.706-1.36-1.565-1.48-2.58l2.38-.177c.126.508.39.89.795 1.145.403.245.878.347 1.425.306.492-.036.884-.17 1.175-.4.29-.242.421-.544.394-.905-.048-.645-.602-1.077-1.664-1.294l-1.257-.27c-.972-.202-1.748-.573-2.327-1.113-.58-.54-.907-1.241-.982-2.105-.08-1.06.214-1.924.879-2.59.665-.676 1.588-1.059 2.769-1.147 1.192-.089 2.187.2 2.985.867.797.655 1.252 1.446 1.365 2.373l-2.363.176c-.154-.45-.398-.773-.732-.968a1.84 1.84 0 00-1.091-.25c-.438.034-.791.159-1.061.377a.94.94 0 00-.368.82c.015.35.151.626.408.827.257.2.643.354 1.157.458l1.39.276c2.054.408 3.148 1.509 3.282 3.303.075 1.006-.24 1.866-.946 2.578-.696.701-1.646 1.096-2.849 1.186zm7.507-.687l-.475-11.673 7.267-.295.092 2.269-4.883.198.098 2.4 3.896-.158.092 2.27-3.896.157.1 2.466 4.883-.198.092 2.269-7.266.295zm20.079-.2c-1.328-.012-2.394-.4-3.198-1.165-.805-.776-1.224-1.674-1.258-2.695l2.386.023c.082.517.315.92.696 1.208.381.278.846.42 1.394.424.494.005.895-.095 1.204-.3.31-.217.466-.506.47-.868.005-.648-.511-1.124-1.55-1.43l-1.23-.374c-.953-.283-1.694-.718-2.226-1.304-.532-.587-.8-1.313-.802-2.18.01-1.064.374-1.9 1.093-2.507.719-.619 1.67-.922 2.855-.911 1.196.011 2.163.382 2.902 1.113.74.72 1.126 1.547 1.161 2.48l-2.369-.023c-.116-.462-.332-.804-.648-1.026a1.84 1.84 0 00-1.067-.34c-.438-.004-.801.092-1.088.287a.94.94 0 00-.436.785c-.014.351.099.637.338.859.239.222.61.406 1.113.554l1.363.391c2.012.579 3.01 1.767 2.993 3.566-.01 1.01-.395 1.84-1.159 2.49-.752.64-1.73.955-2.938.943zm11.096.097l-4.267-11.895 2.58.12 2.924 8.259 3.634-7.95 2.63.123-5.38 11.443-2.12-.1zm12.819-2.401c.645.784 1.47 1.222 2.476 1.312a3.44 3.44 0 002.653-.851c.776-.668 1.21-1.516 1.303-2.543.093-1.026-.184-1.933-.829-2.718-.633-.794-1.453-1.237-2.458-1.328-1.005-.09-1.895.199-2.671.867-.764.658-1.193 1.5-1.285 2.527-.093 1.027.178 1.938.811 2.733zm6.671 2.235c-1.274 1.064-2.741 1.521-4.402 1.372-1.66-.15-3.028-.862-4.103-2.137-1.063-1.286-1.52-2.758-1.37-4.42.15-1.66.861-3.022 2.136-4.086 1.286-1.073 2.76-1.535 4.42-1.386 1.66.15 3.022.867 4.085 2.152 1.075 1.275 1.537 2.743 1.388 4.404-.15 1.66-.868 3.028-2.154 4.101zm4.748 2.25l1.425-11.595 2.368.29-1.425 11.596-2.368-.291z" fill="#171E2F"/></svg>