<svg width="70" height="79" viewBox="0 0 70 79" fill="none" xmlns="http://www.w3.org/2000/svg">
<g filter="url(#filter0_d_1000_38695)">
<path fill-rule="evenodd" clip-rule="evenodd" d="M38.2624 52.8188C39.0963 51.9854 47.6977 43.38 47.6977 43.38C50.1855 40.8911 51.8797 37.7201 52.5661 34.2679C53.2524 30.8158 52.9001 27.2376 51.5536 23.9858C50.2071 20.734 47.9269 17.9546 45.0014 15.9992C42.0759 14.0437 38.6365 13 35.118 13C31.5995 13 28.1601 14.0437 25.2346 15.9992C22.3091 17.9546 20.0289 20.734 18.6824 23.9858C17.3359 27.2376 16.9835 30.8158 17.6699 34.2679C18.3562 37.7201 20.0505 40.8911 22.5383 43.38C22.5383 43.38 31.1419 51.9854 31.9759 52.8188C32.8098 53.6521 35.1191 57.4747 35.1191 57.4747C35.1191 57.4747 37.4284 53.6521 38.2624 52.8188ZM41.7891 30.7957C41.7891 34.4815 38.8023 37.4694 35.1179 37.4694C31.4335 37.4694 28.4467 34.4815 28.4467 30.7957C28.4467 27.11 31.4335 24.1221 35.1179 24.1221C38.8023 24.1221 41.7891 27.11 41.7891 30.7957Z" fill="url(#paint0_linear_1000_38695)"/>
<path fill-rule="evenodd" clip-rule="evenodd" d="M38.2624 52.8188C39.0963 51.9854 47.6977 43.38 47.6977 43.38C50.1855 40.8911 51.8797 37.7201 52.5661 34.2679C53.2524 30.8158 52.9001 27.2376 51.5536 23.9858C50.2071 20.734 47.9269 17.9546 45.0014 15.9992C42.0759 14.0437 38.6365 13 35.118 13C31.5995 13 28.1601 14.0437 25.2346 15.9992C22.3091 17.9546 20.0289 20.734 18.6824 23.9858C17.3359 27.2376 16.9835 30.8158 17.6699 34.2679C18.3562 37.7201 20.0505 40.8911 22.5383 43.38C22.5383 43.38 31.1419 51.9854 31.9759 52.8188C32.8098 53.6521 35.1191 57.4747 35.1191 57.4747C35.1191 57.4747 37.4284 53.6521 38.2624 52.8188ZM41.7891 30.7957C41.7891 34.4815 38.8023 37.4694 35.1179 37.4694C31.4335 37.4694 28.4467 34.4815 28.4467 30.7957C28.4467 27.11 31.4335 24.1221 35.1179 24.1221C38.8023 24.1221 41.7891 27.11 41.7891 30.7957Z" stroke="white" stroke-width="1.61726" stroke-linecap="round" stroke-linejoin="round"/>
</g>
<defs>
<filter id="filter0_d_1000_38695" x="0.346924" y="0.0619507" width="69.5405" height="78.437" filterUnits="userSpaceOnUse" color-interpolation-filters="sRGB">
<feFlood flood-opacity="0" result="BackgroundImageFix"/>
<feColorMatrix in="SourceAlpha" type="matrix" values="0 0 0 0 0 0 0 0 0 0 0 0 0 0 0 0 0 0 127 0" result="hardAlpha"/>
<feOffset dy="4.04315"/>
<feGaussianBlur stdDeviation="8.0863"/>
<feComposite in2="hardAlpha" operator="out"/>
<feColorMatrix type="matrix" values="0 0 0 0 0.0862745 0 0 0 0 0.0431373 0 0 0 0 0.0823529 0 0 0 0.2 0"/>
<feBlend mode="normal" in2="BackgroundImageFix" result="effect1_dropShadow_1000_38695"/>
<feBlend mode="normal" in="SourceGraphic" in2="effect1_dropShadow_1000_38695" result="shape"/>
</filter>
<linearGradient id="paint0_linear_1000_38695" x1="13.0883" y1="-6.8576" x2="78.363" y2="31.4457" gradientUnits="userSpaceOnUse">
<stop stop-color="#CC283C"/>
<stop offset="1" stop-color="#CC284F"/>
</linearGradient>
</defs>
</svg>
