<svg width="152" height="35" fill="none" xmlns="http://www.w3.org/2000/svg"><path d="M47.52 18.808V23h-1.968V11.8c.555 0 1.157-.005 1.808-.016.65-.01 1.184-.016 1.6-.016 2.71 0 4.064 1.152 4.064 3.456 0 .853-.219 1.557-.656 2.112-.437.533-.939.896-1.504 1.088L54.368 23h-2.384l-3.088-4.192H47.52zm1.344-5.2c-.053 0-.139.005-.256.016-.117 0-.283.005-.496.016h-.592v3.328h1.28c.63 0 1.141-.155 1.536-.464.405-.31.608-.73.608-1.264 0-1.088-.693-1.632-2.08-1.632zm11.683 7.376l.528 1.296c-.715.597-1.632.896-2.752.896-1.152 0-2.09-.347-2.816-1.04-.704-.683-1.056-1.595-1.056-2.736 0-1.067.347-1.963 1.04-2.688.693-.725 1.616-1.088 2.768-1.088.95 0 1.755.315 2.416.944.661.63.992 1.43.992 2.4 0 .427-.037.757-.112.992h-5.2c.075.523.304.933.688 1.232.395.299.885.448 1.472.448.8 0 1.477-.219 2.032-.656zm-2.368-3.824c-1.045 0-1.675.523-1.888 1.568h3.536c.01-.459-.139-.832-.448-1.12-.299-.299-.699-.448-1.2-.448zm11.835 9.04h-1.84v-3.568a3.188 3.188 0 01-1.776.544c-1.141 0-2.053-.341-2.736-1.024-.672-.693-1.008-1.61-1.008-2.752 0-1.077.39-1.973 1.168-2.688.79-.725 1.776-1.088 2.96-1.088 1.237 0 2.315.288 3.232.864V26.2zm-3.376-4.736c.619 0 1.13-.219 1.536-.656v-3.104c-.48-.235-.95-.352-1.408-.352-.661 0-1.184.203-1.568.608-.384.395-.576.901-.576 1.52 0 .576.181 1.05.544 1.424.374.373.864.56 1.472.56zM76.712 15.8h1.84V23h-1.84v-.88c-.576.704-1.344 1.056-2.304 1.056-.768 0-1.382-.256-1.84-.768-.459-.512-.688-1.248-.688-2.208v-4.4h1.84v4.016c0 1.099.458 1.648 1.376 1.648.629 0 1.168-.293 1.616-.88V15.8zm9.538 5.184l.528 1.296c-.715.597-1.632.896-2.752.896-1.152 0-2.09-.347-2.816-1.04-.704-.683-1.056-1.595-1.056-2.736 0-1.067.347-1.963 1.04-2.688.694-.725 1.616-1.088 2.768-1.088.95 0 1.755.315 2.416.944.662.63.992 1.43.992 2.4 0 .427-.037.757-.112.992h-5.2c.075.523.304.933.688 1.232.395.299.886.448 1.472.448.8 0 1.477-.219 2.032-.656zm-2.368-3.824c-1.045 0-1.675.523-1.888 1.568h3.536c.01-.459-.139-.832-.448-1.12-.298-.299-.698-.448-1.2-.448zm4.73.656c0-.672.246-1.205.736-1.6s1.126-.592 1.904-.592c1.174 0 2.086.304 2.736.912l-.688 1.312a3.094 3.094 0 00-1.952-.688c-.256 0-.47.064-.64.192-.17.117-.256.261-.256.432 0 .352.454.645 1.36.88.33.075.624.16.88.256.256.085.518.213.784.384.278.16.49.373.64.64.15.267.224.576.224.928 0 .704-.267 1.264-.8 1.68-.523.416-1.227.624-2.112.624a4.47 4.47 0 01-1.84-.4c-.608-.277-.997-.555-1.168-.832l.896-1.2c.203.245.539.453 1.008.624.48.181.89.272 1.232.272.416.043.71-.09.88-.4.17-.32.059-.581-.336-.784a4.033 4.033 0 00-.752-.272c-.33-.096-.64-.192-.928-.288a7.673 7.673 0 01-.864-.4 1.847 1.847 0 01-.688-.656 1.98 1.98 0 01-.256-1.024zm7.19 2.448V13.8h1.84v2h2.32v1.728h-2.32v2.624c0 .864.288 1.296.864 1.296.362 0 .73-.139 1.103-.416l.561 1.424c-.587.47-1.296.704-2.129.704-.778 0-1.349-.235-1.712-.704-.351-.48-.527-1.21-.527-2.192zM106.216 23h-.144V11.8h.176c.459 0 .885-.005 1.28-.016a86.527 86.527 0 011.408-.032c1.077 0 2.027.15 2.848.448.832.288 1.493.693 1.984 1.216a4.9 4.9 0 011.088 1.744 5.77 5.77 0 01.368 2.08c0 1.685-.56 3.072-1.68 4.16-1.109 1.088-2.688 1.632-4.736 1.632-.459 0-.88-.005-1.264-.016-.384-.01-.827-.016-1.328-.016zm2.688-10.416c-.235 0-.581.01-1.04.032-.448.01-.752.016-.912.016v9.536c.352 0 .683.005.992.016.309 0 .533.005.672.016h.224c1.739 0 3.083-.459 4.032-1.376.949-.928 1.424-2.123 1.424-3.584 0-1.376-.453-2.496-1.36-3.36-.917-.864-2.261-1.296-4.032-1.296zm14.071 8.896l.272.64c-.651.683-1.536 1.024-2.656 1.024-1.152 0-2.075-.341-2.768-1.024-.704-.683-1.056-1.59-1.056-2.72 0-1.088.32-1.984.96-2.688.65-.704 1.546-1.056 2.688-1.056.928 0 1.706.299 2.336.896.618.587.928 1.37.928 2.352 0 .256-.016.48-.048.672h-5.936c.032.864.314 1.547.848 2.048.533.49 1.232.736 2.096.736 1.002 0 1.781-.293 2.336-.88zm-2.64-5.04c-.768 0-1.392.224-1.872.672-.47.448-.742 1.04-.816 1.776h5.184c-.011-.757-.24-1.355-.688-1.792-.448-.437-1.051-.656-1.808-.656zm9.062 4.672a.944.944 0 00-.416-.8 3.059 3.059 0 00-.992-.48 29.827 29.827 0 01-1.168-.384 2.55 2.55 0 01-1.008-.688c-.266-.32-.4-.72-.4-1.2 0-.576.214-1.035.64-1.376.427-.352.987-.528 1.68-.528.992 0 1.744.267 2.256.8l-.352.624c-.49-.459-1.12-.688-1.888-.688-.426 0-.778.112-1.056.336-.266.213-.4.485-.4.816 0 .341.134.624.4.848.278.213.608.384.992.512.395.117.79.245 1.184.384.395.139.726.357.992.656.278.299.416.677.416 1.136 0 .65-.245 1.157-.736 1.52-.48.363-1.098.544-1.856.544-.469 0-.96-.107-1.472-.32-.48-.203-.81-.443-.992-.72l.464-.544c.203.245.507.448.912.608.416.16.811.24 1.184.24.47 0 .854-.112 1.152-.336.31-.235.464-.555.464-.96zM133.59 23h-.832v-7.2h.832V23zm-.976-10a.47.47 0 01.176-.384.636.636 0 01.416-.144c.138 0 .261.053.368.16a.456.456 0 01.176.368.587.587 0 01-.16.432.491.491 0 01-.384.16.617.617 0 01-.432-.16.583.583 0 01-.16-.432zm2.876 11.056c0-.544.192-1.003.576-1.376.384-.373.928-.635 1.632-.784a1.04 1.04 0 01-.24-.688c0-.267.09-.507.272-.72a2.442 2.442 0 01-1.104-.912 2.445 2.445 0 01-.4-1.376c0-.736.261-1.344.784-1.824.522-.48 1.21-.72 2.064-.72.682 0 1.285.181 1.808.544h.016l2.048-.544v.784l-1.456.368c.288.437.432.901.432 1.392 0 .715-.267 1.323-.8 1.824-.534.48-1.216.72-2.048.72-.299 0-.539-.021-.72-.064a.907.907 0 00-.144.528c0 .245.069.437.208.576.405-.021.629-.032.672-.032 1.098 0 1.973.203 2.624.608.65.405.976.97.976 1.696 0 .715-.326 1.27-.976 1.664-.651.405-1.526.608-2.624.608-1.11 0-1.99-.197-2.64-.592-.64-.395-.96-.955-.96-1.68zm.848 0c0 .47.245.837.736 1.104.501.277 1.173.416 2.016.416.832 0 1.498-.139 2-.416.501-.277.752-.645.752-1.104 0-.47-.251-.843-.752-1.12-.491-.288-1.158-.432-2-.432-.832 0-1.499.139-2 .416-.502.277-.752.656-.752 1.136zm1.296-7.136a1.66 1.66 0 00-.56 1.28c0 .512.186.939.56 1.28.373.341.853.512 1.44.512.586 0 1.066-.17 1.44-.512.373-.341.56-.768.56-1.28s-.192-.939-.576-1.28c-.374-.341-.848-.512-1.424-.512-.566 0-1.046.17-1.44.512zm7.571 6.08h-.832v-7.2h.832v1.008a3.46 3.46 0 011.152-.816c.48-.213.96-.32 1.44-.32 1.003 0 1.755.261 2.256.784.502.523.752 1.333.752 2.432V23h-.832v-3.952c0-1.728-.789-2.592-2.368-2.592-.458 0-.906.107-1.344.32a2.982 2.982 0 00-1.056.784V23z" fill="#fff"/><rect x="17.46" width="24.535" height="24.53" rx="2" transform="rotate(45.381 17.46 0)" fill="#fff"/><circle cx="17.116" cy="17.225" r="10" fill="#000"/><rect x="10.616" y="10.525" width="12.65" height="12.652" rx="2" fill="#fff"/><circle cx="16.916" cy="16.924" r="4.5" fill="#000"/><rect x="16.916" y="14.674" width="2.976" height="2.975" rx="1" transform="rotate(45.381 16.916 14.674)" fill="#fff"/></svg>