<svg width="38" height="38" fill="none" xmlns="http://www.w3.org/2000/svg"><path d="M33.25 18.208c0 8.313-6.73 15.042-15.042 15.042S3.167 26.52 3.167 18.208 9.895 3.167 18.207 3.167m16.626 31.666l-3.166-3.166" stroke="#EB3A53" stroke-width="2.3" stroke-linecap="round" stroke-linejoin="round"/><path d="M22.958 9.706c-.554-1.742.095-3.911 1.932-4.497.966-.317 2.153-.048 2.834.887.633-.966 1.868-1.188 2.818-.887 1.837.586 2.486 2.755 1.932 4.497-.87 2.77-3.91 4.211-4.75 4.211-.855 0-3.863-1.409-4.766-4.211z" stroke="#EB3A53" stroke-width="2.3" stroke-linecap="round" stroke-linejoin="round"/></svg>