<svg width="465" height="353" fill="none" xmlns="http://www.w3.org/2000/svg"><path opacity=".04" d="M104.41 265.016s-45.297-26.807-42.882-95.609c2.415-68.802 63.151-110.56 107.9-109.637 44.749.924 57.713 20.185 94.612 23.18 36.899 2.994 101.853-23.733 141.535 9.323s8.135 114.323-39.02 172.777c-47.156 58.454-189.032 68.627-262.145-.034z" fill="#2F3646"/><g clip-path="url(#clip0)"><path d="M429.692 315.416H50.685v.189h379.007v-.189zm-37.977 12.156h-25.106v.189h25.106v-.189zm-89.961 2.055h-6.587v.189h6.587v-.189zm64.098-9.066h-14.547v.188h14.547v-.188zm-242.663 1.269H90.45v.189h32.739v-.189zm11.552 0h-4.798v.189h4.798v-.189zm86.611 3.19h-71.011v.188h71.011v-.188zm8.99-43.298H83.977c-2.388 0-4.329-1.934-4.329-4.314V72.348c0-2.379 1.941-4.313 4.329-4.313h146.372c2.388 0 4.328 1.934 4.328 4.314v205.059a4.335 4.335 0 01-4.335 4.314zM83.977 68.224c-2.282 0-4.14 1.85-4.14 4.125v205.059c0 2.274 1.858 4.125 4.14 4.125h146.372c2.282 0 4.139-1.851 4.139-4.125V72.348c0-2.273-1.857-4.124-4.139-4.124H83.977zM394.3 281.722H247.927c-2.387 0-4.328-1.934-4.328-4.314V72.348c0-2.379 1.941-4.313 4.328-4.313H394.3c2.387 0 4.328 1.934 4.328 4.314v205.059c0 2.38-1.941 4.314-4.328 4.314zM247.927 68.224c-2.281 0-4.138 1.85-4.138 4.125v205.059c0 2.274 1.857 4.125 4.138 4.125H394.3c2.281 0 4.139-1.851 4.139-4.125V72.348c0-2.273-1.858-4.124-4.139-4.124H247.927z" fill="#EBEBEB"/><path d="M240.188 349.534c81.17 0 146.971-3.829 146.971-8.552 0-4.723-65.801-8.552-146.971-8.552s-146.971 3.829-146.971 8.552c0 4.723 65.801 8.552 146.971 8.552z" fill="#F5F5F5"/><path d="M197.793 114.316c.727-3.181 8.686-6.203 15.508-1.541 6.823 4.661 8.627 12.654 6.444 19.098-3.662 10.804 15.448 10.403 19.875 28.618 3.494 14.384.25 34.684-19.246 33.581-29.767-1.685-27.198-30.68-28.502-45.918-1.311-15.238-17.548-32.297 5.921-33.838z" fill="#263238"/><path d="M187.961 154.998c-.129 2.206-.387 4.223-.675 6.323a85.542 85.542 0 01-1.137 6.195c-.462 2.055-.947 4.11-1.599 6.135a54.474 54.474 0 01-2.213 6.029l-.668 1.48c-.09.227-.272.552-.416.831-.152.287-.319.537-.478.809-.644 1.035-1.357 1.919-2.077 2.757-1.44 1.677-2.979 3.151-4.548 4.556-3.176 2.772-6.451 5.265-9.975 7.524l-2.024-2.606a246.082 246.082 0 004.282-4.216 108.981 108.981 0 004.109-4.329c1.326-1.458 2.585-2.954 3.676-4.449a20.85 20.85 0 001.425-2.229c.084-.174.19-.355.258-.529.076-.181.136-.302.227-.551l.508-1.33c1.319-3.573 2.252-7.366 3.017-11.204.387-1.919.66-3.868.955-5.809.281-1.927.501-3.944.675-5.787l6.678.4z" fill="#FFB573"/><path d="M183.413 147.064c-2.691.68-4.579 11.725-4.579 11.725l10.302 6.981s4.237-13.093 2.168-16.047c-2.161-3.074-3.965-3.656-7.891-2.659z" fill="#CC2849"/><path opacity=".2" d="M183.656 149.527l-2.07 11.129 4.169 2.825-2.099-13.954z" fill="#2B3242"/><path d="M163.386 194.07l-6.936 1.103 3.957 4.367s4.094-.929 4.806-3.543l-1.827-1.927z" fill="#FFB573"/><path d="M153.168 196.043l3.957 4.268 3.282-.771-3.956-4.366-3.283.869zm44.814 136.9h-6.534l-.44-15.08h6.534l.44 15.08zm45.178-19.189l-6.049 2.463-7.664-13.168 6.049-2.463 7.664 13.168z" fill="#FFB573"/><path d="M235.974 315.31l6.307-3.74a.516.516 0 01.674.113l3.684 4.548c.379.469.227 1.224-.303 1.526-2.221 1.262-3.358 1.768-6.132 3.408-1.706 1.012-5.723 4.472-8.081 5.87-2.304 1.367-3.866-.854-3.009-1.647 3.835-3.551 5.382-7.072 6.125-9.195.136-.362.401-.679.735-.883zm-44.753 16.885h7.337c.265 0 .485.182.523.446l.834 5.787c.083.597-.432 1.171-1.046 1.156-2.562-.045-3.79-.197-7.019-.197-1.986 0-6.095.204-8.839.204-2.683 0-2.888-2.704-1.743-2.946 5.116-1.095 7.133-2.614 8.861-4.057a1.728 1.728 0 011.092-.393z" fill="#263238"/><path opacity=".2" d="M191.008 317.871l.228 7.774h6.534l-.22-7.774h-6.542zm44.496-17.285l-6.057 2.463 3.957 6.792 6.049-2.463-3.949-6.792z" fill="#2B3242"/><path d="M183.413 147.065s-3.115 1.096 3.123 39.3h26.538c-.447-10.766-.455-17.399 4.707-39.489 0 0-5.556-1.209-11.264-1.481-4.464-.211-8.125-.355-12.052 0-5.185.469-11.052 1.67-11.052 1.67z" fill="#CC2849"/><path opacity=".2" d="M215.583 155.617c-2.403.597-4.624 3.211-4.358 8.023.159 2.886 1.485 5.07 2.213 6.059.425-3.702 1.137-8 2.267-13.5l-.122-.582z" fill="#2B3242"/><path d="M195.852 155.957s3.449 2.123 4.351 5.266c3.745-2.735 8.831-10.342 9.036-14.89.022-.552-.448-1.005-1.001-1.013-1.084-.015-1.728.068-1.728.068l-10.658 10.569zm0-.001s-3.449 2.123-4.351 5.266c-4.025-2.939-1.789-12.632.515-15.865 1.66-.106 2.441.03 2.441.03l1.395 10.569z" fill="#FAFAFA"/><path d="M205.312 131.873c-.758 3.861-1.516 10.947 1.19 13.523 0 0-3.586 6.852-10.65 10.569-5.374-4.283-1.395-10.569-1.395-10.569 4.321-1.027 4.215-4.223 3.457-7.23l7.398-6.293z" fill="#FFB573"/><path opacity=".2" d="M202.295 134.441l-4.381 3.725c.181.71.318 1.428.371 2.13 1.652-.234 4.252-1.639 4.601-3.43.175-.846-.447-2.024-.591-2.425z" fill="#2B3242"/><path d="M211.808 125.662c-1.789 6.21-2.418 8.877-6.329 11.4-5.882 3.801-13.144.25-13.25-6.376-.099-5.96 2.85-15.117 9.596-16.25 6.64-1.111 11.78 5.016 9.983 11.226z" fill="#FFB573"/><path d="M198.354 114.995c.295 2.1 11.832 8.854 14.023 5.334 2.19-3.528-.963-6.173-5.867-6.845-4.905-.672-8.156 1.511-8.156 1.511z" fill="#263238"/><path d="M205.873 116.135c-1.418 1.866 1.584 15.245 5.882 13.991 4.298-1.254 4.101-5.545 1.114-9.496-2.986-3.959-6.996-4.495-6.996-4.495z" fill="#263238"/><path d="M186.536 186.365s-5.154 50.156-4.722 70.018c.447 20.655 8.042 67.759 8.042 67.759h8.831s-1.395-45.903-.614-66.188c.849-22.113 7.899-71.589 7.899-71.589h-19.436z" fill="#CC2849"/><path opacity=".4" d="M186.536 186.365s-5.154 50.156-4.722 70.018c.447 20.655 8.042 67.759 8.042 67.759h8.831s-1.395-45.903-.614-66.188c.849-22.113 7.899-71.589 7.899-71.589h-19.436z" fill="#2B3242"/><path d="M199.445 324.452h-10.362l-.758-3.294 11.605-.4-.485 3.694z" fill="#263238"/><path opacity=".2" d="M197.982 198.846c-6.519 13.07-1.311 36.905.993 45.774 1.182-13.319 3.176-29.599 4.73-41.559-.993-6.769-2.721-10.244-5.723-4.215z" fill="#2B3242"/><path d="M193.54 186.365s6.011 52.143 10.552 68.892c5.389 19.877 27.28 53.79 27.28 53.79l8.248-3.354s-14.137-38.612-18.261-49.083c-8.793-22.347-1.266-55.656-8.293-70.237H193.54v-.008z" fill="#CC2849"/><path opacity=".4" d="M193.54 186.365s6.011 52.143 10.552 68.892c5.389 19.877 27.28 53.79 27.28 53.79l8.248-3.354s-14.137-38.612-18.261-49.083c-8.793-22.347-1.266-55.656-8.293-70.237H193.54v-.008z" fill="#2B3242"/><path d="M240.749 305.724l-10.233 4.162-2.403-2.757 11.81-5.44.826 4.035zM120.126 120.019c-18.434 16.258-20.148 44.339-3.835 62.704 16.312 18.374 44.48 20.081 62.915 3.823 18.435-16.258 20.156-44.339 3.843-62.705-16.312-18.365-44.488-20.08-62.923-3.822zm54.403 61.269c-15.516 13.682-39.227 12.246-52.955-3.218-13.735-15.465-12.287-39.104 3.229-52.786 15.517-13.689 39.235-12.246 52.963 3.219 13.735 15.464 12.287 39.096-3.237 52.785z" fill="#263238"/><path opacity=".3" d="M147.574 187.49c-18.95-1.148-33.375-17.398-32.223-36.285 1.16-18.895 17.457-33.271 36.408-32.123 18.957 1.156 33.382 17.399 32.23 36.293-1.16 18.887-17.457 33.264-36.415 32.115z" fill="#CC2849"/><path opacity=".5" d="M151.758 119.081a17.238 17.238 0 00-.644-.03l-35.718 31.503c-.022.219-.03.431-.045.65a34.054 34.054 0 005.655 21.002l50.991-44.973a34.26 34.26 0 00-20.239-8.152zm23.537 11.362l-51.492 45.42a34.36 34.36 0 005.791 5.243l50.218-44.294a33.671 33.671 0 00-4.517-6.369z" fill="#FAFAFA"/><path d="M184.74 186.887l-5.867 5.175a2.162 2.162 0 01-3.04-.181 2.145 2.145 0 01.182-3.03l5.867-5.175a2.16 2.16 0 013.039.181 2.132 2.132 0 01-.181 3.03z" fill="#263238"/><path d="M182.579 185.927c4.42 3.875 8.649 7.925 12.826 12.027a576.413 576.413 0 0112.287 12.496 700.997 700.997 0 0111.916 12.828c3.684 4.532 8.702 7.879 9.453 14.996a3.596 3.596 0 01-3.214 3.951 3.48 3.48 0 01-1.19-.076c-6.997-1.609-9.726-6.98-13.789-11.173a742.983 742.983 0 01-11.324-13.349 560.534 560.534 0 01-10.954-13.675c-3.577-4.623-7.095-9.3-10.415-14.15a2.946 2.946 0 01.773-4.102 2.988 2.988 0 013.631.227zm18.784-60.824c-.114.513-.478.869-.819.793-.333-.076-.515-.552-.402-1.065.114-.514.478-.869.819-.794.333.076.515.552.402 1.066zm-5.814-1.284c-.114.514-.478.869-.819.794-.333-.076-.515-.552-.402-1.065.114-.514.478-.869.819-.794.334.076.515.552.402 1.065z" fill="#263238"/><path d="M195.291 122.815l-1.16-.627s.417 1.103 1.16.627z" fill="#263238"/><path d="M197.133 125.141s-1.365 2.017-2.562 2.863c.538.786 1.758.748 1.758.748l.804-3.611z" fill="#ED893E"/><path d="M198.687 131.381a5.081 5.081 0 01-.773-.113.154.154 0 01-.121-.181c.015-.084.098-.144.182-.114 2.258.499 3.661-.838 3.676-.853a.155.155 0 11.22.219c-.053.053-1.228 1.171-3.184 1.042z" fill="#263238"/><path d="M212.225 131.856c-.743 1.118-1.94 1.783-3.024 1.987-1.638.302-2.305-1.194-1.721-2.652.523-1.314 2.001-3.052 3.578-2.689 1.554.355 2.016 2.085 1.167 3.354z" fill="#FFB573"/><path d="M203.781 122.845a.319.319 0 01-.349-.114c-.841-1.156-2.683-1.141-2.706-1.141a.306.306 0 11-.008-.611c.091 0 2.184-.016 3.214 1.397a.31.31 0 01-.068.431.525.525 0 00-.083.038zm-9.445-3.272a.319.319 0 01-.258-.167.31.31 0 01.136-.415c1.524-.771 2.775-.076 2.828-.046a.31.31 0 01.114.424.317.317 0 01-.425.113c-.053-.03-1.023-.552-2.236.06a.392.392 0 01-.159.031z" fill="#263238"/><path d="M233.465 317.781a.256.256 0 01-.076-.015c-.288-.06-.508-.249-.637-.574a.53.53 0 01.046-.529c.477-.68 2.835-.597 3.107-.582.069 0 .114.046.137.099a.152.152 0 01-.038.166c-.614.589-1.728 1.534-2.539 1.435zm2.046-1.397c-.947-.008-2.213.105-2.463.461-.031.045-.061.113-.008.234.091.226.228.355.417.393.44.098 1.19-.318 2.054-1.088z" fill="#CC2849"/><path d="M235.655 316.382c-.803-.09-2.244-.642-2.464-1.284-.045-.136-.083-.4.228-.635a.812.812 0 01.667-.158c.932.174 1.903 1.783 1.94 1.851a.134.134 0 010 .151.155.155 0 01-.128.075.86.86 0 01-.243 0zm-1.675-1.783a.477.477 0 00-.372.106c-.159.121-.151.219-.121.287.152.431 1.327.96 2.115 1.066-.349-.522-1.016-1.353-1.569-1.459-.023.008-.038.008-.053 0zm-45.208 18.729c-.652 0-1.251-.098-1.584-.4-.212-.189-.303-.446-.281-.748a.487.487 0 01.266-.408c.803-.438 3.403.891 3.699 1.042a.152.152 0 01.083.159c-.007.068-.06.113-.121.128-.561.106-1.342.227-2.062.227zm-1.167-1.345a.61.61 0 00-.288.053c-.061.038-.099.083-.106.166-.023.212.038.371.174.491.394.356 1.471.416 2.918.182-.887-.423-2.077-.892-2.698-.892z" fill="#CC2849"/><path d="M190.796 333.1a.137.137 0 01-.061-.015c-.78-.347-2.319-1.752-2.198-2.493.03-.173.152-.393.584-.438.318-.03.606.061.856.265.819.679.971 2.432.978 2.508.008.053-.023.106-.068.136a.12.12 0 01-.091.037zm-1.554-2.644a.35.35 0 00-.091.008c-.28.03-.303.143-.303.181-.076.446.97 1.549 1.766 2.025-.076-.514-.296-1.564-.834-2.01a.826.826 0 00-.538-.204z" fill="#CC2849"/><path d="M201.105 124.106l-1.16-.627c0-.008.417 1.095 1.16.627z" fill="#263238"/><path d="M213.468 184.808l.682 2.364c.091.182-.128.371-.432.371h-27.311c-.242 0-.44-.114-.455-.265l-.242-2.364c-.015-.167.189-.303.455-.303h26.871c.197 0 .372.076.432.197z" fill="#CC2849"/><path opacity=".2" d="M213.468 184.808l.682 2.364c.091.182-.128.371-.432.371h-27.311c-.242 0-.44-.114-.455-.265l-.242-2.364c-.015-.167.189-.303.455-.303h26.871c.197 0 .372.076.432.197z" fill="#2B3242"/><path d="M209.769 187.808h.72c.144 0 .25-.076.243-.167l-.341-3.074c-.008-.091-.137-.167-.281-.167h-.72c-.144 0-.25.076-.242.167l.341 3.074c.007.091.136.167.28.167z" fill="#CC2849"/><path opacity=".4" d="M209.769 187.808h.72c.144 0 .25-.076.243-.167l-.341-3.074c-.008-.091-.137-.167-.281-.167h-.72c-.144 0-.25.076-.242.167l.341 3.074c.007.091.136.167.28.167z" fill="#fff"/><path d="M188.423 187.808h.721c.144 0 .25-.076.242-.167l-.341-3.074c-.008-.091-.136-.167-.28-.167h-.721c-.144 0-.25.076-.242.167l.341 3.074c.015.091.136.167.28.167z" fill="#CC2849"/><path opacity=".4" d="M188.423 187.808h.721c.144 0 .25-.076.242-.167l-.341-3.074c-.008-.091-.136-.167-.28-.167h-.721c-.144 0-.25.076-.242.167l.341 3.074c.015.091.136.167.28.167z" fill="#fff"/><path d="M199.051 187.808h.72c.144 0 .25-.076.242-.167l-.341-3.074c-.007-.091-.136-.167-.28-.167h-.72c-.144 0-.25.076-.243.167l.341 3.074c.015.091.137.167.281.167z" fill="#CC2849"/><path opacity=".4" d="M199.051 187.808h.72c.144 0 .25-.076.242-.167l-.341-3.074c-.007-.091-.136-.167-.28-.167h-.72c-.144 0-.25.076-.243.167l.341 3.074c.015.091.137.167.281.167z" fill="#fff"/><path d="M197.125 191.638l-6.443-2.87 1.835 6.361s4.093.921 5.874-1.118l-1.266-2.373z" fill="#FFB573"/><path d="M220.866 154.719c.296 2.228.531 4.472.796 6.708l.682 6.717c.243 2.236.425 4.48.63 6.723l.288 3.37.068.838c.007.083.03.439.038.673.007.264-.015.521-.031.785a7.108 7.108 0 01-.902 2.728c-.879 1.518-1.978 2.485-3.039 3.309-1.069.816-2.153 1.465-3.245 2.047a45.667 45.667 0 01-6.602 2.765 90.613 90.613 0 01-6.678 1.942c-2.251.521-4.472 1.02-6.784 1.375l-.735-3.219c2.084-.68 4.222-1.39 6.283-2.175a85.737 85.737 0 006.125-2.471c1.979-.906 3.934-1.843 5.67-2.946.872-.544 1.691-1.118 2.373-1.715.682-.589 1.228-1.247 1.432-1.708.107-.226.129-.377.129-.468-.015-.023 0-.038-.015-.06-.015-.046 0 .03-.023-.167l-.121-.838-.485-3.347c-.303-2.229-.629-4.465-.91-6.693l-.856-6.702c-.243-2.236-.531-4.472-.743-6.716l6.655-.755z" fill="#FFB573"/><path d="M217.774 146.877c2.66.808 5.852 9.927 5.852 9.927l-9.301 9.549s-4.776-9.813-3.654-13.236c1.16-3.573 4.071-7.162 7.103-6.24z" fill="#CC2849"/><path d="M185.346 190.09l1.827 5.243 5.344-.197-1.835-6.368-5.336 1.322z" fill="#FFB573"/><path d="M275.33 171.287c1.736-12.42-6.958-22.498-19.428-22.498h91.06c12.462 0 21.164 10.071 19.428 22.498h-91.06z" fill="#263238"/><path opacity=".7" d="M275.33 171.287c1.736-12.42-6.958-22.498-19.428-22.498h91.06c12.462 0 21.164 10.071 19.428 22.498h-91.06z" fill="#CC2849"/><path d="M255.91 148.797h91.06c-12.462 0-23.976 10.07-25.72 22.498l-20.58 147.197c-1.736 12.42-13.25 22.499-25.719 22.499h-45.913c-12.462 0-21.164-10.071-19.428-22.499l20.58-147.197c1.744-12.428 13.25-22.498 25.72-22.498z" fill="#CC2849"/><path d="M255.523 318.484c-1.736 12.42 6.959 22.499 19.428 22.499h-91.06c-12.462 0-21.164-10.071-19.428-22.499h91.06z" fill="#263238"/><path opacity=".7" d="M255.523 318.484c-1.736 12.42 6.959 22.499 19.428 22.499h-91.06c-12.462 0-21.164-10.071-19.428-22.499h91.06z" fill="#CC2849"/><path opacity=".4" d="M270.123 194.586h35.27c1.031 0 1.986-.838 2.13-1.858.144-1.028-.584-1.859-1.607-1.859h-35.27c-1.031 0-1.986.839-2.13 1.859-.144 1.02.583 1.858 1.607 1.858zm-.97 6.928h25.916c1.031 0 1.986-.839 2.13-1.859.144-1.027-.584-1.858-1.607-1.858h-25.916c-1.031 0-1.986.838-2.13 1.858-.144 1.02.583 1.859 1.607 1.859zm-14.614 1.111c4.877-4.533 5.623-11.637 1.665-15.866-3.958-4.229-11.12-3.982-15.997.552-4.877 4.533-5.622 11.637-1.664 15.866 3.957 4.229 11.119 3.982 15.996-.552z" fill="#fff"/><path d="M237.316 194.963c-.243 1.73-.031 3.354.545 4.774 1.259 3.12 4.283 5.251 8.104 5.251 3.82 0 7.443-2.123 9.573-5.251.971-1.42 1.638-3.044 1.88-4.774.773-5.538-3.1-10.025-8.656-10.025-5.541.007-10.673 4.495-11.446 10.025z" fill="#fff"/><path opacity=".4" d="M240.052 198.793c.963 2.395 3.29 4.027 6.224 4.027 2.933 0 5.707-1.632 7.345-4.027-1.759-1.291-3.987-2.047-6.496-2.047-2.517 0-4.95.756-7.073 2.047zm4.223-6.293c-.266 1.889 1.061 3.423 2.956 3.423s3.653-1.534 3.919-3.423c.265-1.888-1.062-3.422-2.957-3.422-1.895 0-3.653 1.534-3.918 3.422z" fill="#263238"/><path opacity=".4" d="M265.892 224.858h11.901c1.031 0 1.986-.839 2.13-1.859.144-1.027-.583-1.858-1.607-1.858h-11.901c-1.03 0-1.986.838-2.13 1.858-.144 1.02.577 1.859 1.607 1.859zm19.072 0h16.995c1.031 0 1.986-.839 2.13-1.859.144-1.027-.584-1.858-1.607-1.858h-16.995c-1.031 0-1.986.838-2.13 1.858-.144 1.02.584 1.859 1.607 1.859zm-20.042 6.935h29.138c1.031 0 1.986-.838 2.13-1.858.144-1.028-.583-1.859-1.607-1.859h-29.138c-1.031 0-1.986.839-2.13 1.859-.144 1.02.576 1.858 1.607 1.858zm-14.609 1.106c4.877-4.534 5.622-11.637 1.665-15.866-3.958-4.23-11.12-3.983-15.997.551-4.877 4.534-5.622 11.637-1.664 15.866 3.957 4.229 11.119 3.982 15.996-.551z" fill="#fff"/><path d="M233.078 225.236c-.242 1.73-.03 3.354.546 4.775 1.258 3.12 4.283 5.25 8.103 5.25 3.821 0 7.444-2.123 9.574-5.25.97-1.421 1.637-3.045 1.88-4.775.773-5.538-3.1-10.025-8.657-10.025-5.541.007-10.673 4.495-11.446 10.025z" fill="#fff"/><path opacity=".4" d="M235.814 229.065c.963 2.395 3.29 4.027 6.224 4.027 2.933 0 5.708-1.632 7.345-4.027-1.759-1.292-3.987-2.047-6.496-2.047-2.509 0-4.943.755-7.073 2.047zm4.231-6.293c-.266 1.889 1.061 3.422 2.956 3.422s3.653-1.533 3.919-3.422c.265-1.889-1.062-3.422-2.957-3.422-1.895 0-3.653 1.533-3.918 3.422z" fill="#263238"/><path opacity=".4" d="M261.655 255.137h20.717c1.031 0 1.986-.839 2.13-1.859.144-1.027-.584-1.858-1.607-1.858h-20.717c-1.03 0-1.986.838-2.13 1.858-.144 1.02.584 1.859 1.607 1.859zm-.97 6.928h32.292c1.031 0 1.986-.839 2.13-1.859.144-1.027-.584-1.858-1.607-1.858h-32.292c-1.031 0-1.986.838-2.13 1.858-.144 1.02.584 1.859 1.607 1.859z" fill="#fff"/><path opacity=".2" d="M225.324 291.56h49.453c1.44 0 2.782-1.171 2.986-2.614.197-1.435-.811-2.606-2.251-2.606h-49.453c-1.44 0-2.782 1.171-2.986 2.606-.205 1.436.811 2.614 2.251 2.614zm-1.357 9.715h36.339c1.44 0 2.782-1.171 2.987-2.614.197-1.435-.811-2.606-2.252-2.606h-36.339c-1.44 0-2.782 1.171-2.986 2.606-.205 1.435.811 2.614 2.251 2.614zm18.549-128.635h58.958c.743 0 1.44-.604 1.546-1.352.106-.741-.424-1.352-1.167-1.352h-58.958c-.743 0-1.441.604-1.547 1.352-.098.748.425 1.352 1.168 1.352z" fill="#fff"/><path opacity=".4" d="M246.077 263.178c4.877-4.534 5.622-11.637 1.664-15.866-3.958-4.229-11.12-3.982-15.997.551-4.877 4.534-5.622 11.638-1.664 15.867 3.958 4.229 11.12 3.982 15.997-.552z" fill="#fff"/><path d="M228.849 255.515c-.243 1.73-.03 3.355.546 4.775 1.258 3.12 4.282 5.251 8.103 5.251 3.82 0 7.443-2.123 9.573-5.251.971-1.42 1.638-3.045 1.88-4.775.774-5.537-3.1-10.025-8.656-10.025-5.541 0-10.673 4.488-11.446 10.025z" fill="#fff"/><path opacity=".4" d="M231.585 259.344c.963 2.395 3.29 4.027 6.223 4.027 2.934 0 5.708-1.632 7.345-4.027-1.758-1.292-3.987-2.047-6.496-2.047-2.516-.008-4.95.748-7.072 2.047zm4.222-6.293c-.265 1.889 1.061 3.423 2.956 3.423 1.896 0 3.654-1.534 3.919-3.423.266-1.888-1.061-3.422-2.956-3.422s-3.653 1.526-3.919 3.422z" fill="#263238"/><path d="M318.721 141.869h52.671v-58.87h-52.671v58.87z" fill="#F0F0F0"/><path d="M315 141.869h55.569v-58.87H315v58.87z" fill="#F5F5F5"/><path d="M319.662 87.635v49.597h46.257V87.635h-46.257z" fill="#fff"/><path d="M347.998 106.817l-28.331-11.883V115.5l20.965 8.782c4.82 2.021 10.429-.262 12.457-5.066 2.02-4.796-.271-10.386-5.091-12.4zm-100.277 10.052h52.671v-58.87h-52.671v58.87z" fill="#F0F0F0"/><path d="M244 116.869h55.569v-58.87H244v58.87z" fill="#F5F5F5"/><path d="M248.659 62.633v49.597h46.257V62.633h-46.257z" fill="#fff"/><path d="M264.122 73.137c-3.646 0-7.104 2.128-8.598 5.663-1.979 4.682.254 10.14 4.968 12.121l34.432 14.446V85.274l-27.23-11.425a9.334 9.334 0 00-3.572-.712z" fill="#F0F0F0"/></g><defs><clipPath id="clip0"><path fill="#fff" transform="translate(94 53.695)" d="M0 0h312v295H0z"/></clipPath></defs></svg>