<svg width="35" height="35" fill="none" xmlns="http://www.w3.org/2000/svg"><g clip-path="url(#clip0_80:70154)"><path d="M10.938 18.958a6.562 6.562 0 116.562-6.562 6.57 6.57 0 01-6.563 6.562zm0-10.208a3.646 3.646 0 100 7.292 3.646 3.646 0 000-7.292zm10.937 24.792v-.73a10.937 10.937 0 10-21.875 0v.73a1.458 1.458 0 002.917 0v-.73a8.02 8.02 0 1116.041 0v.73a1.459 1.459 0 002.917 0zM35 26.25a10.209 10.209 0 00-17.014-7.608 1.457 1.457 0 00.334 2.411 1.458 1.458 0 001.611-.238 7.292 7.292 0 0112.152 5.435 1.458 1.458 0 002.917 0zm-9.48-13.125a6.562 6.562 0 116.563-6.563 6.57 6.57 0 01-6.562 6.563zm0-10.208a3.646 3.646 0 10.001 7.292 3.646 3.646 0 000-7.292z" fill="#fff"/></g><defs><clipPath id="clip0_80:70154"><path fill="#fff" d="M0 0h35v35H0z"/></clipPath></defs></svg>