<svg width="38" height="38" fill="none" xmlns="http://www.w3.org/2000/svg"><path d="M28.563 21.454a3.18 3.18 0 00-.95 2.58c.142 1.71 1.71 2.962 3.42 2.962h3.008v1.884c0 3.277-2.676 5.953-5.953 5.953H9.91c-3.278 0-5.953-2.676-5.953-5.953V18.224c0-3.277 2.675-5.953 5.953-5.953h18.176c3.278 0 5.954 2.676 5.954 5.953v2.28h-3.198c-.887 0-1.695.348-2.28.95z" stroke="#EB3A53" stroke-width="2.3" stroke-linecap="round" stroke-linejoin="round"/><path d="M3.958 19.65v-7.237A4.509 4.509 0 016.87 8.186l12.571-4.75c1.964-.744 4.07.712 4.07 2.818v6.017m12.207 9.849v3.261c0 .87-.696 1.583-1.583 1.615h-3.103c-1.71 0-3.278-1.25-3.42-2.96a3.18 3.18 0 01.95-2.582 3.155 3.155 0 012.28-.95h3.293a1.626 1.626 0 011.583 1.615zM11.082 19h11.083" stroke="#EB3A53" stroke-width="2.3" stroke-linecap="round" stroke-linejoin="round"/></svg>