<svg width="38" height="38" fill="none" xmlns="http://www.w3.org/2000/svg"><path d="M34.834 14.25v9.5c0 3.959-.792 6.73-2.565 8.519L22.167 22.167l12.24-12.24c.284 1.252.427 2.677.427 4.323zm-.428-4.323L9.928 34.406C5.162 33.313 3.167 30.02 3.167 23.75v-9.5c0-7.917 3.167-11.084 11.083-11.084h9.5c6.27 0 9.564 1.996 10.656 6.761z" stroke="#EB3A53" stroke-width="2.3" stroke-linecap="round" stroke-linejoin="round"/><path d="M32.269 32.268c-1.79 1.773-4.56 2.565-8.519 2.565h-9.5c-1.646 0-3.071-.142-4.322-.427l12.239-12.24 10.102 10.102z" stroke="#EB3A53" stroke-width="2.3" stroke-linecap="round" stroke-linejoin="round"/><path d="M9.88 12.635c1.076-4.639 8.043-4.639 9.12 0 .617 2.723-1.093 5.035-2.597 6.46a2.85 2.85 0 01-3.927 0c-1.504-1.425-3.23-3.736-2.596-6.46z" stroke="#EB3A53" stroke-width="2.3"/><path d="M14.4 13.775h.014" stroke="#EB3A53" stroke-width="2.3" stroke-linecap="round" stroke-linejoin="round"/></svg>