<svg width="34" height="35" fill="none" xmlns="http://www.w3.org/2000/svg"><path d="M26.917 13.446a9.87 9.87 0 01-1.658 5.51 9.896 9.896 0 01-6.772 4.28 8.544 8.544 0 01-1.487.127c-.51 0-1.006-.043-1.488-.128-2.819-.41-5.241-2.011-6.771-4.278a9.871 9.871 0 01-1.658-5.511A9.91 9.91 0 0117 3.529a9.91 9.91 0 019.917 9.917z" stroke="#BEBBC3" stroke-width="1.9" stroke-linecap="round" stroke-linejoin="round"/><path d="M30.104 26.861l-2.337.553a1.39 1.39 0 00-1.049 1.048l-.495 2.083c-.27 1.133-1.715 1.473-2.465.58L17 23.363l-6.758 7.778c-.75.892-2.195.552-2.464-.581l-.496-2.082a1.411 1.411 0 00-1.049-1.049l-2.337-.552c-1.077-.255-1.46-1.601-.68-2.38L8.74 18.97c1.53 2.266 3.952 3.867 6.771 4.278.482.085.978.128 1.488.128s1.006-.043 1.488-.128c2.819-.41 5.241-2.012 6.771-4.278l5.525 5.525c.78.765.397 2.11-.68 2.366zM17.822 9.168l.835 1.672c.114.227.411.453.68.496l1.516.255c.963.156 1.19.864.496 1.558l-1.176 1.176c-.198.198-.311.58-.24.864l.34 1.46c.268 1.147-.34 1.6-1.36.99l-1.417-.835c-.255-.156-.68-.156-.935 0l-1.417.836c-1.02.595-1.63.156-1.36-.992l.34-1.459c.057-.27-.043-.666-.24-.864l-1.177-1.176c-.694-.694-.467-1.388.496-1.558l1.516-.255c.255-.043.553-.27.666-.496l.836-1.672c.41-.906 1.147-.906 1.6 0z" stroke="#BEBBC3" stroke-width="1.9" stroke-linecap="round" stroke-linejoin="round"/></svg>