<svg width="54" height="54" fill="none" xmlns="http://www.w3.org/2000/svg"><rect x=".5" y=".5" width="53" height="53" rx="26.5" stroke="#DCDBE1"/><path d="M27.5 25.006a1.329 1.329 0 00-.33 0 4.495 4.495 0 01-4.346-4.496 4.504 4.504 0 014.51-4.51 4.513 4.513 0 014.51 4.51c-.014 2.434-1.925 4.414-4.345 4.496zm9.1 9.075c-.348 2.785-5.692 3.603-9.267 3.603-3.575 0-8.473-.818-9.268-3.603-.38-1.334.963-2.557 2.434-3.547 3.768-2.503 9.928-2.503 13.668 0 1.47.99 2.53 2.319 2.433 3.547z" fill="#DC2B40" stroke="#DC2B40" stroke-width="1.5" stroke-linecap="round" stroke-linejoin="round"/></svg>