<svg width="54" height="54" fill="none" xmlns="http://www.w3.org/2000/svg"><rect x=".5" y=".5" width="53" height="53" rx="26.5" stroke="#DCDBE1"/><path d="M32.416 16.633H21.584c-3.25 0-5.416 2.166-5.416 5.416v6.5c0 3.25 2.166 5.417 5.416 5.417h4.334l4.82 3.207a1.08 1.08 0 001.68-.9v-2.307c3.25 0 5.416-2.167 5.416-5.417v-6.5c0-3.25-2.166-5.416-5.416-5.416zm-1.624 9.555h-7.584a.818.818 0 01-.812-.813c0-.444.368-.812.812-.812h7.584c.444 0 .812.368.812.812a.818.818 0 01-.813.813z" fill="#AEABB4"/></svg>