<svg width="54" height="54" fill="none" xmlns="http://www.w3.org/2000/svg"><rect x=".5" y=".5" width="53" height="53" rx="26.5" stroke="#DCDBE1"/><path d="M34.952 29.698l-1.084-1.799c-.227-.4-.433-1.159-.433-1.603v-2.74a6.402 6.402 0 00-3.65-5.775 3.17 3.17 0 00-2.796-1.614 3.21 3.21 0 00-2.806 1.646c-2.112 1.051-3.575 3.229-3.575 5.742v2.74c0 .445-.205 1.203-.433 1.593l-1.094 1.81c-.433.725-.53 1.527-.26 2.264.26.726.877 1.289 1.68 1.56a20.261 20.261 0 006.52 1.061c2.21 0 4.42-.346 6.522-1.05a2.598 2.598 0 001.625-1.571 2.574 2.574 0 00-.216-2.264zm-4.886 5.98A3.266 3.266 0 0127 37.833a3.21 3.21 0 01-2.297-.964 2.991 2.991 0 01-.758-1.202c.14.021.282.032.433.054.25.032.51.065.77.087.617.054 1.245.086 1.873.086.618 0 1.235-.032 1.842-.086.228-.022.455-.033.672-.065.173-.022.346-.044.53-.065z" fill="#B0ADB6"/></svg>