<svg width="28" height="28" fill="none" xmlns="http://www.w3.org/2000/svg"><path d="M9.917 22.167h-.583c-4.667 0-7-1.167-7-7V9.333c0-4.666 2.333-7 7-7h9.333c4.667 0 7 2.334 7 7v5.834c0 4.666-2.333 7-7 7h-.583c-.362 0-.712.175-.933.466l-1.75 2.334c-.77 1.026-2.03 1.026-2.8 0l-1.75-2.334c-.187-.256-.619-.466-.934-.466z" stroke="#BDBAC4" stroke-width="2" stroke-miterlimit="10" stroke-linecap="round" stroke-linejoin="round"/><path d="M18.663 12.833h.01m-4.678 0h.01m-4.678 0h.01" stroke="#BDBAC4" stroke-width="2" stroke-linecap="round" stroke-linejoin="round"/></svg>