<svg width="36" height="36" fill="none" xmlns="http://www.w3.org/2000/svg"><circle cx="18" cy="18" r="18" fill="#fff"/><path d="M15.988 6.62a3 3 0 014.024 0l1.446 1.306a3 3 0 001.983.775l1.945.018a3 3 0 012.971 2.966l.015 1.346a3 3 0 00.943 2.15l.969.913a3 3 0 010 4.366l-.97.914a3 3 0 00-.942 2.15l-.015 1.345a3 3 0 01-2.97 2.966l-1.946.018a3 3 0 00-1.983.775l-1.446 1.307a3 3 0 01-4.024 0l-1.445-1.307a3 3 0 00-1.983-.775l-1.945-.018a3 3 0 01-2.971-2.966l-.016-1.346a3 3 0 00-.942-2.15l-.969-.913a3 3 0 010-4.366l.97-.914a3 3 0 00.941-2.15l.016-1.345a3 3 0 012.97-2.966l1.946-.018a3 3 0 001.983-.775l1.445-1.307z" fill="url(#paint0_linear)"/><path d="M12 15.158l2.527-1.85h1.436v9.385h-1.995v-6.53l-.93.657L12 15.158zM17.564 18c0-1.502.27-2.677.811-3.526.55-.85 1.352-1.274 2.407-1.274s1.853.425 2.394 1.274c.55.849.824 2.024.824 3.526 0 1.502-.27 2.677-.811 3.526-.532.85-1.325 1.274-2.38 1.274-1.064 0-1.87-.425-2.42-1.274-.55-.858-.825-2.033-.825-3.526zm2.128 0c0 1.949.372 2.923 1.117 2.923.38 0 .651-.215.81-.644.17-.438.253-1.198.253-2.279 0-1.082-.084-1.837-.252-2.266-.169-.438-.448-.657-.838-.657-.381 0-.66.223-.838.67-.168.447-.252 1.198-.252 2.253z" fill="#fff"/><defs><linearGradient id="paint0_linear" x1="-14.171" y1="-19.379" x2="52.809" y2="-6.682" gradientUnits="userSpaceOnUse"><stop stop-color="#DC2B40"/><stop offset="1" stop-color="#CC284F"/></linearGradient></defs></svg>