<svg width="1084" height="177" fill="none" xmlns="http://www.w3.org/2000/svg"><g clip-path="url(#clip0_701:11998)"><path d="M0 40C0 17.909 17.909 0 40 0h810.034a49.998 49.998 0 0136.25 15.563l27.432 28.874A49.998 49.998 0 00949.966 60H1044c22.09 0 40 17.909 40 40v37c0 22.091-17.91 40-40 40H40c-22.091 0-40-17.909-40-40V40z" fill="#F4F3F8"/><path d="M246 0H121.056c-3.07 0-6.121.488-9.039 1.445L50.879 21.5-90 60h256.5L246 0z" fill="url(#paint0_linear_701:11998)" fill-opacity=".3"/><path fill-rule="evenodd" clip-rule="evenodd" d="M134.034 60H283V0h-49.034a49.998 49.998 0 00-36.25 15.563l-27.432 28.874A49.998 49.998 0 01134.034 60z" fill="#F4F3F8"/></g><defs><linearGradient id="paint0_linear_701:11998" x1="181.964" y1="87.5" x2="131.313" y2="5.882" gradientUnits="userSpaceOnUse"><stop offset=".156" stop-color="#B7C0BE"/><stop offset="1" stop-color="#C4C4C4" stop-opacity="0"/></linearGradient><clipPath id="clip0_701:11998"><path fill="#fff" d="M0 0h1084v177H0z"/></clipPath></defs></svg>