<svg width="24" height="24" fill="none" xmlns="http://www.w3.org/2000/svg"><g clip-path="url(#clip0_80:96587)"><path d="M13.818 2.09a.833.833 0 00-.984.818v2.4A6.628 6.628 0 005.39 12.75h-2.4a.834.834 0 00-.818.984A10 10 0 1013.818 2.09zM12 13.582a1.661 1.661 0 01-1.436-.833H8.667a.833.833 0 110-1.667h1.897c.146-.25.353-.457.603-.602V7.75a.833.833 0 111.667 0v2.73A1.662 1.662 0 0112 13.584zM10.31 2a.833.833 0 110 1.666.833.833 0 010-1.666zM6.894 3.463a.833.833 0 11-.003-.001l.003.001zM4.316 5.951a.833.833 0 110 1.666.833.833 0 010-1.666zM2.983 9.423a.833.833 0 11-.002 0h.002z" fill="#CFCCD4"/></g><defs><clipPath id="clip0_80:96587"><path fill="#fff" transform="translate(2 2)" d="M0 0h20v20H0z"/></clipPath></defs></svg>