<svg width="22" height="22" fill="none" xmlns="http://www.w3.org/2000/svg"><path d="M19.222 14.74c-.22 2.447-1.989 4.052-4.556 4.052h-8.25a4.585 4.585 0 01-4.583-4.584V7.792c0-2.494 1.503-4.235 3.84-4.529a4.88 4.88 0 01.743-.055h8.25c.239 0 .468.01.688.046 2.19.257 3.676 1.788 3.868 4.006a.45.45 0 01-.458.486h-1.421c-.88 0-1.696.339-2.283.944a3.225 3.225 0 00-.962 2.585c.147 1.668 1.613 2.98 3.355 2.98h1.31c.267 0 .487.22.46.485z" fill="#CFCCD4"/><path d="M20.166 10.056v1.888a.941.941 0 01-.916.935h-1.797c-.99 0-1.897-.724-1.98-1.714a1.841 1.841 0 01.55-1.494 1.83 1.83 0 011.32-.55h1.907a.94.94 0 01.916.935z" fill="#CFCCD4"/></svg>