<svg width="36" height="36" fill="none" xmlns="http://www.w3.org/2000/svg"><circle cx="18" cy="18" r="18" fill="#fff"/><path d="M15.988 6.62a3 3 0 014.024 0l1.446 1.306a3 3 0 001.983.775l1.945.018a3 3 0 012.971 2.966l.015 1.346a3 3 0 00.943 2.15l.969.913a3 3 0 010 4.366l-.97.914a3 3 0 00-.942 2.15l-.015 1.345a3 3 0 01-2.97 2.966l-1.946.018a3 3 0 00-1.983.775l-1.446 1.307a3 3 0 01-4.024 0l-1.445-1.307a3 3 0 00-1.983-.775l-1.945-.018a3 3 0 01-2.971-2.966l-.016-1.346a3 3 0 00-.942-2.15l-.969-.913a3 3 0 010-4.366l.97-.914a3 3 0 00.941-2.15l.016-1.345a3 3 0 012.97-2.966l1.946-.018a3 3 0 001.983-.775l1.445-1.307z" fill="url(#paint0_linear)"/><defs><linearGradient id="paint0_linear" x1="-14.171" y1="-19.379" x2="52.809" y2="-6.682" gradientUnits="userSpaceOnUse"><stop stop-color="#DC2B40"/><stop offset="1" stop-color="#CC284F"/></linearGradient></defs></svg>