<svg width="20" height="20" fill="none" xmlns="http://www.w3.org/2000/svg"><path d="M18.334 17.708H17.5V8.317c0-.517-.233-1-.641-1.317l-1.025-.8-.017-2.042a.829.829 0 00-.833-.825h-2.842l-1.117-.866a1.653 1.653 0 00-2.05 0L3.142 7c-.408.317-.642.8-.642 1.308l-.041 9.4h-.792a.63.63 0 00-.625.625.63.63 0 00.625.625h16.667a.63.63 0 00.625-.625.63.63 0 00-.625-.625zM5.417 10.625v-1.25c0-.458.375-.833.833-.833h1.667c.458 0 .833.375.833.833v1.25a.836.836 0 01-.833.833H6.25a.836.836 0 01-.833-.833zm6.667 7.083H7.917v-2.291c0-.692.558-1.25 1.25-1.25h1.667c.691 0 1.25.558 1.25 1.25v2.291zm2.5-7.083a.836.836 0 01-.834.833h-1.666a.836.836 0 01-.834-.833v-1.25c0-.458.375-.833.834-.833h1.666c.459 0 .834.375.834.833v1.25z" fill="#CFCCD4"/></svg>