<svg width="80" height="80" fill="none" xmlns="http://www.w3.org/2000/svg"><path d="M0 14C0 6.268 6.268 0 14 0h52c7.732 0 14 6.268 14 14v52c0 7.732-6.268 14-14 14H14C6.268 80 0 73.732 0 66V14z" fill="#F4F3F8"/><path d="M47.917 53.458H32.084c-4.75 0-7.917-2.375-7.917-7.916V34.458c0-5.541 3.167-7.916 7.917-7.916h15.833c4.75 0 7.917 2.375 7.917 7.916v11.084c0 5.541-3.167 7.916-7.917 7.916z" stroke="#BDBAC3" stroke-width="2" stroke-miterlimit="10" stroke-linecap="round" stroke-linejoin="round"/><path d="M47.917 35.25l-4.956 3.958c-1.63 1.299-4.306 1.299-5.937 0l-4.94-3.958" stroke="#BDBAC3" stroke-width="2" stroke-miterlimit="10" stroke-linecap="round" stroke-linejoin="round"/></svg>