<svg width="80" height="80" fill="none" xmlns="http://www.w3.org/2000/svg"><path d="M0 14C0 6.268 6.268 0 14 0h52c7.732 0 14 6.268 14 14v52c0 7.732-6.268 14-14 14H14C6.268 80 0 73.732 0 66V14z" fill="#F4F3F8"/><path d="M54.846 49.588a3.67 3.67 0 01-.362 1.574 5.96 5.96 0 01-.982 1.474c-.708.78-1.488 1.343-2.369 1.704a7.253 7.253 0 01-2.816.549c-1.474 0-3.048-.347-4.71-1.055-1.66-.707-3.321-1.66-4.968-2.86A41.521 41.521 0 0133.9 46.93a41.044 41.044 0 01-4.03-4.723c-1.184-1.647-2.138-3.294-2.831-4.926-.693-1.647-1.04-3.221-1.04-4.723 0-.982.173-1.921.52-2.788.347-.881.896-1.69 1.661-2.412.925-.91 1.936-1.358 3.005-1.358.404 0 .808.087 1.17.26.375.173.707.433.967.809l3.351 4.723c.26.361.448.694.578 1.011.13.304.202.607.202.881 0 .347-.1.694-.303 1.026a4.914 4.914 0 01-.809 1.026l-1.098 1.14a.773.773 0 00-.23.578c0 .116.014.217.043.333.043.115.086.202.115.289.26.476.708 1.097 1.344 1.848a49.39 49.39 0 002.094 2.283c.78.765 1.531 1.473 2.297 2.123.75.636 1.372 1.069 1.863 1.329.072.029.159.072.26.115a.996.996 0 00.361.058.795.795 0 00.592-.245l1.098-1.084c.361-.36.708-.635 1.04-.809a1.924 1.924 0 011.026-.303 2.3 2.3 0 01.88.188c.319.13.65.318 1.012.563l4.781 3.395c.376.26.636.563.794.924.145.361.232.722.232 1.127z" stroke="#BDBAC3" stroke-width="2" stroke-miterlimit="10"/></svg>