<svg width="44" height="35" fill="none" xmlns="http://www.w3.org/2000/svg"><path d="M34.718 35c-3.67 0-6.445-1.481-8.327-4.445-1.6-2.5-2.4-5.555-2.4-9.166 0-4.63 1.177-8.796 3.53-12.5C29.965 5.185 33.635 2.222 38.527 0l1.27 2.5c-2.916 1.204-5.457 3.102-7.62 5.694-2.07 2.593-3.105 5.232-3.105 7.917 0 1.111.14 2.083.423 2.917 1.505-1.204 3.246-1.806 5.222-1.806 2.54 0 4.657.834 6.35 2.5 1.788 1.574 2.682 3.704 2.682 6.39 0 2.5-.894 4.629-2.681 6.388-1.694 1.667-3.81 2.5-6.351 2.5zm-23.992 0c-3.67 0-6.445-1.481-8.327-4.445C.8 28.055 0 25 0 21.39c0-4.63 1.176-8.796 3.528-12.5C5.974 5.185 9.644 2.222 14.536 0l1.27 2.5c-2.916 1.204-5.456 3.102-7.62 5.694-2.07 2.593-3.105 5.232-3.105 7.917 0 1.111.14 2.083.423 2.917 1.505-1.204 3.246-1.806 5.222-1.806 2.54 0 4.657.834 6.35 2.5 1.788 1.574 2.682 3.704 2.682 6.39 0 2.5-.894 4.629-2.681 6.388-1.694 1.667-3.81 2.5-6.351 2.5z" fill="#3AB292"/></svg>