<svg width="24" height="22" fill="none" xmlns="http://www.w3.org/2000/svg"><path d="M13.728 2.372l1.76 3.371c.24.47.88.92 1.42 1.006l3.189.507c2.04.326 2.52 1.744 1.05 3.142l-2.48 2.375c-.42.402-.65 1.178-.52 1.734l.71 2.94c.56 2.327-.73 3.227-2.88 2.011l-2.99-1.695c-.54-.307-1.43-.307-1.98 0l-2.989 1.695c-2.14 1.216-3.44.307-2.88-2.011l.71-2.94c.13-.556-.1-1.332-.52-1.734l-2.48-2.375C1.39 9 1.86 7.582 3.899 7.256l3.19-.507c.53-.086 1.17-.536 1.41-1.006l1.76-3.371c.96-1.83 2.52-1.83 3.47 0z" stroke="#FFCDD6" stroke-width="2" stroke-linecap="round" stroke-linejoin="round"/></svg>