<svg width="23" height="23" fill="none" xmlns="http://www.w3.org/2000/svg"><path d="M8.146 18.208h-.479c-3.833 0-5.75-.958-5.75-5.75V7.667c0-3.834 1.917-5.75 5.75-5.75h7.667c3.833 0 5.75 1.916 5.75 5.75v4.791c0 3.834-1.917 5.75-5.75 5.75h-.48a.972.972 0 00-.766.384l-1.438 1.916c-.632.844-1.667.844-2.3 0l-1.437-1.916c-.154-.211-.508-.384-.767-.384z" stroke="#BDBAC4" stroke-width="2" stroke-miterlimit="10" stroke-linecap="round" stroke-linejoin="round"/><path d="M15.33 10.542h.009m-3.844 0h.009m-3.843 0h.009" stroke="#BDBAC4" stroke-width="2" stroke-linecap="round" stroke-linejoin="round"/></svg>