<svg width="16" height="16" fill="none" xmlns="http://www.w3.org/2000/svg"><path d="M15.81 12.928c0 .285-.064.578-.198.863a3.266 3.266 0 01-.539.807 3.569 3.569 0 01-1.298.934c-.475.198-.99.301-1.544.301-.807 0-1.67-.19-2.58-.578a13.912 13.912 0 01-2.724-1.567A22.762 22.762 0 014.33 11.47a22.5 22.5 0 01-2.208-2.588C1.472 7.98.95 7.078.57 6.183.19 5.28 0 4.418 0 3.594c0-.538.095-1.053.285-1.528.19-.483.49-.926.91-1.322C1.702.245 2.256 0 2.842 0a1.5 1.5 0 01.641.142c.206.096.388.238.53.444L5.85 3.175c.143.198.246.38.317.554.071.166.11.332.11.483 0 .19-.054.38-.165.562a2.693 2.693 0 01-.444.562l-.601.625a.424.424 0 00-.127.317c0 .063.008.119.024.182.023.063.047.11.063.158.143.262.388.602.736 1.014.357.411.737.83 1.148 1.25.428.42.84.808 1.259 1.164.412.349.752.586 1.021.729.04.015.087.04.143.063a.546.546 0 00.198.032.435.435 0 00.324-.135l.602-.594c.198-.198.388-.348.57-.443a1.06 1.06 0 01.562-.166c.15 0 .309.031.483.103.174.07.356.174.554.308l2.62 1.86c.206.143.349.31.436.507.08.198.127.396.127.618z" fill="#BDBAC3"/></svg>