<svg width="26" height="25" fill="none" xmlns="http://www.w3.org/2000/svg"><path d="M24.153 7.973V3.117C24.153 1.61 23.468 1 21.768 1h-4.32c-1.701 0-2.386.61-2.386 2.118v4.844c0 1.519.685 2.118 2.385 2.118h4.32c1.701.01 2.386-.6 2.386-2.107zm0 13.479v-4.32c0-1.701-.685-2.386-2.385-2.386h-4.32c-1.701 0-2.386.685-2.386 2.385v4.32c0 1.701.685 2.386 2.385 2.386h4.32c1.701 0 2.386-.685 2.386-2.385zM10.395 7.973V3.117C10.395 1.61 9.711 1 8.01 1H3.69c-1.7 0-2.385.61-2.385 2.118v4.844c0 1.519.684 2.118 2.385 2.118h4.32c1.7.01 2.385-.6 2.385-2.107zm0 13.479v-4.32c0-1.701-.684-2.386-2.385-2.386H3.69c-1.7 0-2.385.685-2.385 2.385v4.32c0 1.701.684 2.386 2.385 2.386h4.32c1.7 0 2.385-.685 2.385-2.385z" stroke="#BEBBC3" stroke-width="2" stroke-linecap="round" stroke-linejoin="round"/></svg>