<svg width="100" height="100" fill="none" xmlns="http://www.w3.org/2000/svg"><rect width="100" height="100" rx="30" fill="#CD2946"/><rect width="100" height="100" rx="30" fill="url(#paint0_linear_776:10790)"/><path d="M71.603 47.852L65.6 40.745c1.772-3.92 1.482-8.593-.796-12.332a.86.86 0 00-1.587.342c-1.932 7.903-8.043 13.982-15.97 15.878a23.341 23.341 0 00-11.07 6.187 23.293 23.293 0 00-6.103 10.683c-.575.314-1.138.652-1.688 1.015a.858.858 0 10.949 1.432 21.565 21.565 0 016.891-2.988 23.256 23.256 0 007.89-3.53.858.858 0 10-.98-1.41 21.543 21.543 0 01-7.31 3.27 23.37 23.37 0 00-3.666 1.205c2.34-7.076 8.132-12.436 15.487-14.195a23.289 23.289 0 003.665-1.205 21.457 21.457 0 01-2.9 5.712.858.858 0 00.699 1.356.859.859 0 00.7-.36 23.174 23.174 0 003.587-7.714 23.293 23.293 0 0010.878-12.855c1.134 3 .995 6.39-.457 9.25a.858.858 0 00.11.942l6.336 7.5-2.457 1.614a.858.858 0 00-.264 1.16l.946 1.569a1.508 1.508 0 01-.713 2.174.859.859 0 00-.24 1.433c.353.313.521.76.463 1.227a1.39 1.39 0 01-.75 1.076l-.053.028a.858.858 0 00-.463.761v2.875a2.751 2.751 0 01-2.75 2.747H58.94c-2.207 0-4.354.63-6.21 1.822l-4.59 2.948a.857.857 0 10.93 1.444l4.59-2.949a9.75 9.75 0 015.28-1.549h5.044a4.47 4.47 0 004.468-4.463V60.45a3.125 3.125 0 00.904-4 3.225 3.225 0 00.607-4.065l-.52-.862 1.8-1.183a1.683 1.683 0 00.361-2.488zm-43.165-3.451a.857.857 0 001.17-.327 15.675 15.675 0 001.589-4.044 13.922 13.922 0 0110.351-10.337.858.858 0 10-.4-1.67 15.71 15.71 0 00-11.623 11.608 13.964 13.964 0 01-1.414 3.601.858.858 0 00.327 1.17z" fill="#fff" stroke="#fff" stroke-width=".7"/><defs><linearGradient id="paint0_linear_776:10790" x1="11.182" y1="-17.953" x2="137.184" y2="51.768" gradientUnits="userSpaceOnUse"><stop stop-color="#CC283C"/><stop offset="1" stop-color="#CC284F"/></linearGradient></defs></svg>