<svg width="100" height="100" fill="none" xmlns="http://www.w3.org/2000/svg"><rect width="100" height="100" rx="30" fill="#CD2946"/><g clip-path="url(#clip0_776:10791)" fill="#fff" stroke="#F2F1F5" stroke-width=".8"><path d="M70.652 59.775a10.196 10.196 0 01-7.233-2.97 10.05 10.05 0 01-2.99-7.182 1.348 1.348 0 00-2.696 0 10.05 10.05 0 01-2.99 7.181 10.196 10.196 0 01-7.233 2.971 1.348 1.348 0 100 2.696c5.637 0 10.223 4.567 10.223 10.181a1.348 1.348 0 102.696 0c0-5.614 4.586-10.181 10.223-10.181a1.348 1.348 0 100-2.696v0zM59.08 66.93a12.987 12.987 0 00-5.806-5.799c1.23-.61 2.366-1.42 3.366-2.413a12.842 12.842 0 002.44-3.36 12.856 12.856 0 002.44 3.36c1 .993 2.135 1.803 3.365 2.413a12.986 12.986 0 00-5.805 5.799v0zM44.439 49.238c-3.969 0-7.198-3.205-7.198-7.145a1.348 1.348 0 00-2.695 0c0 3.94-3.23 7.145-7.198 7.145a1.348 1.348 0 000 2.695c3.969 0 7.198 3.216 7.198 7.168a1.348 1.348 0 002.695 0c0-3.952 3.23-7.168 7.198-7.168a1.348 1.348 0 100-2.695v0zm-8.546 4.898a9.952 9.952 0 00-3.555-3.549 9.94 9.94 0 003.555-3.54 9.942 9.942 0 003.556 3.54 9.95 9.95 0 00-3.556 3.548zM46.63 37.313c2.92 0 5.295 2.356 5.295 5.253a1.348 1.348 0 002.695 0c0-2.906 2.375-5.27 5.294-5.27a1.348 1.348 0 000-2.695c-2.92 0-5.294-2.357-5.294-5.253a1.348 1.348 0 10-2.695 0c0 2.906-2.375 5.27-5.294 5.27a1.348 1.348 0 100 2.695v0zm6.645-3.547a8.038 8.038 0 002.195 2.184 8.043 8.043 0 00-2.2 2.198 8.036 8.036 0 00-2.195-2.184 8.037 8.037 0 002.2-2.198z"/></g><defs><clipPath id="clip0_776:10791"><path fill="#fff" transform="translate(26 28)" d="M0 0h46v46H0z"/></clipPath></defs></svg>