<svg width="100" height="100" fill="none" xmlns="http://www.w3.org/2000/svg"><rect width="100" height="100" rx="30" fill="#F2F1F5"/><path fill-rule="evenodd" clip-rule="evenodd" d="M60.5 29h-21c-1.93 0-3.5 1.57-3.5 3.5v33.25c0 1.93 1.57 3.5 3.5 3.5v.875c0 .484.391.875.875.875h1.75a.875.875 0 00.875-.875v-.875h14v.875c0 .484.392.875.875.875h1.75a.875.875 0 00.875-.875v-.875c1.93 0 3.5-1.57 3.5-3.5V32.5c0-1.93-1.57-3.5-3.5-3.5zm1.75 36.75c0 .965-.785 1.75-1.75 1.75h-21c-.965 0-1.75-.785-1.75-1.75V43h24.5v22.75zm0-24.5h-24.5V32.5c0-.965.785-1.75 1.75-1.75h21c.965 0 1.75.785 1.75 1.75v8.75zM45.625 36h-3.5a.875.875 0 00-1.494-.619l-.874.875a.874.874 0 00.618 1.494h5.25a.875.875 0 100-1.75zm0 12.25h-5.25a.874.874 0 01-.618-1.494l.875-.875a.875.875 0 011.493.619h3.5a.875.875 0 110 1.75z" fill="#C5C5CD"/><path d="M39.5 69.25h.2v-.2h-.2v.2zm3.5 0v-.2h-.2v.2h.2zm14 0h.2v-.2H57v.2zm3.5 0v-.2h-.2v.2h.2zM64 32.5h.2-.2zm-1.75 33.25v-.2h-.2v.2h.2zM37.75 43v-.2h-.2v.2h.2zm24.5 0h.2v-.2h-.2v.2zm0 22.75v.2h.2v-.2h-.2zm-24.5-24.5h-.2v.2h.2v-.2zm24.5 0v.2h.2v-.2h-.2zM42.125 36h-.2v.2h.2V36zm-.256-.619l.141-.141-.141.141zm-1.237 0l.141.142-.141-.142zm-.875.875l-.142-.141.142.141zm-.19.954l.185-.076-.185.076zm0 10.5l.185-.076-.185.076zm.19-.954l-.142-.141.142.141zm.875-.875l.141.142-.141-.142zm1.237 0l.141-.141-.141.141zm.256.619h-.2v.2h.2v-.2zM39.5 29.2h21v-.4h-21v.4zm-3.3 3.3c0-1.82 1.48-3.3 3.3-3.3v-.4c-2.04 0-3.7 1.66-3.7 3.7h.4zm0 33.25V32.5h-.4v33.25h.4zm3.3 3.3c-1.82 0-3.3-1.48-3.3-3.3h-.4c0 2.04 1.66 3.7 3.7 3.7v-.4zm.2 1.075v-.875h-.4v.875h.4zm.675.675a.675.675 0 01-.675-.675h-.4c0 .594.48 1.075 1.075 1.075v-.4zm1.75 0h-1.75v.4h1.75v-.4zm.675-.675a.675.675 0 01-.675.675v.4c.594 0 1.075-.48 1.075-1.075h-.4zm0-.875v.875h.4v-.875h-.4zm14.2-.2H43v.4h14v-.4zm.2 1.075v-.875h-.4v.875h.4zm.675.675a.674.674 0 01-.675-.675h-.4c0 .594.481 1.075 1.075 1.075v-.4zm1.75 0h-1.75v.4h1.75v-.4zm.675-.675a.674.674 0 01-.675.675v.4c.594 0 1.075-.48 1.075-1.075h-.4zm0-.875v.875h.4v-.875h-.4zm3.5-3.5c0 1.82-1.48 3.3-3.3 3.3v.4c2.04 0 3.7-1.66 3.7-3.7h-.4zm0-33.25v33.25h.4V32.5h-.4zm-3.3-3.3c1.82 0 3.3 1.48 3.3 3.3h.4c0-2.04-1.66-3.7-3.7-3.7v.4zm0 38.5c1.075 0 1.95-.875 1.95-1.95h-.4c0 .854-.696 1.55-1.55 1.55v.4zm-21 0h21v-.4h-21v.4zm-1.95-1.95c0 1.075.875 1.95 1.95 1.95v-.4c-.854 0-1.55-.696-1.55-1.55h-.4zm0-22.75v22.75h.4V43h-.4zm24.7-.2h-24.5v.4h24.5v-.4zm.2 22.95V43h-.4v22.75h.4zm-.2.2v-.4.4zm-24.5-24.5h24.5v-.4h-24.5v.4zm-.2-8.95v8.75h.4V32.5h-.4zm1.95-1.95c-1.075 0-1.95.875-1.95 1.95h.4c0-.854.696-1.55 1.55-1.55v-.4zm21 0h-21v.4h21v-.4zm1.95 1.95c0-1.075-.875-1.95-1.95-1.95v.4c.854 0 1.55.696 1.55 1.55h.4zm0 8.75V32.5h-.4v8.75h.4zM42.125 36.2h3.5v-.4h-3.5v.4zm-.398-.677a.673.673 0 01.198.477h.4c0-.275-.105-.55-.315-.76l-.283.283zm-.954 0a.675.675 0 01.954 0l.283-.283c-.42-.42-1.1-.42-1.52 0l.283.283zm-.875.875l.875-.875-.283-.283-.875.875.283.283zm-.147.735a.674.674 0 01.147-.735l-.283-.283c-.307.307-.4.77-.233 1.172l.37-.154zm.624.417a.674.674 0 01-.623-.416l-.37.152c.166.403.559.664.993.664v-.4zm5.25 0h-5.25v.4h5.25v-.4zm.675-.675a.675.675 0 01-.675.675v.4c.594 0 1.075-.481 1.075-1.075h-.4zm-.675-.675c.373 0 .675.302.675.675h.4c0-.594-.48-1.075-1.075-1.075v.4zm-5.25 12.25h5.25v-.4h-5.25v.4zm-.993-.664c.166.403.559.664.993.664v-.4a.674.674 0 01-.623-.416l-.37.152zm.233-1.171c-.307.307-.4.77-.233 1.172l.37-.154a.674.674 0 01.146-.735l-.283-.283zm.875-.875l-.875.875.283.283.875-.875-.283-.283zm1.52 0c-.42-.42-1.1-.42-1.52 0l.283.283a.675.675 0 01.954 0l.283-.283zm.315.76c0-.275-.105-.55-.315-.76l-.283.283a.672.672 0 01.198.477h.4zm3.3-.2h-3.5v.4h3.5v-.4zm1.075 1.075c0-.594-.48-1.075-1.075-1.075v.4c.373 0 .675.302.675.675h.4zm-1.075 1.075c.594 0 1.075-.48 1.075-1.075h-.4a.675.675 0 01-.675.675v.4z" fill="#C5C5CD"/></svg>