<svg width="100" height="100" fill="none" xmlns="http://www.w3.org/2000/svg"><rect width="100" height="100" rx="30" fill="#F2F1F5"/><path d="M70.196 70.423c-6.19.694-11.099-2.074-11.148-2.102a.715.715 0 00-.55-.07c-.077.02-7.863 2.128-14.134.722-3.91-.877-7.597-3.659-10.29-5.69-.361-.272-.704-.53-1.026-.768-.44-.325-1.138-.595-1.754-.833-.277-.107-.655-.253-.737-.305a.287.287 0 01-.109-.231v-1.695c.035-1.342 5.604-21.982 6.467-24.608a.56.56 0 01.166-.121l11.02-5.084 3.563 4.685a.65.65 0 01-.039.806l-3.52 3.986c-.23.261-.619.29-.86.086l-1.423-1.325a.724.724 0 00-.626-.165.76.76 0 00-.526.404c-.119.237-1.197.527-2.296.536l-.359-.037a.714.714 0 00-.706.372.737.737 0 00.06.803c.306.399.544.72.68.904l.704 12.097c-.437 1.718-.837 2.206-.936 2.304a.732.732 0 00-.507.697c0 .404.324.732.724.732.822 0 1.52-1.09 2.08-3.218 5.76-4.353 10.786-.245 11.18.093 1.83 1.855 1.943 3.086 1.947 3.141.009.396.33.715.724.715.4 0 .724-.327.724-.731 0-.168-.06-1.612-1.934-3.697 1.767-2.194 3.78-3.458 5.996-3.734 3.822-.475 7.035 2.12 7.067 2.146a.719.719 0 001.018-.104.736.736 0 00-.102-1.028c-.15-.123-3.705-3.013-8.145-2.467-2.595.318-4.924 1.735-6.932 4.216-1.63-1.12-6.302-3.653-11.528-.34l-.648-11.125a.732.732 0 00-.105-.339c.648-.078 1.42-.248 1.98-.62l.932.868c.869.736 2.14.645 2.897-.21l3.52-3.986c.65-.735.704-1.846.118-2.657l-3.925-5.16a.72.72 0 00-.875-.22l-11.535 5.322c-.12.053-.733.352-.934.963C35.144 35.594 29 57.724 29 59.448v1.698c0 .545.242 1.05.664 1.383.211.167.527.293 1.113.52.478.185 1.133.438 1.416.647.319.235.657.49 1.015.76 2.797 2.11 6.629 5 10.842 5.945 5.998 1.347 13.038-.28 14.547-.665 1.008.526 4.706 2.264 9.546 2.264.714 0 1.454-.038 2.213-.123a.73.73 0 00.64-.807.725.725 0 00-.8-.647z" fill="#C5C5CD" stroke="#C5C5CD" stroke-width=".7"/></svg>