<svg width="1720" height="633" fill="none" xmlns="http://www.w3.org/2000/svg"><path d="M1699.45 774.64S2152.5 155.071 1908 131.702c-256-24.467-411.5 225.2-585 225.2-218.19 0-316.5-56.924-490.998-56.924-187.499 0-240.033 121.837-453 121.837-222.034 0-534.673 115.803-375.502 300.099 134.772 156.047 1296.64 123.883 1695.95 52.726z" fill="#EAE9ED" fill-opacity=".9"/><path d="M-511.346 741.987s-126.615 72.442-206.992-65.282c-80.376-137.723 219.459-409.355 439.266-404.06C-88.025 277.248 66.5 423.349 195.501 472.128c168.385 63.671 247.379 37.27 426.999 64.07 187.268 27.942 460.71 239.337 303.207 374.746-133.36 114.656-1109.243-58.69-1437.053-168.957z" fill="#E6E5E9" fill-opacity=".8"/></svg>