<svg width="64" height="64" fill="none" xmlns="http://www.w3.org/2000/svg"><path d="M0 2a2 2 0 012-2h47c8.284 0 15 6.716 15 15v34c0 8.284-6.716 15-15 15H15C6.716 64 0 57.284 0 49V2z" fill="#CD2946"/><path d="M0 2a2 2 0 012-2h47c8.284 0 15 6.716 15 15v34c0 8.284-6.716 15-15 15H15C6.716 64 0 57.284 0 49V2z" fill="url(#paint0_linear)"/><g clip-path="url(#clip0)"><path d="M40.496 37.463l-2.53-9.612a3.214 3.214 0 01.082-1.906l2.42-6.778a1.076 1.076 0 00-.751-1.405l-4.056-1.014-.943-2.358a1.076 1.076 0 00-.999-.676h-3.442c-.44 0-.835.268-.998.676l-.944 2.358-4.055 1.014a1.076 1.076 0 00-.753 1.405l2.421 6.777c.22.616.248 1.275.082 1.907l-2.53 9.612c-.18.681.336 1.35 1.04 1.35h6.383v5.232l-6.405 4.27c-.888.592-.457 1.97.597 1.97.461 0 .226.066 5.808-3.655v2.58a1.076 1.076 0 002.15 0v-2.58c5.602 3.734 5.355 3.656 5.808 3.656 1.055 0 1.485-1.38.598-1.971l-6.405-4.27v-5.233h6.382c.704 0 1.22-.668 1.04-1.35zM29.391 18.702c.335-.084.61-.324.738-.644l.876-2.192h1.986l.877 2.192c.128.32.402.56.737.644l3.439.86c-2.181 6.105-2.086 5.802-2.183 6.2h-7.726c-.097-.4-.007-.11-2.183-6.2l3.439-.86zM25.936 36.66c2.368-8.998 2.217-8.385 2.278-8.748h7.569c.06.363-.094-.263 2.277 8.748H25.936z" fill="#fff"/></g><defs><linearGradient id="paint0_linear" x1="7.157" y1="-11.49" x2="87.798" y2="33.131" gradientUnits="userSpaceOnUse"><stop stop-color="#CC283C"/><stop offset="1" stop-color="#CC284F"/></linearGradient><clipPath id="clip0"><path fill="#fff" transform="translate(13.714 13.714)" d="M0 0h36.571v36.571H0z"/></clipPath></defs></svg>