<svg width="64" height="64" fill="none" xmlns="http://www.w3.org/2000/svg"><path d="M0 2a2 2 0 012-2h47c8.284 0 15 6.716 15 15v34c0 8.284-6.716 15-15 15H15C6.716 64 0 57.284 0 49V2z" fill="#CD2946"/><path d="M0 2a2 2 0 012-2h47c8.284 0 15 6.716 15 15v34c0 8.284-6.716 15-15 15H15C6.716 64 0 57.284 0 49V2z" fill="url(#paint0_linear)"/><path d="M46.728 23.714l-4.333-4.332-.826-.827-.548-.548-.133-.133a4.807 4.807 0 00-3.422-1.417 4.807 4.807 0 00-3.42 1.417L17.871 34.046a4.843 4.843 0 00-.021 6.82l.01.011.01.01 1.508 1.508 4.333 4.332a2.766 2.766 0 001.969.816c.744 0 1.443-.29 1.969-.816l1.585-1.585a.912.912 0 000-1.29l-5.011-5.011 1.301-1.302 4.045 4.045a.91.91 0 001.29 0 .912.912 0 000-1.29l-4.045-4.045 1.386-1.385 4.045 4.044a.91.91 0 001.29 0 .912.912 0 000-1.29l-4.045-4.045 1.386-1.385 4.045 4.044a.91.91 0 001.29 0 .912.912 0 000-1.29l-4.044-4.044 1.43-1.431 4.045 4.044a.91.91 0 001.29 0 .912.912 0 000-1.29l-4.044-4.044 1.43-1.431 4.045 4.044a.91.91 0 001.29 0 .912.912 0 000-1.29l-4.044-4.044 1.23-1.23 5.012 5.01a.912.912 0 001.29 0l1.585-1.585a2.766 2.766 0 00.816-1.969c0-.743-.29-1.442-.815-1.968zM19.162 35.336l16.174-16.171a2.994 2.994 0 012.13-.883 2.99 2.99 0 012.131.883l.81.81.052.051L20.024 40.46l-.857-.857-.005-.004a3.017 3.017 0 010-4.262zm8.137 9.161l-.94.94a.953.953 0 01-.678.281.953.953 0 01-.679-.28l-3.687-3.688 1.618-1.619 4.366 4.366zm18.138-18.136l-.94.94-4.366-4.366 1.618-1.618 3.688 3.687a.96.96 0 010 1.357z" fill="#fff"/><defs><linearGradient id="paint0_linear" x1="7.157" y1="-11.49" x2="87.798" y2="33.131" gradientUnits="userSpaceOnUse"><stop stop-color="#CC283C"/><stop offset="1" stop-color="#CC284F"/></linearGradient></defs></svg>