<svg width="150" height="150" fill="none" xmlns="http://www.w3.org/2000/svg"><g clip-path="url(#clip0)"><path fill="#fff" d="M0 0h150v150H0z"/><path d="M33.975 32.521C35.452 15.021 21.645 0 4.082 0H-293c-16.569 0-30 13.431-30 30v469c0 16.569 13.431 30 30 30h413c16.569 0 30-13.431 30-30V141.925c0-16.568-13.431-30-30-30H81.673c-29.272 0-52.283-25.034-49.823-54.202l2.125-25.202z" fill="#fff"/><path d="M33.975 32.521C35.452 15.021 21.645 0 4.082 0H-293c-16.569 0-30 13.431-30 30v469c0 16.569 13.431 30 30 30h413c16.569 0 30-13.431 30-30V141.925c0-16.568-13.431-30-30-30H81.673c-29.272 0-52.283-25.034-49.823-54.202l2.125-25.202z" fill="url(#paint0_linear)"/><path d="M33.975 32.521C35.452 15.021 21.645 0 4.082 0H-293c-16.569 0-30 13.431-30 30v469c0 16.569 13.431 30 30 30h413c16.569 0 30-13.431 30-30V141.925c0-16.568-13.431-30-30-30H81.673c-29.272 0-52.283-25.034-49.823-54.202l2.125-25.202z" fill="url(#paint1_linear)"/><path d="M-213.588 428.016s-45.298-26.807-42.883-95.609c2.415-68.802 63.151-110.56 107.9-109.637 44.75.924 57.713 20.185 94.612 23.18 36.9 2.994 101.853-23.733 141.535 9.323 39.683 33.056 8.136 114.323-39.02 172.777-47.155 58.454-189.031 68.627-262.144-.034z" fill="#CD2942"/><path opacity=".08" d="M-213.588 428.016s-45.298-26.807-42.883-95.609c2.415-68.802 63.151-110.56 107.9-109.637 44.75.924 57.713 20.185 94.612 23.18 36.9 2.994 101.853-23.733 141.535 9.323 39.683 33.056 8.136 114.323-39.02 172.777-47.155 58.454-189.031 68.627-262.144-.034z" fill="#2F3646"/></g><defs><linearGradient id="paint0_linear" x1="206.365" y1="-236.195" x2="-609.338" y2="298.786" gradientUnits="userSpaceOnUse"><stop stop-color="#CC283C"/><stop offset="1" stop-color="#CC284F"/></linearGradient><linearGradient id="paint1_linear" x1="206.365" y1="-236.195" x2="-609.338" y2="298.786" gradientUnits="userSpaceOnUse"><stop stop-color="#CC283C"/><stop offset="1" stop-color="#CC284F"/></linearGradient><clipPath id="clip0"><path fill="#fff" d="M0 0h150v150H0z"/></clipPath></defs></svg>