<svg width="715" height="641" fill="none" xmlns="http://www.w3.org/2000/svg"><path d="M656.947 183.279a7.518 7.518 0 01-1.19 1.384c-.783.827-1.867 1.925-3.103 3.129-1.235 1.203-2.334 2.286-3.163 3.008a7.088 7.088 0 01-1.416 1.174c.348-.505.753-.97 1.205-1.384.768-.828 1.868-1.941 3.088-3.144a89.783 89.783 0 013.179-3.009 8.179 8.179 0 011.4-1.158zm48.609-.121c.515.336.985.736 1.401 1.189.813.782 1.928 1.865 3.133 3.084a89.833 89.833 0 013.012 3.174c.438.422.827.891 1.16 1.399a7.983 7.983 0 01-1.386-1.189 135.289 135.289 0 01-3.133-3.084c-1.205-1.218-2.289-2.361-3.012-3.189a8.174 8.174 0 01-1.175-1.384z" fill="#E0E0E0"/><path d="M689.363 149.538H673.14v16.201h16.223v-16.201z" fill="#EBEBEB"/><g opacity=".5"><path d="M130.55 105.712h72.8v94.634l-72.31-.37-.49-94.264z" fill="#D0CFD3"/><path d="M126.362 199.617h72.38v-93.905h-72.38v93.905z" fill="#fff"/><path d="M199.1 105.353v94.623H126v-94.623h73.1zm-.72 93.874v-93.155h-71.66v93.185l71.66-.03z" fill="#D0CFD3"/><path d="M189.21 115.878H133.8v73.562h55.41v-73.562z" fill="#fff"/><path d="M133.8 115.879v20.442c0 12.983.05 31.299.09 53.08l-.17-.17h55.41l-.19.19v-73.572l.15.159-40.24-.079H133.7h15.09l40.33-.08h.16v73.901h-55.65v-.17c0-21.82.06-40.226.08-53.189 0-6.461 0-11.554.05-15.05v-4.993c0-.22.04-.469.04-.469z" fill="#D0CFD3"/><path d="M126.359 105.712a53.339 53.339 0 013.87 4.993 55.283 55.283 0 013.57 5.193 51.48 51.48 0 01-3.87-4.993 53.074 53.074 0 01-3.57-5.193zm62.851 10.546a70.865 70.865 0 014.63-5.403 67.598 67.598 0 014.9-5.143 64.58 64.58 0 01-4.63 5.393 66.602 66.602 0 01-4.9 5.153zm-42.91 52.02l1.42-1.867c1.06-1.448 2.2-2.846 3.16-4.354a7.336 7.336 0 00.16-7.76c-.82-1.578-1.7-3.116-2.53-4.684a13.265 13.265 0 01-1.586-5.043 13.271 13.271 0 01.506-5.263c.151-.446.328-.883.53-1.308h-.46l.73-1.358-.12-.1-.94.998h-.06l2.19-2.996h.1c-.2.36-.4.709-.61 1.059a15.79 15.79 0 014.83-3.565 7.616 7.616 0 001.46-1.358c.1.749.4.729.9.489a12.672 12.672 0 015.84-.889c2.795.124 5.569.536 8.28 1.228a2.85 2.85 0 003.11-.729c.491.832.718 1.793.65 2.757.19-.44.37-.879.63-1.478l1.08 2.197.82-.599a4.685 4.685 0 01-2 4.464.648.648 0 00-.384.361.652.652 0 00.004.527c.41 1.718.75 3.456 1.13 5.194a2.467 2.467 0 01-.36 1.997 1.525 1.525 0 000 1.907c.86 1.239 1.67 2.517 2.51 3.775.72 1.089.6 1.518-.61 1.998-.38.169-1 .229-1.09.499-.09.27.18.779.3 1.178.17.55.07.769-.62 1.409.1.172.187.353.26.539.13.419.19.829-.28 1.118a.928.928 0 00-.36 1.189c.102.288.188.581.26.879a2.336 2.336 0 01-1.389 2.917 2.348 2.348 0 01-1.171.129c-1.25-.06-2.5-.25-3.75-.38-1.72-.17-1.25-.32-1.87 1.079a18.261 18.261 0 01-1.22 3.075 2.593 2.593 0 000 1.848c.56 2.117 1.24 4.214 1.83 6.322.373 1.334.677 2.688.91 4.054-5.72-6.831-13.46-9.887-22.19-11.455zm96.11-116.474h70.63v91.818l-70.16-.36-.47-91.458z" fill="#D0CFD3"/><path d="M238.349 142.922h70.22V51.814h-70.22v91.108z" fill="#fff"/><path d="M308.912 51.465v91.797h-70.92V51.465h70.92zm-.69 91.108v-90.42h-69.53v90.42h69.53z" fill="#D0CFD3"/><path d="M299.323 61.68h-53.761v71.375h53.761V61.681z" fill="#fff"/><path d="M245.56 61.68v19.864c0 12.554 0 30.37.08 51.492l-.16-.16h53.76l-.18.18V61.691l.15.14-39-.07h-14.73 14.67l39.15-.21h.15v71.704h-54.08v-.169c0-21.162.07-39.018.09-51.602V62.03c0-.24.1-.35.1-.35z" fill="#D0CFD3"/><path d="M238.18 142.912a9.193 9.193 0 011-1.538c.62-.919 1.5-2.187 2.52-3.555 1.02-1.368 2-2.577 2.68-3.435a8.623 8.623 0 011.23-1.339 8.904 8.904 0 01-1 1.498l-2.59 3.486-2.6 3.495a8.792 8.792 0 01-1.24 1.388zm.12-91.108a54.876 54.876 0 013.76 4.834 52.193 52.193 0 013.46 4.993 54.686 54.686 0 01-3.76-4.834 52.012 52.012 0 01-3.46-4.993zm61 10.236a65.811 65.811 0 014.49-5.232c2.55-2.827 4.68-5.064 4.75-4.994a62.914 62.914 0 01-4.48 5.243 62.637 62.637 0 01-4.76 4.984zm9.262 80.873a58.73 58.73 0 01-4.54-4.754 59.807 59.807 0 01-4.28-4.993 59.534 59.534 0 014.55 4.753 60.435 60.435 0 014.27 4.994zm-39.202-67.92c1.11.57 2.18.19 3.29-.05 2.85-.61 5 .05 7.51 2.097 1.89 0 3.68-.52 5.2.859.15.14.42.13.64.2l1.06.37-.06.179-1-.3-.12.19c.15.11.29.3.46.32 2.71.43 3.75 2.227 2.69 4.733.37.47 1 .86.66 1.728-.09-.639-.25-1.158-1.07-1.318a3.786 3.786 0 01.89 3.725 3.835 3.835 0 01-2.81 2.597l.83.27v.139l-1.31-.25a34.212 34.212 0 00-.34 3.915c.1 4.484-1.84 7.29-6.32 8.988a2.298 2.298 0 00-1.74 2.447 7.732 7.732 0 001.62 4.634c.74 1.068 1.62 2.057 2.51 3.166a26.37 26.37 0 00-13.25 7.52 34.888 34.888 0 001.37-4.584 15.12 15.12 0 00-1.35-8.899 3.488 3.488 0 00-4-2.107c-.89.11-1.77.26-2.65.31-1.44.09-2.44-.489-2.66-1.548a3.486 3.486 0 01.08-1.238 1.786 1.786 0 00-.43-1.798c-.53-.499-.21-1.079.22-1.648-1-.29-.91-.939-.63-1.668a.99.99 0 00.015-.775 1 1 0 00-.545-.553c-1.17-.639-1.24-1.438-.33-2.417.91-.978 1.56-1.797 2.32-2.676l-1.35-.999.12-.16a1.2 1.2 0 00.4.21c.237.055.483.055.72 0 .08 0 .08-.37.05-.56a13.21 13.21 0 011-7.889.872.872 0 00.08-.589c-1.2-2.996.05-4.104 1.8-5.503a7.505 7.505 0 016.35-1.508h-1.61v.11l1.82.43-1.86-.13a5.007 5.007 0 00-3.47.919c2.08-.83 4.08-.34 6.25-.31l-1.05-.58z" fill="#D0CFD3"/></g><g opacity=".7"><path d="M698.007.606h-66.488V69.82h66.488V.606z" fill="#D0CFD3"/><path d="M693.503.606h-66.488V69.82h66.488V.606z" fill="#fff"/><path d="M693.518 69.849H627V.546h66.518v69.303zm-66.488 0h66.383V.65H627.03v69.198z" fill="#D0CFD3"/><path d="M684.608 9.917H636v50.605h48.608V9.917z" fill="#fff"/><path d="M635.947 60.853a7.308 7.308 0 01-1.19 1.4c-.783.811-1.867 1.925-3.103 3.128-1.235 1.204-2.334 2.272-3.163 3.009a7.332 7.332 0 01-1.416 1.158 9.853 9.853 0 011.205-1.384c.768-.812 1.868-1.925 3.088-3.129 1.22-1.203 2.35-2.286 3.179-3.009a7.96 7.96 0 011.4-1.173zm48.609-.135c.512.344.983.748 1.401 1.203.813.767 1.928 1.865 3.133 3.084a90.799 90.799 0 013.012 3.174 7.53 7.53 0 011.16 1.399 9.058 9.058 0 01-1.386-1.189 141.762 141.762 0 01-3.133-3.098c-1.205-1.234-2.289-2.347-3.012-3.174a7.292 7.292 0 01-1.175-1.4zm-.181-50.665a9.6 9.6 0 011.205-1.399c.783-.812 1.868-1.926 3.088-3.129a91.329 91.329 0 013.178-3.009 8 8 0 011.401-1.173 6.843 6.843 0 01-1.19 1.384c-.768.827-1.868 1.925-3.088 3.144a77.84 77.84 0 01-3.193 3.009c-.418.446-.888.84-1.401 1.173zm-48.563.121a7.516 7.516 0 01-1.386-1.189 114.987 114.987 0 01-3.133-3.099c-1.205-1.233-2.275-2.331-3.013-3.159a7.896 7.896 0 01-1.175-1.414c.51.35.979.753 1.401 1.204.814.767 1.928 1.865 3.133 3.008 1.205 1.144 2.29 2.347 3.013 3.174.448.44.838.936 1.16 1.475z" fill="#D0CFD3"/><path d="M684.375 60.522V46.516c0-8.86 0-21.48-.091-36.599l.181.18h-48.458l.226-.21v50.605l-.196-.18 35.097.09h12.472-12.396l-35.218.09h-.18V9.496h48.879v.18c0 15.163-.075 27.83-.09 36.72v13.658c0 .166-.226.467-.226.467z" fill="#D0CFD3"/><path d="M668.223 27.127H652v16.2h16.223v-16.2zm29.784 94.921h-66.488v69.212h66.488v-69.212z" fill="#D0CFD3"/><path d="M693.503 122.048h-66.488v69.212h66.488v-69.212z" fill="#fff"/><path d="M693.518 191.275H627v-69.197h66.518v69.197zm-66.488 0h66.383v-69.197H627.03v69.197z" fill="#D0CFD3"/><path d="M684.557 131.344h-48.609v50.605h48.609v-50.605z" fill="#fff"/><path d="M668.223 150.346H652v16.201h16.223v-16.201zm16.152-18.926a9.077 9.077 0 011.205-1.384c.783-.828 1.868-1.926 3.088-3.129a90.76 90.76 0 013.178-3.009c.431-.432.9-.825 1.401-1.173a7.198 7.198 0 01-1.19 1.399c-.768.812-1.868 1.925-3.088 3.129-1.22 1.203-2.365 2.286-3.193 3.008a6.894 6.894 0 01-1.401 1.159zm-48.563.195a8.156 8.156 0 01-1.386-1.204c-.828-.767-1.928-1.865-3.133-3.083a91.785 91.785 0 01-3.013-3.174 8.231 8.231 0 01-1.175-1.399c.512.34.982.739 1.401 1.188.814.782 1.928 1.865 3.133 3.099 1.205 1.233 2.29 2.346 3.013 3.174a6.86 6.86 0 011.16 1.399z" fill="#D0CFD3"/><path d="M684.375 181.949v-13.93c0-8.86 0-21.496-.09-36.615l.181.196h-48.458l.166-.181v50.605l-.196-.18 35.097.09h13.089-13.044l-35.218.105h-.18v-51.011h48.879v.391c0 15.179-.075 27.845-.09 36.735v13.659c0 .181-.136.151-.136.136z" fill="#D0CFD3"/></g><path d="M337.023 519.558a40.245 40.245 0 00-17.167-5.894c-2.806-.291-5.815-.203-8.111 1.451a1.662 1.662 0 00-.844 1.452c.14.418.423.773.8 1.002a24.536 24.536 0 0025.322 1.916m-.434-.407a84.323 84.323 0 01-11.091-9.741 28.074 28.074 0 01-6.948-12.833 5.175 5.175 0 01.552-4.355c8.838 6.896 15.772 15.809 17.444 26.871" fill="#D0CFD3"/><path d="M336.938 519.499a39.672 39.672 0 01.203-14.517 19.593 19.593 0 017.748-11.99c1.527 3.556.872 7.664-.203 11.381a55.148 55.148 0 01-7.69 16.172m8.59 14.444a25.352 25.352 0 00-13.751 6.968 26.032 26.032 0 00-7.879 13.486c5.16-.319 9.536-3.948 12.705-8.013 3.169-4.065 5.378-8.55 8.867-12.354m1.948 2.396a33.868 33.868 0 013.925-32.068c2.994 10.641 1.89 22.661-3.925 32.068zm11.441 13.616a24.509 24.509 0 00-13.767 3.21 24.453 24.453 0 00-9.695 10.277c-.29.58-.552 1.321-.16 1.843.203.198.45.342.722.42.271.079.557.089.834.03 4.622-.304 8.722-3.077 12.109-6.242 3.387-3.165 6.323-6.823 10.059-9.552m-.47-.726a43.632 43.632 0 01-.436-24.388c.857-3.136 2.311-6.446 5.204-7.912a.989.989 0 01.799-.145c.237.122.418.33.509.58a14.578 14.578 0 011.221 6.997 43.25 43.25 0 01-1.09 7.085c-.916 4.355-1.454 8.971-3.78 12.717a25.585 25.585 0 00-1.453 2.787c-.451.944-.451 1.277-.873 2.032m30.198 4.747a31.383 31.383 0 015.524-25.854c.392-.508.915-1.06 1.555-1.002 1.003.087 1.25 1.452 1.207 2.41a46.715 46.715 0 01-8.286 24.446zm2.733 1.858a37.639 37.639 0 0030.89-6.271 25.035 25.035 0 00-16.717-2.047c-5.597 1.278-10.699 3.775-14.173 8.318zm2.295-5.676a35.734 35.734 0 0112.066-11.441 35.792 35.792 0 0115.945-4.746 17.282 17.282 0 01-9.172 10.162 50.917 50.917 0 01-13.461 3.92c-1.788.348-4.244.74-5.407 2.134m-4.419-27.568a80.823 80.823 0 003.576-16.404 27.189 27.189 0 00-3.27-16.259 35.677 35.677 0 00-.48 33.186m18.433-9.741c6.352-11.526 19.289-20.715 32.401-22.007-5.059 12.557-18.897 22.269-32.401 22.007zm-3.981 2.251c9.463 1.451 17.516 7.476 26.369 11.134a11.846 11.846 0 005.96 1.147 4.664 4.664 0 004.329-3.112 4.654 4.654 0 00-1.422-5.134 12.698 12.698 0 00-4.361-2.627c-9.637-4.007-19.958-4.109-30.105-1.67" fill="#D0CFD3"/><path d="M398.222 523.158c2.137.61 2.907 1.713 4.564 3.165a49.289 49.289 0 0020.002 10.249c.771.188 1.774.275 2.152-.421.377-.697-.088-1.321-.524-1.859a27.381 27.381 0 00-12.08-8.187c-4.608-1.728-8.605-3.789-14.114-3.339m-6.176-39.646a37.839 37.839 0 0029.073 9.857c.482.009.952-.156 1.322-.465.727-.798-.145-2.018-1.003-2.685-8.532-6.649-18.897-9.393-29.334-6.707" fill="#D0CFD3"/><path d="M399.374 480.449a40.453 40.453 0 0136.195-5.966 28.741 28.741 0 01-17.24 7.635 54.958 54.958 0 01-18.897-1.596m-2.967-18.48c-.843-8.493-.305-15.214-.887-23.75 0-.682-.203-1.452-.843-1.757-.886-.334-1.628.755-1.919 1.67a27.21 27.21 0 003.635 23.662" fill="#D0CFD3"/><path d="M395.839 462.985a50.04 50.04 0 0014.115-13.69c2.776-3.803 5.131-8.362 4.491-13.065a13.508 13.508 0 00-10.175 5.052 28.13 28.13 0 00-5.175 10.408c-1.134 3.746-1.919 7.593-3.256 11.266m13.869-3.818a113.405 113.405 0 0034.698-20.44c-4.143-1.655-8.881-.668-13.082 1.002a41.13 41.13 0 00-21.805 19.351m-9.77 8.551a70.753 70.753 0 0019.261.087 82.107 82.107 0 0017.996-5.894 2.112 2.112 0 001.221-.929 1.448 1.448 0 00-.436-1.539 3.668 3.668 0 00-1.541-.711 33.212 33.212 0 00-19.435 1.161 88.335 88.335 0 00-17.066 7.825zm-36.581 15.808a34.025 34.025 0 01-.32-28.177c2.66 4.05 2.98 9.204 2.5 14.009-.479 4.805-1.948 9.77-2.049 14.604m-17.611-9.232a39.422 39.422 0 00-29.232 12.44 27.387 27.387 0 0015.989-2.903 80.7 80.7 0 0013.723-9.175m-12.21-4.282c-5.35-.436-10.481-1.089-15.612.479a18.731 18.731 0 00-11.906 10.074 28.16 28.16 0 0014.639-2.758 84.471 84.471 0 0012.879-7.795zm17.387.188c-4.812-3.15-9.739-6.344-15.336-7.65-5.596-1.307-12.065-.349-15.99 3.861 4.535 2.657 10.03 2.976 15.278 2.904 5.247-.073 11.629 0 16.629 1.698" fill="#D0CFD3"/><path d="M351.377 471.129c-8.213-8.057-11.338-22.516-8.024-33.534a51.058 51.058 0 018.024 33.534zm22.548-22.821c1.541-3.586 2.631-7.36 4.026-11.018a31.317 31.317 0 015.742-10.162 15.077 15.077 0 0110.176-5.255 40.845 40.845 0 01-7.061 15.333 40.896 40.896 0 01-12.665 11.175m-4.278 4.703c-2.573-3.527-5.523-8.303-8.998-10.931a15.06 15.06 0 00-12.239-3.223 28.458 28.458 0 008.941 9.588 28.507 28.507 0 0012.296 4.566zm.813-4.485a60.44 60.44 0 01-4.055-13.066 20.466 20.466 0 012.064-13.326c4.506 8.521 5.96 17.652 2.224 26.522m3.081-26.551c2.544-8.435 10.277-14.648 18.636-17.421a7.047 7.047 0 013.271-.494 2.914 2.914 0 012.398 2.018c.305 1.452-.872 2.715-1.991 3.673a63.467 63.467 0 01-22.314 12.296m.086-6.91a60.159 60.159 0 012.442-16.114c1.759-5.153 5.175-9.987 10.175-12.238.844 5.502-1.584 10.961-4.506 15.693-2.922 4.733-6.454 9.19-8.213 14.517m-.057 1.83c-2.108-6.141-2.326-13.951-6.018-19.308-2.573-3.745-6.701-6.3-8.925-10.264a15.614 15.614 0 00.523 11.614 33.404 33.404 0 006.818 9.756c2.732 2.903 5.058 5.095 7.602 8.173" fill="#D0CFD3"/><path d="M373.992 600.068c-.175 0-.305-41.01-.32-91.587-.015-50.577.116-91.588.276-91.588.16 0 .305 40.996.32 91.588.015 50.591-.116 91.587-.276 91.587z" fill="#D0CFD3"/><path d="M409.868 477.226a8.026 8.026 0 01-1.541.581l-4.245 1.451a245.59 245.59 0 00-13.853 5.183c-5.349 2.192-10.277 4.094-13.083 6.562a9.369 9.369 0 00-2.631 3.484c-.407.958-.479 1.539-.537 1.539-.059 0 0-.16 0-.436.06-.406.162-.805.305-1.19a9.174 9.174 0 012.573-3.717 23.255 23.255 0 015.683-3.527 170.667 170.667 0 017.487-3.267c5.349-2.192 10.32-3.905 13.94-5.023 1.802-.566 3.285-.987 4.361-1.248a7.935 7.935 0 011.541-.392z" fill="#D0CFD3"/><path d="M421.64 448.366c-.134.165-.28.32-.436.465l-1.323 1.234-4.913 4.471-16.339 14.517c-6.381 5.676-11.905 11.105-15.743 15.185a228.857 228.857 0 00-4.448 4.921l-1.192 1.35c-.276.305-.422.465-.451.45.104-.186.226-.361.364-.522.247-.334.61-.813 1.105-1.452.973-1.234 2.442-2.904 4.36-5.052a210.477 210.477 0 0115.656-15.359 2225.802 2225.802 0 0116.499-14.43l5.044-4.355 1.454-1.147c.113-.101.235-.194.363-.276z" fill="#D0CFD3"/><path d="M391.698 474.86c-.174-.073 1.163-3.151 2.5-7.041 1.338-3.891 1.963-7.172 2.137-7.157a23.6 23.6 0 01-1.584 7.346 47.864 47.864 0 01-1.992 4.935 7.583 7.583 0 01-1.061 1.917zm-17.677 24.824a7.495 7.495 0 01-.988-1.132l-2.515-3.238c-2.122-2.729-5.044-6.503-8.329-10.641-3.285-4.137-6.309-7.839-8.489-10.525l-2.588-3.193a8.85 8.85 0 01-.886-1.205c.39.314.746.669 1.061 1.06.654.711 1.599 1.756 2.733 3.063a358.965 358.965 0 018.634 10.423c3.3 4.137 6.163 7.97 8.199 10.771 1.017 1.452 1.831 2.541 2.369 3.339.315.394.584.822.799 1.278z" fill="#D0CFD3"/><path d="M366.156 489.595a14.29 14.29 0 01-3.3-6.156 17.373 17.373 0 01-.741-6.213h.261c-.116.479-.203.726-.247.726-.044 0 0-.276 0-.77h.262a28.788 28.788 0 001.046 6.04 43.939 43.939 0 002.719 6.373zm-10.157-12.761a10.843 10.843 0 00-2.297-1.335 15.401 15.401 0 00-6.396-.509 38.477 38.477 0 00-6.425 1.046c-.871.271-1.76.484-2.66.638a9.344 9.344 0 012.544-1.045 29.318 29.318 0 016.498-1.219c2.225-.304 4.49-.06 6.599.711a4.077 4.077 0 012.137 1.713zm-2.429-3.092c0 .102-1.338-.537-3.518-1.277a35.283 35.283 0 00-17.764-1.35c-2.282.406-3.648.827-3.692.726.298-.169.615-.301.945-.392a19.178 19.178 0 012.66-.741 31.12 31.12 0 019.1-.638 31.57 31.57 0 018.896 2.003c.86.326 1.7.704 2.515 1.132.596.319.858.508.858.537zm20.349-13.08a72.64 72.64 0 01-2.573-8.913 71.225 71.225 0 01-1.992-9.073 144.65 144.65 0 014.565 17.986z" fill="#D0CFD3"/><path d="M374.108 460.662a42.995 42.995 0 00-2.907-5.328 22.988 22.988 0 00-4.201-4.355c0-.072.697.174 1.628.828a13.214 13.214 0 013.052 3.15 11.907 11.907 0 012.428 5.705zm-.118 117.544c-.073 0-.189-.987-.654-2.729a38.443 38.443 0 00-2.747-7.099 98.35 98.35 0 00-14.537-20.483c-3.256-3.702-6.41-7.259-9.085-10.554a75.232 75.232 0 01-6.498-9.364 44.065 44.065 0 01-3.27-6.939c-.305-.856-.524-1.524-.64-1.974a4.365 4.365 0 01-.174-.711s.349.929 1.032 2.613a50.473 50.473 0 003.416 6.808 78.331 78.331 0 006.556 9.218c2.689 3.325 5.814 6.794 9.099 10.511a92.716 92.716 0 0114.537 20.701 35.126 35.126 0 012.602 7.258c.189.901.305 1.583.363 2.062.02.227.02.455 0 .682zm32.419-36.568c-.537.36-1.101.68-1.686.958a37.572 37.572 0 00-4.361 2.903 50.715 50.715 0 00-5.814 5.284c-2.035 2.134-4.129 4.631-6.265 7.259-4.274 5.342-8.257 10.089-10.656 13.863a60.887 60.887 0 00-2.674 4.559 14.397 14.397 0 01-.931 1.713s0-.175.16-.479c.16-.305.291-.77.567-1.336a41.628 41.628 0 012.53-4.674 150.178 150.178 0 0110.538-14.024c2.152-2.671 4.26-5.168 6.338-7.258a48.962 48.962 0 015.931-5.241 30.886 30.886 0 014.55-2.773c.567-.275 1.032-.45 1.323-.58.144-.074.295-.132.45-.174zm.638 11.86c-1.183.26-2.383.434-3.591.523a46.956 46.956 0 00-8.518 1.669 25.588 25.588 0 00-7.631 4.007c-1.759 1.35-2.588 2.468-2.661 2.41-.072-.059.131-.334.524-.828a13.803 13.803 0 011.875-1.916 23.262 23.262 0 017.704-4.239 38.255 38.255 0 018.722-1.524 20.54 20.54 0 013.576-.102z" fill="#D0CFD3"/><path d="M385.698 560.8c-.189-.101 1.453-2.569 2.689-5.894 1.235-3.324 1.453-6.3 1.657-6.256a5.812 5.812 0 010 1.916 20.96 20.96 0 01-1.047 4.544 22.368 22.368 0 01-2.078 4.151 5.933 5.933 0 01-1.221 1.539zm31.22-51.027c-.185.118-.379.22-.581.305l-1.687.769c-.741.32-1.628.712-2.645 1.249-1.018.537-2.195 1.06-3.431 1.8l-1.962 1.118c-.683.377-1.352.842-2.064 1.292-1.454.871-2.908 1.96-4.434 3.063a81.102 81.102 0 00-9.26 8.129 83.85 83.85 0 00-7.835 9.523c-1.046 1.583-2.078 3.063-2.907 4.53-.436.726-.872 1.451-1.236 2.105l-1.046 2.003c-.698 1.248-1.207 2.453-1.686 3.484a43.842 43.842 0 00-1.163 2.686l-.713 1.713c-.07.203-.163.398-.276.58 0 0 0-.217.175-.624.174-.406.348-1.045.596-1.757a35.48 35.48 0 011.075-2.729c.465-1.045.931-2.264 1.614-3.542l1.017-2.032c.364-.697.8-1.452 1.207-2.134.814-1.452 1.846-2.991 2.907-4.587a79.492 79.492 0 017.85-9.64 82.062 82.062 0 019.361-8.158c1.57-1.089 3.038-2.163 4.506-3.02.727-.45 1.454-.9 2.094-1.292l1.991-1.074c1.25-.726 2.457-1.248 3.489-1.742a36.491 36.491 0 012.704-1.161l1.73-.668c.195-.086.4-.15.61-.189z" fill="#D0CFD3"/><path d="M391.249 526.946a4.21 4.21 0 011.454-2.105 9.004 9.004 0 015.698-2.177 15.635 15.635 0 015.974 1.176 8.483 8.483 0 012.268 1.088 12.84 12.84 0 01-2.399-.696 18.14 18.14 0 00-5.814-.973 9.341 9.341 0 00-5.437 1.902 17.09 17.09 0 00-1.744 1.785zm-3.825 3.949a22.04 22.04 0 001.614-5.226 21.748 21.748 0 00-.364-5.473c.328.429.557.925.669 1.452a10.862 10.862 0 01-.93 7.854c-.494.972-.945 1.437-.989 1.393zm-41.788 53.19c.872 15.664 5.611 31.604 12.879 47.717h31.631c6.934-15.968 11.339-31.864 12.124-47.717h-56.634z" fill="#D0CFD3"/><path d="M397.178 609.446c0 .16-10.408.291-23.258.291s-23.258-.131-23.258-.291c0-.159 10.408-.305 23.258-.305s23.258.146 23.258.305zm-.741 5.677c0 .16-9.769.291-21.805.291s-21.804-.131-21.804-.291c0-.16 9.754-.291 21.804-.291 12.051 0 21.805.131 21.805.291zm-37.422-20.745c.406 4.83.406 9.686 0 14.516a91.127 91.127 0 010-14.516z" fill="#FAFAFA"/><path d="M375.969 594.378a93.127 93.127 0 010 15.068 97.673 97.673 0 010-15.068zm15.917-.131c.388 5.118.388 10.257 0 15.374a96.942 96.942 0 010-15.374z" fill="#FAFAFA"/><path d="M401.264 594.379c0 .16-12.211.29-27.285.29s-27.285-.13-27.285-.29c0-.16 12.225-.306 27.285-.306s27.285.131 27.285.306z" fill="#FAFAFA"/><path d="M20.526 359.087a14.62 14.62 0 011.454-2.308c.93-1.452 2.253-3.281 3.765-5.328s2.907-3.861 4.026-5.153a12.688 12.688 0 011.847-1.989c-.444.791-.96 1.54-1.541 2.235l-3.881 5.227a759.125 759.125 0 01-3.91 5.226c-.51.757-1.1 1.458-1.76 2.09zm105.462 0a87.884 87.884 0 01-6.817-7.127 90.373 90.373 0 01-6.411-7.506 86.609 86.609 0 016.818 7.143 88.75 88.75 0 016.41 7.49z" fill="#D0CFD3"/><path d="M622.006 490.843h-70.85v4.486h70.85v-4.486z" fill="#CD294E"/><path d="M579.833 495.329l-28.68 139.101h-2.806l25.86-139.101h5.626zm10.103-.116l27.604 139.304 2.806.029-24.784-139.29-5.626-.043zm-8.038.116L566.155 634.43h2.253l18.185-139.101h-4.695z" fill="#2F3646"/><path d="M560.167 452.053l5.916 38.79h34.335l7.966-38.223-48.217-.567z" fill="#CD294F"/><path d="M603.595 476.907c0 .116-8.795.204-19.653.204-10.859 0-19.653-.088-19.653-.204 0-.116 8.794-.203 19.653-.203 10.858 0 19.653.101 19.653.203zm.121-1.902c0 .116-8.852.203-19.784.203-10.931 0-19.784-.087-19.784-.203 0-.116 8.926-.146 19.784-.146 10.859 0 19.784 0 19.784.146zm-.118-2.163c0 .116-8.852.203-19.784.203-10.931 0-19.784-.087-19.784-.203 0-.117 8.867-.189 19.784-.189 10.917 0 19.784.087 19.784.189zm-33.581 15.78a31.156 31.156 0 01-1.047-4.878 29.157 29.157 0 01-.654-4.95 62.45 62.45 0 011.701 9.828zm2.346-.407a36.34 36.34 0 01-.422-4.762 35.607 35.607 0 01-.232-4.776c.38 1.555.59 3.147.625 4.747.175 1.592.184 3.197.029 4.791zm4.254 0a23.172 23.172 0 01-.901-4.892 24.55 24.55 0 01-.262-4.95 40.52 40.52 0 01.669 4.907c.305 2.714.596 4.921.494 4.935zm2.981.203a25.215 25.215 0 01-.466-4.965 24.169 24.169 0 01.146-4.979 41.39 41.39 0 01.247 4.965c.123 1.657.147 3.319.073 4.979zm5.293-.203a54.79 54.79 0 01-.32-9.436c.258 1.554.38 3.128.363 4.704a27.294 27.294 0 01-.043 4.732zm3.869.203a28.184 28.184 0 01-.16-4.877 30.418 30.418 0 01.233-4.864 29 29 0 01.232 4.893 29.449 29.449 0 01-.305 4.848zm3.614-.493a35.444 35.444 0 01.291-5.096c.115-1.706.368-3.4.756-5.066a31.019 31.019 0 01-.291 5.096 31.747 31.747 0 01-.756 5.066zm4.685-.537a16.755 16.755 0 01.567-4.355 17.784 17.784 0 011.279-4.181 37.676 37.676 0 01-.887 4.268 42.984 42.984 0 01-.959 4.268z" fill="#FAFAFA"/><path d="M593.745 375.52v.189l-.159.551-.655 2.091c-.29.9-.639 2.018-1.003 3.31-.363 1.292-.828 2.772-1.235 4.427-.407 1.655-.916 3.455-1.337 5.401-.422 1.945-.887 4.05-1.323 6.242a173.383 173.383 0 00-2.108 14.517c-.523 5.197-.741 10.162-.8 14.618v6.388c0 2.032.146 3.861.248 5.56.101 1.698.232 3.223.334 4.573.102 1.35.218 2.511.334 3.455.117.943.175 1.64.218 2.177v.566l-.087-.551a103.55 103.55 0 00-.305-2.178 66.78 66.78 0 01-.393-3.455c-.116-1.35-.305-2.903-.407-4.573-.101-1.669-.247-3.571-.29-5.574a399.553 399.553 0 01-.102-6.402c0-4.5.276-9.451.77-14.633.494-5.183 1.294-10.075 2.152-14.517.45-2.207.872-4.355 1.351-6.257.48-1.902.945-3.76 1.454-5.4.509-1.641.901-3.121 1.294-4.355.392-1.234.756-2.41 1.075-3.296l.727-2.076.204-.537.043-.261z" fill="#CD294E"/><path d="M587.609 399.531a12.764 12.764 0 015.335-6.736 3.045 3.045 0 012.82-.508c1.206.566 1.294 2.25.945 3.542a9.38 9.38 0 01-3.896 5.284 7.93 7.93 0 01-5.814 1.452m-1.545 13.182a21.512 21.512 0 016.338-10.162 4.367 4.367 0 011.454-.77 1.69 1.69 0 011.541.334 2.334 2.334 0 01.334 2.221 13.473 13.473 0 01-10.016 10.075m-.215 12.586a19.423 19.423 0 016.396-8.027 2.994 2.994 0 012.224-.799c1.221.218 1.759 1.699 1.657 2.904-.218 2.526-2.151 4.558-4.142 6.126a26.055 26.055 0 01-5.917 3.034m.103 7.026a19.079 19.079 0 015.436-6.199 4.08 4.08 0 011.643-.726 1.7 1.7 0 011.599.61c.538.798 0 1.887-.567 2.656a15.498 15.498 0 01-7.762 5.691m-.624-6.213a60.626 60.626 0 00-7.777-7.912c-.436-.363-1.003-.755-1.541-.581a1.135 1.135 0 00-.712 1.046c-.004.447.095.889.291 1.292a15.055 15.055 0 0010.015 8.419m-.016-15.62a1560.627 1560.627 0 01-6.12-7.432 7.386 7.386 0 00-1.977-1.888 2.564 2.564 0 00-2.617 0 2.484 2.484 0 00-.828 2.468 6.365 6.365 0 001.192 2.439 17.883 17.883 0 004.448 4.718 7.454 7.454 0 005.582 1.728m1.165-17.058a21.269 21.269 0 00-6.149-9.218 3.477 3.477 0 00-1.599-.944 2.693 2.693 0 00-2.806 1.975 5.022 5.022 0 00.553 4.035 10.585 10.585 0 002.907 3.034 24.7 24.7 0 006.803 3.673m2.733-15.968c-.596-4.356-2.907-7.898-5.451-11.396-.538-.726-1.308-1.452-2.224-1.365a1.748 1.748 0 00-1.265 1.089 4.053 4.053 0 00-.247 1.728 13.3 13.3 0 002.559 7.268 13.324 13.324 0 006.163 4.635m2.179-8.797a35.495 35.495 0 01-.232-6.678 11.925 11.925 0 012.224-6.213 5.095 5.095 0 012.209-1.757 2.803 2.803 0 012.733.363 2.898 2.898 0 01.931 2.381 7.5 7.5 0 01-.684 2.555c-1.628 3.92-4.36 8.246-7.181 9.349z" fill="#CD294E"/><path d="M563.566 392.621c.022.183.022.369 0 .552v4.036c0 1.03 0 2.061.116 3.28.116 2.425.349 5.299.712 8.493.364 3.193.945 6.678 1.701 10.307.756 3.629 1.672 7.026 2.588 10.162a94.216 94.216 0 002.776 8.071c.407 1.147.843 2.149 1.206 3.049.364.9.684 1.655.96 2.279l.61 1.451c.088.165.152.341.189.523a3 3 0 01-.261-.479c-.175-.363-.393-.827-.683-1.452-.291-.624-.655-1.379-1.018-2.264-.363-.886-.843-1.888-1.279-3.034-.916-2.251-1.89-4.994-2.907-8.057-1.018-3.063-1.861-6.504-2.646-10.162-.785-3.658-1.279-7.142-1.657-10.336a97.249 97.249 0 01-.625-8.536v-7.331a2.6 2.6 0 01.218-.552z" fill="#2F3646"/><path d="M564.526 410.303a9.034 9.034 0 012.181-5.734 2.184 2.184 0 011.817-.958c.93.13 1.366 1.263 1.454 2.206a6.743 6.743 0 01-1.454 4.442 5.63 5.63 0 01-3.663 2.251m1.742 9.275a15.254 15.254 0 012.122-8.289c.21-.33.487-.612.814-.827a1.193 1.193 0 011.119-.102 1.71 1.71 0 01.713 1.452 9.62 9.62 0 01-4.652 9.015m2.558 8.609a13.982 13.982 0 012.631-6.852c.145-.252.339-.472.572-.646.232-.175.497-.301.78-.37.872-.116 1.555.784 1.759 1.64a6.76 6.76 0 01-1.454 5.052 18.162 18.162 0 01-3.372 3.339m1.529 4.761a13.413 13.413 0 012.369-5.386c.249-.346.572-.634.945-.842a1.149 1.149 0 011.221.073c.552.421.436 1.277.204 1.931a11.041 11.041 0 01-4.071 5.531m-1.76-4.094a42.368 42.368 0 00-6.992-3.716 1.287 1.287 0 00-1.192 0 .848.848 0 00-.262.871c.103.301.266.577.48.813a10.779 10.779 0 008.635 3.571m-3.367-10.684l-5.815-3.76a5.003 5.003 0 00-1.744-.857 1.822 1.822 0 00-1.788.537 1.784 1.784 0 000 1.858 4.574 4.574 0 001.337 1.452 13.458 13.458 0 004.056 2.265 5.393 5.393 0 004.172 0m-2.88-11.919a15.276 15.276 0 00-6.178-4.965 2.688 2.688 0 00-1.294-.29 1.935 1.935 0 00-1.453 1.945 3.559 3.559 0 001.25 2.628 7.464 7.464 0 002.616 1.451c1.737.626 3.562.974 5.408 1.031m-1.585-11.381a17.628 17.628 0 00-6.163-6.591 1.903 1.903 0 00-1.803-.464 1.281 1.281 0 00-.64 1.03c-.02.417.049.833.204 1.22a9.527 9.527 0 008.475 6.242m-.379-6.533a25.069 25.069 0 01-1.584-4.5 8.483 8.483 0 01.16-4.703 3.852 3.852 0 011.134-1.684 1.992 1.992 0 011.933-.334 2.074 2.074 0 011.148 1.451c.146.619.175 1.259.087 1.888-.261 3.019-1.177 6.547-2.907 7.911" fill="#2F3646"/><path d="M606.971 392.243c.024.183.024.369 0 .552v7.317c-.073 2.438-.277 5.327-.625 8.536-.349 3.208-.916 6.706-1.672 10.336-.756 3.629-1.686 7.069-2.631 10.162-.945 3.092-1.948 5.806-2.907 8.056-.437 1.147-.887 2.149-1.265 3.035-.378.885-.727 1.64-1.032 2.264l-.683 1.452c-.073.167-.16.328-.262.479.046-.18.109-.355.189-.523l.625-1.451c.262-.625.596-1.379.959-2.28.364-.9.785-1.901 1.207-3.048a124.405 124.405 0 002.762-8.072 115.882 115.882 0 002.602-10.161 123.83 123.83 0 001.686-10.307c.392-3.18.611-6.069.712-8.493.087-1.219.088-2.323.117-3.281.029-.958 0-1.8 0-2.482v-1.553c0-.392.218-.538.218-.538z" fill="#CD294E"/><path d="M606.029 409.925a9.139 9.139 0 00-2.195-5.734 2.174 2.174 0 00-1.803-.958c-.944.145-1.366 1.263-1.453 2.206a6.767 6.767 0 001.453 4.443 5.634 5.634 0 003.649 2.25m-1.735 9.291a15.397 15.397 0 00-2.122-8.304 3.154 3.154 0 00-.814-.827 1.193 1.193 0 00-1.12-.102 1.65 1.65 0 00-.712 1.452 9.647 9.647 0 004.637 9.015m-2.551 8.652a14.114 14.114 0 00-2.616-6.852 2.193 2.193 0 00-1.352-1.016c-.872-.116-1.57.784-1.759 1.64a6.76 6.76 0 001.453 5.052 18.64 18.64 0 003.373 3.339m-1.53 4.703a13.64 13.64 0 00-2.369-5.386 2.915 2.915 0 00-.96-.841 1.192 1.192 0 00-1.221.072c-.538.421-.422 1.278-.189 1.931a11.006 11.006 0 004.056 5.531m1.761-4.08a43.174 43.174 0 017.007-3.716 1.263 1.263 0 011.177-.073.836.836 0 01.262.871 2.117 2.117 0 01-.48.813 10.745 10.745 0 01-8.634 3.571m3.384-10.611l5.814-3.76a5.541 5.541 0 011.759-.857 1.83 1.83 0 011.788.552 1.755 1.755 0 010 1.844 4.353 4.353 0 01-1.337 1.452 12.636 12.636 0 01-4.041 2.264 5.324 5.324 0 01-4.172 0m2.851-11.919a15.024 15.024 0 016.178-4.95 2.521 2.521 0 011.279-.305c.427.112.803.365 1.068.719.264.353.4.786.385 1.226a3.62 3.62 0 01-1.25 2.628 7.482 7.482 0 01-2.616 1.452 17.669 17.669 0 01-5.422 1.03m1.596-11.453a17.747 17.747 0 016.164-6.591 1.891 1.891 0 011.817-.45 1.195 1.195 0 01.625 1.016c.02.417-.049.832-.204 1.22a9.501 9.501 0 01-8.46 6.242m.381-6.46a26.27 26.27 0 001.584-4.5 8.484 8.484 0 00-.174-4.703 3.631 3.631 0 00-1.134-1.684 1.967 1.967 0 00-1.919-.334 2.09 2.09 0 00-1.163 1.451 5.495 5.495 0 00-.073 1.888c.262 3.019 1.178 6.547 2.908 7.911" fill="#CD294E"/><path d="M556.226 444.374v7.259a2.903 2.903 0 002.907 2.903h49.729a2.909 2.909 0 002.907-2.903v-7.259h-55.543z" fill="#CD294F"/><path opacity=".4" d="M560.542 454.492l.407 2.309 45.877 3.266 1.163-5.575h-47.447z" fill="#2F3646"/><path d="M70.66 522.852l-11.73 30.486s-34.974-1.655-37.693 3.76l58.407 24.824 20.22-46.774-29.203-12.296z" fill="#CD294F"/><path d="M78.076 558.506a2.596 2.596 0 01.495 3.426 2.504 2.504 0 01-3.402.508 2.728 2.728 0 01-.494-3.615 2.575 2.575 0 013.59-.145" fill="#D0CFD3"/><path opacity=".6" d="M79.649 581.951l1.846-4.791-56.692-22.007s-3.082 0-3.561 1.974l58.407 24.824z" fill="#fff"/><path d="M58.12 552.656c-.116.29 1.265 1.03 2.268 2.54s1.25 3.034 1.57 3.034c.32 0 .581-1.829-.683-3.644-1.265-1.814-3.111-2.206-3.155-1.93zm-7.21-.073c-.174.247.858 1.263 1.309 2.903.45 1.641.188 3.02.48 3.122.29.101 1.162-1.452.552-3.426-.61-1.975-2.21-2.86-2.34-2.599zm-6.603 5.85c.233.174 1.236-1.089 1.178-2.903-.058-1.815-1.134-3.049-1.367-2.904-.232.145.248 1.379.291 2.904.044 1.524-.363 2.758-.102 2.903zm17.257-12.441c0 .305 1.453.479 3.052 1.263 1.6.784 2.603 1.844 2.908 1.655.305-.188-.524-1.698-2.37-2.613-1.846-.914-3.634-.581-3.59-.305zm-.001-5.893l35.018 15.054 38.085-91.907 106.639 18.335 12.399-46.179-119.372-20.73s-27.619-1.089-31.021 6.286c-3.401 7.375-41.748 119.141-41.748 119.141zm311.904-222.168a4.2 4.2 0 01-.974.203c-.946.092-1.9.048-2.834-.13a13.825 13.825 0 01-8.504-5.734c-2.645-3.63-3.721-9.103-3.329-14.88.393-5.778 2.064-12.006 2.326-18.611a41.806 41.806 0 00-.174-4.878c-.233-1.582-.451-3.15-.814-4.674a77.293 77.293 0 00-2.53-8.71c-1.889-5.43-3.75-10.307-4.84-14.517a36.847 36.847 0 01-1.367-10.278c.002-.943.07-1.884.204-2.817a5.33 5.33 0 01.16-.972c.037.328.037.659 0 .987a25.184 25.184 0 000 2.802 40.079 40.079 0 001.584 10.162c1.149 4.195 3.053 9.029 4.986 14.516a77.534 77.534 0 012.602 8.711c.361 1.571.638 3.16.829 4.761.165 1.655.228 3.317.189 4.98-.277 6.735-2.05 12.905-2.384 18.625-.335 5.719.567 11.004 3.067 14.517a15.175 15.175 0 004.114 4.035 12.518 12.518 0 004.012 1.713c1.211.23 2.449.293 3.677.189z" fill="#2F3646"/><path d="M349.398 233.718c1.788.9 2.18 3.209 2.369 5.197 1.061 11.149.625 12.137 1.686 23.228.306 3.338.655 17.072.727 20.44.073 2.714 0 5.429.233 8.115.523 5.719 2.515 11.25 2.631 16.999.038.306-.008.617-.131.9-.232.349-.575.61-.974.74a12.09 12.09 0 01-6.716.77 5.988 5.988 0 01-2.442-.915c-2.108-1.451-2.296-4.457-2.311-7.026 0-20.919-1.381-41.824-2.747-62.699" fill="#2F3646"/><path d="M349.398 233.718c1.788.9 2.18 3.209 2.369 5.197 1.061 11.149.625 12.137 1.686 23.228.306 3.338.655 17.072.727 20.44.073 2.714 0 5.429.233 8.115.523 5.719 2.515 11.25 2.631 16.999.038.306-.008.617-.131.9-.232.349-.575.61-.974.74a12.09 12.09 0 01-6.716.77 5.988 5.988 0 01-2.442-.915c-2.108-1.451-2.296-4.457-2.311-7.026 0-20.919-1.381-41.824-2.747-62.699" fill="url(#paint0_linear)"/><path d="M344.188 305.274l-33.784 13.245-.368-26.922h0l-.006-.001-.028-.005a1.26 1.26 0 01-.113-.02 13.828 13.828 0 01-.444-.092 20.675 20.675 0 01-6.517-2.751c-3.563-2.314-7.153-6.384-7.295-13.485-.101-7.028.87-21.533 1.903-34.691a26.704 26.704 0 018.493-17.496 26.775 26.775 0 0118.119-7.115h1.439c7.439.423 13.039 3.901 16.636 9.12 3.607 5.235 5.215 12.249 4.583 19.735l-.001.01v.011l-2.617 60.457z" fill="#fff" stroke="#2F3646"/><path d="M309.844 292.076a35.489 35.489 0 0019.144-5.646s-4.492 10.524-19.028 9.232l-.116-3.586z" fill="#898D93"/><path d="M301.238 252.068a2.08 2.08 0 002.006 2.09 1.984 1.984 0 001.477-.488 1.99 1.99 0 00.675-1.399 2.078 2.078 0 00-2.021-2.09 1.971 1.971 0 00-1.471.488 1.981 1.981 0 00-.666 1.399zm-1.045-4.413c.261.275 1.846-.9 4.084-.9 2.239 0 3.896 1.117 4.143.842.247-.276-.145-.61-.857-1.133a5.915 5.915 0 00-3.315-1.016 5.593 5.593 0 00-3.256 1.06c-.683.537-.916 1.031-.799 1.147zm21.061 4.964a2.093 2.093 0 002.021 2.105 2.01 2.01 0 001.952-1.122c.117-.239.184-.499.199-.765a2.09 2.09 0 00-2.021-2.105 2.01 2.01 0 00-1.952 1.122 1.994 1.994 0 00-.199.765zm1.031-4.587c.262.261 1.832-.9 4.085-.9s3.896 1.118 4.128.842c.233-.276-.13-.61-.857-1.133a5.83 5.83 0 00-3.314-1.016 5.623 5.623 0 00-3.286 1.118c-.654.465-.886.958-.756 1.089zm-8.128 16.651a14.791 14.791 0 00-3.649-.653c-.567 0-1.119-.16-1.221-.552a2.971 2.971 0 01.393-1.699c.523-1.451 1.09-2.903 1.686-4.355 2.34-6.213 4.026-11.323 3.779-11.424-.247-.102-2.282 4.863-4.695 11.105-.567 1.539-1.105 2.991-1.613 4.355a3.187 3.187 0 00-.291 2.236 1.456 1.456 0 00.945.842c.317.088.644.132.974.13 1.225.162 2.465.167 3.692.015zm6.62 1.539c-.363 0-.363 2.409-2.442 4.152-2.078 1.742-4.68 1.451-4.709 1.8-.03.348.581.479 1.686.508a6.143 6.143 0 003.925-1.379 5.225 5.225 0 001.889-3.47c.088-1.016-.174-1.626-.349-1.611zm.897-27.321c.233.61 2.471.319 5.102.624 2.632.305 4.783 1.031 5.132.479.145-.261-.218-.827-1.09-1.452a8.919 8.919 0 00-7.777-.842c-.974.421-1.454.901-1.367 1.191zm-21.452 2.395c.392.509 1.948 0 3.808 0 1.861 0 3.431.349 3.794-.188.16-.262-.087-.77-.785-1.249a5.197 5.197 0 00-3.081-.828 5.323 5.323 0 00-3.039 1.031c-.654.465-.872.988-.697 1.234z" fill="#2F3646"/><path d="M298.433 233.878s3.838-9.146 8.242-11.294c5.35-2.599 7.661 3.266 12.749 1.829 5.087-1.437 9.695-3.165 15.394 0 5.698 3.165 2.631 4.268 3.953 10.612 1.323 6.344 5.015 24.33 7.094 24.49 1.367.102 3.3-7.955 4.477-13.588 1.17-5.4.925-11.01-.712-16.288-1.454-4.442-3.939-7.505-8.504-10.888-7.181-5.313-17.051-5.415-23.738-4.732-6.686.682-19.595 8.347-18.955 19.859z" fill="#2F3646"/><path d="M298.433 233.878s3.838-9.146 8.242-11.294c5.35-2.599 7.661 3.266 12.749 1.829 5.087-1.437 9.695-3.165 15.394 0 5.698 3.165 2.631 4.268 3.953 10.612 1.323 6.344 5.015 24.33 7.094 24.49 1.367.102 3.3-7.955 4.477-13.588 1.17-5.4.925-11.01-.712-16.288-1.454-4.442-3.939-7.505-8.504-10.888-7.181-5.313-17.051-5.415-23.738-4.732-6.686.682-19.595 8.347-18.955 19.859z" fill="url(#paint1_linear)"/><path d="M345.542 256.277l.009-.243.133-.032c.277-.066.662-.145 1.118-.207.917-.125 2.093-.178 3.238.063 1.14.24 2.225.764 3.012 1.778.789 1.015 1.327 2.582 1.254 4.999-.074 2.412-.727 4.022-1.618 5.096-.892 1.076-2.061 1.662-3.249 1.954-1.192.292-2.386.283-3.286.181a7.62 7.62 0 01-1.063-.19l-.055-.015.012-.362a2410.26 2410.26 0 01.244-6.571l.188-4.857.063-1.594z" fill="#fff" stroke="#2F3646"/><path d="M346.808 266.294s.175.131.466.276a1.76 1.76 0 001.308 0 4.362 4.362 0 002.108-3.803 5.798 5.798 0 00-.422-2.497 2.01 2.01 0 00-1.265-1.379.9.9 0 00-1.046.45c-.131.276-.073.479-.131.493-.058.015-.218-.174-.116-.58.061-.248.204-.468.407-.625a1.28 1.28 0 01.974-.217 2.436 2.436 0 011.773 1.597c.405.876.585 1.838.523 2.801a4.536 4.536 0 01-2.674 4.239 1.857 1.857 0 01-1.585-.319c-.305-.189-.349-.421-.32-.436z" fill="#898D93"/><path d="M319.886 222.671s3.707-11.077 14.391-9.538c18.81 2.729 48.609 35.48 53.392 40.401 4.782 4.921.087 11.076-6.149 5.56-6.236-5.516-26.166-23.227-32.256-27.698-6.091-4.472-24.261-13.371-29.378-8.725z" fill="#2F3646"/><path d="M319.886 222.671s3.707-11.077 14.391-9.538c18.81 2.729 48.609 35.48 53.392 40.401 4.782 4.921.087 11.076-6.149 5.56-6.236-5.516-26.166-23.227-32.256-27.698-6.091-4.472-24.261-13.371-29.378-8.725z" fill="url(#paint2_linear)"/><path d="M375.748 252.17a20.59 20.59 0 01-2.151-1.321c-1.381-.871-3.401-2.076-5.945-3.499-2.544-1.423-5.611-3.02-8.955-4.95a168.722 168.722 0 01-10.626-6.707c-3.678-2.512-7.064-5.081-10.175-7.259a33.643 33.643 0 00-8.867-4.834 17.605 17.605 0 00-6.716-.958c-1.614.101-2.471.377-2.501.305a2.23 2.23 0 01.626-.233 9.562 9.562 0 011.86-.363c2.324-.232 4.67.02 6.89.741a32.862 32.862 0 019.115 4.761c3.154 2.236 6.527 4.791 10.175 7.259a232.067 232.067 0 0010.539 6.736l8.867 5.095c2.53 1.452 4.506 2.759 5.815 3.702l1.453 1.118c.436.232.611.378.596.407z" fill="#2F3646"/><path d="M375.376 249.745a17.49 17.49 0 01-1.933-1.757 226.4 226.4 0 00-5.233-4.848c-4.463-4.021-10.902-9.277-18.098-15.011a48.833 48.833 0 00-10.684-7.084 13.695 13.695 0 00-5.364-1.234 29.352 29.352 0 00-4.87.174 28.503 28.503 0 00-6.89 1.597c-1.555.61-2.311 1.161-2.355 1.089.155-.163.331-.305.524-.421.542-.365 1.116-.68 1.715-.944a26.32 26.32 0 016.934-1.858 28.396 28.396 0 014.971-.261c1.933.03 3.841.444 5.611 1.219a47.97 47.97 0 0110.873 7.143c7.268 5.719 13.606 11.061 17.996 15.199a111.314 111.314 0 015.073 5.023 24.087 24.087 0 011.309 1.451c.161.157.302.332.421.523z" fill="#898D93"/><path d="M381.027 248.395s-.64-.726-2.036-1.742c-1.395-1.016-3.561-2.279-6.047-4.152a149.815 149.815 0 01-8.46-6.895c-3.081-2.701-6.425-5.735-10.059-8.711a76.305 76.305 0 00-10.815-7.65 30.351 30.351 0 00-5.189-2.512 20.572 20.572 0 00-4.87-1.074 21.976 21.976 0 00-7.268.537c-1.672.436-2.559.813-2.588.741.195-.132.405-.239.625-.32.611-.27 1.237-.502 1.876-.696a20.74 20.74 0 0112.37.217 30.782 30.782 0 015.32 2.497 72.936 72.936 0 0110.961 7.68c3.663 3.019 6.977 6.082 10.044 8.797 3.067 2.715 5.815 5.11 8.315 6.997 2.5 1.887 4.55 3.237 5.916 4.355a11.27 11.27 0 011.454 1.452c.175.135.327.296.451.479z" fill="#898D93"/><path d="M357.568 237.42a46.895 46.895 0 00-4.506-4.239 73.9 73.9 0 00-12.894-7.476 29.333 29.333 0 00-7.704-2.657 24.526 24.526 0 00-6.643-.261 43.712 43.712 0 00-6.048 1.22 6.157 6.157 0 011.527-.683 21.13 21.13 0 014.462-1.074 23.085 23.085 0 016.818.116 28.24 28.24 0 017.908 2.657 64.22 64.22 0 0112.923 7.752 22.544 22.544 0 013.212 3.252c.385.413.703.883.945 1.393z" fill="#898D93"/><path d="M347.015 254.405s-.32-.276-.741-.915a15.389 15.389 0 01-1.454-2.903 33.093 33.093 0 01-1.715-10.394 54.259 54.259 0 00-1.032-10.336 10.957 10.957 0 00-1.846-3.818 6.168 6.168 0 012.369 3.672 44.519 44.519 0 011.265 10.453 39.04 39.04 0 001.453 10.249c.843 2.555 1.817 3.919 1.701 3.992zm2.526.784a17.565 17.565 0 01-.872-3.731c-.407-2.323-.858-5.56-1.148-9.16-.291-3.6-.378-6.867-.349-9.233a17.95 17.95 0 01.232-3.818c.219 1.261.316 2.539.291 3.818.116 2.352.276 5.589.582 9.175.305 3.585.654 6.808.93 9.145.221 1.256.333 2.529.334 3.804zm.377 40.56a15.282 15.282 0 01-.581-3.716 81.268 81.268 0 01-.32-9.058c.06-3.025.283-6.044.669-9.044.097-1.252.336-2.489.712-3.688a20.14 20.14 0 01-.174 3.746 165.27 165.27 0 00-.451 9c-.073 3.513 0 6.707.102 9.015.117 1.245.132 2.498.043 3.745zm-44.562-76.127a3.58 3.58 0 012.079-1.045 10.89 10.89 0 015.611.334c2.093.624 3.896 1.379 5.219 1.902 1.322.522 1.977 1.306 1.875 1.364a14.836 14.836 0 00-2.064-.871c-1.352-.392-3.198-1.06-5.233-1.669a12.586 12.586 0 00-5.306-.537c-1.352.261-2.122.638-2.181.522zm11.246-4.746a5.17 5.17 0 013.721-.102 5.077 5.077 0 013.212 1.858c-.13.174-1.453-.653-3.401-1.132-1.948-.479-3.503-.406-3.532-.624z" fill="#898D93"/><path d="M238.543 630.945l-52.054 3.601h122.817l-46.836-3.601h-23.927z" fill="#D0CFD3"/><path d="M215.797 490.102v-36.641a24.658 24.658 0 017.238-17.45 24.729 24.729 0 0117.474-7.228h64.526l47.68-85.752h25.235a11.301 11.301 0 019.684 5.451 11.262 11.262 0 01.317 11.098l-68.626 130-103.528.522z" fill="#CD294E"/><path d="M262.469 539.46h-23.941v91.486h23.941V539.46z" fill="#D0CFD3"/><path d="M253.704 506.143h-6.396v38.847h6.396v-38.847z" fill="#D0CFD3"/><path d="M319.351 509.366H196.577a11.088 11.088 0 01-7.833-3.24 11.04 11.04 0 01-3.244-7.822c0-2.935 1.167-5.75 3.243-7.827a11.096 11.096 0 017.834-3.249h122.73l.044 22.138z" fill="#CD294E"/><path d="M262.469 539.46c-3.976.374-7.971.5-11.963.377a96.753 96.753 0 01-11.978-.377 93.181 93.181 0 0111.978-.378 92.949 92.949 0 0111.963.378z" fill="#2F3646"/><path d="M363.498 314.156c-3.707-10.379-10.466-16.694-21.325-18.581-1.366-.233-30.729 6.039-30.729 6.039l-95.344 73.63-70.196 17.217a49.438 49.438 0 00-17.982 8.565l-18.01 10.888c-7.661 5.806-10.859 14.444-14.071 23.488l-26.282 73.644s31.224 9.059 55.383 3.528c24.16-5.531 16.63-16.709 41.298-22.937 24.668-6.227 18.636 2.817 51.866-2.206 33.23-5.023 3.532-28.163 26.165-28.671 22.633-.508 1.003 6.518 30.715 10.554 29.713 4.035 48.334-38.906 70.502-39.574 22.168-.667 46.952-2.671 46.952-2.671l-28.942-112.913z" fill="#CD294F"/><path d="M178.656 468.69c-.203 0-1.381-9.581-2.631-21.442-1.25-11.86-2.108-21.499-1.89-21.514.219-.014 1.381 9.567 2.632 21.442 1.25 11.875 2.107 21.485 1.889 21.514z" fill="#2F3646"/><path d="M106.583 491.423a25.402 25.402 0 00-3.779-2.744 20.608 20.608 0 00-10.888-2.206 55.88 55.88 0 00-11.135 2.061c-1.12.241-2.222.556-3.3.944a5.602 5.602 0 00-1.031.668s.16-.494.901-.929a17.926 17.926 0 013.285-1.191 46.82 46.82 0 0111.237-2.308 19.78 19.78 0 0111.178 2.511 11.839 11.839 0 012.733 2.178c.33.283.602.629.799 1.016zm42.026-12.876a9.01 9.01 0 01-1.221 1.452 125.84 125.84 0 01-3.62 3.861 57.665 57.665 0 01-13.722 10.815 28.688 28.688 0 01-17.095 3.412 19.13 19.13 0 01-5.131-1.452c-.581-.232-.988-.508-1.294-.653-.305-.145-.421-.262-.407-.291a28.558 28.558 0 006.905 1.829 29.301 29.301 0 0016.688-3.469 62.997 62.997 0 0013.693-10.525l3.779-3.687c.431-.477.909-.91 1.425-1.292zm27.746-18.204c0 .145-1.657-.276-4.361-.32a24.276 24.276 0 00-4.652.392 25.023 25.023 0 00-10.378 4.559 24.032 24.032 0 00-3.431 3.164c-1.773 1.989-2.558 3.484-2.689 3.412.102-.386.264-.753.479-1.089.209-.413.447-.811.713-1.191a15.22 15.22 0 011.09-1.451 22.07 22.07 0 013.416-3.368 23.466 23.466 0 0110.67-4.689 21.636 21.636 0 014.797-.247c.614.031 1.225.099 1.831.203.457.061.908.153 1.352.276.403.056.796.173 1.163.349zm57.084-11.295s0 .218-.233.624c-.232.407-.436.973-.799 1.713a60.702 60.702 0 01-3.416 6.054 34.344 34.344 0 01-6.76 7.839 27.629 27.629 0 01-11.425 5.488 51.22 51.22 0 01-12.632 1.176 44.62 44.62 0 01-10.263-1.336 30.32 30.32 0 01-6.527-2.468 16.324 16.324 0 01-1.643-.958 3.17 3.17 0 01-.537-.392c0-.072.814.407 2.296 1.074 2.097.956 4.283 1.7 6.527 2.222a47.341 47.341 0 0010.176 1.161 51.79 51.79 0 0012.443-1.219 27.44 27.44 0 0011.149-5.285 35.188 35.188 0 006.759-7.592c1.643-2.41 2.791-4.486 3.605-5.909.371-.762.798-1.494 1.28-2.192zm22.576-8.753a16.558 16.558 0 00-2.747-1.728 15.01 15.01 0 00-7.617-.667 44.915 44.915 0 00-10.612 3.193 9.262 9.262 0 012.835-1.713 26.409 26.409 0 017.675-2.221c2.68-.47 5.439-.147 7.937.929a6.638 6.638 0 011.991 1.452c.407.479.567.726.538.755zm56.855-14.909a2.195 2.195 0 01-.189.653 69.537 69.537 0 00-.712 1.815 33.443 33.443 0 01-3.344 6.329 37.617 37.617 0 01-7.137 7.912 38.225 38.225 0 01-11.309 6.503 36.682 36.682 0 01-12.88 2.12 38.26 38.26 0 01-10.524-1.612 33.946 33.946 0 01-6.628-2.787 17.431 17.431 0 01-1.672-1.002 2.413 2.413 0 01-.538-.391l2.355 1.132a37.74 37.74 0 006.628 2.526 39.151 39.151 0 0010.394 1.452c4.293.022 8.557-.7 12.603-2.134a38.479 38.479 0 0018.258-13.995 36.253 36.253 0 003.517-6.17l.843-1.742c.086-.216.198-.421.335-.609zm74.568-17.9a2.757 2.757 0 01-.799-.087l-2.239-.435-8.228-1.67c-6.919-1.335-16.644-3.252-27.415-2.41a52.566 52.566 0 00-25.802 8.623 38.213 38.213 0 00-6.309 5.43c-1.337 1.452-2.02 2.323-2.079 2.279.113-.242.26-.467.436-.668.449-.628.935-1.229 1.454-1.8a35.52 35.52 0 016.236-5.676c5.713-4.268 15.162-8.13 26.049-8.943 10.888-.813 20.671 1.176 27.619 2.643 3.475.769 6.266 1.451 8.184 1.916l2.224.551c.228.068.452.151.669.247zm-275.642 55.02a23.926 23.926 0 00-2.704-2.526 22.825 22.825 0 00-8.213-3.252 22.826 22.826 0 00-8.823-.668 24.116 24.116 0 00-3.533 1.045s.248-.275.815-.595a9.242 9.242 0 012.616-.987 20.963 20.963 0 019.085.465 20.75 20.75 0 018.388 3.571 9.64 9.64 0 011.904 2.032c.218.269.376.58.465.915zm41.17-10.873a9.668 9.668 0 01-1.018 1.625 40.173 40.173 0 01-3.358 4.022 43.622 43.622 0 01-14.187 9.784 42.498 42.498 0 01-9.129 2.758 26.926 26.926 0 01-7.791.508 10.178 10.178 0 01-4.957-1.756 6.753 6.753 0 01-1.061-.973c-.204-.261-.306-.406-.277-.421.03-.015.48.494 1.454 1.147a10.612 10.612 0 004.855 1.452 27.917 27.917 0 007.603-.654 44.182 44.182 0 008.969-2.772 46.434 46.434 0 0014.1-9.465c3.198-3.107 4.797-5.386 4.797-5.255z" fill="#fff"/><path d="M116.975 442.312a16.894 16.894 0 01-.393 2.323c-.349 1.626-.785 3.745-1.323 6.3a784.78 784.78 0 00-4.084 20.803c-1.483 8.144-2.646 15.562-3.475 20.934-.392 2.584-.726 4.718-.974 6.344a14.777 14.777 0 01-.436 2.322c-.023-.786.026-1.574.146-2.351.145-1.452.392-3.702.741-6.388.683-5.4 1.773-12.833 3.256-20.991 1.483-8.159 3.053-15.505 4.361-20.789a232.452 232.452 0 011.555-6.242c.142-.772.351-1.529.626-2.265z" fill="#2F3646"/><path opacity=".3" d="M118.229 494.08c-.639-14.894-1.584-28.293-2.907-43.159l-.174-.929c-3.547 17.246-7.923 33.549-8.272 50.809a7.779 7.779 0 00.582 3.789c1.642 3.093 6.716 2.439 8.809-.363 2.093-2.801 2.108-6.648 1.962-10.147z" fill="#2F3646"/><path d="M149.174 487.228c-.218 0 1.585-16.303 3.998-36.293 2.413-19.989 4.564-36.292 4.767-36.292.204 0-1.584 16.303-4.012 36.365-2.427 20.062-4.549 36.249-4.753 36.22z" fill="#2F3646"/><path d="M175.556 442.138c0 .116-1.221-.392-3.212-.813a21.116 21.116 0 00-15.234 2.628c-1.73 1.074-2.675 1.945-2.762 1.843a8.326 8.326 0 012.471-2.279 19.028 19.028 0 017.53-3.077 18.795 18.795 0 018.111.377 8.408 8.408 0 013.096 1.321zM237 420.885a2.172 2.172 0 01-.261.683 41.202 41.202 0 01-.96 1.887 56.91 56.91 0 01-4.172 6.562 58.721 58.721 0 01-7.733 8.565 30.961 30.961 0 01-5.553 4.035 33.671 33.671 0 01-6.817 2.773 57.964 57.964 0 01-25.497 1.553 52.556 52.556 0 01-7.559-1.8c-.887-.261-1.541-.537-2.006-.711a3.452 3.452 0 01-.669-.29c.931.175 1.849.413 2.748.711 2.49.676 5.019 1.2 7.573 1.568a60.07 60.07 0 0025.206-1.757 33.899 33.899 0 006.672-2.7 29.844 29.844 0 005.437-3.905 60.48 60.48 0 007.777-8.362 77.177 77.177 0 004.361-6.387c.916-1.568 1.41-2.454 1.453-2.425zm18.548-5.676a19.218 19.218 0 00-2.616-1.335 15.516 15.516 0 00-7.036-.363 15.909 15.909 0 00-6.657 2.294 24.042 24.042 0 00-2.239 1.93 5.056 5.056 0 011.919-2.366 14.411 14.411 0 016.875-2.598 14.09 14.09 0 017.269.595 4.719 4.719 0 012.485 1.843zm57.317-19.583a2.79 2.79 0 01-.349.566c-.262.348-.625.885-1.134 1.539a73.415 73.415 0 01-4.55 5.342 55.856 55.856 0 01-18.679 13.574 36.858 36.858 0 01-22.88 2.076 26.708 26.708 0 01-6.556-2.555 16.66 16.66 0 01-1.642-1.002 2.91 2.91 0 01-.524-.407 34.562 34.562 0 0031.312 1.191 58.017 58.017 0 0018.591-13.24 109.694 109.694 0 004.71-5.168 16.544 16.544 0 011.701-1.916zm68.193-11.367a2.415 2.415 0 01-.727-.203l-2.05-.653c-1.759-.61-4.361-1.452-7.472-2.497a83.345 83.345 0 00-25.496-4.094 50.093 50.093 0 00-24.712 6.344 39.903 39.903 0 00-6.352 4.587 27.344 27.344 0 01-2.152 1.931c.133-.21.289-.405.465-.581.335-.363.8-.929 1.454-1.568a34.703 34.703 0 016.28-4.819 48.96 48.96 0 0125.046-6.649 79.309 79.309 0 0125.656 4.355 130.428 130.428 0 017.414 2.729l1.991.828c.23.068.45.165.655.29z" fill="#fff"/><path d="M314.977 435.33a4.316 4.316 0 01-.102-.784c0-.61-.102-1.35-.174-2.265-.131-2.061-.32-4.877-.538-8.303-.451-7.012-1.09-16.695-1.933-27.394a1696.515 1696.515 0 00-2.399-27.35c-.32-3.426-.581-6.227-.77-8.289 0-.914-.146-1.655-.189-2.25a3.329 3.329 0 010-.798 2.9 2.9 0 01.174.769c0 .595.189 1.35.32 2.25.262 1.945.61 4.762 1.017 8.26.8 6.983 1.774 16.651 2.617 27.35.843 10.699 1.454 20.324 1.715 27.422.146 3.514.247 6.359.291 8.319v2.264a2.93 2.93 0 01-.029.799zm-57.784-48.922c.037.23.037.466 0 .696v2.018c0 1.858 0 4.355-.087 7.389 0 6.243-.072 14.866.131 24.374.204 9.509.596 18.147.93 24.374.175 3.02.306 5.517.407 7.375 0 .799 0 1.452.088 2.018.041.23.041.466 0 .697a3.867 3.867 0 01-.131-.683c0-.551-.131-1.204-.218-2.003-.189-1.742-.407-4.253-.64-7.374-.48-6.228-.959-14.851-1.163-24.375a487.374 487.374 0 01.087-24.417c.102-3.121.218-5.647.32-7.389 0-.799.102-1.452.146-2.004a2.36 2.36 0 01.13-.696z" fill="#2F3646"/><path opacity=".3" d="M257.772 452.445a17.104 17.104 0 007.984 9.57 17.146 17.146 0 0012.367 1.623 4.833 4.833 0 002.093-1.046 4.969 4.969 0 001.279-2.555c1.599-6.808-1.599-13.733-4.724-19.989l-12.603-25.231c-2.908-5.807-6.644-14.052-7.269-20.469l.873 58.097z" fill="#2F3646"/><path d="M239.856 382.081c.203 0-.901 16.274-2.471 36.293s-3.009 36.292-3.213 36.292c-.203 0 .901-16.259 2.471-36.292 1.57-20.034 3.009-36.307 3.213-36.293z" fill="#2F3646"/><path opacity=".3" d="M174.511 428.26a262.697 262.697 0 0013.955 47.746 13.202 13.202 0 011.177 4.355 4.246 4.246 0 01-1.89 3.876 6.264 6.264 0 01-3.154.508 3.19 3.19 0 01-1.517.039 3.185 3.185 0 01-2.269-1.881 3.197 3.197 0 01-.241-1.497c-2.136-17.725-3.924-35.218-6.061-52.928" fill="#2F3646"/><path d="M94.108 640.097H4.361a4.354 4.354 0 110-8.71h89.747a17.454 17.454 0 0011.058-4.026 17.402 17.402 0 004.16-21.737 17.437 17.437 0 00-8.793-7.815l-83.467-33.098a4.36 4.36 0 01-.118-8.066 4.373 4.373 0 013.345-.049l83.467 33.113a26.157 26.157 0 0113.204 11.723 26.103 26.103 0 01-6.251 32.624 26.19 26.19 0 01-16.605 6.027v.014z" fill="#D0CFD3"/><path d="M384.101 242.746c2.385 1.28 5.229 2.782 7.042 3.659a9.086 9.086 0 014.088 4.194l-1.199-.274a370.96 370.96 0 01-4.679-1.11c-1.694-.416-3.371-.848-4.601-1.207a18.324 18.324 0 01-1.431-.466 3.608 3.608 0 01-.157-.065l-.001-.005a1.015 1.015 0 00-.142-.329 2.918 2.918 0 00-.473-.538c-.387-.362-.958-.796-1.625-1.256-1.339-.924-3.134-1.997-4.805-2.883-.768-.407-1.197-.836-1.431-1.223a1.839 1.839 0 01-.273-1.09 2.41 2.41 0 01.259-.928l5.159 1.207.028.016.253.138.928.506c.783.426 1.865 1.013 3.06 1.654zm-1.09 4.652l.005.004-.005-.004z" fill="#fff" stroke="#2F3646"/><path d="M382.641 247.757s-.713.348-1.992 1.016a13.93 13.93 0 00-2.224 1.452 7.913 7.913 0 00-2.02 2.83c-.558.398-1.074.85-1.541 1.351a5.015 5.015 0 00-.625.871 2.296 2.296 0 000 1.03 23.622 23.622 0 001.308 4.98v.174a4.521 4.521 0 000 2.526 3.837 3.837 0 001.657 2.018l.175.101v.189c.114.58.385 1.117.785 1.553.442.525.928 1.01 1.453 1.452h-.087a42.137 42.137 0 006.469 2.381 4.37 4.37 0 001.657.145 5.499 5.499 0 001.599-.639 15.993 15.993 0 002.98-2.177l.174-.16.218.087 1.904.668 29.567 10.525 8.94 3.266 2.413.929c.285.099.562.221.829.363a3.264 3.264 0 01-.887-.218l-2.457-.798-9.012-3.049-29.654-10.307-1.905-.668.393-.087a17.657 17.657 0 01-3.14 2.279 6.096 6.096 0 01-1.831.712 4.872 4.872 0 01-1.963-.145 41.917 41.917 0 01-6.585-2.468 12.351 12.351 0 01-1.453-1.554 3.706 3.706 0 01-.916-1.988l.174.304a4.502 4.502 0 01-1.948-2.409 5.107 5.107 0 010-2.904v.073a23.706 23.706 0 01-1.279-5.139 2.455 2.455 0 01.16-1.307 4.45 4.45 0 01.712-.958 10.36 10.36 0 011.657-1.452l-.087.102a8.087 8.087 0 012.224-2.903 12.698 12.698 0 012.341-1.336 20.635 20.635 0 011.54-.639c.091-.031.183-.055.277-.072z" fill="#DADADA"/><path d="M471.824 131.479h0c-1.018 10.836-1.84 24.051-.801 32.132h0c1.022 8.045 4.585 12.647 7.862 15.243a18.252 18.252 0 004.388 2.582c.583.238 1.061.394 1.391.491.165.048.292.081.377.102l.095.022.021.004.005.001h0l.427.086-.027.436-1.002 16.074-.001.005c-.094 2.275.311 4.086 1.088 5.535.777 1.45 1.943 2.569 3.422 3.433 2.978 1.738 7.187 2.419 11.875 2.628a16.575 16.575 0 0011.714-4.146 16.536 16.536 0 005.529-11.114l-46.363-63.514zm0 0c.443-4.717 3.297-9.399 7.263-12.744 3.962-3.341 8.958-5.286 13.636-4.652l30.994 6.887-.254 4.826-5.276 69.197-46.363-63.514z" fill="#fff" stroke="#2F3646"/><path d="M475.674 144.12a2.073 2.073 0 001.948 2.163 2 2 0 001.495-.439 2.003 2.003 0 00.729-1.376 2.095 2.095 0 00-1.948-2.163 1.992 1.992 0 00-2.224 1.815zm-1.108-5.661c.247.276 1.86-.842 4.114-.77 2.253.073 3.866 1.249 4.113.987.247-.261-.116-.624-.828-1.161a5.67 5.67 0 00-3.285-1.132 5.56 5.56 0 00-3.286.958c-.712.508-.959.987-.828 1.118zm22.053 6.024a2.09 2.09 0 001.948 2.178 2.001 2.001 0 002.21-1.815 2.09 2.09 0 00-1.948-2.177 1.99 1.99 0 00-2.21 1.814zm.045-4.965c.262.276 1.875-.842 4.129-.769 2.253.072 3.866 1.248 4.113.987.247-.261-.116-.624-.828-1.162a5.672 5.672 0 00-3.285-1.117 5.425 5.425 0 00-3.286.943c-.712.552-.959 1.031-.843 1.118zm-8.682 16.462c-1.173-.413-4.324-.672-5.564-.769-.582-.087-1.12-.218-1.207-.61a3.024 3.024 0 01.436-1.684c.596-1.379 3.137-2.816 3.776-4.355 2.544-6.141 4.361-11.207 4.172-11.309-.189-.101-2.529 4.806-5.073 10.946l-3.703 4.355a3.352 3.352 0 00-.364 2.236 1.456 1.456 0 00.916.871c.315.103.643.157.974.16 1.224.205 4.399.258 5.637.159z" fill="#2F3646"/><path d="M486.173 181.994a43.257 43.257 0 0022.604-5.153s-5.814 11.236-22.691 9.218l.087-4.065zm2.927-21.946a4.033 4.033 0 013.887.727 3.691 3.691 0 011.355 2.566 2.369 2.369 0 01-1.346 2.328 2.765 2.765 0 01-2.809-.994 8.582 8.582 0 01-1.419-3.035 2.528 2.528 0 01-.166-.91.745.745 0 01.442-.7" fill="#DADADA"/><path d="M495.988 160.02c-.307-.194-1.666 1.8-4.357 2.064-2.691.265-4.716-1.402-4.926-1.122-.211.279.216.719 1.108 1.348a6.096 6.096 0 004.037 1.061 5.322 5.322 0 003.53-1.813c.604-.769.751-1.466.608-1.538zm.369-26.817c.204.61 2.457.392 5.088.799 2.631.406 4.753 1.176 5.117.638.16-.246-.189-.842-1.032-1.451a8.935 8.935 0 00-3.761-1.451 8.96 8.96 0 00-4.016.347c-.974.363-1.483.828-1.396 1.118zm-21.485-2.395c.378.523 1.948 0 3.809.073 1.86.072 3.43.45 3.808-.073.174-.247 0-.769-.741-1.277a5.526 5.526 0 00-6.135 0c-.683.45-.915.972-.741 1.277z" fill="#2F3646"/><path d="M466.067 116.683a10.15 10.15 0 01-3.619-10.554 11.507 11.507 0 018.097-7.926 13.505 13.505 0 0111.28 2.235 4.25 4.25 0 013.227-3.905 7.86 7.86 0 015.306.697 13.948 13.948 0 016.745 6.649 8.625 8.625 0 0115.161 1.103 27.523 27.523 0 001.454 3.383 4.36 4.36 0 003.532 1.713 11.498 11.498 0 015.698 2.264 14.52 14.52 0 015.815 11.178c-.117 11.004-3.547 16.637-3.867 27.19.038.702-.117 1.4-.451 2.018-1.017 1.452-3.401.755-4.782-.421-3.358-2.831-5.073-7.186-5.931-11.497-.858-4.312-.945-8.71-1.744-13.065v-.305a11.974 11.974 0 00-2.181-4.95 30.11 30.11 0 01-3.997 2.38 12.976 12.976 0 01-15.002-3.455 19.066 19.066 0 01-12.254 4.036c-4.361-.116-8.722-1.074-11.978-3.992a6.057 6.057 0 01-1.831-2.787 1.854 1.854 0 011.322-1.989z" fill="#2F3646"/><path d="M466.067 116.683a10.15 10.15 0 01-3.619-10.554 11.507 11.507 0 018.097-7.926 13.505 13.505 0 0111.28 2.235 4.25 4.25 0 013.227-3.905 7.86 7.86 0 015.306.697 13.948 13.948 0 016.745 6.649 8.625 8.625 0 0115.161 1.103 27.523 27.523 0 001.454 3.383 4.36 4.36 0 003.532 1.713 11.498 11.498 0 015.698 2.264 14.52 14.52 0 015.815 11.178c-.117 11.004-3.547 16.637-3.867 27.19.038.702-.117 1.4-.451 2.018-1.017 1.452-3.401.755-4.782-.421-3.358-2.831-5.073-7.186-5.931-11.497-.858-4.312-.945-8.71-1.744-13.065v-.305a11.974 11.974 0 00-2.181-4.95 30.11 30.11 0 01-3.997 2.38 12.976 12.976 0 01-15.002-3.455 19.066 19.066 0 01-12.254 4.036c-4.361-.116-8.722-1.074-11.978-3.992a6.057 6.057 0 01-1.831-2.787 1.854 1.854 0 011.322-1.989z" fill="url(#paint3_linear)"/><path d="M521.238 147.384l-.001-.175c.237-.07.607-.168 1.067-.252.812-.149 1.856-.245 2.883-.08 1.022.164 2.001.58 2.736 1.436.735.855 1.278 2.21 1.309 4.351.032 2.135-.485 3.583-1.231 4.569-.748.988-1.761 1.558-2.805 1.871-1.049.313-2.111.361-2.914.311a6.662 6.662 0 01-.948-.121l-.003-.001a582.545 582.545 0 01-.017-1.773l-.034-4.383-.032-4.331-.01-1.422z" fill="#fff" stroke="#2F3646"/><path d="M523.453 156.271s.16.102.422.218a1.45 1.45 0 001.163 0 3.822 3.822 0 001.73-3.484 5.2 5.2 0 00-.466-2.221 1.795 1.795 0 00-1.206-1.104.8.8 0 00-.916.436c-.116.261 0 .435-.102.45-.101.015-.203-.145-.131-.508a.902.902 0 01.349-.566 1.129 1.129 0 01.858-.247c.367.07.71.232.997.471.288.238.51.546.646.894a5.09 5.09 0 01.581 2.482 4.042 4.042 0 01-2.209 3.89 1.657 1.657 0 01-1.454-.217c-.247-.291-.291-.479-.262-.494z" fill="#DADADA"/><path d="M525.824 159.465c.077.23.174.454.29.667.233.465.538 1.104.916 1.888l.669 1.35c.124.287.339.526.61.682.302.12.621.194.945.218l4.361.668.611.087c.186.026.361.101.508.217a1.128 1.128 0 01.437.988c0 .406-.32.667-.669 1.001l-1.003.973-2.137 2.061-.552.538a1.445 1.445 0 00-.378.813c-.015.149-.015.3 0 .45v.392l.131.783c.174 1.06.363 2.134.552 3.252 0 .276.087.552.145.828.067.237.067.488 0 .726a1.088 1.088 0 01-1.177.624 4.02 4.02 0 01-.742-.334l-.785-.421-1.584-.828-1.614-.856-.407-.203a1.433 1.433 0 00-.508-.174 1.564 1.564 0 00-1.032.203l-4.129 2.163a5.66 5.66 0 01-.974.45 1.028 1.028 0 01-.857-.232 1.052 1.052 0 01-.378-.813c0-.291.116-.697.16-1.046.247-1.451.479-2.83.712-4.181a2.077 2.077 0 000-1.117 1.577 1.577 0 00-.305-.494l-.378-.363-1.454-1.365-1.352-1.306-.654-.639a1.523 1.523 0 01-.494-.639 1.116 1.116 0 01.45-1.292c.231-.117.484-.186.742-.203l.799-.116 2.908-.45 1.351-.203a1.456 1.456 0 001.062-.784c.668-1.699 1.192-3.063 1.584-4.021l.393-1.075c.054-.12.093-.247.116-.377a2.98 2.98 0 00-.175.348c-.116.276-.276.61-.465 1.045l-1.671 3.978a1.19 1.19 0 01-.887.624l-1.337.175-2.908.421-.814.101a2.274 2.274 0 00-.857.247 1.45 1.45 0 00-.625 1.699c.122.307.323.577.581.783l.654.639 1.352 1.321 1.454 1.452c.246.185.442.43.567.711.095.293.095.608 0 .9-.233 1.351-.48 2.744-.727 4.181 0 .378-.146.683-.175 1.118a1.453 1.453 0 00.524 1.147 1.447 1.447 0 001.235.334 5.003 5.003 0 001.09-.494l4.114-2.163c.222-.135.483-.192.742-.159a.845.845 0 01.363.13l.407.204 1.628.856 1.585.828.784.421c.273.153.56.28.858.377a1.456 1.456 0 001.657-.9c.117-.306.142-.639.073-.958 0-.276-.102-.552-.145-.828a491.754 491.754 0 00-.567-3.252c0-.261-.088-.522-.146-.783a3.478 3.478 0 01-.072-.726c.028-.22.119-.426.261-.596l.538-.522 2.108-2.076 1.003-.987c.175-.159.34-.329.494-.508a1.34 1.34 0 00.262-.712 1.447 1.447 0 00-.582-1.292 1.52 1.52 0 00-.639-.261l-.611-.087-4.361-.595c-1.453.101-1.628-1.38-2.122-2.076-.494-.697-.741-1.452-.974-1.859a5.817 5.817 0 00-.363-.696z" fill="#2F3646"/><path d="M469.043 107.421a12.223 12.223 0 013.242-.551 11.527 11.527 0 013.794.508 13.18 13.18 0 012.209.914c.783.434 1.515.955 2.181 1.554a10.16 10.16 0 011.889 2.235c.566.887.845 1.926.8 2.976a2.15 2.15 0 01-.596 1.452 1.751 1.751 0 01-1.454.537 2.721 2.721 0 01-2.355-2.163 5.057 5.057 0 01.8-3.542 8.047 8.047 0 012.747-2.758 9.929 9.929 0 017.966-1.133 7.637 7.637 0 013.532 2.149 3.98 3.98 0 011.134 3.614 2.905 2.905 0 01-2.907 1.931 3.224 3.224 0 01-2.98-1.727 4.355 4.355 0 01-.16-3.426 4.974 4.974 0 012.006-2.584 7.86 7.86 0 015.815-.886 10.46 10.46 0 014.491 2.221 11.332 11.332 0 012.457 2.904c.52.965.925 1.988 1.207 3.048a1.322 1.322 0 000-.218c0-.13 0-.348-.131-.624a10.01 10.01 0 00-.902-2.293 11.37 11.37 0 00-2.442-3.035 10.412 10.412 0 00-4.593-2.337 8.071 8.071 0 00-6.134.886 5.278 5.278 0 00-2.195 2.758 4.93 4.93 0 00.159 3.745 3.49 3.49 0 001.381 1.452 4.221 4.221 0 001.977.523 4.075 4.075 0 002.021-.552 2.902 2.902 0 001.308-1.698 3.546 3.546 0 00-.102-2.163 5.796 5.796 0 00-1.119-1.859 6.817 6.817 0 00-1.701-1.451c-.319-.204-.654-.349-.988-.523l-1.047-.377a10.476 10.476 0 00-8.344 1.19 8.873 8.873 0 00-2.907 2.903 5.515 5.515 0 00-.843 3.847 3.11 3.11 0 002.733 2.468 2.21 2.21 0 001.744-.668 2.613 2.613 0 00.698-1.654 5.496 5.496 0 00-.887-3.18 11.394 11.394 0 00-1.962-2.308 12.862 12.862 0 00-2.268-1.553 12.405 12.405 0 00-2.267-.9 11.128 11.128 0 00-3.882-.45 9.32 9.32 0 00-1.453.159c-.407.102-.742.175-1.018.262l-.596.218c.015.116-.058.145-.058.159z" fill="#F5F5F5"/><path d="M478.668 585.189l1.061 31.008s-31.209 11.483-31.573 17.232l60.282.101.335-48.37-30.105.029z" fill="#CD294F"/><path d="M498.364 613.656a2.475 2.475 0 011.389 1.084c.314.52.425 1.136.312 1.732a2.353 2.353 0 01-2.776 1.699 2.58 2.58 0 01-1.774-2.976 2.458 2.458 0 013.082-1.452" fill="#D0CFD3"/><path opacity=".6" d="M508.438 633.573l-.16-4.877-57.739 1.727s-2.674 1.162-2.384 3.049l60.283.101z" fill="#fff"/><path d="M478.756 615.921c0 .305 1.453.436 2.907 1.379 1.453.944 2.209 2.192 2.486 2.076.276-.116-.16-1.814-1.934-2.903-1.773-1.089-3.532-.798-3.459-.552zm-6.338 2.657c0 .276 1.206.784 2.209 2.032 1.003 1.249 1.28 2.555 1.585 2.541.305-.015.48-1.67-.8-3.194-1.279-1.524-2.979-1.713-2.994-1.379zm-3.592 7.505c.262 0 .669-1.452-.087-3.02-.756-1.567-2.122-2.25-2.253-2.003-.131.247.727 1.103 1.323 2.439.596 1.335.712 2.555 1.017 2.584zm10.466-17.246c.117.261 1.454-.131 3.14 0 1.686.131 2.907.639 3.111.377.203-.261-1.09-1.291-3.053-1.451-1.962-.16-3.343.842-3.198 1.074z" fill="#2F3646"/><path d="M438.416 585.189l1.076 31.008s-31.21 11.483-31.573 17.231l60.282.102.32-48.37-30.105.029z" fill="#CD294F"/><path d="M458.126 613.656a2.478 2.478 0 011.7 2.817 2.354 2.354 0 01-2.776 1.698 2.598 2.598 0 01-1.788-2.976 2.473 2.473 0 013.082-1.451" fill="#D0CFD3"/><path opacity=".6" d="M468.199 633.573l-.159-4.877-57.782 1.727s-2.675 1.162-2.384 3.049l60.325.101z" fill="#fff"/><path d="M438.501 615.921c0 .305 1.454.436 2.908 1.379 1.453.944 2.209 2.192 2.485 2.076.277-.116-.174-1.814-1.933-2.903-1.759-1.089-3.518-.798-3.46-.552zm-6.319 2.657c-.073.276 1.207.784 2.21 2.032 1.003 1.249 1.279 2.555 1.57 2.541.29-.015.479-1.67-.785-3.194-1.265-1.524-2.98-1.713-2.995-1.379zm-3.604 7.505c.276 0 .683-1.452-.073-3.02-.756-1.567-2.122-2.25-2.253-2.003-.131.247.727 1.103 1.323 2.439.596 1.335.712 2.555 1.003 2.584zm10.479-17.246c.117.261 1.454-.131 3.14 0 1.686.131 2.907.639 3.111.377.203-.261-1.09-1.292-3.053-1.451-1.962-.16-3.343.842-3.198 1.074zm63.84-217.638c.581 2.424 7.588 107.715 7.588 107.715s5.974 24.403 2.907 61.175l-3.765 47.006h-30.715l-4.361-104.232-7.602-19.83-.844-109.937 36.792 18.103z" fill="#2F3646"/><path d="M502.897 391.199c.581 2.424 7.588 107.715 7.588 107.715s5.974 24.403 2.907 61.175l-3.765 47.006h-30.715l-4.361-104.232-7.602-19.83-.844-109.937 36.792 18.103z" fill="url(#paint4_linear)"/><path d="M434.797 407.617c0 16.23-7.719 73.906-5.597 77.405 2.123 3.499 7.937 122.785 7.937 122.785h31.558s9.812-73.906 7.472-91.951c-2.34-18.045-3.009-33.737-3.009-33.737l24-85.549a41.009 41.009 0 0013.085-13.037 40.933 40.933 0 006.03-17.449c2.02-19.627-13.374-43.551-13.374-43.551l-63.218 12.369-4.884 72.715z" fill="#2F3646"/><path d="M434.797 407.617c0 16.23-7.719 73.906-5.597 77.405 2.123 3.499 7.937 122.785 7.937 122.785h31.558s9.812-73.906 7.472-91.951c-2.34-18.045-3.009-33.737-3.009-33.737l24-85.549a41.009 41.009 0 0013.085-13.037 40.933 40.933 0 006.03-17.449c2.02-19.627-13.374-43.551-13.374-43.551l-63.218 12.369-4.884 72.715z" fill="url(#paint5_linear)"/><path d="M509.337 384.927a6.818 6.818 0 01-.625.943 28.21 28.21 0 01-2.181 2.454c-2.02 2.061-5.131 4.921-9.26 8.391l.073-.102c-4.986 17.899-13.708 49.213-23.825 85.65v-.145c.364 3.281.771 6.765 1.163 10.292.916 7.956 1.788 15.737 2.646 23.228.101.943.232 1.872.29 2.801.059.929.102 1.888.146 2.831v5.517c0 1.814-.175 3.629-.276 5.4-.102 1.771-.248 3.528-.364 5.27-1.105 13.849-2.573 26.275-3.823 36.698a1236.927 1236.927 0 01-3.212 24.679c-.407 2.904-.742 5.125-.96 6.707-.116.726-.218 1.307-.276 1.728-.058.421-.116.595-.116.595a2.958 2.958 0 010-.595c0-.436.101-1.016.189-1.757.203-1.568.479-3.832.828-6.707.712-5.806 1.715-14.299 2.907-24.679 1.192-10.379 2.602-22.864 3.664-36.698.116-1.728.232-3.484.363-5.256.131-1.771.16-3.556.247-5.371a57.708 57.708 0 000-5.487c0-.915-.102-1.844-.145-2.773-.044-.929-.204-1.858-.305-2.787-.858-7.52-1.745-15.287-2.646-23.227-.407-3.528-.8-7.012-1.178-10.293v-.145l24.305-85.621c4.158-3.412 7.268-6.228 9.362-8.231a30.514 30.514 0 002.238-2.381c.538-.624.742-1.002.771-.929z" fill="#CD294E"/><path d="M499.878 306.84l14.202 36.598-40.92 5.72V306.84h26.718z" fill="#CD294F"/><path d="M443.275 289.275s-4.216 4.253-6.919 18.059c-2.704 13.806-7.196 116.281-7.196 116.281l47.36 1.974 18.257-109.879 8.722-.363-.596-13.529-59.628-12.543z" fill="#CD294E"/><path d="M530.244 308.786c-1.817-3.687-6.221-5.546-10.335-5.531-4.114.014-8.082 1.524-11.92 3.019-2.268.886-3.619.784-5.887 1.67l-.276 1.277s20.554-1.582 19.435 1.22c-1.12 2.802-19.159-.711-19.159-.711l-.465 1.451a37.314 37.314 0 0024.057 4.646 6.364 6.364 0 004.608-2.221 4.945 4.945 0 00-.058-4.82z" fill="#CD294E"/><path d="M466.588 319.441a29.395 29.395 0 01-4.637 1.104l-11.237 2.279-11.236 2.352a30.101 30.101 0 01-4.681.842 28.046 28.046 0 014.564-1.365 295.387 295.387 0 0111.193-2.57 231.67 231.67 0 0111.295-2.061 30.57 30.57 0 014.739-.581zm.002 0c.036.241.036.485 0 .726v2.047c0 1.902-.116 4.442-.218 7.549-.102 3.106-.261 6.997-.407 11.163-.102 2.105-.16 4.355-.32 6.62a20.125 20.125 0 01-1.57 6.997 19.669 19.669 0 01-9.986 9.349 33.265 33.265 0 01-10.946 2.613c-3.198.247-5.814.203-7.559.174l-2.064-.087a.364.364 0 01-.392.289.36.36 0 01-.233-.118.36.36 0 010-.487.364.364 0 01.625.171l2.064-.072c1.774 0 4.361-.088 7.516-.407a34.025 34.025 0 0010.698-2.7 19.268 19.268 0 009.58-9.03 19.75 19.75 0 001.541-6.75c.159-2.265.232-4.486.348-6.591.218-4.166.407-7.94.582-11.163.174-3.223.334-5.633.451-7.535.072-.812.116-1.451.159-2.046.014-.242.058-.481.131-.712z" fill="#2F3646"/><path d="M464.916 327.295c0 .203-6.847 2.149-15.394 4.355-8.548 2.207-15.54 3.818-15.583 3.615-.044-.203 6.832-2.149 15.394-4.355 8.562-2.207 15.539-3.818 15.583-3.615z" fill="#2F3646"/><path d="M460.961 227.157l-6.149-8.042s23.259-21.602 29.073-22.69c5.815-1.089 15.423-2.178 15.423-2.178l-38.347 32.91z" fill="#CD294F"/><path d="M422.578 265.466l.342.139.234-.286 34.403-42.176 14.963 20.672-.145.159-1.185 1.297c-1.022 1.117-2.482 2.713-4.237 4.627-3.51 3.828-8.198 8.93-12.91 14.025-4.712 5.095-9.447 10.181-13.051 13.979a271.173 271.173 0 01-4.41 4.564c-.545.546-.978.967-1.285 1.245a5.75 5.75 0 01-.331.284l-.041.004c-.077.01-.152.029-.22.05a3.516 3.516 0 00-.443.179c-.317.15-.725.371-1.192.628l-.277.152c-.903.497-2.031 1.119-3.295 1.716-2.818 1.329-6.187 2.469-9.09 1.887-.685-.138-1.638-.561-2.809-1.239-1.161-.672-2.497-1.571-3.938-2.623-2.882-2.103-6.158-4.796-9.249-7.457a334.191 334.191 0 01-8.116-7.24 366.889 366.889 0 01-3.173-2.958l7.156-10.678 22.299 9.05z" fill="#fff" stroke="#2F3646"/><path d="M472.375 211.028s-27.706 28.018-31.428 33.999c-3.721 5.981-1.264 15.432-1.264 15.432l3.59 28.816 59.599 12.543s19.639-61.451 22.197-70.495c1.904-6.779 2.907-27.582-.581-33.839-3.489-6.257-10.815-11.033-15.046-10.394-15.103 2.279-37.067 23.938-37.067 23.938z" fill="#CD294F"/><path opacity=".3" d="M521.19 227.157l-7.268-2.091c-1.832 1.118-2.762 4.733-3.547 6.722l-13.548 34.144a75.513 75.513 0 01-9.274 15.649c-3.547 4.936-7.268 9.77-13.272 11.077 6.614.566 15.743-2.323 20.569-6.881 5.059-4.762 7.763-11.454 10.306-17.914 4.972-12.587 16.281-27.191 15.86-40.648-.029-.058-1.265.116.174-.058z" fill="#2F3646"/><mask id="a" fill="#fff"><path fill-rule="evenodd" clip-rule="evenodd" d="M392.274 269.328c-.491.449-3.184 2.832-5.054 2.832-2.064 0-7.98-2.614-7.98-2.614s-2.297-1.974-2.297-3.28a4.215 4.215 0 01-1.752-2.085 4.2 4.2 0 01-.108-2.72s-1.803-5.023-1.178-6.228a8.158 8.158 0 012.282-2.279 8.056 8.056 0 012.501-3.165 22.911 22.911 0 013.939-1.974l13.432 3.6 1.144 1.404 67.902 11.11 19.508-48.182 31.428 9.828s-11.528 31.11-18.563 41.838c-3.343 5.124-8.359 12.005-12.661 17.783-5.103 6.852-15.496 10.612-23.694 8.217l-68.849-24.085z"/></mask><path fill-rule="evenodd" clip-rule="evenodd" d="M392.274 269.328c-.491.449-3.184 2.832-5.054 2.832-2.064 0-7.98-2.614-7.98-2.614s-2.297-1.974-2.297-3.28a4.215 4.215 0 01-1.752-2.085 4.2 4.2 0 01-.108-2.72s-1.803-5.023-1.178-6.228a8.158 8.158 0 012.282-2.279 8.056 8.056 0 012.501-3.165 22.911 22.911 0 013.939-1.974l13.432 3.6 1.144 1.404 67.902 11.11 19.508-48.182 31.428 9.828s-11.528 31.11-18.563 41.838c-3.343 5.124-8.359 12.005-12.661 17.783-5.103 6.852-15.496 10.612-23.694 8.217l-68.849-24.085z" fill="#fff"/><path d="M392.274 269.328l.33-.943-.564-.198-.441.404.675.737zm-13.034.218l-.652.759.112.096.136.06.404-.915zm-2.297-3.28h1v-.565l-.483-.292-.517.857zm-1.86-4.805l.958.285.094-.314-.111-.309-.941.338zm-1.178-6.228l-.832-.554-.03.045-.026.048.888.461zm2.282-2.279l.553.833.244-.162.118-.268-.915-.403zm2.501-3.165l-.532-.847-.038.024-.035.026.605.797zm3.939-1.974l.259-.966-.315-.085-.305.118.361.933zm13.432 3.6l.775-.632-.204-.25-.313-.084-.258.966zm1.144 1.404l-.776.632.24.294.374.061.162-.987zm67.902 11.11l-.161.987.789.129.299-.741-.927-.375zm19.508-48.182l.299-.955-.88-.275-.346.855.927.375zm31.428 9.828l.937.347.366-.987-1.005-.315-.298.955zm-18.563 41.838l-.836-.549-.002.002.838.547zm-12.661 17.783l-.802-.597.802.597zm-23.694 8.217l-.331.944.025.008.025.008.281-.96zm-69.524-24.822c-.229.209-.984.879-1.893 1.492a9.206 9.206 0 01-1.379.782c-.462.203-.835.295-1.107.295v2c.664 0 1.328-.207 1.913-.465a11.214 11.214 0 001.69-.953 19.517 19.517 0 002.126-1.676l-1.35-1.475zm-4.379 2.569c-.362 0-.999-.126-1.839-.369a36.593 36.593 0 01-2.573-.874 67.326 67.326 0 01-2.914-1.177l-.187-.081a2.6 2.6 0 01-.048-.021l-.012-.005-.002-.001h-.001l-.404.914-.404.915.002.001.003.002a.114.114 0 01.014.006l.052.022.195.085a71.19 71.19 0 003.002 1.212c.881.331 1.841.668 2.72.923.85.246 1.726.448 2.396.448v-2zm-7.98-1.614l.652-.758-.003-.002-.015-.013a12.162 12.162 0 01-1.029-1.035 6.162 6.162 0 01-.679-.913c-.184-.315-.223-.497-.223-.559h-2c0 .591.249 1.145.496 1.568.259.444.59.866.9 1.22a13.454 13.454 0 001.239 1.242l.007.006.002.002h.001v.001l.652-.759zm-1.78-4.137a3.202 3.202 0 01-1.336-1.59l-1.866.723a5.212 5.212 0 002.169 2.58l1.033-1.713zm-1.336-1.59a3.203 3.203 0 01-.083-2.073l-1.917-.571a5.21 5.21 0 00.134 3.367l1.866-.723zm-1.041-2.358l.941-.338-.001-.002-.003-.01a34.397 34.397 0 01-.794-2.569c-.181-.685-.335-1.377-.408-1.953a4.377 4.377 0 01-.043-.701c.009-.196.039-.235.018-.195l-1.776-.921c-.177.341-.227.723-.24 1.033-.014.328.012.683.056 1.035.09.704.269 1.493.46 2.215a36.336 36.336 0 00.768 2.513l.058.168.016.045.005.012.001.004v.001l.942-.337zm-.345-5.674a7.153 7.153 0 012.002-2l-1.106-1.667a9.177 9.177 0 00-2.561 2.559l1.665 1.108zm2.364-2.43a7.067 7.067 0 012.19-2.772l-1.209-1.593a9.054 9.054 0 00-2.81 3.558l1.829.807zm2.117-2.721a22.047 22.047 0 013.768-1.889l-.721-1.865a23.997 23.997 0 00-4.11 2.06l1.063 1.694zm3.149-1.855l13.432 3.6.517-1.932-13.431-3.6-.518 1.932zm12.915 3.265l1.144 1.405 1.551-1.264-1.144-1.404-1.551 1.263zm1.758 1.76l67.903 11.11.323-1.974-67.903-11.11-.323 1.974zm68.991 10.498l19.508-48.182-1.854-.75-19.507 48.181 1.853.751zm18.283-47.603l31.427 9.828.597-1.909-31.427-9.828-.597 1.909zm31.726 8.874l-.938-.347v.001l-.002.004a.2.2 0 01-.006.016l-.025.067-.097.261-.377 1.002a568.23 568.23 0 01-6.123 15.51c-3.768 9.136-8.375 19.504-11.831 24.775l1.672 1.097c3.579-5.457 8.254-16.007 12.008-25.109a575.763 575.763 0 006.524-16.575l.099-.264.025-.067a.184.184 0 00.006-.018l.002-.004v-.001l-.937-.348zm-19.401 41.291c-3.324 5.096-8.323 11.955-12.625 17.733l1.604 1.194c4.303-5.778 9.334-12.681 12.696-17.834l-1.675-1.093zm-12.625 17.733c-4.867 6.536-14.837 10.125-22.612 7.854l-.561 1.92c8.622 2.519 19.439-1.412 24.777-8.58l-1.604-1.194zm-22.562 7.87l-68.849-24.084-.661 1.887 68.849 24.085.661-1.888z" fill="#2F3646" mask="url(#a)"/><path d="M471.198 271.625s-.145-.13-.392-.421l-1.076-1.277-3.91-4.907.145.087c-6.905-1.045-17.763-2.772-29.945-4.761l-27.095-4.559-8.199-1.451-2.209-.436a5.116 5.116 0 01-.771-.203c.26-.039.525-.039.785 0l2.253.305 8.228 1.219 27.125 4.355c12.181 2.004 23.025 3.833 29.901 5.052h.101v.073l3.736 5.037.974 1.365c.262.334.378.508.349.522z" fill="#DADADA"/><path d="M476.765 206.296c.145.145-5.161 5.981-11.862 13.065-6.701 7.085-12.24 12.659-12.399 12.514-.16-.145 5.16-5.981 11.861-13.065 6.701-7.085 12.24-12.601 12.4-12.514zm44.22 20.861a5.358 5.358 0 01-.8-.203l-2.239-.683-8.3-2.555-28.622-8.971-.407-.131.218-.392c1.817-3.136 3.605-6.504 5.655-9.901a41.734 41.734 0 017.617-9.624 25.86 25.86 0 0111.498-6.548 20.514 20.514 0 016.353-.522c2.064.128 4.064.771 5.814 1.873a14.34 14.34 0 014.027 4.195 17.253 17.253 0 012.253 4.994c.712 3.18.937 6.45.668 9.697-.072 1.452-.101 2.904-.276 4.239a54.727 54.727 0 01-.625 3.731 86.504 86.504 0 01-1.381 5.807c-.421 1.539-.77 2.903-1.032 3.673-.116.377-.218.682-.305.943a1.086 1.086 0 01-.131.305 1.435 1.435 0 010-.334c0-.261.145-.58.233-.958.218-.914.523-2.148.901-3.702.378-1.553.814-3.585 1.235-5.894.219-1.146.422-2.38.567-3.701.146-1.321.175-2.715.233-4.196a32 32 0 00-.756-9.523 16.735 16.735 0 00-2.195-4.791 13.746 13.746 0 00-3.852-3.977c-3.227-2.091-7.588-2.149-11.629-1.205a25.146 25.146 0 00-11.164 6.373 41.238 41.238 0 00-7.486 9.45c-2.05 3.368-3.838 6.736-5.684 9.886l-.203-.508 28.738 9.364 8.169 2.715 2.137.74c.265.092.522.204.771.334z" fill="#2F3646"/><defs><linearGradient id="paint0_linear" x1="349.39" y1="233.718" x2="349.39" y2="310.279" gradientUnits="userSpaceOnUse"><stop stop-color="#343C50"/><stop offset="1" stop-color="#252C3D"/></linearGradient><linearGradient id="paint1_linear" x1="324.74" y1="213.723" x2="324.74" y2="259.516" gradientUnits="userSpaceOnUse"><stop stop-color="#343C50"/><stop offset="1" stop-color="#252C3D"/></linearGradient><linearGradient id="paint2_linear" x1="354.759" y1="212.987" x2="354.759" y2="261.266" gradientUnits="userSpaceOnUse"><stop stop-color="#343C50"/><stop offset="1" stop-color="#252C3D"/></linearGradient><linearGradient id="paint3_linear" x1="495.446" y1="96.349" x2="495.446" y2="153.546" gradientUnits="userSpaceOnUse"><stop stop-color="#343C50"/><stop offset="1" stop-color="#252C3D"/></linearGradient><linearGradient id="paint4_linear" x1="490.187" y1="373.096" x2="490.187" y2="607.095" gradientUnits="userSpaceOnUse"><stop stop-color="#343C50"/><stop offset="1" stop-color="#252C3D"/></linearGradient><linearGradient id="paint5_linear" x1="472.643" y1="322.533" x2="472.643" y2="607.807" gradientUnits="userSpaceOnUse"><stop stop-color="#343C50"/><stop offset="1" stop-color="#252C3D"/></linearGradient></defs></svg>