<svg width="64" height="64" fill="none" xmlns="http://www.w3.org/2000/svg"><path d="M0 2a2 2 0 012-2h47c8.284 0 15 6.716 15 15v34c0 8.284-6.716 15-15 15H15C6.716 64 0 57.284 0 49V2z" fill="#CD2946"/><path d="M0 2a2 2 0 012-2h47c8.284 0 15 6.716 15 15v34c0 8.284-6.716 15-15 15H15C6.716 64 0 57.284 0 49V2z" fill="url(#paint0_linear)"/><path d="M44.688 17.07a1.65 1.65 0 00-1.641-1.527h-3.443a1.65 1.65 0 00-1.641 1.526l-1.025 14.322a.548.548 0 00.547.587h2.195v9.811l-1.088 5.979a.548.548 0 00.54.645h4.388a.548.548 0 00.54-.645l-1.09-5.978v-9.812h2.195a.548.548 0 00.547-.587L44.688 17.07zm-4.9 30.248l.898-4.93h1.279l.897 4.93h-3.074zm2.086-6.027h-1.097v-9.313h1.097v9.313zm-3.8-10.409l.983-13.735a.55.55 0 01.547-.508h3.443a.55.55 0 01.547.508l.982 13.735h-6.501zm-7.026 17.531a2.753 2.753 0 002.57-1.781c.83-2.225 2.221-6.375 2.221-9.176 0-3.072-1.475-4.699-2.712-5.523a6.915 6.915 0 00-2.225-.957v-3.929a.548.548 0 00-.548-.547H23.77a.548.548 0 00-.549.547v3.929a6.912 6.912 0 00-2.224.957c-1.238.824-2.713 2.451-2.713 5.523 0 2.8 1.392 6.951 2.222 9.176a2.753 2.753 0 002.57 1.781h7.971zm-1.243-20.818v3.287H24.32v-3.287h5.486zm-6 4.383h6.514c.39.053 4.032.657 4.394 4.798l-2.483 1.578a3.847 3.847 0 01-3.882.14l-2.86-1.537a4.949 4.949 0 00-4.549-.069l-1.553.776a7.71 7.71 0 01-.004-.208c0-4.76 4.021-5.424 4.423-5.478zm-4.323 6.863l1.948-.973a3.85 3.85 0 013.538.054l2.86 1.538a4.947 4.947 0 004.991-.181l1.9-1.208c-.134 1.982-.865 4.525-1.535 6.508H20.94c-.586-1.734-1.219-3.897-1.459-5.738zm2.053 7.408c-.067-.18-.138-.372-.211-.575H32.8c-.074.203-.144.396-.212.575a1.651 1.651 0 01-1.541 1.069h-7.971a1.651 1.651 0 01-1.542-1.069z" fill="#fff" stroke="#fff" stroke-width=".5"/><defs><linearGradient id="paint0_linear" x1="7.157" y1="-11.49" x2="87.798" y2="33.131" gradientUnits="userSpaceOnUse"><stop stop-color="#CC283C"/><stop offset="1" stop-color="#CC284F"/></linearGradient></defs></svg>