<svg width="345" height="110" fill="none" xmlns="http://www.w3.org/2000/svg"><g clip-path="url(#clip0)"><path fill="#fff" d="M0 0h345v110H0z"/><path d="M260.375 23.72C261.451 10.955 251.381 0 238.571 0H21.883C9.798 0 0 9.797 0 21.88v342.237C.001 376.203 9.798 386 21.883 386h301.236c12.085 0 21.882-9.797 21.882-21.882V103.551c0-12.085-9.797-21.882-21.882-21.882h-27.956c-21.35 0-38.134-18.258-36.341-39.533l1.553-18.416z" fill="url(#paint0_linear)"/></g><defs><linearGradient id="paint0_linear" x1="386.113" y1="-172.346" x2="-208.993" y2="217.8" gradientUnits="userSpaceOnUse"><stop stop-color="#CC283C"/><stop offset="1" stop-color="#CC284F"/></linearGradient><clipPath id="clip0"><path fill="#fff" d="M0 0h345v110H0z"/></clipPath></defs></svg>