<svg width="78" height="78" fill="none" xmlns="http://www.w3.org/2000/svg"><circle cx="39" cy="39" r="39" fill="#fff"/><path d="M34.742 43.275l2.375 2.375 6.334-6.334" stroke="#CD2943" stroke-width="2.125" stroke-linecap="round" stroke-linejoin="round"/><path d="M35.835 29.5h6.333c3.167 0 3.167-1.583 3.167-3.167 0-3.166-1.584-3.166-3.167-3.166h-6.333c-1.584 0-3.167 0-3.167 3.166 0 3.167 1.583 3.167 3.167 3.167z" stroke="#CD2943" stroke-width="2.125" stroke-miterlimit="10" stroke-linecap="round" stroke-linejoin="round"/><path d="M45.333 26.365c5.273.285 7.917 2.233 7.917 9.468v9.5c0 6.334-1.583 9.5-9.5 9.5h-9.5c-7.917 0-9.5-3.166-9.5-9.5v-9.5c0-7.22 2.644-9.183 7.917-9.468" stroke="#CD2943" stroke-width="2.125" stroke-miterlimit="10" stroke-linecap="round" stroke-linejoin="round"/></svg>