<svg width="400" height="300" fill="none" xmlns="http://www.w3.org/2000/svg"><g clip-path="url(#clip0)"><path opacity=".7" d="M333.169 280.92c0 4.348-64.889 7.873-144.936 7.873-80.048 0-144.936-3.525-144.936-7.873 0-4.348 64.888-7.92 144.936-7.92 80.047 0 144.936 3.572 144.936 7.92z" fill="#AA2338"/><path d="M100.633 250.666v4.714h35.294v-4.714h-35.294z" fill="#FFEEF2"/><path d="M59.412 229.016s-45.298-26.807-42.883-95.609C18.944 64.605 79.68 22.847 124.43 23.77c44.75.924 57.713 20.185 94.612 23.18 36.9 2.994 101.853-23.733 141.535 9.323 39.683 33.056 8.136 114.323-39.02 172.777-47.155 58.454-189.031 68.627-262.144-.034z" fill="#CD2942"/><path opacity=".08" d="M59.412 229.016s-45.298-26.807-42.883-95.609C18.944 64.605 79.68 22.847 124.43 23.77c44.75.924 57.713 20.185 94.612 23.18 36.9 2.994 101.853-23.733 141.535 9.323 39.683 33.056 8.136 114.323-39.02 172.777-47.155 58.454-189.031 68.627-262.144-.034z" fill="#2F3646"/><path d="M105.444 250.854c.12 0 .22.99.22 2.213 0 1.222-.1 2.207-.22 2.207-.119 0-.225-.991-.225-2.207 0-1.216.1-2.213.225-2.213zm-.768-.094c.126 0 .22.991.22 2.207 0 1.216-.094 2.213-.22 2.213-.125 0-.219-.991-.219-2.213 0-1.223.094-2.207.219-2.207zm28.524.094c.125 0 .226.99.226 2.213 0 1.222-.101 2.207-.226 2.207s-.22-.991-.22-2.207c0-1.216.101-2.213.22-2.213zm-.767-.094c.119 0 .219.991.219 2.207 0 1.216-.1 2.213-.219 2.213s-.226-.991-.226-2.213c0-1.223.1-2.207.226-2.207zm-4.613 2.401c0 .125-4.043.219-9.027.219-4.984 0-9.027-.094-9.027-.219s4.043-.219 9.027-.219c4.984 0 9.027.094 9.027.219z" fill="#FAFAFA"/><path d="M100.484 271.893v9.428h35.294v-9.428h-35.294z" fill="#DF889A"/><path d="M136.226 278.669s-.056.044-.188.107c-.131.063-.326.157-.589.269-.767.326-1.571.555-2.395.684a6.221 6.221 0 01-3.88-.552 5.099 5.099 0 01-1.843-1.667 3.894 3.894 0 01-.627-2.715 2.865 2.865 0 01.627-1.404 1.834 1.834 0 011.486-.677 2.135 2.135 0 011.498.802c.386.455.624 1.017.683 1.611a4.285 4.285 0 01-1.216 3.342 5.395 5.395 0 01-3.391 1.661 9.114 9.114 0 01-3.937-.489 7.285 7.285 0 01-3.442-2.313 3.756 3.756 0 01-.802-2.038 2.644 2.644 0 01.752-2.119c.299-.286.69-.458 1.103-.482a2.01 2.01 0 011.154.326 3.026 3.026 0 011.297 1.88 4.433 4.433 0 01-1.391 4.157 6.932 6.932 0 01-3.975 1.617 9.794 9.794 0 01-4.119-.407 5.696 5.696 0 01-3.134-2.439 4.157 4.157 0 01-.389-3.761 1.957 1.957 0 011.436-1.217 2.293 2.293 0 011.78.427 2.948 2.948 0 01.84 3.178 5.503 5.503 0 01-1.78 2.508 7.96 7.96 0 01-4.84 1.88 7.723 7.723 0 01-5.83-2.351 5.976 5.976 0 01-.426-.488 1.34 1.34 0 01-.126-.182 9.057 9.057 0 002.627 2 7.683 7.683 0 003.762.777 7.803 7.803 0 004.651-1.881 5.222 5.222 0 001.655-2.369 2.601 2.601 0 00-.733-2.784 1.916 1.916 0 00-1.486-.351 1.557 1.557 0 00-1.154 1.003 3.768 3.768 0 00.383 3.379 5.284 5.284 0 002.921 2.244 9.39 9.39 0 003.937.376 6.56 6.56 0 003.724-1.51 4.022 4.022 0 001.254-3.762 2.615 2.615 0 00-1.097-1.623 1.349 1.349 0 00-1.724.1 2.194 2.194 0 00-.627 1.768c.052.658.299 1.286.708 1.805a6.899 6.899 0 003.229 2.176 8.777 8.777 0 003.761.482 5.014 5.014 0 003.134-1.517 3.907 3.907 0 001.135-3.04 2.242 2.242 0 00-1.83-2.113 1.527 1.527 0 00-1.223.552c-.306.356-.507.79-.583 1.254a3.565 3.565 0 00.571 2.507 4.877 4.877 0 001.724 1.611 6.105 6.105 0 003.761.596 11.246 11.246 0 002.382-.596c.527-.131.796-.251.802-.232z" fill="#FAFAFA"/><path d="M103.633 255.512v16.362h32.141v-16.362h-32.141z" fill="#FFC1CF"/><path d="M108.976 256.076c.119 0 .219 3.542.219 7.918s-.1 7.917-.219 7.917-.226-3.541-.226-7.917c0-4.376.1-7.918.226-7.918zm2.441-.207c.119 0 .219 3.504.219 7.818 0 4.313-.1 7.817-.219 7.817s-.226-3.498-.226-7.817c0-4.32.101-7.818.226-7.818zm20.731-.501c.119 0 .219 3.686.219 8.237s-.1 8.231-.219 8.231c-.12 0-.226-3.686-.226-8.231s.1-8.237.226-8.237zm-2.864.2c.119 0 .22 3.586.22 8.018s-.101 8.018-.22 8.018-.225-3.586-.225-8.018.1-8.018.225-8.018z" fill="#FFEEF2"/><path d="M302.297 219.798c3.335-1.724 7.253-1.944 10.958-1.336 1.987.333 4.056.922 5.41 2.42 1.354 1.499 1.605 4.119.057 5.398-.928.765-2.213.884-3.417.865-2.896-.031-6.106-.539-8.419 1.204-1.323.99-2.201 2.645-3.762 3.134-1.56.489-3.284-.433-4.099-1.824a6.364 6.364 0 01-.464-4.708 7.17 7.17 0 013.736-5.153zm-7.634-14.739c2.037 2.909 5.999 1.944 7.836.17 1.837-1.774 2.614-4.351 3.316-6.808 1.618-5.605 3.241-11.491 2.044-17.202a9.503 9.503 0 00-2.2-4.677 5.02 5.02 0 00-4.733-1.58c-1.994.533-3.235 2.508-4.132 4.345a41.082 41.082 0 00-4.056 17.603c0 2.833.326 5.805 1.925 8.149zm-5.575 4.176c2.213-2.627 2.633-6.457 1.649-9.742-.984-3.285-3.21-6.094-5.774-8.375a31.065 31.065 0 00-10.337-6.1 11.067 11.067 0 00-4.646-.79 4.873 4.873 0 00-3.899 2.363c-1.091 2.075-.044 4.589 1.085 6.645a79.151 79.151 0 006.783 10.332c2.037 2.626 4.388 5.215 7.466 6.4 3.078 1.185 6.325 1.041 7.968-1.109" fill="#EE95A8"/><path d="M294.523 248.954c.108-.433.171-.876.188-1.322.094-.959.207-2.169.351-3.605.18-1.778.45-3.546.809-5.297a40.603 40.603 0 011.925-6.269 23.161 23.161 0 013.191-5.642 11.894 11.894 0 014.031-3.354 11.552 11.552 0 013.397-1.059 5.98 5.98 0 001.317-.189 6.144 6.144 0 00-1.342 0 10.32 10.32 0 00-3.542.922 11.907 11.907 0 00-4.25 3.379 22.522 22.522 0 00-3.31 5.767 38.176 38.176 0 00-1.881 6.351 45.817 45.817 0 00-.708 5.36 70.303 70.303 0 00-.176 3.629 6.417 6.417 0 000 1.329z" fill="#2F3646"/><path d="M294.777 246.177c.038-.206.051-.417.038-.627v-1.755c0-1.517 0-3.724.075-6.444.138-5.442.627-11.284 1.511-19.559.859-7.761 2.006-16.801 3.222-22.675.257-1.335.521-2.539.771-3.592.251-1.053.433-1.962.627-2.696.195-.733.301-1.254.408-1.705a3.6 3.6 0 00.113-.627 2.37 2.37 0 00-.214.577c-.137.439-.307.997-.514 1.68a63.66 63.66 0 00-.721 2.683c-.263 1.053-.564 2.251-.846 3.586a198.613 198.613 0 00-3.391 21.038c-.903 8.275-1.311 15.811-1.348 21.265-.031 2.727 0 4.933.094 6.457.044.714.081 1.297.106 1.755-.003.215.02.43.069.639z" fill="#2F3646"/><path d="M294.813 231.646c.048-.609.048-1.221 0-1.831a51.014 51.014 0 00-.565-4.965 65.1 65.1 0 00-1.611-7.234 59.555 59.555 0 00-3.028-8.563 45.538 45.538 0 00-8.883-13.836 23.738 23.738 0 00-2.093-1.943c-.32-.27-.627-.539-.891-.752l-.808-.558a11.06 11.06 0 00-1.549-.991c-.087.119 2.188 1.455 5.059 4.514a48.026 48.026 0 018.664 13.791 67.195 67.195 0 013.028 8.476c.796 2.658 1.323 5.103 1.724 7.159s.595 3.762.727 4.921c.026.609.102 1.215.226 1.812z" fill="#2F3646"/><path d="M279.793 255.073l1.461 19.948h25.621l1.46-19.948h-28.542z" fill="#FFC1CF"/><path d="M311.388 247.212h-34.072v7.861h34.072v-7.861z" fill="#EBEBEB"/><path d="M277.316 274.256v2.181h33.514v-2.181h-33.514z" fill="#FFEEF2"/><path d="M280.485 280.03l-1.567-3.831h30.686l-1.83 3.831h-27.289z" fill="#FFEEF2"/><path d="M307.861 261.593a.905.905 0 01-.119.182c-.107.137-.232.3-.383.507l-1.498 1.912-.063.088-.062-.094c-.941-1.298-2.195-3.028-3.668-5.071h.188l-3.611 5.115-.112.157-.126-.151-4.263-5.109h.245l-.232.295-3.812 4.814-.131.163-.113-.169c-1.304-1.837-2.508-3.561-3.617-5.109h.213l-4.451 5.071-.075.088-.063-.1-1.392-2.339c-.15-.257-.263-.463-.357-.626a1.064 1.064 0 01-.113-.22c.058.059.108.124.151.195l.394.626 1.461 2.301h-.138l4.388-5.134.107-.126.1.138 3.649 5.091h-.251l3.824-4.809.232-.3.126-.151.125.151 4.269 5.103h-.238l3.648-5.091.107-.15.1.15 3.592 5.128h-.131c.658-.79 1.172-1.41 1.554-1.881l.414-.482c.075-.119.125-.17.132-.163zm.833-6.652c0 .088-6.425.157-14.343.157s-14.343-.069-14.343-.157c0-.087 6.419-.156 14.343-.156s14.343.069 14.343.156zM172.367 73.719h-16.945v15.44h16.945V73.72z" fill="#FFD3DD"/><path d="M172.369 89.16v-1.135c0-.753 0-1.812-.038-3.135 0-2.72-.044-6.55-.075-11.159l.144.15h-16.926l.169-.168v15.434l-.156-.15 12.224.075 3.467.043h.928c.108-.009.217-.009.326 0a1.615 1.615 0 01-.295 0h-.896l-3.43.038-12.324.075h-.151V73.637c-.156.15.207-.213.176-.175h17.076v.144l-.075 11.284c0 1.317-.031 2.364-.037 3.135v.808a1.289 1.289 0 01-.107.326z" fill="#FFEEF2"/><path d="M172.367 91.58h-16.945v7.76h16.945v-7.76z" fill="#FFD3DD"/><path d="M172.364 99.34v-.564l-.032-1.555c0-1.373-.037-3.285-.069-5.642l.126.126-16.926.05c-.157.156.206-.213.169-.17v7.755l-.169-.163 12.117.075 3.536.05h1.292c-.101.01-.201.01-.301 0h-.922l-3.492.05-12.23.076h-.163V91.51c-.038 0 .326-.332.175-.175l16.926.044h.082v.125c0 2.388-.05 4.332-.063 5.717v1.53c0 .198-.019.395-.056.59z" fill="#FFEEF2"/><path d="M152.424 73.763c-6.307 8.707-13.553 16.87-19.854 25.577z" fill="#fff"/><path d="M132.578 99.34s.044-.106.163-.288l.533-.778a90.424 90.424 0 012.037-2.808c1.749-2.357 4.251-5.542 7.059-9.021 2.809-3.48 5.335-6.639 7.128-8.952l2.125-2.74.583-.746c.138-.163.213-.25.226-.244a1.526 1.526 0 01-.169.288l-.533.778a95.734 95.734 0 01-2.038 2.814c-1.749 2.351-4.25 5.536-7.058 9.015a677.661 677.661 0 00-7.128 8.952l-2.125 2.746-.583.74a1.42 1.42 0 01-.22.244zm48.362-33.294a3.184 3.184 0 11-3.185-3.185 3.19 3.19 0 013.185 3.185z" fill="#FFEEF2"/><path d="M305.515 88.225h-36.699v53.199h36.699V88.225z" fill="#A32135"/><path d="M303.675 88.225h-36.698v53.199h36.698V88.225z" fill="#DF889A"/><path d="M299.122 93.987h-27.583v41.675h27.583V93.987z" fill="#DD344E"/><path d="M299.119 135.662v-11.666c0-7.347 0-17.754-.043-30.01l.094.094h-27.634l.1-.1v41.676l-.081-.081 20.061.043h7.51-7.46l-20.124.038h-.081V93.805h27.746v.087c0 12.281-.031 22.706-.044 30.091v11.41l-.044.269z" fill="#A22135"/><path d="M303.78 88.225a5.763 5.763 0 01-.627.953 63.72 63.72 0 01-1.724 2.182c-.69.84-1.335 1.58-1.812 2.112a6.178 6.178 0 01-.808.822c.209-.324.444-.63.702-.916l1.768-2.144 1.761-2.144a7.82 7.82 0 01.74-.865z" fill="#A22135"/><path d="M299.258 135.524a33.968 33.968 0 004.808 6.019z" fill="#fff"/><path d="M304.066 141.543a5.171 5.171 0 01-.834-.765 26.504 26.504 0 01-3.416-4.263 5.306 5.306 0 01-.558-.991c.246.287.473.591.677.909a46.88 46.88 0 001.636 2.176 50.171 50.171 0 001.762 2.075c.266.266.511.554.733.859z" fill="#A22135"/><path d="M266.969 141.38l4.808-5.931z" fill="#fff"/><path d="M271.783 135.449c.037 0-1.003 1.392-2.326 3.028a36.238 36.238 0 01-2.508 2.903 72.566 72.566 0 014.809-5.931h.025zm-4.806-47.224a36.31 36.31 0 012.332 2.79c.778.93 1.504 1.904 2.175 2.915a34.561 34.561 0 01-2.332-2.808 31.303 31.303 0 01-2.175-2.897z" fill="#A22135"/><path d="M290.527 102.449h-9.234v26.223h9.234v-26.223z" fill="#DF889A"/><path d="M138.122 65.57c-10.062 15.822-9.404 37.763 1.592 52.953 7.329 10.131 18.318 16.926 27.044 25.866 8.727 8.939 15.359 22.135 10.752 33.758-4.69 11.829-18.425 16.638-28.706 24.135a54.255 54.255 0 00-21.485 34.417 54.256 54.256 0 008.396 39.695H242.55s18.769-35.765-5.36-63.028c-24.129-27.264-37.087-27.703-36.197-45.582.89-17.879 13.403-23.677 20.556-30.385 7.153-6.708 42.002-22.336 21.446-71.836l-104.873.006z" fill="#FFECF0"/><path d="M138.121 65.57h28.104l76.769-.057h.082v.075a98.62 98.62 0 014.012 11.504 66.962 66.962 0 012.269 12.537c.37 4.435.142 8.898-.677 13.272a42.678 42.678 0 01-4.827 12.901 46.219 46.219 0 01-4.025 5.837 53.256 53.256 0 01-4.921 5.266 71.377 71.377 0 01-5.585 4.733c-1.944 1.504-3.975 2.921-5.956 4.426-.99.746-1.88 1.586-2.846 2.426a86.647 86.647 0 01-2.915 2.413c-1.975 1.58-3.968 3.135-5.849 4.884a31.28 31.28 0 00-8.776 12.588 30.699 30.699 0 00-1.655 7.723c-.057.627-.145 1.317-.17 1.981-.025.665-.05 1.329 0 1.994.015 1.334.149 2.664.402 3.974a18.12 18.12 0 003.172 7.347 40.342 40.342 0 005.535 6c4.056 3.705 8.363 7.247 12.482 11.071 4.118 3.824 8.149 7.811 12.036 12.03a71.319 71.319 0 015.554 6.607 46.08 46.08 0 014.483 7.466 49.126 49.126 0 014.601 16.927 62.102 62.102 0 01-1.041 17.803 73.154 73.154 0 01-2.294 8.739 64.234 64.234 0 01-3.385 8.432l-.044.088h-107.03l-.044-.069a55.074 55.074 0 01-8.945-25.22 53.165 53.165 0 013.698-25.452 55.418 55.418 0 0114.118-20.173 64.219 64.219 0 019.641-7.034c3.336-2.069 6.702-3.987 9.88-6.081a45.454 45.454 0 008.702-7.071 23.854 23.854 0 005.378-9.329 23.26 23.26 0 00.427-10.412 34.098 34.098 0 00-3.304-9.573 46.714 46.714 0 00-5.379-8.15 64.399 64.399 0 00-6.507-6.789c-4.52-4.162-9.153-7.805-13.315-11.547-2.088-1.881-4.062-3.762-5.887-5.686a53.79 53.79 0 01-4.877-6.012 46.058 46.058 0 01-6.112-12.67 47.48 47.48 0 01-2.081-12.005c-.088-.928-.051-1.843-.051-2.74 0-.896 0-1.767.082-2.613.081-.847.125-1.674.188-2.508.063-.834.232-1.58.338-2.338a44.634 44.634 0 014.188-13.278c.282-.646.605-1.275.966-1.88l.771-1.31c.407-.697.626-1.048.626-1.048l-.626 1.066-.746 1.291a18.682 18.682 0 00-.953 1.881 44.864 44.864 0 00-4.138 13.297c-.106.752-.232 1.53-.326 2.325-.094.796-.125 1.63-.188 2.477-.063.846-.063 1.717-.069 2.607-.006.89-.031 1.806.057 2.734.181 4.06.887 8.081 2.1 11.961a45.742 45.742 0 006.106 12.619 52.611 52.611 0 004.871 5.981 85.472 85.472 0 005.88 5.642c4.162 3.761 8.776 7.366 13.328 11.535a64.78 64.78 0 016.557 6.839 47.23 47.23 0 015.41 8.206 34.198 34.198 0 013.335 9.635 23.487 23.487 0 01-.426 10.526 24.02 24.02 0 01-5.429 9.435 45.98 45.98 0 01-8.739 7.121c-3.191 2.1-6.557 4.019-9.886 6.087a64.454 64.454 0 00-9.604 7.009 55.208 55.208 0 00-14.036 20.061 52.867 52.867 0 00-3.668 25.32 54.841 54.841 0 008.902 25.076l-.125-.069h106.835l-.144.088a63.375 63.375 0 003.373-8.413 72.955 72.955 0 002.282-8.702 61.746 61.746 0 001.034-17.716 48.601 48.601 0 00-4.57-16.832 46.053 46.053 0 00-4.445-7.416 72.821 72.821 0 00-5.529-6.582 197.331 197.331 0 00-12.018-12.012c-4.112-3.817-8.406-7.353-12.475-11.077a41.1 41.1 0 01-5.585-6.043 18.497 18.497 0 01-3.254-7.441 23.613 23.613 0 01-.407-4.031c-.032-.671 0-1.342 0-2.013 0-.67.112-1.335.163-1.999a31.18 31.18 0 011.692-7.768 31.51 31.51 0 018.858-12.694c1.881-1.743 3.893-3.323 5.868-4.896.99-.79 1.962-1.586 2.909-2.401.946-.815 1.88-1.693 2.858-2.445 1.994-1.505 4.019-2.921 5.956-4.42a71.877 71.877 0 005.573-4.708 54.199 54.199 0 004.896-5.234 47.7 47.7 0 004.006-5.805 42.39 42.39 0 004.802-12.814 49.37 49.37 0 00.683-13.165 67.03 67.03 0 00-2.25-12.538 99.734 99.734 0 00-3.962-11.54l.106.068-76.725-.056h-26.292l-1.831-.057z" fill="#2F3646"/><path d="M238.731 94.588c15.735 2.59-9.071 30.461-23.12 41.457-8.149 6.363-16.863 13.271-20.725 22.85-4.388 10.87-1.135 23.082-3.253 34.015a1.52 1.52 0 01-1.654 1.239 1.52 1.52 0 01-1.356-1.558c.101-7.178-.087-14.35-1.253-21.415-1.687-10.03-5.536-19.929-12.538-27.27-5.736-5.999-13.253-9.98-19.365-15.585-8.927-8.181-18.098-18.731-18.995-30.805 0 0 17.139-13.792 26.656-12.068 11.121 2.038 22.066 19.196 39.293 17.233 11.987-1.372 18.061-11.09 36.31-8.093zm1.398 149.17c-.395-3.937-1.448-8.388-4.94-10.244-2.112-1.128-4.689-1.003-7.008-.395-2.32.608-4.495 1.668-6.79 2.351a22.24 22.24 0 01-13.898-.445c-4.269-1.567-7.93-4.388-11.911-6.633-3.981-2.244-8.601-3.886-13.014-2.789-7.611 1.88-11.573 11.058-19.095 13.271-3.348.978-6.94.426-10.338-.338-3.397-.765-6.814-1.762-10.293-1.63-2.734.1-5.573 1.047-7.485 2.915l-.051.056a7.49 7.49 0 00-.865 1.016c-2.332 3.134-2.708 7.29-1.987 11.089.802 4.257 2.79 8.188 4.921 11.955 2.508 4.439 5.366 8.852 9.516 11.811 5.128 3.655 11.567 1.135 17.842 1.63 14.625 1.153 30.36 1.937 44.992.809 7.73-.627 14.97.238 21.101-4.508 4.313-3.335 7.122-8.363 8.476-13.641 1.354-5.278 1.373-10.858.827-16.28z" fill="#DD2B50"/><path opacity=".24" d="M212.523 236.222c-.821 1.254-1.178 2.959-.382 4.238.796 1.279 1.881 2.451 2.219 3.925.545 2.307-.846 4.563-1.881 6.701a21.354 21.354 0 00-2.075 12.369 16.826 16.826 0 006.138 10.801c1.485 1.147 3.416 2.037 5.209 1.473 1.686-.526 2.771-2.238 3.135-3.974.363-1.737.056-3.523-.163-5.272a81.914 81.914 0 01.626-24.499c.239-1.348.464-2.89-.388-3.962a4.579 4.579 0 00-2.251-1.254c-3.26-1.085-6.776.119-10.155-.521" fill="#2F3646"/><path d="M127.873 281.246s-.294-4.902 6.1-7.636h112.371s5.861 2.972 6.582 7.523l-125.053.113z" fill="#2F3646"/><path d="M127.873 281.246s-.294-4.902 6.1-7.636h112.371s5.861 2.972 6.582 7.523l-125.053.113z" fill="url(#paint0_linear)"/><path d="M243.955 66.165l-.182.081-105.663-.677s-.376-.238-.934-.683a4.003 4.003 0 01-1.31-4.478 4 4 0 013.818-2.681l102.56.827c4.219.038 5.548 5.805 1.711 7.61z" fill="#2F3646"/><path opacity=".24" d="M227.027 106.474c.214.408-.583 1.254-2.093 2.633-1.511 1.379-3.762 3.191-6.558 5.467a86.051 86.051 0 01-10.657 7.522 42.686 42.686 0 01-7.297 3.354 34.401 34.401 0 01-4.194 1.16 28.581 28.581 0 01-4.532.589 24.183 24.183 0 01-9.109-1.254 32.795 32.795 0 01-7.322-3.761c-2.107-1.392-3.918-2.771-5.642-4.093a102.572 102.572 0 01-4.652-3.799c-5.548-4.809-8.469-8.344-7.905-9.028.564-.683 4.514 1.542 10.657 5.304l5.015 3.072c1.8 1.09 3.724 2.3 5.693 3.416a31.862 31.862 0 006.174 2.79c2.202.659 4.501.931 6.796.802 4.815-.251 9.485-1.943 13.528-3.899 4.044-1.956 7.705-4.238 10.877-6.018a54.718 54.718 0 017.849-3.824c1.987-.696 3.191-.828 3.372-.433z" fill="#2F3646"/><path d="M188.697 206.006a1.822 1.822 0 012.352.995 1.815 1.815 0 01-.964 2.365 1.817 1.817 0 01-1.476-3.322" fill="#F995A6"/><path d="M150.909 123.958a2.783 2.783 0 01-.376-.376l-1.022-1.116c-.432-.495-1.003-1.072-1.586-1.805l-1.993-2.508c-.683-.965-1.454-2.006-2.232-3.134l-1.147-1.825c-.194-.313-.401-.627-.589-.959l-.552-1.015a42.434 42.434 0 01-3.893-9.372 39.494 39.494 0 01-1.479-10.03c0-.784.043-1.543.056-2.289 0-.37 0-.733.05-1.09.05-.358.075-.709.113-1.054.081-.69.132-1.36.226-2 .094-.639.225-1.253.332-1.824.175-1.172.489-2.194.708-3.134.119-.452.213-.878.333-1.254l.344-1.047.483-1.436a2.66 2.66 0 01.188-.495 2.925 2.925 0 01-.125.514c-.107.364-.245.846-.427 1.455l-.313 1.046c-.107.383-.194.81-.307 1.254-.201.91-.495 1.937-.627 3.135-.1.576-.201 1.185-.307 1.818-.107.633-.132 1.297-.207 1.987 0 .345-.069.69-.107 1.047-.037.357 0 .72-.037 1.084 0 .74-.05 1.492-.044 2.27a39.73 39.73 0 001.46 9.974 43.183 43.183 0 003.843 9.315c.182.339.364.677.539 1.016.176.338.395.627.583.953l1.129 1.824c.765 1.153 1.523 2.194 2.188 3.134l1.956 2.508c.564.746 1.122 1.329 1.536 1.843l.977 1.16c.118.135.227.277.326.426zm-5.948 93.132c.031-.073.069-.142.113-.207l.376-.59c.169-.263.376-.576.627-.953l.395-.626c.156-.207.338-.414.52-.627l1.254-1.505c.483-.52 1.034-1.059 1.617-1.649a42.485 42.485 0 014.301-3.623c3.329-2.508 7.623-5.015 12.274-7.955a70.38 70.38 0 007.04-4.959 32.818 32.818 0 006.313-6.67 31.57 31.57 0 005.109-16.82 39.774 39.774 0 00-2.407-14.293 53.394 53.394 0 00-4.15-8.902 71.394 71.394 0 00-1.385-2.294l-.37-.59a2.63 2.63 0 01-.119-.206.911.911 0 01.144.188l.401.576c.345.502.84 1.254 1.436 2.264a50.836 50.836 0 014.262 8.889 39.75 39.75 0 012.508 14.375 33.77 33.77 0 01-.345 4.225 30.935 30.935 0 01-.921 4.332 29.4 29.4 0 01-3.943 8.444 33.087 33.087 0 01-6.382 6.739 71.177 71.177 0 01-7.078 4.965c-4.67 2.915-8.971 5.398-12.299 7.886a44.21 44.21 0 00-4.314 3.567c-.583.583-1.14 1.11-1.629 1.624l-1.254 1.473c-.188.226-.37.433-.527.627l-.407.596-.627.934-.401.57a1.59 1.59 0 01-.132.195zm-5.83 11.077c-.037.102-.084.2-.137.294l-.452.797c-.2.338-.439.764-.683 1.253-.245.489-.558 1.066-.821 1.724-.138.326-.289.665-.439 1.016-.151.351-.276.74-.427 1.128-.3.778-.539 1.63-.814 2.508a34.042 34.042 0 00-1.11 12.086c.106.928.182 1.818.345 2.633.069.408.125.809.207 1.185.081.376.169.74.25 1.085.138.696.345 1.304.496 1.843.15.539.301 1.003.438 1.379l.295.865c.042.098.07.201.082.307a1.195 1.195 0 01-.145-.282 49.82 49.82 0 00-.351-.846 13.754 13.754 0 01-.495-1.367c-.169-.539-.389-1.147-.545-1.843-.088-.345-.176-.708-.27-1.084-.094-.377-.15-.784-.232-1.191-.175-.828-.263-1.718-.376-2.652a32.817 32.817 0 011.116-12.162c.282-.903.533-1.762.852-2.539.157-.389.283-.771.446-1.128l.463-1.022c.276-.627.627-1.21.872-1.712.221-.431.466-.849.733-1.253l.502-.771c.125-.17.188-.257.2-.251zm77.504 15.07l-.125.088-.389.244-1.524.916-1.103.627c-.414.232-.871.445-1.36.689-.991.477-2.082 1.085-3.373 1.574l-2.006.821c-.696.276-1.454.495-2.219.758-1.524.558-3.216.96-4.978 1.417a58.345 58.345 0 01-23.577.627c-1.793-.363-3.498-.677-5.053-1.153-.777-.226-1.542-.402-2.257-.627l-2.043-.746c-1.311-.42-2.439-.966-3.448-1.392-.502-.219-.972-.414-1.392-.627l-1.141-.595-1.567-.834-.401-.226-.132-.081s.056 0 .15.056l.414.194 1.592.778 1.148.564c.426.201.902.382 1.404.596 1.009.401 2.138.934 3.454 1.335l2.019.733c.714.238 1.479.408 2.256.627 1.549.464 3.248.759 5.016 1.116a59.584 59.584 0 0023.458-.627c1.755-.451 3.442-.834 4.965-1.379.765-.257 1.517-.464 2.213-.74l2.006-.796c1.291-.476 2.388-1.066 3.379-1.523.489-.238.953-.445 1.367-.627l1.115-.627 1.549-.865.407-.213c.126-.069.176-.088.176-.082zm6.536-132.682a.647.647 0 01-.132.119l-.414.339c-.382.307-.915.74-1.598 1.254a250.522 250.522 0 01-5.962 4.607 86.087 86.087 0 01-9.322 6.219 42.038 42.038 0 01-6.006 2.765 27.38 27.38 0 01-6.933 1.542 26.33 26.33 0 01-13.315-2.771 45.207 45.207 0 01-5.147-3.059 73.902 73.902 0 01-4.163-3.135c-2.507-1.993-4.426-3.68-5.78-4.833l-1.548-1.342-.395-.351-.132-.131s.057 0 .151.1l.42.332 1.586 1.292c1.379 1.128 3.347 2.783 5.842 4.751a87.619 87.619 0 004.176 3.085 45.759 45.759 0 005.121 3.009 26.23 26.23 0 0013.165 2.714 27.147 27.147 0 006.852-1.517 42.04 42.04 0 005.968-2.727 89.984 89.984 0 009.334-6.087c2.558-1.881 4.596-3.448 6.019-4.52l1.636-1.254.432-.313a.58.58 0 01.145-.088z" fill="#2F3646"/><path opacity=".24" d="M166.633 248.503c2.971-2.294 7.146-1.743 10.82-.965 3.674.777 7.372 2.025 11.09 1.504 2.802-.395 5.372-1.768 8.149-2.369 2.778-.602 6.119-.157 7.655 2.219a59.556 59.556 0 01-37.695-.389" fill="#2F3646"/><path d="M270.285 231.489l-13.479-15.114-.138 18.374 4.063 11.786-40.385 7.002-1.711-31.865-2.909-24.449a6.644 6.644 0 014.162-6.965l11.115-4.388 15.673 2.871 6.3 2.395a17.292 17.292 0 016.858 4.771l18.957 21.678" fill="#E3D0D4"/><path d="M255.867 212.739a19.918 19.918 0 002.276-.163 9.236 9.236 0 007.591-6.996c.157-.748.272-1.503.345-2.263.051.204.07.416.057.626a7.648 7.648 0 01-.176 1.693 9.052 9.052 0 01-7.78 7.178 8.033 8.033 0 01-1.698.038 1.984 1.984 0 01-.615-.113z" fill="#2F3646"/><path d="M257.038 233.966c.094 0 .119-6.37.056-14.218-.063-7.849-.194-14.212-.288-14.212-.094 0-.119 6.363-.057 14.218.063 7.855.195 14.212.289 14.212z" fill="#2F3646"/><path d="M255.558 238.636l-24.398-9.824a5.572 5.572 0 01-3.48-4.745l-1.786-23.396s.213-9.955-6.006-10.438l-3.517 1.392c-4.57 2.426-5.698 9.084-5.078 14.218.884 7.297 1.254 17.628 2.238 23.96.815 5.184 3.762 9.742 8.852 11.077l30.054 6.507 3.121-8.751z" fill="#E3D0D4"/><path d="M226.247 204.238c.04.175.066.354.075.533.037.382.094.896.157 1.542.125 1.373.301 3.304.514 5.674.213 2.369.451 5.259.727 8.419.063.796.132 1.605.2 2.432.049.842.154 1.68.314 2.508.17.837.595 1.601 1.216 2.188a8.176 8.176 0 002.251 1.404c6.726 2.909 12.926 5.316 17.427 7.002l5.348 1.969 1.454.532c.17.057.336.126.495.207a2.95 2.95 0 01-.52-.144l-1.473-.476c-1.254-.427-3.135-1.06-5.379-1.881-4.532-1.63-10.739-4-17.49-6.896a8.536 8.536 0 01-2.339-1.467 4.475 4.475 0 01-1.304-2.357c-.161-.84-.264-1.69-.307-2.545-.069-.834-.131-1.642-.194-2.439-.245-3.134-.47-6.018-.627-8.425-.157-2.407-.313-4.307-.414-5.68a78.224 78.224 0 01-.094-1.548 3.188 3.188 0 01-.037-.552zm-13.982 12.72c.025.103.04.208.044.313l.081.903c.076.834.17 1.956.289 3.323.119 1.366.307 3.065.552 4.908a47.246 47.246 0 001.097 5.924 8.897 8.897 0 001.191 2.828 17.237 17.237 0 001.824 2.238 15.704 15.704 0 003.905 2.927 14.725 14.725 0 004.288 1.404 1.217 1.217 0 01-.319 0 7.04 7.04 0 01-.903-.119 11.818 11.818 0 01-3.172-1.072 15.252 15.252 0 01-4.012-2.921 16.6 16.6 0 01-1.881-2.276 9.1 9.1 0 01-1.254-2.915 44.326 44.326 0 01-1.084-5.974 103.557 103.557 0 01-.665-8.262v-.909a1.042 1.042 0 01.019-.32z" fill="#2F3646"/><path d="M222.696 233.326c.064-.457.215-.897.445-1.298a8.414 8.414 0 014.953-4.231 3.538 3.538 0 011.354-.232c-.41.171-.829.322-1.254.451a9.597 9.597 0 00-4.827 4.119c-.439.721-.621 1.21-.671 1.191zm4.804-17.791a.552.552 0 01.15.069l.439.232c.566.279 1.148.523 1.743.733 2.194.77 4.546.973 6.839.589a13.503 13.503 0 008.501-5.284 11.234 11.234 0 002.226-5.529 7.55 7.55 0 00-.326-3.135 6.388 6.388 0 00-1.756-2.689 5.38 5.38 0 00-2.865-1.392 3.425 3.425 0 00-2.871.809c-.35.342-.552.808-.564 1.297.011.487.178.957.476 1.342a3.67 3.67 0 002.508 1.298 10.227 10.227 0 009.109-3.592 10.223 10.223 0 001.843-3.455 10.93 10.93 0 00.464-2.94 11.163 11.163 0 00-.138-1.88 12.916 12.916 0 01-.088-.483.954.954 0 010-.169c.259.81.386 1.657.376 2.507a10.495 10.495 0 01-.414 2.99 10.315 10.315 0 01-11.177 7.291 3.933 3.933 0 01-2.683-1.404 2.558 2.558 0 01-.539-1.53c0-.57.225-1.117.627-1.523a3.754 3.754 0 013.134-.903 5.648 5.648 0 013.041 1.473 6.624 6.624 0 011.843 2.828 7.843 7.843 0 01.338 3.26 11.477 11.477 0 01-2.301 5.642 13.469 13.469 0 01-15.628 4.639 9.748 9.748 0 01-2.307-1.091zm-15.988-6.238c.106-.187.241-.357.401-.501a9.042 9.042 0 011.316-1.148 11.08 11.08 0 015.398-1.912 10.443 10.443 0 013.185.132 9.705 9.705 0 012.451.865c.52.262 1.018.564 1.492.903.183.112.348.252.489.414-.038.05-.765-.502-2.082-1.11a10.214 10.214 0 00-5.497-.878 11.562 11.562 0 00-5.304 1.775c-1.21.808-1.805 1.504-1.849 1.46zm3.906-16.731a9.672 9.672 0 001.975 1.435 7.041 7.041 0 002.508.74 6.68 6.68 0 003.134-.439 6.582 6.582 0 002.508-1.881 7.21 7.21 0 001.254-2.3c.225-.786.353-1.597.382-2.414.061.216.088.44.081.665a6.083 6.083 0 01-.244 1.818 7.018 7.018 0 01-1.254 2.419 6.409 6.409 0 01-5.955 2.458 6.947 6.947 0 01-2.589-.828 6.01 6.01 0 01-1.455-1.116 1.805 1.805 0 01-.345-.557zm21.265 38.472c.001-.156.018-.311.05-.464a4.98 4.98 0 01.432-1.254 6.95 6.95 0 013.649-3.172 10.688 10.688 0 017.178-.257c1.291.383 2.771.859 3.761 2.119a2.256 2.256 0 01.276 2.294 3.633 3.633 0 01-1.737 1.637 5.58 5.58 0 01-2.313.576 3.388 3.388 0 01-2.219-.689 2.83 2.83 0 01-.99-2.013 5.042 5.042 0 01.332-2.112 9.495 9.495 0 015.015-5.091 9.913 9.913 0 014.802-.827c.599.046 1.189.17 1.755.37 0 .044-.627-.163-1.768-.245a10.031 10.031 0 00-7.447 2.74 8.772 8.772 0 00-2.1 3.134 4.747 4.747 0 00-.307 1.988 2.505 2.505 0 00.89 1.786 3.04 3.04 0 002.006.627 5.188 5.188 0 002.169-.539 3.348 3.348 0 001.592-1.486 1.95 1.95 0 00-.238-1.974 4.522 4.522 0 00-1.636-1.292 11.763 11.763 0 00-1.925-.721 10.548 10.548 0 00-7.008.182 6.937 6.937 0 00-3.624 3.015 6.72 6.72 0 00-.595 1.668zm-16.249 8.808c0-.063.927-.138 2.338-.627a11.693 11.693 0 007.485-8.3c.357-1.455.345-2.401.408-2.395.043.217.054.439.031.658a9.596 9.596 0 01-.213 1.787 11.249 11.249 0 01-7.636 8.444 9.584 9.584 0 01-1.755.395 2.308 2.308 0 01-.658.038zm-7.912-18.186c.093-.052.192-.092.295-.12.201-.062.489-.15.871-.25a10.77 10.77 0 013.329-.339 7.018 7.018 0 012.257.558c.834.36 1.56.93 2.106 1.655.601.823.891 1.83.822 2.846a3.512 3.512 0 01-.483 1.53 2.42 2.42 0 01-1.254 1.066 1.684 1.684 0 01-1.649-.326 2.203 2.203 0 01-.57-1.518 6.535 6.535 0 01.577-2.902 6.36 6.36 0 016.896-3.705c.3.047.596.12.884.219.194.076.294.12.288.132-.006.013-.42-.132-1.191-.226a6.61 6.61 0 00-3.216.414 6.163 6.163 0 00-3.367 3.285 6.332 6.332 0 00-.532 2.765 1.88 1.88 0 00.476 1.304 1.36 1.36 0 001.323.25 2.128 2.128 0 001.103-.927c.25-.423.4-.897.439-1.386a4.065 4.065 0 00-.746-2.645 4.91 4.91 0 00-1.975-1.58 6.755 6.755 0 00-2.169-.577 11.309 11.309 0 00-3.272.232c-.809.157-1.229.27-1.242.245z" fill="#2F3646"/><path opacity=".3" d="M248.545 235.846c-2.607-1.473-5.159-2.608-7.886-3.843-2.727-1.235-5.404-2.833-7.19-5.241-3.367-4.538-2.984-11.089-6.426-15.565.226 3.009.449 6.02.671 9.033.207 2.759-.213 5.492 1.561 7.366 1.498 1.58 4.419 2.79 6.488 3.473 4.156 1.373 8.632 3.41 12.782 4.777" fill="#2F3646"/><path d="M290.973 270.231s20.418 5.642 21.239 5.943c1.254.433 1.022 4.94-.89 4.865-.909-.031-15.673.552-17.553.439-1.881-.113-7.523-2.339-7.523-2.339l4.727-8.908z" fill="#F995A6"/><path d="M299.453 278.024c.253-.751.554-1.484.903-2.195.44-.657.921-1.285 1.442-1.88a4.52 4.52 0 00-2.345 4.068v.007zm-2.129-.966c.101 0 .307-.946.853-2.012.545-1.066 1.185-1.812 1.116-1.881a5.107 5.107 0 00-1.969 3.899v-.006zm-1.965-.533c.1-.73.26-1.452.476-2.156.321-.665.692-1.305 1.11-1.912a3.829 3.829 0 00-1.586 4.068z" fill="#2F3646"/><path d="M295.694 273.886c.18-.484.254-1.002.219-1.517a7.504 7.504 0 00-.207-1.668 6.566 6.566 0 00-.307-.946 1.074 1.074 0 00-.326-.502.553.553 0 00-.702.038.891.891 0 00-.27.577 3.234 3.234 0 000 .539c.002.336.044.67.126.996a6.02 6.02 0 00.627 1.561c.224.472.535.897.915 1.254.05 0-.295-.508-.702-1.341a6.703 6.703 0 01-.533-1.517c-.066-.307-.1-.62-.1-.934 0-.314 0-.703.188-.853a.198.198 0 01.269 0c.102.1.179.222.226.357a7.998 7.998 0 01.577 2.495c.037.878-.057 1.455 0 1.461z" fill="#2F3646"/><path d="M295.668 273.679a2.88 2.88 0 00-1.317-.213 6.04 6.04 0 00-1.448.176 3.497 3.497 0 00-.84.307.87.87 0 00-.458.934 1.037 1.037 0 00.734.733c.3.076.615.076.915 0 .483-.11.937-.324 1.329-.627.372-.248.693-.565.947-.934-.377.221-.74.466-1.085.734-.379.26-.805.445-1.254.545a1.544 1.544 0 01-.758 0 .69.69 0 01-.495-.482.529.529 0 01.3-.571c.233-.128.482-.225.74-.288.45-.129.912-.208 1.379-.239.797-.1 1.298-.018 1.311-.075zm6.922 4.564c.087-.624.223-1.24.407-1.843.287-.56.62-1.095.997-1.599a2.943 2.943 0 00-1.404 3.442zm-14.246.946c.247.157.512.283.79.377.741.281 1.499.515 2.269.702 2.56.558 5.179.807 7.799.739 3.059-.037 5.817-.175 7.817-.257l2.363-.125c.291-.005.58-.034.865-.088a4.163 4.163 0 00-.871-.044h-2.363l-7.811.151a36.627 36.627 0 01-7.743-.627c-1.955-.395-3.09-.897-3.115-.828z" fill="#2F3646"/><path d="M287.743 279.653c0 .044.583-.282 1.53-.695a7.063 7.063 0 013.861-.627 6.136 6.136 0 013.342 1.981c.362.428.754.83 1.172 1.203a6.25 6.25 0 00-.997-1.366 8.09 8.09 0 00-1.354-1.254 4.845 4.845 0 00-2.112-.89 6.766 6.766 0 00-4.019.758c-.519.218-1 .519-1.423.89z" fill="#2F3646"/><path d="M269.277 264.596s-19.321 12.65-20.011 13.164c-1.04.784.151 4.526 1.956 3.881.853-.307 17.064-4.821 18.807-5.498 1.743-.677 6.438-4.476 6.438-4.476l-7.19-7.071z" fill="#F995A6"/><path d="M263.539 274.601a4.519 4.519 0 00-3.473-3.166 17.7 17.7 0 011.95 1.354 18.938 18.938 0 011.523 1.812zm1.73-1.568a5.125 5.125 0 00-3.053-3.134c-.05.088.796.627 1.63 1.454.834.828 1.335 1.731 1.423 1.68zm1.745-1.115a3.141 3.141 0 00-.84-2.126 3.136 3.136 0 00-1.881-1.253c.581.454 1.128.95 1.636 1.485a13.82 13.82 0 011.085 1.894z" fill="#2F3646"/><path d="M265.897 269.517c.05 0-.214-.546-.433-1.448a7.86 7.86 0 01-.232-1.599 7.216 7.216 0 010-.953.784.784 0 01.107-.407.192.192 0 01.119-.085.191.191 0 01.144.022c.219.088.332.464.439.765.092.298.155.605.188.915a6.734 6.734 0 01-.05 1.611c-.132.915-.314 1.473-.264 1.492.259-.448.429-.942.502-1.454.12-.55.162-1.113.125-1.674a4.765 4.765 0 00-.181-.991 4.173 4.173 0 00-.189-.507.894.894 0 00-.438-.47.543.543 0 00-.677.181 1.117 1.117 0 00-.157.577 7.034 7.034 0 00.301 2.646c.132.503.369.973.696 1.379z" fill="#2F3646"/><path d="M265.828 269.31c0 .05.477-.176 1.254-.37a6.952 6.952 0 011.385-.188c.267-.018.534-.002.796.05a.55.55 0 01.307.149.55.55 0 01.157.302.695.695 0 01-.332.627 1.574 1.574 0 01-.715.238 3.459 3.459 0 01-1.36-.138 9.063 9.063 0 00-1.254-.369c.354.282.758.495 1.191.626a3.42 3.42 0 001.461.22 1.81 1.81 0 00.871-.276 1.007 1.007 0 00.483-.915.865.865 0 00-.721-.752 3.317 3.317 0 00-.89-.038 6.222 6.222 0 00-1.436.269 2.908 2.908 0 00-1.197.565zm-12.152 11.635c0 .031.326-.195.477-.746.15-.721.02-1.472-.364-2.1a7.94 7.94 0 00-.627-.966 3.742 3.742 0 00-.658-.702 1.141 1.141 0 00-.627-.257c-.163 0-.244.032-.244.05 0 .019.345.032.702.395.211.213.398.449.558.702.225.303.434.617.627.941.346.562.496 1.224.426 1.88a7.077 7.077 0 01-.27.803zm6.941-5.184a2.363 2.363 0 00-.684-1.85 2.33 2.33 0 00-1.699-.997c.513.364.993.771 1.436 1.217.361.515.677 1.061.947 1.63z" fill="#2F3646"/><path d="M274.479 272.338c-.3.167-.585.36-.852.576a24.394 24.394 0 01-2.383 1.461 31.12 31.12 0 01-3.761 1.686c-1.467.546-3.134 1.06-4.84 1.561a869.552 869.552 0 00-8.895 2.602l-2.702.846a5.964 5.964 0 00-.972.351c.342-.046.679-.12 1.01-.219l2.714-.759a717.386 717.386 0 008.921-2.507c1.736-.508 3.385-1.035 4.852-1.599a28.711 28.711 0 003.793-1.768 19.173 19.173 0 002.344-1.567c.275-.2.533-.422.771-.664z" fill="#2F3646"/><path d="M275.194 272.595a5.57 5.57 0 00-1.636-.439 6.798 6.798 0 00-4.063.501c-.686.36-1.276.88-1.717 1.517a8.117 8.117 0 00-.909 1.618 6.053 6.053 0 00-.533 1.604c.284-.484.535-.986.752-1.504a6.138 6.138 0 012.583-2.909 7.09 7.09 0 013.874-.558c1.003.082 1.636.22 1.649.17zm34.235-38.849s5.799 2.069 5.818 8.57c.05 12.443-25.151 26.166-25.151 26.166l-33.539-22.217-2.1-.852s45.293-17.002 54.972-11.667z" fill="#2F3646"/><path d="M309.429 233.746s5.799 2.069 5.818 8.57c.05 12.443-25.151 26.166-25.151 26.166l-33.539-22.217-2.1-.852s45.293-17.002 54.972-11.667z" fill="url(#paint1_linear)"/><path d="M273.543 257.486a6.23 6.23 0 00.878-.589c.545-.401 1.329-.99 2.288-1.736a185.76 185.76 0 007.347-6 183.966 183.966 0 007.04-6.35c.878-.834 1.58-1.524 2.062-2.006.261-.236.5-.494.715-.771a6.15 6.15 0 00-.809.677l-2.131 1.924a364.34 364.34 0 01-7.103 6.269 393.467 393.467 0 01-7.265 6.068l-2.226 1.818a6.76 6.76 0 00-.796.696zm26.418-19.088a8.333 8.333 0 00-6.106 1.799c.057.094 1.254-.69 2.972-1.179 1.718-.489 3.134-.514 3.134-.62z" fill="#455A64"/><path d="M297.073 236.435a5.134 5.134 0 00-3.034 3.762c.1 0 .464-1.009 1.31-2.044.847-1.034 1.781-1.63 1.724-1.718z" fill="#455A64"/><path d="M311.271 275.855c0-.038-.401-.119-.865.263-.547.509-.89 1.2-.966 1.943a3.831 3.831 0 00.301 2.151c.239.507.502.745.533.72a5.975 5.975 0 00-.307-.815 4.334 4.334 0 01-.188-2.006 3.36 3.36 0 01.79-1.818c.357-.369.708-.382.702-.438z" fill="#2F3646"/><path d="M301.71 213.403l-11.942 30.279-51.424.84-.953-2.783 18.023-.652 8.664-26.862 37.632-.822z" fill="#455A64"/><path d="M277.694 226.531a2.286 2.286 0 012.476.269 1.987 1.987 0 01.483 2.188 2.164 2.164 0 01-1.881 1.298 1.958 1.958 0 01-1.969-1.298 2.216 2.216 0 01.866-2.457" fill="#EBEBEB"/><path d="M293.265 269.999s-47.381-31.081-49.312-31.727c-1.93-.646-6.632-3.717-11.315-2.426s-8.896 5.498-10.996 11.641c-1.203 3.511-1.768 9.498-2.037 13.993a20.783 20.783 0 004.858 14.794 13.218 13.218 0 005.906 4.194c.495.157 1.009.289 1.536.402 8.958 1.943 18.179-2.082 23.195-9.742l1.103-1.68s31 11.384 31.483 11.227l5.579-10.676z" fill="#2F3646"/><path d="M293.265 269.999s-47.381-31.081-49.312-31.727c-1.93-.646-6.632-3.717-11.315-2.426s-8.896 5.498-10.996 11.641c-1.203 3.511-1.768 9.498-2.037 13.993a20.783 20.783 0 004.858 14.794 13.218 13.218 0 005.906 4.194c.495.157 1.009.289 1.536.402 8.958 1.943 18.179-2.082 23.195-9.742l1.103-1.68s31 11.384 31.483 11.227l5.579-10.676z" fill="url(#paint2_linear)"/><path d="M234.652 261.442c.083.042.169.08.257.113l.777.307 3.003 1.16 11.165 4.207a2193.418 2193.418 0 0016.795 6.193c6.375 2.32 13.434 4.859 20.982 7.41l.131.05.069-.131 3.705-7.072 1.881-3.604.069-.138-.132-.082-36.14-22.944-10.858-6.846-2.946-1.843-.772-.47a2.89 2.89 0 00-.269-.15l.251.181.752.496 2.915 1.88 10.833 6.953 36.084 23.032-.063-.226c-.596 1.147-1.254 2.37-1.881 3.605l-3.698 7.071.207-.082c-7.523-2.545-14.607-5.077-20.989-7.378l-16.819-6.119-11.228-4.125-3.022-1.103-.79-.276-.269-.069z" fill="#455A64"/><path d="M239.566 151.078c.809-2.188 2.595-3.135 4.859-3.68a7.261 7.261 0 016.5 1.674c1.148 1.046 1.988 2.507 3.404 3.134 2.339 1.059 5.329-.489 7.523.809a3.307 3.307 0 011.447 3.939 3.314 3.314 0 01-3.578 2.192c1.523.714 1.805 3.009.758 4.325-1.047 1.317-2.984 1.674-4.607 1.216a9.295 9.295 0 01-4.107-2.827c-1.141-1.254-2.144-2.601-3.385-3.761a7.198 7.198 0 00-4.463-2.119c-2.276-.088-4.389 1.448-5.573 3.385-1.185 1.937-1.643 4.238-1.975 6.495-.332 2.257-.583 4.551-1.454 6.657-.101.251-.251.521-.508.577-.383.082-.658-.338-.809-.696a33.408 33.408 0 01-2.671-12.726c-.031-2.507.258-4.908 1.831-6.896 1.574-1.987 5.203-3.222 6.789-1.73" fill="#2F3646"/><path d="M234.471 161.223h0l-3.485 25.314 3.485-25.314zm0 0l.001-.006m-.001.006l.001-.006m0 0c.368-3.296 1.663-6.194 3.67-8.147 2-1.947 4.719-2.968 7.977-2.504l.619.117h.001a11.78 11.78 0 019.391 12.891c-.684 5.794-1.529 12.177-2.153 15.217-.65 3.057-2.546 4.507-4.285 5.202a9.114 9.114 0 01-3.061.63c-.088.002-.155.002-.201.002h-.01l-.04-.001h-.015 0l-11.893-23.407zm3.162 33.894l.022-.25a7.358 7.358 0 007.93-6.335l.032-.234c.116-.85.223-1.635.308-2.243.091-.653.159-1.12.184-1.231l.046-.203-8.522 10.496zm0 0l.021-.25a7.351 7.351 0 01-6.669-8.324l6.648 8.574z" fill="#fff" stroke="#2F3646" stroke-width=".5"/><path d="M246.08 184.018A15.038 15.038 0 01238.3 180s1.04 4.94 7.466 5.642l.314-1.624z" fill="#D4BFC4"/><path d="M253.652 167.477a.912.912 0 01-1.053.733.87.87 0 01-.765-.996.917.917 0 011.053-.74.884.884 0 01.595.339.887.887 0 01.17.664zm.717-1.041c-.138.101-.721-.545-1.693-.739-.971-.195-1.786.156-1.88 0-.094-.157.119-.251.476-.414a2.456 2.456 0 011.517-.157c.506.097.968.354 1.317.734.269.301.326.539.263.576zm-10.322-.539a.914.914 0 01-1.053.74.883.883 0 01-.595-.341.898.898 0 01-.176-.662.93.93 0 011.053-.74.895.895 0 01.597.339.89.89 0 01.174.664zm.724-1.185c-.138.094-.721-.551-1.692-.746-.972-.194-1.787.157-1.881 0-.094-.156.119-.25.476-.413a2.504 2.504 0 011.518-.157 2.51 2.51 0 011.322.733c.264.339.32.54.257.583zm2.088 7.906a6.274 6.274 0 011.637.031c.257 0 .501 0 .576-.144a1.25 1.25 0 000-.765c-.113-.627-.232-1.329-.357-2.044-.483-2.896-.777-5.253-.665-5.272.113-.019.627 2.313 1.085 5.21.113.714.226 1.391.326 2.043a1.44 1.44 0 01-.069 1.003.634.634 0 01-.476.276c-.144.02-.29.02-.433 0a6.678 6.678 0 01-1.624-.338zm-2.997.112c.163 0-.05 1.079.703 2.007.752.927 1.88 1.04 1.88 1.191 0 .15-.288.15-.765.069a2.707 2.707 0 01-1.586-.928 2.354 2.354 0 01-.52-1.674c.05-.451.219-.69.288-.665zm1.917-11.785c-.144.251-1.091-.069-2.263-.163s-2.15.037-2.257-.232c-.044-.125.169-.339.589-.52a3.828 3.828 0 011.756-.251c.6.046 1.18.235 1.692.552.383.25.539.501.483.614zm8.789 2.608c-.213.188-.834-.176-1.642-.351-.809-.176-1.518-.145-1.624-.408-.05-.125.1-.326.445-.476.449-.177.942-.21 1.41-.094.473.099.901.348 1.223.708.232.282.288.527.188.621z" fill="#2F3646"/><path d="M233.805 165.979c-.1-.069-4.093-2.157-4.821 2.2-.727 4.357 3.799 4.188 3.824 4.062.025-.125.997-6.262.997-6.262z" fill="#D4BFC4"/><path d="M231.757 170.367s-.082.044-.22.081a.777.777 0 01-.57-.081 1.874 1.874 0 01-.589-1.831c.05-.376.185-.736.395-1.053a.882.882 0 01.261-.332.91.91 0 01.384-.176.396.396 0 01.414.289c.038.125 0 .213 0 .219 0 .007.107-.056.1-.238a.493.493 0 00-.125-.301.555.555 0 00-.401-.182 1.087 1.087 0 00-.903.539c-.249.348-.41.75-.47 1.173-.119.884.194 1.78.796 2.062a.819.819 0 00.715 0c.188-.062.225-.157.213-.169zm26.191-7.78a9.327 9.327 0 01-7.755-3.448c-1.253-1.617-2.087-3.73-3.899-4.708a5.256 5.256 0 00-4.043-.25 10.196 10.196 0 00-3.523 2.144c.576 3.46-.96 6.895-2.458 10.03-.129.37-.378.685-.708.896-.59.295-1.292-.169-1.649-.727a5.462 5.462 0 01-.627-3.053c.013-2.408.504-4.79 1.442-7.008a12.362 12.362 0 014.557-5.454 11.718 11.718 0 018.658-1.436 14.422 14.422 0 017.592 4.557 8.466 8.466 0 012.049 3.593M82.505 264.677c.028-.092.066-.18.113-.263l.351-.759c.433-.981.783-1.995 1.047-3.034.69-2.696.928-6.814-.094-11.704a62.162 62.162 0 00-2.169-7.868c-.921-2.789-1.987-5.748-2.858-8.952a34.718 34.718 0 01-1.41-10.293c.13-3.642 1.209-7.278 2.394-10.896 1.185-3.617 2.407-7.165 2.77-10.726a16.3 16.3 0 00-1.962-9.905c-1.573-2.896-3.541-5.366-5.015-7.93a27.57 27.57 0 01-3.021-7.617 28.427 28.427 0 01-.188-11.804 22.32 22.32 0 011.254-4.169c-.015.096-.038.19-.07.282l-.25.796a28.181 28.181 0 00-.458 14.833 27.23 27.23 0 003.028 7.522c1.473 2.508 3.454 5.016 5.053 7.918a16.7 16.7 0 012 10.093c-.37 3.623-1.605 7.19-2.784 10.808-1.178 3.617-2.25 7.209-2.382 10.789a34.48 34.48 0 001.373 10.193c.859 3.184 1.918 6.143 2.82 8.946a61.616 61.616 0 012.139 7.911c.996 4.927.708 9.09 0 11.792a17.206 17.206 0 01-1.116 3.028c-.163.313-.295.558-.389.746a1.65 1.65 0 01-.175.263z" fill="#2F3646"/><path d="M77.67 184.873s-3.003-9.591 2.382-15.208a.328.328 0 01.155-.094.328.328 0 01.335.095c.041.046.07.102.08.162.29 1.586.647 6.413-2.952 15.045z" fill="#F995A6"/><path d="M79.47 172.862a8.956 8.956 0 01-.207 1.768c-.194 1.254-.426 2.652-.683 4.232-.257 1.579-.477 3.015-.671 4.231a9.387 9.387 0 01-.32 1.755 7.69 7.69 0 01.057-1.786c.1-1.097.294-2.602.564-4.257.27-1.655.558-3.134.796-4.219.088-.59.244-1.169.464-1.724z" fill="#2F3646"/><path d="M81.195 207.504s1.837-9.886 9.222-12.318a.329.329 0 01.34.075.331.331 0 01.086.339c-.476 1.517-2.426 5.955-9.648 11.904z" fill="#F995A6"/><path d="M88.404 197.725a8.993 8.993 0 01-1.01 1.467c-.739.99-1.617 2.144-2.582 3.422l-2.595 3.43a9.71 9.71 0 01-1.104 1.397c.233-.55.53-1.072.884-1.554a67.516 67.516 0 012.508-3.498 130.642 130.642 0 012.677-3.36 7.719 7.719 0 011.222-1.304z" fill="#2F3646"/><path d="M79.2 232.298s-1.115-9.993 5.241-14.481a.33.33 0 01.349-.025.336.336 0 01.178.301c-.019 1.604-.59 6.413-5.768 14.205z" fill="#F995A6"/><path d="M83.255 220.844a8.42 8.42 0 01-.54 1.699l-1.479 4.025-1.46 4.025a9.272 9.272 0 01-.628 1.661 8.036 8.036 0 01.395-1.743 61.203 61.203 0 011.367-4.075 92.015 92.015 0 011.586-3.987c.191-.562.446-1.1.759-1.605z" fill="#2F3646"/><path d="M84.76 257.248s-.758-10.03 5.755-14.28a.332.332 0 01.52.288c-.08 1.599-.82 6.382-6.275 13.992z" fill="#F995A6"/><path d="M89.224 245.964c-.15.58-.36 1.143-.627 1.68-.47 1.141-1.016 2.508-1.624 3.962l-1.61 3.975a9.587 9.587 0 01-.64 1.605 7.55 7.55 0 01.457-1.724c.339-1.047.872-2.47 1.511-4.019a87.8 87.8 0 011.724-3.93 7.93 7.93 0 01.809-1.549z" fill="#2F3646"/><path d="M73.358 176.448s-8.909-4.652-9.084-12.431a.331.331 0 01.348-.347.333.333 0 01.172.058c1.323.916 4.99 4.069 8.564 12.72z" fill="#F995A6"/><path d="M66.121 166.687a8.75 8.75 0 011.11 1.392l2.507 3.473 2.508 3.467c.382.455.722.944 1.015 1.46a7.088 7.088 0 01-1.253-1.297 58.813 58.813 0 01-2.62-3.404 86.357 86.357 0 01-2.427-3.548 7.71 7.71 0 01-.84-1.543z" fill="#2F3646"/><path d="M82.926 197.067s-9.171-4.1-9.823-11.855a.334.334 0 01.155-.31.33.33 0 01.346-.003c1.38.808 5.235 3.736 9.322 12.168z" fill="#F995A6"/><path d="M75.113 187.751c.44.4.839.843 1.19 1.323l2.722 3.316 2.727 3.304a9.02 9.02 0 011.09 1.373 8.117 8.117 0 01-1.297-1.254 62.598 62.598 0 01-2.821-3.241 83.318 83.318 0 01-2.633-3.392 7.659 7.659 0 01-.978-1.429z" fill="#2F3646"/><path d="M77.647 220.036s-6.3-7.836-3.34-15.046a.332.332 0 01.59-.056c.845 1.385 2.932 5.742 2.75 15.102z" fill="#F995A6"/><path d="M74.926 208.194a8.71 8.71 0 01.458 1.718c.263 1.209.57 2.626.915 4.193.345 1.568.627 2.978.922 4.182.167.571.283 1.157.344 1.749a7.182 7.182 0 01-.626-1.68 55.786 55.786 0 01-1.035-4.175 97.742 97.742 0 01-.802-4.213 8.145 8.145 0 01-.176-1.774z" fill="#2F3646"/><path d="M83.89 247.08s-9.11-4.25-9.624-12.024a.332.332 0 01.502-.307c1.367.859 5.172 3.849 9.121 12.331z" fill="#F995A6"/><path d="M76.227 237.646c.435.406.828.855 1.172 1.341.765.972 1.667 2.106 2.664 3.36l2.67 3.354c.402.439.763.913 1.079 1.417a7.442 7.442 0 01-1.254-1.254 60.092 60.092 0 01-2.758-3.285c-1.034-1.316-1.975-2.532-2.602-3.429a8.38 8.38 0 01-.971-1.504zm25.8-30.092a.95.95 0 010 .226v.627c0 .627-.063 1.423-.107 2.439-.119 2.144-.282 5.128-.476 8.707-.627 3.636-2.508 7.667-5.015 11.579-1.825 2.884-3.762 5.51-5.385 7.949A56.184 56.184 0 0087 245.757a28.026 28.026 0 00-2.232 6.288 2.505 2.505 0 01-.131.483 2.45 2.45 0 01.056-.495c.044-.326.144-.803.282-1.411a26.154 26.154 0 011.793-5.015 53.85 53.85 0 013.993-6.752c1.637-2.457 3.542-5.084 5.36-7.949 2.508-3.899 4.313-7.867 5.016-11.447.25-3.567.457-6.551.626-8.695.082-1.015.151-1.83.195-2.432 0-.251.05-.464.069-.627a.636.636 0 010-.151z" fill="#2F3646"/><path d="M96.632 230.417s3.856-9.284-.996-15.365a.332.332 0 00-.583.113c-.458 1.555-1.254 6.35 1.58 15.252z" fill="#F995A6"/><path d="M95.9 218.293a8.17 8.17 0 01.307 1.756 81.94 81.94 0 01.407 4.275c.12 1.674.176 3.191.176 4.288a7.176 7.176 0 01-.107 1.78 9.23 9.23 0 01-.156-1.768c-.082-1.253-.182-2.676-.289-4.275-.106-1.599-.213-3.047-.294-4.275a9.061 9.061 0 01-.044-1.781z" fill="#2F3646"/><path opacity=".3" d="M96.632 230.417s3.856-9.284-.996-15.365a.332.332 0 00-.583.113c-.458 1.555-1.254 6.35 1.58 15.252z" fill="#2F3646"/><path d="M84.662 252.785s3.09-9.56-2.238-15.227a.334.334 0 00-.487-.003.331.331 0 00-.083.159c-.308 1.58-.709 6.401 2.808 15.071z" fill="#F995A6"/><path d="M82.973 240.755a7.93 7.93 0 01.445 1.73c.225 1.072.501 2.564.758 4.225a60.66 60.66 0 01.52 4.263 7.35 7.35 0 01.038 1.787 9.931 9.931 0 01-.3-1.755c-.183-1.254-.396-2.652-.628-4.238-.231-1.586-.457-3.016-.626-4.238a9.068 9.068 0 01-.207-1.774z" fill="#2F3646"/><path opacity=".3" d="M84.662 252.785s3.09-9.56-2.238-15.227a.334.334 0 00-.487-.003.331.331 0 00-.083.159c-.308 1.58-.709 6.401 2.808 15.071z" fill="#2F3646"/><path d="M101.512 219.077s8.237-5.768 7.403-13.503a.328.328 0 00-.208-.28.335.335 0 00-.343.06c-1.191 1.116-4.426 4.683-6.852 13.723z" fill="#F995A6"/><path opacity=".3" d="M101.512 219.077s8.237-5.768 7.403-13.503a.328.328 0 00-.208-.28.335.335 0 00-.343.06c-1.191 1.116-4.426 4.683-6.852 13.723z" fill="#2F3646"/><path d="M107.429 208.464a8.02 8.02 0 01-.683 1.642 84.87 84.87 0 01-1.95 3.83 59.175 59.175 0 01-2.156 3.718 6.875 6.875 0 01-1.047 1.442 9.99 9.99 0 01.821-1.58l2.05-3.762 2.044-3.761a8.6 8.6 0 01.921-1.529z" fill="#2F3646"/><path d="M87.977 243.306s9.911-1.548 12.594-8.858a.328.328 0 00-.065-.343.328.328 0 00-.336-.096c-1.548.439-6.043 2.251-12.193 9.297z" fill="#F995A6"/><path opacity=".3" d="M87.977 243.306s9.911-1.548 12.594-8.858a.328.328 0 00-.065-.343.328.328 0 00-.336-.096c-1.548.439-6.043 2.251-12.193 9.297z" fill="#2F3646"/><path d="M97.962 236.385c-.4.437-.846.83-1.329 1.173a77.85 77.85 0 01-3.435 2.576 70.189 70.189 0 01-3.567 2.395c-.492.34-1.022.62-1.58.834a9.777 9.777 0 011.43-1.06l3.503-2.47 3.492-2.507c.462-.365.96-.68 1.486-.941z" fill="#2F3646"/><path d="M78.506 261.586l-2.897 19.497h18.055l-2.345-19.497H78.506z" fill="#455A64"/><path d="M78.506 261.586l-2.897 19.497h18.055l-2.345-19.497H78.506z" fill="url(#paint3_linear)"/><path d="M92.043 267.623c0 .107-3.26.188-7.284.188-4.025 0-7.278-.081-7.278-.188a72.14 72.14 0 017.278-.188c2.43-.06 4.86.003 7.284.188zm.362 1.536c0 .101-3.367.189-7.523.189s-7.523-.088-7.523-.189c0-.1 3.367-.188 7.523-.188s7.523.101 7.523.188z" fill="#2F3646"/></g><defs><linearGradient id="paint0_linear" x1="190.399" y1="273.61" x2="190.399" y2="281.246" gradientUnits="userSpaceOnUse"><stop stop-color="#343C50"/><stop offset="1" stop-color="#252C3D"/></linearGradient><linearGradient id="paint1_linear" x1="284.852" y1="232.71" x2="284.852" y2="268.482" gradientUnits="userSpaceOnUse"><stop stop-color="#343C50"/><stop offset="1" stop-color="#252C3D"/></linearGradient><linearGradient id="paint2_linear" x1="256.412" y1="235.532" x2="256.412" y2="281.355" gradientUnits="userSpaceOnUse"><stop stop-color="#343C50"/><stop offset="1" stop-color="#252C3D"/></linearGradient><linearGradient id="paint3_linear" x1="84.637" y1="261.586" x2="84.637" y2="281.083" gradientUnits="userSpaceOnUse"><stop stop-color="#343C50"/><stop offset="1" stop-color="#252C3D"/></linearGradient><clipPath id="clip0"><path fill="#fff" d="M0 0h400v300H0z"/></clipPath></defs></svg>