<svg width="78" height="78" fill="none" xmlns="http://www.w3.org/2000/svg"><circle cx="39" cy="39" r="39" fill="#fff"/><path d="M33.35 27.683l-2.35 4.7c-.317.65-1.167 1.267-1.883 1.4l-4.25.7c-2.717.45-3.35 2.417-1.4 4.384l3.316 3.316c.55.55.867 1.634.684 2.417l-.95 4.1c-.75 3.233.983 4.5 3.833 2.8l3.983-2.367c.717-.433 1.917-.433 2.634 0L40.95 51.5c2.85 1.683 4.583.433 3.833-2.8l-.95-4.1c-.183-.767.134-1.85.684-2.417l3.316-3.316c1.95-1.95 1.317-3.917-1.4-4.384l-4.25-.7c-.716-.116-1.566-.75-1.883-1.4l-2.35-4.7c-1.25-2.55-3.317-2.55-4.6 0zm14.318-.35h10m-7 23.334h7M54.001 39h3.667" stroke="#CD2943" stroke-width="2.313" stroke-linecap="round" stroke-linejoin="round"/></svg>