<svg width="64" height="64" fill="none" xmlns="http://www.w3.org/2000/svg"><path d="M0 2a2 2 0 012-2h47c8.284 0 15 6.716 15 15v34c0 8.284-6.716 15-15 15H15C6.716 64 0 57.284 0 49V2z" fill="#CD2946"/><path d="M0 2a2 2 0 012-2h47c8.284 0 15 6.716 15 15v34c0 8.284-6.716 15-15 15H15C6.716 64 0 57.284 0 49V2z" fill="url(#paint0_linear)"/><path d="M52.092 30.816l-6.308-9.253a10.498 10.498 0 00-5.514-4.087 10.512 10.512 0 00-6.864.21l-5.76 2.2a.784.784 0 10.56 1.466l5.761-2.2a8.86 8.86 0 0110.518 3.294l3.875 5.683-6.954-4.89a5.612 5.612 0 00-5.022-.72l-20.922 7.126a1.414 1.414 0 01-1.784-.865 1.792 1.792 0 011.057-2.282L29.25 21.01a.784.784 0 10-.562-1.465l-14.513 5.489a3.352 3.352 0 00-1.979 4.267 2.99 2.99 0 003.774 1.83l20.922-7.126a4.034 4.034 0 013.61.517l10.49 7.378a.784.784 0 001.003-.082.784.784 0 00.098-1.001zM45.9 38.332l-.029-.01a4.53 4.53 0 01-2.334-1.673c.59-.475 1.158-.982 1.7-1.524a.784.784 0 10-1.11-1.11 19.25 19.25 0 01-11.358 5.53 19.69 19.69 0 01-2.35.141h-.002s0 0 0 0a19.713 19.713 0 01-2.436-.15 19.251 19.251 0 01-11.273-5.521.784.784 0 10-1.111 1.11c.543.542 1.111 1.05 1.7 1.524a4.528 4.528 0 01-2.333 1.673l-.03.01a.784.784 0 10.463 1.5l.032-.01a6.096 6.096 0 003.128-2.235c.269.185.54.363.817.535a4.22 4.22 0 01-2.473 2.646l-.243.096a.784.784 0 10.58 1.459l.243-.097a5.786 5.786 0 003.282-3.314c.301.157.607.306.915.448a3.865 3.865 0 01-2.078 3.176l-.047.025a.784.784 0 10.726 1.391l.048-.024a5.43 5.43 0 002.86-3.947c.333.122.669.236 1.008.34a5.22 5.22 0 01-1.374 3.35.784.784 0 00.58 1.314.784.784 0 00.579-.254 6.785 6.785 0 001.764-3.995c.451.102.907.188 1.367.26a8.101 8.101 0 01-1.088 3.425l-.106.18a.784.784 0 00.677 1.182c.27 0 .532-.138.678-.387l.106-.18a9.67 9.67 0 001.294-4.033c.319.026.639.045.96.056v4.662a.785.785 0 001.57 0V41.24c.322-.011.642-.03.96-.056.128 1.42.568 2.8 1.294 4.033l.106.18a.785.785 0 001.355-.795l-.106-.18a8.103 8.103 0 01-1.088-3.424c.46-.073.916-.16 1.368-.261a6.784 6.784 0 001.764 3.995.784.784 0 001.11.048.784.784 0 00.048-1.108 5.221 5.221 0 01-1.374-3.35c.34-.104.676-.218 1.009-.34a5.429 5.429 0 002.86 3.947l.047.024a.784.784 0 001.06-.333.784.784 0 00-.334-1.058l-.046-.025a3.865 3.865 0 01-2.079-3.176c.309-.142.614-.291.916-.448a5.786 5.786 0 003.282 3.314l.243.097a.785.785 0 10.58-1.459l-.244-.096a4.22 4.22 0 01-2.473-2.646c.276-.172.549-.35.818-.535a6.096 6.096 0 003.128 2.235l.031.01a.787.787 0 00.983-.519.784.784 0 00-.52-.981z" fill="#fff" stroke="#fff" stroke-width=".4"/><defs><linearGradient id="paint0_linear" x1="7.157" y1="-11.49" x2="87.798" y2="33.131" gradientUnits="userSpaceOnUse"><stop stop-color="#CC283C"/><stop offset="1" stop-color="#CC284F"/></linearGradient></defs></svg>