<svg width="64" height="64" fill="none" xmlns="http://www.w3.org/2000/svg"><path d="M0 2a2 2 0 012-2h47c8.284 0 15 6.716 15 15v34c0 8.284-6.716 15-15 15H15C6.716 64 0 57.284 0 49V2z" fill="#CD2946"/><path d="M0 2a2 2 0 012-2h47c8.284 0 15 6.716 15 15v34c0 8.284-6.716 15-15 15H15C6.716 64 0 57.284 0 49V2z" fill="url(#paint0_linear)"/><path d="M49.058 25.98l-4.74-5.611c1.398-3.096 1.17-6.785-.63-9.737a.68.68 0 00-1.252.27c-1.526 6.24-6.351 11.04-12.61 12.536a18.43 18.43 0 00-8.742 4.886 18.392 18.392 0 00-4.818 8.436 18.48 18.48 0 00-1.333.801.677.677 0 10.749 1.13 17.03 17.03 0 015.442-2.359 18.36 18.36 0 006.23-2.788.677.677 0 10-.775-1.112 17.009 17.009 0 01-5.771 2.582c-.995.238-1.962.556-2.896.951 1.849-5.587 6.422-9.82 12.23-11.209a18.46 18.46 0 002.893-.95 16.945 16.945 0 01-2.29 4.51.677.677 0 101.105.786 18.298 18.298 0 002.833-6.091 18.424 18.424 0 008.59-10.151c.894 2.37.785 5.046-.362 7.305a.677.677 0 00.086.743l5.004 5.922-1.94 1.275a.677.677 0 00-.209.915l.747 1.239a1.191 1.191 0 01-.563 1.717.678.678 0 00-.189 1.132c.278.247.411.6.365.968a1.098 1.098 0 01-.592.85l-.042.022a.677.677 0 00-.366.601v2.27a2.172 2.172 0 01-2.171 2.169h-3.983a9.053 9.053 0 00-4.903 1.438l-3.625 2.329a.677.677 0 10.735 1.14l3.624-2.329a7.698 7.698 0 014.17-1.223h3.982a3.53 3.53 0 003.529-3.524v-1.891a2.467 2.467 0 00.713-3.158 2.547 2.547 0 00.479-3.21l-.41-.681 1.42-.934a1.328 1.328 0 00.286-1.965zm-34.083-2.724a.676.676 0 00.924-.258c.564-1 .986-2.075 1.254-3.194a10.993 10.993 0 018.173-8.162.678.678 0 10-.316-1.318 12.406 12.406 0 00-9.177 9.165 11.022 11.022 0 01-1.117 2.844.677.677 0 00.259.923z" fill="#fff" stroke="#fff" stroke-width=".7"/><defs><linearGradient id="paint0_linear" x1="7.157" y1="-11.49" x2="87.798" y2="33.131" gradientUnits="userSpaceOnUse"><stop stop-color="#CC283C"/><stop offset="1" stop-color="#CC284F"/></linearGradient></defs></svg>