<svg width="347" height="696" fill="none" xmlns="http://www.w3.org/2000/svg"><path d="M1311.6 656.187S1721.09 7.004 1475.57.46c-257.08-6.852-395.09 252.892-568.18 264.791-217.675 14.965-319.659-35.082-493.748-23.114-187.058 12.86-231.112 138.013-443.577 152.62-221.511 15.228-525.471 152.2-354.036 325.146 145.157 146.436 1302.08 34.661 1695.571-63.716z" fill="#EAE9ED" fill-opacity=".9"/><path d="M-881.346 739.832s-126.614 72.442-206.994-65.281c-80.37-137.724 219.461-409.356 439.268-404.06 191.047 4.602 345.573 150.703 474.573 199.482C-6.114 533.644 72.88 507.243 252.5 534.044c187.268 27.942 460.71 239.337 303.207 374.746-133.36 114.65-1109.243-58.691-1437.053-168.958z" fill="#E6E5E9" fill-opacity=".8"/></svg>