<svg width="64" height="64" fill="none" xmlns="http://www.w3.org/2000/svg"><path d="M0 2a2 2 0 012-2h47c8.284 0 15 6.716 15 15v34c0 8.284-6.716 15-15 15H15C6.716 64 0 57.284 0 49V2z" fill="#CD2946"/><path d="M0 2a2 2 0 012-2h47c8.284 0 15 6.716 15 15v34c0 8.284-6.716 15-15 15H15C6.716 64 0 57.284 0 49V2z" fill="url(#paint0_linear)"/><path d="M45.031 19.858a13.085 13.085 0 00-9.583-3.855 3.312 3.312 0 00-3.197 2.655l-2.127 10.325-13.262 13.245a2.94 2.94 0 000 4.157l1.626 1.624a2.926 2.926 0 002.082.861c.786 0 1.525-.305 2.081-.86l12.992-12.975a.628.628 0 00.06-.01l10.588-2.377a3.32 3.32 0 002.6-3.18v-.04a13.05 13.05 0 00-3.86-9.57zM21.742 47.102c-.313.313-.73.485-1.172.485-.444 0-.86-.172-1.173-.485l-.45-.449 2.42-2.417a.641.641 0 10-.908-.907l-2.42 2.417-.269-.269a1.657 1.657 0 010-2.342l7.04-7.03 3.972 3.966-7.04 7.03zm7.949-7.938l-3.972-3.967 4.867-4.86 3.972 3.967-4.867 4.86zm17.916-9.761l-.001.04a2.04 2.04 0 01-1.597 1.953l-10.243 2.3-.525-.525 4.4-1.9a.641.641 0 10-.51-1.177l-4.867 2.101-.323-.322 2.462-2.459a.641.641 0 10-.908-.907l-2.462 2.459-.309-.308 2.104-4.861a.641.641 0 10-1.18-.51l-1.9 4.395-.378-.377 2.14-10.388a2.034 2.034 0 011.963-1.631 11.807 11.807 0 018.65 3.48 11.779 11.779 0 013.484 8.637z" fill="#fff" stroke="#fff" stroke-width=".4"/><defs><linearGradient id="paint0_linear" x1="7.157" y1="-11.49" x2="87.798" y2="33.131" gradientUnits="userSpaceOnUse"><stop stop-color="#CC283C"/><stop offset="1" stop-color="#CC284F"/></linearGradient></defs></svg>