<svg width="400" height="300" fill="none" xmlns="http://www.w3.org/2000/svg"><g clip-path="url(#clip0)"><path d="M346.518 132.362c1.587-21.164-3.317-43.175-9.893-62.9-9.757-29.233-28.698-59.21-60.595-66.126-18.392-3.988-37.139.288-52.881 10.286-15.193 9.608-27.01 22.01-45.639 24.432-18.856 2.438-38.21 1.456-57.168 1.456-48.745 0-88.298 51.361-78.405 104.856C51.829 197.861 98.489 234.95 138 234.95c35.552 0 64.79-21.393 98.553-27.133 16.746-2.844 33.56.525 50.121-3.742 19.261-4.969 37.375-16.821 48.044-33.93 7.267-11.675 10.804-24.551 11.8-37.783z" fill="#CD2946"/><path opacity=".08" d="M346.518 132.362c1.587-21.164-3.317-43.175-9.893-62.9-9.757-29.233-28.698-59.21-60.595-66.126-18.392-3.988-37.139.288-52.881 10.286-15.193 9.608-27.01 22.01-45.639 24.432-18.856 2.438-38.21 1.456-57.168 1.456-48.745 0-88.298 51.361-78.405 104.856C51.829 197.861 98.489 234.95 138 234.95c35.552 0 64.79-21.393 98.553-27.133 16.746-2.844 33.56.525 50.121-3.742 19.261-4.969 37.375-16.821 48.044-33.93 7.267-11.675 10.804-24.551 11.8-37.783z" fill="#2F3646"/><path opacity=".7" d="M346.443 236.11c0 4.153-61.939 7.52-138.348 7.52-76.409 0-138.348-3.367-138.348-7.52 0-4.154 61.939-7.566 138.348-7.566 76.409 0 138.348 3.412 138.348 7.566z" fill="#B5253D"/><path d="M328.845 100.625s0-3.594-5.027-8.633c-5.028-5.04-8.263-7.907-8.263-7.907s-2.518 8.27 2.154 13.301a88.82 88.82 0 0011.136 9.708v-6.469zm-7.296 22.448s0-3.594-5.035-8.625c-5.035-5.032-8.256-7.884-8.256-7.884s-2.517 8.27 2.155 13.301a88.1 88.1 0 0011.136 9.707v-6.499z" fill="#F995A6"/><path d="M328.526 106.746s.378-3.579 5.912-8.05c5.534-4.472 9.072-6.992 9.072-6.992s1.626 8.489-3.545 12.999a88.044 88.044 0 01-12.096 8.474l.657-6.431zm-8.812 26.511s.756-3.511 6.72-7.377c5.965-3.866 9.738-6.007 9.738-6.007s.756 8.617-4.892 12.559a88.213 88.213 0 01-12.92 7.15l1.354-6.325zm1.656 28.91s0-3.594 5.027-8.633 8.263-7.907 8.263-7.907 2.518 8.27-2.155 13.302a88.672 88.672 0 01-11.135 9.676v-6.438z" fill="#F995A6"/><path d="M321.283 169.218s.514-3.556-3.78-9.253-7.053-9.003-7.053-9.003-3.667 7.823.242 13.475a88.776 88.776 0 009.639 11.19l.952-6.409zm-4.958 20.913s0-3.594 5.027-8.625c5.028-5.032 8.263-7.914 8.263-7.914s2.518 8.269-2.154 13.301a88.1 88.1 0 01-11.136 9.707v-6.469zm3.357 18.96s-.907-3.48 2.684-9.624c3.591-6.143 5.988-9.745 5.988-9.745s4.536 7.362 1.285 13.415a88.236 88.236 0 01-8.316 12.211l-1.641-6.257z" fill="#F995A6"/><path d="M324.611 226.622a.376.376 0 01-.363-.257c-.068-.22-6.978-21.67-8.316-29.568-.756-4.676.476-8.936 1.928-13.877a79.292 79.292 0 002.91-12.741c.756-5.909-.272-11.788-1.262-17.47-.991-5.682-1.936-11.016-.923-15.73.953-4.456 2.548-8.216 4.241-12.196 1.8-4.245 3.667-8.64 4.703-13.99a98.958 98.958 0 001.368-11.122.399.399 0 01.408-.348.375.375 0 01.331.262.368.368 0 01.017.147 102.386 102.386 0 01-1.353 11.205c-1.051 5.425-2.933 9.836-4.748 14.141-1.678 3.95-3.258 7.68-4.196 12.06-.982 4.54-.052 9.836.923 15.443 1.005 5.742 2.041 11.674 1.27 17.689a79.795 79.795 0 01-2.933 12.862c-1.429 4.85-2.662 9.042-1.906 13.543 1.301 7.839 8.195 29.236 8.264 29.455a.38.38 0 01-.242.477l-.121.015z" fill="#2F3646"/><path d="M328.481 109.515a.388.388 0 01-.303-.152.375.375 0 01.069-.529l5.42-4.162a.38.38 0 01.588.35.373.373 0 01-.127.248l-5.42 4.162a.383.383 0 01-.227.083zm.252-4.797a.381.381 0 01-.192-.049.384.384 0 01-.14-.14l-2.268-4.041a.377.377 0 01.657-.37l2.268 4.04a.378.378 0 01-.143.514.373.373 0 01-.182.046zm-9.45 32.292a.372.372 0 01-.221-.072.374.374 0 01-.14-.419.38.38 0 01.134-.19c.045-.038 4.589-3.45 9.201-6.81a.382.382 0 01.42-.017.375.375 0 01.171.235.377.377 0 01-.145.395c-4.604 3.367-9.148 6.81-9.193 6.81a.437.437 0 01-.227.068zm2.268-7.09a.377.377 0 01-.34-.204c-.038-.076-3.78-7.437-8.014-12.264a.379.379 0 01.567-.492c4.271 4.895 8.082 12.332 8.119 12.408a.363.363 0 01.042.144c.005.05-.001.1-.017.148a.368.368 0 01-.191.223.432.432 0 01-.166.037zm-.002 37.74a.354.354 0 01-.174-.046.377.377 0 01-.166-.507 57.353 57.353 0 019.775-13.089.379.379 0 01.619.409.381.381 0 01-.082.121 56.651 56.651 0 00-9.632 12.862.375.375 0 01-.34.25zm-.883 5.039a.377.377 0 01-.209-.06.377.377 0 01-.139-.167 62.899 62.899 0 00-4.869-9.269c-2.585-3.828-3.024-4.38-3.024-4.403a.38.38 0 01.076-.53.387.387 0 01.529.076s.408.56 3.024 4.434a64.482 64.482 0 014.952 9.397c.02.046.03.095.03.146a.373.373 0 01-.234.353.485.485 0 01-.136.023zm-4.34 24.415a.388.388 0 01-.136 0 .38.38 0 01-.212-.491 60.24 60.24 0 014.113-8.323 54.18 54.18 0 015.337-6.999.383.383 0 01.414-.083.398.398 0 01.205.204.378.378 0 010 .288.381.381 0 01-.082.121 53.954 53.954 0 00-5.247 6.877 60.568 60.568 0 00-4.052 8.21.389.389 0 01-.34.196zm4.997 18.613a.385.385 0 01-.378-.333 15.64 15.64 0 011.398-8.202c1.512-2.89 3.13-6.454 4.211-8.807.28-.612.514-1.127.703-1.513a.362.362 0 01.081-.136.368.368 0 01.284-.123.381.381 0 01.316.577c-.182.393-.424.908-.696 1.513-1.088 2.368-2.721 5.94-4.226 8.845a15.055 15.055 0 00-1.315 7.74.393.393 0 01-.333.424l-.045.015z" fill="#2F3646"/><path d="M295.915 148.646s-.385-2.269 2.223-5.954c2.608-3.685 4.316-5.856 4.316-5.856s2.473 4.91.091 8.572a56.292 56.292 0 01-5.927 7.294l-.703-4.056zm7.014 13.286s-.393-2.27 2.215-5.962c2.609-3.692 4.325-5.856 4.325-5.856s2.472 4.918.09 8.58a56.292 56.292 0 01-5.927 7.294l-.703-4.056z" fill="#F995A6"/><path d="M296.776 152.452s-.62-2.202-4.574-4.403c-3.954-2.202-6.434-3.405-6.434-3.405s-.105 5.5 3.629 7.77a56.426 56.426 0 008.505 3.995l-1.126-3.957zm8.407 15.669s-.855-2.126-5.02-3.904c-4.166-1.778-6.751-2.701-6.751-2.701s.476 5.478 4.43 7.339a56.161 56.161 0 008.875 3.087l-1.534-3.821zm2.093 18.303s-.385-2.27-4.09-4.865c-3.704-2.596-6.048-4.056-6.048-4.056s-.68 5.455 2.79 8.103a56.236 56.236 0 008.036 4.873l-.688-4.055z" fill="#F995A6"/><path d="M308.093 190.842s-.703-2.179 1.353-6.212c2.057-4.032 3.448-6.416 3.448-6.416s3.145 4.54 1.308 8.474a56.358 56.358 0 01-4.801 8.066l-1.308-3.912zm6.315 18.181s.264-2.27 3.78-5.092c3.515-2.822 5.791-4.396 5.791-4.396s.99 5.41-2.321 8.255a56.744 56.744 0 01-7.749 5.296l.499-4.063zm-.931-5.614s-.393-2.269-4.09-4.865c-3.696-2.595-6.048-4.063-6.048-4.063s-.68 5.456 2.798 8.104a56.316 56.316 0 008.036 4.88l-.696-4.056zm-.056 12.257s.197-2.27-2.721-5.742c-2.918-3.473-4.816-5.455-4.816-5.455s-2.041 5.107.65 8.549a55.978 55.978 0 006.54 6.749l.347-4.101z" fill="#F995A6"/><path d="M312.198 227.341h-.053a.384.384 0 01-.247-.147.383.383 0 01-.078-.277c0-.144 2.026-14.3 1.996-19.354 0-2.868-1.179-5.228-2.654-8.224a50.646 50.646 0 01-3.273-7.771c-1.142-3.707-1.134-7.566-1.126-11.273 0-3.601 0-6.999-1.089-9.737a41.368 41.368 0 00-3.924-7.075 43.403 43.403 0 01-4.536-8.383 64.192 64.192 0 01-2.086-6.893.359.359 0 01.041-.284.361.361 0 01.231-.169.375.375 0 01.399.137.37.37 0 01.062.135 65.062 65.062 0 002.056 6.809 42.902 42.902 0 004.461 8.24 42.108 42.108 0 013.991 7.203c1.15 2.875 1.15 6.34 1.142 10.017-.008 3.677 0 7.445 1.089 11.054a49.843 49.843 0 003.205 7.649c1.452 2.959 2.707 5.508 2.729 8.557 0 5.1-1.92 18.878-2.003 19.46a.374.374 0 01-.333.326z" fill="#2F3646"/><path d="M297.071 154.321a.395.395 0 01-.181-.046l-3.848-2.02a.384.384 0 01-.203-.223.375.375 0 01.123-.418.377.377 0 01.435-.025l3.848 2.021a.377.377 0 01-.174.711zm-.682-2.981a.399.399 0 01-.129 0 .38.38 0 01-.227-.484l.983-2.777a.385.385 0 01.484-.235.376.376 0 01.216.194.37.37 0 01.011.291l-.983 2.776a.36.36 0 01-.355.235zm9.427 19.225a.347.347 0 01-.166-.045s-3.213-1.642-6.509-3.269a.377.377 0 01-.167-.507.373.373 0 01.365-.208.37.37 0 01.142.042 608.977 608.977 0 016.509 3.268.38.38 0 01-.174.719zm-2.183-4.229h-.114a.375.375 0 01-.224-.187.389.389 0 01-.042-.142.39.39 0 01.017-.148 45.5 45.5 0 013.78-8.693.369.369 0 01.234-.195.386.386 0 01.301.041.385.385 0 01.172.406.386.386 0 01-.065.141 46.034 46.034 0 00-3.681 8.527.368.368 0 01-.147.189.365.365 0 01-.231.061zm4.088 23.697a.393.393 0 01-.302-.152 35.675 35.675 0 00-7.409-7.014.381.381 0 01-.156-.24.385.385 0 01.058-.282.384.384 0 01.529-.098 36.289 36.289 0 017.56 7.18.389.389 0 01-.075.53.445.445 0 01-.205.076zm1.098 3.064h-.083a.379.379 0 01-.28-.454 39.712 39.712 0 012.094-6.462c1.225-2.716 1.414-3.094 1.422-3.109a.378.378 0 01.672.34s-.204.416-1.406 3.087a39.82 39.82 0 00-2.048 6.31.382.382 0 01-.371.288zm5.192 18.733a.384.384 0 01-.234-.083.39.39 0 01-.139-.258.37.37 0 01.086-.279 33.884 33.884 0 014.204-4.366 21.197 21.197 0 002.638-2.27.379.379 0 01.619.409.381.381 0 01-.082.121 21.907 21.907 0 01-2.737 2.391 33.17 33.17 0 00-4.075 4.237.382.382 0 01-.28.098zm.183-3.881a.371.371 0 01-.325-.182 39.272 39.272 0 00-3.417-4.683 33.562 33.562 0 00-4.022-3.73.386.386 0 01-.161-.253.38.38 0 01.337-.437.374.374 0 01.285.092 33.483 33.483 0 014.12 3.821 38.174 38.174 0 013.501 4.797.379.379 0 01-.121.522.412.412 0 01-.197.053zm-1.117 12.196a.378.378 0 01-.378-.355 9.4 9.4 0 00-1.641-4.638c-1.255-1.665-2.676-3.73-3.613-5.1l-.598-.862a.389.389 0 01-.075-.289.38.38 0 01.451-.313c.05.01.097.03.139.06a.367.367 0 01.105.11l.597.871c.938 1.361 2.352 3.419 3.599 5.069a10.12 10.12 0 011.792 5.054.375.375 0 01-.213.359.37.37 0 01-.143.034h-.022zm-11.153 4.328h32.894v11.092a2.648 2.648 0 01-2.646 2.648H304.57a2.646 2.646 0 01-2.646-2.648v-11.092z" fill="#2F3646"/><path d="M332.173 238.591h-27.601a3.024 3.024 0 01-3.024-3.026v-11.092a.378.378 0 01.378-.378h32.893a.378.378 0 01.378.378v11.092a3.026 3.026 0 01-3.024 3.026zm-29.869-13.74v10.714a2.272 2.272 0 002.268 2.27h27.601a2.265 2.265 0 002.268-2.27v-10.714h-32.137z" fill="#2F3646"/><path d="M334.532 228.763h-32.606a2.571 2.571 0 01-2.571-2.572 2.582 2.582 0 012.571-2.58h32.606a2.575 2.575 0 012.578 2.58 2.577 2.577 0 01-2.578 2.572z" fill="#2F3646"/><path d="M334.531 229.134h-32.607a2.963 2.963 0 01-1.993-.916 2.962 2.962 0 010-4.077 2.954 2.954 0 011.993-.916h32.607a2.946 2.946 0 012.186.81 2.967 2.967 0 01.679 3.311 2.963 2.963 0 01-1.689 1.607c-.376.14-.776.201-1.176.181zm-32.607-5.153a2.202 2.202 0 000 4.396h32.607a2.18 2.18 0 00.88-.129 2.187 2.187 0 001.268-1.196 2.204 2.204 0 00-2.148-3.071h-32.607z" fill="#2F3646"/><path d="M326.895 229.262h-23.678a.375.375 0 01-.378-.378.378.378 0 01.378-.378h23.678a.378.378 0 010 .756zm6.132 0h-3.9a.377.377 0 110-.756h3.9a.378.378 0 01.378.378.386.386 0 01-.378.378z" fill="#fff"/><path d="M279.438 277.148H106.851c-1.807 0-2.775-.689-2.155-1.513l18.326-25.097c.385-.522 1.829-.938 3.228-.938h133.812c1.406 0 2.85.416 3.228.938l18.333 25.097c.559.824-.37 1.513-2.185 1.513z" fill="#2F3646"/><path d="M279.44 277.556H106.852c-1.36 0-2.328-.363-2.646-.998a1.102 1.102 0 01.152-1.196l18.31-25.089c.529-.718 2.23-1.112 3.561-1.112h133.812c1.33 0 3.024.394 3.561 1.112l18.333 25.097a1.09 1.09 0 01.151 1.195c-.318.636-1.285.991-2.646.991zm-153.189-27.563c-1.444 0-2.661.447-2.895.757l-18.325 25.089c-.152.212-.106.303-.084.34.129.258.756.538 1.905.538H279.44c1.126 0 1.776-.28 1.912-.538 0-.037.061-.128-.09-.34l-18.326-25.089c-.234-.325-1.451-.757-2.895-.757h-133.79z" fill="#2F3646"/><path d="M194.578 250.099h-7.923l-.227 3.284h8.195l-.045-3.284z" fill="#fff"/><path d="M194.626 253.799h-8.188a.424.424 0 01-.168-.037.428.428 0 01-.142-.099.426.426 0 01-.106-.31l.22-3.276a.413.413 0 01.416-.386h7.922a.413.413 0 01.416.408l.046 3.276a.387.387 0 01-.121.296.395.395 0 01-.295.128zm-7.749-.832h7.333v-2.452h-7.129l-.204 2.452z" fill="#2F3646"/><path d="M175.459 250.099h-7.923l-.877 3.284h8.195l.605-3.284z" fill="#fff"/><path d="M174.832 253.799h-8.172a.401.401 0 01-.325-.166.408.408 0 01-.076-.356l.885-3.284a.402.402 0 01.393-.302h7.923a.407.407 0 01.408.484l-.605 3.284a.425.425 0 01-.431.34zm-7.651-.832h7.311l.454-2.452h-7.114l-.651 2.452z" fill="#2F3646"/><path d="M204.135 250.099h-7.923l.106 3.284h8.195l-.378-3.284z" fill="#fff"/><path d="M204.512 253.799h-8.195a.428.428 0 01-.287-.118.429.429 0 01-.129-.283l-.098-3.284a.413.413 0 01.114-.302.417.417 0 01.294-.121h7.923a.414.414 0 01.416.363l.371 3.284a.43.43 0 01-.017.171.438.438 0 01-.085.15.424.424 0 01-.307.14zm-7.756-.832h7.333l-.287-2.452h-7.122l.076 2.452z" fill="#2F3646"/><path d="M156.347 250.099h-7.923l-1.535 3.284h8.195l1.263-3.284z" fill="#fff"/><path d="M155.085 253.799h-8.225a.402.402 0 01-.348-.197.396.396 0 010-.393l1.512-3.284a.428.428 0 01.378-.234h7.923a.402.402 0 01.408.361.435.435 0 01-.023.199l-1.262 3.283a.41.41 0 01-.363.265zm-7.56-.832h7.258l.945-2.452h-7.054l-1.149 2.452z" fill="#2F3646"/><path d="M165.902 250.099h-7.923l-1.202 3.284h8.188l.937-3.284z" fill="#fff"/><path d="M165.004 253.799h-8.233a.403.403 0 01-.332-.181.39.39 0 01-.053-.379l1.209-3.283a.409.409 0 01.386-.265h7.923c.063 0 .126.015.183.043a.424.424 0 01.149.116.441.441 0 01.068.363l-.937 3.283a.42.42 0 01-.363.303zm-7.56-.832h7.288l.703-2.452h-7.091l-.9 2.452z" fill="#2F3646"/><path d="M137 253.383h8.196l1.595-3.284h-7.923L137 253.383z" fill="#fff"/><path d="M145.197 253.799h-8.165a.429.429 0 01-.355-.204.402.402 0 010-.416l1.859-3.284a.414.414 0 01.363-.204h7.923a.401.401 0 01.348.189.414.414 0 010 .401l-1.595 3.284a.407.407 0 01-.378.234zm-7.485-.832h7.228l1.187-2.452h-7.024l-1.391 2.452z" fill="#2F3646"/><path d="M185.022 250.099h-7.923l-.552 3.284h8.195l.28-3.284z" fill="#fff"/><path d="M184.742 253.799h-8.195a.405.405 0 01-.316-.148.414.414 0 01-.092-.336l.552-3.284a.41.41 0 01.408-.34h7.923a.408.408 0 01.302.128.426.426 0 01.087.148.427.427 0 01.019.17l-.28 3.284a.407.407 0 01-.408.378zm-7.703-.832h7.318l.211-2.451h-7.121l-.408 2.451z" fill="#2F3646"/><path d="M213.692 250.099h-7.916l.431 3.284h8.195l-.71-3.284z" fill="#fff"/><path d="M214.399 253.799h-8.195a.405.405 0 01-.408-.363l-.438-3.284a.435.435 0 01.098-.325.42.42 0 01.317-.136h7.923a.415.415 0 01.401.325l.703 3.276a.374.374 0 01-.083.348.405.405 0 01-.318.159zm-7.817-.832h7.318l-.529-2.451h-7.114l.325 2.451z" fill="#2F3646"/><path d="M137.229 250.099h-12.058l-2.337 3.284h12.474l1.921-3.284z" fill="#fff"/><path d="M135.307 253.799h-12.474a.434.434 0 01-.37-.227.441.441 0 010-.431l2.336-3.276a.398.398 0 01.34-.174h12.058a.414.414 0 01.363.204.433.433 0 010 .416l-1.913 3.284a.422.422 0 01-.145.143.421.421 0 01-.195.061zm-11.672-.832h11.438l1.436-2.452h-11.128l-1.746 2.452z" fill="#2F3646"/><path d="M253.563 250.099l2.071 3.284h8.46l-2.351-3.284h-8.18z" fill="#fff"/><path d="M264.093 253.799h-8.46a.41.41 0 01-.348-.197l-2.071-3.283a.413.413 0 01-.019-.424.407.407 0 01.367-.212h8.21a.397.397 0 01.332.167l2.359 3.283a.42.42 0 01.031.434.413.413 0 01-.371.225l-.03.007zm-8.233-.832h7.424l-1.754-2.452h-7.22l1.55 2.452z" fill="#2F3646"/><path d="M251.929 250.099h-7.923l1.746 3.284h8.188l-2.011-3.284z" fill="#fff"/><path d="M253.939 253.799h-8.188a.413.413 0 01-.37-.219l-1.754-3.261a.42.42 0 01.016-.407.414.414 0 01.354-.199h7.946a.396.396 0 01.348.197l2.018 3.276a.43.43 0 010 .424.411.411 0 01-.37.189zm-7.946-.832h7.205l-1.512-2.452h-7.001l1.308 2.452z" fill="#2F3646"/><path d="M242.365 250.099h-7.923l1.422 3.284h8.195l-1.694-3.284z" fill="#fff"/><path d="M244.059 253.799h-8.195a.408.408 0 01-.378-.25l-1.421-3.283a.423.423 0 01.037-.388.408.408 0 01.341-.187h7.923a.4.4 0 01.216.057.4.4 0 01.154.162l1.694 3.284a.422.422 0 010 .401.422.422 0 01-.371.204zm-7.923-.832h7.243l-1.263-2.452h-7.038l1.058 2.452z" fill="#2F3646"/><path d="M223.252 250.099h-7.923l.756 3.284h8.195l-1.028-3.284z" fill="#fff"/><path d="M224.282 253.799h-8.187a.423.423 0 01-.409-.325l-.756-3.276a.428.428 0 01.076-.356.41.41 0 01.325-.151h7.923a.41.41 0 01.393.287l1.036 3.276a.434.434 0 01-.061.371.425.425 0 01-.34.174zm-7.87-.832h7.303l-.756-2.452h-7.099l.552 2.452z" fill="#2F3646"/><path d="M232.809 250.099h-7.923l1.088 3.284h8.195l-1.36-3.284z" fill="#fff"/><path d="M234.169 253.799h-8.195a.421.421 0 01-.393-.287l-1.089-3.276a.425.425 0 01.06-.379.416.416 0 01.333-.166h7.923c.081 0 .161.023.229.068a.415.415 0 01.156.181l1.361 3.284a.409.409 0 01-.038.386.414.414 0 01-.347.189zm-7.893-.832h7.273l-1.013-2.451h-7.054l.794 2.451z" fill="#2F3646"/><path d="M169.776 253.708h-8.24l-1.127 3.534h8.535l.832-3.534z" fill="#fff"/><path d="M168.941 257.658h-8.535a.426.426 0 01-.186-.043.419.419 0 01-.147-.124.427.427 0 01-.06-.371l1.126-3.54a.414.414 0 01.394-.288h8.24a.407.407 0 01.401.507l-.832 3.541a.41.41 0 01-.401.318zm-7.968-.825h7.636l.642-2.709h-7.416l-.862 2.709z" fill="#2F3646"/><path d="M179.708 253.708h-8.233l-.778 3.534h8.535l.476-3.534z" fill="#fff"/><path d="M179.232 257.658h-8.535a.411.411 0 01-.318-.152.393.393 0 01-.083-.378l.756-3.541a.419.419 0 01.401-.325h8.24a.413.413 0 01.401.293.42.42 0 01.015.176l-.484 3.541a.416.416 0 01-.393.386zm-8.021-.825h7.658l.371-2.709h-7.432l-.597 2.709z" fill="#2F3646"/><path d="M189.648 253.708h-8.241l-.423 3.534h8.535l.129-3.534z" fill="#fff"/><path d="M189.521 257.658h-8.535a.448.448 0 01-.31-.136.43.43 0 01-.098-.326l.415-3.541a.426.426 0 01.416-.363h8.241a.422.422 0 01.294.13.413.413 0 01.114.301l-.121 3.534a.425.425 0 01-.034.156.407.407 0 01-.382.245zm-8.066-.825h7.666l.075-2.731h-7.447l-.294 2.731z" fill="#2F3646"/><path d="M149.901 253.708h-8.233l-1.837 3.534h8.527l1.543-3.534z" fill="#fff"/><path d="M148.372 257.658h-8.543a.431.431 0 01-.355-.197.418.418 0 010-.409l1.837-3.533a.398.398 0 01.37-.227h8.203a.407.407 0 01.348.189.422.422 0 01.038.394l-1.512 3.533a.427.427 0 01-.386.25zm-7.847-.825h7.56l1.179-2.709h-7.356l-1.383 2.709z" fill="#2F3646"/><path d="M129.54 257.242h8.528l1.897-3.534h-8.24l-2.185 3.534z" fill="#fff"/><path d="M138.068 257.658h-8.536a.416.416 0 01-.355-.212.392.392 0 010-.416l2.193-3.541a.409.409 0 01.347-.197h8.241a.42.42 0 01.412.407.432.432 0 01-.049.206l-1.898 3.533a.41.41 0 01-.355.22zm-7.787-.825h7.56l1.459-2.731h-7.311l-1.708 2.731z" fill="#2F3646"/><path d="M199.584 253.708h-8.241l-.06 3.534h8.527l-.226-3.534z" fill="#fff"/><path d="M199.779 257.658h-8.498a.422.422 0 01-.416-.424l.061-3.533a.413.413 0 01.416-.409h8.24a.427.427 0 01.416.386l.227 3.541a.433.433 0 01-.114.31.4.4 0 01-.332.129zm-8.112-.825h7.673l-.174-2.708h-7.446l-.053 2.708z" fill="#2F3646"/><path d="M159.84 253.708h-8.24l-1.482 3.534h8.528l1.194-3.534z" fill="#fff"/><path d="M158.654 257.658h-8.536a.433.433 0 01-.196-.048.432.432 0 01-.151-.134.422.422 0 010-.393l1.512-3.534a.417.417 0 01.385-.257h8.241a.421.421 0 01.332.174.427.427 0 01.061.371l-1.195 3.541a.411.411 0 01-.453.28zm-7.916-.825h7.613l.907-2.709h-7.386l-1.134 2.709z" fill="#2F3646"/><path d="M249.26 253.708h-8.233l1.701 3.534h8.536l-2.004-3.534z" fill="#fff"/><path d="M251.262 257.658h-8.535a.409.409 0 01-.371-.235l-1.708-3.533a.417.417 0 01.378-.598h8.233a.43.43 0 01.362.212l2.004 3.533a.444.444 0 010 .416.42.42 0 01-.363.205zm-8.271-.825h7.56l-1.512-2.709h-7.333l1.285 2.709z" fill="#2F3646"/><path d="M130.031 253.708H122.6l-2.51 3.534h7.688l2.253-3.534z" fill="#fff"/><path d="M127.777 257.658h-7.688a.415.415 0 01-.371-.22.417.417 0 010-.431l2.518-3.541a.425.425 0 01.34-.174H130a.405.405 0 01.416.427.412.412 0 01-.068.209l-2.268 3.541a.4.4 0 01-.303.189zm-6.887-.825h6.661l1.723-2.709h-6.456l-1.928 2.709z" fill="#2F3646"/><path d="M250.961 253.708l2.064 3.534h13.843l-2.54-3.534h-13.367z" fill="#fff"/><path d="M266.869 257.658h-13.842a.415.415 0 01-.363-.204l-2.056-3.541a.421.421 0 010-.409.419.419 0 01.363-.212h13.366a.408.408 0 01.332.174l2.54 3.534a.405.405 0 010 .431.398.398 0 01-.34.227zm-13.608-.825h12.799l-1.943-2.731h-12.436l1.58 2.731z" fill="#2F3646"/><path d="M239.326 253.708h-8.24l1.353 3.534h8.535l-1.648-3.534z" fill="#fff"/><path d="M240.976 257.658h-8.536a.41.41 0 01-.385-.265l-1.354-3.541a.427.427 0 01.046-.378.411.411 0 01.34-.182h8.24a.416.416 0 01.378.242l1.649 3.534a.447.447 0 010 .401.408.408 0 01-.378.189zm-8.248-.825h7.597l-1.232-2.731h-7.371l1.006 2.731z" fill="#2F3646"/><path d="M209.516 253.708h-8.24l.295 3.534h8.527l-.582-3.534z" fill="#fff"/><path d="M210.101 257.658h-8.528a.417.417 0 01-.416-.378l-.287-3.541a.425.425 0 01.106-.311.434.434 0 01.302-.136h8.241a.415.415 0 01.408.348l.582 3.541a.378.378 0 01-.091.333.407.407 0 01-.317.144zm-8.15-.825h7.658l-.446-2.708h-7.439l.227 2.708z" fill="#2F3646"/><path d="M219.449 253.708h-8.233l.643 3.534h8.535l-.945-3.534z" fill="#fff"/><path d="M220.396 257.658h-8.52a.419.419 0 01-.408-.341l-.643-3.533a.395.395 0 01.091-.34.39.39 0 01.317-.152h8.203c.091.001.18.031.253.087a.425.425 0 01.148.223l.937 3.534a.403.403 0 01-.21.479.417.417 0 01-.183.043h.015zm-8.187-.825h7.643l-.719-2.731h-7.423l.499 2.731z" fill="#2F3646"/><path d="M229.394 253.708h-8.241l.998 3.534h8.536l-1.293-3.534z" fill="#fff"/><path d="M230.687 257.658h-8.536a.42.42 0 01-.4-.303l-.998-3.533a.43.43 0 01.068-.363.427.427 0 01.332-.167h8.241a.409.409 0 01.385.273l1.293 3.541a.418.418 0 01-.045.378.434.434 0 01-.34.174zm-8.226-.825h7.628l-.982-2.708h-7.402l.756 2.708z" fill="#2F3646"/><path d="M215.739 271.33h-56.526l-1.436 4.94h58.915l-.953-4.94z" fill="#fff"/><path d="M216.692 276.686h-58.915a.427.427 0 01-.333-.166.43.43 0 01-.073-.175.427.427 0 01.012-.188l1.429-4.941a.41.41 0 01.152-.214.412.412 0 01.249-.081h56.519a.408.408 0 01.408.333l.96 4.941a.44.44 0 01-.091.34.394.394 0 01-.317.151zm-58.364-.832h57.857l-.794-4.108h-55.868l-1.195 4.108z" fill="#2F3646"/><path d="M157.211 271.33h-12.61l-2.049 4.94h13.147l1.512-4.94z" fill="#fff"/><path d="M155.699 276.686h-13.147a.396.396 0 01-.348-.189.41.41 0 01-.038-.386l2.057-4.94a.406.406 0 01.378-.25h12.61a.403.403 0 01.332.166.39.39 0 01.069.364l-1.512 4.94a.422.422 0 01-.401.295zm-12.527-.832h12.217l1.262-4.108h-11.77l-1.709 4.108z" fill="#2F3646"/><path d="M228.092 271.33h-10.357l1.036 4.94h10.795l-1.474-4.94z" fill="#fff"/><path d="M229.568 276.686h-10.796a.405.405 0 01-.4-.333l-1.044-4.933a.435.435 0 01.083-.348.42.42 0 01.326-.151h10.357a.405.405 0 01.247.08.407.407 0 01.146.215l1.512 4.933a.411.411 0 01-.068.371.404.404 0 01-.363.166zm-10.456-.832h9.904l-1.262-4.108h-9.511l.869 4.108z" fill="#2F3646"/><path d="M118.569 276.27h10.229l2.608-4.94h-9.813l-3.024 4.94z" fill="#fff"/><path d="M128.801 276.686h-10.229a.413.413 0 01-.209-.057.432.432 0 01-.154-.155.443.443 0 010-.423l3.024-4.933a.396.396 0 01.348-.197h9.828a.413.413 0 01.355.199.418.418 0 01.015.406l-2.608 4.941a.411.411 0 01-.37.219zm-9.488-.832h9.238l2.17-4.108h-8.891l-2.517 4.108z" fill="#2F3646"/><path d="M142.604 271.33h-9.193l-2.525 4.94h9.578l2.14-4.94z" fill="#fff"/><path d="M140.462 276.686h-9.578a.417.417 0 01-.355-.196.421.421 0 010-.409l2.525-4.941a.407.407 0 01.37-.219h9.193a.434.434 0 01.348.182.418.418 0 010 .393l-2.155 4.941a.408.408 0 01-.348.249zm-8.905-.832h8.633l1.777-4.108h-8.316l-2.094 4.108z" fill="#2F3646"/><path d="M119.601 271.33h-9.526l-3.515 4.94h9.933l3.108-4.94z" fill="#fff"/><path d="M116.491 276.686h-9.934a.42.42 0 01-.215-.063.421.421 0 01-.155-.164.437.437 0 010-.431l3.515-4.933a.402.402 0 01.341-.174h9.525a.407.407 0 01.363.212.424.424 0 010 .424l-3.107 4.933a.42.42 0 01-.333.196zm-9.132-.832h8.898l2.593-4.108h-8.566l-2.925 4.108z" fill="#2F3646"/><path d="M240.453 271.33h-10.365l1.565 4.94h10.795l-1.995-4.94z" fill="#fff"/><path d="M242.449 276.686h-10.796a.411.411 0 01-.393-.287l-1.565-4.941a.43.43 0 01.061-.371.404.404 0 01.332-.166h10.365a.396.396 0 01.378.257l2.003 4.933a.424.424 0 01-.385.575zm-10.493-.832h9.88l-1.663-4.108h-9.518l1.301 4.108z" fill="#2F3646"/><path d="M267.162 271.33l3.13 4.94h10.229l-3.546-4.94h-9.813z" fill="#fff"/><path d="M280.512 276.686h-10.221a.402.402 0 01-.2-.053.398.398 0 01-.148-.143l-3.13-4.933a.415.415 0 01-.019-.424.407.407 0 01.367-.212h9.828a.403.403 0 01.332.166l3.546 4.941a.407.407 0 010 .431.417.417 0 01-.355.227zm-9.995-.832h9.193l-2.948-4.108h-8.845l2.6 4.108z" fill="#2F3646"/><path d="M252.806 271.33h-10.357l2.086 4.94h10.796l-2.525-4.94z" fill="#fff"/><path d="M255.33 276.686h-10.796a.414.414 0 01-.386-.257l-2.086-4.925a.42.42 0 01.385-.576h10.358a.41.41 0 01.37.22l2.517 4.941a.407.407 0 010 .408.398.398 0 01-.156.143.4.4 0 01-.206.046zm-10.524-.832h9.828l-2.094-4.108h-9.465l1.731 4.108z" fill="#2F3646"/><path d="M265.166 271.33h-10.357l2.601 4.94h10.795l-3.039-4.94z" fill="#fff"/><path d="M268.207 276.686h-10.796a.405.405 0 01-.363-.219l-2.608-4.963a.42.42 0 01.167-.553.424.424 0 01.203-.053h10.358a.4.4 0 01.347.197l3.024 4.933a.419.419 0 010 .424.413.413 0 01-.332.234zm-10.546-.832h9.828l-2.533-4.108h-9.465l2.17 4.108z" fill="#2F3646"/><path d="M181.151 266.366h-9.246l-.862 4.517h9.624l.484-4.517z" fill="#fff"/><path d="M180.668 271.299h-9.616a.424.424 0 01-.402-.311.392.392 0 01-.006-.18l.862-4.54a.414.414 0 01.408-.333h9.246a.45.45 0 01.31.136.43.43 0 01.098.326l-.484 4.539a.409.409 0 01-.416.363zm-9.125-.832h8.755l.393-3.692h-8.445l-.703 3.692z" fill="#2F3646"/><path d="M203.478 266.366h-9.246l.038 4.517h9.624l-.416-4.517z" fill="#fff"/><path d="M203.892 271.299h-9.623a.406.406 0 01-.409-.416l-.045-4.539a.414.414 0 01.121-.295.42.42 0 01.295-.122h9.246a.41.41 0 01.408.379l.423 4.539a.432.432 0 01-.023.171.435.435 0 01-.227.247.413.413 0 01-.166.036zm-9.208-.832h8.755l-.34-3.692h-8.452l.037 3.692z" fill="#2F3646"/><path d="M169.986 266.366h-9.246l-1.308 4.517h9.624l.93-4.517z" fill="#fff"/><path d="M169.056 271.299h-9.624a.423.423 0 01-.332-.166.448.448 0 01-.069-.363l1.316-4.54a.409.409 0 01.393-.295h9.246a.413.413 0 01.325.151.447.447 0 01.083.348l-.937 4.54a.419.419 0 01-.401.325zm-9.072-.832h8.732l.756-3.692h-8.422l-1.066 3.692z" fill="#2F3646"/><path d="M147.659 266.366h-9.245l-2.208 4.517h9.616l1.837-4.517z" fill="#fff"/><path d="M145.824 271.299h-9.616a.417.417 0 01-.355-.196.396.396 0 010-.401l2.207-4.54a.41.41 0 01.37-.235h9.254a.411.411 0 01.378.568l-1.837 4.54a.419.419 0 01-.401.264zm-8.951-.832h8.679l1.512-3.692h-8.392l-1.799 3.692z" fill="#2F3646"/><path d="M124.596 270.883h9.616l2.291-4.517h-9.246l-2.661 4.517z" fill="#fff"/><path d="M134.213 271.299h-9.616a.419.419 0 01-.363-.628l2.661-4.539a.396.396 0 01.356-.205h9.253a.428.428 0 01.355.197.418.418 0 010 .409l-2.268 4.539a.408.408 0 01-.378.227zm-8.89-.832h8.641l1.867-3.692h-8.316l-2.192 3.692z" fill="#2F3646"/><path d="M158.829 266.366h-9.246l-1.762 4.517h9.624l1.384-4.517z" fill="#fff"/><path d="M157.444 271.299h-9.624a.409.409 0 01-.34-.181.39.39 0 01-.045-.386l1.761-4.54a.416.416 0 01.151-.193.417.417 0 01.235-.072h9.246a.417.417 0 01.332.167.416.416 0 01.073.178.45.45 0 01-.012.193l-1.384 4.539a.416.416 0 01-.393.295zm-9.019-.832h8.709l1.134-3.692h-8.384l-1.459 3.692z" fill="#2F3646"/><path d="M192.312 266.366h-9.246l-.408 4.517h9.624l.03-4.517z" fill="#fff"/><path d="M192.28 271.299h-9.624a.408.408 0 01-.302-.136.382.382 0 01-.106-.318l.408-4.539a.41.41 0 01.409-.379h9.246a.418.418 0 01.415.417v4.539a.426.426 0 01-.278.392.437.437 0 01-.168.024zm-9.132-.832h8.762v-3.692h-8.467l-.295 3.692z" fill="#2F3646"/><path d="M125.342 266.366h-11.74l-3.213 4.517h12.209l2.744-4.517z" fill="#fff"/><path d="M122.598 271.299h-12.209a.404.404 0 01-.217-.06.413.413 0 01-.123-.598l3.213-4.54a.435.435 0 01.34-.174h11.741a.416.416 0 01.355.212.395.395 0 010 .416l-2.737 4.54a.413.413 0 01-.363.204zm-11.408-.832h11.174l2.268-3.692h-10.818l-2.624 3.692z" fill="#2F3646"/><path d="M248.127 266.366h-9.254l1.852 4.517h9.617l-2.215-4.517z" fill="#fff"/><path d="M250.341 271.299h-9.616a.414.414 0 01-.386-.257l-1.844-4.54a.403.403 0 01.184-.519.407.407 0 01.194-.048h9.291a.416.416 0 01.37.227l2.223 4.54a.413.413 0 01-.023.404.417.417 0 01-.355.193h-.038zm-9.344-.832h8.679l-1.807-3.692h-8.377l1.505 3.692z" fill="#2F3646"/><path d="M250.039 266.366l2.298 4.517h24.313l-3.243-4.517h-23.368z" fill="#fff"/><path d="M276.65 271.299h-24.313a.413.413 0 01-.37-.227l-2.268-4.539a.41.41 0 010-.409.428.428 0 01.355-.197h23.368a.423.423 0 01.34.174l3.243 4.54a.42.42 0 010 .431.414.414 0 01-.355.227zm-24.064-.832h23.255l-2.646-3.692h-22.483l1.874 3.692z" fill="#2F3646"/><path d="M214.634 266.366h-9.246l.492 4.517h9.623l-.869-4.517z" fill="#fff"/><path d="M215.505 271.299h-9.624a.409.409 0 01-.409-.37l-.491-4.54a.422.422 0 01.098-.325.446.446 0 01.31-.137h9.246a.418.418 0 01.408.333l.87 4.54a.402.402 0 01-.091.34.425.425 0 01-.317.159zm-9.246-.832h8.747l-.711-3.692h-8.467l.431 3.692z" fill="#2F3646"/><path d="M225.801 266.366h-9.253l.952 4.517h9.617l-1.316-4.517z" fill="#fff"/><path d="M227.117 271.299h-9.624a.405.405 0 01-.401-.333l-.945-4.539a.419.419 0 01.225-.461.411.411 0 01.176-.039h9.253a.417.417 0 01.394.296l1.323 4.539a.42.42 0 01-.069.363.397.397 0 01-.332.174zm-9.284-.832h8.732l-1.081-3.692h-8.422l.771 3.692z" fill="#2F3646"/><path d="M236.962 266.366h-9.246l1.398 4.517h9.617l-1.769-4.517z" fill="#fff"/><path d="M238.728 271.299h-9.616a.42.42 0 01-.401-.295l-1.399-4.539a.412.412 0 01.068-.371.397.397 0 01.333-.167h9.246a.414.414 0 01.386.265l1.769 4.54a.415.415 0 010 .386.428.428 0 01-.386.181zm-9.314-.832h8.709l-1.444-3.692h-8.406l1.141 3.692z" fill="#2F3646"/><path d="M187.011 261.804h-8.898l-.582 4.146h9.246l.234-4.146z" fill="#fff"/><path d="M186.778 266.366h-9.246a.414.414 0 01-.408-.469l.582-4.154a.412.412 0 01.408-.355h8.898a.405.405 0 01.391.272.43.43 0 01.025.167l-.234 4.146a.425.425 0 01-.416.393zm-8.77-.832h8.377l.189-3.322h-8.097l-.469 3.322z" fill="#2F3646"/><path d="M197.745 261.804h-8.899l-.166 4.146h9.246l-.181-4.146z" fill="#fff"/><path d="M197.928 266.366h-9.246a.39.39 0 01-.295-.128.43.43 0 01-.121-.303l.167-4.154a.419.419 0 01.131-.277.419.419 0 01.284-.116h8.898a.415.415 0 01.416.393l.174 4.154a.375.375 0 01-.113.303.39.39 0 01-.295.128zm-8.815-.832h8.399l-.144-3.321h-8.119l-.136 3.321z" fill="#2F3646"/><path d="M176.275 261.804h-8.898l-.991 4.146h9.239l.65-4.146z" fill="#fff"/><path d="M175.627 266.366h-9.238a.418.418 0 01-.325-.159.394.394 0 01-.083-.355l.997-4.147a.413.413 0 01.401-.317h8.898a.408.408 0 01.318.143.405.405 0 01.098.333l-.658 4.154a.413.413 0 01-.408.348zm-8.717-.832h8.362l.521-3.322h-8.081l-.802 3.322z" fill="#2F3646"/><path d="M165.548 261.804h-8.898l-1.414 4.146h9.239l1.073-4.146z" fill="#fff"/><path d="M164.475 266.366h-9.238a.411.411 0 01-.394-.545l1.414-4.153a.407.407 0 01.393-.28h8.898a.418.418 0 01.325.159.417.417 0 01.076.355l-1.073 4.154a.42.42 0 01-.401.31zm-8.664-.832h8.316l.854-3.321h-8.036l-1.134 3.321z" fill="#2F3646"/><path d="M154.813 261.804h-8.898l-1.83 4.146h9.246l1.482-4.146z" fill="#fff"/><path d="M153.331 266.366h-9.246a.404.404 0 01-.347-.189.4.4 0 010-.393l1.829-4.146a.41.41 0 01.378-.25h8.898a.42.42 0 01.34.174.409.409 0 01.046.378l-1.512 4.154a.413.413 0 01-.386.272zm-8.611-.832h8.316l1.187-3.321h-8.044l-1.459 3.321z" fill="#2F3646"/><path d="M132.936 265.95h9.246l1.897-4.146h-8.898l-2.245 4.146z" fill="#fff"/><path d="M142.18 266.366h-9.246a.408.408 0 01-.354-.204.423.423 0 01-.009-.409l2.268-4.146a.408.408 0 01.363-.219h8.898a.404.404 0 01.348.189.423.423 0 010 .393l-1.897 4.154a.417.417 0 01-.152.173.417.417 0 01-.219.069zm-8.55-.832h8.316l1.512-3.321h-8.029l-1.799 3.321z" fill="#2F3646"/><path d="M208.482 261.804h-8.899l.25 4.146h9.246l-.597-4.146z" fill="#fff"/><path d="M209.069 266.366h-9.238a.417.417 0 01-.282-.113.42.42 0 01-.134-.272l-.249-4.154a.407.407 0 01.025-.166.414.414 0 01.39-.273h8.899a.414.414 0 01.408.356l.597 4.146a.436.436 0 01-.098.333.442.442 0 01-.318.143zm-8.853-.832h8.377l-.469-3.321h-8.104l.196 3.321z" fill="#2F3646"/><path d="M133.343 261.804h-16.496l-2.949 4.146h17.131l2.314-4.146z" fill="#fff"/><path d="M131.03 266.366h-17.131a.398.398 0 01-.371-.227.426.426 0 010-.431l2.956-4.146a.388.388 0 01.333-.174h16.496a.42.42 0 01.363.613l-2.314 4.153a.415.415 0 01-.332.212zm-16.33-.832h16.088l1.852-3.321h-15.581l-2.359 3.321z" fill="#2F3646"/><path d="M262.152 261.804h-8.899l2.329 4.146h9.238l-2.668-4.146z" fill="#fff"/><path d="M264.796 266.366h-9.216a.413.413 0 01-.209-.057.432.432 0 01-.154-.155l-2.328-4.153a.421.421 0 01.008-.409.423.423 0 01.355-.204h8.898a.4.4 0 01.347.189l2.677 4.154a.422.422 0 01.003.419.423.423 0 01-.359.216h-.022zm-8.997-.832h8.241l-2.14-3.321h-7.938l1.837 3.321z" fill="#2F3646"/><path d="M219.217 261.804h-8.899l.666 4.146h9.238l-1.005-4.146z" fill="#fff"/><path d="M220.192 266.366h-9.208a.416.416 0 01-.408-.348l-.665-4.153a.407.407 0 01.09-.333.431.431 0 01.318-.144h8.898a.412.412 0 01.401.318l1.013 4.146a.406.406 0 01-.083.355.416.416 0 01-.356.159zm-8.89-.832h8.369l-.809-3.321h-8.089l.529 3.321z" fill="#2F3646"/><path d="M251.413 261.804h-8.898l1.913 4.146h9.246l-2.261-4.146z" fill="#fff"/><path d="M253.675 266.366h-9.246a.42.42 0 01-.223-.067.417.417 0 01-.155-.175l-1.935-4.146a.412.412 0 010-.401.4.4 0 01.348-.189h8.951a.438.438 0 01.37.212l2.268 4.153a.412.412 0 01-.009.409.412.412 0 01-.354.204h-.015zm-8.981-.832h8.316l-1.822-3.322h-8.021l1.527 3.322z" fill="#2F3646"/><path d="M229.951 261.804h-8.898l1.073 4.146h9.246l-1.421-4.146z" fill="#fff"/><path d="M231.374 266.366h-9.246a.418.418 0 01-.4-.31l-1.074-4.154a.403.403 0 01.068-.355.442.442 0 01.333-.159h8.898a.408.408 0 01.386.28l1.428 4.146a.407.407 0 01-.202.505.435.435 0 01-.191.047zm-8.921-.832h8.316l-1.134-3.321h-8.051l.869 3.321z" fill="#2F3646"/><path d="M240.686 261.804h-8.906l1.497 4.146h9.246l-1.837-4.146z" fill="#fff"/><path d="M242.525 266.366h-9.246a.408.408 0 01-.385-.272l-1.512-4.154a.408.408 0 01.052-.374.409.409 0 01.333-.178h8.906a.425.425 0 01.378.242l1.837 4.154a.419.419 0 010 .393.408.408 0 01-.363.189zm-8.951-.832h8.316l-1.474-3.321h-8.044l1.202 3.321z" fill="#2F3646"/><path d="M174.742 261.418h8.687l.347-3.821H175.4l-.658 3.821z" fill="#fff"/><path d="M183.428 261.834h-8.687a.408.408 0 01-.317-.144.435.435 0 01-.091-.34l.658-3.828a.408.408 0 01.408-.341h8.377a.394.394 0 01.169.035.406.406 0 01.226.249.428.428 0 01.02.17l-.347 3.821a.418.418 0 01-.416.378zm-8.195-.825h7.817l.272-3.026h-7.56l-.529 3.026z" fill="#2F3646"/><path d="M164.224 261.418h8.686l.726-3.821h-8.384l-1.028 3.821z" fill="#fff"/><path d="M172.912 261.834h-8.664a.416.416 0 01-.41-.332.407.407 0 01.009-.19l1.036-3.828a.421.421 0 01.146-.217.425.425 0 01.247-.086h8.384a.413.413 0 01.401.492l-.718 3.828a.424.424 0 01-.431.333zm-8.15-.824h7.802l.574-3.027h-7.56l-.816 3.027z" fill="#2F3646"/><path d="M185.257 261.418h8.687l-.023-3.821h-8.384l-.28 3.821z" fill="#fff"/><path d="M193.943 261.834h-8.686a.4.4 0 01-.408-.446l.279-3.821a.415.415 0 01.409-.386h8.384c.108 0 .212.043.288.12.077.076.12.18.12.289v3.828a.387.387 0 01-.121.295.416.416 0 01-.265.121zm-8.24-.824h7.825v-3.027h-7.56l-.265 3.027z" fill="#2F3646"/><path d="M132.671 261.418h8.687l1.852-3.821h-8.376l-2.163 3.821z" fill="#fff"/><path d="M141.356 261.834h-8.686a.414.414 0 01-.42-.412c0-.073.02-.145.057-.208l2.162-3.783a.426.426 0 01.363-.212h8.376a.425.425 0 01.356.197.402.402 0 010 .401l-1.852 3.821a.415.415 0 01-.356.196zm-7.976-.824h7.719l1.452-3.027h-7.477l-1.694 3.027z" fill="#2F3646"/><path d="M143.186 261.418h8.686l1.482-3.821h-8.384l-1.784 3.821z" fill="#fff"/><path d="M151.872 261.834h-8.686a.393.393 0 01-.348-.189.424.424 0 010-.401l1.792-3.828a.406.406 0 01.37-.235h8.384a.406.406 0 01.34.182.42.42 0 01.046.378l-1.512 3.828a.409.409 0 01-.386.265zm-8.036-.824h7.756l1.157-3.027h-7.514l-1.399 3.027z" fill="#2F3646"/><path d="M195.773 261.418h8.694l-.408-3.821h-8.376l.09 3.821z" fill="#fff"/><path d="M204.466 261.834h-8.694a.407.407 0 01-.409-.401l-.098-3.828a.412.412 0 01.119-.299.404.404 0 01.136-.092.407.407 0 01.161-.033h8.377a.418.418 0 01.415.371l.401 3.828a.408.408 0 01-.098.318.415.415 0 01-.31.136zm-8.316-.824h7.824l-.317-3.027h-7.56l.053 3.027z" fill="#2F3646"/><path d="M153.702 261.418h8.686l1.104-3.821h-8.377l-1.413 3.821z" fill="#fff"/><path d="M162.396 261.834h-8.694a.41.41 0 01-.343-.176.409.409 0 01-.043-.384l1.414-3.821a.403.403 0 01.385-.272h8.377a.422.422 0 01.332.165.414.414 0 01.069.365l-1.104 3.828a.418.418 0 01-.393.295zm-8.097-.824h7.779l.862-3.027h-7.56l-1.081 3.027z" fill="#2F3646"/><path d="M267.117 257.597h-8.823l2.42 3.821h2.154c.292-.021.58.074.802.265l2.835 4.313h6.501l-5.889-8.399z" fill="#fff"/><path d="M273.004 266.412h-6.501a.427.427 0 01-.34-.189l-2.835-4.313a1.527 1.527 0 00-.454-.076h-2.162a.401.401 0 01-.348-.189l-2.419-3.828a.43.43 0 010-.424.426.426 0 01.363-.212h8.822a.437.437 0 01.341.174l5.889 8.398a.433.433 0 010 .432.437.437 0 01-.356.227zm-6.274-.833h5.481l-5.292-7.566h-7.87l1.89 3.027h1.927a1.458 1.458 0 011.15.446l2.714 4.093z" fill="#2F3646"/><path d="M237.854 261.418h8.686l-1.912-3.821h-8.377l1.603 3.821z" fill="#fff"/><path d="M246.539 261.834h-8.686a.418.418 0 01-.386-.249l-1.595-3.829a.409.409 0 010-.393.434.434 0 01.348-.182h8.376a.42.42 0 01.371.227l1.913 3.829a.402.402 0 010 .401.431.431 0 01-.341.196zm-8.414-.824h7.772l-1.512-3.027h-7.5l1.24 3.027z" fill="#2F3646"/><path d="M248.37 261.418h10.516l-2.352-3.821h-10.138l1.974 3.821z" fill="#fff"/><path d="M258.884 261.834h-10.516a.41.41 0 01-.37-.227l-1.974-3.821a.422.422 0 01.168-.552.413.413 0 01.203-.053h10.138a.424.424 0 01.355.197l2.351 3.828a.402.402 0 010 .416.415.415 0 01-.355.212zm-10.266-.824h9.525l-1.837-3.027h-9.231l1.543 3.027z" fill="#2F3646"/><path d="M117.119 261.418h13.722l2.23-3.821h-13.23l-2.722 3.821z" fill="#fff"/><path d="M130.839 261.834h-13.721a.416.416 0 01-.341-.65l2.722-3.829a.425.425 0 01.34-.174h13.23a.412.412 0 01.354.209.415.415 0 01.002.412l-2.231 3.866a.412.412 0 01-.355.166zm-12.92-.824h12.678l1.746-3.027h-12.292l-2.132 3.027z" fill="#2F3646"/><path d="M206.297 261.418h8.686l-.778-3.821h-8.377l.469 3.821z" fill="#fff"/><path d="M214.984 261.834h-8.686a.414.414 0 01-.416-.363l-.469-3.828a.44.44 0 01.099-.326.454.454 0 01.317-.136h8.377a.41.41 0 01.4.333l.756 3.821a.428.428 0 01-.083.348.412.412 0 01-.295.151zm-8.316-.824h7.817l-.612-3.027h-7.56l.355 3.027z" fill="#2F3646"/><path d="M227.329 261.418h8.694l-1.535-3.821h-8.377l1.218 3.821z" fill="#fff"/><path d="M236.024 261.834h-8.694a.41.41 0 01-.393-.287l-1.225-3.829a.439.439 0 01.06-.37.422.422 0 01.341-.167h8.376a.429.429 0 01.23.073.423.423 0 01.156.184l1.512 3.829a.44.44 0 01-.046.386.4.4 0 01-.317.181zm-8.392-.824h7.779l-1.202-3.027h-7.56l.983 3.027z" fill="#2F3646"/><path d="M216.813 261.418h8.686l-1.157-3.821h-8.376l.847 3.821z" fill="#fff"/><path d="M225.484 261.834h-8.671a.406.406 0 01-.401-.325l-.847-3.821a.432.432 0 01.076-.356.408.408 0 01.325-.151h8.376a.428.428 0 01.401.295l1.157 3.821a.411.411 0 01-.068.371.403.403 0 01-.348.166zm-8.316-.824h7.802l-.907-3.027h-7.56l.665 3.027z" fill="#2F3646"/><path d="M222.28 215.364v-19.059h-56.095v19.059a27.653 27.653 0 01-5.957 17.137l-2.457 3.102h72.923l-2.457-3.102a27.599 27.599 0 01-5.957-17.137z" fill="#fff"/><path d="M230.696 236.019h-72.924a.428.428 0 01-.378-.235.43.43 0 01.053-.438l2.457-3.103a27.32 27.32 0 005.859-16.879v-19.059a.415.415 0 01.416-.416h56.095a.416.416 0 01.416.416v19.059a27.25 27.25 0 005.867 16.879l2.457 3.103a.42.42 0 01-.103.608.41.41 0 01-.215.065zm-72.069-.832h71.207l-1.92-2.429a28.136 28.136 0 01-6.048-17.402v-18.635h-55.264v18.643a28.187 28.187 0 01-6.048 17.402l-1.927 2.421z" fill="#2F3646"/><path d="M162.737 228.718h62.983a27.635 27.635 0 01-3.44-13.354v-19.059h-56.095v19.059a27.648 27.648 0 01-3.448 13.354z" fill="#F995A6"/><path d="M222.28 199.172h-56.095v8.051h56.095v-8.051z" fill="#2F3646"/><path d="M222.28 207.639h-56.095a.424.424 0 01-.311-.13.44.44 0 01-.09-.146.432.432 0 01-.023-.171v-8.02a.416.416 0 01.416-.416h56.095a.415.415 0 01.416.416v8.02a.41.41 0 01-.108.312.415.415 0 01-.3.135zm-55.679-.833h55.263v-7.18h-55.263v7.18z" fill="#2F3646"/><path d="M299.93 33.098H88.53a7.026 7.026 0 00-7.023 7.029V195.29a7.026 7.026 0 007.023 7.029h211.4a7.027 7.027 0 007.024-7.029V40.127a7.027 7.027 0 00-7.024-7.03z" fill="#2F3646"/><path d="M299.93 33.098H88.53a7.026 7.026 0 00-7.023 7.029V195.29a7.026 7.026 0 007.023 7.029h211.4a7.027 7.027 0 007.024-7.029V40.127a7.027 7.027 0 00-7.024-7.03z" fill="url(#paint0_linear)"/><path d="M299.929 202.728H88.536a7.443 7.443 0 01-5.263-2.18 7.454 7.454 0 01-2.184-5.265V40.127a7.456 7.456 0 012.184-5.265 7.444 7.444 0 015.263-2.18h211.393a7.445 7.445 0 015.258 2.182 7.458 7.458 0 012.181 5.263v155.156a7.456 7.456 0 01-2.181 5.262 7.444 7.444 0 01-5.258 2.183zM88.536 33.506a6.62 6.62 0 00-4.675 1.942 6.63 6.63 0 00-1.94 4.679v155.156a6.628 6.628 0 006.615 6.621h211.393a6.627 6.627 0 004.673-1.944 6.641 6.641 0 001.942-4.677V40.127a6.64 6.64 0 00-1.942-4.677 6.628 6.628 0 00-4.673-1.944H88.536z" fill="#2F3646"/><path d="M81.507 176.013h225.447v19.27a7.03 7.03 0 01-7.024 7.029H88.538a7.03 7.03 0 01-7.023-7.029v-19.27h-.008z" fill="#fff"/><path d="M299.929 202.728H88.536a7.443 7.443 0 01-5.263-2.18 7.454 7.454 0 01-2.184-5.265v-19.27a.417.417 0 01.416-.417h225.447a.416.416 0 01.416.417v19.27a7.456 7.456 0 01-2.181 5.262 7.444 7.444 0 01-5.258 2.183zM81.921 176.429v18.854a6.628 6.628 0 006.615 6.621h211.393a6.627 6.627 0 004.673-1.944 6.641 6.641 0 001.942-4.677v-18.854H81.921z" fill="#2F3646"/><path d="M295.612 43.622H92.845v119.551h202.767V43.623z" fill="#D7556A"/><path d="M295.611 163.589H92.844a.414.414 0 01-.384-.257.412.412 0 01-.032-.159V43.63a.416.416 0 01.416-.416h202.767a.416.416 0 01.416.416v119.543a.404.404 0 01-.12.297.414.414 0 01-.296.119zm-202.351-.824h201.943V44.038H93.26v118.727z" fill="#2F3646"/><path d="M274.769 137.305H113.855a.378.378 0 01-.378-.378V64.595a.377.377 0 01.378-.378h160.914a.376.376 0 01.378.378v72.332a.386.386 0 01-.378.378zm-160.536-.757h160.158V64.951H114.233v71.597zm91.323-89.317H94.764a.378.378 0 010-.756h110.678l2.971-1.983a.367.367 0 01.426-.002.366.366 0 01.103.108.377.377 0 01-.105.522l-3.07 2.043a.353.353 0 01-.211.068zm41.935 0h-39.547a.378.378 0 010-.756h39.464l2.971-1.983a.356.356 0 01.284-.06.363.363 0 01.237.166.364.364 0 01.006.418.368.368 0 01-.104.104l-3.069 2.043a.357.357 0 01-.242.068zm42.957 0h-39.546a.378.378 0 010-.756h39.433l2.971-1.983a.366.366 0 01.42-.002.363.363 0 01.102.108.373.373 0 01-.106.522l-3.062 2.043a.371.371 0 01-.212.068z" fill="#fff"/><path d="M117.778 60.843a1.194 1.194 0 100-2.39 1.194 1.194 0 000 2.39zm5.626-.001a1.194 1.194 0 100-2.388 1.194 1.194 0 000 2.388zm5.623.001a1.195 1.195 0 100-2.39 1.195 1.195 0 000 2.39z" fill="#F995A6"/><path d="M284.876 131.615l-7.266-4.199v8.398l7.266-4.199zm-180.744 0l7.265-4.199v8.398l-7.265-4.199z" fill="#fff"/><path d="M198.391 189.162a4.165 4.165 0 00-2.567-3.844 4.149 4.149 0 00-4.531.902 4.168 4.168 0 00-.901 4.535 4.153 4.153 0 003.841 2.569 4.156 4.156 0 004.158-4.162z" fill="#2F3646"/><path d="M194.232 193.74a4.57 4.57 0 01-4.226-2.826 4.581 4.581 0 013.334-6.241 4.568 4.568 0 014.695 1.946 4.578 4.578 0 01-3.803 7.121zm0-8.323a3.749 3.749 0 00-3.43 2.338 3.75 3.75 0 00.835 4.069 3.739 3.739 0 005.747-.585 3.75 3.75 0 00.628-2.077 3.782 3.782 0 00-3.78-3.745z" fill="#2F3646"/><path d="M230.709 235.603h-72.938v3.404h72.938v-3.404z" fill="#fff"/><path d="M230.711 239.424h-72.939a.415.415 0 01-.416-.416v-3.405a.415.415 0 01.416-.416h72.939a.416.416 0 01.415.416v3.405a.415.415 0 01-.415.416zm-72.508-.833h72.107v-2.572h-72.107v2.572z" fill="#2F3646"/><path d="M241.505 62.295v7.34h5.67v-7.241l-5.67-.099z" fill="#fff"/><path d="M247.172 70.013h-5.669a.383.383 0 01-.378-.378v-7.34a.383.383 0 01.113-.264.365.365 0 01.272-.114l5.67.098a.386.386 0 01.37.379v7.24a.377.377 0 01-.378.379zm-5.291-.757h4.913v-6.492l-4.913-.083v6.575z" fill="#2F3646"/><path d="M239.683 142.775s-1.119 2.565-2.873 3.639c-1.754 1.075-1.346 1.688-.537 1.892.809.204 6.608 0 6.608 0s.544-.068.544-1.415-.348-4.116-.348-4.116h-3.394z" fill="#fff"/><path d="M238.413 148.775a14.45 14.45 0 01-2.268-.098c-.756-.19-.937-.606-.967-.84-.091-.537.37-1.112 1.398-1.74 1.633-1.007 2.714-3.443 2.722-3.473a.389.389 0 01.348-.227h3.394c.092.001.18.035.248.097a.373.373 0 01.122.236c0 .113.356 2.799.356 4.161 0 1.604-.756 1.77-.877 1.793-.363.015-2.654.091-4.476.091zm1.512-5.622a9.14 9.14 0 01-2.918 3.587c-.899.552-1.058.9-1.051.983.008.084.121.144.409.22 2.145.112 4.295.112 6.441 0 .053-.046.242-.265.242-1.037 0-1.036-.22-2.966-.31-3.737l-2.813-.016z" fill="#2F3646"/><path d="M251.802 142.775s1.119 2.565 2.873 3.639c1.754 1.075 1.346 1.688.537 1.892-.809.204-6.608 0-6.608 0s-.544-.068-.544-1.415.348-4.116.348-4.116h3.394z" fill="#fff"/><path d="M253.07 148.775c-1.822 0-4.105-.076-4.483-.091-.181 0-.907-.189-.907-1.793 0-1.362.34-4.048.355-4.161a.379.379 0 01.371-.333h3.394a.386.386 0 01.348.227s1.089 2.466 2.722 3.473c1.028.628 1.512 1.203 1.398 1.74 0 .234-.204.65-.967.84-.74.09-1.486.123-2.231.098zm-4.392-.847c2.146.112 4.296.112 6.441 0 .288-.076.401-.182.408-.22.008-.038-.151-.431-1.058-.983a9.187 9.187 0 01-2.911-3.587h-2.812c-.091.757-.31 2.701-.31 3.738 0 .787.189 1.006.242 1.052z" fill="#2F3646"/><path d="M236.408 98.786l3.122 43.966h3.584l1.504-40.031h1.036l2.775 39.918h3.583l1.625-42.695-.582-1.854-15.951-.34-.696 1.036z" fill="#2F3646"/><path d="M236.408 98.786l3.122 43.966h3.584l1.504-40.031h1.036l2.775 39.918h3.583l1.625-42.695-.582-1.854-15.951-.34-.696 1.036z" fill="url(#paint1_linear)"/><path d="M243.116 143.131h-3.584a.382.382 0 01-.378-.348l-3.084-43.967a.404.404 0 01.06-.242l.696-1.036a.403.403 0 01.325-.167l15.952.34a.386.386 0 01.355.273l.574 1.846a.234.234 0 010 .129l-1.617 42.695a.382.382 0 01-.116.258.383.383 0 01-.262.105h-3.584a.374.374 0 01-.259-.103.375.375 0 01-.119-.252l-2.744-39.563h-.325l-1.512 39.668a.38.38 0 01-.378.364zm-3.236-.757h2.873l1.512-39.669a.375.375 0 01.116-.257.376.376 0 01.262-.106h1.036a.378.378 0 01.378.356l2.751 39.563h2.866l1.602-42.264-.476-1.513-15.475-.341-.507.757 3.062 43.474z" fill="#2F3646"/><path d="M239.312 139.628l.22 3.124h3.583l.114-3.124h-3.917z" fill="#fff"/><path d="M243.114 143.131h-3.583a.38.38 0 01-.378-.348l-.22-3.125a.405.405 0 01.099-.288.39.39 0 01.279-.121h3.917a.366.366 0 01.272.121.351.351 0 01.106.273l-.114 3.125a.375.375 0 01-.116.257.376.376 0 01-.262.106zm-3.236-.757h2.873l.083-2.368h-3.122l.166 2.368z" fill="#2F3646"/><path d="M248.225 139.628l.204 3.011h3.583l.114-3.011h-3.901z" fill="#fff"/><path d="M252.014 143.017h-3.583a.378.378 0 01-.378-.355l-.204-3.027a.384.384 0 01.098-.287.392.392 0 01.127-.09c.048-.02.1-.031.153-.031h3.9a.35.35 0 01.273.121.339.339 0 01.105.272l-.113 3.026a.38.38 0 01-.378.371zm-3.228-.756h2.865l.083-2.27h-3.107l.159 2.27z" fill="#2F3646"/><path d="M250.689 68.847h-12.996V98.09h12.996V68.847z" fill="#fff"/><path d="M250.695 98.476h-13.003a.383.383 0 01-.378-.378v-29.25a.384.384 0 01.378-.379h13.003a.383.383 0 01.378.378v29.25a.384.384 0 01-.378.379zm-12.625-.757h12.247V69.226H238.07v28.493z" fill="#2F3646"/><path d="M249.141 57.31s1.005-1.355 1.232 0c.227 1.354-1.724 3.026-1.724 3.026l.492-3.027z" fill="#fff"/><path d="M248.648 60.721a.315.315 0 01-.181-.052.36.36 0 01-.189-.386l.484-3.027a.41.41 0 01.075-.166c.151-.212.703-.878 1.278-.757.332.083.544.386.635.9.249 1.514-1.641 3.193-1.852 3.383a.395.395 0 01-.25.105zm.847-3.253l-.28 1.733a2.688 2.688 0 00.756-1.831.604.604 0 00-.098-.303c-.14.12-.267.254-.378.401z" fill="#2F3646"/><path d="M239.455 57.31s-1.013-1.355-1.239 0c-.227 1.353 1.731 3.026 1.731 3.026l-.492-3.027z" fill="#fff"/><path d="M239.947 60.721a.38.38 0 01-.25-.09c-.219-.19-2.101-1.87-1.852-3.382.083-.515.302-.818.635-.9.567-.144 1.119.521 1.278.756a.328.328 0 01.068.166l.491 3.027a.386.386 0 01-.189.386.333.333 0 01-.181.038zm-1.293-3.631s0 .106-.061.28a2.66 2.66 0 00.756 1.83l-.279-1.732a1.377 1.377 0 00-.416-.378z" fill="#2F3646"/><path d="M244.634 50.659s-3.78-.295-4.687 2.27c-.907 2.564-.295 6.65 0 7.437.295.787 2.736 4.592 3.417 4.888.68.295 2.343.196 2.638-.197.295-.394 2.737-4.01 2.934-5.296a47.89 47.89 0 00-.106-5.607 3.489 3.489 0 00-2.147-3.026 6.465 6.465 0 00-2.049-.47z" fill="#fff"/><path d="M244.514 65.783a3.658 3.658 0 01-1.3-.204c-.862-.37-3.357-4.388-3.621-5.107-.348-.916-.9-5.107 0-7.687.96-2.777 4.876-2.52 5.08-2.505a7.055 7.055 0 012.162.477 3.885 3.885 0 012.382 3.367 44.83 44.83 0 01.098 5.69c-.227 1.475-2.971 5.41-3.024 5.447a2.464 2.464 0 01-1.777.522zm-.219-14.754c-.884 0-3.356.167-3.992 2.005-.861 2.49-.249 6.515 0 7.173.303.802 2.669 4.419 3.221 4.676a3.42 3.42 0 002.192-.083c.348-.47 2.677-3.965 2.858-5.1a43.815 43.815 0 00-.113-5.53 3.14 3.14 0 00-1.913-2.71 6.194 6.194 0 00-1.928-.423l-.325-.008z" fill="#2F3646"/><path d="M248.828 54.147a3.485 3.485 0 00-2.147-3.026 6.458 6.458 0 00-2.048-.455s-3.78-.295-4.688 2.27a12.345 12.345 0 00-.438 4.472c.197.219.832.9.756.045-.113-1.014-.227-4.048.559-4.721.787-.674.9-1.241 2.026-.34 1.127.9 1.006 1.686 2.132 1.127 1.127-.56 1.346-1.801 2.359-1.355 1.013.447.673 2.588.673 3.602 0 1.014 0 2.92.673 2.02.128-.187.23-.39.302-.605-.068-1.06-.113-2.18-.159-3.034z" fill="#2F3646"/><path d="M248.367 58.368a.685.685 0 01-.174 0c-.499-.166-.582-.945-.582-2.61v-.666c.045-.87.121-2.322-.469-2.587-.332-.152-.468-.06-.922.431-.311.372-.691.68-1.119.908a1.213 1.213 0 01-1.465-.017 1.21 1.21 0 01-.334-.4 4.89 4.89 0 00-.756-.756c-.65-.522-.703-.477-1.142 0a6.477 6.477 0 01-.393.363c-.521.447-.605 2.86-.431 4.396 0 .16.068.636-.31.802-.378.167-.642-.038-1.088-.56a.403.403 0 01-.091-.227 12.94 12.94 0 01.454-4.607c.967-2.785 4.914-2.52 5.08-2.505a7.055 7.055 0 012.162.477 3.89 3.89 0 012.381 3.367c.046.862.106 1.982.137 3.026a.548.548 0 010 .152 2.934 2.934 0 01-.356.696.749.749 0 01-.582.317zm.053-4.494v1.862a13.29 13.29 0 00.076 1.656c.053-.1.101-.204.143-.31-.038-1.006-.09-2.08-.136-2.913-.06-.098-.068-.196-.083-.295zm-6.517-2.353c.436.047.843.239 1.157.545.311.255.594.542.847.855.37.446.393.469.884.227.345-.194.65-.45.9-.757a1.737 1.737 0 011.225-.756 2.831 2.831 0 00-.401-.205 6.197 6.197 0 00-1.928-.423 6.49 6.49 0 00-2.903.499l.219.015z" fill="#2F3646"/><path d="M255.384 70.414s3.425 11.447 3.425 13.792c0 2.346-2.155 4.404-3.13 4.305-.975-.098-2.147-4.796-2.54-5.87a9.449 9.449 0 01-.492-2.051l2.737-10.176z" fill="#fff"/><path d="M255.726 88.89h-.106c-.869-.09-1.512-1.778-2.532-5.077-.137-.454-.25-.825-.326-1.044a9.603 9.603 0 01-.506-2.141.285.285 0 010-.136l2.737-10.177a.39.39 0 01.363-.28.376.376 0 01.362.273c.144.469 3.44 11.523 3.44 13.898a5.5 5.5 0 01-1.829 3.882c-.425.446-.992.73-1.603.802zm-2.714-8.27c.086.645.241 1.28.461 1.892.083.227.197.612.34 1.082.325 1.082 1.323 4.373 1.89 4.54.227 0 .628-.16 1.127-.606a4.733 4.733 0 001.58-3.322c0-1.8-2.14-9.344-3.024-12.393l-2.374 8.807z" fill="#2F3646"/><path d="M241.413 66.6s1.656 10.858 1.656 13.892c0 3.033-.877 22.289-.877 22.289l-8.316-.583s3.13-13.013 3.13-15.457c0-2.444-3.909-16.335-3.909-16.335a21.703 21.703 0 018.316-3.806z" fill="#fff"/><path d="M242.194 103.167l-8.316-.583a.363.363 0 01-.28-.159.348.348 0 01-.061-.31c0-.128 3.115-12.99 3.115-15.366 0-2.376-3.856-16.093-3.901-16.23a.387.387 0 01.136-.4 21.875 21.875 0 018.467-3.89.35.35 0 01.288.061c.083.06.14.149.158.25.068.446 1.664 10.925 1.664 13.951 0 3.027-.87 22.124-.877 22.32a.402.402 0 01-.129.265.376.376 0 01-.264.091zm-7.84-1.309l7.477.53c.128-2.74.861-19.142.861-21.897 0-2.754-1.3-11.462-1.595-13.437a21.628 21.628 0 00-7.56 3.51c.545 1.945 3.856 13.87 3.856 16.185 0 2.315-2.487 12.786-3.039 15.109z" fill="#2F3646"/><path d="M247.136 66.517s-1.716 10.94-1.716 13.975c0 3.033.877 22.289.877 22.289l8.316-.583s-3.13-13.013-3.13-15.457c0-2.444 3.909-16.335 3.909-16.335a20.706 20.706 0 00-8.256-3.889z" fill="#fff"/><path d="M246.295 103.167a.373.373 0 01-.249-.091.391.391 0 01-.151-.295c0-.197-.877-19.316-.877-22.32 0-3.004 1.648-13.619 1.723-14.035a.39.39 0 01.151-.25.388.388 0 01.288-.06 20.812 20.812 0 018.422 3.98.38.38 0 01.12.178c.021.07.021.145.001.215 0 .136-3.894 13.869-3.894 16.23 0 2.36 3.138 15.305 3.138 15.396a.348.348 0 01-.061.31.367.367 0 01-.122.11.37.37 0 01-.158.049l-8.316.583h-.015zm1.149-36.196c-.302 1.975-1.648 10.872-1.648 13.52 0 2.649.756 19.158.862 21.897l7.477-.53c-.56-2.323-3.024-12.862-3.024-15.132 0-2.27 3.319-14.262 3.856-16.191a20.755 20.755 0 00-7.523-3.564z" fill="#2F3646"/><path d="M233.105 70.414s-2.268 10.857-2.449 14.867c-.182 4.01 2.736 3.132 3.523 1.763.786-1.37 1.852-5.871 1.852-5.871l-2.926-10.76z" fill="#fff"/><path d="M232.289 88.572a1.99 1.99 0 01-.515-.068c-.597-.174-1.58-.832-1.459-3.238.189-3.995 2.352-14.482 2.45-14.928a.38.38 0 01.355-.303.387.387 0 01.378.28l2.933 10.76a.403.403 0 010 .188c-.045.19-1.096 4.54-1.897 5.97a2.777 2.777 0 01-2.245 1.34zm.899-16.517c-.627 3.155-1.973 10.222-2.124 13.248-.068 1.4.264 2.27.922 2.475a1.876 1.876 0 001.89-.923c.688-1.196 1.641-5.024 1.799-5.675l-2.487-9.125z" fill="#2F3646"/><path d="M247.96 80.59a5.955 5.955 0 012.737.484 5.026 5.026 0 011.565 1.665h-4.098l-.204-2.15z" fill="#fff"/><path d="M252.26 83.11h-4.098a.377.377 0 01-.378-.341l-.196-2.156a.36.36 0 01.017-.15.382.382 0 01.338-.26 6.122 6.122 0 012.949.546 5.206 5.206 0 011.701 1.8.36.36 0 010 .379.37.37 0 01-.333.181zm-3.78-.757h3.024a4.183 4.183 0 00-1.043-.961 4.798 4.798 0 00-2.132-.439l.151 1.4z" fill="#2F3646"/><path d="M254.409 81.861l-14.561-.757-.196 2.157 15.052 5.145s1.852.688 2.147-.976" fill="#fff"/><path d="M255.52 88.928a3.228 3.228 0 01-.953-.16l-15.036-5.182a.375.375 0 01-.257-.393l.196-2.15a.388.388 0 01.393-.347l14.568.756a.373.373 0 01.261.127.375.375 0 01.095.274.393.393 0 01-.401.356l-14.198-.757-.136 1.514 14.772 5.092c.402.152.846.152 1.248 0a.893.893 0 00.408-.681.363.363 0 01.155-.245.37.37 0 01.284-.058.365.365 0 01.302.285.36.36 0 010 .146 1.63 1.63 0 01-.756 1.21 1.888 1.888 0 01-.945.213z" fill="#2F3646"/><path d="M233.391 81.37l14.568-.757.197 2.148-15.052 5.183s-1.86.689-2.155-.976" fill="#fff"/><path d="M232.286 88.443a1.84 1.84 0 01-.93-.227 1.637 1.637 0 01-.756-1.203.39.39 0 01.064-.284.371.371 0 01.246-.154.372.372 0 01.431.302.918.918 0 00.409.681c.397.16.842.16 1.239 0l14.78-5.084-.136-1.513-14.198.756a.377.377 0 01-.396-.36.38.38 0 01.359-.396l14.56-.757a.376.376 0 01.401.34l.189 2.157a.365.365 0 01-.25.386l-15.052 5.19a3.016 3.016 0 01-.96.166z" fill="#2F3646"/><path d="M231.342 153.375l.673 2.081h2.193l-1.769 1.286.672 2.081-1.769-1.287-1.769 1.287.673-2.081-1.769-1.286h2.192l.673-2.081z" fill="#F995A6"/><path d="M233.112 159.201a.39.39 0 01-.219-.068l-1.55-1.12-1.55 1.127a.38.38 0 01-.582-.189.374.374 0 010-.234l.59-1.824-1.512-1.127a.38.38 0 01.219-.681h1.913l.59-1.823a.394.394 0 01.378-.268.398.398 0 01.378.268l.589 1.823h1.913a.38.38 0 01.353.493.38.38 0 01-.134.188l-1.512 1.127.59 1.824a.367.367 0 01-.052.341.368.368 0 01-.311.151l-.091-.008zm-1.769-2.043a.34.34 0 01.219.076l.832.598-.317-.976a.376.376 0 01.136-.417l.831-.605h-1.028a.376.376 0 01-.355-.265l-.318-.976-.317.976a.376.376 0 01-.356.265h-1.028l.832.605a.376.376 0 01.136.417l-.318.976.832-.598a.343.343 0 01.219-.076zm7.923-3.783l.673 2.081h2.192l-1.769 1.286.673 2.081-1.769-1.287-1.769 1.287.673-2.081-1.769-1.286h2.185l.68-2.081z" fill="#F995A6"/><path d="M237.496 159.201a.374.374 0 01-.379-.315.368.368 0 01.016-.177l.59-1.823-1.512-1.128a.37.37 0 01.219-.681h1.905l.59-1.823a.394.394 0 01.718 0l.597 1.823h1.875a.38.38 0 01.358.492.367.367 0 01-.139.189l-1.55 1.128.598 1.823a.378.378 0 01-.137.424.374.374 0 01-.445 0l-1.512-1.127-1.55 1.127a.4.4 0 01-.242.068zm1.769-2.043a.35.35 0 01.219.076l.832.598-.318-.976a.373.373 0 01.136-.417l.832-.605h-1.028a.373.373 0 01-.356-.265l-.317-.976-.318.976a.375.375 0 01-.363.265h-1.005l.832.605a.376.376 0 01.136.417l-.318.976.824-.598a.37.37 0 01.212-.076zm7.924-3.783l.673 2.081h2.192l-1.776 1.286.68 2.081-1.769-1.287-1.769 1.287.673-2.081-1.769-1.286h2.185l.68-2.081z" fill="#F995A6"/><path d="M248.957 159.201a.374.374 0 01-.219-.068l-1.55-1.12-1.512 1.127a.396.396 0 01-.446 0 .376.376 0 01-.135-.19.379.379 0 01-.001-.233l.59-1.824-1.512-1.127a.37.37 0 01.219-.681h1.913l.589-1.823a.394.394 0 01.718 0l.598 1.823h1.912a.382.382 0 01.356.257.37.37 0 01-.136.424l-1.55 1.127.597 1.824a.385.385 0 01-.144.423.382.382 0 01-.287.061zm-1.769-2.043c.08 0 .157.026.219.076l.832.598-.318-.976a.38.38 0 010-.231.38.38 0 01.136-.186l.832-.605h-1.028a.366.366 0 01-.355-.265l-.318-.976-.317.976a.39.39 0 01-.138.193.382.382 0 01-.225.072h-1.021l.824.605a.374.374 0 01.144.417l-.318.976.824-.598a.354.354 0 01.227-.076zm7.924-3.783l.673 2.081h2.192l-1.777 1.286.681 2.081-1.769-1.287-1.769 1.287.673-2.081-1.769-1.286h2.184l.681-2.081z" fill="#F995A6"/><path d="M256.88 159.201a.398.398 0 01-.227-.068l-1.512-1.127-1.55 1.127a.404.404 0 01-.446 0 .382.382 0 01-.136-.424l.59-1.823-1.512-1.128a.389.389 0 01-.136-.423.38.38 0 01.362-.257h1.913l.59-1.824a.394.394 0 01.615-.206.4.4 0 01.141.206l.589 1.824h1.83a.372.372 0 01.352.262.376.376 0 01-.133.418l-1.512 1.128.59 1.823a.37.37 0 01-.136.424.392.392 0 01-.272.068zm-1.769-2.043a.35.35 0 01.219.076l.831.598-.317-.976a.367.367 0 01.136-.417l.832-.605h-1.029a.362.362 0 01-.355-.265l-.317-.976-.318.976a.377.377 0 01-.363.265h-1.02l.824.605a.374.374 0 01.143.417l-.317.976.824-.598a.352.352 0 01.227-.076z" fill="#F995A6"/><path d="M263.036 153.375l.673 2.081h2.185l-1.769 1.286.68 2.081-1.769-1.287-1.776 1.287.68-2.081-1.769-1.286h2.185l.68-2.081z" fill="#fff"/><path d="M264.796 159.201a.4.4 0 01-.227-.068l-1.512-1.127-1.549 1.127a.404.404 0 01-.446 0 .393.393 0 01-.136-.19.39.39 0 010-.234l.589-1.823-1.572-1.143a.375.375 0 01.005-.609.377.377 0 01.222-.072h1.912l.59-1.823a.387.387 0 01.359-.233.396.396 0 01.359.233l.59 1.823h1.92a.38.38 0 01.353.493.38.38 0 01-.134.188l-1.55 1.128.59 1.823a.378.378 0 01.003.235.38.38 0 01-.139.189.39.39 0 01-.227.083zm-1.769-2.043a.341.341 0 01.219.076l.832.598-.317-.977a.352.352 0 01.136-.416l.831-.605H263.7a.376.376 0 01-.363-.265l-.31-.976-.317.976a.382.382 0 01-.363.265h-1.021l.824.605a.352.352 0 01.136.416l-.31.977.824-.598a.357.357 0 01.235-.076h-.008z" fill="#2F3646"/><path d="M185.068 71.98l-4.301 16.698a2.52 2.52 0 00.869 2.451c1.225.961 6.388 2.626 6.388 2.626l-.703-18.817-2.253-2.958z" fill="#fff"/><path d="M188.026 94.133h-.114c-.219-.068-5.239-1.695-6.501-2.693a2.904 2.904 0 01-1.013-2.83l4.309-16.713a.382.382 0 01.295-.273.355.355 0 01.37.144l2.268 2.958a.363.363 0 01.076.212l.703 18.817a.37.37 0 01-.151.318.356.356 0 01-.242.06zm-2.782-21.306l-4.113 15.95a2.144 2.144 0 00.756 2.057c.862.674 4.075 1.831 5.753 2.391l-.673-18.158-1.723-2.24z" fill="#2F3646"/><path d="M186.625 89.23a.345.345 0 01-.152 0l-2.797-1.225a.369.369 0 01-.196-.5.382.382 0 01.354-.228c.05 0 .099.011.145.031l2.797 1.226c.1.02.188.08.245.164.057.086.077.19.057.29a.385.385 0 01-.453.303v-.06z" fill="#2F3646"/><path d="M206.756 71.98l4.309 16.698a2.531 2.531 0 01-.877 2.451c-1.224.961-6.38 2.626-6.38 2.626l.695-18.817 2.253-2.958z" fill="#fff"/><path d="M203.81 94.133a.366.366 0 01-.378-.393l.695-18.817a.426.426 0 01.076-.212l2.268-2.966a.386.386 0 01.673.136l4.301 16.706a2.87 2.87 0 01-1.005 2.837c-1.263 1-6.29 2.626-6.502 2.694l-.128.015zm1.073-19.059l-.68 18.159c1.678-.56 4.891-1.718 5.753-2.391a2.14 2.14 0 00.756-2.073l-4.128-15.942-1.701 2.247z" fill="#2F3646"/><path d="M205.208 89.23a.385.385 0 11-.151-.756l2.797-1.226a.38.38 0 01.303.696l-2.798 1.226a.364.364 0 01-.151.06zm-18.831 4.487l-1.738 48.808h3.666l7.167-38.042 7.265 37.959h3.667l-1.263-48.967-18.764.242z" fill="#2F3646"/><path d="M186.377 93.717l-1.738 48.808h3.666l7.167-38.042 7.265 37.959h3.667l-1.263-48.967-18.764.242z" fill="url(#paint2_linear)"/><path d="M188.304 142.881h-3.644a.358.358 0 01-.272-.113.354.354 0 01-.106-.28l1.739-48.809a.378.378 0 01.37-.363l18.764-.242a.385.385 0 01.378.37l1.263 48.968a.407.407 0 01-.106.272.382.382 0 01-.272.114h-3.667a.37.37 0 01-.37-.303l-6.895-36.007-6.804 36.083a.37.37 0 01-.378.31zm-3.273-.757h2.956l7.114-37.731a.38.38 0 01.613-.224.367.367 0 01.127.224l7.205 37.648h2.971l-1.247-48.203-18.031.227-1.708 48.059z" fill="#2F3646"/><path d="M184.66 142.525s-1.21 2.77-3.107 3.935c-1.898 1.165-1.459 1.831-.582 2.05.877.22 7.144 0 7.144 0s.59-.076.59-1.513c0-1.438-.378-4.449-.378-4.449l-3.667-.023z" fill="#fff"/><path d="M183.253 148.979a15.236 15.236 0 01-2.397-.106c-.809-.196-.99-.635-1.028-.877-.091-.575.401-1.181 1.512-1.854 1.769-1.09 2.941-3.738 2.956-3.783a.38.38 0 01.141-.164.379.379 0 01.207-.063h3.666a.378.378 0 01.371.333c0 .121.385 3.026.385 4.494 0 1.71-.756 1.892-.914 1.907-.469.068-2.926.113-4.899.113zm1.625-6.053a9.971 9.971 0 01-3.152 3.882c-.953.59-1.172.976-1.15 1.097.023.121.136.174.462.257 2.324.121 4.653.121 6.977 0 .061-.045.288-.28.288-1.158 0-1.134-.242-3.253-.333-4.07l-3.092-.008z" fill="#2F3646"/><path d="M206.495 142.525s1.21 2.77 3.107 3.935c1.898 1.165 1.46 1.831.583 2.05-.877.22-7.152 0-7.152 0s-.582-.076-.582-1.513c0-1.438.378-4.449.378-4.449l3.666-.023z" fill="#fff"/><path d="M207.869 148.987c-1.973 0-4.437-.083-4.853-.099-.182 0-.945-.204-.945-1.914 0-1.468.363-4.373.378-4.494a.38.38 0 01.378-.333h3.666a.374.374 0 01.341.227s1.187 2.678 2.963 3.783c1.096.673 1.588 1.279 1.512 1.854-.038.242-.219.681-1.02.877-.803.098-1.612.131-2.42.099zm-4.762-.855a67.25 67.25 0 006.985 0c.318-.083.446-.197.461-.257.015-.061-.204-.507-1.157-1.097-1.67-1.029-2.804-3.178-3.145-3.882h-3.092c-.098.817-.332 2.936-.332 4.071-.023.885.219 1.119.28 1.165z" fill="#2F3646"/><path d="M192.598 68.068l-7.56 3.912 1.338 21.722s-.287 1.014 1.444 1.014c1.731 0 14.364.287 15.498-.144 1.134-.431 2.457-1.165 2.314-2.61-.144-1.446 1.126-19.997 1.126-19.997l-5.904-3.48-8.256-.417z" fill="#fff"/><path d="M197.401 95.215c-2.094 0-4.65 0-7.56-.068h-2.034a1.92 1.92 0 01-1.625-.59 1.041 1.041 0 01-.197-.832l-1.3-21.685a.377.377 0 01.196-.363l7.56-3.912a.357.357 0 01.197 0l8.255.432c.061.006.12.024.174.053l5.905 3.48a.374.374 0 01.181.348c-.438 6.409-1.24 18.817-1.126 19.937.196 1.967-1.883 2.746-2.563 3.026-.529.09-2.699.174-6.063.174zm-10.66-1.385a.328.328 0 00.061.257c.083.107.325.28 1.02.28h2.041c3.41.054 12.452.182 13.321-.143 1.512-.568 2.17-1.271 2.079-2.217-.143-1.392.953-17.583 1.104-19.83l-5.625-3.314-8.059-.424-7.219 3.783 1.292 21.48a.69.69 0 010 .129h-.015z" fill="#2F3646"/><path d="M193.323 63.286v3.473l3.039 2.754 3.334-2.459V63.43l-6.373-.144z" fill="#fff"/><path d="M196.363 69.891a.35.35 0 01-.25-.098l-3.024-2.754a.367.367 0 01-.128-.28v-3.473c0-.102.041-.2.113-.272a.41.41 0 01.273-.106l6.373.144a.376.376 0 01.37.378v3.624a.394.394 0 01-.151.303l-3.334 2.459a.356.356 0 01-.242.075zm-2.631-3.298l2.691 2.436 2.926-2.171V63.83l-5.617-.129v2.89z" fill="#2F3646"/><path d="M192.22 58.936s-1.444-1.596-1.731-.144c-.287 1.453 1.588 3.33 1.588 3.33l.143-3.186z" fill="#fff"/><path d="M192.099 62.5a.377.377 0 01-.264-.106c-.083-.084-2.019-2.05-1.694-3.677a1.013 1.013 0 01.673-.886c.756-.197 1.55.674 1.709.848a.368.368 0 01.098.272l-.144 3.193a.376.376 0 01-.242.333.424.424 0 01-.136.023zm-1.051-3.942s-.098.098-.136.302c-.143.704.386 1.62.885 2.27l.091-2.073a1.796 1.796 0 00-.84-.5z" fill="#2F3646"/><path d="M201.481 58.936s1.452-1.596 1.739-.144c.287 1.453-1.595 3.33-1.595 3.33l-.144-3.186z" fill="#fff"/><path d="M201.626 62.5a.43.43 0 01-.136 0 .39.39 0 01-.242-.333l-.143-3.193a.395.395 0 01.098-.273c.159-.174.99-1.044 1.716-.847a1.018 1.018 0 01.673.885c.325 1.627-1.61 3.594-1.694 3.677a.406.406 0 01-.272.084zm.242-3.42l.098 2.073c.499-.666 1.029-1.582.885-2.27-.038-.204-.106-.295-.136-.303-.03-.007-.529.19-.847.5z" fill="#2F3646"/><path d="M192.099 54.88s-.287 7.392.439 8.981c.725 1.59 4.921 2.028 6.66 1.453 1.739-.575 2.457-3.026 2.457-3.026l-.287-7.249a5.106 5.106 0 00-4.589-3.041 5.101 5.101 0 00-4.68 2.898v-.016z" fill="#fff"/><path d="M197.249 65.942c-2.011 0-4.445-.583-5.058-1.922-.756-1.626-.499-8.39-.468-9.155a.538.538 0 010-.113 5.479 5.479 0 019.986.151.47.47 0 010 .106l.288 7.248c.01.04.01.082 0 .121 0 .106-.802 2.656-2.699 3.292a6.907 6.907 0 01-2.049.272zm-4.77-10.986c-.084 2.08-.159 7.52.4 8.754.56 1.233 4.536 1.793 6.199 1.24 1.391-.46 2.087-2.383 2.2-2.73l-.287-7.105a4.73 4.73 0 00-8.512-.144v-.015z" fill="#2F3646"/><path d="M201.548 59.519l-.182-4.495a5.104 5.104 0 00-4.588-3.041 5.099 5.099 0 00-4.68 2.898s-.061 1.588-.053 3.45l.196.605.507.507.363-2.103.756-.87.287-2.172h5.942v2.466l.575.575v2.18h.877z" fill="#2F3646"/><path d="M201.551 59.897h-.908a.387.387 0 01-.378-.378v-2.02l-.468-.47a.374.374 0 01-.106-.265v-2.088h-5.201l-.242 1.846a.429.429 0 01-.084.19l-.665.756-.34 2.005a.39.39 0 01-.257.295.384.384 0 01-.386-.098l-.506-.507a.348.348 0 01-.091-.144l-.204-.605a.612.612 0 010-.121c0-1.846.053-3.45.053-3.465a.538.538 0 010-.114 5.481 5.481 0 019.987.151.624.624 0 010 .106l.181 4.495a.393.393 0 01-.106.272.39.39 0 01-.279.159zm-.53-.757h.136l-.166-4.025a4.73 4.73 0 00-8.512-.144c0 .303-.061 1.71-.053 3.314l.098.295.219-1.286a.407.407 0 01.083-.181l.651-.757.279-2.066a.38.38 0 01.371-.333h5.942a.386.386 0 01.378.379v2.292l.469.47a.378.378 0 01.105.264v1.778zm-6.247 11.826l1.157 2.61-2.321 17.674 3.334 3.912 2.464-4.2-2.608-17.537 1.739-2.46-1.882-2.753-1.883 2.754z" fill="#2F3646"/><path d="M196.945 95.54a.373.373 0 01-.287-.128l-3.334-3.912a.37.37 0 01-.083-.295l2.305-17.576-1.118-2.512a.384.384 0 010-.363L196.31 68a.398.398 0 01.314-.156.389.389 0 01.313.156l1.883 2.754a.377.377 0 010 .431l-1.656 2.338 2.586 17.402a.353.353 0 01-.046.25l-2.464 4.207a.356.356 0 01-.295.181v-.023zm-2.933-4.403l2.873 3.374 2.131-3.624-2.593-17.402a.382.382 0 01.068-.272l1.588-2.27-1.421-2.08-1.414 2.14 1.074 2.414a.502.502 0 010 .205l-2.306 17.515z" fill="#2F3646"/><path d="M196.365 69.513l-2.026 3.042-2.314-4.343 1.301-1.453 3.039 2.754z" fill="#fff"/><path d="M194.339 72.933a.384.384 0 01-.318-.197l-2.313-4.35a.379.379 0 01.053-.431l1.3-1.446a.387.387 0 01.265-.128c.1-.002.197.033.272.098l3.024 2.754a.376.376 0 01.06.492l-2.026 3.026a.372.372 0 01-.317.182zm-1.86-4.668l1.898 3.556 1.512-2.27-2.518-2.27-.892.984z" fill="#2F3646"/><path d="M196.362 69.513l1.882 3.042 2.608-4.056-1.156-1.445-3.334 2.46z" fill="#fff"/><path d="M198.268 72.933a.38.38 0 01-.317-.174l-1.883-3.026a.378.378 0 01.099-.507l3.326-2.467a.378.378 0 01.522.068l1.156 1.453a.363.363 0 010 .439l-2.608 4.055a.36.36 0 01-.295.16zm-1.376-3.321l1.384 2.27 2.139-3.33-.756-.953-2.767 2.013z" fill="#2F3646"/><path d="M180.367 153.375l.673 2.081h2.192l-1.776 1.286.68 2.081-1.769-1.287-1.776 1.287.68-2.081-1.769-1.286h2.185l.68-2.081z" fill="#F995A6"/><path d="M182.135 159.201a.42.42 0 01-.227-.068l-1.512-1.127-1.512 1.127a.401.401 0 01-.446 0 .39.39 0 01-.136-.424l.59-1.823-1.618-1.143a.395.395 0 01-.136-.423.387.387 0 01.363-.258h1.913l.589-1.823a.394.394 0 01.718 0l.59 1.823h1.92a.385.385 0 01.356.258.367.367 0 01.002.234.365.365 0 01-.138.189l-1.55 1.128.589 1.823c.02.056.026.116.017.175a.383.383 0 01-.066.163.368.368 0 01-.306.154v.015zm-1.769-2.043a.341.341 0 01.219.076l.832.598-.318-.977a.352.352 0 01-.003-.231.363.363 0 01.14-.185l.831-.605h-1.028a.361.361 0 01-.355-.265l-.318-.976-.317.976a.382.382 0 01-.363.265h-1.021l.824.605a.372.372 0 01.144.416l-.318.977.809-.576a.357.357 0 01.242-.098zm7.925-3.783l.672 2.081h2.193l-1.777 1.286.681 2.081-1.769-1.287-1.777 1.287.68-2.081-1.769-1.286h2.185l.681-2.081z" fill="#F995A6"/><path d="M190.057 159.201a.398.398 0 01-.227-.068l-1.512-1.127-1.55 1.127a.404.404 0 01-.446 0 .37.37 0 01-.136-.424l.59-1.823-1.512-1.128a.377.377 0 01.226-.68h1.913l.59-1.824a.394.394 0 01.614-.206.396.396 0 01.142.206l.589 1.824h1.913a.38.38 0 01.359.258.382.382 0 01-.132.422l-1.512 1.128.59 1.823a.37.37 0 01-.137.424.391.391 0 01-.362.068zm-1.769-2.043c.079 0 .156.026.219.076l.831.598-.317-.976a.362.362 0 01-.004-.232.363.363 0 01.14-.185l.832-.605h-1.029a.382.382 0 01-.225-.072.39.39 0 01-.138-.193l-.309-.976-.318.976a.377.377 0 01-.363.265h-1.028l.832.605a.36.36 0 01.136.417l-.31.976.824-.598a.35.35 0 01.227-.076zm7.922-3.783l.673 2.081h2.185l-1.769 1.286.68 2.081-1.769-1.287-1.776 1.287.68-2.081-1.769-1.286h2.185l.68-2.081z" fill="#F995A6"/><path d="M194.435 159.201a.369.369 0 01-.355-.492l.59-1.823-1.55-1.143a.375.375 0 01.006-.609.372.372 0 01.221-.072h1.897l.59-1.823a.37.37 0 01.355-.257.378.378 0 01.363.257l.59 1.823h1.913a.377.377 0 01.36.491.368.368 0 01-.134.19l-1.549 1.128.589 1.823a.382.382 0 01-.136.424.401.401 0 01-.446 0l-1.512-1.128-1.512 1.128a.401.401 0 01-.28.083zm.068-3.367l.832.605c.066.045.115.11.14.185a.362.362 0 01-.004.232l-.317.976.846-.575a.374.374 0 01.446 0l.832.597-.318-.976a.355.355 0 01.137-.416l.831-.605H196.9a.378.378 0 01-.363-.265l-.317-.976-.31.976a.382.382 0 01-.363.265l-1.044-.023zm9.624-2.459l.681 2.081h2.185l-1.769 1.286.68 2.081-1.777-1.287-1.769 1.287.681-2.081-1.777-1.286h2.193l.672-2.081z" fill="#F995A6"/><path d="M205.904 159.201a.398.398 0 01-.227-.068l-1.55-1.12-1.512 1.127a.396.396 0 01-.446 0 .365.365 0 01-.138-.189.367.367 0 01.002-.234l.59-1.824-1.58-1.15a.38.38 0 01.219-.681h1.92l.59-1.823a.396.396 0 01.378-.285.39.39 0 01.378.285l.59 1.823h1.912a.386.386 0 01.363.258.394.394 0 01-.136.423l-1.512 1.128.59 1.823a.386.386 0 01-.136.424.39.39 0 01-.295.083zm-1.777-2.043a.352.352 0 01.227.076l.824.598-.31-.977a.36.36 0 01.136-.416l.824-.605h-1.02a.372.372 0 01-.225-.073.37.37 0 01-.138-.192l-.318-.976-.317.976a.363.363 0 01-.355.265h-1.029l.832.605a.358.358 0 01.136.416l-.317.977.831-.598a.343.343 0 01.219-.076zm7.923-3.783l.68 2.081h2.185l-1.769 1.286.673 2.081-1.769-1.287-1.769 1.287.68-2.081-1.776-1.286h2.192l.673-2.081z" fill="#F995A6"/><path d="M213.82 159.201a.39.39 0 01-.219-.068l-1.512-1.127-1.55 1.127a.388.388 0 01-.438 0 .37.37 0 01-.136-.424l.589-1.823-1.587-1.143a.38.38 0 01.219-.681h1.935l.59-1.823a.387.387 0 01.359-.233.396.396 0 01.359.233l.59 1.823h1.882a.386.386 0 01.363.258.394.394 0 01-.136.423l-1.55 1.128.59 1.823a.382.382 0 01-.136.424.41.41 0 01-.212.083zm-1.769-2.043a.354.354 0 01.227.076l.824.598-.317-.977a.374.374 0 01.143-.416l.824-.605h-1.02a.372.372 0 01-.225-.073.37.37 0 01-.138-.192l-.318-.976-.317.976a.368.368 0 01-.356.265h-1.013l.832.605a.373.373 0 01.136.416l-.318.977.832-.598a.346.346 0 01.204-.076z" fill="#F995A6"/><path d="M145.816 54.192s-3.606-.09-4.657 2.572c-1.05 2.664-3.129 9.98-2.85 10.737.28.756 7.984 2.383 10.925 1.43a11.563 11.563 0 004.369-2.376s-1.897-6.28-2.653-8.747c-.756-2.466-2.578-3.994-5.134-3.616z" fill="#2F3646"/><path d="M146.769 69.589c-3.53 0-8.474-1.052-8.807-1.952-.378-1.014 2.026-8.913 2.85-11.016 1.081-2.762 4.596-2.807 4.982-2.807 2.593-.371 4.649 1.082 5.511 3.881.756 2.474 2.661 8.746 2.661 8.746a.365.365 0 01-.09.379 11.804 11.804 0 01-4.536 2.466 8.81 8.81 0 01-2.571.303zm-.99-15.019c-.318 0-3.372.06-4.264 2.33-1.179 3.027-3.024 9.76-2.842 10.48.544.582 7.673 2.088 10.447 1.187a11.95 11.95 0 004.053-2.133c-.348-1.15-1.913-6.325-2.586-8.512-.756-2.466-2.48-3.685-4.717-3.352h-.091z" fill="#2F3646"/><path d="M142.777 66.267s.567 3.027.189 3.995c-.378.969-4.747 2.187-4.747 2.187l14.311.212-4.657-2.164-.174-3.382-4.922-.848z" fill="#fff"/><path d="M152.528 73.039l-14.318-.212a.384.384 0 01-.312-.589.37.37 0 01.213-.152c2.027-.575 4.317-1.513 4.537-1.968.241-.612 0-2.648-.212-3.782a.383.383 0 01.098-.333.372.372 0 01.333-.106l4.921.84a.375.375 0 01.31.355l.174 3.155 4.445 2.066a.377.377 0 01.212.431.369.369 0 01-.401.295zm-12.028-.938l10.267.151-3.024-1.415a.389.389 0 01-.219-.325l-.159-3.08-4.098-.703c.152.96.401 2.875.084 3.67-.273.605-1.596 1.233-2.851 1.702z" fill="#2F3646"/><path d="M141.568 59.995s-.189 3.995.189 5.516a4.54 4.54 0 005.224 2.754c2.472-.666 2.941-3.897 2.941-4.752s-.378-5.515-.378-5.515l-2.563-2.088s-3.538 3.42-5.413 4.085z" fill="#fff"/><path d="M145.922 68.78a4.81 4.81 0 01-2.472-.704 4.385 4.385 0 01-2.087-2.474c-.386-1.56-.204-5.463-.197-5.63a.365.365 0 01.25-.333c1.799-.635 5.239-3.972 5.292-4.002a.37.37 0 01.499 0l2.57 2.088a.39.39 0 01.136.265c0 .19.378 4.683.378 5.546 0 1.097-.589 4.403-3.22 5.115a4.4 4.4 0 01-1.149.128zm-4.015-8.528a27.14 27.14 0 00.189 5.16c.31.862.926 1.578 1.732 2.013a3.95 3.95 0 003.024.477c2.215-.598 2.661-3.617 2.661-4.389 0-.771-.295-4.502-.363-5.296l-2.185-1.778c-.794.726-3.364 3.087-5.058 3.813z" fill="#2F3646"/><path d="M138.606 111.55c.323 2.44.434 4.903.333 7.362-.084 4.986-1.603 7.104-.25 12.015 1.353 4.91 3.024 10.743 3.024 11.924 0 1.18-3.296 4.403-2.532 5.16.763.756 2.268.507 3.296-.674 1.028-1.18 1.27-4.403 1.27-5.583 0-1.181-.681-8.126 0-11.849.68-3.722.506-9.73.506-12.688s.083-5.584.083-5.584l-5.73-.083z" fill="#fff"/><path d="M140.328 148.828a1.96 1.96 0 01-1.399-.545c-.65-.65.197-1.861 1.179-3.253a6.968 6.968 0 001.24-2.179c0-.931-1.24-5.387-2.328-9.322l-.696-2.504a15.898 15.898 0 01-.211-7.611c.258-1.501.407-3.018.446-4.54a42.66 42.66 0 00-.333-7.286.403.403 0 01.091-.318.36.36 0 01.287-.128l5.753.083a.378.378 0 01.371.393s-.084 2.648-.084 5.569v1.513c0 3.2.061 8.043-.521 11.236-.522 2.86-.227 7.656-.068 10.229 0 .756.075 1.286.075 1.513 0 1.18-.242 4.54-1.36 5.826a3.386 3.386 0 01-2.359 1.241l-.083.083zm-1.285-36.892c.253 2.319.344 4.652.272 6.983a32.92 32.92 0 01-.454 4.616 15.298 15.298 0 00.189 7.286l.696 2.504c1.217 4.366 2.358 8.489 2.358 9.526 0 .65-.635 1.558-1.376 2.61-.491.696-1.398 1.997-1.262 2.27a1.234 1.234 0 00.922.318 2.608 2.608 0 001.815-.976c.892-1.037 1.179-4.041 1.179-5.334 0-.258-.038-.757-.076-1.514-.158-2.61-.453-7.467.083-10.418.567-3.125.53-7.922.507-11.092v-1.513c0-2.27.053-4.373.076-5.213l-4.929-.053z" fill="#2F3646"/><path d="M142.49 147.337a5.974 5.974 0 00.99-2.663 3.947 3.947 0 01-.65.545c-.854.545-1.988-.189-2.169-.318-.885 1.271-1.928 2.648-1.467 3.11.764.764 2.283.507 3.296-.674z" fill="#fff"/><path d="M140.328 148.828a1.96 1.96 0 01-1.399-.545c-.65-.651.197-1.861 1.18-3.253l.242-.341a.368.368 0 01.521-.098c.114.076 1.097.757 1.754.31.214-.145.411-.313.59-.499a.38.38 0 01.635.34 6.196 6.196 0 01-1.073 2.838 3.386 3.386 0 01-2.359 1.24l-.091.008zm.439-3.42l-.038.053c-.492.696-1.406 1.997-1.263 2.27.124.113.27.2.428.255.159.054.327.076.495.063a2.608 2.608 0 001.814-.976 3.96 3.96 0 00.673-1.461 2.378 2.378 0 01-2.109-.204z" fill="#2F3646"/><path d="M151.177 111.55a43.04 43.04 0 00-.341 7.362c.083 4.986 1.603 7.104.25 12.015-1.353 4.91-3.024 10.743-3.024 11.924 0 1.18 3.296 4.403 2.532 5.16-.763.756-2.268.507-3.296-.674-1.028-1.18-1.262-4.403-1.262-5.583 0-1.181.673-8.126 0-11.849-.673-3.722-.514-9.73-.514-12.688s-.084-5.584-.084-5.584l5.739-.083z" fill="#fff"/><path d="M149.455 148.828h-.099a3.381 3.381 0 01-2.358-1.241c-1.112-1.301-1.354-4.645-1.354-5.826 0-.265 0-.817.076-1.513.151-2.572.446-7.369-.076-10.229-.574-3.193-.544-8.035-.521-11.236v-1.513c0-2.921-.083-5.546-.083-5.569a.418.418 0 01.105-.28.388.388 0 01.273-.113l5.745-.083a.432.432 0 01.295.128.397.397 0 01.083.318 42.659 42.659 0 00-.332 7.286 31.29 31.29 0 00.446 4.54 15.897 15.897 0 01-.205 7.611l-.695 2.497c-1.096 3.934-2.336 8.398-2.336 9.329a6.968 6.968 0 001.24 2.179c.983 1.392 1.829 2.603 1.187 3.253a1.977 1.977 0 01-1.391.462zm-3.637-36.824c0 .84.068 2.936.068 5.213v1.513c0 3.17-.053 7.967.514 11.092.537 2.951.242 7.808.084 10.418a30.489 30.489 0 00-.076 1.514c0 1.293.287 4.297 1.172 5.334a2.619 2.619 0 001.814.976 1.267 1.267 0 00.93-.318c.136-.288-.756-1.589-1.27-2.27-.756-1.052-1.376-1.959-1.376-2.61 0-1.037 1.149-5.168 2.366-9.533l.688-2.497c.653-2.378.718-4.878.189-7.286a32.918 32.918 0 01-.453-4.616 48.336 48.336 0 01.279-6.983l-4.929.053z" fill="#2F3646"/><path d="M147.283 147.337a6.182 6.182 0 01-.99-2.663c.199.205.42.387.658.545.846.545 1.98-.189 2.169-.318.885 1.271 1.928 2.648 1.459 3.11-.756.764-2.283.507-3.296-.674z" fill="#fff"/><path d="M149.453 148.828h-.098a3.376 3.376 0 01-1.306-.379 3.376 3.376 0 01-1.053-.862 6.174 6.174 0 01-1.073-2.837.387.387 0 01.196-.409.384.384 0 01.439.068c.182.183.379.35.589.5.666.423 1.648-.235 1.754-.31a.382.382 0 01.424-.007.407.407 0 01.106.105l.234.34c.983 1.393 1.829 2.603 1.187 3.254-.378.356-.88.549-1.399.537zm-1.882-1.74a2.627 2.627 0 001.814.976 1.267 1.267 0 00.93-.318c.136-.288-.756-1.589-1.27-2.27v-.053a2.372 2.372 0 01-2.109.22c.121.528.35 1.025.673 1.46l-.038-.015zm-9.7-55.656s-3.13 5.697-2.571 10.986a66.036 66.036 0 002.004 10.199h14.848a72.988 72.988 0 001.685-11.553 28.545 28.545 0 00-1.224-9.632h-14.742z" fill="#2F3646"/><path d="M137.871 91.432s-3.13 5.697-2.571 10.986a66.036 66.036 0 002.004 10.199h14.848a72.988 72.988 0 001.685-11.553 28.545 28.545 0 00-1.224-9.632h-14.742z" fill="url(#paint3_linear)"/><path d="M152.152 112.98h-14.848a.383.383 0 01-.363-.272 65.75 65.75 0 01-2.011-10.252c-.567-5.35 2.48-10.979 2.608-11.213a.37.37 0 01.333-.197h14.742a.388.388 0 01.355.257 28.585 28.585 0 011.225 9.761 73.979 73.979 0 01-1.693 11.621.37.37 0 01-.348.295zm-14.538-.757h14.235a71.448 71.448 0 001.611-11.19 28.763 28.763 0 00-1.104-9.23h-14.258c-.529 1.036-2.903 6-2.419 10.592a65.804 65.804 0 001.912 9.828h.023z" fill="#2F3646"/><path d="M137.862 91.424h14.749l-1.602-19.248h-10.902l-2.245 19.248z" fill="#fff"/><path d="M152.612 91.803H137.87a.399.399 0 01-.288-.121.397.397 0 01-.09-.303l2.268-19.248a.378.378 0 01.37-.333h10.902a.378.378 0 01.378.348l1.58 19.286a.384.384 0 01-.226.377.378.378 0 01-.152.032v-.038zm-14.319-.757h13.91l-1.512-18.491h-10.243l-2.155 18.491z" fill="#2F3646"/><path d="M141.637 71.216s1.512 15.079 1.202 17.644c-.31 2.564-4.09 13.316-4.09 13.316l-5.496-1.37s4.007-13.233 4.165-14.194c.159-.96-3.288-13.15-3.288-13.15l7.507-2.246z" fill="#fff"/><path d="M138.748 102.554h-.091l-5.526-1.362a.365.365 0 01-.242-.181.396.396 0 010-.295c1.383-4.54 4.029-13.407 4.158-14.149.128-.741-1.973-8.323-3.281-12.99a.378.378 0 01.257-.462l7.56-2.27a.407.407 0 01.325.045.382.382 0 01.159.28c.068.62 1.512 15.132 1.202 17.727-.31 2.596-3.946 12.953-4.105 13.392a.37.37 0 01-.416.265zm-5.05-2.043l4.846 1.211c.627-1.808 3.674-10.66 3.954-12.908.279-2.247-.907-14.572-1.157-17.107l-6.736 2.013c.756 2.67 3.349 12.007 3.19 12.953-.158.946-3.424 11.644-4.097 13.838z" fill="#2F3646"/><path d="M149.371 71.216s-1.512 15.079-1.202 17.644c.31 2.564 4.09 13.316 4.09 13.316l5.526-1.37s-4.007-13.233-4.165-14.194c-.159-.96 3.288-13.15 3.288-13.15l-7.537-2.246z" fill="#fff"/><path d="M152.258 102.554a.37.37 0 01-.356-.257c-.159-.439-3.78-10.812-4.105-13.392-.325-2.58 1.134-17.107 1.195-17.727a.417.417 0 01.166-.28.392.392 0 01.317-.046l7.56 2.27a.378.378 0 01.258.462c-1.308 4.638-3.357 12.257-3.282 12.99.076.734 2.775 9.58 4.158 14.149a.377.377 0 01-.03.299.372.372 0 01-.242.178l-5.526 1.362-.113-.008zm-2.556-30.847c-.249 2.535-1.436 14.86-1.156 17.107.279 2.247 3.326 11.1 3.953 12.908l4.809-1.18c-.673-2.225-3.916-12.969-4.06-13.869-.144-.9 2.434-10.282 3.19-12.953l-6.736-2.013z" fill="#2F3646"/><path d="M134.097 73.463l-5.194 14.315c-.08.224-.112.464-.093.701a1.684 1.684 0 00.673 1.21 1.677 1.677 0 002.422-.466l4.437-7.566-2.245-8.194z" fill="#fff"/><path d="M130.472 90.388a2.75 2.75 0 01-.424-.038 2.074 2.074 0 01-1.361-1.006 2.04 2.04 0 01-.136-1.695l5.194-14.315a.358.358 0 01.37-.25.384.384 0 01.356.28l2.268 8.18a.356.356 0 010 .287l-4.438 7.566a2.05 2.05 0 01-1.829.99zm3.583-15.677l-4.793 13.195a1.284 1.284 0 00.083 1.067 1.287 1.287 0 001.134.673 1.29 1.29 0 001.134-.673l4.355-7.415-1.913-6.847z" fill="#2F3646"/><path d="M130.855 86.696l10.335 1.8-.355 2.05-10.698.598a2.276 2.276 0 01-1.44-1.381 2.265 2.265 0 01.208-1.985" fill="#fff"/><path d="M130.137 91.523a.312.312 0 01-.121 0 2.936 2.936 0 01-1.656-1.513 2.837 2.837 0 01.205-2.391.383.383 0 01.624-.085.374.374 0 01.094.275.375.375 0 01-.038.143 2.123 2.123 0 00-.189 1.755 2.17 2.17 0 001.142 1.067l10.311-.583.242-1.377-9.964-1.74a.376.376 0 01-.249-.577.36.36 0 01.238-.164.368.368 0 01.147 0l10.335 1.8a.358.358 0 01.242.16.365.365 0 01.068.279l-.363 2.043a.388.388 0 01-.348.318l-10.705.597-.015-.007z" fill="#2F3646"/><path d="M141.19 88.496s2.888-.96 3.606-1.082c.718-.12 3.727 1.809 3.372 2.164-.355.356-1.565-.597-2.17-.597s-1.436.84-2.041 1.082a4.253 4.253 0 01-1.92-.121l-.96-.122.113-1.324z" fill="#fff"/><path d="M143.397 90.524a6.094 6.094 0 01-1.459-.22l-.914-.105a.37.37 0 01-.326-.409l.121-1.324a.367.367 0 01.257-.325c.114-.038 2.919-.976 3.66-1.097.74-.121 3.386 1.452 3.78 2.179a.517.517 0 01-.068.628c-.394.393-1.021.098-1.618-.182a2.69 2.69 0 00-.817-.31 2.74 2.74 0 00-1.036.545 4.764 4.764 0 01-.861.507c-.23.085-.474.123-.719.113zm-1.912-1.029l.597.076a4.012 4.012 0 001.739.144c.249-.125.487-.272.71-.44a1.93 1.93 0 012.609-.294l.151.068a7.376 7.376 0 00-2.427-1.256c-.522.083-2.389.68-3.319.99l-.06.712z" fill="#2F3646"/><path d="M156.99 73.463l5.201 14.315a1.676 1.676 0 01-.112 1.38 1.669 1.669 0 01-1.112.821 1.677 1.677 0 01-1.777-.756l-4.438-7.566 2.238-8.194z" fill="#fff"/><path d="M160.628 90.388a2.032 2.032 0 01-1.762-1.006l-4.437-7.566a.37.37 0 01-.046-.288l2.268-8.179a.384.384 0 01.348-.28.35.35 0 01.37.25l5.179 14.33a2.06 2.06 0 01-.141 1.695 2.051 2.051 0 01-1.371 1.006 2.747 2.747 0 01-.408.038zm-5.451-8.792l4.362 7.415a1.29 1.29 0 001.376.605 1.257 1.257 0 00.854-.635 1.29 1.29 0 00.091-1.067l-4.793-13.195-1.89 6.877z" fill="#2F3646"/><path d="M160.347 86.673l-10.471.757.159 2.073 10.584 1.65a2.259 2.259 0 001.54-1.249 2.263 2.263 0 00-.028-1.983" fill="#fff"/><path d="M160.628 91.553h-.06l-10.584-1.657a.378.378 0 01-.325-.34l-.159-2.073a.385.385 0 01.355-.41l10.463-.756a.373.373 0 01.363.206.38.38 0 01-.052.416.368.368 0 01-.258.127l-10.085.757.106 1.4 10.213 1.588a2.178 2.178 0 001.233-.938 2.098 2.098 0 000-1.77.377.377 0 01.227-.484.367.367 0 01.407.093c.034.037.06.08.076.126a2.825 2.825 0 010 2.399 2.969 2.969 0 01-1.791 1.331l-.129-.015z" fill="#2F3646"/><path d="M149.882 87.452s-2.774-1.24-3.477-1.43c-.703-.189-3.886 1.43-3.561 1.824.325.393 1.61-.447 2.208-.386.597.06 1.353.983 1.927 1.279a4.23 4.23 0 001.928.068h.968l.007-1.355z" fill="#fff"/><path d="M147.902 89.268a2.465 2.465 0 01-1.104-.197 4.723 4.723 0 01-.809-.59 2.63 2.63 0 00-.983-.643 2.87 2.87 0 00-.839.227c-.627.22-1.27.454-1.625 0a.523.523 0 010-.628c.446-.696 3.16-2.012 3.961-1.8.802.211 3.425 1.4 3.538 1.452a.378.378 0 01.22.348v1.324a.385.385 0 01-.371.378h-.967a5.846 5.846 0 01-1.021.13zm-2.918-2.186h.098c.532.14 1.015.422 1.399.817.204.191.426.36.665.507a3.882 3.882 0 001.686 0h.658v-.712c-.893-.393-2.692-1.18-3.198-1.316a6.908 6.908 0 00-2.54 1.021l.151-.053a3.335 3.335 0 011.081-.264z" fill="#2F3646"/><path d="M129.381 153.375l.68 2.081h2.185l-1.769 1.286.673 2.081-1.769-1.287-1.769 1.287.68-2.081-1.776-1.286h2.192l.673-2.081z" fill="#F995A6"/><path d="M131.158 159.201a.398.398 0 01-.227-.068l-1.55-1.12-1.512 1.127a.396.396 0 01-.446 0 .372.372 0 01-.136-.423l.59-1.824-1.512-1.127a.38.38 0 01.219-.681h1.92l.59-1.823a.387.387 0 01.141-.206.39.39 0 01.474 0 .392.392 0 01.141.206l.59 1.823h1.912a.378.378 0 01.227.681l-1.55 1.127.59 1.824a.386.386 0 01-.136.423.394.394 0 01-.325.061zm-1.777-2.043a.354.354 0 01.227.076l.824.598-.31-.976a.362.362 0 01-.004-.232.363.363 0 01.14-.185l.824-.605h-1.02a.372.372 0 01-.225-.073.37.37 0 01-.138-.192l-.318-.976-.317.976a.368.368 0 01-.356.265h-1.028l.832.605a.356.356 0 01.136.417l-.318.976.832-.598a.35.35 0 01.219-.076zm7.923-3.783l.681 2.081h2.184l-1.769 1.286.673 2.081-1.769-1.287-1.769 1.287.673-2.081-1.769-1.286h2.192l.673-2.081z" fill="#F995A6"/><path d="M139.073 159.201a.388.388 0 01-.219-.068l-1.512-1.127-1.55 1.127a.39.39 0 01-.439 0 .369.369 0 01-.136-.424l.59-1.823-1.588-1.143a.365.365 0 01-.138-.189.367.367 0 01.002-.234.385.385 0 01.356-.258h1.912l.598-1.823a.39.39 0 01.378-.285.398.398 0 01.378.285l.589 1.823h1.913a.383.383 0 01.363.258.394.394 0 01-.136.423l-1.512 1.128.589 1.823a.39.39 0 010 .234.393.393 0 01-.136.19.398.398 0 01-.302.083zm-3.47-3.367l.831.605a.372.372 0 01.137.417l-.318.976.832-.598a.365.365 0 01.446 0l.824.598-.318-.976a.375.375 0 01.144-.417l.824-.605h-1.021a.382.382 0 01-.363-.265l-.317-.976-.318.976a.361.361 0 01-.355.265h-1.028zm9.624-2.459l.68 2.081h2.185l-1.769 1.286.673 2.081-1.769-1.287-1.769 1.287.673-2.081-1.769-1.286h2.192l.673-2.081z" fill="#F995A6"/><path d="M146.996 159.201a.388.388 0 01-.219-.068l-1.512-1.127-1.55 1.127a.381.381 0 01-.446 0 .377.377 0 01-.136-.424l.597-1.823-1.588-1.143a.365.365 0 01-.138-.189.375.375 0 01.357-.492h1.913l.597-1.823a.394.394 0 01.719 0l.589 1.823h1.913a.371.371 0 01.219.681l-1.512 1.128.59 1.823a.386.386 0 01-.136.424.406.406 0 01-.257.083zm-1.769-2.043c.082 0 .161.026.227.076l.824.598-.318-.977a.372.372 0 01.144-.416l.824-.605h-1.021a.376.376 0 01-.363-.265l-.317-.976-.318.976a.373.373 0 01-.355.265h-1.028l.831.605a.367.367 0 01.136.416l-.317.977.831-.598a.346.346 0 01.22-.076zm7.924-3.783l.68 2.081h2.185l-1.769 1.286.673 2.081-1.769-1.287-1.769 1.287.673-2.081-1.769-1.286h2.192l.673-2.081z" fill="#F995A6"/><path d="M154.92 159.201a.39.39 0 01-.219-.068l-1.55-1.12-1.512 1.127a.38.38 0 01-.582-.189.374.374 0 010-.234l.598-1.824-1.512-1.127a.38.38 0 01.219-.681h1.912l.598-1.823a.387.387 0 01.141-.206.39.39 0 01.473 0 .388.388 0 01.142.206l.589 1.823h1.913a.38.38 0 01.353.493.38.38 0 01-.134.188l-1.512 1.127.59 1.824a.386.386 0 01-.136.423.4.4 0 01-.371.061zm-3.47-3.367l.832.605a.367.367 0 01.136.416l-.317.976.808-.575a.367.367 0 01.439 0l.832.598-.318-.976a.376.376 0 01.136-.416l.832-.605h-1.021a.378.378 0 01-.363-.265l-.317-.976-.318.976a.38.38 0 01-.355.265l-1.006-.023zm9.621-2.459l.673 2.081h2.192l-1.769 1.286.673 2.081-1.769-1.287-1.769 1.287.673-2.081-1.769-1.286h2.192l.673-2.081z" fill="#F995A6"/><path d="M162.84 159.201a.39.39 0 01-.219-.068l-1.512-1.128-1.55 1.128a.376.376 0 01-.445 0 .379.379 0 01-.137-.424l.59-1.823-1.512-1.128a.38.38 0 01.219-.681h1.913l.589-1.823a.404.404 0 01.378-.268.402.402 0 01.378.268l.59 1.823h1.913a.38.38 0 01.219.681l-1.512 1.128.597 1.823a.394.394 0 01-.31.5.417.417 0 01-.189-.008zm-1.769-2.043a.341.341 0 01.219.076l.832.597-.318-.976a.376.376 0 010-.23.38.38 0 01.136-.186l.832-.605h-1.028a.375.375 0 01-.355-.265l-.318-.976-.317.976a.382.382 0 01-.356.265h-1.028l.832.605a.373.373 0 01.136.416l-.318.976.832-.597a.341.341 0 01.219-.076z" fill="#F995A6"/></g><defs><linearGradient id="paint0_linear" x1="194.23" y1="33.098" x2="194.23" y2="202.32" gradientUnits="userSpaceOnUse"><stop stop-color="#343C50"/><stop offset="1" stop-color="#252C3D"/></linearGradient><linearGradient id="paint1_linear" x1="245.023" y1="97.75" x2="245.023" y2="142.752" gradientUnits="userSpaceOnUse"><stop stop-color="#343C50"/><stop offset="1" stop-color="#252C3D"/></linearGradient><linearGradient id="paint2_linear" x1="195.521" y1="93.475" x2="195.521" y2="142.525" gradientUnits="userSpaceOnUse"><stop stop-color="#343C50"/><stop offset="1" stop-color="#252C3D"/></linearGradient><linearGradient id="paint3_linear" x1="144.55" y1="91.432" x2="144.55" y2="112.617" gradientUnits="userSpaceOnUse"><stop stop-color="#343C50"/><stop offset="1" stop-color="#252C3D"/></linearGradient><clipPath id="clip0"><path fill="#fff" d="M0 0h400v300H0z"/></clipPath></defs></svg>