<svg width="38" height="38" fill="none" xmlns="http://www.w3.org/2000/svg"><path d="M28.562 21.454a3.18 3.18 0 00-.95 2.58c.143 1.71 1.71 2.962 3.42 2.962h3.008v1.884c0 3.277-2.675 5.953-5.953 5.953H9.91c-3.277 0-5.953-2.676-5.953-5.953V18.224c0-3.278 2.676-5.954 5.953-5.954h18.177c3.277 0 5.953 2.676 5.953 5.954v2.28h-3.198c-.887 0-1.694.348-2.28.95z" stroke="#EB3A53" stroke-width="2.3" stroke-linecap="round" stroke-linejoin="round"/><path d="M3.957 19.65v-7.236A4.509 4.509 0 016.87 8.186l12.572-4.75c1.963-.744 4.07.713 4.07 2.819v6.016m12.207 9.849v3.262c0 .87-.697 1.583-1.584 1.614h-3.103c-1.71 0-3.277-1.25-3.42-2.96a3.18 3.18 0 01.95-2.581 3.156 3.156 0 012.28-.95h3.293a1.626 1.626 0 011.584 1.615zM11.082 19h11.083" stroke="#EB3A53" stroke-width="2.3" stroke-linecap="round" stroke-linejoin="round"/></svg>