<svg width="55" height="54" fill="none" xmlns="http://www.w3.org/2000/svg"><g filter="url(#filter0_d)"><path d="M25.796 15.01l1.32 2.485c.18.346.66.677 1.064.741l2.393.374c1.53.24 1.89 1.284.787 2.315l-1.86 1.75c-.315.296-.487.868-.39 1.277l.533 2.167c.42 1.715-.548 2.378-2.16 1.482l-2.242-1.25c-.405-.225-1.073-.225-1.485 0l-2.242 1.25c-1.605.896-2.58.226-2.16-1.482l.532-2.167c.098-.41-.075-.98-.39-1.277l-1.86-1.75c-1.094-1.03-.742-2.075.788-2.315l2.392-.374c.398-.064.878-.395 1.058-.741l1.32-2.484c.72-1.348 1.89-1.348 2.602 0z" fill="#3AB292"/></g><defs><filter id="filter0_d" x="0" y="0" width="55" height="54" filterUnits="userSpaceOnUse" color-interpolation-filters="sRGB"><feFlood flood-opacity="0" result="BackgroundImageFix"/><feColorMatrix in="SourceAlpha" values="0 0 0 0 0 0 0 0 0 0 0 0 0 0 0 0 0 0 127 0" result="hardAlpha"/><feOffset dx="3" dy="6"/><feGaussianBlur stdDeviation="10"/><feColorMatrix values="0 0 0 0 0.152941 0 0 0 0 0.898039 0 0 0 0 0.540392 0 0 0 0.3 0"/><feBlend in2="BackgroundImageFix" result="effect1_dropShadow"/><feBlend in="SourceGraphic" in2="effect1_dropShadow" result="shape"/></filter></defs></svg>