<svg width="65" height="65" fill="none" xmlns="http://www.w3.org/2000/svg"><rect width="65" height="65" rx="19.5" fill="#CD2946"/><rect width="65" height="65" rx="19.5" fill="url(#paint0_linear_80:73078)"/><g clip-path="url(#clip0_80:73078)" fill="#fff"><path d="M45.924 38.854a6.627 6.627 0 01-4.7-1.93 6.532 6.532 0 01-1.945-4.669.876.876 0 00-1.752 0c0 1.766-.69 3.423-1.944 4.668a6.627 6.627 0 01-4.701 1.931.876.876 0 100 1.752c3.664 0 6.645 2.97 6.645 6.618a.876.876 0 101.752 0c0-3.649 2.981-6.618 6.645-6.618a.876.876 0 100-1.752zm-7.52 4.65a8.44 8.44 0 00-3.775-3.77 8.398 8.398 0 002.188-1.568 8.344 8.344 0 001.586-2.183c.4.798.933 1.535 1.586 2.183a8.398 8.398 0 002.188 1.569 8.44 8.44 0 00-3.774 3.769zm-9.518-11.499c-2.58 0-4.679-2.084-4.679-4.645a.876.876 0 10-1.752 0c0 2.561-2.099 4.645-4.679 4.645a.876.876 0 100 1.752c2.58 0 4.68 2.09 4.68 4.659a.876.876 0 001.751 0c0-2.57 2.099-4.66 4.679-4.66a.876.876 0 100-1.751zm-5.555 3.183a6.468 6.468 0 00-2.31-2.306 6.463 6.463 0 002.31-2.301 6.462 6.462 0 002.31 2.301 6.466 6.466 0 00-2.31 2.306zm6.98-10.934c1.898 0 3.441 1.531 3.441 3.414a.876.876 0 101.752 0 3.437 3.437 0 013.441-3.425.876.876 0 000-1.752c-1.897 0-3.44-1.532-3.44-3.415a.876.876 0 10-1.753 0 3.437 3.437 0 01-3.44 3.426.876.876 0 100 1.752zm4.32-2.306c.377.56.863 1.043 1.426 1.42a5.227 5.227 0 00-1.43 1.428 5.223 5.223 0 00-1.427-1.42 5.227 5.227 0 001.43-1.428z"/></g><defs><linearGradient id="paint0_linear_80:73078" x1="7.268" y1="-11.669" x2="89.17" y2="33.649" gradientUnits="userSpaceOnUse"><stop stop-color="#CC283C"/><stop offset="1" stop-color="#CC284F"/></linearGradient><clipPath id="clip0_80:73078"><path fill="#fff" transform="translate(16.9 18.2)" d="M0 0h29.9v29.9H0z"/></clipPath></defs></svg>