<svg width="38" height="38" fill="none" xmlns="http://www.w3.org/2000/svg"><path d="M24.367 8.249l2.233 4.465c.3.617 1.108 1.203 1.789 1.33l4.037.665c2.581.428 3.183 2.296 1.33 4.164l-3.15 3.151c-.523.523-.824 1.552-.65 2.296l.903 3.895c.712 3.072-.934 4.275-3.642 2.66l-3.784-2.248c-.68-.412-1.82-.412-2.502 0l-3.784 2.248c-2.707 1.599-4.354.412-3.641-2.66l.902-3.895c.174-.729-.127-1.758-.65-2.296l-3.15-3.15c-1.852-1.853-1.25-3.722 1.33-4.165l4.037-.665c.681-.11 1.489-.713 1.79-1.33l2.232-4.465c1.188-2.423 3.151-2.423 4.37 0zm-11.701-.332h-9.5m4.751 22.167h-4.75M4.75 19H3.167" stroke="#EB3A53" stroke-width="2.3" stroke-linecap="round" stroke-linejoin="round"/></svg>