<svg width="24" height="23" fill="none" xmlns="http://www.w3.org/2000/svg"><path d="M13.572 2.456l2.037 3.89c.277.542 1.018 1.062 1.643 1.161l3.691.586c2.36.376 2.916 2.012 1.215 3.626l-2.87 2.74c-.486.465-.752 1.36-.601 2.001l.821 3.394c.648 2.686-.845 3.724-3.332 2.32l-3.46-1.956c-.625-.353-1.655-.353-2.291 0l-3.46 1.957c-2.477 1.403-3.98.353-3.333-2.321l.822-3.394c.15-.64-.116-1.536-.602-2l-2.87-2.741c-1.69-1.614-1.145-3.25 1.215-3.626l3.692-.586c.613-.1 1.353-.619 1.631-1.16l2.037-3.89c1.11-2.112 2.916-2.112 4.015 0z" fill="#3AB292"/></svg>