<svg width="14" height="14" fill="none" xmlns="http://www.w3.org/2000/svg"><path d="M8.21 1.125L9.44 3.43c.168.321.616.63.994.688l2.233.348c1.428.223 1.764 1.192.735 2.15L11.667 8.24c-.294.276-.455.806-.364 1.186l.497 2.012c.392 1.592-.511 2.209-2.016 1.376l-2.093-1.16c-.378-.21-1-.21-1.385 0l-2.093 1.16c-1.498.833-2.408.21-2.016-1.376l.497-2.012c.09-.38-.07-.91-.364-1.186L.594 6.616c-1.022-.957-.693-1.926.735-2.15l2.233-.347c.37-.059.819-.366.987-.688L5.78 1.125c.672-1.252 1.763-1.252 2.428 0z" fill="#DC1E35"/></svg>