<svg width="64" height="64" fill="none" xmlns="http://www.w3.org/2000/svg"><path d="M0 2a2 2 0 012-2h47c8.284 0 15 6.716 15 15v34c0 8.284-6.716 15-15 15H15C6.716 64 0 57.284 0 49V2z" fill="#CD2946"/><path d="M0 2a2 2 0 012-2h47c8.284 0 15 6.716 15 15v34c0 8.284-6.716 15-15 15H15C6.716 64 0 57.284 0 49V2z" fill="url(#paint0_linear)"/><path d="M37.072 32A5.067 5.067 0 0132 37.072 5.067 5.067 0 0126.928 32 5.067 5.067 0 0132 26.928 5.067 5.067 0 0137.072 32z" stroke="#fff" stroke-width="2" stroke-linecap="round" stroke-linejoin="round"/><path d="M32 43.716c5.001 0 9.662-2.947 12.906-8.047 1.275-1.997 1.275-5.355 0-7.352-3.244-5.1-7.905-8.047-12.906-8.047-5 0-9.662 2.947-12.906 8.047-1.275 1.997-1.275 5.355 0 7.352C22.338 40.77 27 43.716 32 43.716z" stroke="#fff" stroke-width="2" stroke-linecap="round" stroke-linejoin="round"/><defs><linearGradient id="paint0_linear" x1="7.157" y1="-11.49" x2="87.798" y2="33.131" gradientUnits="userSpaceOnUse"><stop stop-color="#CC283C"/><stop offset="1" stop-color="#CC284F"/></linearGradient></defs></svg>