<svg width="64" height="64" fill="none" xmlns="http://www.w3.org/2000/svg"><path d="M0 2a2 2 0 012-2h47c8.284 0 15 6.716 15 15v34c0 8.284-6.716 15-15 15H15C6.716 64 0 57.284 0 49V2z" fill="#CD2946"/><path d="M0 2a2 2 0 012-2h47c8.284 0 15 6.716 15 15v34c0 8.284-6.716 15-15 15H15C6.716 64 0 57.284 0 49V2z" fill="url(#paint0_linear)"/><path d="M32.524 27.58h7.438m-15.924 0l1.063 1.063 3.187-3.188m4.236 12.042h7.438m-15.924 0l1.063 1.062 3.187-3.187" stroke="#fff" stroke-width="2" stroke-linecap="round" stroke-linejoin="round"/><path d="M27.75 46.167h8.5c7.083 0 9.917-2.834 9.917-9.917v-8.5c0-7.083-2.834-9.917-9.917-9.917h-8.5c-7.083 0-9.917 2.834-9.917 9.917v8.5c0 7.083 2.834 9.917 9.917 9.917z" stroke="#fff" stroke-width="2" stroke-linecap="round" stroke-linejoin="round"/><defs><linearGradient id="paint0_linear" x1="7.157" y1="-11.49" x2="87.798" y2="33.131" gradientUnits="userSpaceOnUse"><stop stop-color="#CC283C"/><stop offset="1" stop-color="#CC284F"/></linearGradient></defs></svg>