<svg width="64" height="64" fill="none" xmlns="http://www.w3.org/2000/svg"><path d="M0 2a2 2 0 012-2h47c8.284 0 15 6.716 15 15v34c0 8.284-6.716 15-15 15H15C6.716 64 0 57.284 0 49V2z" fill="#3BB293"/><path d="M31.235 34.45a3.98 3.98 0 100-7.96 3.98 3.98 0 000 7.96zm7.353 9.167c0-3.301-3.287-5.993-7.353-5.993s-7.352 2.678-7.352 5.993" stroke="#fff" stroke-width="2" stroke-linecap="round" stroke-linejoin="round"/><path d="M44.75 32.708c0 7.438-6.02 13.459-13.458 13.459-7.438 0-13.459-6.021-13.459-13.459 0-7.437 6.021-13.458 13.459-13.458 1.855 0 3.626.368 5.241 1.048a5.742 5.742 0 00-.283 1.785c0 1.063.297 2.069.822 2.919.283.481.651.92 1.076 1.289a5.554 5.554 0 003.769 1.459c.623 0 1.218-.1 1.77-.297a13.55 13.55 0 011.063 5.255z" stroke="#fff" stroke-width="2" stroke-linecap="round" stroke-linejoin="round"/><path d="M47.583 22.083c0 .454-.056.893-.17 1.318a5.289 5.289 0 01-.651 1.6 5.522 5.522 0 01-3.075 2.451 5.22 5.22 0 01-1.77.298 5.555 5.555 0 01-3.769-1.46 5.218 5.218 0 01-1.076-1.288 5.554 5.554 0 01-.822-2.919c0-.623.1-1.218.283-1.785a5.59 5.59 0 011.318-2.167 5.66 5.66 0 014.066-1.714c1.671 0 3.187.722 4.207 1.884a5.645 5.645 0 011.46 3.782zm-3.555-.028h-4.222m2.111-2.068v4.236" stroke="#fff" stroke-width="2" stroke-miterlimit="10" stroke-linecap="round" stroke-linejoin="round"/></svg>