<svg width="28" height="32" fill="none" xmlns="http://www.w3.org/2000/svg"><path d="M14.263 13.777a1.705 1.705 0 00-.426 0 5.804 5.804 0 01-5.61-5.806 5.816 5.816 0 015.823-5.824 5.827 5.827 0 015.824 5.824c-.018 3.143-2.486 5.7-5.61 5.806zm11.755 11.719c-.45 3.596-7.35 4.652-11.967 4.652-4.616 0-10.94-1.056-11.967-4.652-.491-1.723 1.243-3.303 3.143-4.581 4.865-3.232 12.82-3.232 17.649 0 1.9 1.278 3.268 2.994 3.142 4.58z" stroke="#fff" stroke-width="2.5" stroke-linecap="round" stroke-linejoin="round"/></svg>