<svg width="39" height="41" fill="none" xmlns="http://www.w3.org/2000/svg"><mask id="a" fill="#fff"><path d="M27.41 4.954c-1.345-1.14-2.754-2.337-4.19-3.642A5.043 5.043 0 0019.159.045a4.86 4.86 0 00-3.471 2.22 34.802 34.802 0 00-4.257 11.018 10.468 10.468 0 01-.813-1.393 3.416 3.416 0 00-5.638-.808 15.488 15.488 0 00-4.418 10.97 18.757 18.757 0 0014.046 18.333c1.551.39 3.143.592 4.743.602.05 0 .1.013.152.013.224 0 .444-.019.664-.034a18.89 18.89 0 0018.28-18.904c-.007-7.74-5.119-12.078-11.036-17.108zM19.893 37.54c-.195 0-.39.02-.586.019a6.302 6.302 0 01-3.476-1.377 6.258 6.258 0 01-2.703-4.368c-.29-2.771 1.418-6.394 4.908-10.488a1.914 1.914 0 011.464-.67 1.861 1.861 0 011.44.667c3.198 3.796 4.954 7.298 4.954 9.862a6.39 6.39 0 01-5.996 6.358l-.005-.003zm9.133-3.23c-.101.078-.212.142-.315.217a9.747 9.747 0 00.6-3.345c0-4.317-3.135-8.943-5.762-12.065a5.295 5.295 0 00-4.042-1.879H19.5a5.324 5.324 0 00-4.059 1.868c-4.177 4.892-6.095 9.288-5.702 13.065.093.877.317 1.735.664 2.545a15.534 15.534 0 01-6.42-12.664 12.064 12.064 0 013.559-8.678c.394.82.867 1.598 1.412 2.325a3.156 3.156 0 003.256 1.196 3.245 3.245 0 002.48-2.518 31.866 31.866 0 013.876-10.288 1.438 1.438 0 011.04-.656 1.628 1.628 0 011.315.412 158.163 158.163 0 004.271 3.719c5.703 4.843 9.825 8.342 9.825 14.499a15.433 15.433 0 01-5.986 12.25l-.005-.003z"/></mask><path d="M27.41 4.954c-1.345-1.14-2.754-2.337-4.19-3.642A5.043 5.043 0 0019.159.045a4.86 4.86 0 00-3.471 2.22 34.802 34.802 0 00-4.257 11.018 10.468 10.468 0 01-.813-1.393 3.416 3.416 0 00-5.638-.808 15.488 15.488 0 00-4.418 10.97 18.757 18.757 0 0014.046 18.333c1.551.39 3.143.592 4.743.602.05 0 .1.013.152.013.224 0 .444-.019.664-.034a18.89 18.89 0 0018.28-18.904c-.007-7.74-5.119-12.078-11.036-17.108zM19.893 37.54c-.195 0-.39.02-.586.019a6.302 6.302 0 01-3.476-1.377 6.258 6.258 0 01-2.703-4.368c-.29-2.771 1.418-6.394 4.908-10.488a1.914 1.914 0 011.464-.67 1.861 1.861 0 011.44.667c3.198 3.796 4.954 7.298 4.954 9.862a6.39 6.39 0 01-5.996 6.358l-.005-.003zm9.133-3.23c-.101.078-.212.142-.315.217a9.747 9.747 0 00.6-3.345c0-4.317-3.135-8.943-5.762-12.065a5.295 5.295 0 00-4.042-1.879H19.5a5.324 5.324 0 00-4.059 1.868v0c-4.177 4.892-6.095 9.288-5.702 13.065.093.877.317 1.735.664 2.545a15.534 15.534 0 01-6.42-12.664 12.064 12.064 0 013.559-8.678c.394.82.867 1.598 1.412 2.325a3.156 3.156 0 003.256 1.196 3.245 3.245 0 002.48-2.518 31.866 31.866 0 013.876-10.288 1.438 1.438 0 011.04-.656 1.628 1.628 0 011.315.412 158.163 158.163 0 004.271 3.719c5.703 4.843 9.825 8.342 9.825 14.499a15.433 15.433 0 01-5.986 12.25l-.005-.003z" fill="#CC2845" stroke="#fff" mask="url(#a)"/></svg>