<svg width="66" height="66" fill="none" xmlns="http://www.w3.org/2000/svg"><rect x="1" y="1" width="64" height="64" rx="19.2" stroke="#C5C5CD" stroke-width="1.28"/><path d="M45.926 46.07c-3.962.445-7.103-1.327-7.135-1.345a.458.458 0 00-.351-.045c-.05.014-5.033 1.363-9.047.463-2.502-.562-4.862-2.342-6.585-3.642-.232-.174-.45-.34-.657-.491-.28-.208-.728-.381-1.122-.533a5.57 5.57 0 01-.472-.196.184.184 0 01-.07-.148v-1.085c.023-.858 3.587-14.068 4.14-15.749a.359.359 0 01.105-.077l7.053-3.254 2.28 2.998a.416.416 0 01-.024.516l-2.253 2.551a.399.399 0 01-.55.056l-.911-.849a.464.464 0 00-.401-.105.487.487 0 00-.337.259c-.076.151-.766.337-1.47.342l-.229-.023a.457.457 0 00-.451.238.472.472 0 00.038.514c.195.255.348.46.434.578l.451 7.742c-.28 1.1-.535 1.412-.599 1.475a.468.468 0 00.14.915c.525 0 .972-.698 1.33-2.06 3.687-2.786 6.904-.157 7.156.06 1.17 1.187 1.243 1.975 1.246 2.01.005.253.21.457.463.457a.466.466 0 00.464-.467c0-.108-.039-1.032-1.238-2.366 1.13-1.405 2.419-2.214 3.837-2.39 2.446-.304 4.502 1.357 4.523 1.373a.46.46 0 00.652-.067.471.471 0 00-.066-.657c-.095-.08-2.371-1.928-5.212-1.58-1.661.204-3.152 1.111-4.437 2.699-1.043-.716-4.033-2.338-7.378-.217l-.415-7.12a.469.469 0 00-.067-.217c.415-.05.909-.16 1.267-.397l.597.555a1.32 1.32 0 001.854-.134l2.253-2.551c.416-.47.45-1.182.075-1.7l-2.512-3.303a.46.46 0 00-.56-.14l-7.382 3.405c-.077.034-.47.226-.598.617-.262.795-4.194 14.959-4.194 16.062v1.087c0 .348.155.67.425.885.135.106.337.187.712.332.306.118.725.28.906.414.204.15.42.314.65.487 1.79 1.35 4.242 3.2 6.938 3.805 3.839.861 8.345-.18 9.31-.426.646.337 3.012 1.449 6.11 1.449.457 0 .93-.024 1.416-.079a.467.467 0 00.41-.517.464.464 0 00-.512-.413z" fill="#C5C5CD" stroke="#C5C5CD" stroke-width=".448"/></svg>