<svg width="40" height="40" fill="none" xmlns="http://www.w3.org/2000/svg"><mask id="a" fill="#fff"><path d="M39.726 14.656a5.298 5.298 0 00-5.112-3.71h-7.281L25.12 4.053a5.378 5.378 0 00-10.243 0l-2.212 6.893H5.384a5.378 5.378 0 00-3.166 9.72L8.144 25l-2.253 6.978A5.297 5.297 0 007.864 38a5.295 5.295 0 006.334-.032l5.801-4.27 5.804 4.265a5.379 5.379 0 008.305-5.985L31.854 25l5.934-4.334a5.295 5.295 0 001.938-6.01zm-3.905 3.319l-6.907 5.048a1.667 1.667 0 00-.603 1.86L30.936 33a2.045 2.045 0 01-3.158 2.275l-6.792-5a1.666 1.666 0 00-1.973 0l-6.792 5A2.046 2.046 0 019.054 33l2.634-8.117a1.666 1.666 0 00-.604-1.86l-6.906-5.048a2.045 2.045 0 011.206-3.695h8.5a1.667 1.667 0 001.587-1.157l2.583-8.052a2.045 2.045 0 013.894 0l2.583 8.052a1.667 1.667 0 001.587 1.157h8.5a2.045 2.045 0 011.206 3.695h-.003z"/></mask><path d="M39.726 14.656a5.298 5.298 0 00-5.112-3.71h-7.281L25.12 4.053a5.378 5.378 0 00-10.243 0l-2.212 6.893H5.384a5.378 5.378 0 00-3.166 9.72L8.144 25l-2.253 6.978A5.297 5.297 0 007.864 38a5.295 5.295 0 006.334-.032l5.801-4.27 5.804 4.265a5.379 5.379 0 008.305-5.985L31.854 25l5.934-4.334a5.295 5.295 0 001.938-6.01zm-3.905 3.319l-6.907 5.048a1.667 1.667 0 00-.603 1.86L30.936 33a2.045 2.045 0 01-3.158 2.275l-6.792-5a1.666 1.666 0 00-1.973 0l-6.792 5A2.046 2.046 0 019.054 33l2.634-8.117a1.666 1.666 0 00-.604-1.86l-6.906-5.048a2.045 2.045 0 011.206-3.695h8.5a1.667 1.667 0 001.587-1.157l2.583-8.052a2.045 2.045 0 013.894 0l2.583 8.052a1.667 1.667 0 001.587 1.157h8.5a2.045 2.045 0 011.206 3.695h-.003z" fill="#CC2847" stroke="#fff" mask="url(#a)"/></svg>