<svg width="509" height="488" fill="none" xmlns="http://www.w3.org/2000/svg"><path d="M482.449 223.72l-126.887 15.934 12.734 101.399 126.887-15.935-12.734-101.398z" fill="#FAFAFA"/><path d="M482.498 223.714s-.224 0-.559.112c-.447.111-1.005.111-1.787.223-1.564.223-3.909.558-6.925.893-6.031.782-14.854 1.899-25.912 3.351-22.226 2.792-53.945 6.925-91.585 11.616l.335-.335c3.798 30.156 8.154 64.779 12.733 101.414l-.447-.336c47.021-5.919 90.58-11.28 126.879-15.859l-.223.335c-3.798-30.491-6.925-55.845-9.047-73.604-1.117-8.823-1.899-15.859-2.457-20.55-.335-2.346-.447-4.133-.67-5.473-.335-1.117-.335-1.787-.335-1.787s.111.558.223 1.787c.112 1.228.447 3.016.67 5.361.559 4.691 1.564 11.616 2.681 20.439 2.233 17.759 5.472 43.112 9.382 73.715v.335h-.336c-36.299 4.579-79.857 10.052-126.878 15.972h-.336v-.335c-4.579-36.635-8.935-71.258-12.732-101.414v-.335h.335c37.751-4.691 69.471-8.6 91.808-11.393 11.169-1.34 19.881-2.457 25.912-3.127 3.016-.335 5.25-.67 6.813-.782.782-.111 1.341-.111 1.787-.223h.671z" fill="#E0E0E0"/><path d="M478.713 230.707l-117.91 14.807 11.133 88.654 117.91-14.807-11.133-88.654z" fill="#EBEBEB"/><path d="M371.926 334.174l34.288-60.312 29.821 31.273 14.967-20.551 38.868 34.736-117.944 14.854zm69.805-71.593c.67 5.137-3.016 9.828-8.153 10.498-5.138.671-9.829-3.015-10.499-8.153-.67-5.138 3.015-9.829 8.153-10.499 5.138-.67 9.829 3.016 10.499 8.154z" fill="#E0E0E0"/><path d="M73.827 76.284l-5.808-2.01-6.366-22.115 4.132-11.504s-8.712-3.685-13.067 11.728c-4.356 15.524-4.133 11.28-4.133 11.28s-18.987-6.701-21.22-5.584c-1.565.782-8.824 19.434-12.622 29.598-1.899 5.137-.447 11.057 3.91 13.961.67.446 1.228.781 1.898 1.005 4.691 1.675 30.268 6.478 30.268 6.478l9.94 3.574 13.068-36.41zm17.645 2.68l-17.647 38.309-9.94-3.462 13.85-38.756 13.737 3.909z" fill="#EBEBEB"/><path d="M143.855 28.817c.224-3.016-.782-5.92-2.233-8.489-1.564-2.457-3.686-4.58-6.367-5.696-2.904-1.229-6.254-1.117-9.047.112-1.675.781-3.127 1.898-4.244 3.35-.558-1.563-1.452-3.015-2.68-4.132-2.234-2.122-5.361-3.35-8.377-3.24-2.904.113-5.696 1.341-8.042 3.128-2.345 1.787-4.244 4.244-5.137 7.148-1.117 3.574-1.117 7.707.223 11.17 1.452 3.685 4.133 6.924 7.036 9.493 4.915 4.356 11.504 9.828 11.504 9.828s7.037-3.574 13.18-5.92c3.686-1.451 7.371-3.462 9.94-6.477 2.569-2.68 4.021-6.59 4.244-10.275zm30.827 10.386a6.085 6.085 0 00-1.899-3.015c-.893-.782-2.01-1.34-3.239-1.452-1.228-.112-2.568.335-3.462 1.228-.558.559-1.005 1.117-1.229 1.899a5.872 5.872 0 00-1.563-1.34 4.689 4.689 0 00-3.686-.224c-1.117.447-2.01 1.229-2.68 2.234-.671 1.005-1.117 2.234-1.117 3.462 0 1.564.558 3.128 1.452 4.356 1.005 1.229 2.457 2.234 3.909 2.793a219.117 219.117 0 005.696 2.457s2.345-2.234 4.467-3.91c1.229-1.005 2.458-2.233 3.128-3.797.558-1.452.558-3.127.223-4.69z" fill="#F5F5F5"/><path d="M361.537.462l-42.75 146.572 146.572 42.75 42.75-146.572L361.537.462z" fill="#FAFAFA"/><path d="M465.409 189.76s.111-.223.223-.67c.112-.447.335-1.117.559-2.011.558-1.787 1.228-4.467 2.233-7.93a9742.554 9742.554 0 008.6-29.821c7.484-25.688 18.094-62.322 30.827-106.216l.223.335A64580.3 64580.3 0 01361.426.67l.335-.223c-15.636 53.722-30.379 103.982-42.777 146.648l-.223-.335c43.894 12.844 80.528 23.566 106.216 31.049 12.845 3.798 22.897 6.702 29.821 8.712a406.137 406.137 0 017.819 2.345c.893.224 1.563.447 2.01.559.558.223.782.335.782.335s-.224 0-.67-.223c-.447-.112-1.117-.335-2.011-.559-1.787-.558-4.356-1.228-7.818-2.234-6.925-2.01-16.977-4.914-29.821-8.6-25.689-7.483-62.434-18.093-106.44-30.938l-.223-.111.111-.224c12.398-42.553 27.029-92.813 42.666-146.536l.111-.335.335.112c53.723 15.636 103.983 30.38 146.537 42.777l.223.111-.112.224c-12.844 44.005-23.678 80.639-31.161 106.328-3.797 12.844-6.701 22.896-8.712 29.709a405.575 405.575 0 01-2.345 7.818c-.224.894-.447 1.564-.559 2.011-.111.447-.111.67-.111.67z" fill="#263238"/><path d="M497.425 47.188L366.4 8.973l-38.215 131.024 131.025 38.216 38.215-131.025z" fill="#EBEBEB"/><path d="M459.155 178.144s0-.223.111-.67c.112-.447.336-1.005.559-1.787.447-1.564 1.117-4.021 2.01-7.036 1.787-6.143 4.356-15.19 7.707-26.694 6.701-22.896 16.195-55.621 27.587-94.936l.223.335C459.266 36.411 414.367 23.231 366.341 9.27l.335-.223c-13.961 48.026-27.14 92.925-38.198 131.011l-.223-.335c39.203 11.504 71.928 21.109 94.824 27.811 11.504 3.35 20.439 6.031 26.582 7.818 3.016.893 5.473 1.564 7.037 2.122.781.223 1.34.447 1.787.559.558.111.67.111.67.111s-.224 0-.559-.111c-.446-.112-1.005-.336-1.787-.559l-7.036-2.01c-6.143-1.787-15.19-4.356-26.582-7.707a79628.666 79628.666 0 00-95.048-27.587l-.223-.112.112-.223c11.057-38.086 24.236-82.985 38.197-131.012l.112-.335.335.112c47.915 13.961 92.926 27.14 131.012 38.198l.223.111-.112.224c-11.504 39.314-21.109 72.039-27.81 95.047-3.351 11.393-6.032 20.439-7.819 26.582-.893 3.016-1.563 5.361-2.122 7.037-.223.782-.447 1.34-.558 1.787-.224.447-.335.558-.335.558z" fill="#263238"/><path d="M435.811 124.982l-45.346-13.18c-2.457-.67-3.797-3.239-3.127-5.584l7.93-27.364c.67-2.457 3.239-3.797 5.584-3.127l45.346 13.179c2.457.67 3.798 3.239 3.127 5.584l-7.929 27.364a4.555 4.555 0 01-5.585 3.128z" fill="#455A64"/><path opacity=".3" d="M435.811 124.982l-45.346-13.18c-2.457-.67-3.797-3.239-3.127-5.584l7.93-27.364c.67-2.457 3.239-3.797 5.584-3.127l45.346 13.179c2.457.67 3.798 3.239 3.127 5.584l-7.929 27.364a4.555 4.555 0 01-5.585 3.128z" fill="#000"/><path d="M434.024 92.478s0-.223.224-.67c.223-.559.447-1.117.67-1.899.558-1.675 1.452-4.132 2.01-7.26.559-3.127.559-7.036-1.34-10.722-1.005-1.787-2.457-3.462-4.467-4.467-2.011-1.117-4.245-1.9-6.59-2.57-4.579-1.34-9.382-1.786-13.291-.11-1.899.78-3.462 2.01-4.691 3.461-1.229 1.452-2.01 2.904-2.681 4.356-1.228 2.904-1.675 5.473-2.122 7.26-.111.782-.335 1.452-.446 2.01-.112.447-.112.67-.224.67v-.67c.112-.446.112-1.116.335-2.01.335-1.787.67-4.356 1.899-7.371.67-1.452 1.452-3.128 2.68-4.58 1.229-1.452 2.793-2.792 4.803-3.685 2.011-.894 4.244-1.229 6.59-1.117 2.345.111 4.691.447 7.036 1.117 2.346.67 4.691 1.452 6.702 2.569 2.01 1.116 3.685 2.903 4.691 4.802 2.01 3.91 1.898 8.042 1.228 11.169a44.272 44.272 0 01-2.234 7.26c-.335.782-.558 1.452-.782 1.899.112.335 0 .558 0 .558z" fill="#263238"/><path d="M429.11 122.746l-45.346-13.179c-2.457-.67-3.797-3.239-3.127-5.585l7.93-27.364c.67-2.457 3.239-3.797 5.584-3.127l45.346 13.18c2.457.67 3.797 3.239 3.127 5.584l-7.93 27.364c-.67 2.457-3.239 3.797-5.584 3.127z" fill="#455A64"/><path d="M429.11 122.746s.67.223 1.787.111c.558-.111 1.34-.335 2.01-.782.67-.446 1.34-1.34 1.675-2.345 1.229-4.468 3.016-10.722 5.25-18.54.558-2.01 1.117-4.021 1.787-6.143a34.87 34.87 0 00.893-3.24c.224-1.116 0-2.233-.67-3.127a4.646 4.646 0 00-2.904-1.787c-1.228-.335-2.345-.67-3.574-1.005-2.457-.67-5.026-1.452-7.595-2.122-10.387-3.016-21.667-6.255-33.618-9.717-1.34-.447-2.904 0-4.021.894-.558.446-.893 1.117-1.117 1.787a47.635 47.635 0 01-.67 2.122c-.893 2.904-1.675 5.808-2.457 8.6a1052.776 1052.776 0 00-4.691 16.195c-.223.67-.335 1.228-.335 1.898 0 .671.223 1.229.447 1.787a4.412 4.412 0 002.68 2.234c2.457.67 4.803 1.452 7.148 2.122 4.58 1.341 8.824 2.569 12.733 3.798 7.818 2.345 14.073 4.132 18.54 5.473 2.122.67 3.798 1.116 5.026 1.563.559.224 1.006.335 1.341.447.111-.335.335-.223.335-.223s-.112 0-.447-.112a11.606 11.606 0 00-1.34-.335c-1.229-.335-2.904-.782-5.026-1.452-4.468-1.229-10.723-3.016-18.541-5.25-3.909-1.116-8.153-2.345-12.844-3.685-2.345-.67-4.691-1.341-7.148-2.011-1.34-.335-2.457-1.228-3.127-2.569-.335-.67-.447-1.34-.559-2.01 0-.67.224-1.452.335-2.01a1054.4 1054.4 0 014.691-16.195c.782-2.793 1.675-5.696 2.457-8.6.224-.782.447-1.452.67-2.234.224-.782.671-1.452 1.341-2.01 1.228-1.117 3.015-1.564 4.579-1.117 11.951 3.462 23.343 6.813 33.618 9.828 2.569.782 5.138 1.452 7.595 2.234 1.229.335 2.457.67 3.574 1.005 1.229.224 2.458 1.005 3.128 2.01.781 1.006 1.005 2.346.781 3.575-.335 1.228-.67 2.233-.893 3.35-.67 2.122-1.229 4.133-1.787 6.143-2.346 7.819-4.133 14.073-5.473 18.541-.335 1.117-1.117 1.898-1.787 2.457-.782.447-1.452.67-2.122.782-1.117 0-1.675-.335-1.675-.335z" fill="#263238"/><path d="M397.278 94.377c-.223 1.564-1.675 2.68-3.35 2.457-1.676-.223-2.681-1.675-2.458-3.35.224-1.564 1.676-2.68 3.351-2.457 1.675.223 2.681 1.675 2.457 3.35z" fill="#455A64"/><path d="M349.543 86.996l-.158 1.106 44.888 6.411.158-1.105-44.888-6.412z" fill="#455A64"/><path d="M445.417 344.896s-7.484-4.021-14.52 13.626-9.382 27.699-9.382 27.699-1.899 3.797-4.579 1.675c-2.681-2.122-6.59-8.376-10.611-6.701-4.132 1.675-5.137 6.59-3.685 13.514 1.452 6.925 4.132 22.227 4.355 23.678.224 1.341-.335 3.463-2.345 2.346-2.01-1.117-14.185-12.286-19.099-6.255-4.914 6.032 2.346 24.684 3.127 26.806.782 2.01.447 3.015-.558 3.574-1.005.67-4.691-3.574-8.265-6.59-3.574-3.015-8.265-5.919-10.834-2.234-2.569 3.686-2.122 18.206 13.738 40.32l8.042 9.717 12.509-1.899c26.582-5.696 36.634-16.083 37.304-20.662.558-4.468-4.803-5.473-9.494-5.696-4.691-.112-10.275.447-10.498-.67-.336-1.117.111-2.011 2.01-3.016 1.899-1.005 19.881-9.94 20.327-17.759.447-7.818-16.083-7.706-18.317-8.265-2.233-.558-1.34-2.457-.223-3.35 1.117-.894 13.403-10.387 19.099-14.52 5.808-4.132 8.377-8.377 6.366-12.397-1.899-3.909-9.047-1.899-12.397-2.122-3.351-.224-2.234-4.356-2.234-4.356s5.026-9.047 11.727-26.806c6.702-17.758-1.787-19.88-1.787-19.88" fill="#DF4F6C"/><path d="M390.578 486.295c4.914-13.067 11.951-31.049 19.769-50.818 7.818-19.881 14.855-37.751 19.881-50.819 2.457-6.478 4.579-11.727 5.919-15.413.67-1.787 1.229-3.239 1.676-4.244.223-.447.335-.782.446-1.117.112-.223.112-.335.112-.335s0 .112-.112.335c-.111.223-.223.67-.446 1.117-.335 1.005-.894 2.457-1.564 4.244-1.34 3.686-3.351 8.935-5.808 15.525-4.914 13.067-11.951 31.049-19.769 50.818-7.818 19.881-14.855 37.751-19.881 50.819m20.773-96.165s.224.335.447.782c.223.558.558 1.34.894 2.345a168.602 168.602 0 012.792 7.707c1.005 3.016 1.898 5.696 2.569 7.818.335.894.558 1.676.781 2.346.224.558.335.893.224.893 0 0-.224-.335-.447-.782-.223-.558-.558-1.34-.893-2.345-.782-2.01-1.676-4.691-2.681-7.707-1.005-3.015-1.899-5.696-2.681-7.706-.335-.894-.558-1.675-.781-2.346-.112-.781-.224-1.005-.224-1.005zm8.936 21.891c0-.111 5.473-2.345 12.397-5.026 6.925-2.68 12.509-4.802 12.509-4.691 0 .112-5.472 2.346-12.397 5.026-6.813 2.681-12.398 4.803-12.509 4.691z" fill="#263238"/><path d="M407.219 442.065s.335-.111.893-.111c.67-.112 1.564-.112 2.569-.224 2.122-.223 5.026-.446 8.265-.893 3.239-.447 6.143-.894 8.265-1.229 1.005-.223 1.787-.335 2.457-.447.559-.111.894-.111.894-.111s-.335.111-.894.223c-.558.112-1.452.335-2.457.559a120.926 120.926 0 01-8.265 1.452c-3.239.446-6.254.67-8.377.781-1.116.112-1.898.112-2.568.112-.447-.112-.782-.112-.782-.112zm-12.51-18.093s.223.223.558.67c.335.447.782 1.117 1.452 1.899 1.229 1.563 2.793 3.797 4.468 6.254a201.362 201.362 0 014.468 6.366c.558.782 1.005 1.452 1.34 1.899.335.447.447.782.447.782s-.224-.223-.559-.67c-.335-.447-.782-1.117-1.452-1.899-1.228-1.564-2.792-3.797-4.467-6.255-1.787-2.457-3.351-4.69-4.468-6.366-.558-.782-1.005-1.452-1.34-1.899-.335-.446-.447-.781-.447-.781zm-15.078 24.907s.224.335.671.893c.446.671 1.116 1.452 1.787 2.346 1.563 2.01 3.574 4.914 5.807 8.042 2.234 3.127 4.245 6.031 5.808 8.041.67 1.005 1.229 1.787 1.676 2.457.446.559.558.894.558.894s-.223-.335-.67-.894c-.447-.67-1.117-1.452-1.787-2.345-1.564-2.011-3.574-4.914-5.808-8.042-2.234-3.127-4.244-6.031-5.696-8.041-.67-1.006-1.229-1.787-1.675-2.458-.559-.558-.782-.893-.671-.893zm16.084 22.115s.447-.112 1.117-.223c.782-.112 1.898-.224 3.239-.447 2.68-.335 6.366-.894 10.499-1.452 4.132-.67 7.818-1.34 10.498-1.899 1.229-.223 2.346-.447 3.128-.558.781-.112 1.116-.224 1.116-.224s-.446.112-1.116.335c-.782.224-1.787.447-3.128.782-2.68.559-6.366 1.341-10.387 2.011-4.132.67-7.818 1.117-10.499 1.34-1.34.112-2.457.223-3.239.223-.781.112-1.228.112-1.228.112z" fill="#263238"/><path d="M380.861 486.965H115.934c-7.148 0-12.844-5.808-12.844-12.844V82.65c0-7.148 5.808-12.844 12.844-12.844h264.927c7.148 0 12.844 5.808 12.844 12.844v391.359c0 7.148-5.808 12.956-12.844 12.956z" fill="#263238"/><path d="M384.435 99.515h-272.41v348.358h272.41V99.515z" fill="#fff"/><path d="M259.246 468.459c1.378-6.012-2.379-12.003-8.391-13.381-6.012-1.378-12.003 2.379-13.381 8.391-1.378 6.012 2.378 12.004 8.391 13.382 6.012 1.378 12.003-2.379 13.381-8.392zm31.482-382.123h-84.884c-.782 0-1.34-.558-1.34-1.34v-1.899c0-.782.558-1.34 1.34-1.34h84.884c.782 0 1.34.558 1.34 1.34v1.899c.112.782-.558 1.34-1.34 1.34z" fill="#455A64"/><path d="M240.69 422.631c0 1.341-1.116 2.569-2.568 2.569-1.341 0-2.569-1.117-2.569-2.569 0-1.34 1.117-2.569 2.569-2.569 1.452.112 2.568 1.229 2.568 2.569zm10.165 0c0 1.341-1.117 2.569-2.569 2.569-1.341 0-2.569-1.117-2.569-2.569 0-1.34 1.117-2.569 2.569-2.569 1.452.112 2.569 1.229 2.569 2.569zm10.164 0c0 1.341-1.117 2.569-2.569 2.569-1.341 0-2.569-1.117-2.569-2.569 0-1.34 1.117-2.569 2.569-2.569 1.452.112 2.569 1.229 2.569 2.569zM148.658 128.666h-12.844a.48.48 0 01-.447-.447c0-.223.224-.447.447-.447h12.844a.48.48 0 01.447.447c0 .224-.112.447-.447.447z" fill="#263238"/><path d="M140.841 132.799c-.112 0-.223 0-.335-.111l-5.808-4.133c-.112-.112-.223-.223-.223-.447 0-.111.111-.335.223-.446l5.92-4.021c.223-.112.558-.112.67.111.111.224.111.559-.112.671l-5.361 3.685 5.249 3.686c.224.112.224.447.112.67 0 .224-.112.335-.335.335zm215.003-4.022h-12.845a.48.48 0 01-.446-.446.48.48 0 01.446-.447h12.845a.48.48 0 01.446.447c.112.223-.111.446-.446.446z" fill="#263238"/><path d="M350.706 132.798c-.112 0-.335-.112-.447-.223-.112-.224-.112-.559.112-.671l5.361-3.685-5.25-3.686c-.223-.112-.223-.447-.111-.67.111-.224.446-.224.67-.112l5.808 4.133c.111.111.223.223.223.446 0 .112-.112.335-.223.447l-5.92 4.021h-.223z" fill="#263238"/><path d="M288.495 137.154c0 .112-17.87.223-39.985.223-22.114 0-39.985-.111-39.985-.223s17.871-.223 39.985-.223c22.115 0 39.985.111 39.985.223zm-26.805 3.239c0 .112-5.92.224-13.068.224-7.259 0-13.067-.112-13.067-.224 0-.111 5.919-.223 13.067-.223 7.148 0 13.068.112 13.068.223z" fill="#E0E0E0"/><path d="M353.721 167.311c0 .111-20.55.335-46.016.335-25.465 0-46.016-.112-46.016-.335 0-.112 20.551-.335 46.016-.335 25.354.111 46.016.223 46.016.335zm-.001 10.945c0 .112-24.013.335-53.722.335s-53.723-.112-53.723-.335c0-.112 24.014-.335 53.723-.335 29.598 0 53.722.112 53.722.335zm0 10.052c0 .111-24.013.335-53.722.335s-53.723-.112-53.723-.335c0-.224 24.014-.335 53.723-.335 29.598 0 53.722.111 53.722.335zm0 10.051c0 .112-24.013.336-53.722.336s-53.723-.112-53.723-.336c0-.111 24.014-.335 53.723-.335 29.598 0 53.722.224 53.722.335zm0 10.053c0 .112-24.013.335-53.722.335s-53.723-.111-53.723-.335c0-.223 24.014-.335 53.723-.335 29.598.112 53.722.224 53.722.335zm0 10.052c0 .112-24.013.335-53.722.335s-53.723-.112-53.723-.335c0-.112 24.014-.335 53.723-.335 29.598.112 53.722.223 53.722.335zm0 10.164c0 .112-24.013.335-53.722.335s-53.723-.112-53.723-.335c0-.223 24.014-.335 53.723-.335 29.598 0 53.722.112 53.722.335zm0 9.382c0 .112-24.013.335-53.722.335s-53.723-.112-53.723-.335c0-.112 24.014-.335 53.723-.335 29.598.111 53.722.223 53.722.335zm-53.722 10.723c0 .111-12.063.335-26.806.335-14.855 0-26.805-.112-26.805-.335 0-.112 12.062-.336 26.805-.336 14.743.112 26.806.224 26.806.336zm53.722 37.527c0 .112-24.013.335-53.722.335s-53.723-.112-53.723-.335c0-.112 24.014-.335 53.723-.335 29.598.111 53.722.223 53.722.335zm0 10.945c0 .112-24.013.335-53.722.335s-53.723-.111-53.723-.335c0-.111 24.014-.335 53.723-.335 29.598.112 53.722.224 53.722.335zm0 10.611c0 .111-24.013.335-53.722.335s-53.723-.112-53.723-.335c0-.224 24.014-.336 53.723-.336 29.598.112 53.722.224 53.722.336zm0 10.722c0 .112-24.013.335-53.722.335s-53.723-.111-53.723-.335c0-.223 24.014-.335 53.723-.335 29.598 0 53.722.112 53.722.335zm-53.722 10.275c0 .111-12.063.335-26.806.335-14.855 0-26.805-.112-26.805-.335 0-.112 12.062-.335 26.805-.335s26.806.223 26.806.335zm-55.621-173.454h12.51l.111 3.798h-.558c-.224-1.229-.559-1.899-1.005-2.346-.447-.335-1.229-.558-2.569-.558h-1.229v11.281c0 .893.112 1.34.447 1.563.223.224.893.335 1.787.447v.447h-6.478v-.447c.893-.112 1.564-.223 1.787-.447.223-.223.335-.782.335-1.787v-11.057h-1.229c-1.228 0-2.01.223-2.457.558-.446.335-.782 1.117-1.005 2.346h-.558l.111-3.798z" fill="#263238"/><path d="M306.475 386.667c.893.558 1.898.893 2.904.893 3.574 0 5.584-3.015 5.472-5.696.335-.223.67-.558 1.005-1.005-.335.112-.67.223-1.116.335.446-.223.67-.558.893-1.005-.335.223-.782.335-1.228.447a2.065 2.065 0 00-1.341-.559c-1.228 0-2.122 1.117-1.898 2.346-1.564-.112-3.016-.894-3.91-2.011-.446.894-.223 2.011.559 2.569-.335 0-.559-.112-.894-.223 0 .893.559 1.675 1.564 1.898-.223.112-.558.112-.893 0a1.81 1.81 0 001.787 1.341c-.894.446-1.899.781-2.904.67zm28.033-7.482h2.011c.447 0 .782.111.893.223.224.112.447.223.559.335.223.223.335.335.335.558.112.224.112.447.223.894v4.021c0 .447-.111.782-.223.893-.112.224-.224.447-.335.559-.224.223-.335.335-.559.335-.223.111-.446.111-.893.223h-4.021c-.447 0-.782-.112-.893-.223-.224-.112-.447-.224-.559-.335-.223-.224-.335-.335-.335-.559-.112-.223-.112-.446-.223-.893v-4.021c0-.447.111-.782.223-.894.112-.223.223-.446.335-.558.223-.223.335-.335.559-.335.223-.112.446-.112.893-.223h2.01zm0-.894h-2.122c-.558 0-.893.112-1.228.223-.335.112-.67.335-.894.559-.335.335-.446.558-.558.893-.112.335-.224.67-.224 1.229v4.244c0 .559.112.894.224 1.229.112.335.335.67.558.893.335.335.559.447.894.559.335.111.67.223 1.228.223h4.245c.558 0 .893-.112 1.228-.223.335-.112.67-.335.894-.559.335-.335.446-.558.558-.893.112-.335.223-.67.223-1.229v-4.244c0-.559-.111-.894-.223-1.229a2.435 2.435 0 00-.558-.893c-.335-.335-.559-.447-.894-.559-.335-.111-.67-.223-1.228-.223h-2.123z" fill="#D93D5B"/><path d="M334.508 380.748c-1.452 0-2.569 1.117-2.569 2.569s1.117 2.569 2.569 2.569 2.569-1.117 2.569-2.569c.112-1.452-1.117-2.569-2.569-2.569zm0 4.244c-.893 0-1.675-.782-1.675-1.675 0-.894.782-1.675 1.675-1.675.894 0 1.676.781 1.676 1.675 0 .893-.671 1.675-1.676 1.675zm3.351-4.356c0 .335-.223.558-.558.558-.335 0-.559-.223-.559-.558 0-.335.224-.559.559-.559.335 0 .558.224.558.559zm19.322 6.926h1.675v-4.245h1.229l.111-1.452h-1.34v-.781c0-.335.112-.447.447-.447h.893v-1.564h-1.228c-1.229 0-1.787.559-1.787 1.676v1.116h-.894v1.452h.894v4.245z" fill="#D93D5B"/><path d="M308.821 409.006c0 .112-13.067.335-29.151.335-16.083 0-29.15-.112-29.15-.335 0-.223 13.067-.335 29.15-.335 16.195 0 29.151.223 29.151.335zm51.602-6.143c0 .112-24.572.335-54.839.335-30.268 0-54.84-.111-54.84-.335 0-.223 24.572-.335 54.84-.335 30.267 0 54.839.112 54.839.335z" fill="#E0E0E0"/><path d="M215.406 125.33L.289 151.201l34.06 283.201 215.116-25.872-34.059-283.2z" fill="#FAFAFA"/><path d="M249.402 408.447c-.223-2.345-13.961-115.263-34.289-283.132l.335.224A137571.69 137571.69 0 00.335 151.45l.223-.335C13.18 256.438 24.907 354.166 34.512 434.247l-.223-.223c130.006-15.413 213.103-25.353 215.113-25.577-2.01.224-84.996 10.276-215.113 26.136h-.224v-.224C24.348 354.278 12.621 256.55 0 151.227v-.335h.335c77.4-9.27 150.669-18.094 215.113-25.8h.224v.223c19.992 167.869 33.507 280.899 33.73 283.132z" fill="#263238"/><path d="M210.283 134.547L7.918 158.885l28.978 240.953L239.262 375.5l-28.979-240.953z" fill="#EBEBEB"/><path d="M239.125 375.499c-.223-2.233-11.839-97.504-29.262-240.913l.335.223c-59.865 7.26-129.001 15.525-202.27 24.348l.224-.335c10.722 89.017 20.663 171.89 28.928 240.914l-.224-.224c121.853-14.407 200.259-23.789 202.269-24.013-2.01.224-80.416 9.717-202.269 24.572h-.223v-.223c-8.265-69.024-18.317-151.898-29.04-240.914v-.335h.336a198627.98 198627.98 0 01202.269-24.237h.223v.224c17.089 143.409 28.481 238.68 28.704 240.913zM63.774 418.612c-2.904.335-5.473-1.675-5.808-4.579-.335-2.904 1.675-5.473 4.58-5.808 2.903-.335 5.472 1.675 5.807 4.579.112 1.005 0 2.011-.558 2.904l1.005 1.787v.224c-.112.111-.112.111-.223.111l-2.01-.558c-.67.782-1.676 1.228-2.793 1.34zm-1.117-9.94c-2.569.335-4.467 2.68-4.132 5.249.335 2.569 2.68 4.468 5.249 4.133 1.005-.112 2.01-.559 2.68-1.229.112-.112.112-.112.224-.112l1.564.447-.782-1.34v-.224c.447-.893.67-1.787.558-2.792a5.012 5.012 0 00-5.36-4.132z" fill="#263238"/><path d="M49.477 420.286h-.111c-.224-.111-6.143-2.904-6.478-5.919a3.516 3.516 0 013.127-3.909c.893-.112 1.787.111 2.457.67a3.453 3.453 0 012.234-1.229 3.517 3.517 0 013.909 3.128c.335 3.015-4.691 7.148-4.914 7.259h-.224z" fill="#D93D5B"/><path d="M49.477 420.286h-.111c-.224-.111-6.143-2.904-6.478-5.919a3.516 3.516 0 013.127-3.909c.893-.112 1.787.111 2.457.67a3.453 3.453 0 012.234-1.229 3.517 3.517 0 013.909 3.128c.335 3.015-4.691 7.148-4.914 7.259h-.224zm-3.462-9.382c-1.675.224-2.904 1.676-2.68 3.351.334 2.457 5.249 5.026 6.142 5.473.782-.67 4.915-4.244 4.691-6.813-.223-1.675-1.675-2.904-3.35-2.681-.782.112-1.564.559-2.01 1.229-.113.112-.224.112-.336 0-.782-.335-1.675-.67-2.457-.559zm192.106-13.513h-.112l-4.468-2.457-3.797 3.462c-.112.112-.223.112-.223 0-.112 0-.112-.111-.224-.223l-1.34-11.057c0-.112.112-.224.223-.335l8.6-1.006c.112 0 .224.112.336.224l1.34 11.057c0 .112 0 .223-.112.223-.112.112-.112.112-.223.112zm-4.691-3.016h.111l4.245 2.346-1.229-10.275-8.042 1.005 1.229 10.275 3.574-3.239c0-.112 0-.112.112-.112zm-107.892-226.17c-1.229-3.351-3.016-6.59-5.92-8.6-2.792-2.011-6.701-3.016-9.605-1.229-1.676-1.34-4.356-2.122-6.59-1.787-3.351.447-6.59 1.787-9.27 3.686-3.35 2.345-6.366 6.143-8.377 9.828-2.792 5.027-2.345 11.169-1.787 16.866 1.117 11.615 2.234 23.343 3.35 34.958.112.894.224 1.787.894 2.346.559.447 1.34.335 2.01.223a404.807 404.807 0 0041.884-7.26c-3.797-16.083-.67-33.618-6.589-49.031z" fill="#263238"/><path d="M174.011 330.712c-4.579-16.865-11.616-46.574-11.616-46.574l-25.465-76.284c-4.691.112-9.27 0-9.27 0s-2.345-7.818-12.956-5.696l-17.87 2.122s-6.59 3.128-8.6 7.595c-2.01 4.468-2.346 7.707-4.915 9.382-2.568 1.675-12.397 14.52-11.615 17.424.782 2.903-2.68 10.387-2.01 18.205.67 7.818 2.233 18.987 2.233 18.987s-5.25 5.026-2.122 11.616c0 0-2.345 7.93.112 14.184l3.574 6.143s-4.691 16.865-3.686 25.577c1.005 8.712 4.803 61.652 4.803 61.652l75.613-9.27 30.826-11.169c-.111.224-2.457-26.917-7.036-43.894z" fill="#F995A6"/><path opacity=".3" d="M122.969 210.535c.67-2.234-.336-4.132-2.346-5.361-1.675-1.005-3.686-1.117-5.584-1.229-6.59-.111-13.626.447-19.21 3.91-1.565 1.005-3.016 2.233-3.798 3.909-.782 1.675-.112 3.015.781 4.914l7.26-6.813 22.897.67z" fill="#000"/><path d="M92.924 167.535l11.951-7.26 3.462-.224c7.483-1.228 14.073 6.143 15.19 12.286 1.228 6.813 2.345 15.078 2.122 20.216-.447 10.387-8.153 12.621-8.153 12.621s.558 2.68 1.116 6.143c1.117 6.031-3.015 11.839-9.046 12.621a10.852 10.852 0 01-12.175-8.935l-7.26-43.559c-.223-1.787 1.006-3.463 2.793-3.909z" fill="#fff"/><path d="M120.736 179.708c.111.67-.447 1.34-1.117 1.452-.671.112-1.341-.335-1.452-1.005-.112-.671.446-1.341 1.117-1.452.67-.112 1.34.335 1.452 1.005zm.894-3.127c-.112.223-1.229-.447-2.681-.224-1.452.112-2.345 1.005-2.569.782-.112-.112 0-.447.447-.782s1.117-.782 2.01-.893c.894-.112 1.676.111 2.122.446.559.335.782.559.671.671zm-7.037 12.061c0-.111.893-.335 2.233-.67.335-.111.671-.223.671-.446 0-.224-.112-.671-.336-1.006a30.086 30.086 0 01-1.34-2.68c-1.899-3.686-3.35-6.813-3.239-6.925.112-.112 1.787 2.904 3.798 6.59l1.34 2.68c.223.447.447.782.335 1.341-.112.335-.335.558-.558.558-.224.112-.447.112-.559.112-1.452.446-2.234.558-2.345.446z" fill="#263238"/><path d="M117.499 205.284s-6.813 1.229-14.073-2.122c0 0 4.467 6.701 14.519 4.579l-.446-2.457zm-3.129-13.179c-.558-.558-1.563-.893-2.345-.67-.559.112-1.229.447-1.452 1.005-.335.559-.335 1.229.112 1.676.446.446 1.228.558 1.898.223.67-.223 1.229-.782 1.676-1.228.111-.112.335-.336.335-.447 0-.112 0-.335-.224-.559z" fill="#DADADA"/><path d="M110.572 190.095c.223 0 .447 1.452 1.787 2.457 1.452.893 3.016.558 3.127.782 0 .111-.335.335-1.005.446-.67.112-1.675 0-2.569-.558-.893-.558-1.34-1.452-1.452-2.01-.111-.671 0-1.117.112-1.117zm9.94-18.429c-.223.335-1.228.112-2.345.224-1.229.111-2.122.446-2.345.111-.112-.111 0-.446.446-.893a4.247 4.247 0 011.899-.782c.782-.112 1.564.112 2.01.447.224.335.335.67.335.893zm-16.193 10.053c.112.67.782 1.228 1.452 1.117.67-.112 1.229-.67 1.117-1.341-.112-.67-.782-1.228-1.452-1.116-.67.111-1.229.67-1.117 1.34zm-1.9-2.347c.224.112 1.117-.781 2.457-.893 1.452-.224 2.569.335 2.681.112.112-.112-.112-.336-.67-.671-.447-.223-1.341-.446-2.122-.335-.894.112-1.564.559-1.899 1.006-.447.335-.558.67-.447.781zm.56-3.015c.335.335 1.228-.224 2.345-.335 1.117-.224 2.234-.112 2.346-.447.112-.223-.112-.447-.559-.67-.446-.223-1.228-.335-2.01-.223-.782.111-1.452.558-1.787.893-.447.335-.559.67-.335.782z" fill="#263238"/><path d="M95.605 188.421c-.112-.782-1.117-2.458-1.899-2.458-2.01-.111-5.696.447-5.137 5.585.781 6.925 7.594 4.803 7.594 4.579-.111-.223-.335-5.138-.558-7.706z" fill="#fff"/><path d="M93.037 193.67s-.111.112-.335.223c-.223.112-.558.224-.893.112-.782-.223-1.564-1.34-1.675-2.569-.112-.67 0-1.228.111-1.787.112-.558.447-.893.782-1.005.335-.112.67.112.782.223.112.224.112.335.112.335s.111-.111 0-.446c0-.112-.112-.335-.336-.447-.223-.112-.446-.112-.67-.112-.558.112-1.005.67-1.117 1.229a3.861 3.861 0 00-.223 2.01c.223 1.452 1.005 2.681 2.122 2.792.559.112.894-.111 1.117-.335.223-.111.335-.223.223-.223z" fill="#794742"/><path d="M92.477 185.851l2.01 1.564c6.367-8.489 18.094-29.151 17.424-27.922 0 0-5.585-1.229-11.057.67-5.473 1.898-15.637 6.478-14.408 13.179 1.228 6.701 6.031 12.509 6.031 12.509z" fill="#263238"/><path opacity=".3" d="M141.957 305.806c2.011-.782 2.792-3.351 4.803-4.245.893-.446 1.899-.446 2.904-.446 3.797-.335 7.483-2.346 9.828-5.473 2.346-3.127 3.239-7.148 2.346-10.946-4.914 1.899-9.829 3.798-13.961 7.148-4.021 3.351-7.148 8.265-6.813 13.515" fill="#000"/><path d="M140.281 286.372l5.584-8.823.559-17.089v-18.764l-1.341-9.158-8.265-24.684s11.169.447 13.403 4.915c2.234 4.467 16.195 42.553 16.195 42.553s3.127 8.712 3.351 10.499c.223 1.787 1.898 5.026.67 7.93-1.229 2.792-8.042 10.499-8.042 10.499l-2.234 2.904s.447 2.01.224 2.569c-.224.335-2.681 4.914-5.585 6.813-1.452 1.005-4.356.223-4.467.111l-10.052-10.275z" fill="#F995A6"/><path d="M82.65 244.264s0 .223-.112.558c-.111.447-.111.894-.223 1.452-.224 1.34-.559 3.127-1.005 5.473-.782 4.691-1.564 11.057-2.234 18.205-.559 7.148-.894 13.626-1.005 18.317-.112 2.234-.112 4.133-.112 5.585v1.563c0 .335 0 .559-.112.559 0 0 0-.224-.111-.559 0-.446 0-.893-.112-1.563 0-1.341-.112-3.239 0-5.585 0-4.691.223-11.169.893-18.428.559-7.149 1.452-13.627 2.346-18.206.447-2.345.782-4.132 1.117-5.473.111-.558.223-1.117.335-1.452.223-.335.335-.446.335-.446z" fill="#263238"/><path d="M85.107 219.135s0 .111-.223.447c-.224.335-.335.67-.67 1.116-.67 1.006-1.452 2.458-2.57 4.133-2.233 3.574-5.36 8.6-8.934 14.52l-.112-.336c1.899 1.341 4.244 2.346 6.701 3.351s5.026 1.899 7.483 3.574c2.346 1.452 4.245 3.686 5.026 6.143.894 2.457 1.117 5.026 1.229 7.372.335 4.691.335 9.046-.223 12.62-.559 3.575-1.564 6.367-2.57 8.042a13.144 13.144 0 01-1.228 2.01c-.335.447-.447.671-.447.671-.111 0 .559-.894 1.452-2.681.894-1.787 1.9-4.467 2.346-8.042.558-3.462.447-7.818.111-12.509-.223-2.345-.446-4.802-1.228-7.148-.782-2.345-2.569-4.467-4.914-5.919-2.346-1.564-4.915-2.569-7.372-3.463-2.457-1.005-4.802-2.01-6.813-3.462l-.223-.112.111-.223c3.686-5.808 6.814-10.834 9.159-14.408 1.117-1.675 2.01-3.127 2.68-4.133.335-.446.559-.781.67-1.116.447-.336.56-.447.56-.447z" fill="#263238"/><path d="M93.707 276.32s1.564-14.966 2.234-22.226c.67-7.259-.111-10.722-.447-14.743-.335-4.02-3.127-23.566-3.127-23.566l4.691-2.904s4.914 6.366 10.611 5.584c9.94-1.34 10.722-8.041 10.722-8.041l4.691.223s-.559 20.663-.559 25.8c0 6.702.335 21.668.894 26.471.558 4.691 3.686 17.088 3.686 17.088l-33.395-3.686z" fill="#E0E0E0"/><path opacity=".3" d="M77.063 308.04s-5.472 16.642-1.675 37.639c3.686 20.998 7.818 48.473 7.818 48.473l66.567-8.041c6.701-2.458 12.509-4.58 12.509-4.58s-11.95-70.699-19.769-76.842c-11.615-9.047-65.45 3.351-65.45 3.351z" fill="#000"/><path d="M93.707 276.32s-18.54 27.699-18.43 40.655c.112 12.956 16.196 76.172 16.196 76.172l52.382-6.254s5.696-56.627 4.803-67.237c-.782-10.722-22.115-41.549-22.115-41.549l-32.836-1.787z" fill="#263238"/><path d="M120.736 304.465s4.468-3.574 5.696-5.249a85.26 85.26 0 012.123-2.569s5.361-1.563 7.259-3.797c2.011-2.234 5.138-5.473 5.138-5.473l6.255 6.59s-3.686 5.919-3.909 7.818c-.336 1.899-2.569 7.26-2.569 7.26l-12.063-7.26s-2.569 3.574-4.244 4.021c-1.229.335-3.574 1.34-3.686-1.341zm-48.25-12.285s-2.904 6.254-2.569 8.376c.336 2.122 9.718 9.606 9.718 9.606l7.036-8.6s3.909.781 5.361.223c1.452-.559 2.234-1.899 2.01-2.681-.223-.781-3.574-.781-4.802-.781-1.34-.112-8.824-3.128-11.28-2.458 0 0 .334-3.909-1.453-4.244-1.898-.223-4.02.559-4.02.559z" fill="#fff"/><path d="M130.228 299.104c.112 0 0 1.006-.67 1.899-.558 1.005-1.34 1.452-1.452 1.34-.112-.111.447-.781 1.005-1.675.559-.893.894-1.675 1.117-1.564z" fill="#794742"/><path d="M127.548 207.854s.112.112.447.224c.335.223.67.447 1.117.782 1.005.67 2.345 1.675 4.021 2.792 3.462 2.457 8.377 5.919 13.849 9.94l.224.224-.224.223c-2.122 1.899-4.244 4.021-6.254 6.478-5.808 6.925-10.164 13.961-13.18 18.987-1.563 2.569-2.68 4.691-3.462 6.143-.335.67-.67 1.229-.894 1.675a5.838 5.838 0 00-.335.559s.112-.224.224-.67c.223-.447.447-1.005.893-1.676.782-1.452 1.899-3.574 3.351-6.143 3.016-5.137 7.26-12.174 13.068-19.21 2.01-2.457 4.244-4.579 6.254-6.59v.447c-5.473-4.021-10.275-7.595-13.738-10.052a186.355 186.355 0 01-4.02-3.016c-.447-.335-.782-.558-1.006-.781a238.54 238.54 0 00-.335-.336zm30.603 128.889s.112.112.224.447c.112.112.112.335.223.558 0 .112.112.224.112.336l.112.223s.111.112 0 0h-.112c-.112.112 0 .112 0 .112-.223-1.117-.782-2.681-1.34-4.691-1.117-3.909-2.681-9.382-4.356-15.302-1.676-6.031-3.128-11.504-4.021-15.413-.447-2.01-.894-3.574-1.117-4.691a64.231 64.231 0 01-.335-1.787s.223.559.558 1.675c.336 1.229.782 2.793 1.229 4.691 1.117 4.021 2.569 9.382 4.244 15.414 1.676 6.031 3.128 11.392 4.133 15.413.558 2.01.893 3.574 1.117 4.691v.223h-.112l-.112-.112-.111-.223c0-.112-.112-.223-.112-.335 0-.224-.112-.335-.112-.559-.112-.446-.223-.558-.112-.67zm-66.008-64.555c-.111.111-.893 0-1.898-.447-1.006-.447-1.788-.894-1.676-1.005.112-.112.894 0 1.899.446 1.005.447 1.787.894 1.675 1.006zm39.538-4.915c.111.112-.894 1.005-2.346 1.452-1.452.447-2.792.335-2.792.223 0-.223 1.229-.335 2.569-.782 1.452-.446 2.569-1.116 2.569-.893z" fill="#263238"/><path d="M95.604 203.052s-.112.224-.447.559c-.335.335-1.005.782-1.899 1.005-.893.223-2.01.335-3.127-.112-1.117-.446-2.234-1.34-2.792-2.68-.559-1.229-.67-2.681-.224-3.909.447-1.117 1.23-2.011 2.01-2.458.783-.446 1.453-.67 2.011-.781.447-.112.782 0 .782 0 0 .111-1.117.111-2.569 1.117-.67.558-1.34 1.228-1.675 2.345-.335 1.005-.335 2.345.223 3.462.559 1.117 1.452 2.011 2.457 2.458 1.006.446 2.01.335 2.904.223 1.564-.447 2.234-1.34 2.346-1.229z" fill="#E0E0E0"/><path opacity=".3" d="M123.191 255.099s6.032-10.164 9.941-14.519c4.021-4.245 9.158-7.819 14.966-8.712-1.005-2.681-2.68-5.138-4.691-7.148.112 0-14.743 17.535-20.216 30.379z" fill="#000"/><path d="M162.396 284.139s-.111.335-.558.782c-.447.558-.894 1.34-1.564 2.233v-.111c.112.447.112.893.224 1.34 0 .223.111.447.111.782s-.111.558-.223.893c-.558 1.006-1.34 2.011-2.122 3.016-.894 1.005-1.787 2.234-3.016 3.351-.558.558-1.452.893-2.345.893-.894 0-1.787-.112-2.569-.447l-9.382-9.381c-.67-.559-.893-1.452-.893-2.234s.223-1.676.446-2.346c.559-1.563 1.676-2.904 3.016-3.797.558-.447 1.229-.67 1.787-1.005l-.112.111c1.341-2.457 2.681-4.802 3.909-7.036v.223c-1.787-9.047-3.462-16.976-4.579-22.673-.558-2.792-1.005-5.026-1.228-6.589a17.76 17.76 0 00-.335-1.787c-.112-.447-.112-.67-.112-.67s.112.223.223.558c.112.447.224 1.005.447 1.787.335 1.564.893 3.797 1.452 6.59a4534.389 4534.389 0 014.803 22.673v.223c-1.229 2.234-2.569 4.579-3.91 7.036v.112h-.111c-.559.223-1.117.558-1.676.894-1.34.893-2.233 2.122-2.904 3.574-.335.67-.446 1.452-.446 2.122 0 .67.223 1.452.67 1.898 3.351 3.351 6.478 6.59 9.27 9.382l-.112-.111c1.564.558 3.463.781 4.468-.335 1.117-1.117 2.122-2.234 3.016-3.239.893-1.006 1.675-2.011 2.122-3.016.111-.223.223-.447.223-.67 0-.224 0-.559-.112-.782 0-.447-.111-.893-.111-1.34.67-.894 1.228-1.676 1.675-2.122.335-.559.447-.782.558-.782z" fill="#263238"/><path d="M157.815 288.718c-.112.111-2.122-2.904-5.584-5.697-3.351-2.792-6.702-4.132-6.702-4.244 0-.111.894.224 2.234.782 1.34.559 3.127 1.675 4.803 3.016 1.787 1.452 3.127 2.904 3.909 4.132 1.005 1.229 1.452 2.011 1.34 2.011zm4.692-19.882c0 .223-3.239-.67-7.148.223-3.909.782-6.478 2.904-6.589 2.793 0 0 .558-.67 1.675-1.341 1.117-.67 2.792-1.563 4.803-2.01 2.01-.447 3.909-.447 5.249-.223 1.228.111 2.01.446 2.01.558z" fill="#263238"/><path opacity=".3" d="M91.473 251.637c-1.451-3.351-4.467-5.585-7.706-7.149-3.24-1.563-6.59-2.568-10.052-4.579v.335c.67 1.787 2.122 3.128 3.686 4.244 1.563 1.117 3.35 1.899 5.026 2.793 5.026 3.015 8.823 8.041 10.387 13.626.223-3.016-.112-6.478-1.34-9.27z" fill="#000"/><path d="M117.496 390.354c-.112 0-2.011-14.631-4.244-32.613-2.123-18.094-3.798-32.725-3.686-32.725.112 0 2.01 14.631 4.244 32.613 2.234 18.094 3.797 32.725 3.686 32.725zm-1.341-78.293c.112.112-1.564 2.681-3.462 6.143-1.899 3.351-3.239 6.255-3.463 6.143-.111-.112 1.006-3.016 2.904-6.478 2.011-3.351 3.909-5.92 4.021-5.808zm-2.567-62.102c.111 0-.447.782-1.452 1.787-1.005 1.006-2.346 2.458-4.133 3.798a39.128 39.128 0 01-4.691 3.015c-1.228.671-2.122.894-2.122.894-.111-.112 3.128-1.675 6.478-4.244 3.463-2.792 5.808-5.473 5.92-5.25z" fill="#455A64"/><path d="M78.07 283.357c0 .111-.67 0-1.564.111-1.005.112-2.346.335-3.574 1.117-1.229.782-2.234 1.787-2.793 2.569-.558.782-.781 1.34-.893 1.34-.112 0 0-.67.558-1.563.447-.894 1.452-2.011 2.793-2.904 1.34-.782 2.904-1.006 3.909-1.006s1.675.336 1.563.336zm-3.462-9.161c.112.112-.559.67-1.34 1.34-.782.559-1.564 1.005-1.676.894-.111-.112.559-.67 1.34-1.341.894-.558 1.564-1.005 1.676-.893z" fill="#263238"/><path d="M63.998 255.88c.111 1.452-1.005 2.793-2.57 2.793-1.451.111-2.791-1.006-2.791-2.569-.112-1.452 1.005-2.793 2.569-2.793 1.451-.111 2.68 1.006 2.792 2.569zm66.455 80.529c.111 1.452-1.005 2.792-2.569 2.792-1.452.112-2.792-1.005-2.792-2.569-.112-1.452 1.005-2.792 2.569-2.792 1.451 0 2.792 1.117 2.792 2.569z" fill="#455A64"/><path d="M41.102 238.009c.111-.112 4.69 3.798 10.275 8.712s10.052 9.047 9.94 9.158c-.111.112-4.69-3.797-10.275-8.711-5.696-4.915-10.052-9.047-9.94-9.159zm127.772 85.331l-1.675.335c-1.229.223-2.792.447-4.691.67-3.909.558-9.382 1.34-15.301 2.122-.335 0-.671.112-1.006.112h.112c-5.138 2.792-9.717 5.361-12.956 7.148-1.563.893-2.904 1.564-3.909 2.122-.893.447-1.452.782-1.452.67 0 0 .447-.335 1.34-.893a103.858 103.858 0 003.798-2.234c3.239-1.899 7.818-4.468 12.956-7.26.335 0 .67-.112 1.005-.112 6.031-.781 11.392-1.563 15.413-2.01 1.899-.223 3.462-.447 4.691-.558 1.005-.112 1.675-.112 1.675-.112zM41.549 230.639c0 .111-4.468.335-9.94.335-5.474 0-9.941-.112-9.941-.335 0-.112 4.468-.335 9.94-.335 5.473 0 9.94.111 9.94.335zm-4.244 2.792c0 .111-3.127.335-7.036.335-3.91 0-7.037-.112-7.037-.335 0-.112 3.128-.335 7.037-.335s7.036.223 7.036.335zm161.167 87.34c0 .112-4.691.559-10.387 1.005-5.808.447-10.387.559-10.499.447 0-.111 4.691-.558 10.387-1.005 5.808-.335 10.499-.558 10.499-.447zm-3.91 3.127c0 .112-2.68.447-5.919.559-3.351.111-5.92.111-6.032 0 0-.112 2.681-.447 5.92-.559 3.351-.111 6.031-.111 6.031 0z" fill="#455A64"/><path d="M471.105 486.965c0 .112-101.414.335-226.506.335-125.091 0-226.505-.112-226.505-.335 0-.112 101.414-.335 226.505-.335 125.092 0 226.506.112 226.506.335z" fill="#263238"/></svg>