<svg width="50" height="50" fill="none" xmlns="http://www.w3.org/2000/svg"><path fill-rule="evenodd" clip-rule="evenodd" d="M50 25c0 13.807-11.193 25-25 25S0 38.807 0 25 11.193 0 25 0s25 11.193 25 25zm-24.462-5.124c-2.15.854-6.446 2.622-12.888 5.303-1.046.398-1.594.787-1.644 1.167-.085.642.758.895 1.905 1.24.156.047.317.095.483.147 1.128.35 2.646.76 3.435.776.716.015 1.515-.267 2.397-.846 6.02-3.881 9.126-5.843 9.322-5.885.137-.03.328-.068.457.042.13.11.117.318.103.373-.084.34-3.39 3.276-5.1 4.796-.534.473-.912.81-.99.886-.173.172-.35.335-.519.49-1.048.966-1.834 1.69.044 2.872.902.568 1.624 1.038 2.345 1.507.786.512 1.571 1.022 2.586 1.658.26.162.506.33.747.494.915.624 1.738 1.184 2.754 1.095.59-.052 1.2-.583 1.51-2.165.733-3.739 2.172-11.84 2.504-15.178a3.558 3.558 0 00-.037-.83c-.03-.165-.09-.4-.314-.572-.265-.206-.674-.249-.856-.246-.832.014-2.107.438-8.244 2.876z" fill="url(#paint0_linear)"/><defs><linearGradient id="paint0_linear" x1="-5.958" y1="-22.325" x2="74.22" y2="36.486" gradientUnits="userSpaceOnUse"><stop stop-color="#CC283C"/><stop offset="1" stop-color="#CC284F"/></linearGradient></defs></svg>