<svg width="31" height="35" fill="none" xmlns="http://www.w3.org/2000/svg"><path d="M2.781 2.313A2.312 2.312 0 00.47 4.624v2.313A2.312 2.312 0 002.78 9.25h1.156v20.813a4.625 4.625 0 004.626 4.625h13.874a4.625 4.625 0 004.625-4.626V9.25h1.157a2.312 2.312 0 002.312-2.313V4.626a2.312 2.312 0 00-2.312-2.313h-8.094A2.312 2.312 0 0017.812 0h-4.625a2.313 2.313 0 00-2.312 2.313H2.781zm6.938 9.25a1.156 1.156 0 011.156 1.156v16.187a1.156 1.156 0 11-2.313 0V12.72a1.156 1.156 0 011.157-1.156zm5.781 0a1.156 1.156 0 011.156 1.156v16.187a1.156 1.156 0 11-2.312 0V12.72a1.156 1.156 0 011.156-1.156zm6.938 1.156v16.187a1.156 1.156 0 11-2.313 0V12.72a1.156 1.156 0 112.313 0z" fill="#fff"/></svg>