<svg width="50" height="50" fill="none" xmlns="http://www.w3.org/2000/svg"><circle cx="25" cy="25" r="25" fill="url(#paint0_linear)"/><path d="M21.18 36c9.808 0 15.175-7.695 15.175-14.367 0-.216-.005-.437-.015-.654A10.532 10.532 0 0039 18.365c-.972.41-2.005.677-3.062.793a5.137 5.137 0 002.346-2.792 11.095 11.095 0 01-3.386 1.225 5.44 5.44 0 00-3.027-1.525 5.604 5.604 0 00-3.382.532 5.18 5.18 0 00-2.344 2.368 4.81 4.81 0 00-.34 3.23 15.831 15.831 0 01-6.088-1.53 15.029 15.029 0 01-4.905-3.743 4.823 4.823 0 00-.582 3.679c.306 1.251 1.105 2.346 2.233 3.06a5.572 5.572 0 01-2.417-.63v.063c0 1.166.425 2.297 1.206 3.2a5.392 5.392 0 003.074 1.751 5.59 5.59 0 01-2.407.087 5.078 5.078 0 001.897 2.51 5.55 5.55 0 003.084 1 11.1 11.1 0 01-6.625 2.163c-.426 0-.852-.025-1.275-.074A15.76 15.76 0 0021.18 36z" fill="#fff"/><defs><linearGradient id="paint0_linear" x1="-5.958" y1="-22.325" x2="74.22" y2="36.486" gradientUnits="userSpaceOnUse"><stop stop-color="#CC283C"/><stop offset="1" stop-color="#CC284F"/></linearGradient></defs></svg>