<svg width="24" height="25" viewBox="0 0 24 25" fill="none" xmlns="http://www.w3.org/2000/svg">
<path fill-rule="evenodd" clip-rule="evenodd" d="M11.6604 24.6808H13.1178C14.2966 24.6808 15.2556 23.6967 15.2556 22.4872V21.9813C15.7567 21.8169 16.2436 21.6096 16.7113 21.3612L17.0604 21.7194C17.9051 22.5872 19.2604 22.566 20.084 21.7197L21.1141 20.6627C21.9376 19.8185 21.961 18.4278 21.1144 17.56L20.765 17.2014C21.007 16.7214 21.2091 16.2219 21.3692 15.7076H21.8622C23.041 15.7076 24 14.7235 24 13.514V12.0184C24 10.8088 23.041 9.82475 21.8622 9.82475H21.3692C21.2091 9.31042 21.007 8.81089 20.765 8.33091L21.1141 7.97264C21.9612 7.10431 21.9375 5.7137 21.1144 4.86995L20.0843 3.81299C19.2626 2.96869 17.907 2.94318 17.0607 3.81267L16.7113 4.17122C16.2436 3.92283 15.7567 3.71544 15.2556 3.55115V3.0452C15.2556 1.83563 14.2966 0.851562 13.1179 0.851562H11.6605C10.4817 0.851562 9.52273 1.83563 9.52273 3.0452V3.55111C9.02161 3.71544 8.53472 3.92283 8.06698 4.17118L7.71788 3.81295C6.87324 2.94523 5.51795 2.96636 4.69435 3.81267L3.6642 4.86972C2.8407 5.71384 2.81734 7.10459 3.66393 7.9724L4.01334 8.33091C3.77129 8.81089 3.56923 9.31047 3.40908 9.82475H2.91607C1.73735 9.82475 0.77832 10.8088 0.77832 12.0184V13.514C0.77832 14.7235 1.73735 15.7076 2.91603 15.7076H3.40904C3.56918 16.2219 3.77124 16.7214 4.0133 17.2014L3.66416 17.5597C2.81707 18.428 2.84074 19.8186 3.66389 20.6624L4.69394 21.7193C5.51563 22.5637 6.87124 22.5892 7.71752 21.7197L8.06693 21.3611C8.53468 21.6095 9.02156 21.8169 9.52269 21.9812V22.4871C9.52269 23.6967 10.4817 24.6808 11.6604 24.6808ZM10.373 20.7804C9.64356 20.5872 8.94418 20.2893 8.29439 19.8949C7.96543 19.6953 7.62876 19.8361 7.46693 20.0022L6.75513 20.7326C6.4479 21.0483 5.95517 21.0393 5.65641 20.7323L4.62573 19.6747C4.32643 19.3679 4.3184 18.8625 4.626 18.5472L5.33757 17.817C5.55718 17.5917 5.60017 17.2423 5.44211 16.968C5.05787 16.3013 4.76755 15.5836 4.57928 14.835C4.50172 14.5267 4.23082 14.3113 3.92055 14.3113H2.91607C2.48761 14.3113 2.13897 13.9536 2.13897 13.514V12.0184C2.13897 11.5787 2.48761 11.221 2.91607 11.2209H3.92059C4.23082 11.2209 4.50177 11.0056 4.57933 10.6973C4.76759 9.94869 5.05787 9.23102 5.44216 8.56427C5.60022 8.28995 5.55722 7.94061 5.33761 7.71526L4.62577 6.98479C4.31754 6.66887 4.32752 6.16329 4.62604 5.85733L5.65682 4.79963C5.95603 4.49208 6.44872 4.48477 6.7555 4.79995L7.46702 5.53014C7.68663 5.75549 8.02702 5.79962 8.29443 5.63742C8.94423 5.24307 9.6436 4.94516 10.3731 4.75197C10.6735 4.67243 10.8834 4.39439 10.8834 4.076V3.0452C10.8834 2.60552 11.2321 2.24781 11.6605 2.24781H13.1179C13.5464 2.24781 13.895 2.60552 13.895 3.0452V4.07609C13.895 4.39448 14.1049 4.67252 14.4054 4.75206C15.1348 4.94525 15.8342 5.24317 16.484 5.63751C16.7513 5.79976 17.0918 5.75563 17.3114 5.53023L18.0232 4.79977C18.3305 4.48408 18.8232 4.49306 19.1219 4.80004L20.1526 5.8577C20.4519 6.16445 20.46 6.66989 20.1524 6.98517L19.4408 7.71535C19.2212 7.94071 19.1782 8.29005 19.3362 8.56436C19.7205 9.23112 20.0108 9.94878 20.1991 10.6974C20.2766 11.0056 20.5475 11.221 20.8578 11.221H21.8623C22.2908 11.221 22.6394 11.5788 22.6394 12.0184V13.514C22.6394 13.9537 22.2908 14.3114 21.8623 14.3114H20.8578C20.5476 14.3114 20.2766 14.5267 20.1991 14.835C20.0108 15.5836 19.7205 16.3013 19.3362 16.9681C19.1782 17.2424 19.2212 17.5917 19.4408 17.8171L20.1526 18.5475C20.4609 18.8634 20.4509 19.3691 20.1524 19.675L19.1216 20.7327C18.8223 21.0403 18.3297 21.0476 18.0229 20.7324L17.3114 20.0022C17.0917 19.7768 16.7513 19.7327 16.484 19.8949C15.8342 20.2893 15.1348 20.5872 14.4053 20.7804C14.1049 20.8599 13.895 21.138 13.895 21.4563V22.4871C13.895 22.9268 13.5463 23.2845 13.1179 23.2845H11.6605C11.232 23.2845 10.8834 22.9268 10.8834 22.4871V21.4563C10.8834 21.138 10.6735 20.8599 10.373 20.7804ZM6.22964 12.7663C6.22964 16.2513 8.99263 19.0867 12.3889 19.0867C15.7852 19.0867 18.5482 16.2513 18.5482 12.7663C18.5482 9.28117 15.7852 6.44584 12.3889 6.44584C8.99263 6.44584 6.22964 9.28117 6.22964 12.7663ZM7.88833 12.7663C7.88833 10.2197 9.90723 8.14793 12.3889 8.14793C14.8706 8.14793 16.8895 10.2197 16.8895 12.7663C16.8895 15.3128 14.8705 17.3846 12.3889 17.3846C9.90728 17.3846 7.88833 15.3128 7.88833 12.7663Z" fill="#898D93"/>
</svg>
