<svg width="23" height="23" viewBox="0 0 23 23" fill="none" xmlns="http://www.w3.org/2000/svg">
<g clip-path="url(#clip0_652_21398)">
<path d="M20.1253 14.375V17.25H23.0003V19.1667H20.1253V22.0417H18.2087V19.1667H15.3337V17.25H18.2087V14.375H20.1253ZM20.133 2.875C20.6582 2.875 21.0837 3.30146 21.0837 3.82663V12.4583H19.167V4.79167H3.83366V18.2074L13.417 8.625L16.292 11.5V14.2111L13.417 11.3361L6.54287 18.2083H13.417V20.125H2.86766C2.61544 20.1247 2.37364 20.0244 2.19538 19.8459C2.01712 19.6675 1.91699 19.4256 1.91699 19.1734V3.82663C1.91875 3.57495 2.01944 3.33406 2.19732 3.156C2.3752 2.97794 2.61598 2.87701 2.86766 2.875H20.133ZM7.66699 6.70833C8.17532 6.70833 8.66284 6.91027 9.02228 7.26971C9.38172 7.62916 9.58366 8.11667 9.58366 8.625C9.58366 9.13333 9.38172 9.62084 9.02228 9.98029C8.66284 10.3397 8.17532 10.5417 7.66699 10.5417C7.15866 10.5417 6.67115 10.3397 6.3117 9.98029C5.95226 9.62084 5.75033 9.13333 5.75033 8.625C5.75033 8.11667 5.95226 7.62916 6.3117 7.26971C6.67115 6.91027 7.15866 6.70833 7.66699 6.70833V6.70833Z" fill="#898D93" stroke="#F2F1F6" stroke-width="0.6"/>
</g>
<defs>
<clipPath id="clip0_652_21398">
<rect width="23" height="23" fill="white"/>
</clipPath>
</defs>
</svg>
