<svg width="92" height="92" fill="none" xmlns="http://www.w3.org/2000/svg"><path d="M0 14C0 6.268 6.268 0 14 0h64c7.732 0 14 6.268 14 14v64c0 7.732-6.268 14-14 14H14C6.268 92 0 85.732 0 78V14z" fill="#fff"/><g clip-path="url(#clip0)"><path fill-rule="evenodd" clip-rule="evenodd" d="M67.015 35.657c.297-.978 0-1.699-1.425-1.699h-4.703c-1.197 0-1.749.622-2.048 1.308 0 0-2.392 5.726-5.78 9.446-1.096 1.078-1.594 1.42-2.193 1.42-.299 0-.749-.342-.749-1.322v-9.153c0-1.176-.33-1.699-1.325-1.699h-7.397c-.747 0-1.196.545-1.196 1.063 0 1.112 1.695 1.37 1.868 4.502v6.805c0 1.492-.274 1.763-.872 1.763-1.595 0-5.474-5.753-7.776-12.336-.446-1.28-.898-1.797-2.1-1.797h-4.706c-1.344 0-1.613.622-1.613 1.308 0 1.222 1.595 7.292 7.426 15.32 3.888 5.483 9.362 8.456 14.348 8.456 2.99 0 3.36-.66 3.36-1.797V53.1c0-1.32.283-1.583 1.23-1.583.7 0 1.894.344 4.686 2.986 3.189 3.134 3.714 4.539 5.509 4.539h4.703c1.344 0 2.017-.66 1.63-1.964-.426-1.297-1.949-3.18-3.968-5.415-1.096-1.272-2.741-2.642-3.241-3.328-.697-.88-.498-1.273 0-2.056 0 0 5.733-7.93 6.33-10.622h.002z" fill="#5F83AA"/></g><defs><clipPath id="clip0"><path fill="#fff" transform="translate(25 25)" d="M0 0h43v43H0z"/></clipPath></defs></svg>