<svg width="92" height="92" viewBox="0 0 92 92" fill="none" xmlns="http://www.w3.org/2000/svg">
<g clip-path="url(#clip0_1418_41491)">
<path fill-rule="evenodd" clip-rule="evenodd" d="M67.0146 35.6565C67.312 34.6783 67.0146 33.958 65.5902 33.958H60.8871C59.6903 33.958 59.1384 34.5797 58.8392 35.2659C58.8392 35.2659 56.4473 40.9921 53.0593 44.7116C51.9628 45.7902 51.4647 46.1324 50.8663 46.1324C50.5671 46.1324 50.1174 45.7902 50.1174 44.8101V35.6565C50.1174 34.4812 49.7877 33.958 48.7915 33.958H41.3955C40.6484 33.958 40.1987 34.5027 40.1987 35.0205C40.1987 36.1331 41.8936 36.3911 42.0674 39.5229V46.3277C42.0674 47.8201 41.7933 48.0907 41.1949 48.0907C39.6003 48.0907 35.7213 42.3376 33.419 35.755C32.9729 34.474 32.5214 33.958 31.3192 33.958H26.6125C25.2687 33.958 25 34.5797 25 35.2659C25 36.4878 26.5946 42.558 32.4265 50.5865C36.3144 56.069 41.7879 59.0413 46.7741 59.0413C49.7644 59.0413 50.1335 58.382 50.1335 57.2443V53.1002C50.1335 51.7797 50.4166 51.5163 51.3644 51.5163C52.0631 51.5163 53.2582 51.8603 56.0496 54.5031C59.2388 57.6367 59.7637 59.0413 61.559 59.0413H66.2621C67.6058 59.0413 68.2795 58.382 67.8925 57.0777C67.4661 55.7805 65.9432 53.8975 63.924 51.6633C62.8275 50.3912 61.1827 49.0206 60.6828 48.3343C59.9859 47.4546 60.1847 47.0623 60.6828 46.2793C60.6828 46.2793 66.4162 38.3494 67.0128 35.6565H67.0146Z" fill="#5F83AA"/>
</g>
<defs>
<clipPath id="clip0_1418_41491">
<rect width="43" height="43" fill="white" transform="translate(25 25)"/>
</clipPath>
</defs>
</svg>
