<svg width="26" height="24" fill="none" xmlns="http://www.w3.org/2000/svg"><path d="M14.9 2.516l1.936 3.727c.264.518.968 1.016 1.562 1.111l3.509.561c2.243.36 2.771 1.927 1.154 3.472l-2.727 2.625c-.462.445-.715 1.302-.572 1.916l.78 3.25c.617 2.572-.802 3.567-3.167 2.223l-3.289-1.874c-.593-.338-1.572-.338-2.177 0L8.62 21.401c-2.354 1.345-3.783.339-3.168-2.223l.781-3.25c.143-.614-.11-1.471-.572-1.916l-2.727-2.625c-1.606-1.545-1.09-3.112 1.155-3.472l3.508-.561c.583-.095 1.287-.593 1.551-1.111l1.936-3.727c1.056-2.021 2.771-2.021 3.816 0z" stroke="#fff" stroke-width="2" stroke-linecap="round" stroke-linejoin="round"/></svg>