<svg width="25" height="25" viewBox="0 0 25 25" fill="none" xmlns="http://www.w3.org/2000/svg">
<path d="M12.5 20.3125C16.8147 20.3125 20.3125 16.8147 20.3125 12.5C20.3125 8.18528 16.8147 4.6875 12.5 4.6875C8.18528 4.6875 4.6875 8.18528 4.6875 12.5C4.6875 16.8147 8.18528 20.3125 12.5 20.3125Z" stroke="#C7FAEC" stroke-width="1.5" stroke-linecap="round" stroke-linejoin="round"/>
<path d="M12.5 15.625C14.2259 15.625 15.625 14.2259 15.625 12.5C15.625 10.7741 14.2259 9.375 12.5 9.375C10.7741 9.375 9.375 10.7741 9.375 12.5C9.375 14.2259 10.7741 15.625 12.5 15.625Z" stroke="#C7FAEC" stroke-width="1.5" stroke-linecap="round" stroke-linejoin="round"/>
<path d="M12.5 4.16659V2.08325" stroke="#C7FAEC" stroke-width="1.5" stroke-linecap="round" stroke-linejoin="round"/>
<path d="M4.16732 12.5H2.08398" stroke="#C7FAEC" stroke-width="1.5" stroke-linecap="round" stroke-linejoin="round"/>
<path d="M12.5 20.8333V22.9166" stroke="#C7FAEC" stroke-width="1.5" stroke-linecap="round" stroke-linejoin="round"/>
<path d="M20.834 12.5H22.9173" stroke="#C7FAEC" stroke-width="1.5" stroke-linecap="round" stroke-linejoin="round"/>
</svg>
