<svg width="23" height="23" viewBox="0 0 23 23" fill="none" xmlns="http://www.w3.org/2000/svg">
<path d="M17.288 12.9856C16.8855 13.3785 16.6555 13.9439 16.713 14.5477C16.7993 15.5827 17.748 16.3397 18.783 16.3397H20.6038V17.4802C20.6038 19.4639 18.9843 21.0835 17.0005 21.0835H5.99884C4.01509 21.0835 2.39551 19.4639 2.39551 17.4802V11.0306C2.39551 9.04684 4.01509 7.42725 5.99884 7.42725H17.0005C18.9843 7.42725 20.6038 9.04684 20.6038 11.0306V12.4106H18.668C18.1313 12.4106 17.6426 12.6214 17.288 12.9856Z" stroke="#BEBBC3" stroke-width="2" stroke-linecap="round" stroke-linejoin="round"/>
<path d="M2.39551 11.893V7.51346C2.39551 6.37305 3.09509 5.35717 4.15884 4.95467L11.768 2.07967C12.9563 1.62925 14.2309 2.51095 14.2309 3.78553V7.42719" stroke="#BEBBC3" stroke-width="2" stroke-linecap="round" stroke-linejoin="round"/>
<path d="M21.6185 13.3881V15.3623C21.6185 15.8894 21.1969 16.3206 20.6602 16.3398H18.7819C17.7469 16.3398 16.7981 15.5827 16.7119 14.5477C16.6544 13.944 16.8844 13.3785 17.2869 12.9856C17.6415 12.6215 18.1302 12.4106 18.6669 12.4106H20.6602C21.1969 12.4298 21.6185 12.861 21.6185 13.3881Z" stroke="#BEBBC3" stroke-width="2" stroke-linecap="round" stroke-linejoin="round"/>
<path d="M6.70801 11.5H13.4163" stroke="#BEBBC3" stroke-width="2" stroke-linecap="round" stroke-linejoin="round"/>
</svg>
